<?xml version="1.0" encoding="UTF-8" standalone="no"?>
<svg
   xmlns:dc="http://purl.org/dc/elements/1.1/"
   xmlns:cc="http://creativecommons.org/ns#"
   xmlns:rdf="http://www.w3.org/1999/02/22-rdf-syntax-ns#"
   xmlns:svg="http://www.w3.org/2000/svg"
   xmlns="http://www.w3.org/2000/svg"
   viewBox="0 0 666.66669 280"
   height="280"
   width="666.66669"
   xml:space="preserve"
   id="svg2"
   version="1.1"><metadata
     id="metadata8"><rdf:RDF><cc:Work
         rdf:about=""><dc:format>image/svg+xml</dc:format><dc:type
           rdf:resource="http://purl.org/dc/dcmitype/StillImage" /></cc:Work></rdf:RDF></metadata><defs
     id="defs6" /><g
     transform="matrix(1.3333333,0,0,-1.3333333,0,280)"
     id="g10"><g
       transform="translate(219.85335,62.788803)"
       id="g12"><path
         id="path14"
         style="fill:#000000;fill-opacity:1;fill-rule:nonzero;stroke:none"
         d="m 24.563082,68.186005 c -5.907574,0 -10.882386,-1.977913 -14.717126,-5.30914 v 4.059933 L 0,62.772762 V 0 h 9.845956 v 21.236557 c 2.901966,-2.498421 6.529424,-4.164028 10.364163,-4.788635 16.479021,-2.60252 29.019659,9.889572 29.019659,25.71289 0,14.365906 -10.364151,26.025193 -24.666696,26.025193 z M 38.451054,35.914764 C 37.000072,31.230228 33.268974,27.586704 28.605099,26.441597 17.93001,24.047276 10.260523,31.542534 9.845956,41.328003 v 1.665611 c 0.414567,8.432167 6.21851,15.198715 14.717126,15.198715 10.882372,0.104103 17.411791,-10.82648 13.887972,-22.277565 z" /></g><g
       transform="translate(354.89841,80.173615)"
       id="g16"><path
         id="path18"
         style="fill:#000000;fill-opacity:1;fill-rule:nonzero;stroke:none"
         d="M 9.845978,0 H 0 v 45.387939 l 9.845978,4.164032 z" /></g><g
       transform="translate(163.00638,78.091621)"
       id="g20"><path
         id="path22"
         style="fill:#000000;fill-opacity:1;fill-rule:nonzero;stroke:none"
         d="M 39.538803,47.469948 C 35.70406,50.80117 30.625616,52.883186 24.718044,52.883186 7.513531,52.883186 -3.990682,36.122963 1.295042,17.905331 3.886083,9.056767 11.451921,2.394318 20.572386,1.145111 28.241867,0 34.771286,2.082012 39.538803,6.141941 V 2.082012 h 9.845955 V 51.633976 Z M 38.606033,20.61195 C 37.155048,15.927414 33.42395,12.28389 28.760077,11.138783 17.774063,8.640362 10.000934,16.656124 10.000934,26.753897 c 0,8.848566 6.011218,16.135618 14.820758,16.135618 8.809537,0 14.717115,-7.078854 14.820756,-15.823317 V 26.753897 C 39.538807,24.775982 39.227882,22.693964 38.606033,20.61195 Z" /></g><g
       transform="translate(274.78342,62.788803)"
       id="g24"><path
         id="path26"
         style="fill:#000000;fill-opacity:1;fill-rule:nonzero;stroke:none"
         d="m 24.563089,68.186005 c -5.907575,0 -10.882388,-1.977913 -14.717129,-5.30914 v 4.059933 L 0,62.772762 V 0 h 9.84596 v 21.236557 c 2.901966,-2.498421 6.529425,-4.164028 10.364167,-4.788635 16.479025,-2.60252 29.01967,9.889572 29.01967,25.71289 0,14.365906 -10.364154,26.025193 -24.666708,26.025193 z M 38.451069,35.914764 C 37.000084,31.230228 33.268986,27.586704 28.605108,26.441597 17.930016,24.047276 10.260526,31.542534 9.84596,41.328003 v 1.665611 c 0.414566,8.432167 6.218512,15.198715 14.717129,15.198715 10.882376,0.104103 17.308154,-10.82648 13.88798,-22.277565 z" /></g><g
       transform="translate(372.20657,80.069519)"
       id="g28"><path
         id="path30"
         style="fill:#000000;fill-opacity:1;fill-rule:nonzero;stroke:none"
         d="m 18.448221,50.905285 c -3.212889,0 -6.114873,-1.873814 -8.602271,-4.788635 v 3.539425 L 0,45.492043 V 18.946342 0 h 9.84595 v 31.438437 c 0,4.788637 3.005625,9.577272 8.602271,9.577272 2.798323,0 4.974776,-1.24921 6.425759,-3.018925 l 4.560222,9.160874 c -3.005606,2.394317 -6.736677,3.747627 -10.985981,3.747627 z" /></g><g
       transform="translate(399.15863,79.028526)"
       id="g32"><path
         id="path34"
         style="fill:#000000;fill-opacity:1;fill-rule:nonzero;stroke:none"
         d="M 35.232964,11.867489 C 32.641922,10.305977 29.53266,9.785473 24.765141,9.785473 c -6.943997,0 -12.43699,4.476333 -14.1989,11.138782 h 38.347444 c 0.310924,1.56151 0.414562,3.227122 0.414562,4.996836 0,14.365904 -10.364162,26.02519 -24.666723,26.02519 C 9.52983,51.946281 -1.145281,38.933685 0.09842,23.526773 0.202061,22.693968 0.30569,21.86116 0.409332,21.028355 2.482167,8.744465 12.224515,0 24.661524,0 c 7.876772,0 14.406202,1.24921 20.72835,7.599358 z m -10.467823,30.18922 c 7.151279,0 12.333374,-4.684536 14.095283,-11.138782 H 10.566241 c 1.865551,6.454246 7.151262,11.138782 14.1989,11.138782 z" /></g><g
       transform="translate(76.180649,52.795128)"
       id="g36"><path
         id="path38"
         style="fill:#000000;fill-opacity:1;fill-rule:nonzero;stroke:none"
         d="M 79.000313,7.911652 60.552094,44.867432 C 60.241169,42.369011 59.722961,39.87059 58.790188,37.580376 57.961056,35.290161 56.820999,33.104042 55.47366,31.022026 L 62.935856,16.031517 20.546415,33.832748 c -4.145666,1.769715 -7.254913,4.996834 -8.91318,9.264969 -1.554625,4.268132 -1.347341,8.848564 0.725492,12.804394 L 27.697691,86.820038 43.036659,56.006214 c 1.969193,-4.059929 2.280113,-8.640365 0.725491,-12.804394 -1.554627,-4.268135 -4.663876,-7.495262 -8.913181,-9.264968 l -0.207284,-0.104104 11.918786,-4.996841 c 3.21289,2.914825 5.70029,6.55835 7.254917,10.618278 2.591037,6.974755 2.176475,14.782315 -1.140057,21.444767 L 32.465206,101.18595 c -0.829134,1.87381 -2.694683,3.01892 -4.767515,3.01892 -2.072834,0 -3.938381,-1.14511 -4.767515,-3.01892 L 2.823694,60.794849 C -0.492838,54.132397 -0.907405,46.324841 1.683636,39.35009 4.274677,32.375336 9.664044,26.753899 16.504395,23.839073 L 72.159966,0.416405 C 72.781815,0.104103 73.507301,0 74.232796,0 c 1.450981,0 2.901962,0.624603 3.938377,1.665611 1.450981,1.769707 1.76191,4.268128 0.82914,6.246041 z" /></g><g
       transform="translate(52,53.003311)"
       id="g40"><path
         id="path42"
         style="fill:#000000;fill-opacity:1;fill-rule:nonzero;stroke:none"
         d="m 32.186424,22.381672 -15.546245,-6.558346 7.462198,14.88641 c -1.347342,2.082016 -2.4874,4.268135 -3.316532,6.558353 -0.829134,2.394318 -1.450985,4.892739 -1.76191,7.287056 L 0.575721,7.703461 C -0.460695,5.725544 -0.046129,3.227123 1.404854,1.665611 2.441271,0.520504 3.892254,0 5.343237,0 6.068729,0 6.79422,0.104103 7.41607,0.416405 l 37.414638,15.719219 -6.425782,2.706619 c -2.176475,0.832806 -4.249309,2.082018 -6.218502,3.539429 z" /></g><g
       transform="translate(325.25693,80.277725)"
       id="g44"><path
         id="path46"
         style="fill:#000000;fill-opacity:1;fill-rule:nonzero;stroke:none"
         d="M 22.282969,69.331116 C 12.747931,69.331116 4.97479,61.52356 4.97479,51.946289 V 45.283836 H 0 V 35.39426 H 4.97479 V 0 h 9.845962 v 35.39426 h 9.845964 v 9.889576 h -9.845964 v 6.662453 c 0,4.059929 3.316541,7.391151 7.358567,7.391151 3.834744,0 6.944003,-2.914821 7.358569,-6.662448 l 9.224105,3.85173 c -1.969192,7.391155 -8.602254,12.804394 -16.479024,12.804394 z" /></g></g></svg>