<svg xmlns="http://www.w3.org/2000/svg" height="120" width="536"><defs><clipPath id="a"><path d="M0 90h402V0H0z"/></clipPath></defs><g clip-path="url(#a)" transform="matrix(1.33333 0 0 -1.33333 0 120)"><path d="M74.3 47.98c-.25 0-.5 0-.74-.02a.4.4 0 0 1-.37-.4v-6.12c0-.2.16-.37.36-.39l.73-.03h.05c.23 0 .47.01.7.03.2.02.36.18.36.39v6.13a.4.4 0 0 1-.37.4h-.72m8.16-1.46a.4.4 0 0 1-.34.38h-.03l-.26.04h-.06l-.6.01h-.01l-.66-.01h-.04l-.27-.04a.4.4 0 0 1-.34-.39v-4c0-.2.15-.35.34-.38h.04l.25-.04h.07l.6-.02h.01c.24 0 .46 0 .66.02h.04c.08.03.17.03.26.04.2.04.34.2.34.39zm2.07.07a12.9 12.9 0 0 0 0-4.15c-.03-.17-.04-.36-.13-.5-.12-.2-.21-.32-.4-.46-.3-.2-.67-.28-1.02-.35a10.1 10.1 0 0 0-1.78-.17h-.04c-.73 0-1.47.08-2.18.25-.47.11-1.01.36-1.13.91a13.15 13.15 0 0 0-.1 4.28c.06.37.1.75.4 1 .51.46 1.28.54 1.93.6a12.43 12.43 0 0 0 2.9-.1c.35-.07.72-.13 1.02-.35.17-.12.33-.3.42-.5.06-.15.08-.3.11-.46m109.37 1.38a13.6 13.6 0 0 1-1.47 0 .4.4 0 0 1-.36-.4v-6.12c0-.21.16-.38.36-.4l.69-.03h.05c.25 0 .49.02.73.04.2.01.36.18.36.39v6.11a.4.4 0 0 1-.36.4M68.7 46.52a.4.4 0 0 1-.33.38h-.04l-.24.04h-.07l-.59.01h-.03l-.66-.01h-.04a3.84 3.84 0 0 0-.27-.04.39.39 0 0 1-.32-.39v-4c0-.2.13-.35.33-.38h.04l.24-.04h.07l.6-.02h.01c.25 0 .47 0 .66.02h.04c.1.03.18.03.27.04.19.04.33.2.33.39v4zm2.07.07a12.6 12.6 0 0 0 0-4.15c-.02-.17-.03-.36-.12-.5-.13-.2-.22-.32-.4-.46-.31-.2-.68-.28-1.03-.35a10.1 10.1 0 0 0-1.77-.17h-.05c-.73 0-1.47.08-2.17.25-.47.11-1.01.36-1.14.91a13.03 13.03 0 0 0-.1 4.28c.07.37.1.75.4 1 .52.46 1.29.54 1.94.6a12.48 12.48 0 0 0 2.9-.1c.34-.07.7-.13 1.01-.35.18-.12.35-.3.43-.5.06-.15.08-.3.1-.46m153.34-.07a.4.4 0 0 1-.33.38h-.05l-.25.04H223.41l-.58.01h-.03l-.65-.01H222.09a3.35 3.35 0 0 0-.26-.04.4.4 0 0 1-.33-.39v-4c0-.2.14-.35.33-.38h.04l.26-.04h.06a8.3 8.3 0 0 1 1.28 0h.04c.09.03.18.03.27.04.19.04.34.2.34.39v4zm2.18-.72c.1-1.1.08-2.25-.11-3.36-.04-.17-.04-.36-.13-.5-.12-.2-.21-.32-.4-.46-.3-.2-.68-.28-1.02-.35-.59-.1-1.19-.17-1.78-.17h-.04c-.73 0-1.47.08-2.18.25-.46.11-1.01.36-1.13.91a14.27 14.27 0 0 0-.21 3.22c.03.35.06.7.12 1.06.05.37.1.75.39 1 .51.46 1.28.54 1.94.6a12.42 12.42 0 0 0 2.9-.1c.34-.07.7-.13 1.01-.35.18-.12.34-.3.43-.5.06-.15.08-.3.1-.46.04-.26.08-.52.1-.79m-138.2 2.19c-.25 0-.5 0-.75-.02a.39.39 0 0 1-.36-.4v-6.12c0-.2.16-.37.36-.39l.72-.03h.06l.7.03c.19.02.35.18.35.39v6.13a.4.4 0 0 1-.36.4h-.72m8.1-1.46a.4.4 0 0 1-.33.38h-.04l-.25.04h-.06l-.6.01h-.02l-.65-.01h-.05a4.1 4.1 0 0 0-.26-.04.4.4 0 0 1-.35-.39v-4c0-.2.16-.35.35-.38h.03l.25-.04h.07l.6-.02h.02c.23 0 .45 0 .65.02h.04c.1.03.18.03.27.04.2.04.33.2.33.39zm2.18-.72c.11-1.1.09-2.24-.1-3.36-.03-.16-.04-.36-.13-.5a1.3 1.3 0 0 0-.4-.46c-.3-.2-.69-.28-1.03-.35-.58-.1-1.18-.17-1.77-.17h-.05c-.73 0-1.47.08-2.18.25-.46.11-1 .36-1.13.91a13.63 13.63 0 0 0-.1 4.28c.06.37.1.75.4 1 .52.46 1.28.54 1.93.6a12.42 12.42 0 0 0 2.9-.1c.34-.07.72-.13 1.02-.35.17-.12.34-.3.43-.5a16.91 16.91 0 0 0 .21-1.24m86.33 2.16a13.54 13.54 0 0 1-1.46 0 .4.4 0 0 1-.37-.4v-6.12a.4.4 0 0 1 .37-.4l.69-.03h.04c.25 0 .5.02.74.04.2.01.35.18.35.39v6.11c0 .23-.15.4-.36.4m-124.1.03c-.24 0-.49 0-.74-.02a.4.4 0 0 1-.36-.4v-6.12c0-.2.16-.37.36-.39.24-.01.48-.03.73-.03h.05l.7.03c.2.02.35.18.35.39v6.13a.4.4 0 0 1-.37.4h-.71m-28.87-.01a11.95 11.95 0 0 1-1.46 0 .4.4 0 0 1-.36-.4v-6.12c0-.2.16-.37.35-.39l.73-.03H31.06l.69.03c.2.02.36.18.36.39v6.13c0 .2-.16.37-.37.39m123.45 0a12.46 12.46 0 0 1-1.47 0 .4.4 0 0 1-.36-.4v-6.12c0-.2.16-.37.35-.39l.73-.03H154.5l.69.03c.2.02.36.18.36.39v6.13c0 .2-.16.37-.36.39m-6.28-1.45a.4.4 0 0 1-.33.38h-.04l-.25.04H148.2l-.58.01h-.03l-.66-.01h-.05a3.57 3.57 0 0 0-.26-.04.4.4 0 0 1-.33-.39v-4c0-.2.14-.35.33-.38h.04l.26-.04h.06a8.11 8.11 0 0 1 1.27 0h.04c.09.03.18.03.27.04.2.04.33.2.33.39zm2.18-.72c.1-1.1.08-2.24-.11-3.36-.02-.16-.03-.36-.13-.5-.13-.2-.2-.32-.4-.46-.3-.2-.67-.28-1.02-.35-.58-.1-1.18-.17-1.78-.17h-.04c-.73 0-1.47.08-2.18.25-.46.11-1.01.36-1.13.91a8.2 8.2 0 0 0-.17 1.1 14.83 14.83 0 0 0 .07 3.18c.06.37.1.75.4 1 .51.46 1.28.54 1.93.6a12.44 12.44 0 0 0 2.9-.1c.35-.07.72-.13 1.02-.35.16-.12.34-.3.43-.5a10.34 10.34 0 0 0 .21-1.24m38.22 2.16a13.77 13.77 0 0 1-1.47 0 .4.4 0 0 1-.36-.4v-6.12c0-.21.15-.38.36-.4l.69-.03h.04c.25 0 .5.02.73.04.21.01.37.18.37.39v6.11a.4.4 0 0 1-.36.4m-47.77 0a12.26 12.26 0 0 1-1.47 0 .4.4 0 0 1-.36-.39v-6.12c0-.2.16-.37.36-.39l.73-.03h.05l.7.03c.2.02.36.18.36.39v6.13a.4.4 0 0 1-.37.39m-29.78 0a12.18 12.18 0 0 1-1.47 0 .4.4 0 0 1-.37-.4v-6.12c0-.2.16-.37.37-.39.23-.01.48-.03.73-.03h.05l.69.03c.2.02.36.18.36.39v6.13c0 .2-.16.37-.36.39m-6.27-1.45a.4.4 0 0 1-.34.38h-.05l-.24.04h-.06l-.6.01h-.02a12 12 0 0 1-.66-.01h-.04a4.25 4.25 0 0 0-.27-.04.39.39 0 0 1-.33-.39v-4c0-.2.14-.35.34-.38h.04l.24-.04h.07a8.19 8.19 0 0 1 1.28 0h.03c.09.03.19.03.27.04.2.04.34.2.34.39zm2.17-.72c.11-1.1.1-2.24-.1-3.36-.03-.16-.05-.36-.13-.5-.13-.2-.22-.32-.41-.46-.3-.2-.67-.28-1.01-.35-.6-.1-1.2-.17-1.78-.17h-.05c-.73 0-1.47.08-2.18.25-.46.11-1.01.36-1.13.91-.09.36-.13.74-.17 1.1a14.69 14.69 0 0 0 .08 3.18c.05.37.1.75.39 1 .52.46 1.28.54 1.93.6a12.44 12.44 0 0 0 2.9-.1c.35-.07.72-.13 1.02-.35.17-.12.34-.3.43-.5a9.01 9.01 0 0 0 .2-1.24m130.07.7a.4.4 0 0 1-.34.39h-.04l-.25.04h-.07l-.6.01h-.01l-.66-.01h-.05a4.08 4.08 0 0 0-.26-.04.4.4 0 0 1-.34-.39v-4c0-.2.14-.35.34-.38h.04l.24-.04h.08a8.3 8.3 0 0 1 1.27 0h.04c.1.03.18.03.27.04.19.04.34.2.34.39zm2.17-.7c.1-1.12.09-2.25-.1-3.37-.03-.16-.04-.36-.13-.5-.13-.2-.21-.32-.4-.46-.3-.2-.68-.28-1.03-.35-.58-.1-1.18-.17-1.77-.17h-.04a9.1 9.1 0 0 0-2.19.25c-.45.11-1 .36-1.13.91a13.38 13.38 0 0 0-.21 3.22c.04.35.06.7.12 1.06.06.37.1.75.4 1 .51.46 1.27.54 1.92.6a12.52 12.52 0 0 0 2.9-.1c.35-.07.72-.13 1.02-.35.18-.12.34-.3.43-.5.06-.15.09-.3.11-.46.04-.26.08-.52.1-.79m-223.71.72c0 .19-.14.35-.33.38h-.04l-.25.04h-.07l-.6.01h-.01l-.66-.01h-.04a3.72 3.72 0 0 0-.28-.04.4.4 0 0 1-.33-.39v-4c0-.2.15-.35.33-.38h.05l.25-.04h.06l.61-.02c.25 0 .47 0 .67.02h.04c.08.03.18.03.27.04.19.04.32.2.32.39zm2.18-.72c.1-1.1.08-2.24-.1-3.36-.04-.16-.05-.36-.14-.5-.13-.2-.2-.32-.4-.46-.3-.2-.68-.28-1.02-.35-.6-.1-1.19-.17-1.78-.17h-.04c-.73 0-1.47.08-2.19.25-.45.11-1 .36-1.12.91a12.5 12.5 0 0 0-.09 4.28c.05.37.09.75.38 1 .52.46 1.28.54 1.95.6a12.4 12.4 0 0 0 2.9-.1c.33-.07.7-.13 1-.35.18-.12.35-.3.44-.5.06-.15.08-.3.1-.46.04-.26.08-.52.1-.79m7.12.72a.4.4 0 0 1-.33.38h-.05l-.25.04h-.06l-.59.01h-.02l-.67-.01h-.03a4.93 4.93 0 0 0-.27-.04.4.4 0 0 1-.34-.39v-4c0-.2.15-.35.34-.38h.04l.25-.04h.07a8.23 8.23 0 0 1 1.27 0h.05c.08.03.17.03.26.04.2.04.33.2.33.39zm2.18-.72c.1-1.1.08-2.24-.1-3.36-.04-.16-.05-.36-.13-.5-.14-.2-.22-.32-.42-.46-.3-.2-.66-.28-1-.35-.6-.1-1.2-.17-1.79-.17h-.04a9.1 9.1 0 0 0-2.18.25c-.46.11-1 .36-1.13.91a13.63 13.63 0 0 0-.1 4.28c.06.37.1.75.4 1 .51.46 1.28.54 1.93.6a12.4 12.4 0 0 0 2.9-.1c.35-.07.71-.13 1.01-.35.18-.12.35-.3.43-.5.07-.15.08-.3.12-.46l.1-.79m202.74 2.17a12.12 12.12 0 0 1-1.46 0 .4.4 0 0 1-.37-.4v-6.12c0-.2.16-.37.36-.39.24-.01.49-.03.74-.03h.04c.25 0 .47.02.7.03.2.02.36.18.36.39v6.13a.4.4 0 0 1-.37.39M213.8 76.2a123.43 123.43 0 0 1-13.85 0 3.63 3.63 0 0 1-3.4-3.62V16.46a3.62 3.62 0 0 1 3.38-3.62c2.26-.15 4.58-.22 6.9-.24H207.28c2.18.03 4.38.1 6.54.25a3.6 3.6 0 0 1 3.38 3.61v56.12c0 1.93-1.5 3.51-3.42 3.62M90.48 74.27a102.9 102.9 0 0 1-23.67 2.7c-8.21 0-16.17-.9-23.67-2.7a8.27 8.27 0 0 1-6.1-6.11 102.89 102.89 0 0 1-2.72-23.66c0-8.1.94-16.28 2.72-23.67a8.29 8.29 0 0 1 6.1-6.1C50.54 12.94 58.72 12 66.81 12c8.2 0 16.17.91 23.67 2.71a8.27 8.27 0 0 1 6.1 6.11 99.42 99.42 0 0 1 2.38 15.32v.48c0 1.13-.83 2.15-2.02 2.15H79c-1.19 0-2.06-1.02-2.1-2.15l-.1-2.78c-.15-4.92-.35-9.87-.62-11a1.76 1.76 0 0 0-1.42-1.27 43.4 43.4 0 0 0-7.95-.71c-2.76 0-5.43.24-7.94.7-.72.14-1.28.63-1.43 1.27-.53 2.22-.8 19.2-.8 21.65 0 2.45.27 19.43.8 21.66.15.63.7 1.13 1.43 1.26 2.5.47 5.18.72 7.94.72 2.76 0 5.44-.25 7.95-.72a1.76 1.76 0 0 0 1.42-1.26c.26-1.07.46-5.6.59-10.27l.13-3.3c.04-1.13.91-2.14 2.1-2.14h17.94c1.19 0 2.02 1.01 2.02 2.14v.4a98.03 98.03 0 0 1-2.38 15.18 8.28 8.28 0 0 1-6.1 6.1m67.31-29.76c0 2.45-.26 19.43-.8 21.65-.15.64-.71 1.13-1.42 1.27-2.51.47-5.2.7-7.95.7-2.76 0-5.43-.23-7.95-.7a1.75 1.75 0 0 1-1.42-1.27c-.53-2.22-.8-19.2-.8-21.65 0-2.45.26-19.43.8-21.65.15-.64.7-1.13 1.42-1.27 2.51-.46 5.19-.7 7.95-.7s5.44.24 7.95.7c.71.14 1.27.63 1.42 1.27.54 2.22.8 19.2.8 21.65m19.6 23.66c1.8-7.49 2.71-15.45 2.71-23.66 0-8.1-.93-16.28-2.71-23.66a8.27 8.27 0 0 0-6.1-6.11c-7.5-1.8-15.46-2.72-23.67-2.72-8.1 0-16.28.94-23.67 2.72a8.28 8.28 0 0 0-6.1 6.11 102.79 102.79 0 0 0-2.71 23.66c0 8.09.94 16.28 2.71 23.66a8.29 8.29 0 0 0 6.1 6.11c7.5 1.8 15.47 2.72 23.67 2.72 8.1 0 16.28-.94 23.67-2.71a8.3 8.3 0 0 0 6.1-6.12m212.9-37.1h-.59a.73.73 0 0 1-.72-.7v-.78c0-.4.34-.7.72-.7h.6c.38 0 .7.3.7.7v.78c0 .38-.32.7-.7.7m0-4.1h-.6a.73.73 0 0 1-.72-.71V17.2c0-.39.34-.7.72-.7h.6c.38 0 .7.31.7.7v9.05c0 .39-.32.71-.7.71m-7.8-4.7l3 3.53c.17.21.2.5.1.76a.73.73 0 0 1-.65.41h-.54c-.2 0-.4-.1-.54-.26l-3.03-3.6h-.04v7.26c0 .38-.32.7-.71.7h-.6a.72.72 0 0 1-.7-.7V17.2c0-.39.32-.7.7-.7h.6c.4 0 .71.31.71.7v4h.04l3.59-4.44a.7.7 0 0 1 .55-.27h.72c.27 0 .54.15.64.4.12.25.1.55-.09.76zm-6.63 4.7h-.51c-.3 0-.57-.2-.68-.48L372.11 19l-2.58 7.48a.74.74 0 0 1-.69.48h-.53a.7.7 0 0 1-.59-.3.74.74 0 0 1-.1-.65l3.16-9.04c.05-.18.25-.32.44-.4l-.26-.73c-.2-.53-.4-.88-.6-1.07-.2-.17-.5-.26-.9-.26a.7.7 0 0 1-.7-.71v-.45a.7.7 0 0 1 .65-.7l.39-.03c.82 0 1.5.28 2 .83.4.45.8 1.23 1.2 2.35l3.55 10.22c.07.2.04.45-.1.64-.12.19-.34.3-.58.3m-11.09-6.42h-.61a.71.71 0 0 1-.7-.7c-.02-.8-.17-1.14-.3-1.28-.2-.2-.62-.32-1.24-.32s-1.04.1-1.24.32c-.16.16-.32.53-.32 1.41v5.18h4.14c.4 0 .72.32.72.72v.38c0 .39-.33.71-.72.71h-4.14v1.52c0 .4-.32.71-.72.71h-.58a.71.71 0 0 1-.72-.7v-1.53h-.5a.72.72 0 0 1-.72-.71v-.38c0-.4.32-.72.72-.72h.5V20.2c0-1.38.24-2.38.72-2.95.49-.6 1.33-.88 2.59-.88 1.48 0 2.46.24 2.98.74.52.48.8 1.36.85 2.71a.7.7 0 0 1-.19.52.79.79 0 0 1-.52.2m-11.95-.19c0 .9-1.5 1.1-2.73 1.1-.89 0-1.48-.11-1.77-.31-.3-.2-.38-.75-.38-1.18 0-.7.14-1.14.42-1.34.28-.22.92-.33 1.87-.33 1.29 0 1.92.2 2.2.39l.09.03.06.07c.17.13.24.3.24.53zm1.9 4.95c.08-.34.1-.85.1-1.58V17.2a.7.7 0 0 0-.7-.71h-.47a.7.7 0 0 0-.7.6c-.6-.48-1.56-.73-2.9-.73-1.56 0-2.62.2-3.21.65-.66.5-.98 1.42-.98 2.77 0 .9.1 1.57.31 2.03.3.65.86 1.06 1.67 1.23.5.1 1.2.15 2.13.15 1.3 0 2.25-.2 2.85-.6v1.08c0 .52-.06 1.17-.39 1.37-.3.18-1.06.3-2.17.3-1.01 0-1.44-.13-1.62-.23-.2-.1-.3-.3-.37-.58a.7.7 0 0 0-.7-.57h-.63c-.2 0-.38.07-.51.23a.75.75 0 0 0-.2.52c.06.84.4 1.46 1.01 1.84.6.36 1.56.55 2.92.55 2 0 3.24-.21 3.78-.62.4-.31.66-.71.78-1.2m-15.39 1.82c-1.35 0-2.35-.46-2.99-1.36-.56.9-1.58 1.36-3.04 1.36-1.22 0-2.13-.3-2.7-.88v.03c0 .39-.32.71-.72.71h-.54a.7.7 0 0 1-.7-.71V17.2c0-.39.3-.7.7-.7h.59c.39 0 .7.31.7.7v5.33c0 1.84.78 2.69 2.48 2.69.9 0 1.29-.2 1.44-.34.23-.23.35-.7.35-1.4V17.2c0-.39.31-.71.7-.71h.55c.4 0 .73.32.73.7v5.34c0 .97.17 1.65.54 2.07.35.41.95.62 1.8.62.77 0 1.27-.15 1.48-.45.16-.22.35-.74.35-1.97v-5.6c0-.4.31-.71.7-.71h.59c.4 0 .7.31.7.7v6.07c0 1.42-.26 2.38-.81 2.96-.56.6-1.5.88-2.9.88m-16.44 0c-1.08 0-1.9-.29-2.45-.84 0 .39-.32.7-.7.7h-.54a.7.7 0 0 1-.7-.72V17.2c0-.39.3-.71.7-.71h.6c.39 0 .7.32.7.7v5.34c0 .9.15 1.58.42 2l.09.15a.4.4 0 0 1 .1.1c.32.28.8.44 1.46.44.42 0 .98-.07 1.21-.33.13-.16.3-.5.3-1.28.01-.39.33-.7.72-.7h.58c.2 0 .38.08.51.23.14.13.2.31.2.51-.03 1.17-.26 2.01-.7 2.54-.46.6-1.31.9-2.5.9m-9.42-4.5c0 1.41-.2 1.96-.37 2.18-.13.16-.54.44-1.83.44h-.7c-1.24 0-1.66-.28-1.79-.44-.18-.22-.38-.77-.38-2.18v-1.7c0-1.41.2-1.96.35-2.16.25-.33.88-.5 1.83-.5h.7c.94 0 1.59.17 1.83.5.15.18.36.67.36 2.16v1.7zm1.1 3.55c.65-.63.97-1.69.97-3.24v-2.35c0-1.55-.31-2.6-.96-3.24-.64-.64-1.72-.95-3.28-.95h-.7c-1.57 0-2.65.31-3.3.95-.65.63-.98 1.69-.98 3.24v2.35c0 1.55.33 2.6.97 3.24.64.64 1.71.96 3.28.96h.7c1.57 0 2.65-.32 3.3-.96m-10.4 4.88c-.4.03-.83.05-1.26.05-1.16 0-2.01-.3-2.5-.87-.5-.57-.74-1.5-.74-2.84l.01-.4h-.67a.7.7 0 0 1-.7-.71v-.38c0-.4.3-.72.7-.72h.68v-7.94c0-.4.31-.71.71-.71h.6c.39 0 .7.32.7.7v7.95h2.41c.4 0 .72.32.72.72v.38c0 .39-.32.71-.72.71h-2.41v.4c0 1.06.16 1.36.23 1.44.12.14.42.35 1.38.35l.8-.02c.18 0 .37.06.5.2.14.13.21.31.21.51v.47a.7.7 0 0 1-.65.71m-11.84-3.92c-1.34 0-2.35-.32-2.98-.92v.06c0 .4-.3.71-.71.71h-.53a.7.7 0 0 1-.7-.7V17.2c0-.39.3-.71.7-.71h.59c.4 0 .72.32.72.7v5.34c0 .94.2 1.62.63 2.05.43.41 1.13.64 2.08.64.82 0 1.38-.15 1.61-.43.15-.2.36-.7.36-1.84V17.2c0-.4.31-.71.7-.71h.6c.39 0 .7.31.7.7v6.07c0 1.39-.27 2.35-.84 2.95-.57.6-1.53.89-2.93.89m-9.02 3.97h-.58a.7.7 0 0 1-.71-.71v-.78c0-.4.3-.7.7-.7h.6c.4 0 .7.3.7.7v.78c.01.38-.3.7-.7.7m0-4.1h-.6a.7.7 0 0 1-.7-.71V17.2c0-.39.3-.7.7-.7h.6c.4 0 .7.31.7.7v9.05a.7.7 0 0 1-.7.71m68.37 25.96V39.76c0-.38.32-.7.72-.7h.6c.39 0 .7.32.7.7v4h.04l3.58-4.44a.7.7 0 0 1 .55-.26h.73a.7.7 0 0 1 .64.4c.12.25.08.54-.1.76l-3.74 4.6 2.98 3.53c.18.21.23.5.12.76a.75.75 0 0 1-.66.41h-.53c-.2 0-.4-.09-.54-.26l-3.03-3.6h-.04v7.26a.7.7 0 0 1-.7.7h-.6a.7.7 0 0 1-.72-.7m-10.1-7.4h5.07v.12c0 .87-.14 1.46-.44 1.73-.28.26-.9.41-1.76.41h-.69c-.87 0-1.48-.15-1.76-.41-.28-.27-.43-.86-.43-1.73zm5.96-5.85c-.67-.5-1.71-.75-3.07-.75h-.7c-1.57 0-2.65.3-3.3.94-.65.64-.96 1.7-.96 3.25v2.35c0 1.55.3 2.61.95 3.24.65.65 1.72.96 3.3.96h.69c1.56 0 2.65-.31 3.3-.96.66-.63.97-1.69.97-3.24v-1.07c0-.39-.32-.7-.7-.7h-6.45v-.59c0-1.2.22-1.68.42-1.87.18-.2.65-.44 1.77-.44h.69c.78 0 1.35.1 1.66.3.24.15.4.44.47.85.07.33.37.56.7.56h.66c.2 0 .4-.08.54-.24.12-.16.2-.38.16-.58a3.03 3.03 0 0 0-1.1-2m-17.58 1.62c.26-.33.86-.5 1.8-.5.97 0 1.68.2 2.1.63l.12.08.08.15c.3.4.45 1.02.45 1.82v1.61c0 .86-.18 1.52-.53 1.93l-.05.06c-.5.49-1.2.7-2.17.7-.94 0-1.54-.18-1.8-.52-.2-.3-.33-1.02-.33-2.12v-1.7c0-1.39.19-1.93.33-2.14m1.75-2.38c-1.52 0-2.57.32-3.2.97-.64.66-.95 1.7-.95 3.22v2.35c0 1.52.3 2.57.95 3.22.63.66 1.68.98 3.2.98 1.23 0 2.17-.33 2.8-.98v4.24c0 .4.32.71.71.71h.6c.39 0 .7-.32.7-.7V39.75a.7.7 0 0 0-.7-.7h-.54a.7.7 0 0 0-.7.7v.14c-.63-.65-1.58-.98-2.87-.98m-11.68 1.88h.7c.96 0 1.58.17 1.84.49.13.18.37.67.37 2.16v1.7c0 1.4-.2 1.96-.38 2.18-.12.17-.54.45-1.82.45h-.7c-1.25 0-1.67-.28-1.8-.45-.17-.22-.37-.77-.37-2.18v-1.7c0-1.41.19-1.95.34-2.16.25-.32.88-.5 1.82-.5m.02-1.87c-1.56 0-2.64.3-3.28.94-.66.64-.98 1.7-.98 3.25v2.35c0 1.55.32 2.61.96 3.24.65.65 1.72.96 3.28.96h.7c1.57 0 2.65-.31 3.3-.96.66-.63.97-1.69.97-3.24V43.1c0-1.55-.3-2.6-.95-3.25-.65-.63-1.72-.94-3.3-.94zm-13.05.14h.58c.4 0 .7.31.7.7v5.33a3.83 3.83 0 0 0 .5 2.16c.05.02.1.04.12.08.32.3.8.45 1.44.45.43 0 1-.07 1.24-.34.12-.15.27-.49.3-1.27a.7.7 0 0 1 .7-.7h.6c.18 0 .36.08.5.23.13.13.2.32.2.52-.04 1.17-.27 2-.69 2.53-.48.6-1.32.9-2.5.9-1.1 0-1.91-.28-2.45-.84-.02.4-.32.71-.72.71h-.52a.71.71 0 0 1-.72-.72v-9.04c0-.38.32-.7.72-.7M298 50.15h.32c.23 0 .44.1.57.29l1.53 2.06c.15.2.17.5.05.74a.7.7 0 0 1-.63.39h-.6a.72.72 0 0 1-.62-.35l-1.23-2.05a.68.68 0 0 1-.01-.72.73.73 0 0 1 .62-.36m.43-9.42c-1.02 0-1.72.07-2.06.25-.3.16-.47.45-.5.91a.7.7 0 0 1-.71.66h-.62a.74.74 0 0 1-.5-.21.64.64 0 0 1-.2-.52c.04-1.15.42-1.95 1.15-2.36.63-.37 1.77-.54 3.46-.54 2.26 0 2.92.24 3.21.43.53.33.9.72 1.1 1.15.2.43.29 1 .29 1.75 0 .74-.1 1.3-.3 1.73-.21.45-.56.8-1.08 1.02-.26.13-.88.3-3.08.37l-1.47.06c-.43.02-.75.1-.96.2-.09.05-.23.2-.23.94 0 .85.35 1.07.6 1.17.13.04.5.12 1.68.12 1.06 0 1.51-.06 1.7-.1.71-.15.8-.47.83-.6a.71.71 0 0 1 .69-.55h.62c.2 0 .39.08.53.24.14.15.2.34.17.56-.1.8-.42 1.39-1.01 1.76-.6.33-1.57.5-3 .5-1.85 0-3.05-.18-3.66-.53-.77-.41-1.16-1.28-1.16-2.57 0-1.3.4-2.19 1.19-2.63.16-.09.5-.2 1.46-.26.82-.04 1.65-.08 2.47-.1 1.11-.06 1.46-.2 1.59-.3.26-.19.33-.72.33-1.13 0-.65-.17-1.06-.49-1.22-.16-.08-.62-.2-2.04-.2m-9.28 4.42c0 1.4-.2 1.96-.36 2.18-.14.17-.55.45-1.82.45h-.7c-1.26 0-1.68-.28-1.8-.45-.17-.22-.38-.77-.38-2.18v-1.7c0-1.41.2-1.95.35-2.16.25-.32.88-.5 1.83-.5h.7c.94 0 1.58.18 1.83.5.14.18.35.67.35 2.16zm1.12-5.29c-.64-.63-1.72-.94-3.29-.94h-.69c-1.57 0-2.65.31-3.3.94-.64.64-.96 1.7-.96 3.25v2.35c0 1.55.3 2.61.94 3.25.65.64 1.72.95 3.3.95h.7c1.55 0 2.63-.3 3.3-.95.64-.64.96-1.7.96-3.25v-2.35c0-1.55-.31-2.6-.96-3.25m79.85 21.83l-.26-.73c-.2-.52-.4-.88-.62-1.06-.19-.18-.49-.27-.9-.27a.7.7 0 0 1-.71-.7v-.45c0-.37.29-.67.65-.7l.4-.03c.83 0 1.5.27 2.01.82.4.46.8 1.23 1.2 2.36l3.53 10.22a.7.7 0 0 1-.09.63.7.7 0 0 1-.58.3h-.52c-.3 0-.57-.2-.67-.48L371 64.13l-2.6 7.48a.72.72 0 0 1-.68.48h-.54a.7.7 0 0 1-.58-.3.77.77 0 0 1-.09-.65l3.16-9.05c.06-.17.24-.32.45-.4m-14.01-.07h.59c.4 0 .7.32.7.71v5.33c0 .94.23 1.62.64 2.05.43.42 1.13.63 2.08.63.83 0 1.38-.14 1.6-.42.17-.21.37-.7.37-1.84v-5.75c0-.4.3-.71.7-.71h.6c.38 0 .7.32.7.71v6.06c0 1.39-.27 2.35-.83 2.95-.59.6-1.55.88-2.95.88-1.34 0-2.33-.31-2.97-.9v.05c0 .4-.32.71-.7.71h-.54a.71.71 0 0 1-.7-.71v-9.04c0-.4.32-.71.7-.71m-5.38 0h.6c.38 0 .7.32.7.71v13.15c0 .39-.32.71-.7.71h-.6a.72.72 0 0 1-.7-.7V62.32c0-.4.31-.71.7-.71m-10.87 3.46c0-.7.14-1.15.4-1.35.3-.22.94-.33 1.9-.33 1.27 0 1.9.2 2.19.4.04 0 .06.02.08.03l.07.07c.16.13.23.28.23.52v1.04c0 .9-1.5 1.1-2.74 1.1-.88 0-1.47-.1-1.76-.31-.3-.21-.37-.75-.37-1.18m-1.12-2.93c-.66.5-.98 1.4-.98 2.76 0 .91.1 1.58.32 2.04.3.65.86 1.06 1.67 1.22.5.1 1.2.15 2.13.15 1.3 0 2.24-.19 2.85-.6v1.09c0 .51-.07 1.16-.4 1.37-.2.13-.74.3-2.15.3-1.02 0-1.45-.14-1.64-.24-.18-.1-.3-.29-.36-.57a.73.73 0 0 0-.7-.58h-.63a.7.7 0 0 0-.52.24.68.68 0 0 0-.2.52c.07.85.4 1.47 1.02 1.84.6.36 1.56.55 2.92.55 2 0 3.23-.21 3.78-.62.4-.32.66-.72.77-1.2.09-.33.13-.84.13-1.57v-6.5c0-.4-.32-.72-.7-.72h-.49a.7.7 0 0 0-.7.6c-.6-.49-1.56-.74-2.9-.74-1.57 0-2.63.2-3.22.66m-9.7-.52h.59c.4 0 .71.31.71.71v5.33c0 .9.14 1.57.42 2l.08.15c.04.02.09.05.12.1.31.28.8.43 1.45.43.41 0 .98-.06 1.21-.33.13-.15.29-.49.3-1.27 0-.39.33-.7.7-.7h.6c.2 0 .37.08.5.23a.7.7 0 0 1 .21.51c-.04 1.17-.27 2.01-.69 2.54-.48.6-1.32.9-2.5.9-1.1 0-1.92-.28-2.46-.84 0 .4-.32.7-.72.7h-.52a.72.72 0 0 1-.71-.7v-9.05c0-.4.32-.71.72-.71m-11.35 8.66h.5V65.3c0-1.39.24-2.39.7-2.95.5-.6 1.35-.88 2.6-.88 1.5 0 2.46.24 2.98.74.53.47.8 1.36.86 2.7 0 .2-.06.37-.2.52a.67.67 0 0 1-.5.21H324c-.38 0-.7-.3-.7-.69-.03-.8-.18-1.13-.3-1.28-.2-.2-.61-.32-1.24-.32-.44 0-1 .05-1.25.32-.15.16-.31.53-.31 1.4v5.2h4.14c.4 0 .7.31.7.7v.39c0 .4-.3.71-.7.71h-4.14v1.53c0 .4-.32.71-.72.71h-.6a.7.7 0 0 1-.7-.71v-1.53h-.5a.72.72 0 0 1-.72-.71v-.38c0-.4.32-.71.72-.71m-10.41-8.66c.38 0 .7.31.7.71v5.33c0 .94.22 1.62.64 2.05.43.42 1.13.63 2.08.63.83 0 1.39-.14 1.6-.42.18-.21.37-.7.37-1.84v-5.75c0-.4.32-.71.71-.71h.59c.4 0 .7.31.7.71v6.06c0 1.39-.26 2.35-.84 2.94-.57.6-1.53.9-2.94.9-1.34 0-2.34-.32-2.97-.92v.06c0 .4-.3.71-.71.71h-.53a.72.72 0 0 1-.71-.71v-9.04c0-.4.32-.71.71-.71zm-11.4 6.46h5.06v.13c0 .85-.15 1.45-.44 1.72-.29.27-.9.41-1.76.41h-.7c-1.1 0-1.55-.22-1.75-.41-.28-.27-.42-.87-.42-1.72v-.13zm-1.1-5.65c-.66.63-.99 1.7-.99 3.24v2.35c0 1.56.32 2.61.98 3.24.63.65 1.71.96 3.27.96h.7c1.58 0 2.65-.31 3.3-.96.65-.63.97-1.68.97-3.24v-1.06c0-.4-.32-.71-.7-.71h-6.45v-.58c0-1.2.22-1.68.41-1.89.28-.27.9-.42 1.77-.42h.7c.78 0 1.35.1 1.66.3.22.15.39.43.47.84.07.34.37.57.7.57h.65c.22 0 .42-.08.55-.25.14-.16.2-.37.16-.57a3.06 3.06 0 0 0-1.1-2.02c-.68-.5-1.68-.75-3.07-.75h-.7c-1.56 0-2.65.31-3.29.95m-11.78 0c-.64.63-.96 1.7-.96 3.24v2.35c0 1.56.3 2.61.96 3.24.63.65 1.71.96 3.28.96h.7c1.47 0 2.5-.29 3.2-.86.59-.5.94-1.3 1.03-2.37a.73.73 0 0 0-.18-.55.73.73 0 0 0-.53-.22h-.65a.72.72 0 0 0-.71.63c-.06.55-.2.93-.45 1.12-.2.17-.67.37-1.71.37h-.7c-1.26 0-1.67-.27-1.8-.45-.17-.22-.38-.77-.38-2.17v-1.7c0-1.42.19-1.96.34-2.17.26-.32.89-.49 1.84-.49h.7c.84 0 1.43.13 1.74.4.26.24.42.7.44 1.38.02.39.35.7.71.7h.65c.2 0 .38-.08.52-.23.13-.14.2-.33.2-.51-.04-1.23-.38-2.15-1.02-2.72-.67-.6-1.73-.9-3.23-.9h-.7c-1.56 0-2.64.31-3.29.95" fill="#005383"/></g></svg>
