<?xml version="1.0" encoding="UTF-8" standalone="no"?>
<!-- Created with Inkscape (http://www.inkscape.org/) -->

<svg
   version="1.1"
   id="svg2"
   width="727.50665"
   height="278.39999"
   viewBox="0 0 727.50665 278.39999"
   sodipodi:docname="IQVIA Logo - Tricolor.eps"
   xmlns:inkscape="http://www.inkscape.org/namespaces/inkscape"
   xmlns:sodipodi="http://sodipodi.sourceforge.net/DTD/sodipodi-0.dtd"
   xmlns="http://www.w3.org/2000/svg"
   xmlns:svg="http://www.w3.org/2000/svg">
  <defs
     id="defs6" />
  <sodipodi:namedview
     id="namedview4"
     pagecolor="#ffffff"
     bordercolor="#000000"
     borderopacity="0.25"
     inkscape:showpageshadow="2"
     inkscape:pageopacity="0.0"
     inkscape:pagecheckerboard="0"
     inkscape:deskcolor="#d1d1d1" />
  <g
     id="g8"
     inkscape:groupmode="layer"
     inkscape:label="ink_ext_XXXXXX"
     transform="matrix(1.3333333,0,0,-1.3333333,0,278.4)">
    <g
       id="g10"
       transform="scale(0.1)">
      <path
         d="m 2594.95,850.031 -28.84,55.071 c -10.25,19.57 -34.42,27.128 -53.99,16.867 -19.57,-10.239 -27.13,-34.418 -16.88,-53.981 l 25.13,-48 -0.33,-0.117 c -14.33,-3.293 -29.11,-5.461 -44.3,-6.25 -142.43,-7.48 -264.39,102.328 -271.85,244.769 -7.47,142.44 102.34,264.4 244.77,271.87 142.44,7.46 264.39,-102.35 271.86,-244.79 5.18,-98.822 -46.12,-187.72 -125.57,-235.439 z M 2444.48,1410.14 C 2257.99,1400.37 2114.22,1240.7 2124,1054.2 c 9.77,-186.481 169.44,-330.251 355.93,-320.481 27.11,1.429 53.28,6.109 78.25,13.48 l 0.26,0.121 25.39,-48.488 c 10.25,-19.57 34.42,-27.133 53.99,-16.883 19.57,10.25 27.13,34.43 16.87,54 l -22.6,43.172 c 106.24,61.879 175.19,179.539 168.32,310.539 -9.77,186.49 -169.45,330.26 -355.93,320.48"
         style="fill:#27adea;fill-opacity:1;fill-rule:nonzero;stroke:none"
         id="path12" />
      <path
         d="m 1924.23,735.148 c -22.09,0 -40,17.911 -40,40 v 593.562 c 0,22.09 17.91,40 40,40 22.09,0 40,-17.91 40,-40 V 775.148 c 0,-22.089 -17.91,-40 -40,-40"
         style="fill:#27adea;fill-opacity:1;fill-rule:nonzero;stroke:none"
         id="path14" />
      <path
         d="m 3823.56,735.148 c -22.09,0 -40,17.911 -40,40 v 593.562 c 0,22.09 17.91,40 40,40 22.09,0 40,-17.91 40,-40 V 775.148 c 0,-22.089 -17.91,-40 -40,-40"
         style="fill:#0b4476;fill-opacity:1;fill-rule:nonzero;stroke:none"
         id="path16" />
      <path
         d="m 3253.7,735.148 c -0.05,0 -0.1,0 -0.15,0 -14.83,0.063 -28.41,8.313 -35.29,21.442 l -310.78,593.57 c -10.24,19.57 -2.68,43.74 16.89,53.99 19.58,10.25 43.74,2.68 53.98,-16.88 l 275.69,-526.532 281.09,526.802 c 10.4,19.5 34.65,26.85 54.12,16.46 19.49,-10.39 26.86,-34.63 16.46,-54.12 L 3288.99,756.32 c -6.96,-13.039 -20.52,-21.172 -35.29,-21.172"
         style="fill:#0b4476;fill-opacity:1;fill-rule:nonzero;stroke:none"
         id="path18" />
      <path
         d="m 4522.48,869.801 h -192.79 c -22.09,0 -40,17.91 -40,40 0,22.09 17.91,40 40,40 h 192.79 c 22.09,0 40,-17.91 40,-40 0,-22.09 -17.91,-40 -40,-40"
         style="fill:#0b4476;fill-opacity:1;fill-rule:nonzero;stroke:none"
         id="path20" />
      <path
         d="m 4738.99,735.141 c -14.41,0 -28.32,7.8 -35.47,21.449 l -275.69,526.53 -281.08,-526.8 c -10.41,-19.5 -34.65,-26.871 -54.12,-16.461 -19.49,10.403 -26.87,34.621 -16.47,54.121 l 316.71,593.56 c 6.99,13.09 20.59,21.64 35.45,21.17 14.83,-0.06 28.41,-8.31 35.29,-21.44 l 310.78,-593.571 c 10.25,-19.57 2.69,-43.75 -16.88,-53.988 -5.93,-3.102 -12.27,-4.57 -18.52,-4.57"
         style="fill:#0b4476;fill-opacity:1;fill-rule:nonzero;stroke:none"
         id="path22" />
      <path
         d="m 1652.27,846.398 h -196.34 c -13.73,-24.929 -29.61,-47.808 -47.37,-68.117 h 243.71 c 18.73,0 34.05,15.34 34.05,34.071 v 0 c 0,18.726 -15.32,34.046 -34.05,34.046"
         style="fill:#0b4476;fill-opacity:1;fill-rule:nonzero;stroke:none"
         id="path24" />
      <path
         d="m 1652.27,976.191 h -149.51 c -4.7,-23.621 -11.12,-46.371 -18.98,-68.101 h 168.49 c 18.73,0 34.05,15.32 34.05,34.051 0,18.73 -15.32,34.05 -34.05,34.05"
         style="fill:#0b4476;fill-opacity:1;fill-rule:nonzero;stroke:none"
         id="path26" />
      <path
         d="m 1652.27,1106 h -141.06 c 0.67,-10.61 1.11,-21.3 1.11,-32.12 0,-12.14 -0.5,-24.13 -1.34,-36 h 141.29 c 18.73,0 34.05,15.32 34.05,34.07 0,18.73 -15.32,34.05 -34.05,34.05"
         style="fill:#0b4476;fill-opacity:1;fill-rule:nonzero;stroke:none"
         id="path28" />
      <path
         d="m 1652.27,1235.8 h -167.11 c 7.65,-21.75 13.81,-44.52 18.31,-68.11 h 148.8 c 18.73,0 34.05,15.32 34.05,34.05 v 0 c 0,18.73 -15.32,34.06 -34.05,34.06"
         style="fill:#0b4476;fill-opacity:1;fill-rule:nonzero;stroke:none"
         id="path30" />
      <path
         d="m 1652.27,1365.6 h -240.41 c 17.35,-20.4 32.89,-43.24 46.25,-68.12 h 194.16 c 18.73,0 34.05,15.33 34.05,34.06 0,18.73 -15.32,34.06 -34.05,34.06"
         style="fill:#0b4476;fill-opacity:1;fill-rule:nonzero;stroke:none"
         id="path32" />
      <path
         d="m 1003.21,812.352 v 0 c 0,18.726 15.32,34.046 34.05,34.046 H 903.098 c -18.731,0 -34.055,-15.32 -34.055,-34.046 v 0 c 0,-18.731 15.324,-34.071 34.055,-34.071 h 134.162 c -18.73,0 -34.05,15.34 -34.05,34.071"
         style="fill:#27adea;fill-opacity:1;fill-rule:nonzero;stroke:none"
         id="path34" />
      <path
         d="m 1455.93,846.398 h -418.66 c -18.73,0 -34.06,-15.32 -34.06,-34.046 v 0 c 0,-18.731 15.33,-34.071 34.06,-34.071 h 371.29 c 17.76,20.309 33.64,43.188 47.37,68.117"
         style="fill:#6987b2;fill-opacity:1;fill-rule:nonzero;stroke:none"
         id="path36" />
      <path
         d="m 908.133,934.91 c -4.57,21.852 12.207,41.281 33.301,41.281 H 807.262 c -18.731,0 -34.051,-15.32 -34.051,-34.05 0,-18.731 15.32,-34.051 34.051,-34.051 h 135.285 c -16.25,0 -31.09,10.922 -34.414,26.82"
         style="fill:#27adea;fill-opacity:1;fill-rule:nonzero;stroke:none"
         id="path38" />
      <path
         d="M 1502.76,976.191 H 941.434 c -21.094,0 -37.871,-19.429 -33.301,-41.281 3.324,-15.898 18.164,-26.82 34.414,-26.82 h 541.233 c 7.86,21.73 14.28,44.48 18.98,68.101"
         style="fill:#6987b2;fill-opacity:1;fill-rule:nonzero;stroke:none"
         id="path40" />
      <path
         d="m 812.297,1064.71 c -4.57,21.85 12.207,41.29 33.301,41.29 H 711.434 c -18.731,0 -34.059,-15.32 -34.059,-34.05 0,-18.75 15.328,-34.07 34.059,-34.07 h 135.277 c -16.25,0 -31.082,10.92 -34.414,26.83"
         style="fill:#27adea;fill-opacity:1;fill-rule:nonzero;stroke:none"
         id="path42" />
      <path
         d="m 812.297,1064.71 c 3.332,-15.91 18.164,-26.83 34.414,-26.83 h 664.269 c 0.84,11.87 1.34,23.86 1.34,36 0,10.82 -0.44,21.51 -1.11,32.12 H 845.598 c -21.094,0 -37.871,-19.44 -33.301,-41.29"
         style="fill:#6987b2;fill-opacity:1;fill-rule:nonzero;stroke:none"
         id="path44" />
      <path
         d="m 859.043,1201.74 c 0,18.73 15.324,34.06 34.055,34.06 H 758.934 c -18.731,0 -34.059,-15.33 -34.059,-34.06 v 0 c 0,-18.73 15.328,-34.05 34.059,-34.05 h 134.164 c -18.731,0 -34.055,15.32 -34.055,34.05"
         style="fill:#27adea;fill-opacity:1;fill-rule:nonzero;stroke:none"
         id="path46" />
      <path
         d="M 1485.16,1235.8 H 893.098 c -18.731,0 -34.051,-15.33 -34.051,-34.06 0,-18.73 15.32,-34.05 34.051,-34.05 h 610.372 c -4.5,23.59 -10.66,46.36 -18.31,68.11"
         style="fill:#6987b2;fill-opacity:1;fill-rule:nonzero;stroke:none"
         id="path48" />
      <path
         d="m 1106.41,1324.31 c -4.57,21.85 12.21,41.29 33.3,41.29 h -134.16 c -18.73,0 -34.058,-15.33 -34.058,-34.06 0,-18.73 15.328,-34.06 34.058,-34.06 h 135.28 c -16.25,0 -31.09,10.93 -34.42,26.83"
         style="fill:#27adea;fill-opacity:1;fill-rule:nonzero;stroke:none"
         id="path50" />
      <path
         d="m 1411.86,1365.6 h -272.15 c -21.09,0 -37.87,-19.44 -33.3,-41.29 3.33,-15.9 18.17,-26.83 34.42,-26.83 h 317.28 c -13.36,24.88 -28.9,47.72 -46.25,68.12"
         style="fill:#6987b2;fill-opacity:1;fill-rule:nonzero;stroke:none"
         id="path52" />
    </g>
  </g>
</svg>
