<?xml version="1.0" encoding="UTF-8" standalone="no"?>
<!-- Created with Inkscape (http://www.inkscape.org/) -->

<svg
   version="1.1"
   id="svg2"
   width="1056"
   height="816"
   viewBox="0 0 1056 816"
   sodipodi:docname="paramount.ai"
   xmlns:inkscape="http://www.inkscape.org/namespaces/inkscape"
   xmlns:sodipodi="http://sodipodi.sourceforge.net/DTD/sodipodi-0.dtd"
   xmlns="http://www.w3.org/2000/svg"
   xmlns:svg="http://www.w3.org/2000/svg">
  <defs
     id="defs6">
    <clipPath
       clipPathUnits="userSpaceOnUse"
       id="clipPath16">
      <path
         d="M 0,612 H 792 V 0 H 0 Z"
         id="path14" />
    </clipPath>
  </defs>
  <sodipodi:namedview
     id="namedview4"
     pagecolor="#ffffff"
     bordercolor="#000000"
     borderopacity="0.25"
     inkscape:showpageshadow="2"
     inkscape:pageopacity="0.0"
     inkscape:pagecheckerboard="0"
     inkscape:deskcolor="#d1d1d1" />
  <g
     id="g8"
     inkscape:groupmode="layer"
     inkscape:label="paramount"
     transform="matrix(1.3333333,0,0,-1.3333333,0,816)">
    <g
       id="g10">
      <g
         id="g12"
         clip-path="url(#clipPath16)">
        <g
           id="g18"
           transform="translate(743.9073,165.6546)">
          <path
             d="M 0,0 H 12.093 L 9.609,-5.582 H -2.635 c -0.776,-1.862 -4.805,-10.847 -8.833,-20.152 -4.81,-11.003 -9.923,-22.476 -10.075,-22.627 -3.569,-8.993 -5.894,-15.658 -5.894,-20.621 0,-4.955 2.483,-6.973 6.356,-6.973 3.568,0.157 6.823,1.394 9.613,3.721 5.113,3.72 10.074,9.765 14.569,16.124 l 3.257,-3.103 c -4.809,-6.82 -10.542,-14.259 -17.674,-19.222 -4.962,-3.563 -10.849,-5.579 -16.898,-5.579 -9.139,0 -15.65,5.425 -15.65,16.28 0.153,4.025 0.773,7.9 2.169,11.778 -5.89,-7.906 -16.896,-18.447 -27.743,-18.447 -7.287,0 -10.543,4.496 -10.543,10.384 0.31,4.494 1.393,8.837 3.256,12.865 2.012,4.808 4.957,11.006 8.836,19.068 4.183,8.833 8.835,17.668 8.835,20.926 v 0.463 c -0.156,1.396 -1.241,2.324 -2.636,2.324 -7.906,0 -16.431,-11.625 -24.956,-30.844 l -15.036,-34.101 h -18.754 l 5.734,13.022 c -6.821,-8.218 -13.794,-14.728 -22.782,-14.728 -7.752,0 -9.461,5.27 -9.461,10.852 0,2.169 0.314,4.338 0.779,6.353 h -0.155 c -7.439,-10.073 -17.824,-17.205 -25.42,-17.205 -7.594,0 -11.318,4.81 -11.318,11.473 0.313,4.338 1.396,8.677 3.255,12.55 2.945,6.667 6.664,14.573 10.074,21.705 l 2.947,6.353 c -2.482,-1.396 -5.268,-2.017 -8.058,-2.017 -2.018,-0.153 -4.184,0.312 -6.045,1.247 -0.777,-7.289 -2.943,-14.264 -6.049,-20.933 -8.366,-18.752 -22.164,-30.531 -39.212,-30.531 -14.418,0 -19.84,8.525 -20.618,18.289 v 2.634 c -9.299,-12.245 -17.512,-20.46 -28.363,-20.46 -8.375,0 -11.317,4.807 -11.317,10.233 0.311,3.72 1.241,7.437 2.79,10.848 l 16.742,35.648 c 0.928,1.86 1.549,4.035 1.705,6.207 0,2.009 -0.777,2.943 -2.636,2.943 -6.199,0 -14.418,-8.216 -21.853,-25.11 l -17.363,-39.373 h -19.065 l 24.491,56.578 c 0.777,1.702 1.394,3.564 1.549,5.423 v 0.464 c -0.155,1.241 -1.238,2.176 -2.48,2.018 -4.961,0 -15.033,-8.991 -22.474,-25.731 l -17.05,-38.599 h -18.601 l 5.735,13.019 c -7.75,-9.45 -13.953,-14.257 -21.7,-14.257 -6.975,0 -10.386,5.113 -10.386,11.162 0,1.548 0.154,2.945 0.31,4.339 -4.962,-6.201 -14.106,-15.501 -23.869,-15.501 -9.299,0 -13.949,5.579 -13.796,14.569 0,10.698 6.2,23.717 15.346,36.121 -3.877,-2.482 -8.215,-4.344 -12.088,-4.344 -4.966,0 -6.822,2.634 -6.822,6.045 0,3.407 2.79,7.128 2.79,8.525 0,0.462 -0.31,0.773 -0.934,0.773 -1.856,0 -8.519,-6.816 -14.414,-19.996 l -17.826,-40.455 h -18.133 l 5.735,13.177 c -7.13,-8.836 -15.967,-14.415 -22.63,-14.415 -7.595,0 -10.074,4.496 -10.074,10.694 0.153,1.24 0.308,2.479 0.617,3.721 -4.803,-6.202 -13.174,-14.415 -23.56,-14.415 -9.298,0 -13.949,5.579 -13.795,14.569 0.156,11.161 6.821,24.803 16.585,37.666 8.835,11.936 25.575,23.561 42.782,23.561 11.624,0 20.771,-2.02 19.378,-5.272 l -19.067,-43.397 c -1.703,-3.725 -4.804,-10.851 -4.804,-13.796 0,-1.864 0.925,-2.637 2.324,-2.637 6.198,0 17.515,15.967 24.337,31.313 l 14.412,32.552 h 16.739 l -4.961,-11.934 c 5.89,6.818 13.953,13.327 20.77,13.327 3.569,0 4.962,-1.708 4.962,-4.34 0,-5.734 -6.355,-13.176 -6.355,-15.814 0,-0.772 0.466,-1.393 1.703,-1.393 2.329,0 6.978,2.637 13.334,7.905 8.987,7.593 21.233,13.486 33.167,13.486 11.626,0 20.774,-2.02 19.378,-5.272 l -19.066,-43.243 c -1.24,-2.945 -4.495,-10.232 -4.495,-13.174 0,-1.861 0.931,-2.64 2.324,-2.64 6.202,0 17.207,15.194 24.027,30.54 l 14.412,32.552 h 17.056 l -4.962,-12.095 c 7.595,8.678 15.964,13.488 24.023,13.488 6.357,0 9.456,-3.255 9.456,-9.454 0,-1.396 0,-2.637 -0.309,-4.034 7.593,8.37 17.207,13.488 26.042,13.488 6.354,0 10.227,-4.029 10.227,-9.612 0,-5.272 -2.324,-10.542 -5.735,-18.598 l -12.244,-26.038 c -0.62,-1.555 -2.483,-5.74 -2.483,-7.597 0,-1.861 0.932,-2.64 2.329,-2.64 5.58,0 12.552,8.528 19.219,19.535 2.634,8.681 6.356,16.895 11.159,24.644 7.284,11.161 18.295,20.306 33.794,20.306 11.158,0 18.753,-6.356 19.84,-18.289 0.774,-1.399 2.478,-2.79 6.045,-2.79 7.441,0 12.088,6.354 14.878,11.777 l 3.723,8.063 h 18.756 l -16.276,-35.497 -7.907,-17.359 c -1.086,-2.48 -2.478,-5.893 -2.478,-7.75 v -0.624 c 0.152,-1.393 1.392,-2.321 2.63,-2.168 7.596,0 19.381,18.136 24.031,28.833 l 15.03,34.565 h 18.916 l -15.504,-35.497 c 0,0 -8.523,-19.992 -9.144,-21.39 -0.622,-1.394 -0.931,-2.636 -1.088,-4.03 0,-1.55 0.624,-2.481 2.175,-2.481 7.284,0 18.909,19.066 24.644,30.537 L -88.196,0 h 17.516 l -4.654,-11.16 c 7.133,7.438 14.881,12.553 23.407,12.553 7.599,0 11.474,-4.806 11.474,-10.852 0,-6.046 -6.201,-18.291 -10.076,-26.195 -2.636,-5.42 -6.203,-12.865 -8.373,-17.979 -1.704,-4.338 -2.169,-5.732 -2.169,-7.287 0,-1.549 0.93,-2.168 2.48,-2.168 6.978,0 19.067,16.586 26.815,33.481 l 10.852,24.025 h -8.99 L -27.281,0 h 8.68 l 7.285,16.43 4.188,9.765 h 18.599 z m -517.243,-63.241 c 7.13,0 16.739,12.24 25.574,32.086 l 11.781,26.348 c -9.299,0 -17.978,-6.662 -24.642,-15.653 -9.461,-13.023 -17.055,-29.296 -17.208,-38.442 0,-3.411 1.862,-4.339 4.495,-4.339 m 115.939,0 c 7.289,0 16.436,11.777 25.422,32.086 l 11.781,26.348 c -9.3,0 -17.982,-6.662 -24.642,-15.653 -9.459,-13.023 -17.053,-29.296 -17.205,-38.442 0.152,-3.411 2.012,-4.339 4.644,-4.339 m 205.844,51.302 c 0.159,3.876 -0.931,6.979 -4.644,6.979 -3.722,0 -6.982,-2.793 -11.786,-9.458 -10.539,-14.725 -18.136,-36.115 -19.063,-45.259 -0.622,-5.27 0.617,-8.837 4.959,-8.837 3.1,0 6.668,1.705 10.852,7.594 10.384,14.574 19.219,38.908 19.682,48.981 M -491.979,37.82 c 0,33.479 -35.491,49.598 -77.657,49.598 -45.104,0 -86.489,-19.992 -101.679,-50.991 -4.186,-8.217 -6.358,-17.364 -6.358,-26.661 -0.152,-8.062 2.019,-15.967 6.358,-22.63 6.51,-9.612 18.133,-15.659 35.184,-15.659 20.926,0 37.513,11.473 37.513,31.467 0,0 0.307,5.577 -6.201,5.577 -5.269,0 -6.668,-3.717 -6.511,-5.577 0.779,-15.656 -8.524,-28.212 -25.11,-28.212 -18.601,0 -26.353,15.811 -26.353,32.704 0,34.569 26.041,57.509 53.167,67.427 12.712,4.804 26.041,7.131 39.68,6.978 30.692,0 55.802,-11.782 55.802,-43.405 0,-26.346 -22.165,-48.821 -48.67,-50.838 l 1.086,3.564 c 5.427,19.376 12.09,40.61 22.939,56.266 0.621,0.935 1.705,2.481 2.946,4.031 l -1.548,1.86 c -2.329,-1.393 -4.495,-2.946 -6.671,-4.649 -50.838,-39.682 -52.387,-151.281 -120.125,-151.281 -2.321,0 -4.649,0.153 -6.975,0.465 -14.105,2.326 -21.547,11.781 -21.547,24.952 0,2.634 0.93,6.201 0.93,8.214 0.159,3.721 -2.942,6.975 -6.665,6.975 h -0.771 c -6.045,0 -8.524,-4.799 -8.682,-11.624 -0.462,-19.684 14.107,-31.153 36.582,-33.326 2.479,-0.153 4.959,-0.307 7.594,-0.307 52.854,0 85.25,39.99 99.047,88.505 6.974,0.773 13.953,2.328 20.612,4.336 24.493,6.829 52.083,23.25 52.083,52.241 m 255.15,52.424 c 0.904,1.317 2.372,4.931 -0.385,11.629 l -8.349,22.453 c -1.14,2.866 1.341,4.606 3.006,2.719 0,0 15.78,-18.195 19.862,-25.792 l 7.777,-12.915 c 6.692,-0.431 25.173,-0.935 42.956,-0.935 -1.767,1.751 -3.417,3.652 -4.956,5.717 -30.342,37.619 -49.581,58.553 -49.773,58.76 -6.157,6.681 -8.994,7.971 -13.691,10.108 -0.677,0.308 -1.406,0.642 -2.175,1.003 v -5.712 c 0,-0.75 -0.886,-1.15 -1.337,-0.355 l -44.622,78.376 -0.124,0.246 c -1.85,3.682 -4.613,6.878 -7.986,9.246 l -4.351,3.053 -21.282,-49.103 c 3.314,0 5.545,-3.395 4.228,-6.438 l -19.665,-45.491 h 18.048 c 6.976,0 13.886,-1.359 20.342,-4.004 l 4.759,-1.949 c 0,0 -14.355,-29.537 -14.355,-45.09 0,-2.837 0.447,-5.694 1.173,-8.367 h 33.089 l -1.53,9.323 c 0,0 19.911,-4.595 39.341,-6.482 m -68.341,297.709 c 104.198,0 188.668,-84.47 188.668,-188.669 0,-41.892 -13.677,-80.576 -36.778,-111.881 -6.67,3.064 -11.451,7.281 -15.148,12.287 -26.85,33.294 -45.998,54.717 -50.37,59.463 -9.374,10.172 -13.741,10.808 -20.896,14.369 -1.456,0.725 -2.05,1.327 -2.864,2.738 l -36.494,64.109 c -2.654,5.276 -6.573,9.814 -11.407,13.206 l -9.112,6.396 c -1.877,1.318 -4.382,1.298 -6.238,-0.051 l -7.511,-5.461 c -0.618,-0.447 -1.159,-0.992 -1.603,-1.612 l -17.211,-23.957 -8.376,-6.556 -57.76,-73.267 -5.289,-2.276 c -1.104,-0.475 -2.07,-1.22 -2.809,-2.167 l -35.131,-44.927 c -3.141,-3.913 -7.538,-9.021 -15.454,-12.439 -23.165,31.33 -36.885,70.069 -36.885,112.026 0,104.199 84.471,188.669 188.668,188.669 m -145.345,-188.669 7.558,10.402 -12.229,-3.974 -7.557,10.403 v -12.858 l -12.229,-3.973 12.229,-3.973 v -12.857 l 7.557,10.401 12.229,-3.974 z m 17.516,-52.472 -10.403,7.557 3.974,12.23 -10.401,-7.559 -10.403,7.558 3.973,-12.229 -10.403,-7.557 h 12.859 l 3.974,-12.227 3.972,12.227 z m 0,104.944 h -12.858 l -3.972,12.228 -3.974,-12.228 h -12.859 l 10.403,-7.558 -3.973,-12.228 10.403,7.557 10.401,-7.557 -3.974,12.228 z m 10.243,32.96 12.228,3.974 -12.228,3.972 v 12.858 l -7.558,-10.403 -12.228,3.974 7.557,-10.403 -7.557,-10.401 12.228,3.973 7.558,-10.401 z m 45.013,32.154 -10.403,7.558 3.974,12.228 -10.403,-7.557 -10.402,7.557 3.972,-12.228 -10.4,-7.558 h 12.857 l 3.973,-12.228 3.973,12.228 z m 39.887,16.672 -7.557,10.402 7.557,10.403 -12.228,-3.974 -7.558,10.403 v -12.859 l -12.228,-3.973 12.228,-3.973 v -12.858 l 7.558,10.403 z m 49.518,23.316 h -12.858 l -3.974,12.228 -3.973,-12.228 h -12.858 l 10.403,-7.558 -3.974,-12.228 10.402,7.557 10.401,-7.557 -3.972,12.228 z m 47.867,-12.914 -12.228,3.973 v 12.859 l -7.558,-10.403 -12.226,3.974 7.557,-10.403 -7.559,-10.402 12.228,3.974 7.558,-10.403 v 12.858 z m 80.647,-144.66 -7.558,-10.403 12.229,3.974 7.556,-10.401 v 12.857 l 12.228,3.973 -12.228,3.973 v 12.858 l -7.556,-10.403 -12.229,3.974 z m -51.967,117.586 h 12.857 l -10.402,7.558 3.972,12.228 -10.401,-7.557 -10.402,7.557 3.973,-12.228 -10.402,-7.558 h 12.857 l 3.974,-12.228 z m 31.764,-34.61 12.23,-3.973 -7.559,10.401 7.558,10.403 -12.229,-3.974 -7.556,10.403 v -12.858 l -12.228,-3.972 12.228,-3.974 v -12.857 z m 2.687,-30.504 10.403,-7.558 -3.976,-12.228 10.403,7.557 10.402,-7.557 -3.972,12.228 10.401,7.558 h -12.857 l -3.974,12.228 -3.974,-12.228 z m 33.661,-104.944 -10.401,7.557 3.972,12.229 -10.402,-7.558 -10.401,7.559 3.974,-12.23 -10.403,-7.557 h 12.856 l 3.974,-12.227 3.974,12.227 z m -202.927,-4.25 c 0.757,-0.314 1.138,-1.156 0.784,-1.897 l -6.082,-14.095 c 0,0 -10.601,2.343 -28.826,-27.025 -0.69,-1.113 -5.782,2.265 -2.945,7.097 l 11.594,19.485 c 0.651,1.161 -0.216,2.586 -1.544,2.543 l 12.688,20.982 c 1.624,2.683 10.006,17.186 14.947,22.345 l 10.437,10.507 c 0.547,0.635 1.416,-0.304 1.054,-1.059 l -11.942,-24.971 c -5.142,-9.661 -2.051,-13.13 -0.165,-13.912"
             style="fill:#000a3c;fill-opacity:1;fill-rule:nonzero;stroke:none"
             id="path20" />
        </g>
      </g>
    </g>
  </g>
</svg>
