<?xml version="1.0" encoding="UTF-8" standalone="no"?>
<!DOCTYPE svg PUBLIC "-//W3C//DTD SVG 1.1//EN" "http://www.w3.org/Graphics/SVG/1.1/DTD/svg11.dtd">
<!-- Created with Vectornator (http://vectornator.io/) -->
<svg height="218.268pt" stroke-miterlimit="10" style="fill-rule:nonzero;clip-rule:evenodd;stroke-linecap:round;stroke-linejoin:round;" version="1.1" viewBox="0 0 632.126 218.268" width="632.126pt" xml:space="preserve" xmlns="http://www.w3.org/2000/svg" xmlns:xlink="http://www.w3.org/1999/xlink">
<defs/>
<clipPath id="ArtboardFrame">
<rect height="218.268" width="632.126" x="0" y="0"/>
</clipPath>
<g clip-path="url(#ArtboardFrame)" id="Untitled">
<g opacity="1">
<g opacity="1">
<clipPath clip-rule="nonzero" id="ClipPath">
<path d="M0 15.881L632.126 15.881L632.126 234.149L0 234.149L0 15.881Z"/>
</clipPath>
<g clip-path="url(#ClipPath)">
<path d="M356.149 149.434C356.149 158.736 348.608 166.278 339.305 166.278L282.48 166.278C273.178 166.278 265.637 158.736 265.637 149.434L265.637 68.937C265.637 59.634 273.178 52.093 282.48 52.093L339.305 52.093C348.608 52.093 356.149 59.634 356.149 68.937L356.149 149.434Z" fill="#53a4db" fill-rule="nonzero" opacity="1" stroke="none"/>
<text fill="#ffffff" font-family="Helvetica" font-size="140.364" opacity="1" stroke="none" text-anchor="start" transform="matrix(1 0 0 1 272.632 20.8492)" x="0" y="0">
<tspan textLength="93.6214" x="0" y="136">A</tspan>
</text>
<path d="M449.446 150.362C449.446 159.664 441.905 167.206 432.602 167.206L375.777 167.206C366.475 167.206 358.934 159.664 358.934 150.362L358.934 69.8653C358.934 60.5623 366.475 53.0213 375.777 53.0213L432.602 53.0213C441.905 53.0213 449.446 60.5623 449.446 69.8653L449.446 150.362Z" fill="#ffffff" fill-rule="nonzero" opacity="1" stroke="none"/>
<path d="M449.446 150.362C449.446 159.664 441.905 167.206 432.602 167.206L375.777 167.206C366.475 167.206 358.934 159.664 358.934 150.362L358.934 69.8653C358.934 60.5623 366.475 53.0213 375.777 53.0213L432.602 53.0213C441.905 53.0213 449.446 60.5623 449.446 69.8653L449.446 150.362Z" fill="none" opacity="1" stroke="#53a4db" stroke-linecap="butt" stroke-linejoin="miter" stroke-width="1"/>
<text fill="#53a4db" font-family="Helvetica" font-size="140.364" opacity="1" stroke="none" text-anchor="start" transform="matrix(1 0 0 1 363.348 20.8492)" x="0" y="0">
<tspan textLength="93.6214" x="0" y="136">V</tspan>
</text>
</g>
</g>
<text fill="#53a4db" font-family="Helvetica" font-size="77.9798" opacity="1" stroke="none" text-anchor="start" transform="matrix(1 0 0 1 76.6377 90.2779)" x="0" y="0">
<tspan textLength="190.761" x="0" y="76">event</tspan>
</text>
<g opacity="1">
<clipPath clip-rule="nonzero" id="ClipPath_2">
<path d="M0 15.881L632.126 15.881L632.126 234.149L0 234.149L0 15.881Z"/>
</clipPath>
<g clip-path="url(#ClipPath_2)">
<path d="M456.641 172.08C456.641 185.923 445.419 197.145 431.576 197.145L78.8097 197.145C64.9677 197.145 53.7457 185.923 53.7457 172.08L53.7457 48.6117C53.7457 34.7687 64.9677 23.5467 78.8097 23.5467L431.576 23.5467C445.419 23.5467 456.641 34.7687 456.641 48.6117L456.641 172.08Z" fill="none" opacity="1" stroke="#53a4db" stroke-linecap="butt" stroke-linejoin="miter" stroke-width="4"/>
</g>
</g>
<text fill="#1d1d1b" font-family="Helvetica" font-size="10" opacity="1" stroke="none" text-anchor="start" transform="matrix(1 0 0 1 470.974 152.347)" x="0" y="0">
<tspan textLength="10.5615" x="0" y="10">by</tspan>
</text>
<g opacity="1">
<clipPath clip-rule="nonzero" id="ClipPath_3">
<path d="M0 15.881L632.126 15.881L632.126 234.149L0 234.149L0 15.881Z"/>
</clipPath>
<g clip-path="url(#ClipPath_3)">
<path d="M477.549 177.017L477.549 172.133C477.549 171.414 477.058 171.054 476.078 171.054L476.078 178.096C477.058 178.096 477.549 177.736 477.549 177.017M476.078 180.994L476.078 188.471L471.724 188.471L471.724 168.157L476.41 168.157C478.269 168.157 479.65 168.393 480.551 168.865C481.452 169.337 481.903 170.301 481.903 171.755L481.903 177.395C481.903 178.727 481.536 179.669 480.8 180.221C480.065 180.774 478.491 181.031 476.078 180.994" fill="#010303" fill-rule="nonzero" opacity="1" stroke="none"/>
<path d="M488.616 175.185L488.616 171.834C488.616 171.124 488.155 170.769 487.235 170.769L487.235 176.264C488.155 176.264 488.616 175.904 488.616 175.185M493.751 188.501L489.28 188.501C488.797 187.925 488.556 186.291 488.556 183.6L488.556 183.571L488.586 182.353C488.616 180.662 488.631 179.798 488.631 179.761C488.631 179.071 488.166 178.726 487.235 178.726L487.235 188.471L482.775 188.471L482.775 168.157L488.291 168.157C489.548 168.157 490.642 168.445 491.573 169.021C492.504 169.597 492.97 170.509 492.97 171.756L492.97 174.194C492.97 175.771 492.049 176.839 490.208 177.396C492.059 177.831 492.985 178.95 492.985 180.753L492.91 182.977C492.91 186.225 493.19 188.066 493.751 188.501" fill="#010303" fill-rule="nonzero" opacity="1" stroke="none"/>
<path d="M500.124 185.205L500.124 171.378C500.124 170.972 499.883 170.769 499.402 170.769C498.902 170.769 498.653 170.972 498.653 171.378L498.653 185.205C498.653 185.611 498.902 185.814 499.402 185.814C499.883 185.814 500.124 185.611 500.124 185.205M494.299 184.998L494.299 171.928C494.299 169.294 496.007 167.977 499.424 167.977C502.793 167.977 504.478 169.284 504.478 171.899L504.478 184.969C504.478 186.149 504.008 187.058 503.069 187.695C502.13 188.333 500.905 188.651 499.395 188.651C495.997 188.651 494.299 187.433 494.299 184.998" fill="#010303" fill-rule="nonzero" opacity="1" stroke="none"/>
<path d="M507.896 184.618C508.581 186.12 509.529 187.411 511.374 187.411C512.954 187.411 515.562 186.041 515.562 181.193C515.562 176.082 512.585 175.002 511.005 175.002C509.819 175.002 508.765 175.608 507.896 176.372L507.896 184.618ZM507.896 168.626L507.896 175.134C508.844 174.37 510.083 173.948 511.321 173.948C513.244 173.948 516.801 175.529 516.801 181.114C516.801 186.541 513.718 188.464 511.4 188.464C509.767 188.464 508.423 187.621 507.685 186.172L507.185 188.464L506.025 188.306C506.526 186.673 506.658 184.987 506.658 183.274L506.658 168.626L507.896 168.626Z" fill="#e62929" fill-rule="nonzero" opacity="1" stroke="none"/>
<path d="M524.836 188.174L523.598 188.174L523.598 178.532L523.097 174.079L524.283 174.079L524.757 178.031C525.679 176.108 527.128 173.948 529.525 173.948C531.844 173.948 532.45 176.266 532.45 178.163L531.212 178.163C531.185 176.872 531.106 175.001 529.42 175.001C527.997 175.001 524.836 177.214 524.836 182.51L524.836 188.174Z" fill="#010303" fill-rule="nonzero" opacity="1" stroke="none"/>
<path d="M545.385 180.982C544.516 180.534 543.462 180.139 542.355 180.139C540.037 180.139 539.115 182.088 539.115 184.143C539.115 185.698 539.984 187.41 541.75 187.41C543.488 187.41 544.542 186.014 545.385 184.591L545.385 180.982ZM546.096 188.464C545.833 187.7 545.648 186.883 545.569 186.093C544.595 187.489 543.567 188.464 541.75 188.464C539.194 188.464 537.877 186.383 537.877 184.038C537.877 181.377 539.378 179.085 542.065 179.085C543.198 179.085 544.489 179.533 545.464 180.007C545.543 176.477 544.911 175.002 542.619 175.002C541.407 175.002 540.379 175.423 539.273 175.924L538.983 174.791C540.195 174.317 541.38 173.948 542.698 173.948C545.253 173.948 546.781 175.739 546.702 178.848L546.544 184.539C546.518 185.882 546.86 187.147 547.229 188.306L546.096 188.464Z" fill="#010303" fill-rule="nonzero" opacity="1" stroke="none"/>
<path d="M555.185 188.174L553.947 188.174L553.947 181.193C553.947 178.821 553.867 176.45 553.393 174.079L554.553 174.079L555.053 178.084L555.106 178.084C555.633 176.002 557.846 173.948 560.059 173.948C562.588 173.948 563.299 176.134 563.299 178.242L563.299 188.174L562.061 188.174L562.061 178.821C562.061 177.214 562.061 175.001 559.901 175.001C557.898 175.001 555.185 177.004 555.185 182.431L555.185 188.174Z" fill="#010303" fill-rule="nonzero" opacity="1" stroke="none"/>
<path d="M577.763 176.371C576.894 175.607 575.814 175.001 574.654 175.001C573.073 175.001 570.096 176.081 570.096 181.192C570.096 186.013 572.705 187.41 574.285 187.41C576.05 187.41 577.183 186.119 577.763 184.617L577.763 176.371ZM579.001 183.274C579.001 184.986 579.133 186.672 579.633 188.305L578.474 188.464L577.974 186.171C577.236 187.62 575.892 188.464 574.259 188.464C571.914 188.464 568.858 186.54 568.858 181.113C568.858 175.528 572.415 173.947 574.338 173.947C575.576 173.947 576.815 174.369 577.763 175.133L577.763 168.626L579.001 168.626L579.001 183.274Z" fill="#e62929" fill-rule="nonzero" opacity="1" stroke="none"/>
<path d="M472.529 194.063L473.423 194.063C473.577 194.063 473.685 194.057 473.747 194.045C473.857 194.024 473.948 193.99 474.021 193.942C474.095 193.894 474.155 193.824 474.203 193.733C474.25 193.64 474.274 193.535 474.274 193.415C474.274 193.275 474.239 193.153 474.171 193.049C474.102 192.945 474.007 192.873 473.885 192.831C473.764 192.789 473.589 192.768 473.36 192.768L472.529 192.768L472.529 194.063ZM472.529 192.324L473.306 192.324C473.517 192.324 473.667 192.309 473.76 192.279C473.879 192.242 473.971 192.18 474.032 192.092C474.094 192.004 474.125 191.896 474.125 191.763C474.125 191.639 474.095 191.528 474.039 191.433C473.981 191.338 473.899 191.273 473.793 191.238C473.687 191.202 473.505 191.185 473.247 191.185L472.529 191.185L472.529 192.324ZM472.054 194.507L472.054 190.741L473.401 190.741C473.676 190.741 473.896 190.779 474.061 190.855C474.228 190.931 474.358 191.048 474.451 191.207C474.545 191.366 474.592 191.531 474.592 191.704C474.592 191.865 474.55 192.017 474.468 192.159C474.384 192.301 474.259 192.415 474.09 192.503C474.308 192.57 474.474 192.683 474.591 192.844C474.708 193.006 474.766 193.196 474.766 193.415C474.766 193.591 474.731 193.756 474.659 193.908C474.589 194.058 474.5 194.176 474.396 194.258C474.291 194.341 474.161 194.402 474.003 194.444C473.846 194.487 473.652 194.507 473.423 194.507L472.054 194.507Z" fill="#1d1d1b" fill-rule="nonzero" opacity="1" stroke="none"/>
<path d="M476.984 194.507L476.984 191.778L477.382 191.778L477.382 192.192C477.483 191.998 477.576 191.871 477.661 191.81C477.747 191.748 477.842 191.716 477.945 191.716C478.094 191.716 478.244 191.766 478.399 191.866L478.246 192.295C478.138 192.228 478.031 192.194 477.923 192.194C477.826 192.194 477.74 192.225 477.663 192.286C477.586 192.346 477.532 192.431 477.499 192.538C477.45 192.703 477.425 192.883 477.425 193.078L477.425 194.507L476.984 194.507Z" fill="#1d1d1b" fill-rule="nonzero" opacity="1" stroke="none"/>
<path d="M481.946 193.138C481.786 193.207 481.546 193.265 481.226 193.313C481.044 193.34 480.916 193.371 480.841 193.405C480.765 193.439 480.708 193.49 480.667 193.555C480.626 193.621 480.605 193.694 480.605 193.775C480.605 193.899 480.65 194.001 480.739 194.084C480.829 194.166 480.958 194.207 481.13 194.207C481.3 194.207 481.452 194.168 481.583 194.089C481.716 194.012 481.813 193.905 481.875 193.77C481.922 193.666 481.946 193.511 481.946 193.307L481.946 193.138ZM481.983 194.17C481.82 194.317 481.663 194.419 481.511 194.479C481.36 194.539 481.198 194.569 481.025 194.569C480.739 194.569 480.519 194.496 480.366 194.35C480.212 194.202 480.135 194.016 480.135 193.788C480.135 193.654 480.164 193.532 480.222 193.421C480.281 193.312 480.356 193.223 480.451 193.155C480.544 193.089 480.65 193.039 480.768 193.004C480.854 192.98 480.984 192.958 481.16 192.935C481.516 192.89 481.778 192.838 481.946 192.776C481.948 192.712 481.949 192.672 481.949 192.655C481.949 192.467 481.907 192.333 481.824 192.256C481.711 192.152 481.543 192.1 481.322 192.1C481.114 192.1 480.96 192.138 480.862 192.214C480.763 192.291 480.69 192.425 480.642 192.618L480.211 192.557C480.25 192.364 480.315 192.207 480.405 192.089C480.494 191.969 480.625 191.877 480.795 191.813C480.965 191.749 481.161 191.716 481.385 191.716C481.607 191.716 481.788 191.745 481.926 191.798C482.066 191.854 482.167 191.923 482.232 192.006C482.298 192.089 482.344 192.194 482.37 192.32C482.385 192.399 482.393 192.542 482.393 192.747L482.393 193.364C482.393 193.794 482.401 194.065 482.421 194.179C482.439 194.294 482.476 194.403 482.532 194.507L482.071 194.507C482.026 194.411 481.996 194.299 481.983 194.17" fill="#1d1d1b" fill-rule="nonzero" opacity="1" stroke="none"/>
<path d="M484.702 194.507L484.702 191.778L485.098 191.778L485.098 192.166C485.29 191.867 485.566 191.716 485.927 191.716C486.084 191.716 486.228 191.746 486.36 191.805C486.491 191.864 486.589 191.942 486.655 192.038C486.72 192.134 486.766 192.248 486.792 192.379C486.808 192.465 486.817 192.615 486.817 192.829L486.817 194.507L486.375 194.507L486.375 192.847C486.375 192.659 486.359 192.518 486.324 192.424C486.29 192.331 486.229 192.256 486.142 192.201C486.054 192.145 485.951 192.118 485.834 192.118C485.646 192.118 485.484 192.18 485.348 192.305C485.211 192.43 485.143 192.667 485.143 193.017L485.143 194.507L484.702 194.507Z" fill="#1d1d1b" fill-rule="nonzero" opacity="1" stroke="none"/>
<path d="M489.412 193.146C489.412 193.495 489.482 193.756 489.622 193.929C489.763 194.102 489.928 194.189 490.12 194.189C490.313 194.189 490.476 194.106 490.611 193.941C490.746 193.775 490.814 193.523 490.814 193.184C490.814 192.81 490.745 192.536 490.608 192.361C490.471 192.187 490.301 192.1 490.1 192.1C489.904 192.1 489.741 192.183 489.609 192.351C489.477 192.519 489.412 192.784 489.412 193.146M490.806 194.507L490.806 194.162C490.641 194.434 490.399 194.569 490.079 194.569C489.871 194.569 489.68 194.508 489.506 194.388C489.333 194.27 489.197 194.102 489.102 193.887C489.006 193.671 488.959 193.425 488.959 193.146C488.959 192.873 489.001 192.626 489.089 192.404C489.175 192.182 489.304 192.012 489.477 191.894C489.651 191.776 489.844 191.716 490.059 191.716C490.216 191.716 490.355 191.752 490.477 191.821C490.6 191.89 490.699 191.981 490.777 192.092L490.777 190.741L491.216 190.741L491.216 194.507L490.806 194.507Z" fill="#1d1d1b" fill-rule="nonzero" opacity="1" stroke="none"/>
<path d="M495.096 194.507L495.096 190.741L495.584 190.741L497.47 193.697L497.47 190.741L497.927 190.741L497.927 194.507L497.439 194.507L495.552 191.547L495.552 194.507L495.096 194.507Z" fill="#1d1d1b" fill-rule="nonzero" opacity="1" stroke="none"/>
<path d="M500.628 192.881L502.081 192.881C502.061 192.651 502.006 192.479 501.914 192.365C501.774 192.187 501.592 192.098 501.368 192.098C501.165 192.098 500.995 192.168 500.857 192.31C500.718 192.453 500.642 192.642 500.628 192.881M502.077 193.628L502.532 193.687C502.46 193.967 502.327 194.183 502.132 194.338C501.938 194.491 501.69 194.569 501.387 194.569C501.007 194.569 500.705 194.446 500.482 194.2C500.259 193.954 500.148 193.61 500.148 193.167C500.148 192.707 500.26 192.351 500.485 192.098C500.711 191.844 501.004 191.716 501.363 191.716C501.711 191.716 501.995 191.841 502.216 192.09C502.436 192.337 502.547 192.687 502.547 193.138C502.547 193.165 502.546 193.206 502.544 193.261L500.603 193.261C500.619 193.56 500.7 193.79 500.846 193.95C500.991 194.109 501.173 194.189 501.39 194.189C501.552 194.189 501.69 194.144 501.804 194.055C501.919 193.966 502.009 193.824 502.077 193.628" fill="#1d1d1b" fill-rule="nonzero" opacity="1" stroke="none"/>
<path d="M505.191 194.507L504.395 191.778L504.85 191.778L505.264 193.354L505.419 193.939C505.425 193.91 505.47 193.722 505.554 193.376L505.968 191.778L506.421 191.778L506.811 193.36L506.94 193.882L507.089 193.356L507.536 191.778L507.965 191.778L507.151 194.507L506.693 194.507L506.279 192.873L506.179 192.408L505.652 194.507L505.191 194.507Z" fill="#1d1d1b" fill-rule="nonzero" opacity="1" stroke="none"/>
<path d="M510.025 194.507L510.025 190.741L512.624 190.741L512.624 191.185L510.501 191.185L510.501 192.338L512.489 192.338L512.489 192.78L510.501 192.78L510.501 194.063L512.706 194.063L512.706 194.507L510.025 194.507Z" fill="#1d1d1b" fill-rule="nonzero" opacity="1" stroke="none"/>
<path d="M515.656 194.507L514.665 191.778L515.131 191.778L515.69 193.413C515.75 193.589 515.805 193.772 515.856 193.962C515.896 193.818 515.95 193.646 516.021 193.443L516.599 191.778L517.052 191.778L516.068 194.507L515.656 194.507Z" fill="#1d1d1b" fill-rule="nonzero" opacity="1" stroke="none"/>
<path d="M519.4 192.881L520.853 192.881C520.833 192.651 520.778 192.479 520.686 192.365C520.546 192.187 520.364 192.098 520.14 192.098C519.937 192.098 519.767 192.168 519.629 192.31C519.49 192.453 519.414 192.642 519.4 192.881M520.849 193.628L521.304 193.687C521.232 193.967 521.099 194.183 520.904 194.338C520.71 194.491 520.462 194.569 520.159 194.569C519.779 194.569 519.477 194.446 519.254 194.2C519.031 193.954 518.92 193.61 518.92 193.167C518.92 192.707 519.032 192.351 519.257 192.098C519.483 191.844 519.776 191.716 520.135 191.716C520.483 191.716 520.767 191.841 520.988 192.09C521.208 192.337 521.319 192.687 521.319 193.138C521.319 193.165 521.318 193.206 521.316 193.261L519.375 193.261C519.391 193.56 519.472 193.79 519.618 193.95C519.763 194.109 519.945 194.189 520.162 194.189C520.324 194.189 520.462 194.144 520.576 194.055C520.691 193.966 520.781 193.824 520.849 193.628" fill="#1d1d1b" fill-rule="nonzero" opacity="1" stroke="none"/>
<path d="M523.483 194.507L523.483 191.778L523.879 191.778L523.879 192.166C524.071 191.867 524.347 191.716 524.708 191.716C524.865 191.716 525.009 191.746 525.141 191.805C525.272 191.864 525.37 191.942 525.436 192.038C525.501 192.134 525.547 192.248 525.573 192.379C525.589 192.465 525.598 192.615 525.598 192.829L525.598 194.507L525.156 194.507L525.156 192.847C525.156 192.659 525.14 192.518 525.105 192.424C525.071 192.331 525.01 192.256 524.923 192.201C524.835 192.145 524.732 192.118 524.615 192.118C524.427 192.118 524.265 192.18 524.129 192.305C523.992 192.43 523.924 192.667 523.924 193.017L523.924 194.507L523.483 194.507Z" fill="#1d1d1b" fill-rule="nonzero" opacity="1" stroke="none"/>
<path d="M528.862 194.094L528.925 194.503C528.801 194.529 528.69 194.544 528.592 194.544C528.432 194.544 528.309 194.517 528.219 194.464C528.132 194.41 528.069 194.341 528.034 194.254C527.997 194.168 527.98 193.986 527.98 193.708L527.98 192.139L527.656 192.139L527.656 191.778L527.98 191.778L527.98 191.103L528.419 190.826L528.419 191.778L528.862 191.778L528.862 192.139L528.419 192.139L528.419 193.734C528.419 193.866 528.426 193.951 528.442 193.989C528.457 194.027 528.483 194.056 528.518 194.078C528.553 194.101 528.603 194.112 528.668 194.112C528.717 194.112 528.781 194.105 528.862 194.094" fill="#1d1d1b" fill-rule="nonzero" opacity="1" stroke="none"/>
<path d="M533.399 194.507L533.399 191.185L532.215 191.185L532.215 190.741L535.062 190.741L535.062 191.185L533.874 191.185L533.874 194.507L533.399 194.507Z" fill="#1d1d1b" fill-rule="nonzero" opacity="1" stroke="none"/>
<path d="M537.453 192.881L538.906 192.881C538.886 192.651 538.831 192.479 538.739 192.365C538.599 192.187 538.417 192.098 538.193 192.098C537.99 192.098 537.82 192.168 537.682 192.31C537.543 192.453 537.467 192.642 537.453 192.881M538.902 193.628L539.357 193.687C539.285 193.967 539.152 194.183 538.957 194.338C538.763 194.491 538.515 194.569 538.212 194.569C537.832 194.569 537.53 194.446 537.307 194.2C537.084 193.954 536.973 193.61 536.973 193.167C536.973 192.707 537.085 192.351 537.31 192.098C537.536 191.844 537.829 191.716 538.188 191.716C538.536 191.716 538.82 191.841 539.041 192.09C539.261 192.337 539.372 192.687 539.372 193.138C539.372 193.165 539.371 193.206 539.369 193.261L537.428 193.261C537.444 193.56 537.525 193.79 537.671 193.95C537.816 194.109 537.998 194.189 538.215 194.189C538.377 194.189 538.515 194.144 538.629 194.055C538.744 193.966 538.834 193.824 538.902 193.628" fill="#1d1d1b" fill-rule="nonzero" opacity="1" stroke="none"/>
<path d="M543.234 193.508L543.667 193.566C543.621 193.88 543.499 194.126 543.304 194.303C543.109 194.48 542.869 194.569 542.585 194.569C542.229 194.569 541.942 194.447 541.726 194.202C541.509 193.959 541.401 193.608 541.401 193.153C541.401 192.858 541.448 192.6 541.54 192.38C541.634 192.159 541.776 191.993 541.966 191.883C542.156 191.772 542.363 191.716 542.587 191.716C542.869 191.716 543.101 191.792 543.281 191.941C543.461 192.092 543.575 192.304 543.626 192.58L543.197 192.649C543.157 192.467 543.084 192.328 542.98 192.236C542.877 192.143 542.752 192.098 542.604 192.098C542.382 192.098 542.202 192.181 542.063 192.348C541.924 192.514 541.854 192.779 541.854 193.14C541.854 193.507 541.922 193.773 542.056 193.94C542.19 194.105 542.364 194.189 542.579 194.189C542.753 194.189 542.898 194.133 543.013 194.022C543.129 193.91 543.202 193.739 543.234 193.508" fill="#1d1d1b" fill-rule="nonzero" opacity="1" stroke="none"/>
<path d="M545.67 194.507L545.67 190.741L546.111 190.741L546.111 192.092C546.317 191.842 546.576 191.716 546.89 191.716C547.083 191.716 547.25 191.756 547.393 191.836C547.535 191.916 547.636 192.025 547.698 192.166C547.759 192.306 547.789 192.511 547.789 192.778L547.789 194.507L547.348 194.507L547.348 192.778C547.348 192.546 547.3 192.378 547.205 192.273C547.11 192.167 546.974 192.115 546.799 192.115C546.669 192.115 546.546 192.15 546.43 192.222C546.316 192.293 546.233 192.389 546.184 192.511C546.135 192.632 546.111 192.8 546.111 193.014L546.111 194.507L545.67 194.507Z" fill="#1d1d1b" fill-rule="nonzero" opacity="1" stroke="none"/>
<path d="M550.087 194.507L550.087 191.778L550.483 191.778L550.483 192.166C550.675 191.867 550.951 191.716 551.312 191.716C551.469 191.716 551.613 191.746 551.745 191.805C551.876 191.864 551.974 191.942 552.04 192.038C552.105 192.134 552.151 192.248 552.177 192.379C552.193 192.465 552.202 192.615 552.202 192.829L552.202 194.507L551.76 194.507L551.76 192.847C551.76 192.659 551.744 192.518 551.709 192.424C551.675 192.331 551.614 192.256 551.527 192.201C551.439 192.145 551.336 192.118 551.219 192.118C551.031 192.118 550.869 192.18 550.733 192.305C550.596 192.43 550.528 192.667 550.528 193.017L550.528 194.507L550.087 194.507Z" fill="#1d1d1b" fill-rule="nonzero" opacity="1" stroke="none"/>
<path d="M554.792 193.143C554.792 193.492 554.865 193.754 555.011 193.929C555.156 194.102 555.339 194.189 555.56 194.189C555.778 194.189 555.961 194.101 556.105 193.928C556.251 193.752 556.324 193.486 556.324 193.128C556.324 192.79 556.25 192.534 556.104 192.361C555.958 192.187 555.777 192.1 555.56 192.1C555.339 192.1 555.156 192.187 555.011 192.36C554.865 192.533 554.792 192.794 554.792 193.143M554.339 193.143C554.339 192.638 554.473 192.264 554.741 192.02C554.964 191.818 555.237 191.717 555.56 191.717C555.917 191.717 556.209 191.84 556.437 192.086C556.663 192.332 556.777 192.671 556.777 193.105C556.777 193.456 556.727 193.732 556.626 193.933C556.526 194.134 556.38 194.291 556.188 194.403C555.995 194.513 555.786 194.569 555.56 194.569C555.195 194.569 554.901 194.447 554.675 194.202C554.451 193.957 554.339 193.604 554.339 193.143" fill="#1d1d1b" fill-rule="nonzero" opacity="1" stroke="none"/>
<path d="M558.91 190.741L559.351 190.741L559.351 194.507L558.91 194.507L558.91 190.741Z" fill="#1d1d1b" fill-rule="nonzero" opacity="1" stroke="none"/>
<path d="M561.948 193.143C561.948 193.492 562.021 193.754 562.167 193.929C562.312 194.102 562.495 194.189 562.716 194.189C562.934 194.189 563.117 194.101 563.261 193.928C563.407 193.752 563.48 193.486 563.48 193.128C563.48 192.79 563.406 192.534 563.26 192.361C563.114 192.187 562.933 192.1 562.716 192.1C562.495 192.1 562.312 192.187 562.167 192.36C562.021 192.533 561.948 192.794 561.948 193.143M561.495 193.143C561.495 192.638 561.629 192.264 561.897 192.02C562.12 191.818 562.393 191.717 562.716 191.717C563.073 191.717 563.365 191.84 563.593 192.086C563.819 192.332 563.933 192.671 563.933 193.105C563.933 193.456 563.883 193.732 563.782 193.933C563.682 194.134 563.536 194.291 563.344 194.403C563.151 194.513 562.942 194.569 562.716 194.569C562.351 194.569 562.057 194.447 561.831 194.202C561.607 193.957 561.495 193.604 561.495 193.143" fill="#1d1d1b" fill-rule="nonzero" opacity="1" stroke="none"/>
<path d="M566.36 193.093C566.36 193.452 566.428 193.713 566.564 193.878C566.699 194.042 566.869 194.124 567.073 194.124C567.275 194.124 567.446 194.042 567.583 193.879C567.72 193.715 567.788 193.458 567.788 193.109C567.788 192.776 567.718 192.523 567.576 192.353C567.435 192.184 567.265 192.099 567.066 192.099C566.87 192.099 566.703 192.183 566.566 192.35C566.429 192.516 566.36 192.764 566.36 193.093M565.995 194.733L566.423 194.799C566.442 194.938 566.491 195.039 566.572 195.103C566.682 195.189 566.832 195.231 567.021 195.231C567.226 195.231 567.383 195.189 567.494 195.103C567.605 195.017 567.681 194.897 567.72 194.743C567.742 194.648 567.753 194.451 567.752 194.149C567.559 194.388 567.318 194.507 567.031 194.507C566.674 194.507 566.396 194.372 566.2 194.1C566.004 193.831 565.906 193.505 565.906 193.127C565.906 192.867 565.952 192.626 566.041 192.407C566.131 192.186 566.261 192.016 566.432 191.896C566.603 191.776 566.803 191.716 567.034 191.716C567.34 191.716 567.594 191.847 567.793 192.106L567.793 191.777L568.199 191.777L568.199 194.137C568.199 194.562 568.159 194.863 568.076 195.04C567.994 195.217 567.863 195.358 567.684 195.46C567.506 195.563 567.285 195.615 567.023 195.615C566.713 195.615 566.462 195.541 566.272 195.394C566.08 195.248 565.988 195.028 565.995 194.733" fill="#1d1d1b" fill-rule="nonzero" opacity="1" stroke="none"/>
<path d="M570.495 191.778L570.936 191.778L570.936 194.507L570.495 194.507L570.495 191.778ZM570.495 190.741L570.936 190.741L570.936 191.272L570.495 191.272L570.495 190.741Z" fill="#1d1d1b" fill-rule="nonzero" opacity="1" stroke="none"/>
<path d="M573.566 192.881L575.019 192.881C574.999 192.651 574.944 192.479 574.852 192.365C574.712 192.187 574.53 192.098 574.306 192.098C574.103 192.098 573.933 192.168 573.795 192.31C573.656 192.453 573.58 192.642 573.566 192.881M575.015 193.628L575.47 193.687C575.398 193.967 575.265 194.183 575.07 194.338C574.876 194.491 574.628 194.569 574.325 194.569C573.945 194.569 573.643 194.446 573.42 194.2C573.197 193.954 573.086 193.61 573.086 193.167C573.086 192.707 573.198 192.351 573.423 192.098C573.649 191.844 573.942 191.716 574.301 191.716C574.649 191.716 574.933 191.841 575.154 192.09C575.374 192.337 575.485 192.687 575.485 193.138C575.485 193.165 575.484 193.206 575.482 193.261L573.541 193.261C573.557 193.56 573.638 193.79 573.784 193.95C573.929 194.109 574.111 194.189 574.328 194.189C574.49 194.189 574.628 194.144 574.742 194.055C574.857 193.966 574.947 193.824 575.015 193.628" fill="#1d1d1b" fill-rule="nonzero" opacity="1" stroke="none"/>
<path d="M577.473 193.693L577.909 193.621C577.934 193.804 578.001 193.944 578.113 194.042C578.226 194.14 578.381 194.189 578.583 194.189C578.785 194.189 578.936 194.145 579.034 194.058C579.132 193.973 579.181 193.871 579.181 193.755C579.181 193.65 579.137 193.567 579.051 193.508C578.99 193.467 578.84 193.414 578.6 193.352C578.277 193.266 578.052 193.192 577.927 193.129C577.802 193.066 577.707 192.979 577.643 192.87C577.579 192.759 577.546 192.637 577.546 192.503C577.546 192.382 577.573 192.269 577.625 192.165C577.679 192.061 577.751 191.975 577.843 191.907C577.911 191.854 578.004 191.809 578.123 191.772C578.242 191.736 578.368 191.716 578.504 191.716C578.708 191.716 578.888 191.748 579.042 191.81C579.197 191.872 579.31 191.955 579.384 192.06C579.457 192.165 579.509 192.307 579.536 192.482L579.104 192.544C579.085 192.404 579.028 192.294 578.935 192.215C578.841 192.136 578.708 192.098 578.536 192.098C578.333 192.098 578.189 192.132 578.103 192.203C578.015 192.272 577.973 192.355 577.973 192.449C577.973 192.509 577.99 192.564 578.026 192.612C578.062 192.661 578.119 192.702 578.196 192.735C578.24 192.752 578.369 192.791 578.585 192.852C578.898 192.94 579.115 193.011 579.238 193.067C579.361 193.123 579.458 193.204 579.529 193.31C579.599 193.417 579.634 193.548 579.634 193.706C579.634 193.86 579.591 194.005 579.505 194.141C579.419 194.278 579.296 194.383 579.134 194.457C578.973 194.531 578.79 194.569 578.585 194.569C578.247 194.569 577.989 194.496 577.812 194.347C577.635 194.201 577.522 193.982 577.473 193.693" fill="#1d1d1b" fill-rule="nonzero" opacity="1" stroke="none"/>
</g>
</g>
</g>
</g>
</svg>
