<svg width="80" height="80" xmlns="http://www.w3.org/2000/svg"><defs><linearGradient x1="25.001%" y1="6.696%" x2="75.013%" y2="93.32%" id="a"><stop stop-color="#F5515F" offset="0%"/><stop stop-color="#ED1D46" offset="51.63%"/><stop stop-color="#9F041B" offset="100%"/></linearGradient></defs><g fill="none" fill-rule="evenodd"><circle fill="url(#a)" cx="39.96" cy="39.94" r="39.879"/><path d="M21.106 58.15c2.934.202 7.477-1.848 9.608-1.467 4.422.784 5.246.201 7.557-.522 5.488-1.729 15.578.402 17.066-1.045 3.336-3.237 10.07-4.302 13.427-3.84 5.105.704 5.89-1.748 8.342-3.517 1.206-.865 2.01-2.272 2.512-3.498.16-1.427.241-2.874.241-4.321 0-3.196-.382-6.312-1.085-9.307-.663.563-1.528 1.126-2.633 1.628-4.221 1.97-10.774 7.638-18.312 7.257-7.558-.402-13.728 1.266-16.563.784-1.547-.262-7.276-.744-8.442-1.086-4.12-1.186-8.241 4.422-14.814 7.256-6.533 2.835-15.497 2.835-17.025 1.77a39.646 39.646 0 0 0 2.673 8.12c6.935 2.914 14.794 1.628 17.448 1.789zM8.884 39.618c6.473-.703 23.317-10.01 28.322-8.824 5.005 1.186 9.327.683 15.116 1.085 5.789.402 13.085-.08 13.708-.1 2.653-.1 7.598-2.11 9.508-3.035.643-.322 1.487-.885 2.271-1.448A40.096 40.096 0 0 0 66.131 9.83c-1.106 1.327-3.538 3.759-6.955 4.583-4.804 1.186-9.508 1.668-11.658 2.452-1.85.684-7.417 1.709-9.488 2.05.241-.04.14-.02-.04 0-.302.04-.543.081-.663.101-.443.04.281-.04.663-.1h.04c-.221.02-.683.08-1.588.2-3.819.483-10.19 1.568-13.728 2.553-3.096.865-14.232.583-18.131-.08A39.7 39.7 0 0 0 .2 37.347c1.327 1.085 4.221 2.774 8.683 2.271z"/><path d="M20.04 18.553l4.02-.402s3.136-1.267 6.855-1.669c3.598-.381 27.015-2.593 34.19-7.497a39.461 39.461 0 0 0-8.361-5.226c-.583.522-1.267.945-2.09 1.065-2.232.322-5.73 1.206-9.046 1.588-3.317.382-5.83.241-8.784.503-2.955.26-6.17.643-8.784 1.286-2.613.643-5.387.302-7.156.402-1.768.1-2.291-.523-5.165.523-.825.301-1.428.502-1.85.663a40.261 40.261 0 0 0-5.91 6.352c2.915.904 9.066 2.693 12.081 2.412zM24.945 73.367c7.156 4.14 17.648-2.754 19.618-2.352 1.97.402 3.236-.402 3.819-.985.583-.583 12.643-3.035 14.613-2.834 1.97.201 3.82-1.367 6.774-3.538 1.789-1.306 3.035-2.05 4.16-2.753a39.556 39.556 0 0 0 2.835-5.508c-2.452-.623-6.231 2.07-9.045 2.17-1.186.041-3.337-.683-6.674-1.366-3.336-.683-8.924 4.221-15.196 3.437-2.412-.301-7.357-.985-9.507-.301-2.151.683-3.82 3.336-6.855 2.552-2.432-.623-7.457 2.654-8.924 3.538-.885.543-5.89 1.226-10.01 1.427a39.136 39.136 0 0 0 5.487 4.985c3.98-.764 6.553.161 8.905 1.528z"/><path d="M48.382 70.03c-8.362.945-10.231 8.764-32.362 1.81a39.7 39.7 0 0 0 23.96 8c14.332 0 26.914-7.559 33.93-18.915-1.126.703-2.292 4.16-4.08 5.467-2.956 2.15-13.368 2.714-21.448 3.638zM31.296 7.799c6.513.322 17.387-1.467 23.277-3.276 1.286-.382 2.07-.664 2.17-.764A39.74 39.74 0 0 0 39.96.06 39.756 39.756 0 0 0 13.87 9.77c.421-.14 1.004-.362 1.849-.663C18.613 8.1 29.528 7.698 31.296 7.799zM37.99 18.935h-.04c.2-.02.301-.04.04 0zM37.286 19.035c.121-.02.342-.04.664-.1-.362.06-1.086.14-.664.1zM23.497 46.613c-.904-2.653-3.175-4.543-5.829-4.543-3.457 0-6.25 3.176-6.25 7.096 0 1.628.481 3.115 1.286 4.301-.101.483-.141 1.005-.141 1.508 0 4.703 4.16 8.522 9.286 8.522 5.126 0 9.287-3.819 9.287-8.522-.04-4.16-3.317-7.638-7.639-8.362zM70.472 28.884c.483-1.226.623-2.733.322-4.281-.523-2.613-2.15-4.623-4-5.186-1.226-1.93-3.337-3.035-5.447-2.613-2.875.563-4.684 3.699-4.04 7.015.582 2.935 2.894 5.025 5.427 5.065.462.804 1.045 1.468 1.688 1.95-.804 1.287-1.146 2.975-.804 4.724.643 3.296 3.498 5.527 6.372 4.965 2.874-.563 4.663-3.699 4.02-6.995-.442-2.191-1.83-3.88-3.538-4.644z" fill="#AA0C2B"/><circle fill="#AA0C2B" cx="22.151" cy="24.824" r="3.719"/><circle fill="#AA0C2B" cx="57.95" cy="53.266" r="1.206"/><circle fill="#AA0C2B" cx="66.834" cy="47.638" r="1.206"/><circle fill="#AA0C2B" cx="66.131" cy="56.925" r="2.472"/><circle fill="#AA0C2B" cx="9.246" cy="34.03" r="1.266"/><circle fill="#AA0C2B" cx="19.678" cy="32.804" r="1.246"/><circle fill="#AA0C2B" cx="46.613" cy="16.161" r="1.246"/><circle fill="#AA0C2B" cx="33.568" cy="65.186" r="1.668"/><circle fill="#AA0C2B" cx="22.573" cy="70.814" r="1.668"/><circle fill="#AA0C2B" cx="50.553" cy="21.106" r="1.668"/><path d="M56.523 45.327c1.447-7.196-2.493-16.764-8.744-18.03-6.251-1.267-14.432 2.11-15.88 9.286-.904 4.442 2.212 12.925 4.704 15.88-.603 4.984 2.211 9.567 6.593 10.452 4.643.944 9.266-2.613 10.352-7.94a11.07 11.07 0 0 0 .16-3.437c1.347-1.75 2.332-3.86 2.815-6.211z" fill="#AA0C2B"/></g></svg>
