<svg xmlns="http://www.w3.org/2000/svg" width="139" height="150" viewBox="0 0 139 150">
    <g fill="#FFF" fill-rule="evenodd">
        <path fill-rule="nonzero" d="M27.635 63.919h81.785V69H117V56.46H96.128v-8C96.128 37.215 73.168 33 68.5 33c-4.669 0-27.628 4.216-27.628 15.46v8H20V69h7.58v-5.081h.055zm20.872-15.46c0-2.81 12.907-8 20.048-8 7.14 0 20.048 5.136 20.048 8v8H48.507v-8z"/>
        <path d="M38 72h8v30h-8zM91 72h8v30h-8z"/>
        <path fill-rule="nonzero" d="M130.875 142.523v-1.842c0-9.048-6.38-16.58-14.778-18.368-.218-10.132-8.452-18.313-18.54-18.313-6.054 0-11.398 2.926-14.779 7.423C79.398 106.926 73.998 104 68 104c-6.053 0-11.397 2.926-14.778 7.423-3.38-4.497-8.78-7.423-14.778-7.423-10.088 0-18.322 8.181-18.54 18.313-8.452 1.734-14.778 9.32-14.778 18.368v1.842H0V150h139v-7.477h-8.125zm-7.525-1.842v1.842h-22.031v-1.842c0-6.285 4.853-11.27 11.015-11.27 6.162.054 11.016 4.985 11.016 11.27zm-70.182-11.216c6.162 0 11.015 4.93 11.015 11.27v1.842h-22.03v-1.842c0-6.34 4.853-11.27 11.015-11.27zm29.61 0c6.162 0 11.016 4.93 11.016 11.27v1.842H71.763v-1.842c0-6.34 4.799-11.27 11.015-11.27zm14.778-17.934c6.053 0 10.797 4.714 11.016 10.836-4.472.922-8.344 3.522-11.016 7.044-2.672-3.576-6.543-6.122-11.015-7.044.218-6.122 4.962-10.836 11.015-10.836zm-29.556 0c6.053 0 10.798 4.714 11.016 10.836-4.472.922-8.344 3.522-11.016 7.044-2.672-3.576-6.543-6.122-11.015-7.044.218-6.122 4.962-10.836 11.015-10.836zm-29.61 0c6.053 0 10.797 4.714 11.015 10.836-4.471.922-8.343 3.522-11.015 7.044-2.672-3.576-6.544-6.122-11.015-7.044.218-6.122 5.017-10.836 11.015-10.836zm-25.793 29.15c0-6.285 4.853-11.27 11.015-11.27 6.162 0 11.015 4.93 11.015 11.27v1.842h-22.03v-1.842zM68.5 29C60.522 29 54 22.532 54 14.5A14.47 14.47 0 0 1 68.5 0 14.47 14.47 0 0 1 83 14.5C83 22.532 76.478 29 68.5 29zm0-22.963c-4.69 0-8.463 3.827-8.463 8.463 0 4.636 3.827 8.463 8.463 8.463 4.69 0 8.463-3.827 8.463-8.463 0-4.636-3.773-8.463-8.463-8.463z"/>
    </g>
</svg>
