<?xml version="1.0" encoding="utf-8"?>
<!-- Generator: Adobe Illustrator 23.0.1, SVG Export Plug-In . SVG Version: 6.00 Build 0)  -->
<svg version="1.1" id="Layer_1" xmlns="http://www.w3.org/2000/svg" xmlns:xlink="http://www.w3.org/1999/xlink" x="0px" y="0px"
	 viewBox="0 0 445 528" style="enable-background:new 0 0 445 528;" xml:space="preserve">
<style type="text/css">
	.st0{fill:#FFFFFF;}
	.st1{fill:#ADADAD;}
	.st2{fill:#939393;}
	.st3{fill:none;stroke:#000000;stroke-width:2;stroke-miterlimit:10;}
	.st4{fill:#FFFFFF;stroke:#000000;stroke-miterlimit:10;}
	.st5{fill:#CC1232;stroke:#000000;stroke-width:2;stroke-miterlimit:10;}
	.st6{fill:#BCBCBC;}
	.st7{fill:none;}
	.st8{fill:#FFFFFF;stroke:#000000;stroke-width:2;stroke-miterlimit:10;}
	.st9{fill:none;stroke:#000000;stroke-miterlimit:10;}
	.st10{fill:#939393;stroke:#000000;stroke-width:2;stroke-miterlimit:10;}
	.st11{fill:#7C7C7C;}
</style>
<path class="st0" d="M201.2,152.3c-4.4,3.3-12.3,16.8-12.9,18.4c-0.6,1.5-4.1,8.3-5,11.8c-0.9,3.4-0.4,2.4-0.1,6.7
	c0,0.6,0.1,1.4,0.2,2.1c-0.1-0.7-0.2-1.3-0.2-1.5c0-1.2-3.7,2.3-3,11.5c-0.4-3.4-0.1-5.4,0.4-7.2c-1.6-1.1-4.1-1.7-4.7-0.8
	c-0.1,0.2-0.2,0.5-0.2,1c-0.2-1.5-0.5-2.9-1-4.1c-2.3-5-4-5-4.1-5.9c0-0.6-1.4-2.7-2.1-2.8l0.1-0.1c-0.5-4.7-6.9-11.5-8.7-13
	c-0.8-0.7-1.2-1.3-1.4-1.3c-0.1-2.5-3.3-5.4-3.7-6c-0.5-0.6-2.5-2.8-3.4-3.5s-1.3-2-1.9-3.3c-0.6-1.3-0.5-2.9-1.6-3.1
	c-1.1-0.2-2.7,1.4-3.8,3c-1.1,1.5-15.7,10.5-20.6,10.8c-4.9,0.3-6.5-1-6.7-0.4c-0.2,0.6,2.4,4.5,2.8,5.8c0.5,1.3,1.3,1.6,1.6,2.8
	s0.5,9.5,2.2,13.2s5.5,8.6,6.7,12.9c1.2,4.3,1.6,6.9,2.4,7.8c0.6,0.7,1.9,1.1,3.3,1.3c0.1,0.4,2.4,2.2,2.9,3.7c0.7,2,2,4.5,4.5,6.5
	c0.4,0.3,0.7,0.5,1.2,0.5l0,0c2.3,3.2,5.9,6,8.1,9.1c0.5,0.8,1.3,1.8,2.1,2.9c2.3,3.2,5.2,7.2,8.1,9c3.8,2.4,9.1,2.9,9.1,2.9
	s10,6.3,28.6-8c18.6-14.4,40.3-47,42.5-54.2c2.3-7.2,16-47.4-19.2-52.4c-3.4-0.5-7.6,3.3-10.6,7.8c-0.8,1.3-1.9,2.9-3,4.8l0,0
	L201.2,152.3z"/>
<g>
	<path class="st1" d="M342,40.4c21.7,6.7,51.6,18.2,63.4,25.1c11.8,7,17.6,1.3,20.4,14.9c2.7,13.7,2.7,62.9,0,74.9
		c-2.7,12-19.9,69.9-25.3,82.4s-10,28.2-11.9,28.2s-26.1,51-33.3,63.4s-64.8,46-71.6,52.9s-25.7,6.2-28.9,0
		c-3.2-6.2-23.9-22.8-25.7-25.2c-1.8-2.4-26.3-40.4-25.9-53.9"/>
	<path d="M268.3,387.5c-1.6,0-3.3-0.1-4.7-0.4c-4.9-0.7-8.4-2.6-9.7-5.1c-2.1-4.1-12.5-13.2-19.4-19.3c-3.6-3.2-5.6-5-6.2-5.7
		c-1.1-1.4-7.7-11.6-13.8-22.9c-8.2-15.1-12.4-25.8-12.1-31.7l1.8,0.1c-0.5,12.9,23.9,50,26.3,53c0.5,0.6,2.9,2.6,5.9,5.2
		c7,6.2,17.4,15.4,19.7,19.8c1,1.9,4.2,3.5,8.4,4.2c6.4,1,14.6,0.4,18.6-3.8c2.5-2.6,11.6-8.5,23-16.1c18.6-12.2,44-29,48.5-36.7
		c3.2-5.3,9.7-18.3,15.9-30.8c14.5-28.7,16.7-32.7,18-33c0.9-0.8,3.3-7,5.2-12.4c1.8-4.9,3.8-10.3,6-15.4
		c5.5-12.8,22.7-70.6,25.3-82.2c2.7-12,2.7-60.8,0-74.6c-1.6-8.2-4.2-9-9.2-10.2c-2.8-0.7-6.3-1.6-10.7-4.2
		c-11.9-7-42.2-18.6-63.2-25l0.5-1.7c21,6.4,51.3,17.9,63.6,25.2c4.1,2.4,7.4,3.3,10.2,4c5.2,1.4,8.8,2.3,10.6,11.6
		c2.7,13.8,2.7,63.1,0,75.3c-2.6,11.7-19.8,69.8-25.4,82.5c-2.2,5-4.2,10.4-6,15.2c-3.8,10.2-5,13.1-6.4,13.5
		c-1.6,1.7-10,18.6-16.9,32.1c-6.3,12.5-12.8,25.4-16,30.9c-4.7,8-29.3,24.2-49.1,37.2c-10.9,7.2-20.3,13.4-22.6,15.8
		C280.6,386,274.2,387.5,268.3,387.5z"/>
</g>
<g>
	<path class="st2" d="M108.8,509.8c-0.4,0.6-1.3,1.9-1.2,3.1c0.5,5.8,9.2,10,22.4,7.4c19-3.8,30.3-19.3,31.7-21.5
		c1.4-2.2,14.3-16.6,15.7-17.8c1.4-1.3,8.4-10.2,2.5-17.9C180,463.1,129.4,476,108.8,509.8z"/>
	<path d="M179.6,464.1c-5.7,1.5-51.1,14.9-70.1,46.2l-0.1,0.2c-0.4,0.5,0.7,4.4,2.4,5.6c3.9,2.9,10.3,4.8,18.1,3.3
		c19.9-4,31-20.8,31-21c1.4-2.2,14.4-16.7,15.8-18c0.5-0.5,2.5-2.9,3.8-6.2C181.9,470.4,181.6,467,179.6,464.1z M122.4,522
		c-5,0-9.2-1.1-12.1-3.3c-2.1-1.5-3.3-3.5-3.4-5.7c-0.1-1.4,0.7-2.6,1.2-3.4l0.1-0.2c20.5-33.8,71.2-47,71.7-47.2l0.5-0.2l0.4,0.5
		c2.6,3.4,4.1,7.7,2.4,12.1c-1.3,3.5-3.4,6.9-4.1,7.5c-1.5,1.4-15.1,13.1-16.6,17.1c-0.1,0.2-11.6,17.6-32.2,21.8
		C127.5,521.7,124.9,522,122.4,522z"/>
</g>
<g>
	<path class="st0" d="M171.9,446.8c2.8,2.7,8,10.9,8.1,16.3c0.2,5.4-1.1,7.9-2.5,10.7c-1.5,2.9-17.6,20.8-19.2,22.4
		c-1.5,1.5-14.7,18.1-33.7,19c-19,0.9-17.8-10.2-16.3-15.1c1.5-4.8,11.3-15.4,13.1-17.2s11.9-20.3,10.7-23.8c0,0,13,9.2,30.7-0.2
		C170.4,450.9,171.9,446.8,171.9,446.8z"/>
	<path d="M122.5,516.1c-6.7,0-11.3-1.6-13.8-4.9c-3-3.9-2.1-8.9-1.3-11.4c1.5-5.1,11.5-15.7,13.4-17.6c2.1-2.1,11.4-20.1,10.5-22.9
		l-0.8-2.5l2.2,1.5c0,0,3.3,2.3,8.5,3.3c4.8,1,12.4,1.2,21.2-3.4c7.2-7.6,8.7-11.7,8.7-11.7l0.5-1.3l1,1c2.8,2.7,8.2,11.1,8.4,16.9
		c0.2,5.8-1.2,8.4-2.7,11.1c-1.6,3-18,21.2-19.3,22.5c-0.1,0.1-0.4,0.4-0.6,0.6c-13.1,14.7-25.5,18.2-33.7,18.6
		C124,516.1,123.2,516.1,122.5,516.1z M133.1,460.6c-0.9,6.2-9.4,21.4-11,22.9c-1.7,1.7-10.1,11-11.6,15.7
		c-0.7,2.3-1.9,7.3,0.6,10.6c2.4,3.1,6.2,4.9,13.5,4.5c7.8-0.4,19.6-3.8,32.4-18c0.4-0.4,0.5-0.6,0.7-0.7c1.8-1.8,16-17.3,17.5-20
		c1.4-2.6,3.1-6.1,2.9-11.4c-0.1-4.6-3.2-12.5-5.9-15.7c-1,1.8-3.3,5.6-8.6,11.1l-0.1,0.1l-0.1,0.1
		C148.7,467.5,137,462.7,133.1,460.6z"/>
</g>
<g>
	<path class="st2" d="M19.6,382.4c-0.9-0.2-2.5,1.4-2.4,1.8c0.2,0.5-1.8,10.6,21.7,19c16,5.7,34.2,2.4,37.3,2.4s18.1,6.1,31.3,2.4"
		/>
	<path d="M98.2,410.1c-7.2,0-13.9-1.7-18.2-2.7c-1.8-0.5-3.2-0.8-3.8-0.8c-0.5,0-1.6,0.1-3,0.2c-6.3,0.6-21.9,3.3-35.1-1.4
		c-19.5-7-21.7-16.6-21.7-20.9v-0.1c-0.1-0.5,0.1-0.9,0.5-1.4c0.5-0.5,1.7-1.6,2.9-1.4l-0.3,1.8l0,0c-0.3,0-1.1,0.5-1.3,0.9
		c0,0.1,0,0.2,0,0.3c0,6.6,7.7,13.1,21.1,17.9c12.9,4.6,27.5,3.2,33.8,2.6c1.5-0.2,2.6-0.3,3.2-0.3c0.8,0,2.2,0.4,4.2,0.9
		c6,1.4,17,4.3,26.9,1.5l0.5,1.7C104.6,409.7,101.3,410.1,98.2,410.1z"/>
</g>
<path class="st0" d="M61.6,366.9c-1.5,2.3-8.8,6.6-12.7,6.2s-10.1-3-16-2.5C27,371,18.4,374,20,383.7c1.6,9.7,17.5,17.5,30.1,19.2
	c12.7,1.6,26.2,0,26.2,0s20.5,5.8,29.6,2.4c0,0,4.6-13.4,4-20.7c-0.6-7.3,4.2-13.8-7-12.5c-11.1,1.2-37.4-6.2-37.6-6.7
	C65.3,364.8,61.6,366.9,61.6,366.9z"/>
<g>
	<path d="M98.3,407.2c-9.2,0-20.5-3.1-22.2-3.5c-1.6,0.2-14.5,1.5-26.3,0c-6.5-0.9-13.8-3.3-19.6-6.7c-4.6-2.7-10.3-7.2-11.4-13.2
		c-0.6-3.5,0-6.5,1.9-8.9c3.3-4.3,9.3-5.1,11.8-5.2c4-0.3,8,0.7,11.5,1.5c1.7,0.5,3.3,0.8,4.6,1c3.5,0.5,10-5,11.4-7l0.5,1l0.2-0.1
		c3.7-2.1,4.3-1.8,4.6-1.7c0.1,0.1,0.3,0.2,0.4,0.3c2.1,0.9,26.3,7.6,36.8,6.5c3.8-0.5,6.1,0,7.3,1.3c1.5,1.5,1.3,3.9,0.9,6.6
		c-0.2,1.6-0.4,3.5-0.3,5.4c0.7,7.5-3.8,20.5-4.1,21.1l-0.2,0.5l-0.4,0.2C103.9,406.8,101.2,407.2,98.3,407.2z M76.3,401.9h0.2
		c0.2,0.1,19.7,5.5,28.6,2.6c0.8-2.3,4.3-13.6,3.8-19.9c-0.2-2.1,0-4.1,0.3-5.8c0.3-2.4,0.5-4.3-0.5-5.2c-0.8-0.8-2.7-1.1-5.8-0.7
		c-6.1,0.6-15.9-1.1-23.2-2.7c-4.8-1.1-8.5-2.1-10.3-2.5c-2.7-0.7-3.9-1.2-4.4-1.4c-0.5,0.2-1.9,0.8-3,1.4
		c-1.8,2.4-9.1,6.9-13.4,6.3c-1.4-0.2-3.1-0.5-4.9-1c-3.4-0.8-7.2-1.8-11-1.5c-2.2,0.2-7.6,0.9-10.5,4.5c-1.5,2-2.2,3.6-1.6,6.6
		c1.5,8.9,16.5,16.4,29.4,18.1C62.4,402.3,76,401.9,76.3,401.9L76.3,401.9z"/>
</g>
<path class="st0" d="M107.6,127c-1-0.2-2.3-0.8-5.8-0.5c-3.3,0.4-3.6,5.7-3.7,6.4c-0.1,0.9,0.6,3.2,3.3,4.7c0.3,0.2,0.5,0.4,0.8,0.5
	c0,0,0,0-0.1,0c-0.7-0.3-3.8,1.8-3.6,4.4c0.1,2,1.2,5,5.4,7.2l0,0c0.7,1.4,3.9,5.2,7.1,8.6c3.2,3.3,5.2,5.2,5.4,6.2
	c0,0,10.7,0.9,16-2.3c4-2.4,14.6-11.1,14.6-11.1c0-2.4-1.2-7,0-9c1.2-2,3.1-3.5,4.7-5c1.6-1.4,8.3-5.9,6-9.9
	c-2.6-4.4-8.8-2.2-13.3,1.1s-7.6,6.4-8.3,5.7s-2.7-5.1-3.4-9.1c-0.5-3.2-2.8-16.3-3.3-18.8c-0.8-4-5.2-5.5-8.1-3.3
	c-2.9,2.2-2.7,7.2-2.4,9c0.3,2,1.8,13.8,1.8,13.8c-2-3.3-4.4-7.7-5.8-10.7c-2.5-5.6-5.3-8.5-6.3-9.4c-1.4-1.4-6-0.9-6.9,2.4
	c-0.9,3.4,0.5,8.1,1.2,9.6C103.9,120.2,107.4,126.7,107.6,127 M120.6,125.7c0,0,2.6,3.7,3.1,4.7
	C123.9,130.9,122.4,128.7,120.6,125.7z"/>
<path class="st0" d="M324.7,87.6c0,23.6-13.9,44-33.9,53.4c-7.6,3.5-5.7,8.2-14.7,8.2c-7.2,0-24.7,3.2-29.8-1.2
	c-14.5-12.4-38.6-34-38.6-59.5c0-7.6,1.4-12.5,2.4-19.6c0.7-4.9,0.1-18.3,3.4-22.7c10.8-13.8,33.2-17.6,52.1-17.6
	C298.3,28.7,324.7,55.1,324.7,87.6z"/>
<path class="st0" d="M146.8,219.6c2.3-0.4,4.7-1.3,6-0.5C151.3,219.1,149.5,219.5,146.8,219.6z"/>
<g>
	<path class="st0" d="M376.8,167.4c1.7,2.5-0.6-15.6-6.5-26.2c-5.1-9.1-15.9-19.1-29-22.9v-0.4c3.3-6.1,31.9-64.5-16.3-96.2
		c-55.9-38.3-106.5,8.4-109,21.3c0,0,23.3-24.1,62.8-3.1c30.7,16.3,39.6,43.2,40.7,45c1.1,1.8,5.6,23.3,4.1,29.9
		c-1.5,6.6-24.2,25.1-42.3,31.9c-4.3,1.6-41.4,10-53.5-14.8v-0.6c-2,5.4-6,29.1-6,41.4c0,12.2-25.3,46.2-46.3,65.6
		c-2.9,2.6-3,3.3-3.3,4.2c0.5,0.7-2.8,0-3.3,2h0.1c-0.1,0-0.1,0-0.2-0.1c-1.3-0.6-4.4,0.8-3.8,2c0.6,1.2,14.3,14.1,14.8,17.9
		c-2.4-4.7-14.8-18.3-16.5-18.9c-1.6-0.5-6.8-1.8-8.5-0.5c-3.4-3.3-9.1-7.7-15.9-11.1c-10-5.2-28.8-22.9-59.6-14.2
		c-30.8,8.7-27.8,63.2-27.9,64.4c-0.2,1.2-0.5,25.2,0,27.2c0-0.1,0,0,0,0c0.2,0.7,0.9,2.4,1.9,4.5c-1.3-2.2-1.9-3.8-1.9-4.4
		c-0.2,1.4-1.4,11,0.2,19.3c0.6,0.7,2.2,2.2,3.9,3.6c-1.8-1.4-3.4-2.9-3.9-3.6c-0.8-1.3,2.8,14.3,2.7,17.5c-0.1,3.2-0.3,4.8,2.4,9.5
		s5,8.4,7.5,11.1c2.5,2.7,15.4,12.7,27.9,12.2c0-0.5-0.1-1.2-0.2-1.7c1.3,2.3,10.1,18.8,14,24.5c4,5.6,5.3,9.5,6.2,11.4
		s0.4,1.3,3.2,5.5c2.8,4.3,6.8,15.7,7.2,16.7c0.5,0.9,0.2,0.8,2.7,5.6c2.5,4.8,2.6,3.3,4,8.6c1.4,5.3,5.2,10.5,13.7,10.3
		s22.4-2.9,24-5.8s2.9-4.4,4.2-5.9c1.3-1.4,2.5-2.6,1.6-4c-0.9-1.4-0.5-0.4-0.9-1.4c-0.5-1-0.2-2.6,0.5-4.4s-1-6.2-1-9.2
		s-0.5-9.9-1.8-12.8c-1.3-2.9-2.2-3.8-3.1-7.3s-1.8-15.8-3.1-18.9c-1.3-3.1-5.5-8.4-6.8-11.2c-0.6-1.4-0.7-2.4-1.2-3
		c2.5-1.5,1.7-3.1,1-4.4c2.5,3.3,5.8,1.2,6.9-0.4c2.2,1.3,4.6,1.3,11-1.2c6.3-2.5,6.3-2.5,8.4-2.7c2.1-0.2,11.7-4.5,16.2-4.6
		s8.1,0,12.7-2.4c4.6-2.4,7.2-5.3,11.1-5.7s27.2-2.4,31.4-6.7c4.3-4.3,7.2-6.3,10.9-10s2.7-2,8.1-10.7s10.2-11.9,13.8-14.4
		c3.6-2.4,11.5-11.8,15.7-19.2c4.2-7.4,7-8.9,12.7-17.3c5.7-8.4,5.4-5.2,7.9-11.5c2.4-6.3,5.2-10.4,7-12.9c0.5,4.3,0,12.9,0.3,15.5
		l0,0c-0.7,1.1-1.4,2.3-2.2,3.5c-3.9,16.3-1,8.6-2.9,13.1c-1.6,3.9-1,1.1-2.5,4.1s-2.3,4.3-6.7,12.9c-4.4,8.8-8.7,12.4-10,17.8
		c-1.4,5.4-2.9,7.5,1.6,11.1c4.5,3.6,25.6,13.8,26.5,13.3c0.9-0.5,0.3-2.1,1.5-2.4c1.2-0.3,7.2,0.3,8.4-1.8c0.4-0.6,0.5-2,0.5-3.8
		c0.3,0.4,1-0.3,2.7-1.9c8.4-6.3,13.6-12.9,13.8-15.1c0.3-2.1,0.3-4.8,4.3-10.2c3.9-5.4,8.4-16.6,9.3-18.4c0.9-1.8,3.9-1.5,5.4-6.6
		c1.5-5.2,8.4-18.4,8.8-33.2c0.3-14.8-1.8-26-1.8-28.7s0.6-24.4-2.4-28.7c-3-4.3-4.3-6.3-4.5-9.3c-0.3-3,0.2-6.3-1.6-9.9
		C377,171.5,377.4,168.3,376.8,167.4 M190.1,288.9c-0.1-0.1-0.3-0.1-0.4-0.2C189.8,288.8,190,288.8,190.1,288.9z M189.7,288.7
		c-2.1-0.8-4.3-1.4-5.4-1.5C186.1,287.5,187.9,288,189.7,288.7z M181.3,252.9c-0.3-0.4-0.8-0.9-1.4-1.6
		C180.6,251.9,181.2,252.4,181.3,252.9z M182.6,286.9c-1.6-0.2-3.8-0.3-5.9-0.4C178.3,286.5,180.4,286.6,182.6,286.9z M155.8,245.6
		c-0.2-0.3-0.5-0.5-0.7-0.7C155.3,245.1,155.5,245.4,155.8,245.6z M154.5,293.7c-4,1.2-10.3,2.9-10.3,2.9c2.6-0.9,6.5-2,8.7-2.5
		C153.5,294.1,154,293.9,154.5,293.7z M140.4,298.2C140.4,298.1,140.4,298.1,140.4,298.2L140.4,298.2L140.4,298.2z M144.2,296.7
		l-2.3,0.9C142.5,297.3,143.3,297,144.2,296.7z M132.6,299.3c-1.1,0.2-2.2,0.5-3.1,0.8C130.4,299.9,131.5,299.6,132.6,299.3z
		 M121.8,297.7c3-1.8,6.2-3.4,7.5-3.7C130.1,293.9,125.8,295.8,121.8,297.7z M96.6,285.1c-2.1-2.7-3.8-4.9-4.5-5.8
		C93.9,281.5,95.3,283.4,96.6,285.1z M85.5,335.4c-2,6.6-3.3,14.8-1.7,22.2C82.3,351.8,82.2,344.7,85.5,335.4z M85.3,362.8
		c0.6,1.4,1.2,2.6,1.6,3.7C86.4,365.3,85.8,364.1,85.3,362.8z M109.9,309.1c-3,1.8-6.1,3.7-8.9,5.6c1.1-1.8,1.9-5.2,1.5-6.5
		c-0.5-1.6,0.5-5.7-0.5-5.4c-5.8,1.4-22.5-3.4-26.2-13.6c3.9,8,17.4,15,26.2,13.6c2.2-0.4,2.8-1.8,2.4-3.7c0.2,0.8,0.2,1.3,0,1.5
		c-0.2,0.3,1.6-1.8,4-1.4c0.4-0.2,0.7-0.2,1.1-0.2c0,0.1-0.1,0.1-0.1,0.2c0.1,0,0.2-0.1,0.4-0.1c1.9,0.3,4,1.5,11-13.5
		c1.6-3.3-3.4,13.4-9.3,13.6c1.1,0.3,3.6,2.7,4.6,2.9c2.2,1.4,5.1,1,7.7,0.3C118.7,304.3,113.6,306.7,109.9,309.1z M128,369.4
		c-1.6-1.6,15.1,2.8,24.2,6.8C147.8,374.8,132.3,369.7,128,369.4z M157.1,293c0.2-0.1,0.4-0.1,0.5-0.2c-0.1,0-0.1,0.1-0.2,0.1
		C157.4,292.9,157.3,292.9,157.1,293z M162.1,355.1c0.1,3.1,0.4,6.8,0.6,10C162.3,362.2,162,358.8,162.1,355.1z M164.9,289.4
		c0.9-0.5,1.7-1.1,2.5-1.5l0,0C166.8,288.4,165.9,288.9,164.9,289.4z M339.1,214.2c-1.5,0.5-3.8,1.6-5.9,3.3v-0.3
		C334.7,215.8,336.7,214.6,339.1,214.2z M342.6,325.3c0.9,2.1,1.4,4.1,1.7,5.7C344,329.2,343.4,327.2,342.6,325.3z M332.1,267
		c2.8-4,7.4-9.6,15.6-9.1C341.1,260.2,336.9,260.8,332.1,267z M138.9,233.5c-10-5.2-31-21.5-59.6-14.2"/>
	<path class="st0" d="M51.5,311.5c0,0,0,0.1,0,0.2C51.5,311.6,51.5,311.6,51.5,311.5L51.5,311.5z"/>
	<path class="st0" d="M109.7,299.8c-0.3,0.1-0.6,0.1-1,0C109.2,300.1,109.5,300,109.7,299.8z"/>
</g>
<path class="st1" d="M283.5,148c-4.9,0.7-3.5,5.8,0,9.2s11.7,5.2,6.9,9.3c-4.8,4.1-11.3,1-6.9,7.9c4.4,6.9,12.6,9.7,11.2,14.8
	c-1.4,5.2-0.5,11.6,1.3,13.2c1.6,1.5,5.2,4.3,8.1,7.5c2.7,3.3,4,4.2,3.3,6.3c-0.7,2.2-7.3-2-10-4.4c-2.7-2.4-7.8,2.9-4.2,5.2
	c3.8,2.4,4.8,3.7,6.6,5.7c1.8,2,4.3,6.2,3.4,8.2c-0.9,2.2-0.9,2.3-6.1-0.8c-5.2-3.1,0.4,0.3-11-7.2c-5.4-3.5-8.1,4.2-4.7,7
	s8.5,3.3,11,7.9c2.5,4.5,3.3,8,1.4,9.2c-1.3,0.8-1.8,4.6-6.8-1.4c-2.7-3.3-6-5-10.7-7.2c-7.6-3.5-9.1,8.1,3.3,11.4
	c1.6,0.5,13.9,9,2.4,14.8c-4.3,2.2-7.5-8.2-15.7-10.6c-6.1-1.8-12.6,4.3-4,6.8c8.6,2.4,12.5,4.5,14.4,9.1c1.9,4.5-2.2,10.1-6.7,5.9
	c-4.5-4.3,0.2-8.4-5.5-9.2c-5.7-0.8-7.6,6.6-12.1,7.2c-4.5,0.6-4.1-2.9-7.4,0c-3.3,2.9-8.4,0.7-5.3,3.9c3.1,3.2-1.4,27.7-6.2,21
	c-10.8-15.3-15.1,2.9-6.3,9.9s4.7,9.1,0.3,11c-2.8,1.2-5.5,0.3-10.5-3.2c-5-3.4-7.2-5.2-11-2.5c-3.7,2.7-3.2,4.4-7.7,3.7
	c-4.5-0.7-8.1-4.3-11.7-1.7c-3.6,2.5-5.9,11-5.9,13.3c0,3.1-1.4,7.8-5.2,8.2c-1.4,0.2-3.7-3.8-7.9-0.9c-2.2,1.5-3.4,5.4-4.2,10.3
	c-1.2,8.1-3,8.8-1.9,11.6c1.1,2.8,0.1,6,0.9,11.5c-0.7-4.9-0.3-9.5-1.9-16.7c-1.6-7.2-1.4-6.6-3.9-9.8c-2.4-3.2-7.1-0.2-4.8,5.1
	c0.7,1.7,1.6,2.3,1.1,3.8c-0.5,1.5-1.4,3.4-3.3,1.6s-1.9-4.8-4.2-6.2c-2.3-1.4-6.6,1.8-6.9,3.9c-0.3,2.1,4.3,3.3,6.6,5.7
	c-0.5,2.4,1,3.1-1.9,0c-2.9-3.1-4.1-2.9-7.6-4.9c-1.7-0.9-1.9,5.3,0.1,6.6c5.4,3.4,5.5,3.7,6.6,5.1c4.5,5.4-1.4,3.7-3.9,2.5
	c-2.3-1.1-5.3-3.8-7.4-2.1c-2.8,2.4-4.4,5.1-1.2,6.1c3.9,1.1,17.1,3.6,19.6,6.7c2.5,3.1,1.9,11-2.4,8.3c-4.3-2.6-3.5-2.4-10-3.3
	c-4.6-0.6-7.5,10.6,1.3,11c9.7,0.5,9.6,2.5,7,5.2c-2.6,2.7-10.8,0.9-10.3,4.5c0.6,4.8,9.6,7.3,11.7,9.9s-5.4,0.2-5.9,4.3
	c-0.5,4.2,7.8,17.3,11.8,18.6c5.6,1.7,1.1,6.5,0.7,11.7s6.9,13.3,7.1,18.8c0.2,7.8-12.1,22.7-13,24.3c-0.9,1.5-9.4,6.2-13.5,6.6
	c-14.6,1.6-19,17.6-10,17.1c9.1-0.6,16.6-4.4,19.9-6.6c7-4.7,10.1-8.1,17.1-15.7c7.2-7.9,10-11,11.5-12.9c2.9-3.3,9.2-10.7,3.4-23.9
	c-1.8-4.1-2.8-7.4-3.3-10.1c-0.7-3.9-0.6-6.6-1.4-8.6c-1.4-3.4-0.2-10.2-2-15.7s-4.3-14.9-4.7-19c-0.5-4.1-0.7-3.3-2.2-9.7
	c-1.4-6.4-6.5-7.5-6.7-12.1c-0.2-4.6,5.6-3.6,6.2-6.3c0.9,0.3,3.2,1.6,5.9,1c2.7-0.6,8.3-2.4,13.8-3.8c5.5-1.4,12.1-4.3,14.9-5
	c2.8-0.6,10.2,0.2,13.4-2.3c3.2-2.4,8.1-6.1,12.2-6.2c4.3-0.1,21.2-2.7,25.3-3.9c4.1-1.2,6.9-4,12.5-8.5
	c5.6-4.5,13.5-15.9,15.4-18.9c2-3,11.8-11.1,15.6-14.8s11.8-15.5,12.4-16.8c0.6-1.4,9.2-12.8,10.9-14.2c1.6-1.4,5-6.8,6.5-8.9
	c1.5-2.1,5.2-14.7,7.1-15.7c1.8-1,0-4.3,0-5.8c0-1.6,1.5-4.9,1.3-7.6c-0.3-2.7-0.8-4.3-1.3-7.3c-0.5-3-2.5-16.4-2.8-19.6
	c-0.3-3.1-0.5-5-1.3-7.9c-0.6-2.3,1.9-2.2-1.4-4.3s-4.3-0.3-6.8-5.9c-2.5-5.6-12.3-32.7-10.9-39.6s4.4-18.7,6.1-21
	c1.6-2.3,7.4-12.4,7.4-12.4s-1.3-5-3,0C312.6,131.5,286.9,147.5,283.5,148z"/>
<g>
	<path class="st0" d="M264.2,145.3c-5.1,0-10.1-0.8-15.1-2.4c-21.2-6.7-34.9-22.8-39.8-46.6c-2.3-11-1.4-21.5,2.6-31.6
		c5.7-14.4,15.9-22.8,17-23.7c3.5-1.8,8.5-2.7,14.4-2.7c16.4,0,41.1,7.9,56.5,25.3c11,12.5,15.7,27.4,13.7,44.4
		C298.7,138.7,278.5,145.3,264.2,145.3L264.2,145.3z"/>
	<path d="M243.4,39.5c16.1,0,40.3,7.8,55.5,24.8c10.8,12.1,15.2,26.6,13.4,43.2c-8.1,16.7-22.9,36.4-48,36.4c-5,0-9.9-0.8-14.7-2.3
		c-20.7-6.6-34.1-22.4-38.9-45.6c-2.2-10.7-1.3-21,2.6-30.9c5.4-13.7,15-21.9,16.5-23.1C233.1,40.5,237.8,39.5,243.4,39.5
		 M243.4,36.8c-6.1,0-11.3,1-15.1,3c0,0-11.3,8.7-17.5,24.3c-3.4,8.7-5.3,19.6-2.7,32.4c7.2,35.6,32,44.9,40.7,47.7
		c2.5,0.8,8.2,2.4,15.5,2.4c14.5,0,35.3-6.4,50.6-38.4C320.6,60.1,272.7,36.8,243.4,36.8L243.4,36.8z"/>
</g>
<path class="st2" d="M291.4,53.8c-7.3-5.8,1.7-15,10.3-19.6s23.1-8.4,34.6,5.5c11.5,13.9,18.7,44.3,8,68.3s-4.5,10.3-4.5,10.3
	s-13.8-0.5-18.1,3.7c-4.3,4.2-35.7,26.2-40,25.2c-4.3-1-6.9-2.1-3.6-2.7s22.4-11.3,29.9-23.8c6.3-10.4,8.1-22.1,5.9-33.9
	C312.1,77.1,305.4,65,291.4,53.8z"/>
<path class="st2" d="M352.4,80.6c0,0,43.2,12.3,46,16.3c2.8,4.1-2.4,41.8-3.4,47.2c-1,5.4-6.4,33.2-7.8,35.6
	c-1.4,2.3-5.3,10.6-5.3,10.6s-1.6,1.8-2.3-1.3c-0.6-3.1-0.3-5.7-0.8-9.4c-0.6-3.6-1.6-9.3-2-11.8c-0.4-2.4-0.1-7.1-1.4-10.6
	c-1.3-3.5-4.6-15.4-6.4-17.8c-11.8-15.8-25.7-20.7-29.9-19.7C342.3,112,352.2,99.2,352.4,80.6z"/>
<g>
	<path d="M261.6,153.2c-12.8,0-28.2-5.7-35.3-20.1l1.6-0.8c5,10.1,14.7,15.7,28.9,16.7c11.8,0.8,21.9-1.9,23.4-2.4
		c18.4-6.9,40.3-25.3,41.6-31.2c1.5-6.6-3.1-27.7-4-29.2c-0.1-0.2-0.3-0.6-0.6-1.3c-10.2-23.7-27.2-36.7-39.7-43.3
		c-38.5-20.5-61.5,2.6-61.7,2.9l-2.1,2.2l0.5-3c1.4-7.3,15.7-22.6,35.9-30.9c17.5-7.2,45.3-12.9,75.3,7.6c51,33.5,16,98.2,15.7,98.8
		l-1.6-0.9c0.4-0.6,33.6-62.5-16-95c-29.1-20-55.5-15.8-72.6-8.9c-17.6,7.2-29.7,19.4-33.6,26.4c7.4-5.6,30-19,61.9-2
		c12.8,6.8,29.3,21.2,39.7,45.3c0.2,0.5,0.5,1,0.5,1.1c1.2,2,5.7,23.7,4.2,30.5c-0.9,4.1-8.5,11.1-15.2,16.4
		c-9.1,7.1-18.6,14.5-26.9,17.6C279,150.9,270.7,153.2,261.6,153.2z"/>
</g>
<path d="M250,38c0,0-36.5,20.2-33.8,54.9s22.1,45.8,28.5,48.9c6.4,3.1,46.4,17.5,70.1-33.5C322.1,51.9,254.6,35.5,250,38z"/>
<path class="st3" d="M216.1,43c-4.1,5-7.8,12.6-6.2,23.6c0,0-1.4-19.5,18.5-26.9s40.1,2.7,49.8,7"/>
<path class="st2" d="M319.4,125.5c10.8,0.4,21.2,1.9,21.6,12.3c0.5,10.4-6.1,25.5-10.9,24.3c-4.8-1.2-8.9-3.5-8.4,0.4
	c0.5,3.9,6.1,11.9,1.8,15.6c-4.3,3.6-5.7,1.4-6.4,2.9c-0.7,1.4-1.3,5.5-6.2,0.8c-1.3-1.2,2.9,16.6,11.8,22.4
	c0.2-8.2-1-16.7,4.9-28.8c2-4.1,6-8.8,11.6-12.9c21.7-15.9,37.7,5.3,37.7,5.3s0.5-24.4-18.8-39.3c-19.3-14.8-26.6-10.9-26.9-10.9
	S320.2,121.8,319.4,125.5z"/>
<g>
	<path d="M323,205.5c-0.5,0-1.3-0.4-1.8-0.7c-6-3.7-13.3-22.8-16.1-37.7c-2.5-13.6,3-32,12.9-42.6c5.1-5.4,10.5-8.1,15.8-7.4
		c16.7,1.9,30.6,14.1,36.5,24.8c4.2,7.5,9,26.2,6.5,27.7c-0.1,0.1-0.9,0.5-1.5-0.5l0,0c-8.1-11.8-20.1-10.9-25.3-10.5l-0.8,0.1
		c-4.5,0.3-11.8,6-12.9,7.2l-0.4,0.4c-0.7,0.8-2.2,2.3-3.8,4.7c-0.3,0.5-0.5,0.9-0.9,1.4c-2.5,4-4.6,8.6-6.2,13.8
		c-2.1,6.8-1.4,12.2-0.9,15.5c0.3,2.2,0.5,3.3-0.5,3.9C323.5,205.4,323.3,205.5,323,205.5z M332.3,118.7c-5.3,0-10,3.7-12.9,6.9
		c-9.4,10.1-14.9,28.2-12.5,41.1c3.3,17.6,10.8,33.8,15.3,36.5c0.2,0.1,0.4,0.2,0.5,0.3c0-0.5-0.1-1.3-0.2-1.9
		c-0.5-3.3-1.2-9.1,0.9-16.3c1.6-5.3,3.6-10.2,6.3-14.3c0.6-1,3.5-5.4,4.8-7.2c1.3-1.6,9.4-7,14.6-7.9c7-1.2,15.9-2.3,26.5,10.3
		c-0.4-4.5-2.6-16-6.9-23.8c-5.6-10.2-19-22-35-23.8C333.2,118.7,332.8,118.7,332.3,118.7z"/>
</g>
<path class="st2" d="M336.1,167.2c-2.4,4.4-8.9,18.8-7.3,30.6c1.5,11.8,3.9,15.5,3.3,16.7c-0.6,1.4-2.9,2.6-1.4,4
	c1.5,1.4,4,6.5,3.5,7.4c-0.5,0.9,2.3,8.3,1.8,10.9c-0.5,2.5-2.4,10.1-2,11c0.5,0.9,1.6,5.6,2,6.8c0.3,1.2-1.9,6.6-2.4,8.8
	s-1.5,5-0.5,5.9c1,0.9,1.9,3.3,1.6,5.2c-0.3,1.8,1.2,12.3,0,13.4c-1.2,1.1-5.7,9.4-7.2,11s-3.3,6.2-4.7,9.1c-1.4,3-5.2,6.7-7.4,9.2
	c-2.2,2.5-3,5.2-4.2,8.1s-3.7,3.6-2.7,6c1,2.4,18.6,13.7,20.8,13.2c2.3-0.5,1.8-4.9,3.8-5.6c2.1-0.7,3.9,0.5,5.9-0.5
	c2-0.9,5.2-5.9,5.2-8.3c0-2.4,1.2-0.2,3.3-1.3s7.9-4.3,9.6-6.2c1.6-2,3.3-2.4,3.4-5c0.2-2.5,4.3-8.8,5.7-10.6
	c1.5-1.8,5.3-11.2,6-12.8s4.1-4.2,4.9-4.6c0.8-0.5,11.9-28.1,11.1-37c-0.8-9-2.6-37.1-2.7-39.8s0.5-12.2-0.3-14
	c-0.7-1.8-2.2-5-3.5-6.9c-1.3-1.9-1.7-5.5-2.5-8.1c-0.8-2.5-0.6-5.2-1.4-7.8s-3.6-6.7-2.9-7.2c0.8-0.5-6.2-7.7-10.5-9.1
	c-9.8-3.2-16.3-1.3-18.4-0.6s-5.8,3.1-7.2,4.1C337.7,164.3,336.1,167.2,336.1,167.2z"/>
<g>
	<path d="M333.5,347c-0.9,0-3.4-0.8-12.3-5.2c-5.5-2.7-12.3-6.3-14.8-8.3c-4.3-3.4-3.6-6.1-2.5-10c0.2-0.6,0.4-1.4,0.5-2.1
		c0.8-3.2,2.5-5.7,4.6-9c1.6-2.4,3.5-5.2,5.4-9.1c2.5-4.9,3.8-7.4,4.8-9.2c0.7-1.4,1.3-2.4,1.9-3.7c0.7-1.4,1.1-1.8,1.4-2
		c0.1-0.1,0.4-0.4,1-2c0.3-0.6,0.5-1,0.5-1.3c0.1-0.1,0.1-0.2,0.1-0.3c-0.1-0.5,0-2.3,2.3-11.5l0.1-0.2c0.7-1.2,1.4-2.3,2-3.3
		c-0.1-1.2-0.1-3.1,0-5.2c0-4.1,0.1-10.1-0.6-11.6c-0.7-1.5-0.5-4.2-0.4-7.1c0.2-2.4,0.4-4.9-0.1-6.2l-0.3-0.8
		c-0.8-2.4-1-2.8-1.4-10c0-0.5,0-1.1,0-1.6c-0.1-0.3-0.2-0.7-0.3-1.2c0-0.3,0-0.5,0-0.6c-0.1-0.8-0.3-2.2-0.5-4.3
		c-0.5-4.8-0.8-7.7-0.7-10c-0.1-0.2-0.2-0.4-0.2-0.7c0,0,0-0.1-0.1-0.3c-0.1-0.4-0.2-0.7-0.4-1.2c-0.4-1.3-0.8-2.6-1.3-5l1.7-1
		c0.3,1.5,0.6,3.2,0.9,4.2c0.6-1.4,1.4-2.9,2.5-4.5c0,0,1.7-1.9,2.3-1.5c0.5,0.4-0.8,2.4-0.8,2.4c-3.5,5.9-3.6,6.7-2.4,17.4
		c0.1,0.6,0.2,1.3,0.2,1.8c0.9-1.7,2.2-3.2,3.6-4.4c1.8-2.1,4.2-3.9,7.3-4.3c0,0,8-1.1,8.1-1c1.9,0.8-7.7,2.8-7.7,2.8
		c-1.9,0.7-4.1,2.1-6.2,3.9c-1.7,2.1-3.1,4.3-3.8,5.9l-0.2,0.5c-0.2,0.5-0.5,0.9-0.6,1.2c-0.1,0.5-0.1,1,0,1.5c0.4,7,1.3,6.7,2,8.9
		l0.4,1.9c0.5,1.6-0.4,3.7-0.5,6.4c-0.2,2.4-0.4,5,0.2,6.2c0.8,1.7,0.8,6.4,0.8,12.4c0,1,0,1.9,0,2.7l0.1-0.1
		c2.9-4.1,7.7-9.9,16.3-9.4c0,0,2.6-0.1,2.7,0.6c0.1,0.7-2.5,1.2-2.5,1.2c-0.9,0.4-1.8,0.6-2.7,0.9c-5,1.6-8.5,2.8-12.4,7.7
		c-0.3,0.4-0.5,0.6-0.7,1c-0.4,0.5-0.7,1-1,1.4c-0.6,1-1.3,2.1-2,3.3c-2.1,8.7-2.2,10.5-2.2,10.9c0.1,0.4,0,0.5-0.3,1.1
		c-0.1,0.3-0.3,0.6-0.5,1.2c-0.9,2.2-1.2,2.4-1.7,2.8c-0.1,0-0.3,0.2-0.8,1.4c-0.6,1.4-1.2,2.3-1.9,3.7c-0.9,1.8-2.3,4.3-4.8,9.2
		c-2,3.9-3.9,6.8-5.6,9.2c-2.1,3.1-3.7,5.4-4.4,8.3c-0.2,0.8-0.4,1.5-0.5,2.2c-1.1,3.9-1.4,5.3,1.9,8.1c4.2,3.3,22.5,12.3,25.6,13
		c0-0.1,0.1-0.3,0.1-0.5c0.1-0.6,0.4-1.6,1.5-1.9c0.5-0.1,1.1-0.1,2-0.2c1.7,0,5.2-0.1,5.9-1.3c0.2-0.4,0.5-1.4,0.5-3.1
		c-0.2-0.5-0.3-1.2-0.3-2.2c0-1-0.1-2.3-0.3-3.8c-0.4-1.8-0.9-4-1.8-6.2c-0.7-1.6-1.7-3.4-3.2-5.2c0,0-0.9-1.2-1-2.4
		c-0.1-0.5,2.4,1.3,2.4,1.3c1.5,1.8,2.6,3.8,3.4,5.9c1,2.4,1.5,4.5,1.8,6.3c0.4,1.8,0.5,3.3,0.5,4.2c0,0.2,0,0.4,0,0.5
		c0.5-0.5,1-0.9,1.3-1.2l0.1-0.1c8.4-6.3,13.3-12.8,13.5-14.5c0-0.2,0.1-0.4,0.1-0.6c0.3-2.1,0.6-5,4.3-10c3.1-4.3,6.5-12.2,8.2-16
		c0.5-1.1,0.8-1.9,1-2.3c0.5-0.9,1.2-1.4,1.9-1.8c1.2-0.8,2.6-1.7,3.4-4.7c0.4-1.3,1-2.9,1.8-5c2.6-6.7,6.7-16.8,6.9-28.1
		c0.2-10.5-0.8-19.2-1.4-24.3c-0.3-2.1-0.5-3.5-0.5-4.3c0-0.3,0-0.7,0-1.3c0.3-19.2-1.1-25.3-2.3-26.9c-3.1-4.3-4.3-6.5-4.7-9.8
		c-0.1-0.8-0.1-1.6-0.1-2.4c-0.1-2.3-0.1-4.6-1.4-7.1c-1.3-2.4-1.6-4.6-1.8-6.2c-0.1-0.5-0.2-1.3-0.3-1.4l1.5-1
		c0.3,0.5,0.4,1.2,0.5,2.2c0.2,1.4,0.5,3.4,1.6,5.5c1.5,2.8,1.5,5.5,1.6,7.9c0,0.8,0,1.6,0.1,2.4c0.3,2.8,1.4,4.7,4.3,9
		c2,2.7,2.8,11.9,2.6,28c0,0.5,0,1,0,1.3c0,0.7,0.2,2.2,0.4,4.2c0.6,5.2,1.6,13.9,1.4,24.5c-0.3,11.5-4.5,22.3-7.1,28.6
		c-0.8,2-1.4,3.6-1.8,4.8c-1.1,3.6-2.9,4.8-4.3,5.7c-0.6,0.4-1.1,0.7-1.3,1.1c-0.2,0.4-0.5,1.2-1,2.2c-1.8,4.2-5.2,11.9-8.4,16.4
		c-3.4,4.7-3.4,7.2-3.7,9.1c0,0.2-0.1,1.4-0.2,1.6c-0.7,1.4-6.6,8.9-14.4,14.8c-1.1,1.1-1.8,1.7-2.4,2.1c0.4,1.6-0.3,2.7-0.6,3.4
		c-1.2,2-4.8,2.1-7.4,2.2c-0.6,0-1.4,0-1.6,0.1c-0.1,0-0.1,0-0.3,0.5c-0.1,0.5-0.3,1.3-1,1.7C333.9,346.8,333.8,347,333.5,347z"/>
</g>
<path class="st4" d="M329.7,270.2c2.6-3.5,7.3-11.3,17.2-11.3c-8.2,2.8-12.8,3.1-19.3,14.8"/>
<g>
	<path d="M359.8,321.1v-0.5c-0.5-5.4-0.5-6.8-9.8-16.2c-9.5-9.8-28.7-7.1-31.1-5.6l-1-1.5c3.4-2.2,24.3-5.5,34.2,4.6
		c9.3,9.5,9,12.6,9.5,18.6v0.5L359.8,321.1z"/>
</g>
<g>
	<path d="M377.3,289.5c-9.3-13.8-19.1-14-24.3-14.3c-2.1-0.1-3.4-0.1-4.1-1.1c-0.5-0.8-0.1-1.7,0.2-2.3c2.7-5.7,5-50.1,3.4-52.9
		l-0.5-0.9l0.9-0.5c0.2-0.1,15.7-7.7,33.2,2.4l0.4,1.7c-14.7-8.4-28.9-3.2-32-1.9c1.4,7.5-1.3,47.7-3.8,52.9
		c-0.1,0.3-0.2,0.5-0.2,0.5c0.4,0.2,1.5,0.4,2.5,0.3c6.2-1,15.9,0.5,25.8,15L377.3,289.5z"/>
	<path class="st2" d="M378.1,287.8c-14.6-21.5-30.2-10.1-27.5-15.8c2.7-5.7,5.4-49.1,3.9-52.4c0,0,15.4-6.9,31.5,1.6l0.2,0.4
		c0,0,2.4,26.2,1.8,32.5c-0.4,4.4-1.7,10.9-4.1,18.2C381.1,280.4,378.1,287.8,378.1,287.8z"/>
	<path class="st2" d="M378.1,289"/>
	<path class="st2" d="M388.5,254.1"/>
</g>
<g>
	<path d="M388.3,244c-13.5-10.5-32.4-4.1-34.5-3.3l-0.6-1.7c2.2-0.8,18.6-10.5,35.7,3.5L388.3,244z"/>
</g>
<g>
	<path d="M386.1,266.1c-9-8.7-30.4-8.8-33.7-8l-0.3-1.8c3.5-0.9,25.6-4.4,35.2,8.4L386.1,266.1z"/>
</g>
<g>
	<path d="M381.9,213.5c-3.7-1.9-8.7-3-13-3.2c-2-0.1-3.8,0.5-5.2,0.5c-0.5,0-1.6,0.2-1.8-0.5c-0.2-0.9,0.9-1.4,1.4-1.4
		c1.3-0.2,4.2-1,6.2-0.9c4.5,0.2,9.2,1.7,13.3,3.9c0,0,1.4,0.9,0.9,1.6C383.4,214,381.9,213.5,381.9,213.5z"/>
</g>
<path class="st5" d="M338.8,175.7c-3.4,9.1,0.9,26.5,2.7,27c1.8,0.5,30-2.8,31-3.3c1-0.5-1.4-21.6-2.9-26.1
	C368.1,168.7,340,172.4,338.8,175.7z"/>
<g>
	<path d="M350,157.8l-1.7-0.5c0.2-0.7,0.5-1.4,0.6-2.1c1.1-3.3,2.2-6.7-0.5-11.4c0,0-1.4-2.8-1-3.1c0.5-0.3,2.6,2.2,2.6,2.2
		c3.1,5.4,1.8,9.4,0.7,12.9C350.4,156.4,350.1,157,350,157.8z"/>
</g>
<g>
	<path d="M330,172.2l-0.5-0.3c-3.6-2.5-4.5-3.2-6-7.8c0,0-0.2-1.8,0.3-2c0.5-0.2,1.4,1.4,1.4,1.4c1.3,4,1.9,4.4,5.3,6.9l0.5,0.3
		L330,172.2z"/>
</g>
<g>
	<path class="st0" d="M368.1,160.9c1.4-2.4,2.5-2.9,0.2-9"/>
	<path d="M369,161.4l-1.5-0.9c0.2-0.3,0.5-0.5,0.5-0.8c0.5-2.2,0.7-3.5-0.4-7.4c0,0-1.3-3.8-0.6-4.2s2.4,3.5,2.4,3.5
		c1.5,4.8,1.1,5.9,0.2,9.1C369.3,160.9,369.1,161.1,369,161.4z"/>
</g>
<g>
	<path class="st0" d="M304,330c-1.8,1-5,4.7-5.9,6.8c-0.9,2.1-1.4-0.2-4.1,3.4c-2.7,3.6-8,7.4-9.1,11.8c-1.1,4.3-1.8,4.7-3.4,8.9
		c-1.6,4.2-3.2,9.1-2,11.8c1.2,2.7,2.9,7.9,10,6.6c-1.2-4.3-0.5-10.7,0.4-14.2c0.7-3-3.1,11.7,0.8,16.2c3.9,4.5,10.5,0.1,11.4-0.2
		c-1.4-2.9-1.4-2.6-2-5.5c-0.6-3.3-0.1-7.2-0.1-8.8c0.9-1.4-2.7,13.4,5,16.6s9.6-2.1,9.4-3c-0.2-0.9-2.4-2.5-2.8-6.8
		c-0.5-4.3,0-9.2,0-9.2s-2.5,13.8,5.9,18.8s10.8-3.3,9.4-5.1c-1.4-1.8-3.7-5.2-1.1-9.2c3.6-5.5,4.6-8.7,5.3-13.5
		c0.7-4.8,1.6-5.2,2.6-9.1C325.3,343.2,306.1,334.2,304,330z"/>
	<path d="M322.2,385.4c-1.4,0-3.2-0.5-5.2-1.7c-0.8-0.5-1.5-1-2.2-1.6c-0.3,0.5-0.7,1.1-1.3,1.5c-1.4,1.3-4.2,2.4-9,0.4
		c-1.1-0.5-2-1.1-2.7-2c0,0-0.1,0-0.2,0.1c-2.2,1.1-8,3.9-11.7-0.5c-0.4-0.5-0.7-1-1-1.5c-6.9,0.9-9-4.2-10.1-6.9l-0.2-0.4
		c-1-2.4-0.4-6.2,2-12.5c0.5-1.5,1.1-2.5,1.4-3.4c0.7-1.5,1.2-2.6,1.9-5.3c0.8-3.1,3.4-5.8,6-8.4c1.3-1.3,2.4-2.4,3.3-3.6
		c1.6-2.1,2.6-2.5,3.4-2.7c0.3-0.1,0.3-0.1,0.5-0.5c1-2.2,4.2-6.1,6.2-7.2l0.8-0.5l0.5,0.8c0.4,0.7,2.4,3.1,12.1,8.1
		c5.6,2.9,12.6,6,16.9,7.5l0.8,0.3l-0.2,0.8c-0.5,1.5-0.8,2.5-1.2,3.4c-0.5,1.4-1,2.7-1.4,5.5c-0.7,4.7-1.6,8.1-5.4,13.8
		c-2.1,3.2-0.6,6,1.1,8.2c0.9,1.3,0.6,4.3-1.1,6.2C325.6,384.4,324.3,385.4,322.2,385.4z M315.1,379.8c0.7,0.9,1.6,1.7,2.7,2.4
		c3.2,1.9,5.6,1.9,7.2,0.2c1.4-1.4,1.4-3.5,1-4c-1.2-1.5-5-6.2-2-11c3.6-5.5,5.3-8.1,6-12.5c0.5-3.1,1-4.4,1.5-5.9
		c0.3-0.7,0.5-1.4,0.9-2.4c-7.1-2.6-24.7-10.7-28.7-15.4c-1.7,1.4-4.1,4.3-4.8,5.9c-0.5,1.2-1.1,1.4-1.8,1.5
		c-0.5,0.1-3.5,4.9-4.8,6.2c-2.4,2.4-5.8,4.6-6.5,7.2c-0.7,2.8-1.3,4.1-2,5.6c-0.4,0.9-0.8,1.9-1.4,3.3c-0.8,2.1-3.3,8.2-2.1,11
		l0.2,0.4c1.1,2.7,2.6,6.3,7.9,5.8c-0.9-4.3-0.4-10,0.5-13.7l0.1-0.3c0.3-1,1.1-0.8,1.1-0.8s0.9,0.2,0.6,1.2
		c-1.2,5.6-1.7,13.1,0.5,15.7c2.7,3.3,7.3,1.1,9.4,0c-0.8-1.4-1.3-3-1.5-4.6c0-0.1,0-0.3-0.1-0.4c-0.5-2.4-0.3-5-0.2-6.9
		c0-0.8,0.1-1.5,0.1-2v-0.3l0.2-0.3c0.4-0.5,0.8-0.5,1.2-0.5c0.7,0.3,0.7,0.9,0.5,2.4c-0.1,1.6-0.4,4.3,0,6.9c0,0.1,0,0.2,0,0.3
		c0.5,2.4,0.5,2.4,1.4,4.2c0.2,0.3,0.4,0.7,0.5,1.1c0.6,0.8,1.4,1.4,2.4,1.8c2.9,1.2,5.2,1.3,6.8,0.2c0.9-0.6,1.3-1.5,1.4-2
		c-0.5-0.7-1-1.5-1.4-2.3c-0.5-1.1-1.2-2.4-1.4-4.4c-0.9-4.9-0.1-9.5-0.1-9.9l1.8,0.3c0,0-0.4,4.8,0,9c0.3,1.5,0.7,3.1,1.4,4.5
		c0.3,0.4,0.5,0.7,0.6,1C314.7,379.1,315,379.4,315.1,379.8z"/>
</g>
<path class="st6" d="M161.7,290.7c2.4-0.5,8-1.3,7.4-4c-0.5-2.7-8.3-7.7-11.7-6.8c-3.3,0.9-5.8,2.1-7.7,0.9c-1.9-1.2,0.1-2-3-3.9
	c-3.2-2-4.4-3.4-8.2-1.5c-3.8,2-8.4-4.8-11.6-5.4c-3.2-0.6-3.4-0.9-4.1-3.6c-0.6-2.6,2.4-2,0.5-3.8s-19-7.2-21.1-5.8
	c-2.1,1.4-10.3,0.1-14.9,1.9s-8.6,4.2-9.8,7.7c-1,3-1.6,2-3.3,5.9c-1.7,3.9-3.1,1.9-5.6,7.1c-2.4,5.1-6.5,13.2-2.1,15.8
	c3.9,2.4,3.8,4.3,3.3,8.5c-0.5,3.9-3.5,4.3-2.3,8.9c1.3,4.5,2.2,9.6,1.5,11.3s-3.4,6.3-1.8,10c1.6,3.6,4.5,5.2,2.5,7.2
	c-2,2-3.8-0.9-3.9,3.8c-0.2,4.8,0.5,2.4,1.2,7.3c0.7,5-1.3,4.3-2.5,8.3c-1.3,4-2.8,3.6-1.5,6.4c1.3,2.7,9.1,9.1,12.9,11
	c3.7,1.9,8,4.2,11.2,3.5c3.3-0.6,4.9-0.1,4-2.5s-1.1-2.6-2.9-6.3c-1.8-3.7-5.6-14.1-6.2-17.9c-0.5-3.8,1.4-14.7,2-17.6
	c0.5-3,5.9-14.8,9.1-17.1c3.4-2.4,7-3.8,7.8-5.2s1.3-6.2,0.5-8.1s-2.1-2.5,2.2-5.1c4.3-2.5,11.2-0.3,12.6,0.5
	c1.3,0.8,7.3,2.4,10.6,0.6c3.3-1.8,7.1-2.7,10.8-4.1c3.7-1.4,21.2-4,21.7-4.8C160,293,161.7,290.7,161.7,290.7z"/>
<path class="st2" d="M167.1,186.9c0.2-0.6,2.6-0.1,3.7,1.1c1.1,1.2,1.1,0.5,1.9,2.5c0.8,2.1,2,3.8,1.9,5s2.8-1.1,5.4,1.1
	c2.5,2.1,1.8-1.2,3.2-2.4c1.4-1.2,0.9-3.8,0.8-5.1c-0.1-1.3,5.2-16.7,7.2-18.8c2-2.2,7.8-10.6,8.6-10.4s2.8-6.7,5.9-8.6
	c3.2-1.9,9.9-15.9,20.2-14.3c-3.3,16-3.4,24.2-4,25.3s-3-0.8-3-0.8l-5.2,10.9l-0.7,1.5c0,0-9.1,22-9.5,26.6c0,0-0.3,4.2-0.1,6.6
	c-2.6,2.2-20.7,28.1-30.7,34.1c-3,1.3-16.7-10.4-19.9-16.5c-1.5-2.8-15.1-15.1-13.1-15.8C141.7,208.3,163.9,201.4,167.1,186.9z"/>
<g>
	<path class="st7" d="M227.1,132c-2,5.4-6,29.1-6,41.4c0,12.2-25.3,46.2-46.3,65.6c-2.9,2.6-3,3.3-3.3,4.2c0.5,0.7-2.8,0-3.3,2
		c2.4,0.9,11.3,6.5,12.4,8.6c-1.3-1.6-7.1-7.3-12.6-8.7c-1.3-0.6-4.4,0.8-3.8,2c0.6,1.2,14.3,14.1,14.8,17.9
		c-2.4-4.7-14.8-18.3-16.5-18.9c-1.6-0.6-6.8-1.8-8.5-0.5c1.2,1,2.1,2.4,3.3,4c-1.6-3.2-9.2-10-19.2-15.1s-28.8-22.9-59.6-14.2
		c-30.8,8.8-27.8,63.2-27.9,64.4c-0.2,1.2-0.5,25.2,0,27.2c0.5,2,4.7,11.1,10.3,16.1c-6.6-7.6-10.6-15.1-10.3-16.1
		c0.2-0.8-1.5,10,0.2,19.5c1.3,1.6,6.8,6.1,8.9,7.4c-3-2.2-8-6-8.9-7.4c-0.8-1.3,2.8,14.3,2.7,17.5c-0.1,3.2-0.3,4.8,2.4,9.5
		c2.7,4.7,5,8.4,7.5,11.1c2.5,2.7,15.4,12.7,27.9,12.2c-0.3-13.3-19.7-22.4-1.6-56.8c5.9-7,8.4-7.2,9.8-8.4c1.4-1.2,2.7-5.8,2.3-7.4
		s0.5-5.7-0.5-5.4c-5.8,1.4-22.5-3.4-26.2-13.6c3.9,8,17.4,15,26.2,13.6c8.8-1.5-7.7-20.2-10-23.4c11.6,14.2,13,20.3,12.5,21.2
		c-0.2,0.3,1.6-1.8,4-1.4c5.9,0.9-0.8-13.8,3.3-29.6c-3.5,5.1,0.7,32.6-3.3,29.6c2.5-1.2,3.7,4.8,12.4-13.6
		c1.6-3.3-3.4,13.4-9.3,13.6c1.1,0.3,3.6,2.7,4.6,2.9c0.6-1.8,10.7-7.5,13-8c1.5-0.3-15.4,6.5-13,8c3.9,2.4,10-0.5,13.3-1.8
		c3.3-1.4,10.7-1.5,12-2.4c1.4-0.9,8.1-2.9,11.3-3.6c3.2-0.7,8-2.3,11.1-4.3c3.2-2,5.4-3.8,8.6-3.4c3.2,0.3,14.9-0.9,21.5,5.2"/>
	<path d="M90.5,382.6c-13.1,0-25.7-10.4-27.7-12.5c-2.6-2.8-4.9-6.6-7.7-11.3c-2.8-4.8-2.7-6.7-2.5-9.8v-0.2c0.1-1.6-1-7.2-1.7-11.2
		c-0.8-4.4-1.2-6-1-6.6c-0.6-3.7-1.2-9.9-0.2-18.6c0-0.1,0-0.2,0-0.3c-0.5-2.8-0.1-26.2,0-27.3c0-0.1,0-0.4,0-0.8
		c-0.2-16.8,0-58.1,26.5-65.6c25.9-7.3,46.3,4.7,56.9,11.5c2.3,1.4,3.8,3.2,5.4,4c6.4,3.3,12,7.4,15.7,10.9c2.9-1.1,8.6,0.8,8.7,0.8
		c0.2,0.1,0.5,0.2,0.7,0.5c0.1-0.1,0.2-0.2,0.2-0.3c0.8-0.9,2.5-1.5,3.8-1.4c0.7-1.1,2.2-1.3,3-1.4h0.1c0.4-1,0.8-1.8,3.5-4.3
		c24.8-22.9,46.1-54.8,46.1-65c0-12,4-36.1,6.1-41.6l1.7,0.6c-2.1,5.5-5.9,29.1-5.9,41c0,12.6-25.7,46.9-46.7,66.3
		c-2.4,2.2-2.7,2.8-3,3.4c0,0.2,0,0.4-0.1,0.5c-0.3,0.6-0.8,0.7-1.4,0.8c-0.5,0.1-0.8,0.2-1.2,0.3c4,1.4,7.9,4.7,10.1,7
		c0.7,0.6,1.3,1.3,1.5,1.7c3.9,4.3-1.1,1.4-2.9-0.5c-2.6-2.3-8.5-6-10.6-6.8h-0.1l-0.2-0.1c-0.2-0.1-0.7-0.1-1.4,0.2
		c-0.5,0.2-0.9,0.5-1.1,0.7c0.4,0.5,1.6,1.8,2.8,3.1c5.9,6.2,11.6,12.3,12,15l0.9,5.7l-2.5-5.2c-2.3-4.6-14.5-17.7-15.9-18.5
		c-1.5-0.5-4.7-1.3-6.5-1l0,0c1.1,1.2,1.9,2.3,2.4,3.2c0,0,0.9,1.8,0.5,2.2c-0.5,0.4-2-1.3-2-1.3c-0.4-0.5-0.6-0.8-0.9-1.3
		c-0.5-0.6-0.8-1.2-1.3-1.7c-0.3-0.3-0.5-0.5-0.9-0.9l0,0l-0.8-0.7h0.1c-3.3-3.2-8.6-7.1-14.9-10.3c-1.7-0.9-3.7-2.2-6-3.6
		c-11-7.1-27.9-17.6-52.9-10.5c-25.3,7.2-27.5,46.2-27.2,62.5c0,0.7,0,0.9,0,1.1c-0.2,1.2-0.5,24.3-0.1,26.7v0.1
		c0.2,0.6,0.8,2.3,1.8,4.2c1.6,2.9,3.8,7.2,8.3,11.5c0,0,0.9,0.5,0.5,1.8c-0.2,0.5-1.8-0.5-1.8-0.5c-3.7-3.3-7.2-7.6-8.7-11.8
		c-0.1-0.4-0.5,11,0.1,14c0.6,0.7,2,2,3.5,3.3c1.4,1.1,3.1,2.4,5,3.8c0,0,0.6,0.6,0.3,1.4c-0.2,0.3-1.3,0.1-1.3,0.1
		c-1.1-0.7-3.4-1.7-5.4-3.3c-0.7-0.6-1.4-1.1-1.9-1.6c0.2,1,0.5,1.5,0.7,2.7c0.9,4.6,1.9,9.8,1.8,11.6v0.2c-0.2,3-0.2,4.4,2.3,8.8
		c2.7,4.6,5.8,6.7,8.2,9.3c2.9,3.1,14,13.5,25.4,13.6c-0.4-3.4-1.9-6.6-3.7-10.2c-4.8-9.6-10.7-21.5,2.2-46l0.1-0.2
		c4.4-5.2,7.2-6.8,8.7-7.7c0.5-0.3,0.9-0.5,1.2-0.7c1.1-1,2.4-5.2,2-6.5c-0.3-0.9-0.2-2.1-0.1-3.2c0-0.5,0.1-1.1,0.1-1.4
		c-0.8,0.1-1.7,0.2-2.8,0.1c-1.4-0.1-3-0.3-4.5-0.6c-7.3-1.6-16.6-6.2-19.3-13.7c0,0,0.3-1,0.5-1.1c0.3-0.1,1.1,0.4,1.1,0.4
		c3.8,7.6,16.9,14.5,25.2,13h0.1c1-0.2,1.4-0.6,1.5-1l0.2-0.6c0-0.3,0-0.5,0-0.8c-0.4-1.7-2.1-5.9-7.7-13.5c-1.2-1.5-2.2-2.9-3-3.8
		c-0.7-0.9-1.4-1.7-1.6-2.2c0,0-0.5-1.4-0.3-1.6c0.4-0.3,1.7,0.5,1.7,0.5c1.9,2.3,3.5,4.4,5,6.4c3.8,5,6.8,9.7,7.5,13.2h1.4
		c0.7-0.2,1.3-0.2,1.7-0.2c0.2-0.1,0.5-0.1,0.6-0.2c0.5-1.7,0.5-7.1,0.4-11.1c-0.1-7.4-0.3-15.1,1.6-17.9c0,0,0.9-1.1,1.3-0.9
		c0.4,0.2,0.4,1.6,0.4,1.6c-2,7.5-1.4,14.9-1,20.4c0.3,3.6,0.5,6.2-0.1,8c1.4-0.5,3.8-3.1,8.5-12.9c0.2-0.4,0.5-1.2,1.4-0.9
		c0.1,0,0.8,0.3,0.6,1.1c-0.2,1.4-3.6,11.3-8.3,14c0.3,0.2,0.5,0.4,0.7,0.5s0.6,0.5,1,0.7c0.7-0.9,2.4-2,5.7-3.6
		c3.2-1.9,6.6-3.6,7.9-3.8c0.7-0.1,1.9,0,2,0.3c0.3,0.8-0.7,1.2-3.9,2.6c-1.1,0.5-3.1,1.4-5.1,2.4c-1.9,1.2-3.6,2.4-4.5,3.1
		c3.3,1.1,7.9-0.8,10.8-2l0.7-0.3c1.9-0.7,4.7-1.7,7.3-2.1c1.8-0.3,3.8-1.4,4.3-1.7c1.6-1.1,9.2-1.7,11.9-2.4
		c3.3-0.8,8-2.3,10.9-4.1c0.5-0.3,0.9-0.5,1.3-0.8c7.7-6.4,24.3-2.6,30,2.5l-1.3,1.4c-5.2-4.7-13.8-4.8-18.6-4.8
		c-1.1,0-1.9,0-2.5-0.1c-2.4-0.2-4.3,0.9-6.8,2.5c-0.4,0.3-0.8,0.5-1.3,0.8c-3.9,2.4-9.8,3.9-11.4,4.3c-3.5,0.8-9.9,2.7-11,3.5
		c-0.8,0.5-2.4,0.7-5.2,1.1c-2.5,0.4-5.3,0.7-7,1.4l-0.7,0.3c-3.4,1.4-9.2,3.8-13.2,1.5c-0.5-0.2-1.3-0.7-2.4-1.5
		c-0.6-0.5-1.5-1.1-2-1.4c-0.5,0.1-1,0-1.5-0.1c-0.1,0.1-0.2,0.1-0.3,0.2c-0.3,0.2-0.8,0.3-1.5-0.1c-0.9-0.1-1.9,0.3-2.9,1.1
		c0,0.1-0.1,0.2-0.1,0.4c-0.3,0.6-0.4,1.2-1.4,1.7c0.1,0.5-0.1,1.4-0.1,2.3c-0.1,0.9,0,2,0.2,2.5c0.5,2-1.4,7-3,8.3
		c-0.5,0.4-0.9,0.6-1.4,1c-1.4,0.9-4,2.3-8.1,7.2c-12.4,23.6-6.7,35-2.2,44.3c2,4,3.9,7.8,4,11.9v0.9h-0.9
		C91,382.6,90.7,382.6,90.5,382.6z"/>
</g>
<g>
	<path class="st7" d="M329.3,254.7c-1.8,2.5-4.5,6.6-7,12.9c-2.4,6.3-2.1,3-7.9,11.5c-5.7,8.4-8.4,10-12.7,17.3
		c-4.3,7.3-12,16.7-15.7,19.2c-3.6,2.4-8.4,5.7-13.8,14.4s-4.5,7.1-8.1,10.7s-6.6,5.7-10.9,10c-4.3,4.3-27.4,6.3-31.4,6.7
		c-3.9,0.4-6.5,3.3-11.1,5.7c-4.6,2.4-8.1,2.3-12.7,2.4s-14.1,4.4-16.2,4.6c-2.1,0.2-2,0.2-8.3,2.7c-6.3,2.5-8.9,2.4-11,1.2
		c0.2-1.1-2.5-20.6-0.7-24.2c-2.2,12.1,1.8,22.5,0.7,24.2c-1.1,1.6-4.4,3.7-6.9,0.4c-2.4-3.3-7.5-17.4-20.9-23.1
		c11.9,3.3,20.1,21.7,20.9,23.1c0.8,1.4,1.6,2.9-1,4.4c-7.2-4.2-29.3-10.2-27.5-8.4c4.3,0.4,20.1,5.5,24.3,6.8
		c4.2,1.3,3.2,1.8,4.4,4.6c1.3,2.8,5.5,8.1,6.8,11.2s2.2,15.4,3.1,18.9s1.8,4.4,3.1,7.3c1.3,2.9,1.8,9.8,1.8,12.8c0,3,1.8,7.4,1,9.2
		s-1,3.4-0.5,4.4c0.5,1,0,0,0.9,1.4s-0.4,2.5-1.6,4c-1.3,1.4-2.6,3.1-4.2,5.9c-1.5,2.8-15.5,5.5-24,5.8c-8.5,0.3-12.3-5-13.7-10.3
		c-1.4-5.3-1.4-3.7-4-8.6c-2.5-4.9-2.3-4.7-2.7-5.6c-0.5-0.9-4.4-12.3-7.2-16.7c-2.8-4.3-2.3-3.6-3.2-5.5s-2.3-5.8-6.2-11.4
		c-4-5.6-12.8-22.3-14-24.5s-0.5-2.5-6.7-16.2c-6.2-13.7,1.3-33.1,5.2-38.7c3.9-5.6,11.9-10.3,19.5-14.9c7.5-4.6,20.8-9.2,28.8-10.6
		"/>
	<path d="M141.7,463.5c-9.8,0-12.9-6.9-14-11c-0.8-3.3-1.2-3.8-1.9-5c-0.5-0.7-1.1-1.6-2-3.4c-1.8-3.5-2.2-4.4-2.4-5.1
		c-0.1-0.2-0.2-0.4-0.3-0.6c-0.1-0.3-0.4-0.8-0.8-2.2c-1.4-3.6-4.2-11.1-6.3-14.3c-2.3-3.4-2.4-3.8-2.8-4.7
		c-0.1-0.3-0.2-0.5-0.5-0.9c-0.2-0.4-0.4-0.7-0.5-1.2c-1-2.2-2.4-5.5-5.6-10c-3.1-4.4-9.1-15.4-12.3-21.3c-0.9-1.6-1.5-2.8-1.8-3.3
		c-0.5-0.9-0.7-1.5-1.2-2.7c-0.6-1.8-1.8-5.2-5.5-13.6c-6.2-13.8,1.2-33.7,5.2-39.6c3.7-5.3,11-9.8,17.9-14.1l1.7-1.1
		c7.7-4.8,21.3-9.4,29.1-10.7l0.3,1.8c-7.6,1.3-20.9,5.8-28.4,10.4l-1.8,1.1c-6.9,4.3-13,8.9-16.5,13.8c-3.9,5.7-11.9,24.4-6,37.7
		c3.8,8.5,5,11.9,5.6,13.8c0.4,1.1,0.5,1.6,1,2.4c0.3,0.5,1,1.7,1.8,3.3c3.2,5.9,9.1,16.7,12.2,21.1c3.3,4.7,4.9,8.3,5.8,10.4
		c0.2,0.5,1.4,3.3,3.6,6.6c2.3,3.3,5.1,11,6.5,14.7c0.4,1,0.7,1.9,0.8,2c0.2,0.3,0.2,0.5,0.4,0.7c0.3,0.5,0.6,1.4,2.4,4.9
		c0.9,1.7,1.4,2.5,1.9,3.3c0.8,1.4,1.3,2,2.2,5.5c0.9,3.7,4,8.4,12.9,8.1c9.2-0.3,21.9-1.7,23.1-3.9c1.6-2.8,3-4.5,4.2-6l0.5-0.5
		c1.2-1.4,1.4-1.8,1.1-2.4c-0.4-0.5-0.5-0.6-0.5-0.6c-0.2-0.2-0.3-0.3-0.5-0.9c-0.5-1.3-1.7-2.9-0.8-5.1c0.4-0.7,0.5-2.7,0.2-4.3
		c-0.4-1.5,0.1-3.3,0.1-4.6c0-2.8-0.5-9.6-1.7-12.4c-0.5-1-0.8-1.7-1.2-2.4c-0.7-1.4-1.6-2.7-2.2-5.1c-0.4-1.5-0.5-5-0.9-8.3
		c-0.5-4.3-1.2-8.8-1.9-10.4c-0.6-1.5-2.1-3.8-3.5-5.9c-1.4-2-2.6-3.9-3.3-5.2c-0.4-0.7-0.5-1.3-0.6-1.8c-0.1-0.4-0.2-0.7-0.4-0.9
		c-0.8-0.5-1.8-1-3-1.4c-0.8-0.3-2.2-0.6-3.7-1.2c-6-1.8-17-5.3-20.3-5.6h-0.4l-0.3-0.2c-0.5-0.5-0.5-1.1-0.2-1.4
		c0.4-0.5,1-1.3,12.5,2.2c5,1.5,9.5,3.1,12.8,4.5h0.1c1.5,0.5,2.4,0.8,3.1,1.4c1.1-0.9,0.8-1.5,0.1-2.8c-0.5-0.7-1.2-1.9-2-3.3
		c-2.9-5.2-8.2-15-18.6-19.5c0,0-0.5-0.5-0.3-1.1c0.2-0.5,0.9-0.6,0.9-0.6c5.1,1.4,12.9,6.5,21.1,22.7c0.2,0.4,0.3,0.5,0.4,0.7
		c0.7,0.9,1.4,1.4,2.4,1.4l0,0c1.2,0,2.4-0.9,2.9-1.5c0-0.5-0.2-2-0.3-3.4c-0.1-1.4-0.3-2.6-0.4-4c-0.4-2.9-0.7-6.4-0.6-10.3
		c0-3,0.2-5.4,0.7-6.5l2.7-5.2l-1,5.9c-0.4,2.1-0.5,4.1-0.6,6.1c0.1,3.1,0.4,6.9,0.6,10c0.1,1,0.3,2,0.5,2.8
		c0.4,2.3,0.5,3.7,0.5,4.7c1.7,0.7,4.1,0.6,9.6-1.5c6.3-2.5,6.4-2.5,8.6-2.8c0.6-0.1,2.5-0.7,4.4-1.4c3.9-1.4,8.8-3.2,11.8-3.2h1
		c4-0.1,7.2-0.2,11.2-2.3c1.6-0.8,2.9-1.7,4.3-2.5c2.4-1.6,4.2-3.6,6.9-3.8c12.3-1.1,27.2-3.2,30.1-6.2c2.3-2.3,5.1-3.4,6.9-5
		c1.6-1.4,3.3-2.8,5-4.5c0.7-0.7,1.3-2.4,1.6-2.8c1.8-1.7,1.3-1.4,5.6-8.3c5.6-9.1,10.7-12.3,14-14.6c3.3-2.3,11.9-10.8,16.3-18.3
		c2.4-4.2,4.3-6.4,6.4-9.1c1.7-2.1,3.7-4.5,6.2-8.2c2.6-3.8,4-5.2,4.9-6.2c1.1-1.2,1.5-1.6,2.8-5c2.4-6.2,5-10.3,7.1-13.1l1.4,1.1
		c-2,2.8-4.5,6.7-6.8,12.8c-1.4,3.7-2,4.3-3.2,5.6c-0.9,0.9-2.3,2.4-4.7,6.1c-2.6,3.8-4.6,6.2-6.3,8.4c-2.2,2.6-4,4.9-6.3,8.9
		c-4.2,7.2-12,16.8-15.9,19.5c-3.3,2.2-8.1,5.4-13.6,14.1c-4.5,7.2-4.7,7.4-6.7,9.2c-0.5,0.5-0.9,0.9-1.6,1.5
		c-1.8,1.8-3.3,3.2-5.1,4.6c-1.8,1.5-3.6,3.2-5.8,5.3c-4.3,4.3-25.5,6.3-32,7c-2.3,0.2-4.1,1.4-6.4,2.9c-1.3,0.8-2.7,1.8-4.4,2.6
		c-4.4,2.3-8,2.4-12,2.4h-1c-2.7,0.1-7.7,1.8-11.2,3.1c-2.5,0.9-3.3,2.3-4.2,2.4c-1.9,0.2-2.7,0.5-9,2.9c-5.6,2.2-8.5,1.5-11,0.4
		c-1,1-2.4,1.9-4,1.9c-0.5,0-0.9-0.1-1.4-0.3c-0.1,0.7-0.1,1.2-1.1,2c0.1,0.3,0.4,1.7,0.6,2.4c0.5,1.3,1.7,2.9,3,4.8
		c1.4,2.3,3.1,5.2,3.8,6.8c0.7,1.9,1.6,6.4,2.2,11c0.4,3.3,0.5,6.4,0.9,7.9c0.5,2.2,1.4,3.1,2.1,4.4c0.4,0.7,0.5,1.9,1,2.9
		c1.4,3.2,2.4,10,2.4,13.1c0,1.2,0,2.7,0.3,4.2c0.5,2.3,1.1,4.2,0.5,5.5c-0.7,1.5-0.8,2.5-0.5,3.3c0.1,0.2,0.2,0.9,0.5,1.4
		c1.2,1.8-0.5,3.3-1.6,4.7l-0.5,0.5c-1.3,1.4-2.9,4.6-4.4,7.2c-2,3.5-16.3,5.2-24.3,4.6C142.1,463.5,141.9,463.5,141.7,463.5z"/>
</g>
<path class="st3" d="M223.6,128.5c-3.1,1.6-7.6,3.3-10.6,7.8s-9.2,13.4-6.2,24.6c3,11.1,10.9,19.2,12.4,20.1"/>
<g>
	<path d="M171.6,244.1c-0.2,0-5.5-0.5-9.5-3.1c-3-1.9-6.1-5.9-8.4-9.2c-0.4-0.5-0.7-1.1-1.1-1.5c-0.4-0.5-0.6-0.9-1-1.4
		c-1.1-1.5-2.5-3-4-4.5c-1.4-1.4-2.8-2.9-4-4.4c-0.4-0.2-0.8-0.4-1.2-0.6c-2.8-2.3-4.2-5.1-4.8-7c-0.3-0.8-1.4-2-2-2.6
		c-0.7-0.7-1.3-1.3-0.7-2c0.5-0.7,1.3-0.4,1.7-0.1c1.7,0.5,15.7-6.5,21.8-11.6c5.8-4.9,8.6-11.9,8.6-13.8c0-1.5,1-1.6,1.3-1.6l0,0
		c1.4,0,2.9,2.6,3.1,3.6c0.1,0.1,0.2,0.2,0.4,0.4c0.7,0.6,2.1,1.9,3.6,5.3c0.3,0.6,0.5,1.4,0.7,2.2c1.1-0.3,2.6,0.1,3.9,0.7
		c0.6-2.1,1.5-3.3,2.1-3.7c0,0,0.1,0,0.1-0.1c-0.1-1.3-0.2-2-0.3-2.5c-0.2-1.4-0.2-1.8,0.5-4.2c0.7-2.7,2.9-7.3,4.2-10
		c0.4-0.8,0.7-1.4,0.8-1.8c0.7-1.7,8.7-15.5,13.2-18.7l0.3-0.2c1.7-4.9,5.2-8.7,8.7-11l1,1.4c-4.2,2.9-8.4,8.1-9.1,14.7
		c-0.1,1.1,0,2,0,2.9c0.1,1,0.3,2,0.5,3c0.2,0.6,0.3,1.3-0.3,1.6l-0.5,0.4l-0.5-0.4c-0.5-0.4-1-2.2-1.1-4.9c-0.1-1,0-2,0-3
		c0-0.5,0.1-1,0.1-1.5c-4.3,4.6-10.3,15-10.9,16.4c-0.2,0.4-0.5,1-0.9,1.9c-1.3,2.7-3.4,7.2-4.1,9.8c-0.5,2.1-0.5,2.3-0.4,3.4
		c0.1,0.6,0.2,1.5,0.3,3c0,0.2,0,0.3,0,0.5c0,0.1,0,0.1,0,0.2c0,0.5,0.1,0.8,0.2,1.4c0.5,2.9,2.2,9.4,5.2,14.7c0,0,3.1,3.2,2.3,3.9
		s-3.9-2.5-3.9-2.5c-2.7-3.2-4.6-10.6-5.3-15.6l0,0c-0.7,1.4-1.6,4.3-1.4,8.9c0.1,1.6,1,5.8,1.3,8.2c0.1,0.7-1.9-1.3-2.2-1.9
		c-1-1.9-0.7-4-0.8-5.7c-0.3-2.8-0.1-4.8,0.3-6.4c-1.3-0.7-2.6-0.8-3-0.7c0,0.1,0,0.2-0.1,0.4c0.5,5.3-1.3,14.8-4.9,17.8
		c-0.6,0.5,0.1-2.6,0.4-3.4c1.9-5.1,2.6-10,2.7-13c0-0.5,0-1,0.1-1.4c-0.2-1.4-0.5-2.5-0.9-3.5c-1.4-3.1-2.5-4.1-3.2-4.7
		c-0.5-0.5-0.9-0.8-0.9-1.5c-0.1-0.3-0.4-0.8-0.8-1.4c-0.5,3.1-3.3,10.6-8.9,15.3c-4.7,4-17,10.1-22.2,11c0.6,0.7,1.4,1.6,1.6,2.4
		c0.5,1.7,1.7,4.1,4.3,6.2c0.2,0.2,0.5,0.3,0.7,0.4c0.9,0,1.6,0,2.4,0c0.6-0.1,1.3-0.3,1.9-0.4c1.8-0.4,3.4-0.7,4.6-0.1l2.6,1.4
		l-3,0.2c-0.5,0-1.1,0.1-1.7,0.2c-1.2,0.2-2.5,0.4-4.3,0.4c-0.3,0-0.5,0.1-0.7,0.1c0.8,1,1.8,2,2.8,2.9c1.4,1.5,3,3.1,4.2,4.7
		c0.3,0.5,0.6,0.9,1,1.4c0.4,0.5,0.7,1,1.1,1.5c2.3,3.2,5.2,7,7.9,8.7c3.6,2.3,8.6,2.8,8.7,2.8L171.6,244.1z"/>
</g>
<path class="st3" d="M183.1,231.3c-9.8-0.7-12.2-7.4-11.9-6.5c0.4,0.9-11.9,5.9-16.8,6.5"/>
<path class="st2" d="M144.9,150.5c-0.2-1.2-2.3-8,0-9.7c2.3-1.7,8.8-4.9,10.1-7.4c1.4-2.5,2.5-7.6-3.1-6.8
	c-5.6,0.8-12.9,9.3-14.8,9.3s-5.9-3.8-7.9-18.2c-2-14.4-2.9-13.9-5.2-13s-3.4,2.4-2.9,8.8c0.5,6.4,1.8,13.1,2.4,13.7
	c0.6,0.5,3.3,3.6,1.2,4.5c-1,0.5-0.4,3-8.1-9.7c-6.2-10-7.2-13.5-8.5-14.5c-1.3-1.1-5.4-0.6-5,2.9c0.5,3.4,6,15.7,7.3,17.6
	c1.4,2,4.8,2.3,5.3,3c0.2,0.3,4.8,2.2,2.9,6.8c-1.2,5.3-5.4,2.4-5.7,3.4c-1.4,5.2-2.3,9.7-0.7,12c3,4.5,5.3,5.9,5.2,6.8
	s1.6,3.8,1.6,3.8s6.4,2.4,16.1-4.2c9.7-6.5,10.2-8.5,10.2-8.5L144.9,150.5z"/>
<path class="st3" d="M176.6,229.6c-0.7,1.1-8.9,11.4-14.1,10.6"/>
<path class="st8" d="M102.5,138.2c-0.7-0.3-3.8,1.8-3.6,4.4c0.2,2.6,1.9,7,10.4,9.1s8.7-5.1,8.1-6.6c-0.6-1.5-1.7-2.9-3.7-3.5
	C111.6,141,105.4,139.4,102.5,138.2z"/>
<path class="st3" d="M104.3,149.9c0.7,1.4,3.9,5.2,7.1,8.6c3.2,3.3,5.2,5.2,5.4,6.2"/>
<path class="st9" d="M134.3,140.3c-0.9,4.1,0.2,4.3-3.8,6.3c-3.9,2.1-10.8,3.2-12.9,5.5"/>
<path class="st9" d="M127,140.3c-3.4,3.3-5.2,3.6-5.7,3.9"/>
<g>
	<path d="M70.3,298.4c-0.1,0-0.3,0-0.4,0c-2.4-0.4-19.6-13.5-20.3-17l1.9-1.4c0.2,0.9,2.8,5,8.6,9.6c4.9,4,9,6.6,9.9,6.9
		c0-0.3-1.3-4.3-0.9-5.7c0.7-2.6,6.3-14.8,7.9-16.6c0.8-0.9,8.5-3.8,11.9-5.9c3.3-2.1,5.8-4.9,7.1-5.6c2.7-1.6,15.7-3.2,21.5,2.2
		c0.7,0.6,1.3,1.1,1.8,1.1c0.9,0,1.8-0.9,2.7-1.8c0.3-0.3,0.5-0.5,0.8-0.7c1.4-1.3,3.1-5.8,5-13.3c1.6-6.2-1.4-20.2-2.4-22.7
		l1.7-0.6c1.1,2.7,4.2,17.1,2.4,23.8c-2.1,8.1-3.8,12.6-5.5,14.2c-0.3,0.2-0.5,0.5-0.7,0.7c-1.1,1.1-2.4,2.4-4,2.4
		c-1.1,0-2.1-0.6-3.1-1.7c-2.5-2.8-17.1-3-19.2-1.8c-1.3,0.7-4.1,3.6-7.4,5.8c-3.4,2.2-10.5,4.7-11.1,5.3c-1.2,1.3-6,13.4-6.7,16.4
		c-0.3,1.1,0.5,5.4-0.2,6.2C71.1,298.2,70.7,298.4,70.3,298.4z"/>
</g>
<g>
	<path class="st0" d="M89.8,218.1c8.7,4.9,14.5,28.9,10.1,37.7"/>
	<path d="M100.7,256.1c0,0-0.7,0.4-1.1,0.3c-0.5-0.2-0.5-1.1-0.5-1.1c4.4-8.9-1.8-32-9.8-36.5l0.9-1.5
		C99.6,222.6,105.1,247.3,100.7,256.1z"/>
</g>
<g>
	<path class="st0" d="M60,235.8c-1.9,21.5,7.2,24.5,10.8,29.6"/>
	<path d="M70,265.9c-0.7-0.9-1.6-1.9-2.6-2.8c-4.2-4.2-9.9-9.9-8.3-27.3l1.8,0.2c-1.5,16.7,3.6,21.8,7.8,25.9c1,1,2,2,2.8,3.1
		c0,0,0.3,1.3,0,1.5C71.1,266.6,70,265.9,70,265.9z"/>
</g>
<g>
	<path class="st0" d="M137.8,299.4c7.3,2.1,16.6,5.3,20.8,12.2c4.3,7,3.8,13.6,4,14.5c0.2,0.9-1.3-2.1-10.7,0
		c-9.4,2.1-21.1,6.6-25.6,9.7c-4.5,3-6.6,4.3-8.1,9.1c-1.5,4.8-2.2,21.7-1.4,23.8c0.8,2.1,1.1,7.2,2,10.6s4.3,5.4,1.5,7.2
		s-5.2,2.4-11.1,1.8c-6.1-0.6-13.5-3.8-15.7-4.3"/>
	<path d="M114.1,390.3c-1.2,0-4.6,0.2-6.2,0c-4.3-0.5-12-1.8-14.7-5.3l0.4-1.8c0.7,0.2,1.9,0.5,3.3,1.1c3.3,1.1,8.1,2.8,12.2,3.2
		c6,0.6,8.1,0,10.6-1.6c0.9-0.6,0.9-1-0.3-2.9c-0.5-0.9-1.3-2-1.5-3.3c-0.5-1.6-0.7-3.7-1-5.6c-0.3-2-0.5-3.8-0.9-4.9
		c-0.9-2.4-0.8-19.7,0.7-24.5c1.5-4.9,4.4-6.2,8.5-9l0.6-0.5c4.8-3.3,16.3-8.3,25.5-10.4c5.3-1.2,8.7-0.2,10.2,0.3
		c-0.1-2.4-0.5-7.5-3.8-12.9c-3.9-6.4-14.8-9.1-22.6-11.3l2.8-2.3c8.1,2.4,17.1,5.7,21.3,12.7c3.6,5.9,3.9,11.5,4.1,13.9
		c0,0.4,0,0.7,0.1,0.8c0.2,0.5-0.1,0.9-0.3,1.1c-0.5,0.4-1,0.2-1.3,0c-2.1-1-5.3-1-9.8,0c-8.9,2-20.7,6.4-25.3,9.5l-0.6,0.5
		c-4,2.6-5.8,3.9-7.2,8.1c-1.4,4.7-2.1,21.5-1.4,23.3c0.5,1.2,0.7,3.2,1,5.2c0.3,1.9,0.5,3.9,1,5.4c0.3,1.1,0.8,2,1.4,2.8
		c1,1.6,2.3,3.7-0.3,5.4C118.4,388.7,117.3,390.3,114.1,390.3z"/>
</g>
<path class="st2" d="M120.6,165.9c1.9,3.1,3.3,3.8,3.5,6.3c0.3,2.6,1.3,4.1,4,10.8c2.7,6.6,5.7,10,6.2,12.9c0.5,2.9,0.7,5.3,1.4,6.7
	c0.6,1.4,1.2,3.6,2.1,4.2c0.9,0.5,1.5,0.7,6.3-1.8c4.8-2.5,12.9-6.6,16-10.4c3.2-3.8,5.9-7.2,6.9-11.5c0.8-3.4-2.6-6.6-4.4-8.5
	c-1.5-1.6-4-3.6-4.4-4.3c-0.4-0.6-1.9-4.2-3.7-6.2c-1.4-1.6-3.7-3.7-4.7-4.9c-0.9-1.2-2-3.3-2.4-5c-0.4-1.7-1.4-2.1-2.4-0.7
	c-1,1.4-2.7,2.7-6.5,5.2c-3.8,2.4-11.9,7-14.4,6.8C121.8,165,120.6,165.9,120.6,165.9z"/>
<g>
	<path class="st0" d="M94.6,319.7c11.1-2.8,20.3-3.7,25.8,7.7"/>
	<path d="M119.7,327.7c-5.4-11-14.4-9.8-24.8-7.2l-0.5-1.7c10.1-4.6,20.9-4.1,26.9,8.1c0,0,0.1,1.4-0.2,1.5
		C120.8,328.6,119.7,327.7,119.7,327.7z"/>
</g>
<g>
	<path class="st0" d="M82.8,358.2c9.1,8.3,20.9,3.5,23,2"/>
	<path d="M94.7,364.2c-7.3-0.2-8.4-1.5-12.6-5.2l1.2-3.2c8.8,8.1,20.2,5,21.9,3.8c0,0,1.7-0.5,2-0.1c0.2,0.4-0.9,1.5-0.9,1.5
		C105.2,361.8,100.2,364.2,94.7,364.2z"/>
</g>
<path class="st10" d="M317.1,80.2c-1.5-3.5,19.5-3.4,20.4-3.4c0.9,0,5.7,24.1,1.5,33.2c-4,4.1-16.7,3.3-17.5,3.4
	C320.8,113.6,320.5,88,317.1,80.2z"/>
<path class="st10" d="M337.5,76.7c1.7,0.5-5.4-3.6-6.3-3.6c-0.9,0-18.6,3.4-17.6,3.6c0.9,0.2,2.4,2.7,3.5,3.1
	C323.3,77.2,335,76,337.5,76.7z"/>
<path class="st10" d="M313.5,76.7c0.2,0.8,2.1,10,3.2,18.9c0.8,6.8,0.9,13.6,0.9,16.1c2.9,2.1,4.2,1.7,4.2,1.7s-1.8-29.1-4.6-33
	C314.3,76.5,313.5,76.7,313.5,76.7z"/>
<path class="st1" d="M224.8,146c1.3,5.5,2,11.7,6.5,16.5s32.6,13.1,33.9,13.8c10.1,5.2,9.5,16,9.2,19.2s-12.4,41.1-18.7,43.6
	c-6.3,2.4-38.3-6.2-41.9-9.6c-3.6-3.3-10.8-6.4-10.7-15.4c0-2.4,0.7-6.4,0.7-6.4s35.6,12.8,39.9,13.2c4.3,0.5,16.3-26.9,18.8-31.5
	c2.5-4.6-11.5-14.2-13.8-15.7c-2.4-1.5-24.3-9.2-26-11c0.2-2.2,1.1-9.9,1.7-13.1C224.4,148,224.8,146,224.8,146z"/>
<g>
	<path class="st0" d="M219.3,162.5c0,0,37.7,13.4,41.7,14.5c4,1.1-15.3,36.7-17.3,39s-40.7-12.1-40.7-14.8S219.3,162.5,219.3,162.5z
		"/>
	<path d="M242.7,217.1c-2.2,0-7.2-1-19.1-5.3c-5.3-1.9-10.6-4.1-14.4-5.8c-6.5-3-7.2-4-7.1-4.9c1.8-10.7,13.7-33,16.4-39.1l0.4-0.7
		l0.8,0.3c0.4,0.1,37.7,13.4,41.6,14.5c0.5,0.2,0.9,0.5,1.1,1.1c0.3,0.8,1,3.3-7.7,20.8c-4.3,8.5-9.1,17.3-10.2,18.6
		C244.3,216.9,244,217.1,242.7,217.1z M204,201.1c2.4,3.1,35.8,15.3,39.1,14.3c1-1.3,5.6-9.4,10.1-18.5c7.7-15.4,7.6-18.5,7.4-19
		c-4.3-1.3-35.3-12.2-40.8-14.2C213.7,177.2,204.4,198.4,204,201.1z"/>
</g>
<g>
	<path class="st2" d="M261.6,177.7c-0.6-2.6,6.4,9.4,7.3,11.8c0.9,2.4-16.6,33.9-21.4,37.7c-3.8,3.1-38.9-11.4-40.3-12.6
		c-1.4-1.3-4.3-13.4-4.3-13.4s31.7,14.3,36.9,13.6C245.2,214,262.6,181.6,261.6,177.7z"/>
	<path d="M245.8,228.5c-2.5,0-9.1-0.4-20.8-4.5c-8.3-3-17.3-7.9-18.3-8.8c-1.4-1.4-3.6-10-4.3-13l-0.2-1l1.3-0.9
		c12.7,5.7,32.8,13.9,36.4,13.5c0.3,0,2-0.5,6.4-7.1c8.2-11.9,14.9-27.2,14.5-29c-0.3-1.1,0.4-1.4,0.6-1.4c0.7-0.2,1.1-0.4,4.6,5.6
		c1.5,2.6,3.3,5.9,3.8,7.1c1.4,3.3-17.6,35.5-21.6,38.8C247.9,228.2,247.4,228.5,245.8,228.5z M204.4,202.8
		c1.3,5.2,2.8,10.4,3.5,11.1c0.8,0.6,9.7,4.4,19.2,7.8c17.4,6.2,19.7,4.9,19.9,4.8c1.9-1.5,6.9-9.1,12.3-18.7
		c5.5-9.8,8.8-16.8,8.8-18.1c-0.7-1.7-3.9-7.3-5.7-10c-1.4,6-9.2,20.5-14.6,28.2c-5.2,7.5-7.1,7.8-7.7,7.8
		C235.3,216.3,211.5,206,204.4,202.8z"/>
</g>
<path class="st8" d="M240.7,214.6c0,0,6.4,11.2,6.2,12.9"/>
<path class="st0" d="M135.9,231.8c3.5-1.7,11-1.1,19.6,2.9c13.6,6.2,25.8,6.2,36.5-0.1c12.6-7.4,18.1-21.2,18.3-23.1
	c0,0,0.9-0.7,2.7-0.5c1.6,0.2,2.7,1.1,2.7,1.1c-0.1,3.5-6.5,18.2-20.4,26.7c-8.5,5.2-22.8,9.6-42.1,0.7c-7.1-3.3-9.1-6.1-12.3-4.5
	C141.1,235,135.8,233.3,135.9,231.8z"/>
<path d="M135.2,231.2c5-2.4,11.8-1.5,20.8,2.6c13.3,6.2,25.3,6.2,35.7,0c12.1-7.2,17.7-20.5,17.8-22.4v-0.5l0.4-0.3
	c0.1-0.1,1.3-0.9,3.3-0.6c1.9,0.2,3.2,1.3,3.2,1.4l0.4,0.3v0.5c-0.1,2.1-1.9,6.8-5.2,11.9c-2.9,4.5-7.3,11.3-14.9,16.1
	c-8.7,5.3-21.5,10.1-41.3,1c-6.7-3.1-10-6.8-12.9-5.4l-1.4-0.8c3.4-1.6,5.3,0.4,12.7,3.7c19,8.8,32.9,4.5,41.3-0.6
	c13-8,19.3-21.5,19.8-25.5c-0.4-0.3-1.1-0.5-1.9-0.6c-0.9-0.1-1.4,0.1-1.8,0.2c-0.8,3.3-6.5,16.1-18.6,23.3
	c-11,6.4-23.4,6.5-37.3,0.1c-8.5-3.9-14.8-4.8-19.3-2.6L135.2,231.2z"/>
<circle class="st8" cx="226.9" cy="175.5" r="4.3"/>
<circle class="st8" cx="236.6" cy="180" r="2.9"/>
<g>
	<path d="M382.7,191.8l-0.8-1.4c0.4-1.1,1.4-3.3,2-4.3c1.1-1.8,2.4-4.2,3.6-9c0.8-3.1,1.1-4.4,1.4-5.9c0.5-2.3,1-4.9,3.4-13.9
		c4.2-15.5,8.5-53.8,6.8-59.4c-1-3.2-17.3-6.3-28.9-9.8c-8.1-2.4-15.4-6.2-18.9-8.1l0.8-1.6c3.3,1.7,10.9,4,18.9,6.3
		c17.2,5.1,28.6,8.7,29.8,12.5c2,6.4-2.8,45.6-6.8,60.4c-2.4,9.1-2.9,11.6-3.3,13.8c-0.3,1.5-0.5,2.9-1.4,6c-1.4,5-2.8,7.5-3.8,9.4
		C384.8,188,383,190.9,382.7,191.8z"/>
</g>
<g>
	<path class="st0" d="M408.5,85.3c9.1-8.6,16-10.8,14.8-12.2"/>
	<path d="M409.1,86.1c0,0-4.6,1.9-3.3,0c4-5.7,11-8.6,13.7-10.4c1.4-0.9,2.8-1.9,3-2.3c0,0.1,0,0.3,0.1,0.4l1.4-1.2
		c0.3,0.4,0.4,0.7,0.3,1.1c-0.2,1-1.3,1.8-3.8,3.4C417.9,78.9,413.9,81.6,409.1,86.1z"/>
</g>
<g>
	<path d="M388,232.8l-0.7-3.4c0.9-2.4,1.4-3.6,2.5-6.9c3.8-10.7,9.1-25.3,15.7-36c4.9-8,4.3-11.2,3.6-14.9c-0.5-2.7-1-5.8,0.3-10.8
		c1.9-7.2,2.4-23.5,2.7-38c0.2-9,0.2-16.8,0.9-20.8c0.2-0.8,2-3.3,2.4-2.5c1.4,2.9-1.3,14.5-1.4,23.4c-0.4,14.5-0.7,31-2.7,38.4
		c-1.3,4.6-0.7,7.3-0.3,10c0.7,4,2.1,7.8-3.2,16.3c-6.5,10.6-12.5,25-16.3,35.6C390.2,226.4,388.9,230.4,388,232.8z"/>
</g>
<g>
	<path class="st6" d="M181.9,369.9c28.9,21.4,53.3,21.4,57.7,21.4s30.5-3.8,36.4-5.6c0,0-14.9,1.7-18.1-1.2
		c-3.2-2.9-11.9-12.7-14.3-14.8c-2.4-2.2-14.6-13.1-14.6-13.1s-7.2-0.2-10.4,1.7c-3.2,1.9-9.1,5.6-11.5,6.2c-2.4,0.5-5.7,0.4-9,0.9
		C194.9,365.7,181.9,369.9,181.9,369.9z"/>
	<path d="M239.5,392.2c-10.9,0-37.4-2.5-58.2-21.5l-1.4-1.1l1.7-0.5c0.5-0.2,13-4.2,16.3-4.7c1.5-0.3,3.1-0.4,4.6-0.5
		c1.6-0.1,3.1-0.2,4.3-0.5c1.9-0.5,6.5-3.2,9.6-5.1c0.6-0.4,1.2-0.7,1.6-1c3.3-2,10.6-1.8,10.9-1.8h0.4l0.3,0.2
		c0,0,12.2,11,14.6,13.1c1.1,1,3.5,3.6,6.2,6.4c3,3.3,6.4,6.9,8.1,8.4c2.1,1.9,11.8,1.5,17.4,0.9l0.4,1.8
		C270.1,388.5,244,392.2,239.5,392.2z M183.9,370.3c25.3,18.2,47.2,18.3,55.6,18.3c2.8,0,13.5,0.2,23.3-1.5
		c-3.3-0.2-4.2-0.6-5.5-1.8c-1.7-1.5-5.1-5.1-8.2-8.5c-2.5-2.7-5-5.3-6.1-6.3c-2.2-2-12.6-11.3-14.4-12.9c-1.4,0-7.1,0.1-9.6,1.5
		c-0.5,0.3-1,0.6-1.6,1c-3.5,2.2-8,4.8-10.1,5.2c-1.4,0.3-2.9,0.4-4.5,0.5c-1.4,0.1-3,0.2-4.4,0.5
		C195.8,366.6,187.5,369.1,183.9,370.3z"/>
</g>
<path class="st11" d="M218.4,279.4c10,9.8,32.5,53.9,39.2,64.6c0.4-8.8-26.8-53.3-30.5-58.6c-3.7-5.2-14.4-12.9-14.4-13.8
	c0-0.9-35.1-28.6-36.1-26.9c-1,1.7-4.6,1.1-3.1,1.6C175.1,246.8,180.7,249.3,218.4,279.4z"/>
<g>
	<path class="st0" d="M176.6,244.7c-10.2-3.1,40.6,23.5,50.5,40.7c9.9,17.2,29.5,47.8,30.7,53.9c1.2,6.1,3,4.7,6.3,1.4
		s-1.8-18.1-9.1-32s-17.1-33.1-26.2-42.4s-35.8-26.1-35.8-26.1S181.9,246.3,176.6,244.7z"/>
	<path d="M259.6,344.8c-1.2,0.3-2.3-0.4-2.9-3.4c-0.7-4-10.5-21.2-19.2-35.5c-4.3-7.1-8.8-14.1-11.9-19.6
		c-6.2-10.8-30-26.7-42.5-34.8c-9.8-6.3-9.9-7.2-8.7-7.4c0.8-0.2,1.6-0.5,2.4-0.4l0,0c4,1.2,12.7-2.8,15.7-4.4l0.5-0.3l0.5,0.3
		c1.1,0.7,27.2,16.1,36.3,25.4c8.7,8.9,17.5,27,24.7,40.8l1.4,2.5c6.6,12.7,12.9,28.9,8.9,32.9C263,343,260.8,344.6,259.6,344.8z
		 M178.3,245.8c1.7,1.2,4.3,2.9,7.1,4.6c13.6,8.7,36.2,23.4,42.6,34.5c3.1,5.4,7.2,12.1,11.4,19.1c9.5,15.7,18.6,30.7,19.4,35
		c0.5,3,1.2,3.4,1.4,3.4c0.6,0.2,2.5-1.6,3.4-2.5c2.3-2.3-0.3-13.8-9.2-30.9l-1.4-2.5c-7.2-13.8-16.2-31-24.7-39.7
		c-8.3-8.5-31.7-23.4-35.2-25.6C191.1,242.3,183.4,246,178.3,245.8z"/>
</g>
<g>
	<path class="st0" d="M206.9,243.3c-5,2.5-17.8,13.4-18.7,15.6c-0.9,2.1,14.8,12,18.7,14.8c3.9,2.7,21.7-15,20.1-16.7
		C225.2,255.1,206.9,243.3,206.9,243.3z"/>
	<path d="M207.8,274.8c-0.5,0-1.1-0.1-1.4-0.5c-0.6-0.5-2.2-0.6-3.3-1.4c-3.6-2.4-6.2-4.2-8.4-5.9c-6.2-4.5-7.9-7.2-7.3-8.7
		c1.1-2.4,11.9-13.3,19.1-16l0.5-0.3l0.5,0.3c5.8,2.4,17.6,9.8,20.3,13.7c0.5,0.8,0.8,1.9-2.7,6.1
		C221.6,266,212.5,274.8,207.8,274.8z M189,259.1c0.7,2,11.9,9.5,15.7,12c1.1,0.7,2,1.4,2.6,1.7c0.2,0.1,0.8,0.4,2.9-0.6
		c6.2-3.1,15.3-12.9,15.8-14.9c-1.7-1.5-12.2-8.4-19.3-12.9C201.5,247.3,190.2,257.1,189,259.1z"/>
</g>
<path class="st3" d="M147.3,151.2c0-2.4-1.2-7,0-9c1.2-2,3.1-3.5,4.7-5c1.6-1.4,8.3-5.9,6-9.9c-2.6-4.4-8.8-2.2-13.3,1.1
	c-4.5,3.3-7.6,6.4-8.3,5.7c-0.7-0.7-2.7-5.1-3.4-9.1c-0.5-3.2-2.8-16.3-3.3-18.8c-0.8-4-5.2-5.5-8.1-3.3c-2.9,2.2-2.7,7.2-2.4,9
	c0.3,2,1.8,13.8,1.8,13.8s2.6,3.7,3.1,4.7c0.5,1-6.3-9.8-8.9-15.4c-2.5-5.6-5.3-8.5-6.3-9.4c-1.4-1.4-6-0.9-6.9,2.4
	c-0.9,3.4,0.5,8.1,1.2,9.6c1.1,2.6,4.5,9.1,4.8,9.4c0.3,0.4,1.6,0.3,4.3,2c2.8,1.7,5.2,2.7,6,3.7c1.1,1.4,0.7,5.3-0.1,6.7
	c-0.8,1.4-1.4,2.7-6,1.7c-4.6-1-8-1.7-10.5-3.3c-2.5-1.6-3.3-3.8-3.3-4.7c0.1-0.7,0.3-6.1,3.7-6.4c3.4-0.4,4.7,0.2,5.8,0.5"/>
<path class="st1" d="M161.7,290.7"/>
<path class="st6" d="M62.8,370.1c5.2,6.1,21.2,13.6,28.6,12.5c5.6,9.8,13,22.3,13,22.3c-0.8,0.3-2.5,0.5-6.9,0.5
	c-6.5,0-19.4-2.6-21-3.4c-3.9,0.3-24.9,0.3-35.1-3.2c-10.3-3.5-17.9-9.2-18.6-11.3c-0.7-2.1,4.8-14,15.7-8.4s16.3,2.7,19,0.7
	C60.2,377.8,62.8,370.1,62.8,370.1z"/>
<g>
	<path d="M137.3,209.3c-1.9,0-4.3-0.5-5.5-1.7c-0.7-0.7-1.1-2.1-1.6-4.3c-0.3-1.1-0.6-2.4-1-3.8c-0.7-2.4-2.3-5-3.8-7.5
		c-1.1-1.9-2.2-3.6-2.9-5.2c-1.1-2.6-1.5-7.3-1.8-10.5c-0.1-1.2-0.3-2.5-0.4-2.8c-0.2-0.5-0.4-0.7-0.6-1.1c-0.4-0.5-0.7-0.9-1-1.6
		c-0.2-0.5-0.6-1.4-1.2-2.2c-1.4-2.6-1.9-3.4-1.6-4.2c0.4-1,1.4-0.8,2.3-0.6c1,0.2,2.6,0.5,5.2,0.4c4.4-0.2,18.8-8.9,19.9-10.4
		c0.6-0.9,2.7-3.7,4.7-3.3c1.3,0.2,1.6,1.5,1.9,2.4c0.1,0.4,0.2,0.8,0.4,1.1c0.1,0.2,0.2,0.5,0.4,0.7c0.4,0.9,0.8,1.7,1.4,2.3
		c0.9,0.8,3,3,3.4,3.6c0.1,0.1,0.2,0.2,0.4,0.4c1.1,1.1,3.3,3.4,3.5,5.7c0.1,0.1,0.1,0.1,0.2,0.2c0.2,0.2,0.5,0.5,0.9,0.9
		c1.3,1.1,8.4,8.1,9.1,13.6l-1.8,0.2c-0.5-4.4-6.8-11-8.4-12.4c-0.1-0.1-0.2-0.2-0.3-0.2c-1.8,5.3-6.1,9.1-9.6,11.3
		c-1.8,1.4-3.4,2.3-4.3,2.3l-3.6-0.2l3.3-1.5c1-0.5,2.4-1.2,3.9-2.2c3.3-2.7,7.8-7.2,8.3-9.7c0.1-0.4,0.2-0.7,0.2-1
		c0.1-0.5,0.2-0.8,0.4-1.1c-0.3-1.7-2.4-3.8-3.1-4.5c-0.2-0.2-0.4-0.4-0.5-0.5c-0.5-0.6-2.5-2.7-3.3-3.4c-0.8-0.7-1.3-1.8-1.7-2.8
		c-0.1-0.2-0.2-0.5-0.3-0.6c-0.2-0.5-0.4-1-0.5-1.4c-0.1-0.4-0.3-1.1-0.5-1.2c-0.4-0.1-1.6,0.8-2.9,2.6
		c-1.2,1.6-12.1,10.4-21.3,11.1c-2.7,0.2-4.4-0.2-5.5-0.4c0.4,0.6,0.8,1.5,1.2,2.2c0.5,1,1.1,1.9,1.3,2.4c0.2,0.5,0.5,0.8,0.7,1.2
		c0.4,0.5,0.7,0.9,1,1.6c0.2,0.5,0.3,1.4,0.5,3.2c0.3,3,0.7,7.6,1.7,10c0.6,1.4,1.7,3.2,2.8,5c1.6,2.6,3.3,5.3,4,8
		c0.5,1.4,0.8,2.8,1,3.9c0.5,1.7,0.8,3.2,1.2,3.6c0.6,0.7,2.5,1.2,4.4,1.2v1.8C137.5,209.3,137.4,209.3,137.3,209.3z"/>
</g>
<path class="st1" d="M233.1,293.7c0-3,2.2-13.3,7.6-9.5c4.7,7.2,13,24.3,14.5,26.6c1.4,2.4,10.2,23.4,9.1,27.3
	c0,1.9-3.4,4.7-4.2,4.3c-0.5-0.3-0.5-0.3-0.7-1.1c-0.7-2.1-1.7-5.8-4.4-11C250.8,323.1,234,295.1,233.1,293.7"/>
<path class="st1" d="M255.7,311.9c3,5.2,9.7,22,8.5,26.3c0,1.9-3.4,4.7-4.2,4.3"/>
<path class="st1" d="M329.3,346.5c-0.5,2.3-0.1,6.5-1.9,10.6s-5,8.1-5.5,10.1c-0.5,2.1-0.2,5.2,1.1,8.1s1.6,6.3-1.4,6.4
	c-3,0.2-8.1-2.8-9.2-8.5c-1.1-5.7,0-9,0-9s-1.6-1.5-1.8-0.3c-0.2,1.3-0.8,10,1,13.3s-5.6,6.1-6.8,2.4s-3.3-11.6-3.2-13.2
	s-2.6-1.4-2.6,0c0,1.4-0.6,8,0.5,11.1c1.2,3.1-6.9,3.2-7.5,0.9c-0.6-2.3,0.4-13.1,0.8-14.3c0.5-1.2-2.6-1.5-3.7,0.4
	c-1.1,1.9-1.2,8.9-1,10.7c0.2,1.8-8.2-1.4-7.7-7c0.5-5.6,7.7-12.7,8.1-13.3c0.5-0.6,1-2.6,1.6-3.5c0.6-0.9,3.5-2.8,5-3.7
	c1.4-0.9,4.2-4.2,4.5-5.1c0.4-0.9,0.7-1.4,1.4-2.2c0.7-0.8,3.5-4.2,3.9-4.9c0.4-0.7,1.4-2,2.8-1.1
	C309,335.3,329.3,346.5,329.3,346.5z"/>
<circle class="st0" cx="253.7" cy="83" r="2.4"/>
<circle class="st0" cx="275.6" cy="96.1" r="1"/>
<circle class="st0" cx="270.4" cy="78.3" r="1.4"/>
<circle class="st0" cx="249.9" cy="101.1" r="0.8"/>
<circle class="st0" cx="278" cy="111" r="2.4"/>
<circle class="st0" cx="232.5" cy="86.6" r="1.2"/>
<circle class="st0" cx="252.5" cy="121" r="1.2"/>
<circle class="st0" cx="295" cy="91.3" r="0.5"/>
<circle class="st0" cx="256.5" cy="49.8" r="0.5"/>
<circle class="st0" cx="232.8" cy="126.2" r="0.5"/>
<path class="st0" d="M278.1,136.3c0,0.3,0,0.5,0,0.5S278.1,136.6,278.1,136.3s0-0.5,0-0.5S278.1,135.9,278.1,136.3z"/>
<circle class="st0" cx="303.2" cy="107.7" r="1"/>
<circle class="st0" cx="236.6" cy="57.3" r="0.5"/>
<circle class="st0" cx="282.1" cy="62" r="1.7"/>
<path class="st0" d="M363.9,189.9l0.1,0.7c0.3,2.8-1.7,5.3-4.5,5.6l-6.4,0.7c-2.8,0.3-5.3-1.7-5.6-4.5L347,188
	c-0.3-2.8,1.7-5.3,4.5-5.6l6.4-0.7c2.8-0.3,5.3,1.7,5.6,4.5l0.1,0.7l-3.8,0.5l-0.1-0.7c-0.1-0.7-0.7-1.2-1.4-1.1l-6.4,0.7
	c-0.7,0.1-1.2,0.7-1.1,1.4l0.5,4.4c0.1,0.7,0.7,1.2,1.4,1.1l6.4-0.7c0.7-0.1,1.2-0.7,1.1-1.4l-0.1-0.7L363.9,189.9z M359.8,176.5
	l-11.4,1.3l0.4,3.3l11.4-1.3L359.8,176.5z"/>
</svg>
