<?xml version="1.0" encoding="UTF-8" standalone="no"?><!DOCTYPE svg PUBLIC "-//W3C//DTD SVG 1.1//EN" "http://www.w3.org/Graphics/SVG/1.1/DTD/svg11.dtd"><svg width="100%" height="100%" viewBox="0 0 1061 165" version="1.1" xmlns="http://www.w3.org/2000/svg" xmlns:xlink="http://www.w3.org/1999/xlink" xml:space="preserve" xmlns:serif="http://www.serif.com/" style="fill-rule:evenodd;clip-rule:evenodd;stroke-linejoin:round;stroke-miterlimit:2;"><g id="g34"><g id="g24"><path id="path4" d="M262.083,127.917c-9.166,8.333 -18.75,12.083 -30.833,12.083c-24.583,0 -42.5,-18.333 -42.5,-42.5c-0,-25.417 17.5,-43.333 42.5,-43.333c12.083,-0 21.667,4.166 32.083,13.333l-14.583,13.333c-5,-5 -10,-7.083 -16.667,-7.083c-12.083,0 -21.25,10 -21.25,22.917c0,13.75 9.167,23.75 22.084,23.75c5.833,-0 10,-1.667 15.416,-6.667l13.75,14.167Z" style="fill-rule:nonzero;"/><path id="path6" d="M354.583,97.917c0,23.75 -19.166,42.083 -43.75,42.083c-25.416,0 -43.333,-17.917 -43.333,-42.917c-0,-25.416 17.917,-42.916 43.75,-42.916c25,-0 43.333,18.333 43.333,43.75m-65,-0.834c0,13.75 8.75,23.334 21.667,23.334c12.5,-0 21.667,-9.584 21.667,-22.917c-0,-14.583 -8.334,-23.75 -21.25,-23.75c-13.334,0 -22.084,9.167 -22.084,23.333" style="fill-rule:nonzero;"/><path id="path8" d="M392.917,56.667l-0,10c5.833,-9.167 11.666,-12.5 21.666,-12.5c7.5,-0 15,2.916 19.584,7.5c5,5 7.083,11.666 7.083,24.583l-0,50.833l-22.083,0l-0,-49.583c-0,-4.583 -0.417,-7.083 -2.084,-9.167c-2.083,-3.333 -6.25,-5.416 -10.416,-5.416c-8.334,-0 -14.167,6.25 -14.167,15.833l-0,48.75l-22.083,0l-0,-80.833l22.5,-0Z" style="fill-rule:nonzero;"/><path id="path10" d="M486.25,137.083l-22.083,0l-0,-61.666l-8.75,-0l-0,-18.334l8.75,0l-0,-4.583c-0,-21.667 10.416,-31.667 32.5,-30.833l-0,20.416c-7.5,0.834 -10.417,3.75 -10.417,10.417l-0,4.583l10.417,0l-0,18.334l-10.417,-0l-0,61.666Z" style="fill-rule:nonzero;"/><path id="path12" d="M535.417,34.167c-0,6.666 -5,12.083 -12.084,12.083c-7.083,0 -12.5,-5 -12.5,-12.083c0,-7.084 5,-12.5 12.5,-12.5c7.084,-0 12.084,5.416 12.084,12.5m-1.25,102.916l-22.084,0l0,-80.416l22.084,-0l-0,80.416Z" style="fill-rule:nonzero;"/><path id="path14" d="M578.75,113.333c-0,3.75 1.25,5 6.25,5l3.75,0l-0,18.334l-17.5,-0c-10.833,-0.417 -14.583,-4.584 -14.583,-15.417l-0,-46.25l-9.167,0l-0,-18.333l9.167,-0l-0,-21.667l22.083,0l-0,21.667l10,-0l-0,18.333l-10,0l-0,38.333Z" style="fill-rule:nonzero;"/><path id="path16" d="M674.167,56.667l-0,50.833c-0,11.667 -2.5,18.333 -9.167,23.75c-6.25,5.417 -15.417,8.333 -25.833,8.333c-11.25,0 -20.417,-2.916 -26.667,-8.75c-5.833,-5 -8.333,-12.916 -8.333,-23.333l-0,-50.833l22.083,-0l-0,49.166c-0,9.167 5.417,15 13.333,15c8.334,0 12.917,-5 12.917,-13.75l-0,-50.416l21.667,-0Z" style="fill-rule:nonzero;"/><path id="path18" d="M716.25,56.667l-0,11.666c2.083,-5.833 3.75,-8.333 7.083,-10.833c3.334,-2.5 8.334,-3.75 12.917,-3.75l2.5,0l-0,22.5c-1.667,0 -3.333,-0.417 -4.583,-0.417c-6.25,0 -11.667,2.917 -14.584,7.084c-2.5,3.75 -3.333,7.083 -3.333,14.583l-0,38.75l-22.083,0l-0,-79.583l22.083,-0Z" style="fill-rule:nonzero;"/><path id="path20" d="M813.333,56.667l22.084,-0l-0,80l-22.084,-0l0,-10.834c-7.5,9.584 -16.25,13.75 -27.916,13.75c-22.5,0 -38.75,-17.5 -38.75,-42.083c-0,-25.417 17.083,-43.75 40.416,-43.75c10.834,0 18.334,3.75 26.25,12.917l0,-10Zm-42.916,40.833c-0,14.167 9.166,24.583 21.25,24.583c12.5,0 22.083,-11.25 22.083,-25.416c-0,-14.167 -9.167,-24.167 -22.083,-24.167c-12.5,0 -21.25,10.417 -21.25,25" style="fill-rule:nonzero;"/><path id="path22" d="M139.167,115.417l-0,6.25c-0,23.333 -19.167,42.5 -42.5,42.5l-54.167,-0c-23.333,-0 -42.5,-19.167 -42.5,-42.5l-0,-37.084c-0,-23.333 19.167,-42.5 42.5,-42.5l54.167,0c23.333,0 42.5,19.167 42.5,42.5l-0,6.25l-32.084,0l0,-6.25c0,-5.833 -4.583,-10.416 -10.416,-10.416l-54.167,-0c-5.833,-0 -10.417,4.583 -10.417,10.416l0,37.084c0,5.833 4.584,10.416 10.417,10.416l54.167,0c5.833,0 10.416,-4.583 10.416,-10.416l0,-6.25l32.084,-0Zm-21.25,-115.417l-96.667,0l-0,27.917l96.667,-0l-0,-27.917Z" style="fill:#ed363d;fill-rule:nonzero;"/></g><g id="g32"><path id="path26" d="M872.083,20l14.584,3.75l-9.584,36.667l-18.75,-5l13.75,-35.417Z" style="fill-rule:nonzero;"/><path id="path28" d="M967.083,117.083l0,19.167l-69.166,0l40,-60.833c8.75,-13.334 10.416,-17.084 10.416,-22.5c0,-7.5 -5.833,-12.5 -13.333,-12.5c-6.25,-0 -10.833,2.916 -12.917,7.916c-1.25,2.917 -1.666,5 -1.666,10.834l-20,-0c-0,-24.167 13.333,-38.75 36.25,-38.75c20,-0 34.166,12.5 34.166,30.416c0,10.417 -3.75,20 -14.166,35l-21.25,31.25l31.666,0Z" style="fill-rule:nonzero;"/></g><g transform="matrix(171.109,0,0,171.109,1063.29,134.003)"></g><text x="977.735px" y="134.003px" style="font-family:'NeuzeitGro-Bol', 'Neuzeit Grotesk';font-weight:700;font-size:171.109px;">3</text></g></svg>