<?xml version="1.0" encoding="utf-8"?>
<!-- Generator: Adobe Illustrator 24.0.1, SVG Export Plug-In . SVG Version: 6.00 Build 0)  -->
<svg version="1.1" id="Layer_1" xmlns="http://www.w3.org/2000/svg" xmlns:xlink="http://www.w3.org/1999/xlink" x="0px" y="0px"
	 viewBox="15.699997901916504 30.799999237060547 253.59999084472656 39.39999771118164" style="enable-background:new 0 0 285 101.1;" xml:space="preserve">
<style type="text/css">
	.st0{fill:#FFFFFF;}
	.st1{fill:#ED363D;}
</style>
<g>
	<g>
		<path class="st0" d="M78.6,61.5c-2.2,2-4.5,2.9-7.4,2.9C65.3,64.4,61,60,61,54.2c0-6.1,4.2-10.4,10.2-10.4c2.9,0,5.2,1,7.7,3.2
			l-3.5,3.2c-1.2-1.2-2.4-1.7-4-1.7c-2.9,0-5.1,2.4-5.1,5.5c0,3.3,2.2,5.7,5.3,5.7c1.4,0,2.4-0.4,3.7-1.6L78.6,61.5z"/>
		<path class="st0" d="M100.8,54.3c0,5.7-4.6,10.1-10.5,10.1c-6.1,0-10.4-4.3-10.4-10.3c0-6.1,4.3-10.3,10.5-10.3
			C96.4,43.8,100.8,48.2,100.8,54.3 M85.2,54.1c0,3.3,2.1,5.6,5.2,5.6c3,0,5.2-2.3,5.2-5.5c0-3.5-2-5.7-5.1-5.7
			C87.3,48.5,85.2,50.7,85.2,54.1"/>
		<path class="st0" d="M110,44.4v2.4c1.4-2.2,2.8-3,5.2-3c1.8,0,3.6,0.7,4.7,1.8c1.2,1.2,1.7,2.8,1.7,5.9v12.2h-5.3V51.8
			c0-1.1-0.1-1.7-0.5-2.2c-0.5-0.8-1.5-1.3-2.5-1.3c-2,0-3.4,1.5-3.4,3.8v11.7h-5.3V44.4H110z"/>
		<path class="st0" d="M132.4,63.7h-5.3V48.9H125v-4.4h2.1v-1.1c0-5.2,2.5-7.6,7.8-7.4v4.9c-1.8,0.2-2.5,0.9-2.5,2.5v1.1h2.5v4.4
			h-2.5V63.7z"/>
		<path class="st0" d="M144.2,39c0,1.6-1.2,2.9-2.9,2.9c-1.7,0-3-1.2-3-2.9c0-1.7,1.2-3,3-3C143,36,144.2,37.3,144.2,39 M143.9,63.7
			h-5.3V44.4h5.3V63.7z"/>
		<path class="st0" d="M154.6,58c0,0.9,0.3,1.2,1.5,1.2h0.9v4.4h-4.2c-2.6-0.1-3.5-1.1-3.5-3.7V48.8h-2.2v-4.4h2.2v-5.2h5.3v5.2h2.4
			v4.4h-2.4V58z"/>
		<path class="st0" d="M177.5,44.4v12.2c0,2.8-0.6,4.4-2.2,5.7c-1.5,1.3-3.7,2-6.2,2c-2.7,0-4.9-0.7-6.4-2.1c-1.4-1.2-2-3.1-2-5.6
			V44.4h5.3v11.8c0,2.2,1.3,3.6,3.2,3.6c2,0,3.1-1.2,3.1-3.3V44.4H177.5z"/>
		<path class="st0" d="M187.6,44.4v2.8c0.5-1.4,0.9-2,1.7-2.6c0.8-0.6,2-0.9,3.1-0.9c0.1,0,0.3,0,0.6,0v5.4c-0.4,0-0.8-0.1-1.1-0.1
			c-1.5,0-2.8,0.7-3.5,1.7c-0.6,0.9-0.8,1.7-0.8,3.5v9.3h-5.3V44.4H187.6z"/>
		<path class="st0" d="M210.9,44.4h5.3v19.2h-5.3V61c-1.8,2.3-3.9,3.3-6.7,3.3c-5.4,0-9.3-4.2-9.3-10.1c0-6.1,4.1-10.5,9.7-10.5
			c2.6,0,4.4,0.9,6.3,3.1V44.4z M200.6,54.2c0,3.4,2.2,5.9,5.1,5.9c3,0,5.3-2.7,5.3-6.1c0-3.4-2.2-5.8-5.3-5.8
			C202.7,48.2,200.6,50.7,200.6,54.2"/>
		<path class="st1" d="M49.1,58.5V60c0,5.6-4.6,10.2-10.2,10.2h-13c-5.6,0-10.2-4.6-10.2-10.2v-8.9c0-5.6,4.6-10.2,10.2-10.2h13
			c5.6,0,10.2,4.6,10.2,10.2v1.5h-7.7v-1.5c0-1.4-1.1-2.5-2.5-2.5h-13c-1.4,0-2.5,1.1-2.5,2.5V60c0,1.4,1.1,2.5,2.5,2.5h13
			c1.4,0,2.5-1.1,2.5-2.5v-1.5H49.1z M44,30.8H20.8v6.7H44V30.8z"/>
	</g>
	<g>
		<path class="st0" d="M225,35.6l3.5,0.9l-2.3,8.8l-4.5-1.2L225,35.6z"/>
		<path class="st0" d="M247.8,58.9v4.6h-16.6l9.6-14.6c2.1-3.2,2.5-4.1,2.5-5.4c0-1.8-1.4-3-3.2-3c-1.5,0-2.6,0.7-3.1,1.9
			c-0.3,0.7-0.4,1.2-0.4,2.6h-4.8c0-5.8,3.2-9.3,8.7-9.3c4.8,0,8.2,3,8.2,7.3c0,2.5-0.9,4.8-3.4,8.4l-5.1,7.5H247.8z"/>
		<path class="st0" d="M269.3,55.2c0,3.2-0.7,5.1-2.3,6.6c-1.5,1.4-3.6,2.2-6.2,2.2c-2.7,0-5.1-0.8-6.6-2.3
			c-1.5-1.5-2.1-3.5-2.1-7.7v-8.7c0-3.5,0.5-5.5,1.8-7c1.5-1.6,3.9-2.5,6.6-2.5c2.5,0,4.6,0.7,6.2,2.1c1.8,1.6,2.5,3.4,2.5,6.7V55.2
			z M257.5,54.6c0,2.2,0.1,2.7,0.6,3.3c0.5,0.8,1.6,1.3,2.7,1.3c1.1,0,2.2-0.5,2.7-1.4c0.4-0.7,0.6-1.5,0.6-3.3V45
			c0-1.8-0.2-2.6-0.8-3.3c-0.6-0.7-1.5-1-2.5-1c-1.2,0-2.3,0.5-2.7,1.4c-0.4,0.7-0.6,1.5-0.6,3.2V54.6z"/>
	</g>
</g>
</svg>
