<?xml version="1.0" encoding="utf-8"?>
<!-- Generator: Adobe Illustrator 23.0.1, SVG Export Plug-In . SVG Version: 6.00 Build 0)  -->
<svg version="1.1" id="Layer_1" xmlns="http://www.w3.org/2000/svg" xmlns:xlink="http://www.w3.org/1999/xlink" x="0px" y="0px"
	 viewBox="0 0 210 31" style="enable-background:new 0 0 210 31;" xml:space="preserve">
<style type="text/css">
	.st0{fill-rule:evenodd;clip-rule:evenodd;}
	.st1{fill:#ED1D46;}
</style>
<title>logo_dark-01 copy</title>
<desc>Created with Sketch.</desc>
<g id="Page-1">
	<g id="home" transform="translate(-57.000000, -34.000000)">
		
			<g id="logo_dark-01-copy" transform="translate(162.000000, 49.500000) rotate(-360.000000) translate(-162.000000, -49.500000) translate(57.000000, 34.000000)">
			<g id="Group">
				<path id="Path" class="st0" d="M52.8,24.1c-1.9,1.6-3.8,2.2-6.2,2.2c-4.9,0-8.5-3.4-8.5-8c0-4.7,3.5-8.1,8.6-8.1
					c2.4,0,4.4,0.8,6.5,2.5l-3,2.5c-1-0.9-2-1.3-3.3-1.3c-2.4,0-4.2,1.8-4.2,4.3c0,2.6,1.9,4.4,4.4,4.4c1.1,0,2-0.3,3.1-1.3
					L52.8,24.1z"/>
				<path id="Shape" d="M71.4,18.5c0,4.4-3.9,7.9-8.8,7.9c-5.1,0-8.7-3.3-8.7-8c0-4.8,3.6-8,8.8-8C67.7,10.3,71.4,13.7,71.4,18.5
					 M58.3,18.4c0,2.6,1.7,4.4,4.3,4.4c2.6,0,4.3-1.8,4.3-4.3c0-2.7-1.6-4.4-4.3-4.4C60,14,58.3,15.7,58.3,18.4"/>
				<path class="st0" d="M79.1,10.8v1.8c1.2-1.7,2.4-2.4,4.4-2.4c1.5,0,3,0.5,4,1.4c1.1,1,1.4,2.2,1.4,4.7v9.5h-4.4v-9.3
					c0-0.8-0.1-1.3-0.4-1.8c-0.4-0.6-1.2-1-2.1-1c-1.7,0-2.8,1.2-2.8,3v9.1h-4.4v-15H79.1z"/>
				<path class="st0" d="M97.9,25.9h-4.4V14.3h-1.8v-3.5h1.8V10c0-4,2.1-5.9,6.5-5.8V8c-1.5,0.1-2.1,0.7-2.1,2v0.8h2.1v3.5h-2.1
					L97.9,25.9L97.9,25.9z"/>
				<path d="M107.7,6.6c0,1.3-1.1,2.2-2.4,2.2c-1.4,0-2.5-1-2.5-2.3c0-1.3,1.1-2.3,2.5-2.3C106.6,4.2,107.7,5.2,107.7,6.6z
					 M107.4,25.9H103V10.8h4.4V25.9z"/>
				<path class="st0" d="M116.4,21.4c0,0.7,0.3,0.9,1.2,1h0.8v3.4h-3.5c-2.2-0.1-3-0.9-2.9-2.9v-8.8h-1.9v-3.5h1.9v-4h4.4v4h2v3.5
					h-2V21.4z"/>
				<path class="st0" d="M135.5,10.8v9.5c0,2.2-0.5,3.4-1.8,4.5c-1.3,1-3.1,1.6-5.2,1.6c-2.2,0-4.2-0.6-5.4-1.7
					c-1.1-1-1.7-2.4-1.7-4.4v-9.5h4.4v9.2c0,1.7,1.1,2.8,2.7,2.8c1.6,0,2.6-1,2.6-2.6v-9.5H135.5z"/>
				<path class="st0" d="M144,10.8V13c0.4-1.1,0.8-1.6,1.4-2c0.7-0.4,1.6-0.7,2.6-0.7c0.1,0,0.3,0,0.5,0v4.2c-0.4,0-0.7-0.1-0.9-0.1
					c-1.2,0-2.3,0.5-3,1.4c-0.5,0.7-0.7,1.3-0.7,2.8v7.2h-4.4V10.8H144z"/>
				<path d="M163.5,10.8h4.4v15h-4.4v-2.1c-1.5,1.8-3.2,2.6-5.6,2.6c-4.5,0-7.8-3.3-7.8-7.9c0-4.7,3.4-8.2,8.1-8.2
					c2.2,0,3.7,0.7,5.2,2.4V10.8z M154.9,18.5c0,2.6,1.9,4.6,4.2,4.6c2.5,0,4.4-2.1,4.4-4.7c0-2.7-1.8-4.5-4.4-4.5
					C156.7,13.8,154.9,15.7,154.9,18.5z"/>
				<path class="st1" d="M28.1,21.8V23c0,4.4-3.8,8-8.6,8H8.7c-4.7,0-8.6-3.6-8.6-8V16c0-4.4,3.8-8,8.6-8h10.9c4.7,0,8.6,3.6,8.6,8
					v1.2h-6.5V16c0-1.1-0.9-1.9-2.1-1.9H8.7c-1.1,0-2.1,0.9-2.1,1.9V23c0,1.1,0.9,1.9,2.1,1.9h10.9c1.1,0,2.1-0.9,2.1-1.9v-1.2H28.1
					z M23.8,0.2H4.4v5.2h19.4V0.2z"/>
			</g>
			<g transform="translate(173.000000, 4.000000)">
				<polygon class="st0" points="2.8,0.2 5.7,0.9 3.8,7.8 0.1,6.8 				"/>
				<polygon class="st0" points="9.6,8.2 9.6,4.4 18,0.2 18,21.9 13.7,21.9 13.7,6.1 				"/>
				<path d="M29.8,13.6c-0.5,0.1-0.7,0.1-1,0.1c-3.7,0-6.5-2.7-6.5-6.4c0-4,3.3-7,7.5-7c4.1,0,7.2,2.9,7.2,6.9c0,2-0.7,3.8-2.4,6.4
					L29,21.9h-4.8L29.8,13.6z M26.4,7.2c0,1.7,1.4,3.1,3.2,3.1c1.8,0,3.3-1.3,3.3-3c0-1.7-1.4-3.1-3.1-3.1
					C27.9,4.1,26.4,5.5,26.4,7.2z"/>
			</g>
		</g>
	</g>
</g>
</svg>
