<?xml version="1.0" encoding="UTF-8" standalone="no"?><!DOCTYPE svg PUBLIC "-//W3C//DTD SVG 1.1//EN" "http://www.w3.org/Graphics/SVG/1.1/DTD/svg11.dtd"><svg width="100%" height="100%" viewBox="0 0 4421 688" version="1.1" xmlns="http://www.w3.org/2000/svg" xmlns:xlink="http://www.w3.org/1999/xlink" xml:space="preserve" xmlns:serif="http://www.serif.com/" style="fill-rule:evenodd;clip-rule:evenodd;stroke-linejoin:round;stroke-miterlimit:2;"><g id="g34"><g id="g24"><path id="path4" d="M1092.01,532.988c-38.192,34.72 -78.125,50.345 -128.471,50.345c-102.429,0 -177.084,-76.387 -177.084,-177.083c0,-105.904 72.917,-180.554 177.084,-180.554c50.346,-0 90.279,17.358 133.679,55.554l-60.763,55.554c-20.833,-20.833 -41.666,-29.512 -69.445,-29.512c-50.346,-0 -88.542,41.666 -88.542,95.487c-0,57.292 38.196,98.958 92.017,98.958c24.304,0 41.666,-6.945 64.233,-27.779l57.292,59.029Z" style="fill-rule:nonzero;"/><path id="path6" d="M1477.43,407.988c0,98.958 -79.858,175.345 -182.291,175.345c-105.9,0 -180.555,-74.654 -180.555,-178.82c0,-105.9 74.655,-178.817 182.292,-178.817c104.167,-0 180.554,76.387 180.554,182.292m-270.833,-3.475c-0,57.291 36.458,97.225 90.279,97.225c52.083,-0 90.279,-39.934 90.279,-95.488c0,-60.762 -34.725,-98.958 -88.541,-98.958c-55.559,-0 -92.017,38.196 -92.017,97.221" style="fill-rule:nonzero;"/><path id="path8" d="M1637.15,236.113l0,41.666c24.304,-38.196 48.609,-52.083 90.275,-52.083c31.25,-0 62.5,12.15 81.6,31.25c20.833,20.833 29.513,48.608 29.513,102.429l-0,211.804l-92.013,0l0,-206.596c0,-19.095 -1.737,-29.512 -8.683,-38.195c-8.679,-13.888 -26.042,-22.567 -43.4,-22.567c-34.725,-0 -59.029,26.042 -59.029,65.971l-0,203.125l-92.013,-0l0,-336.804l93.75,-0Z" style="fill-rule:nonzero;"/><path id="path10" d="M2026.04,571.179l-92.013,0l0,-256.941l-36.458,-0l-0,-76.392l36.458,-0l0,-19.096c0,-90.279 43.4,-131.946 135.417,-128.471l-0,85.067c-31.25,3.475 -43.404,15.625 -43.404,43.404l-0,19.096l43.404,-0l-0,76.392l-43.404,-0l-0,256.941Z" style="fill-rule:nonzero;"/><path id="path12" d="M2230.9,142.363c0,27.775 -20.833,50.345 -50.35,50.345c-29.512,0 -52.083,-20.833 -52.083,-50.345c-0,-29.517 20.833,-52.084 52.083,-52.084c29.517,0 50.35,22.567 50.35,52.084m-5.208,428.816l-92.017,0l0,-335.067l92.017,0l-0,335.067Z" style="fill-rule:nonzero;"/><path id="path14" d="M2411.46,472.221c0,15.625 5.209,20.833 26.042,20.833l15.625,0l0,76.392l-72.917,-0c-45.137,-1.738 -60.762,-19.1 -60.762,-64.238l-0,-192.708l-38.196,0l0,-76.387l38.196,-0l-0,-90.28l92.012,0l0,90.28l41.667,-0l0,76.387l-41.667,0l0,159.721Z" style="fill-rule:nonzero;"/><path id="path16" d="M2809.03,236.113l0,211.804c0,48.612 -10.416,76.387 -38.196,98.958c-26.041,22.571 -64.237,34.721 -107.637,34.721c-46.875,-0 -85.071,-12.15 -111.113,-36.458c-24.304,-20.834 -34.72,-53.817 -34.72,-97.221l-0.001,-211.805l92.013,0l0,204.859c0,38.196 22.571,62.5 55.554,62.5c34.725,-0 53.821,-20.833 53.821,-57.292l0,-210.066l90.279,-0Z" style="fill-rule:nonzero;"/><path id="path18" d="M2984.38,236.113l0,48.608c8.679,-24.304 15.625,-34.721 29.513,-45.138c13.891,-10.416 34.724,-15.625 53.82,-15.625l10.417,0l0,93.75c-6.946,0 -13.887,-1.737 -19.096,-1.737c-26.041,-0 -48.612,12.154 -60.766,29.517c-10.417,15.625 -13.888,29.512 -13.888,60.762l0,161.458l-92.012,0l-0,-331.595l92.012,-0Z" style="fill-rule:nonzero;"/><path id="path20" d="M3388.89,236.113l92.016,-0l0,333.333l-92.016,-0l-0,-45.142c-31.25,39.934 -67.709,57.292 -116.317,57.292c-93.75,-0 -161.459,-72.917 -161.459,-175.346c0,-105.904 71.18,-182.292 168.4,-182.292c45.142,0 76.392,15.625 109.375,53.821l0,-41.666Zm-178.816,170.137c-0,59.029 38.191,102.429 88.541,102.429c52.084,0 92.013,-46.875 92.013,-105.9c-0,-59.029 -38.196,-100.696 -92.013,-100.696c-52.083,0 -88.541,43.405 -88.541,104.167" style="fill-rule:nonzero;"/><path id="path22" d="M579.863,480.904l-0,26.042c-0,97.221 -79.863,177.083 -177.084,177.083l-225.696,0c-97.221,0 -177.083,-79.862 -177.083,-177.083l-0,-154.517c-0,-97.221 79.862,-177.083 177.083,-177.083l225.696,-0c97.221,-0 177.084,79.862 177.084,177.083l-0,26.042l-133.684,-0l0,-26.042c0,-24.304 -19.096,-43.4 -43.4,-43.4l-225.696,0c-24.304,0 -43.404,19.096 -43.404,43.4l0,154.517c0,24.304 19.1,43.4 43.404,43.4l225.696,-0c24.304,-0 43.4,-19.096 43.4,-43.4l0,-26.042l133.683,0Zm-88.541,-480.904l-402.779,0l-0,116.321l402.779,-0l-0,-116.321Z" style="fill:#ed363d;fill-rule:nonzero;"/></g><g id="g32"><path id="path26" d="M3633.68,83.333l60.767,15.625l-39.933,152.78l-78.125,-20.834l57.291,-147.571Z" style="fill-rule:nonzero;"/><path id="path28" d="M4029.51,487.846l-0,79.862l-288.192,0l166.666,-253.47c36.459,-55.559 43.401,-71.184 43.401,-93.75c-0,-31.25 -24.305,-52.084 -55.555,-52.084c-26.041,0 -45.137,12.15 -53.82,32.984c-5.209,12.154 -6.942,20.833 -6.942,45.141l-83.334,0c0,-100.696 55.555,-161.458 151.042,-161.458c83.333,-0 142.358,52.083 142.358,126.733c0,43.404 -15.625,83.334 -59.025,145.834l-88.541,130.208l131.941,-0Z" style="fill-rule:nonzero;"/></g><path d="M4143.87,308.394l108.266,-145.167l-136.812,0l0,-77.979l289.29,-0l-131.59,177.542c31.331,2.321 57.556,12.533 78.675,30.635c32.26,27.385 48.389,64.983 48.389,112.791c0,49.202 -16.826,89.584 -50.477,121.147c-29.011,26.921 -64.867,40.382 -107.57,40.382c-38.526,0 -71.249,-10.676 -98.171,-32.027c-23.904,-19.031 -39.686,-44.212 -47.344,-75.543c-1.393,-5.57 -3.017,-15.897 -4.874,-30.982l82.157,-2.785c2.553,14.621 7.543,26.573 14.969,35.856c12.997,15.317 29.707,22.976 50.13,22.976c22.047,0 40.498,-8.123 55.351,-24.368c11.836,-12.997 17.754,-29.127 17.754,-48.389c0,-20.191 -6.15,-37.133 -18.45,-50.826c-13.925,-14.853 -32.143,-22.28 -54.655,-22.28c-16.246,-0 -30.751,4.177 -43.516,12.532l-51.522,-43.515Z" style="fill-rule:nonzero;"/></g></svg>