<?xml version="1.0" encoding="UTF-8"?>
<svg width="666px" height="443px" viewBox="0 0 666 443" version="1.1" xmlns="http://www.w3.org/2000/svg" xmlns:xlink="http://www.w3.org/1999/xlink">
    <!-- Generator: Sketch 52.5 (67469) - http://www.bohemiancoding.com/sketch -->
    <title>planety_faq</title>
    <desc>Created with Sketch.</desc>
    <defs>
        <linearGradient x1="25.0013609%" y1="6.69629536%" x2="75.0134073%" y2="93.3196825%" id="linearGradient-1">
            <stop stop-color="#F5515F" offset="0%"></stop>
            <stop stop-color="#ED1D46" offset="51.63%"></stop>
            <stop stop-color="#9F041B" offset="100%"></stop>
        </linearGradient>
    </defs>
    <g id="Page-1" stroke="none" stroke-width="1" fill="none" fill-rule="evenodd">
        <g id="faq" transform="translate(-634.000000, -131.000000)">
            <g id="home" transform="translate(-28.000000, -56.000000)">
                <g id="Path-Copy-2" transform="translate(662.000000, 187.000000)">
                    <g id="planety_faq">
                        <path d="M74.843513,65.3779547 C-59.9929925,163.462613 -12.1870507,300.26107 231.885787,262.461388 C475.958624,224.661707 574.073991,613.033445 603.406452,277.135245 C632.738912,-58.7629544 209.680018,-32.7067031 74.843513,65.3779547 Z" id="Path-Copy-2" stroke="#ED1F47" fill-rule="nonzero"></path>
                        <g id="planet3" transform="translate(326.000000, 103.000000)" fill-rule="evenodd">
                            <g id="planet3-02">
                                <circle id="Oval" fill="url(#linearGradient-1)" cx="169.829146" cy="169.743719" r="169.487437"></circle>
                                <g id="Group">
                                    <path d="M89.6984925,247.140704 C102.170854,247.994975 121.477387,239.281407 130.532663,240.904523 C149.326633,244.236181 152.829146,241.758794 162.653266,238.683417 C185.974874,231.336683 228.859296,240.39196 235.180905,234.241206 C249.361809,220.487437 277.979899,215.959799 292.246231,217.924623 C313.944724,220.914573 317.276382,210.492462 327.698492,202.974874 C332.824121,199.301508 336.241206,193.321608 338.376884,188.110553 C339.060302,182.045226 339.40201,175.894472 339.40201,169.743719 C339.40201,156.160804 337.778894,142.919598 334.788945,130.190955 C331.969849,132.582915 328.296482,134.974874 323.59799,137.110553 C305.658291,145.482412 277.809045,169.572864 245.773869,167.949749 C213.653266,166.241206 187.427136,173.331658 175.38191,171.281407 C168.80402,170.170854 144.457286,168.120603 139.502513,166.668342 C121.98995,161.628141 104.477387,185.462312 76.5427136,197.507538 C48.7788945,209.552764 10.678392,209.552764 4.18592965,205.025126 C6.74874372,217.070352 10.5929648,228.603015 15.5477387,239.537688 C45.0201005,251.924623 78.4221106,246.457286 89.6984925,247.140704 Z" id="Path"></path>
                                    <path d="M37.758794,168.376884 C65.2663317,165.386935 136.854271,125.834171 158.125628,130.874372 C179.396985,135.914573 197.763819,133.778894 222.366834,135.487437 C246.969849,137.19598 277.979899,135.145729 280.628141,135.060302 C291.904523,134.633166 312.919598,126.090452 321.035176,122.160804 C323.768844,120.79397 327.356784,118.40201 330.688442,116.01005 C320.949749,86.9648241 303.60804,61.4221106 281.055276,41.7738693 C276.356784,47.4120603 266.020101,57.7487437 251.497487,61.2512563 C231.080402,66.2914573 211.090452,68.3417085 201.949749,71.6733668 C194.090452,74.5778894 170.427136,78.9346734 161.628141,80.3869347 C162.653266,80.2160804 162.226131,80.3015075 161.457286,80.3869347 C160.175879,80.5577889 159.150754,80.7286432 158.638191,80.8140704 C156.758794,80.9849246 159.834171,80.6432161 161.457286,80.3869347 C161.542714,80.3869347 161.628141,80.3869347 161.628141,80.3869347 C160.688442,80.4723618 158.723618,80.7286432 154.879397,81.241206 C138.648241,83.2914573 111.567839,87.9045226 96.5326633,92.0904523 C83.3768844,95.7638191 36.0502513,94.5678392 19.4773869,91.7487437 C8.96984925,111.994975 2.3919598,134.718593 0.854271357,158.723618 C6.49246231,163.336683 18.7939698,170.512563 37.758794,168.376884 Z" id="Path"></path>
                                    <path d="M85.1708543,78.8492462 C102.256281,77.1407035 102.256281,77.1407035 102.256281,77.1407035 C102.256281,77.1407035 115.582915,71.758794 131.386935,70.0502513 C146.678392,68.4271357 246.201005,59.0301508 276.698492,38.1859296 C265.849246,29.3869347 253.974874,21.8693467 241.160804,15.9748744 C238.683417,18.1959799 235.778894,19.9899497 232.276382,20.5025126 C222.79397,21.8693467 207.929648,25.6281407 193.834171,27.2512563 C179.738693,28.8743719 169.060302,28.2763819 156.502513,29.3869347 C143.944724,30.4974874 130.276382,32.120603 119.170854,34.8542714 C108.065327,37.5879397 96.2763819,36.1356784 88.758794,36.5628141 C81.241206,36.9899497 79.0201005,34.3417085 66.8040201,38.7839196 C63.3015075,40.0653266 60.7386935,40.919598 58.9447236,41.6030151 C49.6331658,49.6331658 41.2613065,58.6884422 33.8291457,68.5979899 C46.2160804,72.4422111 72.3567839,80.0452261 85.1708543,78.8492462 Z" id="Path"></path>
                                    <path d="M106.015075,311.809045 C136.427136,329.407035 181.020101,300.105528 189.39196,301.81407 C197.763819,303.522613 203.145729,300.105528 205.623116,297.628141 C208.100503,295.150754 259.356784,284.728643 267.728643,285.582915 C276.100503,286.437186 283.959799,279.773869 296.517588,270.547739 C304.120603,264.994975 309.417085,261.834171 314.201005,258.844221 C318.81407,251.41206 322.829146,243.552764 326.246231,235.437186 C315.824121,232.788945 299.763819,244.236181 287.80402,244.663317 C282.763819,244.834171 273.623116,241.758794 259.442211,238.854271 C245.261307,235.949749 221.512563,256.79397 194.859296,253.462312 C184.60804,252.180905 163.592965,249.276382 154.452261,252.180905 C145.311558,255.085427 138.221106,266.361809 125.321608,263.030151 C114.984925,260.38191 93.6281407,274.306533 87.3919598,278.065327 C83.6331658,280.371859 62.361809,283.276382 44.8492462,284.130653 C51.9396985,291.904523 59.7135678,298.994975 68.1708543,305.316583 C85.0854271,302.070352 96.0201005,306 106.015075,311.809045 Z" id="Path"></path>
                                    <path d="M253.462312,291.562814 C245.090452,290.708543 209.296482,281.567839 206.733668,284.045226 C204.256281,286.522613 188.879397,292.075377 180.507538,290.366834 C172.135678,288.658291 136.854271,316.592965 106.442211,298.994975 C96.5326633,293.271357 85,301.984925 67.9145729,305.231156 C96.2763819,326.58794 131.557789,339.231156 169.743719,339.231156 C230.653266,339.231156 284.130653,307.110553 313.944724,258.844221 C309.160804,261.834171 304.20603,276.527638 296.603015,282.080402 C284.21608,291.306533 261.834171,292.417085 253.462312,291.562814 Z" id="Path" fill="#AA0C2B"></path>
                                    <path d="M125.150754,263.030151 C138.050251,266.361809 184.522613,263.457286 194.773869,263.115578 C254.572864,261.150754 285.41206,236.291457 290.452261,236.120603 C302.41206,235.693467 319.582915,222.79397 330.005025,225.356784 C336.241206,210.577889 337.522613,195.371859 339.316583,178.798995 C337.180905,183.924623 335.728643,190.502513 330.603015,194.175879 C320.180905,201.693467 313.859296,220.914573 292.246231,217.924623 C277.894472,215.959799 251.41206,226.638191 235.180905,234.241206 C227.236181,237.914573 200.241206,230.738693 176.919598,238 C167.180905,241.075377 99.6934673,236.889447 87.2211055,236.035176 C75.9447236,235.266332 45.1055276,251.753769 15.4623116,239.537688 C22.8944724,255.939698 32.8040201,270.889447 44.7638191,283.959799 C62.1909548,283.020101 83.4623116,280.115578 87.3065327,277.894472 C93.4572864,274.221106 114.81407,260.38191 125.150754,263.030151 Z" id="Path" fill="#AA0C2B"></path>
                                    <path d="M76.3718593,197.592965 C104.306533,185.547739 124.296482,175.552764 141.809045,180.507538 C146.763819,181.959799 173.929648,190.758794 180.507538,191.869347 C192.552764,193.919598 213.482412,166.241206 245.603015,167.949749 C277.723618,169.658291 305.572864,145.482412 323.427136,137.110553 C328.125628,134.974874 331.798995,132.497487 334.61809,130.190955 C333.507538,125.407035 332.140704,120.623116 330.517588,116.01005 C327.271357,118.40201 323.683417,120.79397 320.864322,122.160804 C312.748744,126.090452 287.80402,122.58794 276.527638,123.015075 C273.879397,123.100503 246.713568,137.19598 222.110553,135.487437 C197.507538,133.778894 179.140704,135.914573 157.869347,130.874372 C136.59799,125.834171 65.0100503,165.386935 37.5025126,168.376884 C18.5376884,170.427136 6.32160804,163.336683 0.512562814,158.723618 C0.256281407,162.396985 0.170854271,166.070352 0.170854271,169.743719 C0.170854271,181.874372 1.45226131,193.748744 3.84422111,205.110553 C10.5929648,209.638191 48.6080402,209.638191 76.3718593,197.592965 Z" id="Path" fill="#AA0C2B"></path>
                                    <path d="M110.798995,43.3115578 C144.457286,44.9346734 179.738693,28.959799 193.834171,27.2512563 C207.929648,25.6281407 222.708543,21.8693467 232.276382,20.5025126 C235.778894,19.9899497 238.683417,18.281407 241.160804,15.9748744 C219.462312,5.89447236 195.286432,0.256281407 169.829146,0.256281407 C127.457286,0.256281407 88.6733668,15.8040201 58.9447236,41.5175879 C60.7386935,40.919598 63.2160804,39.9798995 66.8040201,38.6984925 C79.1055276,34.4271357 103.281407,42.8844221 110.798995,43.3115578 Z" id="Path" fill="#AA0C2B"></path>
                                    <path d="M82.3517588,102.768844 C97.3869347,98.5829146 166.668342,90.8944724 167.522613,90.8090452 C176.321608,89.3567839 195.201005,80.3015075 203.060302,77.3969849 C212.201005,74.0653266 236.718593,74.1507538 257.135678,69.1105528 C271.658291,65.5226131 276.271357,47.3266332 280.969849,41.6884422 C279.603015,40.4924623 271.572864,34.1708543 270.120603,32.9748744 C238,58.2613065 167.949749,77.2261307 152.658291,78.8492462 C136.854271,80.5577889 104.819095,71.4170854 87.7336683,73.040201 C74.919598,74.321608 46.2160804,72.2713568 33.9145729,68.3417085 C28.4472362,75.6884422 19.6482412,91.5778894 15.3768844,99.6934673 C31.9497487,102.768844 69.1959799,106.442211 82.3517588,102.768844 Z" id="Path" fill="#AA0C2B"></path>
                                    <path d="M161.457286,80.4723618 C161.371859,80.4723618 161.286432,80.4723618 161.286432,80.4723618 C162.140704,80.3869347 162.567839,80.3015075 161.457286,80.4723618 Z" id="Path" fill="#AA0C2B"></path>
                                    <path d="M158.467337,80.8994975 C158.979899,80.8140704 159.919598,80.7286432 161.286432,80.4723618 C159.748744,80.7286432 156.673367,81.0703518 158.467337,80.8994975 Z" id="Path" fill="#AA0C2B"></path>
                                </g>
                            </g>
                        </g>
                        <g id="planet4" transform="translate(26.000000, 41.000000)" fill-rule="evenodd">
                            <g id="planet4-03">
                                <circle id="Oval" fill="url(#linearGradient-1)" cx="39.959799" cy="39.9396985" r="39.879397"></circle>
                                <g id="Group" transform="translate(0.201005, 0.000000)">
                                    <path d="M20.9045226,58.1507538 C23.839196,58.3517588 28.3819095,56.3015075 30.5125628,56.6834171 C34.9346734,57.4673367 35.758794,56.8844221 38.0703518,56.160804 C43.5577889,54.4321608 53.6482412,56.5628141 55.1356784,55.1155779 C58.4723618,51.879397 65.2060302,50.8140704 68.5628141,51.2763819 C73.6683417,51.9798995 74.4522613,49.5276382 76.9045226,47.758794 C78.1105528,46.8944724 78.9145729,45.4874372 79.4170854,44.2613065 C79.5778894,42.8341709 79.6582915,41.3869347 79.6582915,39.9396985 C79.6582915,36.7437186 79.2763819,33.6281407 78.5728643,30.6331658 C77.9095477,31.1959799 77.0452261,31.758794 75.9396985,32.2613065 C71.718593,34.2311558 65.1658291,39.8994975 57.6281407,39.5175879 C50.0703518,39.1155779 43.8994975,40.7839196 41.0653266,40.3015075 C39.5175879,40.040201 33.7889447,39.5577889 32.6231156,39.2160804 C28.5025126,38.0301508 24.3819095,43.638191 17.8090452,46.4723618 C11.2763819,49.3065327 2.31155779,49.3065327 0.783919598,48.241206 C1.38693467,51.0753769 2.29145729,53.7889447 3.45728643,56.361809 C10.3919598,59.2763819 18.2512563,57.9899497 20.9045226,58.1507538 Z" id="Path"></path>
                                    <path d="M8.68341709,39.6180905 C15.1557789,38.9145729 32,29.6080402 37.0050251,30.7939698 C42.0100503,31.9798995 46.3316583,31.4773869 52.120603,31.879397 C57.9095477,32.281407 65.2060302,31.798995 65.8291457,31.7788945 C68.4824121,31.678392 73.4271357,29.6683417 75.3366834,28.7437186 C75.9798995,28.4221106 76.8241206,27.8592965 77.6080402,27.2964824 C75.3165829,20.4623116 71.2361809,14.4522613 65.9296482,9.82914573 C64.8241206,11.1557789 62.3919598,13.5879397 58.9748744,14.4120603 C54.1708543,15.5979899 49.4673367,16.080402 47.3165829,16.8643216 C45.4673367,17.5477387 39.8994975,18.5728643 37.8291457,18.9145729 C38.0703518,18.8743719 37.9698492,18.8944724 37.7889447,18.9145729 C37.4874372,18.9547739 37.2462312,18.9949749 37.1256281,19.0150754 C36.6834171,19.0552764 37.4070352,18.9748744 37.7889447,18.9145729 C37.8090452,18.9145729 37.8291457,18.9145729 37.8291457,18.9145729 C37.6080402,18.9346734 37.1457286,18.9949749 36.241206,19.1155779 C32.4221106,19.5979899 26.0502513,20.6834171 22.5125628,21.6683417 C19.4170854,22.5326633 8.28140704,22.2512563 4.38190955,21.5879397 C1.90954774,26.3517588 0.361809045,31.6984925 1.42108547e-14,37.3467337 C1.32663317,38.4321608 4.22110553,40.120603 8.68341709,39.6180905 Z" id="Path"></path>
                                    <path d="M19.839196,18.5527638 C23.8592965,18.1507538 23.8592965,18.1507538 23.8592965,18.1507538 C23.8592965,18.1507538 26.9949749,16.8844221 30.7135678,16.4824121 C34.3115578,16.1005025 57.7286432,13.8894472 64.9045226,8.98492462 C62.3517588,6.91457286 59.5577889,5.14572864 56.5427136,3.75879397 C55.959799,4.28140704 55.2763819,4.70351759 54.4522613,4.8241206 C52.2211055,5.14572864 48.7236181,6.03015075 45.4070352,6.4120603 C42.0904523,6.79396985 39.5778894,6.65326633 36.6231156,6.91457286 C33.6683417,7.1758794 30.4522613,7.55778894 27.839196,8.20100503 C25.2261307,8.84422111 22.4522613,8.50251256 20.6834171,8.60301508 C18.9145729,8.70351759 18.3919598,8.08040201 15.5175879,9.12562814 C14.6934673,9.42713568 14.0904523,9.6281407 13.6683417,9.78894472 C11.4773869,11.678392 9.50753769,13.8090452 7.75879397,16.1407035 C10.6733668,17.0452261 16.8241206,18.8341709 19.839196,18.5527638 Z" id="Path"></path>
                                    <path d="M24.7437186,73.3668342 C31.8994975,77.5075377 42.3919598,70.6130653 44.361809,71.0150754 C46.3316583,71.4170854 47.5979899,70.6130653 48.1809045,70.0301508 C48.7638191,69.4472362 60.8241206,66.9949749 62.7939698,67.1959799 C64.7638191,67.3969849 66.6130653,65.8291457 69.5678392,63.6582915 C71.3567839,62.3517588 72.6030151,61.6080402 73.7286432,60.9045226 C74.8140704,59.1557789 75.758794,57.3065327 76.5628141,55.3969849 C74.1105528,54.7738693 70.3316583,57.4673367 67.5175879,57.5678392 C66.3316583,57.6080402 64.1809045,56.8844221 60.8442211,56.201005 C57.5075377,55.5175879 51.919598,60.4221106 45.6482412,59.638191 C43.2361809,59.3366834 38.2914573,58.6532663 36.1407035,59.3366834 C33.9899497,60.0201005 32.321608,62.6733668 29.2864322,61.8894472 C26.8542714,61.2663317 21.8291457,64.5427136 20.361809,65.4271357 C19.4773869,65.9698492 14.4723618,66.6532663 10.3517588,66.8542714 C12.0201005,68.6834171 13.8492462,70.3517588 15.839196,71.839196 C19.8190955,71.0753769 22.3919598,72 24.7437186,73.3668342 Z" id="Path"></path>
                                    <path d="M48.1809045,70.0301508 C39.8190955,70.9748744 37.9497487,78.7939698 15.8190955,71.839196 C22.4924623,76.8643216 30.7939698,79.839196 39.7788945,79.839196 C54.1105528,79.839196 66.6934673,72.281407 73.7085427,60.9246231 C72.5829146,61.6281407 71.4170854,65.0854271 69.6281407,66.3919598 C66.6733668,68.5427136 56.2613065,69.1055276 48.1809045,70.0301508 Z" id="Path" fill="#AA0C2B"></path>
                                    <path d="M31.0954774,7.79899497 C37.6080402,8.12060302 48.4824121,6.33165829 54.3718593,4.52261307 C55.6582915,4.14070352 56.4422111,3.85929648 56.5427136,3.75879397 C51.4371859,1.38693467 45.7487437,0.0603015075 39.758794,0.0603015075 C29.7889447,0.0603015075 20.6633166,3.71859296 13.6683417,9.76884422 C14.0904523,9.6281407 14.6733668,9.40703518 15.5175879,9.10552764 C18.4120603,8.10050251 29.3266332,7.69849246 31.0954774,7.79899497 Z" id="Path" fill="#AA0C2B"></path>
                                    <path d="M37.7889447,18.9346734 C37.7688442,18.9346734 37.7487437,18.9346734 37.7487437,18.9346734 C37.9497487,18.9145729 38.0502513,18.8944724 37.7889447,18.9346734 Z" id="Path" fill="#AA0C2B"></path>
                                    <path d="M37.0854271,19.0351759 C37.2060302,19.0150754 37.4271357,18.9949749 37.7487437,18.9346734 C37.3869347,18.9949749 36.6633166,19.0753769 37.0854271,19.0351759 Z" id="Path" fill="#AA0C2B"></path>
                                    <path d="M23.2964824,46.6130653 C22.3919598,43.959799 20.120603,42.0703518 17.4673367,42.0703518 C14.0100503,42.0703518 11.2160804,45.2462312 11.2160804,49.1658291 C11.2160804,50.7939698 11.6984925,52.281407 12.5025126,53.4673367 C12.4020101,53.9497487 12.361809,54.4723618 12.361809,54.9748744 C12.361809,59.678392 16.5226131,63.4974874 21.6482412,63.4974874 C26.7738693,63.4974874 30.9346734,59.678392 30.9346734,54.9748744 C30.8944724,50.8140704 27.6180905,47.3366834 23.2964824,46.6130653 Z" id="Path" fill="#AA0C2B"></path>
                                    <path d="M70.2713568,28.8844221 C70.7537688,27.6582915 70.8944724,26.1507538 70.5929648,24.6030151 C70.0703518,21.9899497 68.4422111,19.9798995 66.5929648,19.4170854 C65.3668342,17.4874372 63.2562814,16.3819095 61.1457286,16.8040201 C58.2713568,17.3668342 56.4623116,20.5025126 57.1055276,23.8190955 C57.6884422,26.7537688 60,28.8442211 62.5326633,28.8844221 C62.9949749,29.6884422 63.5778894,30.3517588 64.2211055,30.8341709 C63.4170854,32.120603 63.0753769,33.8090452 63.4170854,35.5577889 C64.0603015,38.8542714 66.9145729,41.0854271 69.7889447,40.5226131 C72.6633166,39.959799 74.4522613,36.8241206 73.8090452,33.5276382 C73.3668342,31.3366834 71.9798995,29.6482412 70.2713568,28.8844221 Z" id="Path" fill="#AA0C2B"></path>
                                </g>
                                <circle id="Oval" fill="#AA0C2B" cx="22.1507538" cy="24.8241206" r="3.71859296"></circle>
                                <circle id="Oval" fill="#AA0C2B" cx="57.9497487" cy="53.2663317" r="1.20603015"></circle>
                                <circle id="Oval" fill="#AA0C2B" cx="66.8341709" cy="47.638191" r="1.20603015"></circle>
                                <circle id="Oval" fill="#AA0C2B" cx="66.1306533" cy="56.9246231" r="2.47236181"></circle>
                                <circle id="Oval" fill="#AA0C2B" cx="9.24623116" cy="34.0301508" r="1.26633166"></circle>
                                <circle id="Oval" fill="#AA0C2B" cx="19.678392" cy="32.8040201" r="1.24623116"></circle>
                                <circle id="Oval" fill="#AA0C2B" cx="46.6130653" cy="16.160804" r="1.24623116"></circle>
                                <circle id="Oval" fill="#AA0C2B" cx="33.5678392" cy="65.1859296" r="1.66834171"></circle>
                                <circle id="Oval" fill="#AA0C2B" cx="22.5728643" cy="70.8140704" r="1.66834171"></circle>
                                <circle id="Oval" fill="#AA0C2B" cx="50.5527638" cy="21.1055276" r="1.66834171"></circle>
                                <path d="M56.5226131,45.3266332 C57.9698492,38.1306533 54.0301508,28.5628141 47.7788945,27.2964824 C41.5276382,26.0301508 33.3467337,29.4070352 31.8994975,36.5829146 C30.9949749,41.0251256 34.1105528,49.5075377 36.6030151,52.4623116 C36,57.4472362 38.8140704,62.0301508 43.1959799,62.9145729 C47.839196,63.8592965 52.4623116,60.3015075 53.5477387,54.9748744 C53.7889447,53.8090452 53.8291457,52.6432161 53.7085427,51.5376884 C55.0552764,49.7889447 56.040201,47.678392 56.5226131,45.3266332 Z" id="Path" fill="#AA0C2B"></path>
                            </g>
                        </g>
                    </g>
                </g>
            </g>
        </g>
    </g>
</svg>