<svg xmlns="http://www.w3.org/2000/svg" width="340" height="340" viewBox="0 0 340 340">
    <defs>
        <linearGradient id="a" x1="25.001%" x2="75.013%" y1="6.696%" y2="93.32%">
            <stop offset="0%" stop-color="#F5515F"/>
            <stop offset="51.63%" stop-color="#ED1D46"/>
            <stop offset="100%" stop-color="#9F041B"/>
        </linearGradient>
    </defs>
    <g fill="none" fill-rule="evenodd">
        <circle cx="169.829" cy="169.744" r="169.487" fill="url(#a)"/>
        <path d="M89.698 247.14c12.473.855 31.78-7.859 40.835-6.235 18.794 3.331 22.296.854 32.12-2.222 23.322-7.346 66.206 1.709 72.528-4.442 14.18-13.754 42.799-18.281 57.065-16.316 21.699 2.99 25.03-7.433 35.452-14.95 5.126-3.673 8.543-9.653 10.679-14.864a164.288 164.288 0 0 0 1.025-18.367c0-13.583-1.623-26.824-4.613-39.553-2.82 2.392-6.493 4.784-11.191 6.92-17.94 8.371-45.789 32.462-77.824 30.839-32.12-1.709-58.347 5.382-70.392 3.331-6.578-1.11-30.925-3.16-35.88-4.613-17.512-5.04-35.025 18.794-62.96 30.84-27.763 12.045-65.864 12.045-72.356 7.517a168.496 168.496 0 0 0 11.362 34.513c29.472 12.387 62.874 6.92 74.15 7.603zM37.759 168.377c27.507-2.99 99.095-42.543 120.367-37.503 21.271 5.04 39.638 2.905 64.24 4.613 24.604 1.709 55.614-.341 58.262-.427 11.277-.427 32.292-8.97 40.407-12.9 2.734-1.366 6.322-3.758 9.653-6.15-9.738-29.045-27.08-54.588-49.633-74.236-4.698 5.638-15.035 15.975-29.558 19.477-20.417 5.04-40.407 7.09-49.547 10.422-7.86 2.905-31.523 7.262-40.322 8.714 1.025-.17.598-.085-.17 0-1.282.17-2.307.342-2.82.427-1.88.17 1.196-.17 2.82-.427h.17c-.94.085-2.904.342-6.749.854-16.23 2.05-43.311 6.664-58.346 10.85-13.156 3.673-60.483 2.477-77.056-.342A168.723 168.723 0 0 0 .854 158.724c5.638 4.613 17.94 11.789 36.905 9.653z"/>
        <path d="M85.17 78.85l17.086-1.71s13.327-5.381 29.13-7.09c15.292-1.623 114.815-11.02 145.312-31.864-10.849-8.8-22.723-16.317-35.537-22.211-2.478 2.221-5.382 4.015-8.885 4.528-9.482 1.366-24.346 5.125-38.442 6.748-14.095 1.623-24.774 1.025-37.331 2.136-12.558 1.11-26.227 2.734-37.332 5.467-11.106 2.734-22.895 1.282-30.412 1.709-7.518.427-9.739-2.221-21.955 2.22-3.502 1.282-6.065 2.137-7.86 2.82-9.31 8.03-17.683 17.085-25.115 26.995 12.387 3.844 38.528 11.447 51.342 10.251zM106.015 311.809c30.412 17.598 75.005-11.703 83.377-9.995 8.372 1.709 13.754-1.708 16.231-4.186 2.478-2.477 53.734-12.9 62.106-12.045 8.372.854 16.23-5.81 28.789-15.035 7.603-5.553 12.9-8.714 17.683-11.704 4.613-7.432 8.628-15.291 12.045-23.407-10.422-2.648-26.482 8.8-38.442 9.226-5.04.171-14.18-2.904-28.362-5.809-14.18-2.904-37.93 17.94-64.583 14.608-10.251-1.281-31.266-4.186-40.407-1.281-9.14 2.904-16.23 14.18-29.13 10.85-10.337-2.65-31.694 11.276-37.93 15.034-3.759 2.307-25.03 5.211-42.543 6.066 7.09 7.774 14.865 14.864 23.322 21.186 16.914-3.247 27.85.683 37.844 6.492z"/>
        <path fill="#AA0C2B" d="M253.462 291.563c-8.372-.854-44.166-9.995-46.728-7.518-2.478 2.478-17.855 8.03-26.226 6.322-8.372-1.709-43.654 26.226-74.066 8.628-9.91-5.724-21.442 2.99-38.527 6.236 28.361 21.357 63.643 34 101.829 34 60.91 0 114.387-32.12 144.2-80.387-4.783 2.99-9.738 17.684-17.341 23.236-12.387 9.227-34.769 10.337-43.14 9.483zM125.15 263.03c12.9 3.332 59.373.427 69.624.086 59.799-1.965 90.638-26.825 95.678-26.995 11.96-.428 29.13-13.327 39.553-10.764 6.236-14.78 7.518-29.985 9.312-46.558-2.136 5.126-3.588 11.704-8.714 15.377-10.422 7.517-16.744 26.739-38.357 23.749-14.352-1.965-40.834 8.713-57.065 16.316-7.945 3.674-34.94-3.502-58.261 3.759-9.74 3.075-77.227-1.11-89.699-1.965-11.276-.769-42.115 15.719-71.759 3.503a169.197 169.197 0 0 0 29.302 44.422c17.427-.94 38.698-3.844 42.543-6.066 6.15-3.673 27.507-17.512 37.844-14.864zM76.372 197.593c27.935-12.045 47.924-22.04 65.437-17.085 4.955 1.452 32.12 10.25 38.699 11.361 12.045 2.05 32.974-25.628 65.095-23.92 32.12 1.71 59.97-22.467 77.824-30.838 4.699-2.136 8.372-4.614 11.191-6.92-1.11-4.784-2.477-9.568-4.1-14.18-3.247 2.391-6.835 4.783-9.654 6.15-8.115 3.93-33.06.427-44.336.854-2.649.086-29.814 14.181-54.417 12.472-24.603-1.708-42.97.428-64.242-4.613-21.271-5.04-92.859 34.513-120.366 37.503-18.965 2.05-31.181-5.04-36.99-9.653-.257 3.673-.342 7.346-.342 11.02 0 12.13 1.281 24.005 3.673 35.367 6.749 4.527 44.764 4.527 72.528-7.518zM110.799 43.312c33.658 1.623 68.94-14.352 83.035-16.06 14.096-1.624 28.875-5.383 38.442-6.75 3.503-.512 6.407-2.22 8.885-4.527C219.462 5.895 195.286.256 169.829.256c-42.372 0-81.156 15.548-110.884 41.262 1.794-.598 4.271-1.538 7.859-2.82 12.302-4.27 36.477 4.186 43.995 4.614zM82.352 102.769c15.035-4.186 84.316-11.875 85.17-11.96 8.8-1.452 27.679-10.507 35.538-13.412 9.141-3.332 33.659-3.246 54.076-8.286 14.522-3.588 19.135-21.784 23.834-27.423-1.367-1.196-9.397-7.517-10.85-8.713C238 58.26 167.95 77.226 152.659 78.849c-15.804 1.709-47.839-7.432-64.924-5.809-12.814 1.282-41.518-.769-53.82-4.698-5.467 7.346-14.266 23.236-18.537 31.351 16.573 3.076 53.819 6.75 66.975 3.076z"/>
        <path fill="#AA0C2B" d="M161.457 80.472h-.17c.854-.085 1.28-.17.17 0zM158.467 80.9c.513-.086 1.453-.171 2.82-.428-1.538.257-4.614.598-2.82.427z"/>
    </g>
</svg>
