<?xml version="1.0" encoding="utf-8"?>
<!-- Generator: Adobe Illustrator 23.0.1, SVG Export Plug-In . SVG Version: 6.00 Build 0)  -->
<svg version="1.1" id="Layer_1" xmlns="http://www.w3.org/2000/svg" xmlns:xlink="http://www.w3.org/1999/xlink" x="0px" y="0px"
	 viewBox="0 0 136 136" style="enable-background:new 0 0 136 136;" xml:space="preserve">
<style type="text/css">
	.st0{fill:url(#SVGID_1_);}
	.st1{fill:none;}
	.st2{fill:#AA0C2B;}
	.st3{fill:url(#SVGID_2_);}
	.st4{fill:url(#SVGID_3_);}
</style>
<linearGradient id="SVGID_1_" gradientUnits="userSpaceOnUse" x1="34.4381" y1="9.6149" x2="101.8115" y2="126.309">
	<stop  offset="0" style="stop-color:#F5515F"/>
	<stop  offset="0.5163" style="stop-color:#ED1D46"/>
	<stop  offset="1" style="stop-color:#9F041B"/>
</linearGradient>
<circle class="st0" cx="68.1" cy="68" r="67.4"/>
<g>
	<path class="st1" d="M36.3,98.7c5,0.3,12.6-3.1,16.2-2.5c7.5,1.3,8.9,0.3,12.8-0.9c9.3-2.9,26.3,0.7,28.8-1.8
		c5.6-5.5,17-7.3,22.7-6.5c8.6,1.2,9.9-3,14.1-5.9c2-1.5,3.4-3.9,4.2-5.9c0.3-2.4,0.4-4.8,0.4-7.3c0-5.4-0.6-10.7-1.8-15.7
		c-1.1,0.9-2.6,1.9-4.4,2.8c-7.1,3.3-18.2,12.9-30.9,12.3c-12.8-0.7-23.2,2.2-28,1.3C67.7,68.1,58,67.3,56,66.8
		c-6.9-2-13.9,7.5-25,12.3c-11,4.8-26.2,4.8-28.8,3c1,4.8,2.5,9.4,4.5,13.7C18.5,100.6,31.8,98.4,36.3,98.7z"/>
	<path class="st1" d="M15.6,67.4C26.5,66.2,55,50.5,63.4,52.5s15.8,1.2,25.5,1.8c9.8,0.7,22.1-0.1,23.2-0.2
		c4.5-0.2,12.8-3.6,16.1-5.1c1.1-0.5,2.5-1.5,3.8-2.4c-3.9-11.5-10.7-21.7-19.7-29.5c-1.9,2.2-6,6.3-11.8,7.8
		c-8.1,2-16.1,2.8-19.7,4.1c-3.1,1.1-12.5,2.9-16,3.5c0.4-0.1,0.3,0-0.1,0c-0.5,0.1-0.9,0.1-1.1,0.2c-0.7,0.1,0.5-0.1,1.1-0.2
		c0,0,0.1,0,0.1,0c-0.4,0-1.2,0.1-2.7,0.3c-6.5,0.8-17.2,2.6-23.2,4.3c-5.2,1.5-24,1-30.6-0.1C4.1,45,1.5,54,0.9,63.6
		C3.2,65.4,8.1,68.3,15.6,67.4z"/>
	<path class="st1" d="M34.5,31.8c6.8-0.7,6.8-0.7,6.8-0.7s5.3-2.2,11.6-2.8c6.1-0.6,45.6-4.4,57.7-12.7c-4.3-3.5-9-6.5-14.1-8.8
		c-1,0.9-2.1,1.6-3.5,1.8c-3.8,0.5-9.7,2-15.3,2.7c-5.6,0.7-9.8,0.4-14.8,0.8S52.4,13.3,48,14.3c-4.4,1.1-9.1,0.5-12.1,0.7
		c-3,0.2-3.9-0.9-8.7,0.9c-1.4,0.5-2.4,0.9-3.1,1.1c-3.7,3.2-7,6.8-10,10.7C19,29.3,29.4,32.3,34.5,31.8z"/>
	<path class="st1" d="M42.7,124.4c12.1,7,29.8-4.6,33.1-4c3.3,0.7,5.5-0.7,6.5-1.7c1-1,21.4-5.1,24.7-4.8c3.3,0.3,6.5-2.3,11.4-6
		c3-2.2,5.1-3.5,7-4.6c1.8-3,3.4-6.1,4.8-9.3c-4.1-1-10.5,3.5-15.3,3.7c-2,0.1-5.6-1.2-11.3-2.3c-5.6-1.2-15.1,7.1-25.7,5.8
		c-4.1-0.5-12.4-1.7-16.1-0.5c-3.6,1.2-6.5,5.6-11.6,4.3c-4.1-1.1-12.6,4.5-15.1,6c-1.5,0.9-10,2.1-16.9,2.4
		c2.8,3.1,5.9,5.9,9.3,8.4C34.4,120.5,38.8,122.1,42.7,124.4z"/>
	<path class="st2" d="M107,114c-3.3-0.3-23.7,3.8-24.7,4.8c-1,1-3.1,2.3-6.5,1.7c-3.3-0.7-21,11-33.1,4c-3.9-2.3-8.3-3.9-15.1-2.6
		c11.3,8.5,25.3,13.5,40.5,13.5c24.2,0,45.4-12.8,57.3-32c-1.9,1.2-4,2.4-7,4.6C113.5,111.6,110.3,114.3,107,114z"/>
	<path class="st2" d="M50.4,105c5.1,1.3,7.9-3.1,11.6-4.3c3.6-1.2,12,0,16.1,0.5c10.6,1.3,20-7,25.7-5.8c5.6,1.2,9.3,2.4,11.3,2.3
		c4.8-0.2,11.2-4.7,15.3-3.7c2.5-5.9,4.1-12.2,4.8-18.8c-0.9,2-2.2,4.4-4.2,5.9c-4.1,3-5.5,7.1-14.1,5.9c-5.7-0.8-17.1,1-22.7,6.5
		c-2.5,2.4-19.5-1.2-28.8,1.8c-3.9,1.2-5.3,2.2-12.8,0.9c-3.6-0.6-11.3,2.8-16.2,2.5c-4.5-0.3-17.8,1.9-29.5-3
		c2.9,6.5,6.9,12.5,11.7,17.7c6.9-0.4,15.4-1.5,16.9-2.4C37.8,109.5,46.3,104,50.4,105z"/>
	<path class="st2" d="M31,79C42.1,74.2,49,64.8,56,66.8c2,0.6,11.7,1.4,14.3,1.8c4.8,0.8,15.2-2,28-1.3c12.8,0.7,23.8-8.9,30.9-12.3
		c1.9-0.9,3.3-1.8,4.4-2.8c-0.5-1.9-1-3.8-1.6-5.6c-1.3,0.9-2.7,1.9-3.8,2.4c-3.2,1.6-11.6,5-16.1,5.1c-1.1,0-13.4,0.8-23.2,0.2
		c-9.8-0.7-17.1,0.2-25.5-1.8S26.5,66.2,15.6,67.4c-7.5,0.8-12.4-2-14.7-3.8C0.8,65,0.8,66.5,0.8,68c0,4.8,0.5,9.5,1.5,14.1
		C4.8,83.8,19.9,83.8,31,79z"/>
	<path class="st2" d="M35.9,15c3-0.2,7.7,0.4,12.1-0.7c4.4-1.1,9.9-1.7,14.8-2.2s9.2-0.2,14.8-0.8c5.6-0.7,11.5-2.1,15.3-2.7
		c1.4-0.2,2.6-0.9,3.5-1.8c-8.6-4-18.2-6.2-28.3-6.2C51.3,0.6,35.9,6.8,24.1,17c0.7-0.3,1.7-0.6,3.1-1.1
		C32.1,14.2,32.9,15.2,35.9,15z"/>
	<path class="st2" d="M38.9,37.1c6-1.7,16.7-3.5,23.2-4.3c1.5-0.2,2.3-0.3,2.7-0.3c3.5-0.6,12.9-2.3,16-3.5
		c3.6-1.3,11.6-2.2,19.7-4.1c5.8-1.4,9.9-5.5,11.8-7.8c-0.6-0.5-1.1-1-1.7-1.4c-12.1,8.3-51.7,12-57.7,12.7
		c-6.3,0.7-11.6,2.8-11.6,2.8s0,0-6.8,0.7c-5.1,0.5-15.5-2.5-20.4-4.1c-2.2,2.9-4.1,6-5.8,9.3C14.9,38.1,33.7,38.6,38.9,37.1z"/>
	<path class="st2" d="M64.8,32.5C64.8,32.5,64.7,32.5,64.8,32.5C65.1,32.4,65.2,32.4,64.8,32.5z"/>
	<path class="st2" d="M63.6,32.6c0.2,0,0.6-0.1,1.1-0.2C64.1,32.6,62.9,32.7,63.6,32.6z"/>
</g>
</svg>
