<?xml version="1.0" encoding="UTF-8"?>
<svg width="80px" height="80px" viewBox="0 0 80 80" version="1.1" xmlns="http://www.w3.org/2000/svg" xmlns:xlink="http://www.w3.org/1999/xlink">
    <!-- Generator: Sketch 52.5 (67469) - http://www.bohemiancoding.com/sketch -->
    <title>planet4</title>
    <desc>Created with Sketch.</desc>
    <defs>
        <linearGradient x1="25.0013609%" y1="6.69629536%" x2="75.0134073%" y2="93.3196825%" id="linearGradient-1">
            <stop stop-color="#F5515F" offset="0%"></stop>
            <stop stop-color="#ED1D46" offset="51.63%"></stop>
            <stop stop-color="#9F041B" offset="100%"></stop>
        </linearGradient>
    </defs>
    <g id="planet4" stroke="none" stroke-width="1" fill="none" fill-rule="evenodd">
        <g id="planet4-03">
            <circle id="Oval" fill="url(#linearGradient-1)" cx="39.959799" cy="39.9396985" r="39.879397"></circle>
            <g id="Group" transform="translate(0.201005, 0.000000)">
                <path d="M20.9045226,58.1507538 C23.839196,58.3517588 28.3819095,56.3015075 30.5125628,56.6834171 C34.9346734,57.4673367 35.758794,56.8844221 38.0703518,56.160804 C43.5577889,54.4321608 53.6482412,56.5628141 55.1356784,55.1155779 C58.4723618,51.879397 65.2060302,50.8140704 68.5628141,51.2763819 C73.6683417,51.9798995 74.4522613,49.5276382 76.9045226,47.758794 C78.1105528,46.8944724 78.9145729,45.4874372 79.4170854,44.2613065 C79.5778894,42.8341709 79.6582915,41.3869347 79.6582915,39.9396985 C79.6582915,36.7437186 79.2763819,33.6281407 78.5728643,30.6331658 C77.9095477,31.1959799 77.0452261,31.758794 75.9396985,32.2613065 C71.718593,34.2311558 65.1658291,39.8994975 57.6281407,39.5175879 C50.0703518,39.1155779 43.8994975,40.7839196 41.0653266,40.3015075 C39.5175879,40.040201 33.7889447,39.5577889 32.6231156,39.2160804 C28.5025126,38.0301508 24.3819095,43.638191 17.8090452,46.4723618 C11.2763819,49.3065327 2.31155779,49.3065327 0.783919598,48.241206 C1.38693467,51.0753769 2.29145729,53.7889447 3.45728643,56.361809 C10.3919598,59.2763819 18.2512563,57.9899497 20.9045226,58.1507538 Z" id="Path"></path>
                <path d="M8.68341709,39.6180905 C15.1557789,38.9145729 32,29.6080402 37.0050251,30.7939698 C42.0100503,31.9798995 46.3316583,31.4773869 52.120603,31.879397 C57.9095477,32.281407 65.2060302,31.798995 65.8291457,31.7788945 C68.4824121,31.678392 73.4271357,29.6683417 75.3366834,28.7437186 C75.9798995,28.4221106 76.8241206,27.8592965 77.6080402,27.2964824 C75.3165829,20.4623116 71.2361809,14.4522613 65.9296482,9.82914573 C64.8241206,11.1557789 62.3919598,13.5879397 58.9748744,14.4120603 C54.1708543,15.5979899 49.4673367,16.080402 47.3165829,16.8643216 C45.4673367,17.5477387 39.8994975,18.5728643 37.8291457,18.9145729 C38.0703518,18.8743719 37.9698492,18.8944724 37.7889447,18.9145729 C37.4874372,18.9547739 37.2462312,18.9949749 37.1256281,19.0150754 C36.6834171,19.0552764 37.4070352,18.9748744 37.7889447,18.9145729 C37.8090452,18.9145729 37.8291457,18.9145729 37.8291457,18.9145729 C37.6080402,18.9346734 37.1457286,18.9949749 36.241206,19.1155779 C32.4221106,19.5979899 26.0502513,20.6834171 22.5125628,21.6683417 C19.4170854,22.5326633 8.28140704,22.2512563 4.38190955,21.5879397 C1.90954774,26.3517588 0.361809045,31.6984925 1.42108547e-14,37.3467337 C1.32663317,38.4321608 4.22110553,40.120603 8.68341709,39.6180905 Z" id="Path"></path>
                <path d="M19.839196,18.5527638 C23.8592965,18.1507538 23.8592965,18.1507538 23.8592965,18.1507538 C23.8592965,18.1507538 26.9949749,16.8844221 30.7135678,16.4824121 C34.3115578,16.1005025 57.7286432,13.8894472 64.9045226,8.98492462 C62.3517588,6.91457286 59.5577889,5.14572864 56.5427136,3.75879397 C55.959799,4.28140704 55.2763819,4.70351759 54.4522613,4.8241206 C52.2211055,5.14572864 48.7236181,6.03015075 45.4070352,6.4120603 C42.0904523,6.79396985 39.5778894,6.65326633 36.6231156,6.91457286 C33.6683417,7.1758794 30.4522613,7.55778894 27.839196,8.20100503 C25.2261307,8.84422111 22.4522613,8.50251256 20.6834171,8.60301508 C18.9145729,8.70351759 18.3919598,8.08040201 15.5175879,9.12562814 C14.6934673,9.42713568 14.0904523,9.6281407 13.6683417,9.78894472 C11.4773869,11.678392 9.50753769,13.8090452 7.75879397,16.1407035 C10.6733668,17.0452261 16.8241206,18.8341709 19.839196,18.5527638 Z" id="Path"></path>
                <path d="M24.7437186,73.3668342 C31.8994975,77.5075377 42.3919598,70.6130653 44.361809,71.0150754 C46.3316583,71.4170854 47.5979899,70.6130653 48.1809045,70.0301508 C48.7638191,69.4472362 60.8241206,66.9949749 62.7939698,67.1959799 C64.7638191,67.3969849 66.6130653,65.8291457 69.5678392,63.6582915 C71.3567839,62.3517588 72.6030151,61.6080402 73.7286432,60.9045226 C74.8140704,59.1557789 75.758794,57.3065327 76.5628141,55.3969849 C74.1105528,54.7738693 70.3316583,57.4673367 67.5175879,57.5678392 C66.3316583,57.6080402 64.1809045,56.8844221 60.8442211,56.201005 C57.5075377,55.5175879 51.919598,60.4221106 45.6482412,59.638191 C43.2361809,59.3366834 38.2914573,58.6532663 36.1407035,59.3366834 C33.9899497,60.0201005 32.321608,62.6733668 29.2864322,61.8894472 C26.8542714,61.2663317 21.8291457,64.5427136 20.361809,65.4271357 C19.4773869,65.9698492 14.4723618,66.6532663 10.3517588,66.8542714 C12.0201005,68.6834171 13.8492462,70.3517588 15.839196,71.839196 C19.8190955,71.0753769 22.3919598,72 24.7437186,73.3668342 Z" id="Path"></path>
                <path d="M48.1809045,70.0301508 C39.8190955,70.9748744 37.9497487,78.7939698 15.8190955,71.839196 C22.4924623,76.8643216 30.7939698,79.839196 39.7788945,79.839196 C54.1105528,79.839196 66.6934673,72.281407 73.7085427,60.9246231 C72.5829146,61.6281407 71.4170854,65.0854271 69.6281407,66.3919598 C66.6733668,68.5427136 56.2613065,69.1055276 48.1809045,70.0301508 Z" id="Path" fill="#AA0C2B"></path>
                <path d="M31.0954774,7.79899497 C37.6080402,8.12060302 48.4824121,6.33165829 54.3718593,4.52261307 C55.6582915,4.14070352 56.4422111,3.85929648 56.5427136,3.75879397 C51.4371859,1.38693467 45.7487437,0.0603015075 39.758794,0.0603015075 C29.7889447,0.0603015075 20.6633166,3.71859296 13.6683417,9.76884422 C14.0904523,9.6281407 14.6733668,9.40703518 15.5175879,9.10552764 C18.4120603,8.10050251 29.3266332,7.69849246 31.0954774,7.79899497 Z" id="Path" fill="#AA0C2B"></path>
                <path d="M37.7889447,18.9346734 C37.7688442,18.9346734 37.7487437,18.9346734 37.7487437,18.9346734 C37.9497487,18.9145729 38.0502513,18.8944724 37.7889447,18.9346734 Z" id="Path" fill="#AA0C2B"></path>
                <path d="M37.0854271,19.0351759 C37.2060302,19.0150754 37.4271357,18.9949749 37.7487437,18.9346734 C37.3869347,18.9949749 36.6633166,19.0753769 37.0854271,19.0351759 Z" id="Path" fill="#AA0C2B"></path>
                <path d="M23.2964824,46.6130653 C22.3919598,43.959799 20.120603,42.0703518 17.4673367,42.0703518 C14.0100503,42.0703518 11.2160804,45.2462312 11.2160804,49.1658291 C11.2160804,50.7939698 11.6984925,52.281407 12.5025126,53.4673367 C12.4020101,53.9497487 12.361809,54.4723618 12.361809,54.9748744 C12.361809,59.678392 16.5226131,63.4974874 21.6482412,63.4974874 C26.7738693,63.4974874 30.9346734,59.678392 30.9346734,54.9748744 C30.8944724,50.8140704 27.6180905,47.3366834 23.2964824,46.6130653 Z" id="Path" fill="#AA0C2B"></path>
                <path d="M70.2713568,28.8844221 C70.7537688,27.6582915 70.8944724,26.1507538 70.5929648,24.6030151 C70.0703518,21.9899497 68.4422111,19.9798995 66.5929648,19.4170854 C65.3668342,17.4874372 63.2562814,16.3819095 61.1457286,16.8040201 C58.2713568,17.3668342 56.4623116,20.5025126 57.1055276,23.8190955 C57.6884422,26.7537688 60,28.8442211 62.5326633,28.8844221 C62.9949749,29.6884422 63.5778894,30.3517588 64.2211055,30.8341709 C63.4170854,32.120603 63.0753769,33.8090452 63.4170854,35.5577889 C64.0603015,38.8542714 66.9145729,41.0854271 69.7889447,40.5226131 C72.6633166,39.959799 74.4522613,36.8241206 73.8090452,33.5276382 C73.3668342,31.3366834 71.9798995,29.6482412 70.2713568,28.8844221 Z" id="Path" fill="#AA0C2B"></path>
            </g>
            <circle id="Oval" fill="#AA0C2B" cx="22.1507538" cy="24.8241206" r="3.71859296"></circle>
            <circle id="Oval" fill="#AA0C2B" cx="57.9497487" cy="53.2663317" r="1.20603015"></circle>
            <circle id="Oval" fill="#AA0C2B" cx="66.8341709" cy="47.638191" r="1.20603015"></circle>
            <circle id="Oval" fill="#AA0C2B" cx="66.1306533" cy="56.9246231" r="2.47236181"></circle>
            <circle id="Oval" fill="#AA0C2B" cx="9.24623116" cy="34.0301508" r="1.26633166"></circle>
            <circle id="Oval" fill="#AA0C2B" cx="19.678392" cy="32.8040201" r="1.24623116"></circle>
            <circle id="Oval" fill="#AA0C2B" cx="46.6130653" cy="16.160804" r="1.24623116"></circle>
            <circle id="Oval" fill="#AA0C2B" cx="33.5678392" cy="65.1859296" r="1.66834171"></circle>
            <circle id="Oval" fill="#AA0C2B" cx="22.5728643" cy="70.8140704" r="1.66834171"></circle>
            <circle id="Oval" fill="#AA0C2B" cx="50.5527638" cy="21.1055276" r="1.66834171"></circle>
            <path d="M56.5226131,45.3266332 C57.9698492,38.1306533 54.0301508,28.5628141 47.7788945,27.2964824 C41.5276382,26.0301508 33.3467337,29.4070352 31.8994975,36.5829146 C30.9949749,41.0251256 34.1105528,49.5075377 36.6030151,52.4623116 C36,57.4472362 38.8140704,62.0301508 43.1959799,62.9145729 C47.839196,63.8592965 52.4623116,60.3015075 53.5477387,54.9748744 C53.7889447,53.8090452 53.8291457,52.6432161 53.7085427,51.5376884 C55.0552764,49.7889447 56.040201,47.678392 56.5226131,45.3266332 Z" id="Path" fill="#AA0C2B"></path>
        </g>
    </g>
</svg>