<svg xmlns="http://www.w3.org/2000/svg" width="136" height="136" viewBox="0 0 136 136">
    <defs>
        <linearGradient id="a" x1="25.001%" x2="75.013%" y1="6.696%" y2="93.32%">
            <stop offset="0%" stop-color="#F5515F"/>
            <stop offset="51.63%" stop-color="#ED1D46"/>
            <stop offset="100%" stop-color="#9F041B"/>
        </linearGradient>
    </defs>
    <g fill="none" fill-rule="evenodd">
        <circle cx="67.932" cy="67.897" r="67.795" fill="url(#a)"/>
        <path d="M35.88 98.856c4.988.342 12.711-3.143 16.333-2.494 7.518 1.332 8.919.342 12.848-.889 9.329-2.938 26.483.684 29.011-1.777 5.673-5.501 17.12-7.312 22.826-6.526 8.68 1.196 10.013-2.973 14.181-5.98 2.05-1.47 3.417-3.861 4.272-5.946.273-2.426.41-4.886.41-7.347 0-5.433-.65-10.73-1.845-15.82-1.128.956-2.597 1.913-4.477 2.767-7.176 3.349-18.315 12.985-31.13 12.336-12.848-.684-23.338 2.153-28.156 1.333-2.631-.445-12.37-1.265-14.352-1.846-7.005-2.016-14.01 7.518-25.184 12.336-11.105 4.818-26.346 4.818-28.943 3.007A67.398 67.398 0 0 0 6.22 95.815c11.789 4.955 25.15 2.768 29.66 3.041zM15.104 67.35c11.003-1.195 39.638-17.016 48.146-15 8.509 2.016 15.856 1.162 25.697 1.845 9.84.683 22.245-.137 23.304-.17 4.51-.172 12.917-3.589 16.163-5.16 1.094-.547 2.529-1.504 3.861-2.461a68.164 68.164 0 0 0-19.853-29.694c-1.88 2.255-6.014 6.39-11.823 7.79-8.167 2.017-16.163 2.837-19.82 4.17-3.143 1.161-12.608 2.904-16.128 3.485.41-.069.24-.034-.068 0-.513.068-.923.136-1.128.17-.751.069.479-.068 1.128-.17h.068c-.376.034-1.162.136-2.7.341-6.492.82-17.324 2.666-23.338 4.34-5.262 1.47-24.193.991-30.822-.137a67.49 67.49 0 0 0-7.45 26.79c2.256 1.846 7.177 4.716 14.763 3.862z"/>
        <path d="M34.068 31.54l6.835-.684s5.33-2.152 11.652-2.836c6.116-.65 45.925-4.408 58.124-12.746-4.34-3.52-9.09-6.526-14.215-8.884-.99.888-2.152 1.606-3.553 1.811-3.793.547-9.74 2.05-15.377 2.7-5.639.649-9.91.41-14.933.854s-10.49 1.093-14.933 2.187c-4.442 1.093-9.157.512-12.164.683-3.008.171-3.896-.888-8.782.889-1.401.512-2.427.854-3.144 1.127-3.725 3.212-7.073 6.834-10.046 10.798 4.954 1.538 15.41 4.58 20.536 4.1zM42.406 124.724c12.165 7.039 30.002-4.682 33.35-3.998 3.35.683 5.502-.684 6.493-1.675.991-.99 21.494-5.16 24.842-4.818 3.35.342 6.493-2.323 11.516-6.014 3.041-2.221 5.16-3.485 7.073-4.681a67.245 67.245 0 0 0 4.818-9.363c-4.168-1.06-10.592 3.52-15.376 3.69-2.016.069-5.673-1.161-11.345-2.323-5.672-1.162-15.172 7.176-25.833 5.843-4.1-.513-12.507-1.674-16.163-.513-3.656 1.162-6.493 5.673-11.652 4.34-4.135-1.06-12.678 4.51-15.172 6.014-1.504.923-10.012 2.085-17.017 2.426a66.531 66.531 0 0 0 9.328 8.475c6.766-1.299 11.14.273 15.138 2.597z"/>
        <path fill="#AA0C2B" d="M107.057 114.199c-3.348-.342-23.851 3.827-24.842 4.818-.99.991-3.178 2.324-6.492 1.674-3.315-.649-21.186 11.038-33.351 3.998-3.964-2.289-8.338-3.86-15.206-2.597 11.345 8.543 25.457 13.6 40.731 13.6 24.364 0 45.755-12.848 57.68-32.154-1.913 1.196-4.031 2.426-7.072 4.681-4.921 3.656-8.099 6.322-11.448 5.98zM50.06 105.212c5.16 1.333 7.996-3.178 11.653-4.34 3.656-1.161 12.062 0 16.162.513 10.662 1.333 20.161-7.005 25.834-5.843 5.672 1.162 9.328 2.392 11.344 2.323 4.784-.17 11.242-4.75 15.377-3.69a67.186 67.186 0 0 0 4.887-18.897c-.855 2.05-2.222 4.477-4.272 5.946-4.169 3.007-5.501 7.176-14.18 5.98-5.741-.786-17.154 1.025-22.827 6.527-2.528 2.46-19.682-1.162-29.01 1.777-3.896 1.23-5.332 2.22-12.85.888-3.621-.65-11.344 2.836-16.333 2.494-4.51-.307-17.871 1.88-29.728-3.007a67.679 67.679 0 0 0 11.72 17.77c6.971-.377 15.48-1.538 17.017-2.427 2.529-1.538 11.072-7.073 15.206-6.014zM30.549 79.037C41.723 74.22 48.728 64.72 55.733 66.702c1.982.58 11.72 1.366 14.351 1.845 4.819.82 15.343-2.016 28.157-1.333 12.848.683 23.988-8.987 31.13-12.336a20.296 20.296 0 0 0 4.476-2.767 53.86 53.86 0 0 0-1.64-5.673c-1.298.957-2.734 1.914-3.861 2.46-3.247 1.572-11.653 4.99-16.163 5.16-1.06.034-13.463.82-23.305.171-9.84-.65-17.188.171-25.696-1.845-8.509-2.016-37.144 13.805-48.147 15C7.45 68.206 2.563 65.37.24 63.525a63.292 63.292 0 0 0-.136 4.408c0 4.852.512 9.602 1.469 14.146 2.665 1.777 17.871 1.777 28.977-3.04zM35.538 14.625c3.007-.17 7.688.41 12.165-.683 4.442-1.094 9.91-1.743 14.932-2.187 5.023-.444 9.295-.205 14.933-.854 5.638-.65 11.55-2.153 15.377-2.7 1.4-.205 2.563-.888 3.553-1.811A67.56 67.56 0 0 0 67.966.103c-16.949 0-32.462 6.219-44.354 16.504.718-.24 1.709-.615 3.144-1.128 4.886-1.708 5.775-.683 8.782-.854zM38.579 36.87c6.014-1.674 16.846-3.485 23.339-4.34 1.537-.204 2.323-.307 2.7-.341 3.519-.581 12.984-2.324 16.128-3.485 3.656-1.333 11.652-2.153 19.819-4.17 5.809-1.435 9.944-5.535 11.823-7.79a75.51 75.51 0 0 0-1.709-1.435C98.48 23.646 58.671 27.405 52.555 28.054c-6.322.684-11.652 2.836-11.652 2.836l-6.835.684c-5.125.512-15.582-2.563-20.502-4.135a68.937 68.937 0 0 0-5.843 9.329c6.629 1.093 25.594 1.572 30.856.102z"/>
        <path fill="#AA0C2B" d="M64.583 32.189h-.068c.341-.034.512-.068.068 0zM63.387 32.36c.205-.034.58-.069 1.128-.171-.616.102-1.846.24-1.128.17z"/>
    </g>
</svg>
