<svg xmlns="http://www.w3.org/2000/svg" viewBox="0 0 231.17 48.13">
    <defs>
        <style>
            .a{fill:#231f20}.b{fill:#ff5a00}
        </style>
    </defs>
    <path class="a" d="M168.07 36.59h-1.8V12.77H158V11.1h18.36v1.67h-8.28v23.82zM187.35 36.93a8.26 8.26 0 0 1-6.44-2.54q-2.31-2.54-2.31-7.13a11.11 11.11 0 0 1 2.23-7.26 7.36 7.36 0 0 1 6-2.73 6.5 6.5 0 0 1 5.28 2.34 9.65 9.65 0 0 1 1.95 6.39v1.39h-13.65a9 9 0 0 0 1.82 6 6.41 6.41 0 0 0 5.12 2.06 15.84 15.84 0 0 0 2.85-.23 17.25 17.25 0 0 0 3.11-1v1.57a13.86 13.86 0 0 1-3 1 16.41 16.41 0 0 1-2.96.14zm-.51-18.13a5.68 5.68 0 0 0-4.39 1.8 8.51 8.51 0 0 0-1.93 5.2h11.71a8.26 8.26 0 0 0-1.43-5.15 4.72 4.72 0 0 0-3.96-1.85zM206.85 36.93a8.12 8.12 0 0 1-6.36-2.56 10.32 10.32 0 0 1-2.3-7.15q0-4.71 2.39-7.33a8.4 8.4 0 0 1 6.54-2.62 13.15 13.15 0 0 1 4.71.85l-.47 1.53a13.8 13.8 0 0 0-4.27-.82A6.49 6.49 0 0 0 201.8 21a9.44 9.44 0 0 0-1.79 6.2 9.15 9.15 0 0 0 1.79 6 6.15 6.15 0 0 0 5 2.17 12.32 12.32 0 0 0 4.79-.92V36a10.86 10.86 0 0 1-4.74.93zM229.46 36.59V24.3a6 6 0 0 0-1.2-4.16 4.85 4.85 0 0 0-3.73-1.3q-3.4 0-5 1.72T218 26.13v10.46h-1.73V9.46H218v8.63l-.09 2.42h.09a6.35 6.35 0 0 1 2.69-2.51 9.39 9.39 0 0 1 4-.77q6.45 0 6.45 6.92v12.44h-1.71z"/>
    <path class="b" d="M130.88 36.83a12.78 12.78 0 0 0 10.38-5.09 13.63 13.63 0 0 0 2.47-8 13.64 13.64 0 0 0-2.47-8 13.13 13.13 0 0 0-20.76 0 13.66 13.66 0 0 0-2.47 8 13.65 13.65 0 0 0 2.47 8 12.78 12.78 0 0 0 10.38 5.09m-6.27-16.1c.94-2.81 3.17-5.06 6.27-5.08s5.33 2.26 6.27 5.08a9.35 9.35 0 0 1 0 6c-.95 2.81-3.18 5.06-6.27 5.08s-5.33-2.26-6.27-5.08a9.33 9.33 0 0 1 0-6M37.6 36.93h4.31a.75.75 0 0 0 .75-.75V.75a.75.75 0 0 0-.75-.75H37.6a.74.74 0 0 0-.75.75v35.43a.75.75 0 0 0 .75.75M27.48 36.93h4.31a.75.75 0 0 0 .74-.75V.75a.75.75 0 0 0-.74-.75h-4.31a.74.74 0 0 0-.74.75v35.43a.75.75 0 0 0 .74.75M103.12 36.93h4.31a.75.75 0 0 0 .75-.75V21.72c0-4.51 3-6.67 7.87-5.67a.78.78 0 0 0 1-.86v-3c0-.77-.07-1.08-.64-1.24a16.71 16.71 0 0 0-3-.29 11.21 11.21 0 0 0-7.88 3.18 10 10 0 0 0-3.17 7.51v14.83a.75.75 0 0 0 .74.75M85.77 36.83a13.28 13.28 0 0 0 7.39-2.22v3.17c0 4.3-3.76 5.08-6.17 5.23a28.45 28.45 0 0 1-4.99-.28c-.66-.09-1.12 0-1.12.71v3.81a.65.65 0 0 0 .68.62c5.58.48 9.35.38 12.18-1.23a9.19 9.19 0 0 0 4.12-5.24 17.35 17.35 0 0 0 .71-5.24V23.74a13.46 13.46 0 0 0-2.47-8 13.13 13.13 0 0 0-20.76 0 14.12 14.12 0 0 0 0 16 12.78 12.78 0 0 0 10.38 5.09m-6.22-16.1c.93-2.81 3.17-5.08 6.27-5.08 6.93 0 7.16 7.07 7.16 8.09s-.23 8.09-7.16 8.09c-3.09 0-5.33-2.26-6.27-5.08a9.24 9.24 0 0 1 0-6M58.84 36.83c4.14.16 6.9-.56 9-1.76a1.16 1.16 0 0 0 .5-1.27v-3.33c0-.69-.41-1-1-.59a13.08 13.08 0 0 1-8.35 2 6.83 6.83 0 0 1-6.57-6.11h17a.69.69 0 0 0 .69-.69c.24-4.64-1.11-14.43-11.58-14.43-7.66 0-11 5.15-12.1 9.5a14.58 14.58 0 0 0-.43 3.59 13.64 13.64 0 0 0 2.47 8 13.18 13.18 0 0 0 10.38 5.09m-.32-21.17A5.15 5.15 0 0 1 64 21.19H52.4a5.8 5.8 0 0 1 6.13-5.53M2.67 35a10.55 10.55 0 0 0 6.69 1.92h12.69a.75.75 0 0 0 .74-.75v-15c0-3.42-.76-6.05-2.4-7.81s-5-2.69-8-2.69A17.42 17.42 0 0 0 3.59 13a.55.55 0 0 0-.27.48l.23 3.77a.67.67 0 0 0 1.1.39c3.76-2.34 8.27-2.77 10.56-1.62a4 4 0 0 1 2 3.62v.56H11c-2.69 0-11 1-11 8.59v.13A7.34 7.34 0 0 0 2.67 35m8.63-10.2h5.95v7.46H9.74a4.64 4.64 0 0 1-2.66-.93 3 3 0 0 1-1.26-2.46c0-1.36.94-4 5.47-4"/>
</svg>
