<svg width="245" height="45" viewBox="0 0 245 45" fill="none" xmlns="http://www.w3.org/2000/svg">
<path fill-rule="evenodd" clip-rule="evenodd" d="M214.136 2.14859C214.136 1.28262 214.862 0.592041 215.747 0.592041H230.345L243.91 13.0335H214.136V2.14859ZM243.389 14.7764C244.285 14.7764 245 15.4779 245 16.333V30.4406L232.126 43.5507V14.7764H243.389ZM228.711 44.5921C229.596 44.5921 230.322 43.9015 230.322 43.0355V32.1506H200.536L214.091 44.5921H228.711ZM201.058 30.4186C200.162 30.4186 199.447 29.7171 199.447 28.8621L199.459 14.7325L212.332 1.63339V30.4186H201.058Z" fill="#005EB8"/>
<path fill-rule="evenodd" clip-rule="evenodd" d="M125.188 5.83171C120.991 5.83171 116.704 8.26519 116.704 14.5243V16.1356C116.704 22.6578 120.832 25.1461 124.972 25.168H139.491C140.999 25.168 142.224 25.4092 142.224 27.8756V30.7256C142.19 32.9289 141.045 33.4441 139.445 33.4441H120.345L116.431 39.3414H139.888C145.548 39.3414 149.382 36.6229 149.382 30.3419V28.029C149.382 21.9563 145.809 19.0843 140.285 19.0843H126.424C124.882 19.0843 123.815 18.6787 123.815 16.4755V14.1626C123.815 12.2881 124.553 11.6085 126.345 11.6085L144.527 11.5975L148.327 5.82075L125.188 5.83171ZM155.802 5.84266V39.3305H186.415L182.536 33.4331H162.8V24.9378H181.912V19.2597H162.8V11.5975H182.502L186.302 5.84266H155.802ZM73.806 39.3414L90.2414 5.84266H97.1604L113.63 39.3414H105.826L102.639 32.4246H84.7743L81.5757 39.3414H73.806ZM100.007 26.7246L93.6896 12.8033L87.4171 26.7246H100.007ZM62.9851 5.84266V19.1282H43.8275V5.84266H36.8518V39.3414H43.8275V24.9488H62.9851V39.3414H69.9721V5.84266H62.9851ZM0 16.3001C0 10.0958 3.66366 5.8317 10.9229 5.8317V5.84266H32.7801L28.8896 11.7729H12.3294C8.4956 11.7729 7.21389 13.1979 7.21389 16.8591V28.2044C7.21389 31.9971 8.7338 33.2139 12.2387 33.2139H28.7194L32.7801 39.3414H10.8889C4.71852 39.3414 0 35.9872 0 28.8073V16.3001Z" fill="black"/>
</svg>
