<?xml version="1.0" encoding="UTF-8" standalone="no"?>
<!-- Created with Inkscape (http://www.inkscape.org/) -->

<svg
   version="1.1"
   id="svg2"
   xml:space="preserve"
   width="3733.3333"
   height="661.09784"
   viewBox="0 0 3733.3332 661.09784"
   sodipodi:docname="griddynamics.svg"
   inkscape:version="1.1.2 (0a00cf5339, 2022-02-04)"
   xmlns:inkscape="http://www.inkscape.org/namespaces/inkscape"
   xmlns:sodipodi="http://sodipodi.sourceforge.net/DTD/sodipodi-0.dtd"
   xmlns="http://www.w3.org/2000/svg"
   xmlns:svg="http://www.w3.org/2000/svg"><defs
     id="defs6" /><sodipodi:namedview
     id="namedview4"
     pagecolor="#ffffff"
     bordercolor="#666666"
     borderopacity="1.0"
     inkscape:pageshadow="2"
     inkscape:pageopacity="0.0"
     inkscape:pagecheckerboard="0"
     showgrid="false"
     inkscape:zoom="0.35149101"
     inkscape:cx="1219.0923"
     inkscape:cy="331.44518"
     inkscape:window-width="1846"
     inkscape:window-height="1016"
     inkscape:window-x="0"
     inkscape:window-y="0"
     inkscape:window-maximized="1"
     inkscape:current-layer="g8"
     fit-margin-top="0"
     fit-margin-left="0"
     fit-margin-right="0"
     fit-margin-bottom="0" /><g
     id="g8"
     inkscape:groupmode="layer"
     inkscape:label="GD logo black PDF"
     transform="matrix(1.3333333,0,0,-1.3333333,-99.999997,801.33375)"><g
       id="g10"
       transform="translate(741.39551,176.38428)"><path
         d="m 125.72764,35.791656 c 10.16517,0 19.07775,0.934937 26.62935,2.756882 7.52752,1.833924 14.72986,4.363053 21.59496,7.611374 v 43.966202 h -30.43527 c -2.90262,0 -5.22711,0.8031 -6.87714,2.385315 -1.68617,1.666107 -2.5413,3.631882 -2.5413,5.969238 v 25.459173 h 80.87568 V 26.094635 C 208.77124,21.599731 202.36381,17.764084 195.72755,14.443832 189.05516,11.183533 181.94917,8.402679 174.37349,6.341019 166.79779,4.2314 158.65602,2.613235 150.09271,1.570419 141.49329,0.51561 132.1712,1.98e-4 122.15057,1.98e-4 104.45788,1.98e-4 88.186394,3.044739 73.275887,9.1698 58.353329,15.330826 45.466217,23.829208 34.554325,34.808777 23.72674,45.668472 15.259788,58.75766 9.141419,73.908493 3.023052,89.023376 0,105.62457 0,123.58025 c 0,18.19538 2.98692,34.90446 8.912583,50.03132 5.925663,15.19879 14.344442,28.24002 25.304511,39.14768 10.87576,10.93161 24.136242,19.40602 39.709176,25.4232 15.572929,6.04115 33.09699,9.03776 52.41563,9.03776 19.84856,0 37.02333,-2.94865 51.56049,-8.81002 14.51305,-5.84937 26.77388,-13.46076 36.86679,-22.82215 l -13.10391,-20.38891 c -2.54129,-4.12332 -5.93772,-6.185 -10.26152,-6.185 -2.72196,0 -5.40778,0.86302 -8.18994,2.67297 -3.61322,2.13359 -7.28664,4.20725 -11.00824,6.31685 -3.75774,2.15755 -7.90088,3.97949 -12.51375,5.54971 -4.46834,1.57023 -9.59909,2.85277 -15.2357,3.85964 -5.64866,1.00685 -12.16448,1.45035 -19.61974,1.45035 -11.99586,0 -22.82343,-1.96576 -32.530922,-5.99321 -9.671364,-3.97949 -17.909477,-9.709 -24.726395,-17.22449 -6.8651,-7.46754 -12.140384,-16.40942 -15.861991,-26.89754 -3.661385,-10.48813 -5.504124,-22.19885 -5.504124,-35.16816 0,-13.92823 1.987266,-26.358158 5.889534,-37.265812 3.902263,-10.775787 9.406383,-20.017334 16.464184,-27.460907 7.10598,-7.467529 15.476585,-13.185043 25.196121,-17.140564 9.755673,-3.955521 20.438723,-5.921311 31.964853,-5.921311 z"
         style="fill:#000000;fill-opacity:1;fill-rule:evenodd;stroke:none"
         id="path12" /></g><g
       id="g14"
       transform="translate(994.0332,187.12695)"><path
         d="M 0,-1.68e-4 V 168.81866 h 23.819269 c 4.14453,0 7.040993,-0.75471 8.701159,-2.2995 1.648391,-1.52121 2.755172,-4.16268 3.308559,-7.87727 L 38.266254,138.194 c 6.028405,10.43622 13.104718,18.70262 21.158291,24.7285 8.135994,6.03767 17.249253,9.0565 27.316223,9.0565 8.324379,0 15.200532,-1.93394 20.746192,-5.75465 l -5.31018,-30.47134 c -0.35322,-1.98111 -1.03613,-3.33724 -2.09581,-4.19808 -1.153876,-0.82545 -2.578559,-1.19102 -4.46244,-1.19102 -1.660164,0 -3.909042,0.34198 -6.711311,1.09669 -2.896462,0.81366 -6.652435,1.15564 -11.362129,1.15564 -8.418579,0 -15.636181,-2.32309 -21.688134,-6.95747 C 49.805,120.98901 44.753853,114.14947 40.562225,105.14014 V -1.68e-4 Z"
         style="fill:#000000;fill-opacity:1;fill-rule:evenodd;stroke:none"
         id="path16" /></g><g
       id="g18"
       transform="translate(1117.666,181.73633)"><path
         d="M 5.412704,1.5e-5 H 47.482903 V 171.02556 H 5.412704 Z M 53.743481,220.89825 c 0,-3.57199 -0.695275,-6.90504 -2.171208,-10.03502 -1.475933,-3.08218 -3.403187,-5.79403 -5.830547,-8.17137 -2.476151,-2.30566 -5.367031,-4.16931 -8.599445,-5.57901 -3.317799,-1.37384 -6.842961,-2.06672 -10.599883,-2.06672 -3.622743,0 -7.038126,0.69288 -10.270542,2.06672 -3.244612,1.4097 -6.0745,3.27335 -8.440872,5.57901 -2.402965,2.37734 -4.232635,5.08919 -5.684172,8.17137 C 0.707472,213.99321 0,217.32626 0,220.89825 c 0,3.67952 0.707472,7.10816 2.146812,10.26201 1.451537,3.28528 3.281207,6.0688 5.684172,8.42226 2.366372,2.32956 5.19626,4.20515 8.440872,5.60289 3.232416,1.39773 6.647799,2.0309 10.270542,2.0309 3.756922,0 7.282084,-0.63317 10.599883,-2.0309 3.232414,-1.39774 6.123294,-3.27333 8.599445,-5.60289 2.42736,-2.35346 4.354614,-5.13698 5.830547,-8.42226 1.475933,-3.15385 2.171208,-6.58249 2.171208,-10.26201 z"
         style="fill:#000000;fill-opacity:1;fill-rule:evenodd;stroke:none"
         id="path20" /></g><g
       id="g22"
       transform="translate(1192.8979,181.73242)"><path
         d="m 76.724579,32.213303 c 8.4608,0 15.667267,1.723449 21.583908,5.27658 5.963973,3.482315 11.561123,8.463776 16.874263,15.015244 v 75.737213 c -4.62681,5.59531 -9.65596,9.58521 -15.13477,11.87526 -5.431479,2.32547 -11.324454,3.45869 -17.643424,3.45869 -6.141472,0 -11.691284,-1.13322 -16.684929,-3.45869 -5.029144,-2.29005 -9.241794,-5.77237 -12.756279,-10.44692 -3.467151,-4.73358 -6.094139,-10.61219 -7.999298,-17.82469 -1.822326,-7.1889 -2.816322,-15.652676 -2.816322,-25.45036 0,-9.892105 0.828331,-18.237839 2.402157,-25.084412 1.621158,-6.940994 3.904983,-12.477279 6.839638,-16.809509 2.95832,-4.355835 6.614803,-7.495804 10.910286,-9.408127 4.307315,-1.888702 9.111629,-2.880279 14.42477,-2.880279 z M 130.99437,2.44371 c -5.31314,0 -8.73296,2.419907 -10.40145,7.424988 l -3.37248,16.2901 C 113.70595,22.239731 110.04947,18.603958 106.16815,15.440384 102.33418,12.288605 98.168854,9.538177 93.778709,7.236313 89.2939,4.863617 84.442261,3.128372 79.365784,1.818085 74.277481,0.590424 68.727669,1.98e-4 62.763699,1.98e-4 c -9.241791,0 -17.72625,1.865097 -25.441544,5.689728 C 29.61869,9.538177 22.968388,15.168884 17.418581,22.428604 11.868775,29.759155 7.573297,38.75412 4.567645,49.566971 1.514659,60.30899 0,72.597397 0,86.432175 c 0,12.5363 1.703992,24.163665 5.123809,34.882075 3.419817,10.78923 8.295126,20.15014 14.696929,28.01189 6.330801,7.95618 14.057932,14.1535 22.93289,18.60376 8.922291,4.37946 18.921406,6.66951 30.092022,6.66951 9.478454,0 17.560577,-1.54639 24.222709,-4.5211 6.744971,-3.06916 12.756281,-7.08264 18.069421,-12.13495 v 89.27685 h 40.7183 V 2.44371 Z"
         style="fill:#000000;fill-opacity:1;fill-rule:evenodd;stroke:none"
         id="path24" /></g><g
       id="g26"
       transform="translate(1477.6514,181.76172)"><path
         d="m 168.91177,120.96911 c 0,13.26807 -1.77604,25.19376 -5.38815,35.72912 -3.5161,10.4994 -8.62823,19.42869 -15.24042,26.7519 -6.56418,7.29923 -14.55639,12.92049 -24.00065,16.75589 -9.46826,3.90731 -20.06456,5.88494 -31.920886,5.88494 h -47.0653 V 35.823303 h 47.0653 c 11.856326,0 22.452626,1.953644 31.920886,5.836991 9.44426,3.931274 17.43647,9.55252 24.00065,16.85176 6.61219,7.239319 11.72432,16.228531 15.24042,26.751908 3.61211,10.523361 5.38815,22.437078 5.38815,35.705148 m 46.06215,-0.0103 c 0,-17.73871 -2.97607,-34.015186 -8.83224,-48.853367 C 200.22551,57.291199 191.88528,44.478592 181.21698,33.811386 170.48869,23.060287 157.57634,14.778229 142.47992,8.881302 127.38351,2.972397 110.70305,-4.6e-5 92.414543,-4.6e-5 H 0 V 241.8457 h 92.414543 c 18.288507,0 34.968967,-2.97242 50.065377,-8.91729 15.09642,-5.99282 28.00877,-14.28685 38.73706,-24.93009 10.6683,-10.65521 19.00853,-23.4079 24.9247,-38.18616 5.85617,-14.86216 8.83224,-31.12664 8.83224,-48.85337"
         style="fill:#000000;fill-opacity:1;fill-rule:evenodd;stroke:none"
         id="path28" /></g><g
       id="g30"
       transform="translate(1703.3887,128.02393)"><path
         d="M 80.245186,8.840714 C 79.045746,5.941345 77.446487,3.778717 75.517967,2.269623 73.648247,0.80806 70.696671,3.1e-5 66.780838,3.1e-5 H 36.55954 L 68.074356,68.230148 0,225.72266 h 35.407131 c 3.316113,0 5.797314,-0.74862 7.537686,-2.29335 1.787407,-1.58039 3.080928,-3.32714 3.951114,-5.34719 L 82.8675,129.90105 c 1.187683,-2.91125 2.198983,-5.90567 3.116204,-8.93575 0.858429,-3.13702 1.658058,-6.2265 2.257782,-9.36352 0.917221,3.27961 1.834449,6.34533 2.916298,9.36352 1.03482,2.94689 2.08139,6.00073 3.351387,9.09021 l 33.807859,88.02661 c 0.84668,2.23393 2.31659,4.01633 4.38622,5.52542 1.97555,1.39028 4.2686,2.11512 6.74981,2.11512 h 32.52611 z"
         style="fill:#000000;fill-opacity:1;fill-rule:evenodd;stroke:none"
         id="path32" /></g><g
       id="g34"
       transform="translate(1891.522,181.76758)"><path
         d="M 0,-1.68e-4 V 169.34154 h 25.387846 c 5.42733,0 9.009371,-2.44823 10.601389,-7.39199 l 2.930756,-13.38838 c 3.437309,3.47719 7.103775,6.7415 10.975269,9.53272 3.883556,2.90948 7.960083,5.33406 12.289886,7.4866 4.341862,2.05794 8.912892,3.6546 13.857792,4.73088 4.944901,1.15906 10.360161,1.66763 16.197556,1.66763 9.431496,0 17.765466,-1.54936 25.074276,-4.68356 7.29674,-3.14604 13.37534,-7.53392 18.27201,-13.19914 4.86047,-5.72437 8.57519,-12.46587 11.09588,-20.34278 2.52069,-7.84143 3.79912,-16.49893 3.79912,-25.99616 V -1.68e-4 H 108.92049 V 107.75736 c 0,10.37245 -2.44832,18.39128 -7.34498,24.0565 -4.848421,5.65339 -12.205461,8.49193 -21.950541,8.49193 -7.188194,0 -13.954269,-1.60849 -20.189666,-4.75454 -6.295704,-3.22882 -12.229588,-7.58122 -17.886071,-13.08087 V -1.68e-4 Z"
         style="fill:#000000;fill-opacity:1;fill-rule:evenodd;stroke:none"
         id="path36" /></g><g
       id="g38"
       transform="translate(2068.9541,181.74902)"><path
         d="m 61.32338,28.419586 c 4.120468,0 7.959999,0.347351 11.436645,1.1259 3.464943,0.790528 6.765999,1.940384 9.868057,3.509461 3.113762,1.497208 6.133881,3.41365 9.013527,5.629517 2.879646,2.275756 5.806122,4.898864 8.685771,8.001083 v 28.686554 c -11.752711,0 -21.538829,-0.730637 -29.452006,-2.275757 C 63.020729,71.599129 56.664436,69.682701 51.853321,67.275185 47.053909,64.939537 43.67091,62.196648 41.657497,59.046516 39.644085,55.908371 38.649086,52.494728 38.649086,48.817581 c 0,-7.318359 2.071941,-12.56459 6.262646,-15.714722 4.179001,-3.114196 9.669059,-4.683273 16.411648,-4.683273 z m 78.4097,-25.748565 h -18.17924 c -3.86294,0 -6.7894,0.57492 -8.97841,1.748733 -2.2007,1.197769 -3.7927,3.557373 -4.93988,7.114746 l -3.5703,12.205261 C 99.816025,19.835037 95.695557,16.373489 91.586792,13.474884 87.513145,10.480469 83.263916,8.048996 78.921028,5.964874 74.554741,4.000534 69.907509,2.527267 65.061272,1.521149 60.121391,0.51503 54.689861,-1.5e-5 48.696453,-1.5e-5 41.602692,-1.5e-5 35.070812,0.982162 29.124226,2.946503 23.130817,4.934784 17.9217,7.809448 13.625642,11.738129 9.364702,15.678772 5.981704,20.517746 3.605411,26.338898 1.182294,32.148087 0,38.903503 0,46.641083 c 0,6.444 1.685647,12.876007 4.974998,19.23616 3.382999,6.264328 8.826232,11.977676 16.622347,17.08017 7.749293,5.078529 17.991938,9.282699 30.891814,12.624473 12.853057,3.353752 28.737938,5.054584 47.783401,5.054584 v 10.0852 c 0,11.58242 -2.376297,20.12251 -7.046944,25.69213 -4.752586,5.58161 -11.659057,8.34844 -20.707702,8.34844 -6.496758,0 -11.939991,-0.80249 -16.282875,-2.35959 -4.389702,-1.56908 -8.158997,-3.30585 -11.378113,-5.24623 -3.254234,-1.96434 -6.180702,-3.68914 -8.873055,-5.28215 -2.750881,-1.54514 -5.782705,-2.38358 -9.013528,-2.38358 -2.762587,0 -5.068644,0.81449 -6.988407,2.21588 -2.013413,1.42534 -3.570294,3.23398 -4.764294,5.35402 L 7.86635,150.26001 c 19.291289,18.06233 42.515749,27.09351 69.731917,27.09351 9.774406,0 18.553817,-1.64095 26.244583,-4.94678 7.72588,-3.26991 14.22264,-7.83341 19.47858,-13.67851 5.34959,-5.91698 9.3764,-12.81612 12.20922,-21.03283 2.786,-8.0969 4.20243,-17.0083 4.20243,-26.73417 z"
         style="fill:#000000;fill-opacity:1;fill-rule:evenodd;stroke:none"
         id="path40" /></g><g
       id="g42"
       transform="translate(2246.1904,181.76758)"><path
         d="M 0,-1.68e-4 V 169.34154 h 25.289015 c 5.401886,0 8.878824,-2.44823 10.563154,-7.39199 l 2.731022,-12.60778 c 2.95961,3.37074 6.159836,6.35119 9.492405,9.11876 3.296474,2.75573 6.79747,5.10934 10.527061,7.11996 3.765679,1.98697 7.759953,3.53633 12.079052,4.68358 4.367226,1.1354 9.071327,1.71493 14.196503,1.71493 10.851898,0 19.826968,-2.86218 26.828968,-8.6102 7.002,-5.78349 12.22342,-13.51847 15.65223,-23.06301 2.73103,5.61792 6.06361,10.4434 10.13006,14.41734 4.01833,4.06856 8.43367,7.32103 13.22199,9.84022 4.84846,2.54285 9.92552,4.3879 15.37553,5.59427 5.40189,1.2182 10.8519,1.82138 16.35004,1.82138 9.51646,0 17.99824,-1.43109 25.33711,-4.29327 7.37497,-2.82669 13.59495,-7.049 18.64795,-12.54865 5.07706,-5.47598 8.89087,-12.21748 11.51361,-20.11804 2.63476,-7.92422 3.91005,-16.99568 3.91005,-27.26168 V -1.68e-4 H 200.43529 V 107.75736 c 0,10.8337 -2.44229,18.94716 -7.25466,24.3995 -4.8244,5.45233 -11.87452,8.14893 -21.17444,8.14893 -4.23487,0 -8.18103,-0.73328 -11.80233,-2.16437 -3.65741,-1.38379 -6.85764,-3.48903 -9.57663,-6.1738 -2.73102,-2.67294 -4.89658,-6.06735 -6.44857,-10.11224 -1.6362,-4.11587 -2.34603,-8.77578 -2.34603,-14.09802 V -1.68e-4 H 100.14545 V 107.75736 c 0,11.34228 -2.297901,19.63314 -6.90575,24.78979 -4.704094,5.19214 -11.513595,7.75864 -20.584915,7.75864 -5.967346,0 -11.513599,-1.4784 -16.735023,-4.38788 -5.18533,-2.90949 -10.009732,-6.90709 -14.545395,-11.94547 V -1.68e-4 Z"
         style="fill:#000000;fill-opacity:1;fill-rule:evenodd;stroke:none"
         id="path44" /></g><g
       id="g46"
       transform="translate(2514.9604,181.729)"><path
         d="M 5.422275,1.5e-5 H 47.463844 V 171.03288 H 5.422275 Z M 53.743481,220.93201 c 0,-3.61943 -0.694802,-6.95217 -2.169731,-10.01017 -1.47493,-3.15356 -3.425251,-5.86514 -5.863148,-8.17059 -2.474468,-2.37712 -5.278053,-4.19281 -8.569214,-5.57846 -3.327732,-1.3976 -6.850494,-2.09042 -10.568291,-2.09042 -3.644659,0 -7.094286,0.69282 -10.287933,2.09042 -3.181459,1.38565 -6.094747,3.20134 -8.42294,5.57846 -2.42571,2.30545 -4.315081,5.01703 -5.716873,8.17059 C 0.71918,213.97984 0,217.31258 0,220.93201 c 0,3.63137 0.71918,7.08357 2.145351,10.3088 1.401792,3.1894 3.291163,5.97266 5.716873,8.32589 2.328193,2.32933 5.241481,4.20474 8.42294,5.60234 3.193647,1.39759 6.643274,2.05459 10.287933,2.05459 3.717797,0 7.240559,-0.657 10.568291,-2.05459 3.291161,-1.3976 6.094746,-3.27301 8.569214,-5.60234 2.437897,-2.35323 4.388218,-5.13649 5.863148,-8.32589 1.474929,-3.22523 2.169731,-6.67743 2.169731,-10.3088 z"
         style="fill:#000000;fill-opacity:1;fill-rule:evenodd;stroke:none"
         id="path48" /></g><g
       id="g50"
       transform="translate(2590.1753,176.39307)"><path
         d="m 132.52019,138.29437 c -1.22626,-1.62346 -2.44049,-2.83804 -3.61866,-3.71591 -1.16615,-0.91394 -2.90936,-1.33484 -5.12144,-1.33484 -2.15196,0 -4.17168,0.63736 -6.19141,1.9241 -1.97163,1.29876 -4.41212,2.7298 -7.23733,4.35326 -2.76509,1.63548 -6.08321,3.06653 -9.90625,4.3653 -3.895181,1.31079 -8.692025,1.9722 -14.414567,1.9722 -7.285423,0 -13.66919,-1.35891 -19.115227,-3.96845 -5.446033,-2.63361 -10.050518,-6.4337 -13.669186,-11.32811 -3.654735,-4.9305 -6.335674,-10.91925 -8.126976,-17.8941 -1.851413,-6.97485 -2.71701,-14.935787 -2.71701,-23.738529 0,-9.139458 0.985817,-17.413063 2.957451,-24.484116 1.971634,-7.203338 4.748752,-13.216133 8.403484,-18.086502 3.738892,-4.8824 8.27124,-8.538177 13.476837,-11.039505 5.265702,-2.489288 11.180596,-3.776031 17.804802,-3.776031 6.624207,0 11.90194,0.793686 16.013512,2.441192 4.08753,1.623459 7.51385,3.40326 10.27895,5.375458 2.8252,1.960159 5.2657,3.715897 7.33351,5.315308 2.10387,1.671554 4.36404,2.441177 6.99689,2.441177 3.28204,0 5.86681,-1.262665 7.53789,-3.824127 L 145.10739,28.188004 C 140.50291,22.788498 135.52573,18.314972 130.17587,14.683243 124.76591,11.03949 119.18763,8.105255 113.45306,5.988739 107.68243,3.73996 101.75551,2.164597 95.612183,1.334839 89.456841,0.420883 83.349586,-1.5e-5 77.290421,-1.5e-5 66.674858,-1.5e-5 56.672432,1.972198 47.283131,5.988739 37.845737,9.909088 29.670673,15.693405 22.67378,23.293579 15.724976,30.929825 10.134675,40.237656 6.095232,51.229042 2.019722,62.268547 0,74.835289 0,88.929291 c 0,12.674979 1.779279,24.351839 5.446036,35.126769 3.606646,10.85912 8.944481,20.17896 15.965419,28.06775 7.093071,7.85272 15.821158,14.06995 26.208296,18.5074 10.423206,4.5096 22.373222,6.72231 35.922188,6.72231 12.81562,0 24.092411,-2.0203 33.806301,-6.18116 9.67784,-4.14883 18.36984,-10.08947 26.06402,-17.82194 z"
         style="fill:#000000;fill-opacity:1;fill-rule:evenodd;stroke:none"
         id="path52" /></g><g
       id="g54"
       transform="translate(2746.0156,176.39307)"><path
         d="m 117.67754,141.19569 c -1.1343,-1.80189 -2.3048,-3.09924 -3.53563,-3.81999 -1.26704,-0.7568 -2.77541,-1.08113 -4.7182,-1.08113 -2.02726,0 -4.18726,0.56459 -6.50412,1.64571 -2.30481,1.11717 -4.899212,2.41453 -8.012508,3.79597 -3.016755,1.40547 -6.455849,2.65479 -10.317299,3.79598 -3.909714,1.08113 -8.434845,1.64572 -13.720192,1.64572 -8.205574,0 -14.661427,-1.7298 -19.367565,-5.18943 -4.669934,-3.47163 -7.07127,-7.97634 -7.07127,-13.59823 0,-3.66382 1.122234,-6.76307 3.620105,-9.2737 2.365136,-2.4866 5.611164,-4.72093 9.617413,-6.66697 3.957981,-1.84993 8.483108,-3.65181 13.527122,-5.04528 4.995751,-1.5376 10.184563,-3.18332 15.518181,-4.99723 5.225022,-1.80188 10.413842,-3.77194 15.506123,-6.090368 4.99575,-2.258362 9.47261,-5.18943 13.52713,-8.709107 3.95798,-3.519683 7.1678,-7.724082 9.56913,-12.673255 2.44961,-4.925156 3.66838,-10.835335 3.66838,-17.778595 0,-8.264641 -1.59284,-15.880608 -4.6096,-22.895958 C 121.40626,27.280533 116.96559,21.274246 111.07689,16.1689 105.23645,11.099594 98.020378,7.087402 89.440727,4.26445 80.861076,1.453506 71.014397,-1.5e-5 59.936874,-1.5e-5 c -5.936973,0 -11.789478,0.516556 -17.43684,1.645736 C 36.792336,2.678802 31.374243,4.156342 26.137157,5.982254 20.900072,7.928299 16.049133,10.162613 11.668805,12.721298 7.312613,15.291977 3.390832,18.090912 0,21.142105 l 9.569144,15.760498 c 1.230836,1.89798 2.666811,3.339478 4.356194,4.348541 1.701449,1.033081 3.825244,1.549622 6.419652,1.549622 2.54614,0 4.995744,-0.780823 7.252277,-2.210327 2.353068,-1.477539 5.04401,-3.051178 8.060764,-4.720932 3.065026,-1.633698 6.600659,-3.231369 10.703446,-4.684891 4.054516,-1.453522 9.23127,-2.186294 15.602653,-2.186294 4.899212,0 9.09853,0.588607 12.682438,1.789871 3.535637,1.141189 6.455849,2.714843 8.760651,4.636856 2.316864,1.861954 3.957985,4.084274 5.044014,6.594909 1.086029,2.510621 1.604912,5.117341 1.604912,7.772118 0,4.024208 -1.230835,7.339676 -3.632172,9.898354 -2.401329,2.582702 -5.61116,4.805031 -9.569145,6.727043 -4.006249,1.861946 -8.579651,3.567734 -13.671929,5.04528 -5.128482,1.573647 -10.317298,3.195336 -15.687122,4.973191 -5.285354,1.765846 -10.558639,3.916099 -15.602651,6.294586 -5.140549,2.438553 -9.71395,5.465721 -13.671931,9.141571 -3.957981,3.687858 -7.143674,8.216589 -9.545009,13.586209 -2.497873,5.38163 -3.680441,11.80835 -3.680441,19.41231 0,7.06339 1.411842,13.7664 4.223456,20.14507 2.775415,6.36667 6.926467,11.91647 12.392825,16.68545 5.418091,4.73296 12.211823,8.54094 20.369126,11.35188 8.145237,2.90703 17.533374,4.3005 28.22475,4.3005 11.886009,0 22.673927,-1.92202 32.484408,-5.85012 9.71395,-3.9161 17.85918,-9.08151 24.41157,-15.43615 z"
         style="fill:#000000;fill-opacity:1;fill-rule:evenodd;stroke:none"
         id="path56" /></g><g
       id="g58"
       transform="translate(290.0918,181.73535)"><path
         d="M 285.72525,162.03683 C 258.88773,288.86645 120.19018,407.45013 22.908632,418.44434 H 19.408627 C 11.510357,413.43838 5.301091,407.92081 0,400.60715 c 56.675423,-5.24268 106.15227,-43.06552 162.99373,-103.79981 44.15204,-47.21937 73.68159,-122.6284 80.92761,-202.084775 2.91737,-31.444092 2.30069,-63.50351 -2.17024,-94.722748 45.56329,49.811127 55.71481,106.640043 43.97415,162.037013 z"
         style="fill:#f29100;fill-opacity:1;fill-rule:evenodd;stroke:none"
         id="path60" /></g><g
       id="g62"
       transform="translate(161.89746,98.339355)"><path
         d="m 371.60355,183.97412 c 2.91931,-31.86667 4.48577,-66.96091 0,-98.623603 C 319.79169,26.296402 141.41205,-2.14e-4 27.902977,8.350388 10.754978,33.01825 2.219153,59.974884 0,88.506111 144.23306,61.246674 295.84381,105.32729 371.60355,183.97412 Z"
         style="fill:#ea5b25;fill-opacity:1;fill-rule:evenodd;stroke:none"
         id="path64" /></g><g
       id="g66"
       transform="translate(268.50977,241.93848)"><path
         d="M 155.43625,214.11587 C 189.30286,160.91515 182.5054,65.025131 144.79936,9.703049 l -4.8174,1.156021 C 114.71181,21.465836 89.05529,46.02829 66.670731,77.562592 142.2639,168.07771 100.39246,236.83105 47.485691,250.91782 31.693348,255.17244 14.935113,254.52888 0,248.11716 c 50.793873,23.88311 118.00792,20.77258 155.43625,-34.00129 z"
         style="fill:#0069b3;fill-opacity:1;fill-rule:evenodd;stroke:none"
         id="path68" /></g><g
       id="g70"
       transform="translate(273.8457,457.16699)"><path
         d="m 0.462863,41.770817 c 11.392038,4.710129 33.792073,6.789848 51.992104,5.396751 C 39.056313,35.365685 20.189495,15.953936 6.254893,0.966694 2.92959,13.696686 1.327685,29.373112 0,41.564571 v 0.03437 c 0.19489,0.06875 0.292334,0.137497 0.462863,0.171871 z"
         style="fill:#a9aa00;fill-opacity:1;fill-rule:evenodd;stroke:none"
         id="path72" /></g><g
       id="g74"
       transform="translate(75,106.49756)"><path
         d="m 88.024651,79.051514 c -4.776848,60.089906 20.663759,126.001416 57.082739,184.877506 -3.11273,27.68209 -4.19022,55.34066 -3.95077,80.02948 C 81.33226,289.32489 9.464041,183.74629 0.856135,104.11748 -3.633384,62.611969 9.080936,28.200836 49.761971,11.749481 66.774254,5.774658 89.796516,1.909271 116.37447,1.53e-4 l -0.29635,0.021392 C 98.766533,24.250763 90.251457,51.027649 88.024651,79.051514 Z"
         style="fill:#a9aa00;fill-opacity:1;fill-rule:evenodd;stroke:none"
         id="path76" /></g><g
       id="g78"
       transform="translate(214.7168,155.84961)"><path
         d="m 188.58333,106.28833 c -11.90003,5.95001 -39.45809,29.52966 -61.58398,60.77563 -26.48186,37.32747 -48.380995,84.64496 -59.491682,130.13227 -3.258019,13.13135 -5.56131,26.07376 -6.850197,38.65008 v 0.0354 c -3.675717,35.49713 1.062137,67.56977 17.47158,89.84107 5.346497,7.29782 12.905983,13.63495 20.854126,18.61822 -29.596672,3.29465 -56.083713,-3.31408 -73.006325,-22.59778 h -0.08354 C 13.052177,407.15942 5.056303,385.32498 3.946427,354.98828 1.869886,339.45978 0.318448,317.31836 0.032029,291.98859 -0.206654,267.23743 0.867418,239.52248 3.970295,211.79553 15.761227,106.76849 57.184635,2.485352 170.92894,67.539795 c 20.45439,14.248505 22.40546,20.197601 31.6544,33.848545 0,0 -2.09999,-1.05002 -14.00001,4.89999 z"
         style="fill:#62b8e8;fill-opacity:1;fill-rule:evenodd;stroke:none"
         id="path80" /></g></g></svg>
