<?xml version="1.0" encoding="UTF-8" standalone="no"?>
<svg
   xmlns:dc="http://purl.org/dc/elements/1.1/"
   xmlns:cc="http://creativecommons.org/ns#"
   xmlns:rdf="http://www.w3.org/1999/02/22-rdf-syntax-ns#"
   xmlns:svg="http://www.w3.org/2000/svg"
   xmlns="http://www.w3.org/2000/svg"
   viewBox="0 0 272 82.666664"
   height="82.666664"
   width="272"
   xml:space="preserve"
   id="svg2"
   version="1.1"><metadata
     id="metadata8"><rdf:RDF><cc:Work
         rdf:about=""><dc:format>image/svg+xml</dc:format><dc:type
           rdf:resource="http://purl.org/dc/dcmitype/StillImage" /></cc:Work></rdf:RDF></metadata><defs
     id="defs6"><clipPath
       id="clipPath18"
       clipPathUnits="userSpaceOnUse"><path
         id="path16"
         d="M 0,62 H 204 V 0 H 0 Z" /></clipPath></defs><g
     transform="matrix(1.3333333,0,0,-1.3333333,0,82.666667)"
     id="g10"><g
       id="g12"><g
         clip-path="url(#clipPath18)"
         id="g14"><path
           id="path20"
           style="fill:#231f20;fill-opacity:1;fill-rule:nonzero;stroke:none"
           d="m 134.465,36.255 h -1.221 v 6.852 h 1.221 z m -1.427,8.742 c 0,0.467 0.384,0.822 0.837,0.822 0.453,0 0.822,-0.355 0.822,-0.822 0,-0.452 -0.369,-0.822 -0.822,-0.822 -0.453,0 -0.837,0.37 -0.837,0.822" /><g
           transform="translate(139.1768,36.1192)"
           id="g22"><path
             id="path24"
             style="fill:#231f20;fill-opacity:1;fill-rule:nonzero;stroke:none"
             d="m 0,0 c -0.904,0 -1.686,0.425 -1.686,1.835 v 4.152 h -1.329 v 0.891 h 0.398 c 0.711,0 1.055,0.302 1.055,0.959 V 8.714 H -0.48 V 6.987 h 1.63 v -1 H -0.48 V 1.946 c 0,-0.631 0.3,-0.864 0.684,-0.864 0.261,0 0.466,0.096 0.603,0.191 L 1.123,0.314 C 0.863,0.149 0.506,0 0,0" /></g><g
           transform="translate(149.3272,44.6963)"
           id="g26"><path
             id="path28"
             style="fill:#231f20;fill-opacity:1;fill-rule:nonzero;stroke:none"
             d="M 0,0 H -2.78 V -8.441 H -4.041 V 0 H -6.809 V 1.15 H 0 Z" /></g><g
           transform="translate(154.4248,40.3526)"
           id="g30"><path
             id="path32"
             style="fill:#231f20;fill-opacity:1;fill-rule:nonzero;stroke:none"
             d="M 0,0 C -0.028,1.015 -0.741,1.891 -1.933,1.891 -3.058,1.891 -3.811,1.137 -4.016,0 Z m 1.136,-0.933 h -5.194 c 0.082,-1.329 0.782,-2.26 2.195,-2.26 0.779,0 1.505,0.343 1.82,1.084 h 1.165 c -0.356,-1.412 -1.602,-2.124 -2.985,-2.124 -2.084,0 -3.373,1.424 -3.373,3.602 0,2.057 1.384,3.522 3.261,3.522 1.809,0 3.276,-1.205 3.111,-3.824" /></g><g
           transform="translate(160.1768,37.2139)"
           id="g34"><path
             id="path36"
             style="fill:#231f20;fill-opacity:1;fill-rule:nonzero;stroke:none"
             d="M 0,0 C 1.232,0 2.043,1.014 2.043,2.467 2.043,3.934 1.232,4.934 0,4.934 -1.234,4.934 -2.097,3.92 -2.097,2.467 -2.097,1.015 -1.219,0 0,0 M 3.232,5.893 V -0.959 H 2.342 L 2.137,0.015 H 2 c -0.396,-0.576 -1.041,-1.111 -2.164,-1.111 -1.782,0.001 -3.139,1.439 -3.139,3.563 0,2.138 1.385,3.562 3.18,3.562 1.013,0 1.781,-0.424 2.166,-1.164 v 1.028 z" /></g><g
           transform="translate(175.1963,40.4346)"
           id="g38"><path
             id="path40"
             style="fill:#231f20;fill-opacity:1;fill-rule:nonzero;stroke:none"
             d="m 0,0 v -4.18 h -1.247 v 4.112 c 0,1.191 -0.63,1.754 -1.44,1.754 -0.766,0 -1.52,-0.618 -1.52,-1.809 V -4.18 h -1.248 v 4.016 c 0,1.232 -0.656,1.85 -1.424,1.85 -0.725,0 -1.534,-0.563 -1.534,-1.768 V -4.18 H -9.66 v 6.852 h 0.945 l 0.192,-0.863 h 0.11 c 0.315,0.507 0.974,1 1.905,1 1.082,0 1.726,-0.726 1.958,-1.288 h 0.111 c 0.3,0.616 0.959,1.274 2.082,1.274 C -0.973,2.795 0,1.918 0,0" /></g><g
           transform="translate(180.6035,44.9131)"
           id="g42"><path
             id="path44"
             style="fill:#231f20;fill-opacity:1;fill-rule:nonzero;stroke:none"
             d="M 0,0 H -1.438 V -4.272 H -2.432 V 0 h -1.43 V 0.918 H 0 Z" /></g><g
           transform="translate(187.4112,40.6407)"
           id="g46"><path
             id="path48"
             style="fill:#231f20;fill-opacity:1;fill-rule:nonzero;stroke:none"
             d="M 0,0 H -0.964 V 3.574 H -1.046 L -2.275,0.445 H -3.263 L -4.486,3.574 H -4.568 V 0 h -0.971 v 5.19 h 1.32 l 1.416,-3.484 h 0.082 L -1.32,5.19 H 0 Z" /></g><g
           transform="translate(127.832,37.3096)"
           id="g50"><path
             id="path52"
             style="fill:#231f20;fill-opacity:1;fill-rule:nonzero;stroke:none"
             d="M 0,0 C 0.875,0 1.641,0.602 1.641,1.928 V 8.525 H 2.914 V 1.832 c 0,-1.983 -1.287,-3.023 -2.888,-3.023 H -1.352 V 0 Z" /></g><g
           transform="translate(14.5879,40.3135)"
           id="g54"><path
             id="path56"
             style="fill:#231f20;fill-opacity:1;fill-rule:nonzero;stroke:none"
             d="m 0,0 h 13.775 v -16.859 c 0,-2.751 -0.095,-2.803 -6.066,-8.657 l -0.68,-0.67 3.713,-3.979 1.219,1.182 c 6.648,6.462 7.348,7.142 7.348,12.489 V 5.537 L 0,5.537 Z" /></g><g
           transform="translate(94.9395,34.7842)"
           id="g58"><path
             id="path60"
             style="fill:#231f20;fill-opacity:1;fill-rule:nonzero;stroke:none"
             d="M 0,0 V 11.066 H -5.562 V -16.617 H 0 V -5.55 H 12.429 V 0 Z" /></g><g
           transform="translate(59.5,18.167)"
           id="g62"><path
             id="path64"
             style="fill:#231f20;fill-opacity:1;fill-rule:nonzero;stroke:none"
             d="M 0,0 10.447,27.684 H 4.312 L -6.143,0 Z" /></g></g></g></g></svg>