<svg xmlns="http://www.w3.org/2000/svg" height="70" width="165"><defs><clipPath id="a"><path d="M0 298.338h281.309V0H0z"/></clipPath></defs><g clip-path="url(#a)" transform="matrix(1.33333 0 0 -1.39886 -104.02 244.28)"><path d="M99.29 170.821H83.42a1.895 1.895 0 0 1-1.893-1.89v-15.368c.072 0 .14-.006.21-.006 9.581 0 17.396 7.721 17.552 17.264" fill="#2d5a9c"/><path d="M107.394 170.821h-2.092c-.154-12.863-10.664-23.277-23.565-23.277-.07 0-.138.007-.21.007v-2.59c0-1.046.855-1.896 1.893-1.896h23.974c1.038 0 1.895.85 1.895 1.895v23.97a1.897 1.897 0 0 1-1.895 1.891" fill="#2d5a9c"/><path d="M137.072 155.708c0-1.42-1.198-2.539-2.617-2.539-1.458 0-2.619 1.119-2.619 2.539 0 1.422 1.161 2.547 2.62 2.547 1.418 0 2.616-1.125 2.616-2.547m-9.1 14.201c0-1.267-1.068-2.269-2.333-2.269-1.3 0-2.333 1.002-2.333 2.269 0 1.266 1.033 2.268 2.333 2.268 1.265 0 2.332-1.002 2.332-2.268m-7.864-28.631c-.734.201-1.267.735-1.267 1.465 0 .869.668 1.533 1.534 1.533.23 0 .366-.027.633-.027 1.666 0 2.867.627 2.867 2.998v15.127c0 1.033.73 1.799 1.765 1.799 1 0 1.735-.766 1.735-1.799v-15.6c0-3.863-2.302-5.697-5.734-5.697-.633 0-1.1.068-1.533.201m21.438 7.6v22.13c0 1.036.73 1.8 1.767 1.8.998 0 1.733-.764 1.733-1.8v-22.13c0-1.033-.735-1.803-1.733-1.803-1.001 0-1.767.77-1.767 1.803m18.016 4.767v.297h-4.202c-1.9 0-2.898-.7-2.898-2 0-1.332 1.13-2.17 2.866-2.17 2.369 0 4.234 1.703 4.234 3.873m3.53 3.7v-8.5c0-1.034-.731-1.77-1.731-1.77s-1.733.77-1.733 1.77v.198c-1.2-1.267-2.932-1.968-5.035-1.968-3.397 0-5.7 1.903-5.7 4.737 0 2.862 2.338 4.665 6.038 4.665h4.63v1.066c0 2.233-1.267 3.5-3.5 3.5-1.364 0-2.6-.502-3.63-1.533-.435-.366-.802-.532-1.2-.532-.836 0-1.534.697-1.534 1.467 0 .502.234.963.698 1.43 1.4 1.466 3.566 2.298 5.968 2.298 4.229 0 6.73-2.53 6.73-6.828m18.08-1.701c0 3.064-2.1 5.332-5 5.332-2.964 0-4.933-2.164-4.933-5.365 0-3.166 1.999-5.334 4.933-5.334 2.9 0 5 2.265 5 5.367m3.6-.033c0-4.936-3.4-8.535-8-8.535-2.334 0-4.298.902-5.533 2.398v-.596c0-1.066-.73-1.802-1.7-1.802-1.03 0-1.764.769-1.764 1.802v22.13c0 1.036.765 1.8 1.765 1.8.999 0 1.735-.734 1.735-1.8v-9.233c1.235 1.5 3.163 2.398 5.464 2.398 4.634 0 8.034-3.631 8.034-8.562m2.943-6a1.445 1.445 0 0 0-.5 1.132c0 .832.698 1.531 1.567 1.531.367 0 .732-.129 1.102-.463 1.03-.97 2.266-1.7 3.83-1.7 1.435 0 2.634.603 2.634 1.831 0 1.064-.968 1.502-2.3 2.035l-1.668.697c-2.63 1.102-4.265 2.303-4.265 4.77 0 3.031 2.534 4.73 5.769 4.73 2.098 0 3.93-.767 5.196-1.998a1.53 1.53 0 0 0 .534-1.168c0-.834-.665-1.498-1.467-1.498-.367 0-.664.164-1.098.498-.867.668-2.002 1.133-3.235 1.133-1.3 0-2.234-.5-2.234-1.564 0-.904.67-1.336 2.168-1.936l1.567-.63c2.965-1.235 4.466-2.534 4.466-4.932 0-3.3-2.797-5.004-6.066-5.004-2.534 0-4.6 1.033-6 2.535" fill="#1b2647"/><path d="M85.936 133.278a.247.247 0 0 0-.239-.146.497.497 0 0 0-.222.074 2.883 2.883 0 0 1-.301.158c-.12.057-.269.11-.428.17-.168.045-.36.066-.588.066a1.92 1.92 0 0 1-.528-.066 1.564 1.564 0 0 1-.402-.213 1.092 1.092 0 0 1-.255-.303.825.825 0 0 1-.08-.377.62.62 0 0 1 .146-.422c.096-.11.224-.214.384-.29.16-.087.341-.157.548-.217.202-.069.41-.13.632-.207a7.63 7.63 0 0 0 .625-.235c.208-.09.387-.197.543-.326.164-.133.292-.289.394-.475.097-.193.144-.42.144-.68 0-.31-.05-.587-.161-.845a1.82 1.82 0 0 0-.482-.672 2.28 2.28 0 0 0-.785-.449c-.31-.115-.66-.16-1.07-.16-.457 0-.872.078-1.245.22a3.396 3.396 0 0 0-.953.575l.277.447a.31.31 0 0 0 .125.133.335.335 0 0 0 .185.045.44.44 0 0 0 .246-.094c.09-.059.194-.125.321-.203.117-.074.272-.139.441-.199.18-.06.401-.092.663-.092.224 0 .427.031.595.09.171.056.308.136.423.24a.903.903 0 0 1 .251.344.99.99 0 0 1 .08.41.699.699 0 0 1-.144.455c-.1.117-.229.223-.387.308a3.454 3.454 0 0 1-.55.221c-.209.063-.42.135-.632.195a7.468 7.468 0 0 0-.635.241c-.205.095-.39.2-.55.334a1.56 1.56 0 0 0-.537 1.218c0 .254.055.497.16.727.107.23.255.43.456.611.2.178.447.317.736.422.294.104.623.153.998.153.431 0 .82-.065 1.168-.2.348-.138.644-.326.897-.562zm4.875-4.699c.652 0 1.14.217 1.454.656.33.434.488 1.041.488 1.824 0 .788-.157 1.4-.488 1.84-.314.442-.802.66-1.453.66-.328 0-.621-.06-.857-.167a1.662 1.662 0 0 1-.615-.493 2.345 2.345 0 0 1-.366-.785 4.529 4.529 0 0 1-.112-1.055c0-.39.037-.736.112-1.046.087-.305.203-.573.366-.778.16-.213.364-.37.615-.486.236-.107.529-.17.857-.17m0 5.885c.482 0 .917-.074 1.308-.237.386-.16.718-.394.987-.685.27-.297.476-.652.62-1.07.148-.42.22-.89.22-1.405 0-.519-.072-.986-.22-1.404a2.956 2.956 0 0 0-.62-1.068 2.608 2.608 0 0 0-.987-.678 3.42 3.42 0 0 0-1.308-.24c-.482 0-.915.08-1.312.24a2.712 2.712 0 0 0-.99.678c-.27.293-.485.646-.634 1.068a4.313 4.313 0 0 0-.22 1.404c0 .514.077.985.22 1.405.148.418.364.773.634 1.07.28.291.605.525.99.685.397.163.83.237 1.312.237m5.158-6.7v5.606l-.73.088a.612.612 0 0 0-.225.102c-.056.043-.088.109-.088.2v.474h1.043v.635c0 .386.054.712.157 1.003.112.299.26.543.459.752.202.2.438.35.709.455.279.104.595.153.94.153.298 0 .57-.031.823-.125l-.028-.58c0-.088-.04-.141-.111-.158a1.21 1.21 0 0 0-.294-.028h-.2c-.201 0-.378-.023-.542-.074a1.11 1.11 0 0 1-.424-.252 1.277 1.277 0 0 1-.27-.465 2.555 2.555 0 0 1-.09-.713v-.603h1.908v-.84H97.14v-5.63zm6.45-.1c-.518 0-.92.144-1.198.431-.278.295-.42.713-.42 1.263v4.035h-.793a.298.298 0 0 0-.183.061c-.046.043-.065.111-.065.191v.463l1.076.14.272 2.04c.01.061.038.115.084.154.046.05.108.07.185.07h.582v-2.279h1.89v-.84h-1.89v-3.959c0-.279.07-.484.208-.62a.688.688 0 0 1 .512-.204.8.8 0 0 1 .32.055 1.259 1.259 0 0 1 .4.217c.042.025.085.05.122.05.059 0 .118-.044.163-.119l.333-.552a2.242 2.242 0 0 0-.72-.44 2.333 2.333 0 0 0-.878-.158m2.327 6.703h.922a.387.387 0 0 0 .226-.074.37.37 0 0 0 .13-.172l1.257-4.248c.035-.15.066-.305.096-.449.037-.14.061-.29.081-.442.035.151.08.301.117.442.044.144.091.298.14.45l1.395 4.282a.392.392 0 0 0 .11.156.336.336 0 0 0 .207.065h.502a.317.317 0 0 0 .21-.065c.065-.04.094-.103.121-.156l1.363-4.283c.05-.15.09-.299.124-.449.035-.14.068-.29.107-.434.025.143.047.293.086.45.035.156.072.302.116.433l1.283 4.248a.358.358 0 0 0 .334.246h.878l-2.134-6.602h-.92c-.11 0-.188.08-.234.223l-1.46 4.475c-.035.103-.06.201-.083.308-.017.098-.045.198-.068.3-.019-.102-.045-.202-.067-.308a2.666 2.666 0 0 0-.077-.308l-1.488-4.467c-.043-.144-.13-.223-.259-.223h-.876zm13.008-5.888c.2 0 .387.02.556.059.173.039.329.105.48.175.152.075.293.174.433.278.135.109.263.232.395.373v1.369a9.29 9.29 0 0 1-1.36-.125c-.37-.068-.682-.152-.91-.264a1.274 1.274 0 0 1-.515-.385.866.866 0 0 1-.155-.488c0-.18.02-.328.085-.457a.806.806 0 0 1 .23-.305.948.948 0 0 1 .333-.181 1.64 1.64 0 0 1 .428-.05m3.01-.712h-.516a.778.778 0 0 0-.28.05c-.064.036-.112.114-.13.229l-.133.61a9.824 9.824 0 0 0-.505-.424 2.838 2.838 0 0 0-.523-.311 2.577 2.577 0 0 0-.583-.187 3.088 3.088 0 0 0-.685-.068c-.26 0-.503.037-.721.105-.22.074-.421.178-.586.318a1.62 1.62 0 0 0-.392.55c-.098.212-.143.48-.143.777 0 .26.067.51.209.755.149.243.377.452.695.64.32.187.735.339 1.26.454.502.12 1.145.197 1.887.21v.519c0 .504-.107.896-.325 1.154-.226.264-.545.396-.974.396-.287 0-.517-.033-.71-.103a3.21 3.21 0 0 1-.507-.242c-.138-.088-.264-.168-.363-.24a.48.48 0 0 0-.304-.11.333.333 0 0 0-.202.063.467.467 0 0 0-.142.152l-.214.364c.37.359.76.616 1.187.796.42.175.884.257 1.396.257.37 0 .698-.063.986-.178.287-.124.522-.292.722-.51a2.03 2.03 0 0 0 .44-.788c.104-.308.157-.646.157-1.011zm2.079 0v6.602h.67c.123 0 .204-.03.256-.075a.437.437 0 0 0 .1-.25l.077-1.025c.226.457.509.816.837 1.074.33.264.72.389 1.166.389.187 0 .349-.016.5-.063.15-.041.279-.1.407-.17l-.15-.867c-.031-.111-.1-.166-.196-.166-.065 0-.158.026-.287.065a1.667 1.667 0 0 1-.526.066c-.405 0-.741-.12-1.013-.353-.27-.233-.498-.581-.678-1.02v-4.207zm8.22 5.85c-.567 0-1.007-.16-1.329-.485-.319-.325-.516-.774-.595-1.348h3.587c0 .27-.035.518-.11.746a1.65 1.65 0 0 1-.326.572 1.362 1.362 0 0 1-.53.377 1.604 1.604 0 0 1-.697.137m-.034.85c.398 0 .766-.065 1.095-.194.338-.135.626-.324.87-.568.242-.26.433-.565.568-.932.14-.37.206-.779.206-1.25 0-.187-.019-.312-.057-.367-.04-.059-.115-.094-.225-.094h-4.39c.01-.414.07-.779.172-1.088.1-.308.244-.564.428-.769.183-.209.404-.36.65-.463.254-.098.54-.152.846-.152.292 0 .546.033.756.105.208.061.387.135.544.213.153.076.279.156.385.221a.509.509 0 0 0 .26.1.273.273 0 0 0 .22-.11l.327-.424a2.098 2.098 0 0 0-.517-.453 2.725 2.725 0 0 0-.64-.314 3.718 3.718 0 0 0-.7-.184 4.311 4.311 0 0 0-.73-.065c-.454 0-.878.075-1.261.231a2.633 2.633 0 0 0-.995.678c-.278.3-.501.66-.656 1.103-.156.442-.231.944-.231 1.51 0 .461.07.895.21 1.29.138.4.343.745.613 1.046.26.28.587.514.966.682.385.166.813.248 1.287.248m12.155-1.184a.256.256 0 0 0-.238-.15.561.561 0 0 0-.222.076c-.08.045-.183.103-.301.162a3.697 3.697 0 0 1-.428.162c-.17.045-.36.08-.59.08-.191 0-.37-.035-.525-.08a1.277 1.277 0 0 1-.403-.207 1.036 1.036 0 0 1-.255-.305.83.83 0 0 1-.081-.37c0-.167.047-.313.147-.434a1.31 1.31 0 0 1 .384-.284 3.77 3.77 0 0 1 .549-.222c.2-.063.41-.123.632-.198.21-.076.42-.152.624-.236.209-.088.387-.199.542-.324.165-.137.293-.295.395-.483a1.5 1.5 0 0 0 .145-.679 2.09 2.09 0 0 0-.163-.844 1.881 1.881 0 0 0-.481-.672 2.367 2.367 0 0 0-.786-.447 3.177 3.177 0 0 0-1.07-.168c-.455 0-.871.084-1.244.23a2.974 2.974 0 0 0-.953.58l.277.436a.272.272 0 0 0 .126.13c.044.034.105.048.184.048a.402.402 0 0 0 .245-.09 3.65 3.65 0 0 1 .323-.205c.117-.072.27-.137.44-.197.18-.059.4-.094.663-.094.225 0 .427.035.595.088.172.062.308.14.423.24a.906.906 0 0 1 .25.348.963.963 0 0 1 .082.418.71.71 0 0 1-.144.451c-.101.117-.23.22-.388.304a3.244 3.244 0 0 1-.551.22 32.03 32.03 0 0 0-.631.195c-.211.074-.431.156-.635.234a2.49 2.49 0 0 0-.55.342 1.525 1.525 0 0 0-.384.5c-.1.201-.152.44-.152.715 0 .26.054.498.16.73.105.232.254.436.455.613.199.178.447.313.737.42.293.098.622.153.997.153.432 0 .82-.067 1.168-.202.348-.14.644-.326.898-.564zm5.143.264c-.38 0-.71-.086-.996-.256-.285-.174-.543-.426-.783-.74v-3.186c.213-.295.447-.494.695-.611.265-.12.545-.174.858-.174.61 0 1.081.219 1.408.653.335.44.502 1.062.502 1.878 0 .428-.042.799-.123 1.106a2.089 2.089 0 0 1-.323.762 1.212 1.212 0 0 1-.527.427 1.688 1.688 0 0 1-.71.14m-2.94-8.013v8.834h.692c.162 0 .263-.078.313-.24l.096-.783c.285.346.604.62.964.828.368.21.784.314 1.258.314.374 0 .723-.072 1.03-.218a2.16 2.16 0 0 0 .787-.647c.217-.287.39-.637.501-1.06.118-.412.173-.91.173-1.45 0-.486-.062-.941-.194-1.363a3.394 3.394 0 0 0-.564-1.084 2.673 2.673 0 0 0-.888-.722 2.661 2.661 0 0 0-1.2-.262c-.41 0-.755.064-1.042.199a2.329 2.329 0 0 0-.766.572v-2.918zm10.153 8.086c-.557 0-.997-.168-1.316-.486-.325-.32-.527-.772-.601-1.346h3.587c0 .271-.038.516-.107.744a1.733 1.733 0 0 1-.331.58 1.42 1.42 0 0 1-.527.371 1.674 1.674 0 0 1-.705.137m-.024.85c.399 0 .761-.06 1.091-.196.34-.129.628-.32.871-.572.242-.25.432-.562.572-.926.134-.369.201-.785.201-1.248 0-.189-.018-.312-.054-.367-.036-.072-.122-.094-.224-.094h-4.392c.01-.418.066-.785.173-1.09.1-.31.248-.564.429-.769.183-.209.393-.365.652-.46a2.13 2.13 0 0 1 .845-.155c.291 0 .54.031.75.097a3.485 3.485 0 0 1 .926.442.541.541 0 0 0 .262.095c.096 0 .174-.033.223-.103l.327-.428a2.478 2.478 0 0 0-.51-.457 4.152 4.152 0 0 0-.648-.31 3.4 3.4 0 0 0-.705-.184 3.856 3.856 0 0 0-.724-.064c-.46 0-.874.076-1.266.232a2.76 2.76 0 0 0-.993.674c-.278.295-.494.67-.652 1.103-.157.438-.232.946-.232 1.51 0 .461.071.895.209 1.29.142.403.34.751.608 1.044.262.291.595.52.972.69.377.167.811.246 1.289.246m9.042-1.27a.322.322 0 0 0-.104-.109c-.037-.034-.081-.045-.153-.045a.338.338 0 0 0-.207.084c-.078.047-.174.111-.291.177a2.571 2.571 0 0 1-.426.176 2.034 2.034 0 0 1-.618.082c-.322 0-.603-.052-.85-.174a1.55 1.55 0 0 1-.623-.496 2.35 2.35 0 0 1-.377-.787 3.963 3.963 0 0 1-.127-1.037c0-.4.047-.754.136-1.06.092-.315.219-.575.38-.784.17-.21.37-.369.608-.48.236-.113.5-.166.796-.166.28 0 .52.031.695.094a2.455 2.455 0 0 1 .76.457.353.353 0 0 0 .23.095c.1 0 .178-.033.227-.103l.324-.428a2.574 2.574 0 0 0-1.076-.773 3.843 3.843 0 0 0-1.362-.243c-.413 0-.797.077-1.155.231a2.553 2.553 0 0 0-.92.656 3.112 3.112 0 0 0-.61 1.065 4.19 4.19 0 0 0-.23 1.44c0 .49.069.948.204 1.364.136.412.342.774.604 1.077.26.302.592.537.972.707.39.171.83.25 1.333.25.46 0 .866-.073 1.222-.223a2.99 2.99 0 0 0 .948-.633zm3.2-5.425h-1.163v6.594h1.163zm.26 8.667a.78.78 0 0 0-.068-.318.97.97 0 0 0-.186-.264.922.922 0 0 0-.263-.175.82.82 0 0 0-.321-.067.753.753 0 0 0-.309.067c-.1.043-.186.107-.268.175a.906.906 0 0 0-.175.264.78.78 0 0 0 0 .639.739.739 0 0 0 .175.265.95.95 0 0 0 .268.178c.096.047.2.065.309.065a.753.753 0 0 0 .321-.065.805.805 0 0 0 .263-.178.804.804 0 0 0 .254-.586m3.944-7.962c.21 0 .396.02.563.066.167.04.325.096.475.172.152.073.298.168.44.278.129.107.268.232.393.37v1.376a10.157 10.157 0 0 1-1.36-.125c-.373-.074-.677-.155-.916-.268-.227-.105-.401-.234-.505-.381a.81.81 0 0 1-.162-.496c0-.176.03-.326.082-.445a.856.856 0 0 1 .564-.492 1.71 1.71 0 0 1 .426-.055m3.018-.705h-.525c-.104 0-.2.012-.275.05-.063.032-.11.106-.134.219l-.127.612a6.534 6.534 0 0 0-.51-.416 3.255 3.255 0 0 0-.52-.317 2.81 2.81 0 0 0-.58-.193 3.68 3.68 0 0 0-.693-.068c-.252 0-.497.039-.72.113a1.578 1.578 0 0 0-.978.867 1.976 1.976 0 0 0-.141.776c0 .26.074.513.214.753.143.24.373.455.696.643.316.18.736.346 1.25.455.518.125 1.15.188 1.896.209v.514c0 .513-.108.896-.324 1.164-.22.262-.548.392-.981.392-.277 0-.52-.035-.714-.107a2.39 2.39 0 0 1-.502-.24 7.99 7.99 0 0 1-.355-.242.552.552 0 0 0-.308-.11.323.323 0 0 0-.203.069.402.402 0 0 0-.137.148l-.21.367c.36.36.758.617 1.172.793.422.172.888.262 1.402.262.373 0 .695-.067.985-.186a1.92 1.92 0 0 0 .717-.51c.2-.214.349-.476.449-.785.099-.308.156-.644.156-1.015zm3.366 0h-1.158v9.592h1.158zm3.662 0h-1.161v6.594h1.161zm.259 8.667a.812.812 0 0 0-.248-.582 1.086 1.086 0 0 0-.263-.175.79.79 0 0 0-.638 0 1.049 1.049 0 0 0-.263.175c-.07.081-.134.17-.176.264a.797.797 0 0 0-.069.318.864.864 0 0 0 .245.586.899.899 0 0 0 .263.178c.1.047.204.065.317.065a.75.75 0 0 0 .321-.065.926.926 0 0 0 .263-.178.839.839 0 0 0 .248-.586m5.893-3.158c-.054-.096-.135-.15-.24-.15a.534.534 0 0 0-.227.076c-.08.045-.184.103-.299.162a3.727 3.727 0 0 1-.426.162 2.25 2.25 0 0 1-.593.08c-.187 0-.366-.035-.524-.08a1.224 1.224 0 0 1-.4-.207.837.837 0 0 1-.255-.305.826.826 0 0 1-.09-.37c0-.167.052-.313.148-.434.1-.106.227-.204.388-.284.163-.084.342-.152.546-.222.208-.063.413-.123.63-.198.217-.076.423-.152.626-.236.212-.088.392-.199.552-.324.158-.137.286-.295.386-.483.098-.19.146-.423.146-.679 0-.31-.05-.586-.162-.844a1.848 1.848 0 0 0-.482-.672 2.456 2.456 0 0 0-.787-.447 3.15 3.15 0 0 0-1.068-.168c-.458 0-.87.084-1.247.23a2.934 2.934 0 0 0-.945.58l.266.436a.414.414 0 0 0 .123.13.34.34 0 0 0 .192.048.405.405 0 0 0 .247-.09c.088-.063.196-.133.316-.205.124-.072.273-.137.448-.197.181-.059.403-.094.67-.094.22 0 .417.035.585.088.165.062.313.14.42.24a.872.872 0 0 1 .257.348c.055.123.08.261.08.418a.71.71 0 0 1-.144.451 1.28 1.28 0 0 1-.395.304c-.16.081-.343.16-.548.22-.21.062-.414.126-.63.195-.216.074-.422.156-.637.234a2.812 2.812 0 0 0-.547.342 1.488 1.488 0 0 0-.385.5 1.6 1.6 0 0 0-.149.715 1.798 1.798 0 0 0 .613 1.343c.2.178.446.313.735.42.294.098.621.153 1 .153.435 0 .825-.067 1.167-.202a2.79 2.79 0 0 0 .894-.564zm4.197-5.623c-.519 0-.926.146-1.2.441-.278.29-.422.71-.422 1.264v4.03h-.796a.3.3 0 0 0-.174.056.28.28 0 0 0-.07.2v.466l1.081.135.264 2.035a.272.272 0 0 0 .091.166.283.283 0 0 0 .174.06h.59v-2.277h1.888v-.842h-1.889v-3.959c0-.277.07-.482.204-.615.131-.139.303-.199.518-.199.125 0 .228.012.318.043.083.033.164.07.232.111.067.035.122.073.166.106a.182.182 0 0 0 .125.047c.06 0 .111-.034.161-.108l.334-.558a2.047 2.047 0 0 0-.719-.436 2.459 2.459 0 0 0-.876-.166m6.963 5.623a.255.255 0 0 0-.238-.15.5.5 0 0 0-.22.076c-.084.045-.19.103-.306.162a3.282 3.282 0 0 1-.426.162c-.165.045-.36.08-.588.08-.197 0-.376-.035-.525-.08a1.184 1.184 0 0 1-.399-.207.862.862 0 0 1-.259-.305.81.81 0 0 1-.087-.37c0-.167.051-.313.15-.434a1.27 1.27 0 0 1 .385-.284c.155-.084.347-.152.541-.222.212-.063.421-.123.637-.198.21-.076.424-.152.627-.236.204-.088.392-.199.545-.324.163-.137.296-.295.392-.483.098-.19.144-.423.144-.679a2.16 2.16 0 0 0-.162-.844 1.896 1.896 0 0 0-.482-.672 2.456 2.456 0 0 0-.785-.447 3.207 3.207 0 0 0-1.069-.168c-.457 0-.872.084-1.247.23a3.058 3.058 0 0 0-.954.58l.278.436a.33.33 0 0 0 .312.178.435.435 0 0 0 .248-.09 2.797 2.797 0 0 1 .761-.402c.173-.059.403-.094.663-.094.23 0 .424.035.594.088.17.062.306.14.425.24a.993.993 0 0 1 .33.766.681.681 0 0 1-.152.451c-.093.117-.223.22-.38.304a3.22 3.22 0 0 1-.55.22c-.209.062-.423.126-.634.195-.218.074-.423.156-.63.234a2.394 2.394 0 0 0-.553.342 1.463 1.463 0 0 0-.385.5 1.549 1.549 0 0 0-.148.715 1.808 1.808 0 0 0 .611 1.343c.202.178.445.313.734.42.293.098.625.153 1.002.153.437 0 .82-.067 1.167-.202.341-.14.641-.326.9-.564z" fill="#2d5a9c"/></g></svg>
