<?xml version="1.0" encoding="UTF-8" standalone="no"?>
<!-- Created with Inkscape (http://www.inkscape.org/) -->

<svg
   version="1.1"
   id="svg2"
   xml:space="preserve"
   width="237.8936"
   height="86.169334"
   viewBox="0 0 237.8936 86.169331"
   sodipodi:docname="match-trade.svg"
   inkscape:version="1.1.2 (0a00cf5339, 2022-02-04)"
   xmlns:inkscape="http://www.inkscape.org/namespaces/inkscape"
   xmlns:sodipodi="http://sodipodi.sourceforge.net/DTD/sodipodi-0.dtd"
   xmlns="http://www.w3.org/2000/svg"
   xmlns:svg="http://www.w3.org/2000/svg"><defs
     id="defs6"><clipPath
       clipPathUnits="userSpaceOnUse"
       id="clipPath16"><path
         d="M 0,100.255 H 249.683 V 0 H 0 Z"
         id="path14" /></clipPath></defs><sodipodi:namedview
     id="namedview4"
     pagecolor="#ffffff"
     bordercolor="#666666"
     borderopacity="1.0"
     inkscape:pageshadow="2"
     inkscape:pageopacity="0.0"
     inkscape:pagecheckerboard="0"
     showgrid="false"
     inkscape:zoom="4.0190961"
     inkscape:cx="118.80781"
     inkscape:cy="42.920098"
     inkscape:window-width="1846"
     inkscape:window-height="1016"
     inkscape:window-x="74"
     inkscape:window-y="27"
     inkscape:window-maximized="1"
     inkscape:current-layer="g8"
     fit-margin-top="0"
     fit-margin-left="0"
     fit-margin-right="0"
     fit-margin-bottom="0" /><g
     id="g8"
     inkscape:groupmode="layer"
     inkscape:label="Logo"
     transform="matrix(1.3333333,0,0,-1.3333333,-47.504132,109.9116)"><g
       id="g10"><g
         id="g12"
         clip-path="url(#clipPath16)"><g
           id="g18"
           transform="translate(109.2334,35.6514)"><path
             d="m 0,0 c -2.147,0 -3.22,1.206 -3.22,3.615 v 8.718 h 2.493 V 10.659 H 1.496 V 8.539 H -0.727 V 3.532 c 0,-0.817 0.325,-1.225 0.976,-1.225 H 1.454 V 0 Z"
             style="fill:#646563;fill-opacity:1;fill-rule:nonzero;stroke:none"
             id="path20" /></g><g
           id="g22"
           transform="translate(118.6446,42.8194)"><path
             d="M 0,0 C 0,0.748 -0.332,1.122 -0.997,1.122 H -2.701 C -3.352,1.122 -3.677,0.748 -3.677,0 V -0.872 H 0 Z m -2.701,-7.168 c -2.257,0 -3.386,1.185 -3.386,3.553 v 3.553 c 0,2.369 1.129,3.553 3.386,3.553 h 1.662 c 2.258,0 3.387,-1.184 3.387,-3.553 v -2.743 h -6.025 v -0.748 c 0,-0.734 0.325,-1.1 0.976,-1.1 h 4.758 v -2.515 z"
             style="fill:#646563;fill-opacity:1;fill-rule:nonzero;stroke:none"
             id="path24" /></g><g
           id="g26"
           transform="translate(126.3521,35.6514)"><path
             d="m 0,0 c -2.258,0 -3.387,1.185 -3.387,3.553 v 3.511 c 0,2.397 1.129,3.595 3.387,3.595 H 3.72 V 8.124 H 0.062 c -0.65,0 -0.976,-0.381 -0.976,-1.143 V 3.615 c 0,-0.734 0.326,-1.1 0.976,-1.1 H 3.761 V 0 Z"
             style="fill:#646563;fill-opacity:1;fill-rule:nonzero;stroke:none"
             id="path28" /></g><g
           id="g30"
           transform="translate(138.4439,35.6514)"><path
             d="m 0,0 v 7.023 c 0,0.734 -0.284,1.101 -0.852,1.101 h -1.995 c -0.65,0 -0.975,-0.374 -0.975,-1.121 V 0 h -2.452 v 12.333 h 2.452 V 9.496 c 0.262,0.456 0.551,0.765 0.861,0.924 0.313,0.159 0.766,0.239 1.361,0.239 h 1.413 c 1.759,0 2.638,-1.156 2.638,-3.47 L 2.451,0 Z"
             style="fill:#646563;fill-opacity:1;fill-rule:nonzero;stroke:none"
             id="path32" /></g><g
           id="g34"
           transform="translate(149.3316,35.6514)"><path
             d="M 0,0 V 7.023 C 0,7.757 -0.284,8.124 -0.853,8.124 H -2.909 C -3.56,8.124 -3.886,7.75 -3.886,7.003 V 0 h -2.451 v 10.659 h 2.368 V 9.496 c 0.249,0.456 0.537,0.765 0.863,0.924 0.325,0.159 0.778,0.239 1.36,0.239 h 1.538 c 1.759,0 2.639,-1.156 2.639,-3.47 V 0 Z"
             style="fill:#646563;fill-opacity:1;fill-rule:nonzero;stroke:none"
             id="path36" /></g><g
           id="g38"
           transform="translate(160.0103,42.6954)"><path
             d="m 0,0 c 0,0.72 -0.305,1.08 -0.914,1.08 h -1.953 c -0.596,0 -0.894,-0.332 -0.894,-0.997 v -3.532 c 0,-0.347 0.07,-0.613 0.209,-0.8 0.138,-0.188 0.366,-0.28 0.685,-0.28 h 1.953 c 0.609,0 0.914,0.332 0.914,0.997 z m -2.742,-7.044 c -1.247,0 -2.141,0.291 -2.681,0.873 -0.54,0.582 -0.81,1.502 -0.81,2.764 v 3.386 c 0,1.289 0.277,2.215 0.831,2.785 0.554,0.566 1.441,0.851 2.66,0.851 h 1.723 c 1.248,0 2.141,-0.288 2.681,-0.862 0.541,-0.575 0.811,-1.5 0.811,-2.774 V -3.407 C 2.473,-4.627 2.21,-5.537 1.684,-6.14 1.156,-6.743 0.325,-7.044 -0.81,-7.044 Z"
             style="fill:#646563;fill-opacity:1;fill-rule:nonzero;stroke:none"
             id="path40" /></g><path
           d="m 164.54,47.984 h 2.472 V 35.651 h -2.472 z"
           style="fill:#646563;fill-opacity:1;fill-rule:nonzero;stroke:none"
           id="path42" /><g
           id="g44"
           transform="translate(175.3218,42.6954)"><path
             d="m 0,0 c 0,0.72 -0.305,1.08 -0.914,1.08 h -1.953 c -0.596,0 -0.894,-0.332 -0.894,-0.997 v -3.532 c 0,-0.347 0.07,-0.613 0.209,-0.8 0.138,-0.188 0.366,-0.28 0.685,-0.28 h 1.953 c 0.609,0 0.914,0.332 0.914,0.997 z m -2.742,-7.044 c -1.247,0 -2.141,0.291 -2.681,0.873 -0.54,0.582 -0.81,1.502 -0.81,2.764 v 3.386 c 0,1.289 0.277,2.215 0.831,2.785 0.554,0.566 1.441,0.851 2.66,0.851 h 1.723 c 1.248,0 2.141,-0.288 2.681,-0.862 0.541,-0.575 0.811,-1.5 0.811,-2.774 V -3.407 C 2.473,-4.627 2.21,-5.537 1.684,-6.14 1.156,-6.743 0.325,-7.044 -0.81,-7.044 Z"
             style="fill:#646563;fill-opacity:1;fill-rule:nonzero;stroke:none"
             id="path46" /></g><g
           id="g48"
           transform="translate(185.732,43.7754)"><path
             d="M 0,0 H -2.515 C -3.18,0 -3.512,-0.367 -3.512,-1.101 v -2.514 c 0,-0.721 0.332,-1.08 0.997,-1.08 H 0 Z M -4.135,-11.427 V -9.1 h 3.157 C -0.326,-9.1 0,-8.698 0,-7.896 v 0.916 h -2.598 c -2.257,0 -3.386,1.155 -3.386,3.468 v 2.493 c 0,2.37 1.129,3.554 3.386,3.554 h 5.07 V -7.791 c 0,-2.424 -1.075,-3.636 -3.221,-3.636 z"
             style="fill:#646563;fill-opacity:1;fill-rule:nonzero;stroke:none"
             id="path50" /></g><path
           d="m 190.468,46.311 h 2.493 V 35.652 h -2.493 z"
           style="fill:#646563;fill-opacity:1;fill-rule:nonzero;stroke:none"
           id="path52" /><g
           id="g54"
           transform="translate(201.2095,42.8194)"><path
             d="M 0,0 C 0,0.748 -0.333,1.122 -0.997,1.122 H -2.701 C -3.353,1.122 -3.677,0.748 -3.677,0 V -0.872 H 0 Z m -2.701,-7.168 c -2.258,0 -3.387,1.185 -3.387,3.553 v 3.553 c 0,2.369 1.129,3.553 3.387,3.553 h 1.662 c 2.258,0 3.387,-1.184 3.387,-3.553 v -2.743 h -6.025 v -0.748 c 0,-0.734 0.324,-1.1 0.976,-1.1 h 4.758 v -2.515 z"
             style="fill:#646563;fill-opacity:1;fill-rule:nonzero;stroke:none"
             id="path56" /></g><g
           id="g58"
           transform="translate(205.5923,35.6514)"><path
             d="m 0,0 v 2.515 h 5.299 c 0.526,0 0.789,0.249 0.789,0.747 v 0.375 c 0,0.498 -0.263,0.747 -0.789,0.747 H 2.847 c -1.039,0 -1.818,0.205 -2.337,0.613 -0.52,0.409 -0.78,1.064 -0.78,1.964 v 0.582 c 0,1.094 0.263,1.886 0.79,2.379 0.526,0.491 1.322,0.737 2.388,0.737 H 8.162 V 8.124 H 2.806 C 2.307,8.124 2.058,7.875 2.058,7.376 V 7.189 c 0,-0.54 0.27,-0.81 0.81,-0.81 h 2.514 c 0.997,0 1.759,-0.204 2.285,-0.612 0.525,-0.41 0.789,-1.05 0.789,-1.923 V 3.159 C 8.456,1.053 7.432,0 5.382,0 Z"
             style="fill:#646563;fill-opacity:1;fill-rule:nonzero;stroke:none"
             id="path60" /></g><g
           id="g62"
           transform="translate(117.6504,53.9336)"><path
             d="m 0,0 v 7.1 c 0,0.742 -0.294,1.113 -0.882,1.113 h -1.534 c -0.63,0 -0.945,-0.371 -0.945,-1.113 V 0 h -2.458 v 7.1 c 0,0.742 -0.294,1.113 -0.882,1.113 h -1.471 c -0.658,0 -0.987,-0.378 -0.987,-1.134 V 0 h -2.478 v 10.776 h 2.394 V 9.6 c 0.252,0.462 0.542,0.774 0.872,0.935 0.329,0.16 0.788,0.241 1.376,0.241 h 0.987 c 1.05,0 1.764,-0.42 2.143,-1.26 0.252,0.49 0.605,0.822 1.06,0.998 0.455,0.174 0.977,0.262 1.565,0.262 h 1.03 c 1.778,0 2.668,-1.169 2.668,-3.508 L 2.458,0 Z"
             style="fill:#646563;fill-opacity:1;fill-rule:nonzero;stroke:none"
             id="path64" /></g><g
           id="g66"
           transform="translate(128.6148,58.4922)"><path
             d="M 0,0 H -3.088 C -3.592,0 -3.844,-0.273 -3.844,-0.819 V -1.45 c 0,-0.49 0.252,-0.735 0.756,-0.735 H 0 Z m -3.444,-4.559 c -1.822,0 -2.732,0.974 -2.732,2.92 v 1.051 c 0,1.68 0.917,2.52 2.752,2.52 H 0 v 0.61 c 0,0.742 -0.336,1.113 -1.008,1.113 h -4.516 v 2.563 h 4.516 c 2.269,0 3.404,-1.197 3.404,-3.593 v -7.184 z"
             style="fill:#646563;fill-opacity:1;fill-rule:nonzero;stroke:none"
             id="path68" /></g><g
           id="g70"
           transform="translate(136.7437,53.9336)"><path
             d="m 0,0 c -2.171,0 -3.256,1.218 -3.256,3.655 v 8.795 h 2.521 V 10.776 H 1.513 V 8.634 H -0.735 V 3.571 c 0,-0.826 0.329,-1.239 0.987,-1.239 H 1.471 V 0 Z"
             style="fill:#646563;fill-opacity:1;fill-rule:nonzero;stroke:none"
             id="path72" /></g><g
           id="g74"
           transform="translate(143.9273,53.9336)"><path
             d="m 0,0 c -2.282,0 -3.424,1.197 -3.424,3.592 v 3.55 c 0,2.423 1.142,3.634 3.424,3.634 H 3.76 V 8.213 H 0.063 c -0.659,0 -0.987,-0.385 -0.987,-1.155 V 3.655 c 0,-0.742 0.328,-1.113 0.987,-1.113 h 3.74 V 0 Z"
             style="fill:#646563;fill-opacity:1;fill-rule:nonzero;stroke:none"
             id="path76" /></g><g
           id="g78"
           transform="translate(156.5533,53.9336)"><path
             d="m 0,0 v 7.1 c 0,0.742 -0.287,1.113 -0.861,1.113 h -2.017 c -0.659,0 -0.987,-0.378 -0.987,-1.134 V 0 h -2.48 v 12.45 h 2.48 V 9.6 c 0.265,0.462 0.556,0.774 0.871,0.935 0.315,0.16 0.774,0.241 1.376,0.241 h 1.429 c 1.778,0 2.668,-1.169 2.668,-3.508 L 2.479,0 Z"
             style="fill:#646563;fill-opacity:1;fill-rule:nonzero;stroke:none"
             id="path80" /></g><g
           id="g82"
           transform="translate(171.5943,53.9336)"><path
             d="m 0,0 c -2.171,0 -3.256,1.218 -3.256,3.655 v 8.795 h 2.521 V 10.776 H 1.513 V 8.634 H -0.735 V 3.571 c 0,-0.826 0.329,-1.239 0.987,-1.239 H 1.471 V 0 Z"
             style="fill:#646563;fill-opacity:1;fill-rule:nonzero;stroke:none"
             id="path84" /></g><g
           id="g86"
           transform="translate(175.4595,53.9336)"><path
             d="M 0,0 V 10.776 H 2.395 V 9.6 c 0.251,0.462 0.542,0.774 0.871,0.935 0.329,0.16 0.788,0.241 1.376,0.241 h 1.68 V 8.213 H 3.466 C 2.807,8.213 2.479,7.835 2.479,7.079 V 0 Z"
             style="fill:#646563;fill-opacity:1;fill-rule:nonzero;stroke:none"
             id="path88" /></g><g
           id="g90"
           transform="translate(189.6167,58.4922)"><path
             d="M 0,0 H -3.088 C -3.592,0 -3.844,-0.273 -3.844,-0.819 V -1.45 c 0,-0.49 0.252,-0.735 0.756,-0.735 H 0 Z m -3.444,-4.559 c -1.822,0 -2.732,0.974 -2.732,2.92 v 1.051 c 0,1.68 0.917,2.52 2.752,2.52 H 0 v 0.61 c 0,0.742 -0.336,1.113 -1.008,1.113 h -4.516 v 2.563 h 4.516 c 2.269,0 3.404,-1.197 3.404,-3.593 v -7.184 z"
             style="fill:#646563;fill-opacity:1;fill-rule:nonzero;stroke:none"
             id="path92" /></g><g
           id="g94"
           transform="translate(200.4566,62.147)"><path
             d="m 0,0 h -2.5 c -0.672,0 -1.008,-0.371 -1.008,-1.113 v -3.445 c 0,-0.743 0.336,-1.113 1.008,-1.113 H 0 Z m -2.584,-8.213 c -2.282,0 -3.424,1.197 -3.424,3.592 v 3.592 c 0,2.395 1.142,3.592 3.424,3.592 H 0 v 1.674 h 2.5 v -12.45 z"
             style="fill:#646563;fill-opacity:1;fill-rule:nonzero;stroke:none"
             id="path96" /></g><g
           id="g98"
           transform="translate(211.5884,61.1807)"><path
             d="M 0,0 C 0,0.756 -0.336,1.134 -1.007,1.134 H -2.729 C -3.388,1.134 -3.717,0.756 -3.717,0 V -0.882 H 0 Z m -2.729,-7.247 c -2.283,0 -3.424,1.197 -3.424,3.592 v 3.592 c 0,2.395 1.141,3.592 3.424,3.592 h 1.68 c 2.281,0 3.423,-1.197 3.423,-3.592 v -2.773 h -6.091 v -0.756 c 0,-0.742 0.329,-1.113 0.988,-1.113 H 2.08 v -2.542 z"
             style="fill:#646563;fill-opacity:1;fill-rule:nonzero;stroke:none"
             id="path100" /></g><g
           id="g102"
           transform="translate(161.3667,60.4502)"><path
             d="M 0,0 V -1.898 H 2.321 4.637 V 0 H 2.321 Z"
             style="fill:#646563;fill-opacity:1;fill-rule:nonzero;stroke:none"
             id="path104" /></g><g
           id="g106"
           transform="translate(94.9312,47.9844)"><path
             d="M 0,0 C -1.182,0 -2.141,0.965 -2.141,2.15 -2.143,2.719 -1.922,3.254 -1.52,3.66 -1.113,4.066 -0.574,4.289 0,4.289 1.18,4.289 2.145,3.328 2.145,2.148 2.145,0.965 1.18,0 0,0 m -9.052,-12.047 c -0.204,-0.045 -0.4,-0.113 -0.596,-0.182 -2.492,3.959 -4.564,7.069 -6.739,9.924 0.798,0.173 1.666,0.307 2.634,0.412 2.359,-3.494 3.913,-6.888 4.701,-10.154 m 2.616,-3.512 c 0.401,-0.398 0.624,-0.935 0.624,-1.507 0,-0.575 -0.225,-1.116 -0.625,-1.516 -0.407,-0.406 -0.946,-0.625 -1.52,-0.625 -0.574,0 -1.113,0.219 -1.512,0.617 -0.408,0.41 -0.633,0.953 -0.633,1.531 0.002,0.567 0.225,1.104 0.633,1.508 0.805,0.809 2.213,0.813 3.033,-0.008 m -9.968,22.158 c 2.176,2.853 4.257,5.976 6.768,9.969 0.193,-0.063 0.385,-0.127 0.584,-0.168 -0.785,-3.29 -2.344,-6.706 -4.716,-10.216 -0.969,0.105 -1.837,0.24 -2.636,0.415 m 6.927,16.303 c 0.807,0.799 2.229,0.793 3.032,-0.007 0.832,-0.836 0.834,-2.196 0.006,-3.026 -0.411,-0.41 -0.952,-0.633 -1.526,-0.633 -0.572,0 -1.105,0.221 -1.512,0.631 -0.406,0.401 -0.628,0.938 -0.628,1.508 -0.002,0.578 0.222,1.119 0.628,1.527 M 0,7.289 c -1.363,0 -2.64,-0.526 -3.608,-1.481 -2.662,0.015 -4.868,0.047 -6.739,0.129 2.289,3.672 3.797,7.283 4.493,10.791 0.561,0.242 1.089,0.573 1.538,1.02 1.994,2.002 1.992,5.26 -0.008,7.268 -0.977,0.97 -2.27,1.504 -3.645,1.504 -1.371,0 -2.66,-0.532 -3.629,-1.497 -0.451,-0.453 -0.797,-0.978 -1.049,-1.543 -3.446,-0.687 -6.994,-2.165 -10.604,-4.397 0.038,-1.297 0.097,-2.431 0.186,-3.452 3.465,2.33 6.838,3.869 10.084,4.649 0.044,-0.203 0.112,-0.398 0.18,-0.593 -3.948,-2.483 -7.052,-4.554 -9.905,-6.725 0.216,-1.128 0.512,-2.125 0.913,-3.087 2.353,1.848 4.85,3.586 7.866,5.538 -1.953,-3.018 -3.686,-5.51 -5.518,-7.842 -0.55,0.241 -1.09,0.513 -1.638,0.823 0.081,-0.149 0.159,-0.298 0.246,-0.449 0.319,-0.339 0.619,-0.698 0.874,-1.086 0.297,-0.429 0.563,-0.914 0.776,-1.423 0.171,-0.405 0.301,-0.826 0.409,-1.255 3.177,-0.975 7.03,-1.307 13.701,-1.365 -0.028,-0.221 -0.064,-0.441 -0.064,-0.668 0,-0.231 0.038,-0.452 0.069,-0.675 -6.672,-0.057 -10.527,-0.389 -13.704,-1.364 -0.108,-0.433 -0.241,-0.86 -0.417,-1.271 -0.211,-0.506 -0.477,-0.994 -0.782,-1.442 -0.177,-0.263 -0.379,-0.517 -0.589,-0.763 -0.126,-0.219 -0.244,-0.434 -0.358,-0.65 0.498,0.277 0.992,0.525 1.494,0.743 1.834,-2.34 3.567,-4.83 5.511,-7.834 -2.985,1.931 -5.456,3.65 -7.773,5.467 -0.393,-0.963 -0.688,-1.963 -0.913,-3.083 2.817,-2.139 5.895,-4.191 9.807,-6.65 -0.068,-0.196 -0.137,-0.392 -0.182,-0.596 -3.223,0.776 -6.57,2.3 -10.01,4.602 -0.101,-1.02 -0.174,-2.144 -0.223,-3.425 3.599,-2.22 7.136,-3.69 10.571,-4.378 0.254,-0.563 0.599,-1.089 1.05,-1.542 1.94,-1.928 5.317,-1.935 7.274,0.01 0.968,0.973 1.502,2.264 1.503,3.637 0,1.375 -0.535,2.668 -1.501,3.63 -0.452,0.452 -0.976,0.797 -1.54,1.051 -0.696,3.487 -2.199,7.078 -4.478,10.738 1.87,0.081 4.074,0.113 6.732,0.128 C -2.673,-2.433 -1.402,-3 0,-3 2.836,-3 5.145,-0.691 5.145,2.148 5.145,4.984 2.836,7.289 0,7.289"
             style="fill:#a1dcee;fill-opacity:1;fill-rule:nonzero;stroke:none"
             id="path108" /></g><g
           id="g110"
           transform="translate(67.9371,20.8067)"><path
             d="m 0,0 c -0.574,0 -1.113,0.225 -1.518,0.633 -0.404,0.404 -0.625,0.943 -0.623,1.517 0,1.178 0.961,2.139 2.139,2.141 C 1.18,4.291 2.143,3.33 2.143,2.15 2.143,0.963 1.182,0 0,0 m -14.183,11.179 c -0.044,0.203 -0.112,0.398 -0.18,0.593 3.974,2.5 7.094,4.582 9.964,6.769 0.167,-0.802 0.296,-1.672 0.396,-2.65 -3.499,-2.368 -6.904,-3.925 -10.18,-4.712 m -3.504,-2.622 c -0.807,-0.799 -2.229,-0.793 -3.032,0.007 -0.832,0.836 -0.834,2.196 -0.006,3.026 0.411,0.41 0.952,0.633 1.526,0.633 0.572,0 1.105,-0.221 1.512,-0.631 0.406,-0.401 0.628,-0.938 0.628,-1.508 0.002,-0.578 -0.222,-1.119 -0.628,-1.527 m 6.927,16.303 c -2.176,-2.853 -4.257,-5.976 -6.768,-9.969 -0.193,0.063 -0.386,0.127 -0.584,0.168 0.785,3.29 2.344,6.706 4.716,10.216 0.969,-0.105 1.837,-0.24 2.636,-0.415 m -18.549,4.451 c 0,1.183 0.965,2.148 2.145,2.148 1.182,0 2.141,-0.965 2.141,-2.15 0.002,-0.569 -0.219,-1.104 -0.622,-1.51 -0.406,-0.406 -0.945,-0.629 -1.519,-0.629 -1.18,0 -2.145,0.961 -2.145,2.141 m 11.196,14.195 c 0.205,0.045 0.401,0.113 0.597,0.182 2.491,-3.959 4.564,-7.069 6.739,-9.924 -0.798,-0.173 -1.666,-0.307 -2.635,-0.412 -2.359,3.494 -3.913,6.888 -4.701,10.154 m -2.614,6.535 c 0.407,0.406 0.946,0.625 1.52,0.625 0.574,0 1.113,-0.219 1.512,-0.617 0.408,-0.41 0.633,-0.953 0.633,-1.531 -0.002,-0.567 -0.225,-1.104 -0.633,-1.508 -0.805,-0.809 -2.213,-0.813 -3.034,0.008 -0.4,0.398 -0.623,0.935 -0.623,1.507 0,0.575 0.225,1.116 0.625,1.516 m 16.256,-9.926 c -2.841,2.165 -5.944,4.233 -9.897,6.718 0.068,0.196 0.137,0.392 0.181,0.596 3.262,-0.784 6.649,-2.333 10.132,-4.68 -0.107,-0.973 -0.243,-1.838 -0.416,-2.634 m 2.953,17.881 c 0.405,0.408 0.944,0.631 1.516,0.631 1.182,0 2.145,-0.961 2.145,-2.143 0,-1.183 -0.963,-2.146 -2.145,-2.146 -1.18,0 -2.139,0.963 -2.139,2.148 -0.002,0.571 0.219,1.106 0.623,1.51 M -6.075,23.062 c 0.27,-0.49 0.509,-0.974 0.721,-1.465 -2.358,-1.853 -4.86,-3.594 -7.883,-5.551 1.953,3.018 3.686,5.51 5.518,7.842 0.552,-0.242 1.094,-0.515 1.644,-0.826 m -0.144,12.425 c -0.506,-0.281 -1.008,-0.532 -1.517,-0.753 -1.835,2.339 -3.567,4.829 -5.512,7.834 3.001,-1.943 5.483,-3.669 7.811,-5.497 -0.229,-0.531 -0.489,-1.053 -0.782,-1.584 m 3.168,-10.712 c -0.291,0.2 -0.562,0.426 -0.816,0.68 -0.25,0.246 -0.473,0.524 -0.666,0.805 -0.194,0.289 -0.365,0.599 -0.504,0.929 -0.137,0.329 -0.246,0.672 -0.318,1.024 -0.071,0.355 -0.11,0.726 -0.11,1.105 0,0.377 0.039,0.75 0.11,1.098 0.072,0.359 0.183,0.703 0.318,1.031 0.139,0.324 0.31,0.637 0.498,0.918 0.201,0.293 0.424,0.565 0.684,0.823 0.246,0.248 0.517,0.47 0.796,0.662 0.293,0.193 0.604,0.367 0.94,0.507 0.326,0.137 0.666,0.243 1.017,0.313 0.372,0.076 0.733,0.113 1.102,0.113 0.371,0 0.742,-0.037 1.102,-0.109 0.357,-0.078 0.703,-0.184 1.031,-0.32 0.328,-0.137 0.64,-0.313 0.924,-0.5 0.295,-0.2 0.568,-0.43 0.814,-0.672 0.242,-0.243 0.469,-0.51 0.672,-0.817 0.195,-0.289 0.363,-0.595 0.5,-0.914 0.137,-0.332 0.248,-0.676 0.32,-1.035 0.074,-0.348 0.11,-0.719 0.11,-1.098 0,-0.379 -0.036,-0.748 -0.11,-1.099 C 5.293,27.867 5.184,27.525 5.039,27.187 4.9,26.857 4.732,26.545 4.537,26.26 4.344,25.971 4.121,25.699 3.867,25.451 3.619,25.201 3.35,24.979 3.057,24.779 2.766,24.584 2.457,24.416 2.125,24.275 1.797,24.135 1.453,24.029 1.102,23.959 0.393,23.814 -0.395,23.814 -1.102,23.955 c -0.351,0.074 -0.693,0.18 -1.025,0.324 -0.326,0.137 -0.637,0.305 -0.924,0.496 m 3.049,26.563 c 0.23,0 0.449,0.038 0.671,0.068 0.038,-6.812 0.173,-10.626 1.137,-13.823 -0.032,0.007 -0.063,0.018 -0.095,0.024 -1.119,0.235 -2.289,0.233 -3.41,0.004 -0.131,-0.027 -0.258,-0.066 -0.387,-0.099 1.062,3.266 1.327,7.119 1.411,13.894 0.223,-0.03 0.443,-0.068 0.673,-0.068 m -22.09,-21.352 c 6.806,0.059 10.682,0.401 13.897,1.422 -0.034,-0.13 -0.074,-0.258 -0.102,-0.39 -0.109,-0.547 -0.168,-1.118 -0.168,-1.7 0,-0.578 0.059,-1.148 0.17,-1.703 0.028,-0.135 0.068,-0.263 0.102,-0.395 -3.214,1.021 -7.089,1.364 -13.894,1.423 0.028,0.221 0.064,0.441 0.064,0.668 0,0.231 -0.039,0.452 -0.069,0.675 M -0.004,7.291 c -0.229,0 -0.449,-0.039 -0.67,-0.068 -0.064,6.752 -0.275,10.608 -1.307,13.868 0.091,-0.022 0.18,-0.051 0.272,-0.07 0.553,-0.115 1.125,-0.173 1.705,-0.173 0.58,0 1.156,0.058 1.713,0.173 0.08,0.017 0.156,0.042 0.235,0.061 C 0.942,17.822 0.741,13.975 0.676,7.223 0.452,7.252 0.229,7.291 -0.004,7.291 m 8.307,23.734 c -0.115,0.547 -0.28,1.079 -0.496,1.588 -0.213,0.51 -0.479,0.994 -0.776,1.424 -0.255,0.388 -0.555,0.747 -0.874,1.086 -2.331,4.05 -2.454,7.389 -2.495,17.757 0.914,0.93 1.481,2.201 1.481,3.604 0,2.836 -2.307,5.143 -5.145,5.143 -1.375,0 -2.67,-0.537 -3.643,-1.512 -0.968,-0.972 -1.5,-2.265 -1.496,-3.631 0,-1.404 0.568,-2.677 1.482,-3.607 -0.022,-2.659 -0.063,-4.851 -0.148,-6.712 -3.65,2.271 -7.236,3.768 -10.717,4.465 -0.254,0.563 -0.599,1.089 -1.05,1.542 -1.94,1.928 -5.317,1.935 -7.274,-0.01 -0.968,-0.973 -1.502,-2.264 -1.504,-3.637 0,-1.375 0.536,-2.668 1.502,-3.63 0.452,-0.452 0.976,-0.797 1.54,-1.051 0.696,-3.486 2.199,-7.079 4.477,-10.738 -1.869,-0.08 -4.073,-0.113 -6.731,-0.128 -0.928,0.914 -2.198,1.481 -3.6,1.481 -2.836,0 -5.145,-2.309 -5.145,-5.148 0,-2.836 2.309,-5.141 5.145,-5.141 1.363,0 2.639,0.526 3.608,1.481 2.661,-0.015 4.868,-0.047 6.739,-0.13 -2.289,-3.671 -3.797,-7.282 -4.493,-10.79 -0.562,-0.242 -1.089,-0.573 -1.538,-1.02 -1.994,-2.002 -1.992,-5.26 0.008,-7.268 0.977,-0.97 2.27,-1.504 3.645,-1.504 1.371,0 2.66,0.532 3.629,1.497 0.45,0.453 0.796,0.978 1.049,1.543 3.488,0.696 7.081,2.198 10.737,4.477 C -3.707,10.594 -3.679,8.4 -3.662,5.748 -4.574,4.819 -5.141,3.552 -5.141,2.154 -5.145,0.783 -4.613,-0.51 -3.645,-1.486 -2.672,-2.461 -1.381,-2.998 -0.004,-3 h 0.002 c 2.838,0 5.145,2.311 5.145,5.15 0,1.402 -0.567,2.67 -1.479,3.598 0.07,10.404 0.32,13.829 2.766,18.063 0.211,0.246 0.412,0.5 0.59,0.763 0.304,0.447 0.57,0.936 0.781,1.442 0.22,0.513 0.388,1.048 0.502,1.595 0.111,0.549 0.17,1.123 0.17,1.707 0,0.582 -0.059,1.161 -0.17,1.707"
             style="fill:#41c5e7;fill-opacity:1;fill-rule:nonzero;stroke:none"
             id="path112" /></g></g></g></g></svg>
