<?xml version="1.0" encoding="UTF-8" standalone="no"?>
<svg
   xmlns:dc="http://purl.org/dc/elements/1.1/"
   xmlns:cc="http://creativecommons.org/ns#"
   xmlns:rdf="http://www.w3.org/1999/02/22-rdf-syntax-ns#"
   xmlns:svg="http://www.w3.org/2000/svg"
   xmlns="http://www.w3.org/2000/svg"
   xmlns:sodipodi="http://sodipodi.sourceforge.net/DTD/sodipodi-0.dtd"
   xmlns:inkscape="http://www.inkscape.org/namespaces/inkscape"
   height="113.38667"
   width="257.04001"
   version="1.1"
   id="svg6"
   sodipodi:docname="nordea.svg"
   inkscape:version="0.92.5 (2060ec1f9f, 2020-04-08)">
  <metadata
     id="metadata12">
    <rdf:RDF>
      <cc:Work
         rdf:about="">
        <dc:format>image/svg+xml</dc:format>
        <dc:type
           rdf:resource="http://purl.org/dc/dcmitype/StillImage" />
      </cc:Work>
    </rdf:RDF>
  </metadata>
  <defs
     id="defs10" />
  <sodipodi:namedview
     pagecolor="#ffffff"
     bordercolor="#666666"
     borderopacity="1"
     objecttolerance="10"
     gridtolerance="10"
     guidetolerance="10"
     inkscape:pageopacity="0"
     inkscape:pageshadow="2"
     inkscape:window-width="924"
     inkscape:window-height="1016"
     id="namedview8"
     showgrid="false"
     inkscape:zoom="1.3499844"
     inkscape:cx="130.74225"
     inkscape:cy="56.693336"
     inkscape:window-x="924"
     inkscape:window-y="27"
     inkscape:window-maximized="0"
     inkscape:current-layer="svg6" />
  <g
     fill="#254aa5"
     id="g4"
     style="fill:#0000a0;fill-opacity:1">
    <path
       d="M212.84933 61.12414c-.24934 4.88026-4.58134 8.68226-9.648 8.05733-3.87333-.47813-6.988-3.63333-7.42267-7.51307-.57866-5.1744 3.456-9.5572 8.51333-9.5572 4.584 0 8.32667 3.5984 8.55734 8.1244zm-9.72667-15.27547c-7.38266.57134-13.216 6.54587-13.676 13.86867-.54533 8.65213 6.31067 15.81986 14.84533 15.81986 3.084 0 7.25734-1.53386 9.13334-4.77133v4.37347h5.756l.012-14.1824c0-9.2348-7.52-15.77027-16.07067-15.10827M163.328 60.06734c0-3.10934 1.81466-6.68067 5.84266-8.19267 4.57467-1.7172 8.56934.56093 10.25334 3.76987zm8.33733-14.25987c-7.81867.21987-14.53867 6.30733-14.53867 15.02707 0 8.03706 6.508 14.75626 14.884 14.7568 5.84.00053 11.54667-3.52027 13.80534-9.2328l-5.732-1.70934c-1.036 2.34374-3.54 4.39107-6.43067 4.93014-4.02533.75-7.732-1.712-9.18667-4.4552l22.29467-6.07494c-.65867-5.72613-5.68133-13.50573-15.096-13.24173M122.60986 51.85067v-6.10773c-5.55826 0-7.5276 2.73906-8.362 4.25466v-3.2792h-6.33853v28.42094h6.50893c-.00573-8.78814-.01933-8.64334-.01933-13.9444 0-6.56667 3.79533-9.12134 8.21093-9.34427M63.86827 63.72054l-19.43854-22.8932H37.7932v34.26453h6.8604V52.1768l19.6828 22.96254h6.08333l.0032-34.312h-6.55466v22.8932M146.82 61.12414c-.248 4.88026-4.58 8.68226-9.64667 8.05733-3.8744-.47813-6.98893-3.63333-7.42333-7.51307-.5792-5.1744 3.45573-9.5572 8.514-9.5572 4.58266 0 8.32533 3.5984 8.556 8.1244zm6.316-23.32813h-6.128v11.17506c-1.456-1.9136-6.00267-3.43906-9.91467-3.1224-7.3136.5916-13.2152 6.54587-13.6756 13.86867-.5448 8.65213 6.31147 15.83866 14.84627 15.83866 3.18533 0 7.61866-1.52453 9.132-4.21666l-.00667 3.8h5.74667v-14.1824c.00133-.09214.004-.18427.004-.27707 0-.09267-.00267-.18493-.004-.2776V37.79601M89.14173 69.2424c-4.7292 0-8.56253-3.83386-8.56253-8.56253 0-4.72867 3.83333-8.56253 8.56253-8.56253 4.72853 0 8.56187 3.83386 8.56187 8.56253 0 4.72867-3.83334 8.56253-8.56187 8.56253zm.01813-23.45626c-8.22546 0-14.89373 6.66826-14.89373 14.89373 0 8.2256 6.66827 14.89373 14.89373 14.89373 8.2256 0 14.89374-6.66813 14.89374-14.89373 0-8.22547-6.66814-14.89373-14.89374-14.89373M179.56266 55.61534"
       id="path2"
       style="fill:#0000a0;fill-opacity:1" />
  </g>
</svg>
