<svg width="498" height="57" viewBox="0 0 498 57" fill="none" xmlns="http://www.w3.org/2000/svg">
<path d="M67.7914 56.8803C65.8942 56.8836 64.0121 56.5455 62.2362 55.8824C60.5269 55.2365 58.988 54.2128 57.7359 52.8887C56.3848 51.4579 55.3573 49.7568 54.7222 47.8992C53.955 45.627 53.588 43.2403 53.6373 40.8441V28.8095L63.3011 22.8221H63.7632V38.9182C63.6172 41.2786 64.3303 43.6126 65.7723 45.4943C67.1117 47.0643 69.1207 47.8493 71.7995 47.8493H72.6032C75.282 47.8493 77.2911 47.0643 78.6305 45.4943C80.0725 43.6126 80.7855 41.2786 80.6396 38.9182V22.8321H81.0816L90.7755 28.8195V40.9639C90.8248 43.36 90.4578 45.7467 89.6905 48.019C89.0519 49.8748 88.0248 51.5753 86.6769 53.0085C85.4219 54.3338 83.8794 55.3576 82.1665 56.0021C80.3939 56.6645 78.5152 57.0025 76.6214 57L67.7914 56.8803Z" fill="#A046DC"/>
<path d="M90.7884 22.1832V17.1937C90.8258 15.73 90.45 14.2851 89.7035 13.0225C88.9588 11.7962 87.9244 10.7686 86.6899 10.0288C85.2945 9.20191 83.7701 8.61172 82.1795 8.28253C80.3575 7.89248 78.4981 7.70174 76.6344 7.71373H75.6298V0H68.829V7.76363H67.8245C65.9574 7.75115 64.0946 7.94189 62.2693 8.33243C60.6812 8.65979 59.1599 9.25013 57.7689 10.0787C56.5329 10.8166 55.4981 11.8446 54.7553 13.0724C54.0088 14.335 53.633 15.7799 53.6704 17.2436V22.2331H54.7854L65.0218 15.8366L71.6418 26.3644H72.7769L79.3969 15.8366L89.6734 22.1832H90.7884Z" fill="#A046DC"/>
<path d="M183.931 0V55.8821H194.037V40.3948H195.966L207.357 55.8821H218.909V55.4032L204.785 36.3234V34.8864L217.624 16.7646V16.2857H206.553L195.966 30.815H194.037V0H183.931Z" fill="#A046DC"/>
<path d="M112.452 25.1462C113.613 24.4557 114.959 24.1353 116.309 24.2282C117.926 24.1556 119.524 24.5884 120.88 25.4655C122.059 26.2914 122.931 27.4804 123.361 28.8484L132.513 25.1861C132.043 23.9666 131.44 22.8021 130.714 21.7135C129.859 20.4636 128.804 19.3613 127.59 18.4503C126.171 17.3936 124.581 16.5838 122.889 16.0554C120.776 15.4051 118.571 15.0952 116.359 15.1373C114.459 15.1345 112.568 15.4033 110.744 15.9356C109.008 16.4274 107.374 17.225 105.922 18.2907C104.551 19.3083 103.405 20.5957 102.557 22.0727C101.677 23.6564 101.233 25.443 101.271 27.2518V27.7308C101.271 31.5028 102.611 34.3601 105.289 36.3027C107.968 38.2453 111.541 39.3995 116.008 39.7654C117.398 39.881 118.777 40.0944 120.137 40.404C121.053 40.6017 121.934 40.9383 122.748 41.4019C123.291 41.7068 123.745 42.147 124.064 42.6792C124.306 43.1307 124.43 43.6349 124.426 44.1461C124.401 44.6443 124.262 45.1303 124.018 45.5663C123.774 46.0023 123.432 46.3768 123.02 46.6608C122.085 47.4292 120.368 47.8184 117.846 47.8184C115.013 47.8184 112.914 47.1797 111.548 45.9024C110.235 44.7068 109.303 43.1565 108.865 41.4418L99.5533 44.4355C99.8638 45.9273 100.392 47.3662 101.12 48.7065C101.957 50.242 103.09 51.5984 104.456 52.6981C106.083 54.0067 107.929 55.0201 109.91 55.6918C112.465 56.5478 115.151 56.9531 117.846 56.8892C123.09 56.8892 127.155 55.7217 130.041 53.3866C131.454 52.2639 132.583 50.8278 133.337 49.1937C134.09 47.5595 134.448 45.7727 134.381 43.9765V43.5075C134.454 41.9151 134.142 40.3284 133.471 38.8805C132.799 37.4325 131.789 36.1653 130.524 35.185C127.622 33.0633 124.173 31.8068 120.579 31.5627C118.095 31.4022 115.641 30.9329 113.275 30.1656C112.687 29.9815 112.175 29.6143 111.813 29.1183C111.451 28.6223 111.259 28.0239 111.266 27.4114C111.273 26.9571 111.394 26.5117 111.618 26.1159C111.843 25.7201 112.164 25.3867 112.552 25.1462" fill="#A046DC"/>
<path d="M153.136 25.1466C154.294 24.4575 155.636 24.1371 156.983 24.2285C158.603 24.1545 160.205 24.5873 161.564 25.4659C162.743 26.2918 163.615 27.4808 164.045 28.8488L173.196 25.1865C172.711 23.9648 172.091 22.8002 171.348 21.7138C170.493 20.464 169.438 19.3617 168.224 18.4507C166.804 17.394 165.215 16.5842 163.523 16.0558C161.406 15.4048 159.198 15.0948 156.983 15.1377C155.082 15.1363 153.191 15.4052 151.368 15.936C149.635 16.4308 148.006 17.2283 146.556 18.291C145.184 19.3086 144.039 20.5961 143.19 22.0731C142.31 23.6568 141.867 25.4434 141.905 27.2521V27.7311C141.905 31.5032 143.227 34.3605 145.873 36.3031C148.518 38.2456 152.091 39.3999 156.591 39.7657C157.981 39.8814 159.361 40.0948 160.72 40.4044C161.634 40.5999 162.512 40.9367 163.322 41.4023C163.869 41.7042 164.327 42.145 164.648 42.6796C164.889 43.1311 165.013 43.6353 165.009 44.1465C164.982 44.6442 164.842 45.1293 164.598 45.565C164.354 46.0007 164.014 46.3756 163.603 46.6612C162.665 47.4329 160.941 47.8188 158.429 47.8188C155.597 47.8188 153.497 47.1801 152.131 45.9028C150.819 44.7072 149.886 43.1568 149.449 41.4422L140.137 44.4359C140.447 45.9277 140.975 47.3665 141.704 48.7069C142.54 50.2424 143.674 51.5988 145.039 52.6985C146.666 54.0071 148.512 55.0205 150.494 55.6922C153.048 56.5482 155.734 56.9535 158.429 56.8896C163.673 56.8896 167.738 55.7221 170.625 53.387C172.031 52.2627 173.154 50.8271 173.902 49.1948C174.65 47.5626 175.004 45.779 174.934 43.9868V43.5079C175.008 41.9163 174.698 40.3302 174.028 38.8823C173.359 37.4344 172.35 36.1668 171.087 35.1854C168.186 33.0637 164.736 31.8072 161.142 31.5631C158.658 31.4026 156.205 30.9333 153.839 30.166C153.251 29.9819 152.738 29.6147 152.376 29.1187C152.014 28.6227 151.823 28.0243 151.83 27.4118C151.836 26.9575 151.957 26.512 152.182 26.1163C152.406 25.7205 152.727 25.3871 153.115 25.1466" fill="#A046DC"/>
<path d="M236.115 35.3447C235.97 32.517 236.745 29.718 238.325 27.3615C239.792 25.3657 242.032 24.3678 245.025 24.3678C246.13 24.299 247.236 24.4827 248.259 24.9048C249.281 25.3269 250.192 25.9762 250.922 26.8027C252.373 28.7106 253.086 31.0725 252.931 33.4587V55.8814H263.047V30.934C263.096 28.5606 262.729 26.1969 261.962 23.9487C261.329 22.1286 260.3 20.4694 258.949 19.089C257.696 17.8293 256.175 16.8643 254.498 16.2649C252.763 15.6407 250.929 15.3298 249.084 15.3468C246.579 15.2905 244.108 15.9225 241.942 17.173C239.936 18.3725 238.386 20.1967 237.532 22.3621H236.085V16.3847H226.009V55.8814H236.115V35.3447Z" fill="#A046DC"/>
<path d="M300.253 36.5027C300.414 39.3825 299.466 42.2153 297.601 44.426C296.676 45.3495 295.577 46.0824 294.366 46.5825C293.155 47.0826 291.856 47.34 290.545 47.34C289.233 47.34 287.934 47.0826 286.723 46.5825C285.512 46.0824 284.413 45.3495 283.488 44.426C281.623 42.2153 280.675 39.3825 280.836 36.5027V35.5048C280.675 32.622 281.623 29.7863 283.488 27.5715C284.414 26.6503 285.514 25.9196 286.725 25.421C287.936 24.9224 289.234 24.6658 290.545 24.6658C291.855 24.6658 293.153 24.9224 294.364 25.421C295.575 25.9196 296.675 26.6503 297.601 27.5715C299.466 29.7863 300.414 32.622 300.253 35.5048V36.5027ZM314.046 55.782V46.2222H312.549C311.103 46.2222 310.379 45.4239 310.379 43.8272V16.2554H300.253V21.0353H298.807C297.926 19.1618 296.484 17.6041 294.678 16.5747C292.549 15.53 290.189 15.0358 287.817 15.1377C285.533 15.1184 283.271 15.593 281.189 16.5287C279.108 17.4644 277.256 18.8387 275.763 20.5563C274.145 22.4373 272.898 24.6038 272.086 26.9428C271.147 29.6616 270.688 32.5211 270.73 35.395V36.6723C270.68 39.5729 271.153 42.459 272.126 45.1943C272.976 47.543 274.272 49.7076 275.943 51.5709C277.487 53.2894 279.389 54.6518 281.519 55.5625C283.663 56.4617 285.972 56.9101 288.299 56.8797C290.642 56.9317 292.96 56.3963 295.04 55.323C297.089 54.1227 298.66 52.2588 299.49 50.0441H300.927C300.9 50.8185 301.04 51.5896 301.338 52.3056C301.636 53.0216 302.085 53.666 302.654 54.1954C303.874 55.2782 305.47 55.8473 307.104 55.782H314.046Z" fill="#A046DC"/>
<path d="M352.195 38.8076C351.848 41.1662 350.737 43.3485 349.031 45.0245C347.404 46.5746 345.036 47.3463 341.929 47.3396C340.537 47.3465 339.154 47.117 337.84 46.661C336.586 46.2406 335.435 45.5604 334.465 44.6653C333.471 43.7116 332.694 42.5583 332.185 41.2824C331.599 39.7989 331.312 38.2155 331.341 36.6222V36.1432C331.316 34.5243 331.603 32.9156 332.185 31.4032C332.702 30.0697 333.477 28.8494 334.465 27.8108C335.423 26.8347 336.571 26.0638 337.84 25.5456C339.135 25.0076 340.526 24.736 341.929 24.7473C345.03 24.7473 347.437 25.5955 349.152 27.2919C350.811 28.9182 351.873 31.0515 352.165 33.3491L362.12 30.8045C361.357 26.3827 359.04 22.373 355.581 19.4884C352.125 16.6144 347.618 15.1774 342.059 15.1774C339.282 15.1579 336.524 15.6449 333.923 16.6144C331.445 17.5361 329.18 18.9446 327.263 20.7557C325.339 22.6065 323.821 24.8316 322.802 27.2919C321.702 30.0294 321.159 32.9565 321.205 35.9037V36.9016C321.154 39.8202 321.697 42.7189 322.802 45.4237C323.797 47.8172 325.305 49.9662 327.222 51.7204C329.139 53.4541 331.392 54.7817 333.842 55.6222C336.497 56.5158 339.288 56.9414 342.09 56.8795C347.755 56.8795 352.289 55.4459 355.691 52.5786C359.106 49.6692 361.39 45.6668 362.15 41.2624L352.195 38.8076Z" fill="#A046DC"/>
<path d="M370.065 0V55.8821H380.181V40.3948H382.1L393.491 55.8821H405.043V55.4032L390.93 36.3234V34.8864L403.768 16.7646V16.2857H392.698L382.1 30.815H380.181V0H370.065Z" fill="#A046DC"/>
<path d="M438.817 30.6853H420.032C420.569 28.8952 421.663 27.3199 423.156 26.1847C424.939 24.8043 427.156 24.0971 429.414 24.189C431.685 24.0991 433.923 24.7434 435.793 26.0251C436.585 26.5522 437.26 27.2336 437.778 28.0278C438.296 28.8221 438.646 29.7126 438.807 30.6453L438.817 30.6853ZM449.084 39.2472V33.9284C449.06 31.7432 448.68 29.5763 447.958 27.5119C447.191 25.282 445.99 23.2238 444.422 21.4547C442.719 19.5696 440.652 18.0427 438.345 16.9642C435.579 15.7022 432.558 15.0876 429.515 15.168C426.835 15.1525 424.177 15.6541 421.689 16.6449C419.318 17.5932 417.153 18.9856 415.311 20.7462C413.449 22.5463 411.979 24.7063 410.991 27.0928C409.921 29.7265 409.388 32.5453 409.424 35.3853V35.8643C409.404 38.8813 409.935 41.8769 410.991 44.7057C411.899 47.1766 413.319 49.4305 415.16 51.3217C416.966 53.1366 419.141 54.5484 421.539 55.463C424.138 56.435 426.898 56.9156 429.676 56.88C431.994 56.9215 434.305 56.6257 436.537 56.0018C438.295 55.5059 439.97 54.7562 441.509 53.7765C442.772 52.9619 443.894 51.9511 444.834 50.7829C445.617 49.8104 446.29 48.7565 446.843 47.6395L438.184 42.9095C437.524 44.1982 436.524 45.2846 435.291 46.0528C433.533 47.035 431.528 47.4923 429.515 47.3701C428.274 47.3776 427.041 47.1751 425.868 46.7713C424.773 46.392 423.753 45.8245 422.855 45.0949C421.99 44.4003 421.282 43.5335 420.775 42.5502C420.259 41.547 419.971 40.4432 419.932 39.317L449.084 39.2472Z" fill="#A046DC"/>
<path d="M456.136 25.8253H463.359V46.2223H455.202V55.7821H482.636V46.2223H473.495V33.4692C473.495 30.6086 474.138 28.4032 475.424 26.8532C476.067 26.0887 476.88 25.4827 477.798 25.0827C478.717 24.6828 479.716 24.4997 480.718 24.548C481.648 24.4836 482.58 24.6247 483.449 24.9611C484.317 25.2976 485.1 25.8211 485.74 26.4939C486.925 27.9745 487.526 29.8339 487.428 31.7229V32.8305L497.855 31.9324V30.1262C497.855 25.0769 496.65 21.3182 494.239 18.85C492.997 17.604 491.506 16.63 489.863 15.9907C488.219 15.3513 486.459 15.0608 484.696 15.1379C482.409 15.0735 480.157 15.6998 478.236 16.9341C476.439 18.1383 475.099 19.9052 474.429 21.9535H472.983V16.2555H456.136V25.8253Z" fill="#A046DC"/>
<path d="M32.9231 0.0012207V48.6985H31.4765L20.3059 0.0012207H0.144653V55.8834H10.592V7.18607H12.0385L23.199 55.8834H43.3704V0.0012207H32.9231Z" fill="#A046DC"/>
</svg>
