<?xml version="1.0" encoding="utf-8"?>
<!-- Generator: Adobe Illustrator 22.1.0, SVG Export Plug-In . SVG Version: 6.00 Build 0)  -->
<svg version="1.1" id="Warstwa_1" xmlns="http://www.w3.org/2000/svg" xmlns:xlink="http://www.w3.org/1999/xlink" x="0px" y="0px"
	 viewBox="0 0 1324.4 412.5" style="enable-background:new 0 0 1324.4 412.5;" xml:space="preserve">
<style type="text/css">
	.st0{fill:#575756;}
	.st1{fill:#EE7402;}
</style>
<path class="st0" d="M1229.4,146.6c0-3.9-3.2-7.1-7.1-7.1c-2,0-3.8,0.8-5.1,2.2l-62.9,68c-1.3,1.3-2.1,3.1-2.1,5.1
	c0,3.9,3.2,7.1,7.1,7.1c2.2,0,4.2-1,5.5-2.6l62.6-67.6C1228.6,150.4,1229.4,148.6,1229.4,146.6z"/>
<path class="st1" d="M114.4,146.5c0-3.9,3.2-7.1,7.1-7.1c2,0,3.8,0.8,5,2.1l0,0l63.1,68.2c0,0,0,0,0,0l0.3,0.3l0,0
	c1.1,1.2,1.7,2.9,1.7,4.6c0,3.9-3.2,7.1-7.1,7.1c-2.2,0-4.2-1-5.5-2.7l-62.2-67.2l0,0C115.4,150.6,114.4,148.7,114.4,146.5z"/>
<path class="st1" d="M460.1,119.6c-3.9,0-7.1,3.2-7.1,7.1V296L328.3,122.9c-1.3-1.9-3.4-3.2-5.9-3.2c-3.9,0-7.1,3.2-7.1,7.1v191.2
	c0,3.9,3.2,7.1,7.1,7.1s7.1-3.2,7.1-7.1V148.7L454,321.5c1.2,2.1,3.5,3.5,6.1,3.5c3.9,0,7.1-3.2,7.1-7.1V126.7
	C467.2,122.8,464,119.6,460.1,119.6z"/>
<path class="st0" d="M775.6,129.4L775.6,129.4c0.3-0.8,0.5-1.7,0.5-2.7c0-3.9-3.2-7.1-7.1-7.1c-3,0-5.5,1.8-6.6,4.4l0,0l-73.6,175.6
	L636,174.9c-1.1-2.6-3.6-4.4-6.5-4.4c-2.9,0-5.5,1.8-6.5,4.4l-52.9,124.8l-73.5-175.5c0-0.1-0.1-0.2-0.1-0.3l0,0l0,0
	c-1.1-2.4-3.6-4.2-6.4-4.2c-3.9,0-7.1,3.2-7.1,7.1c0,1.2,0.3,2.2,0.8,3.2l79.8,190.7c1.1,2.6,3.6,4.4,6.5,4.4c2.9,0,5.5-1.8,6.5-4.4
	l52.9-124.8l52.8,124.8c0,0,0,0,0,0.1l0,0l0,0c1.1,2.5,3.6,4.3,6.5,4.3c2.9,0,5.5-1.8,6.5-4.4h0l80.1-191.1
	C775.5,129.5,775.5,129.5,775.6,129.4L775.6,129.4z"/>
<path class="st0" d="M1052.5,310.8h-99V126.7c0-3.9-3.2-7.1-7.1-7.1s-7.1,3.2-7.1,7.1v191.2c0,3.9,3.2,7.1,7.1,7.1h106.1
	c3.9,0,7.1-3.2,7.1-7.1S1056.4,310.8,1052.5,310.8z"/>
<path class="st0" d="M908.3,310.8c-0.1,0-0.1,0-0.1,0l-98.7,0v-82.2h84.6c3.9,0,7.1-3.2,7.1-7.1s-3.2-7.1-7.1-7.1h-84.6v-80.6h98.8
	c3.9,0,7.1-3.2,7.1-7.1s-3.2-7.1-7.1-7.1H802.4c-3.9,0-7.1,3.2-7.1,7.1v191.2c0,3.9,3.2,7.1,7.1,7.1c0,0,0.1,0,0.1,0v0h105.9v0
	c3.9-0.1,7-3.2,7-7.1C915.3,314,912.2,310.8,908.3,310.8z"/>
<path class="st0" d="M1231.4,157.8l-9.9,10.6c9.9,15,15.7,33.4,15.7,53.3c0,50.7-38,91.9-84.7,91.9s-84.7-41.2-84.7-91.9
	c0-50.7,38-91.9,84.7-91.9c18.6,0,35.8,6.5,49.8,17.6l9.7-10.4c-16.6-13.4-37.2-21.4-59.5-21.4c-54.5,0-98.9,47.6-98.9,106.1
	s44.4,106.1,98.9,106.1s98.9-47.6,98.9-106.1C1251.4,197.7,1243.9,175.5,1231.4,157.8z"/>
<path class="st1" d="M112.5,157.7l9.9,10.6c-9.9,15-15.7,33.4-15.7,53.3c0,50.7,38,91.9,84.7,91.9s84.7-41.2,84.7-91.9
	c0-50.7-38-91.9-84.7-91.9c-18.6,0-35.8,6.5-49.8,17.6l-9.7-10.4c16.6-13.4,37.2-21.4,59.5-21.4c54.5,0,98.9,47.6,98.9,106.1
	s-44.4,106.1-98.9,106.1s-98.9-47.6-98.9-106.1C92.4,197.6,99.9,175.5,112.5,157.7z"/>
</svg>
