<?xml version="1.0" encoding="UTF-8" standalone="no"?>
<!-- Created with Inkscape (http://www.inkscape.org/) -->

<svg
   xmlns:dc="http://purl.org/dc/elements/1.1/"
   xmlns:cc="http://creativecommons.org/ns#"
   xmlns:rdf="http://www.w3.org/1999/02/22-rdf-syntax-ns#"
   xmlns:svg="http://www.w3.org/2000/svg"
   xmlns="http://www.w3.org/2000/svg"
   xmlns:sodipodi="http://sodipodi.sourceforge.net/DTD/sodipodi-0.dtd"
   xmlns:inkscape="http://www.inkscape.org/namespaces/inkscape"
   version="1.1"
   id="svg2"
   xml:space="preserve"
   width="293.71173"
   height="100.64266"
   viewBox="0 0 293.71173 100.64266"
   sodipodi:docname="sml2.svg"
   inkscape:version="0.92.5 (2060ec1f9f, 2020-04-08)"><metadata
     id="metadata8"><rdf:RDF><cc:Work
         rdf:about=""><dc:format>image/svg+xml</dc:format><dc:type
           rdf:resource="http://purl.org/dc/dcmitype/StillImage" /><dc:title></dc:title></cc:Work></rdf:RDF></metadata><defs
     id="defs6"><clipPath
       clipPathUnits="userSpaceOnUse"
       id="clipPath30"><path
         d="M 0,137.114 H 283.465 V 0 H 0 Z"
         id="path28"
         inkscape:connector-curvature="0" /></clipPath></defs><sodipodi:namedview
     pagecolor="#ffffff"
     bordercolor="#666666"
     borderopacity="1"
     objecttolerance="10"
     gridtolerance="10"
     guidetolerance="10"
     inkscape:pageopacity="0"
     inkscape:pageshadow="2"
     inkscape:window-width="1848"
     inkscape:window-height="1016"
     id="namedview4"
     showgrid="false"
     inkscape:zoom="1.0345192"
     inkscape:cx="146.856"
     inkscape:cy="50.570539"
     inkscape:window-x="0"
     inkscape:window-y="27"
     inkscape:window-maximized="1"
     inkscape:current-layer="g10"
     fit-margin-top="0"
     fit-margin-left="0"
     fit-margin-right="0"
     fit-margin-bottom="0" /><g
     id="g10"
     inkscape:groupmode="layer"
     inkscape:label="sml logo vertical cmyk"
     transform="matrix(1.3333333,0,0,-1.3333333,-42.120666,141.48146)"><path
       d="m 112.737,75.182 h -9.665 v 30.929 h 9.665 z"
       style="fill:#417dc5;fill-opacity:1;fill-rule:nonzero;stroke:none"
       id="path14"
       inkscape:connector-curvature="0" /><path
       d="m 180.395,75.182 h -9.665 v 30.929 h 9.665 z"
       style="fill:#54bf36;fill-opacity:1;fill-rule:nonzero;stroke:none"
       id="path16"
       inkscape:connector-curvature="0" /><path
       d="m 139.8,75.182 h -9.667 v 30.929 h 9.667 z"
       style="fill:#9447a9;fill-opacity:1;fill-rule:nonzero;stroke:none"
       id="path18"
       inkscape:connector-curvature="0" /><path
       d="m 153.332,69.384 h -9.665 v 30.928 h 9.665 z"
       style="fill:#f145ab;fill-opacity:1;fill-rule:nonzero;stroke:none"
       id="path20"
       inkscape:connector-curvature="0" /><path
       d="m 166.863,75.182 h -9.665 v 30.929 h 9.665 z"
       style="fill:#b358b3;fill-opacity:1;fill-rule:nonzero;stroke:none"
       id="path22"
       inkscape:connector-curvature="0" /><g
       id="g24"><g
         id="g26"
         clip-path="url(#clipPath30)"><g
           id="g32"
           transform="translate(126.2685,101.2791)"><path
             d="m 0,0 c 0,-2.67 -2.164,-4.833 -4.833,-4.833 -2.669,0 -4.834,2.163 -4.834,4.833 0,2.669 2.165,4.832 4.834,4.832 C -2.164,4.832 0,2.669 0,0"
             style="fill:#73cade;fill-opacity:1;fill-rule:nonzero;stroke:none"
             id="path34"
             inkscape:connector-curvature="0" /></g><g
           id="g36"
           transform="translate(99.2054,80.0167)"><path
             d="m 0,0 c 0,-2.67 -2.162,-4.835 -4.833,-4.835 -2.669,0 -4.832,2.165 -4.832,4.835 0,2.667 2.163,4.832 4.832,4.832 C -2.162,4.832 0,2.667 0,0"
             style="fill:#384c9f;fill-opacity:1;fill-rule:nonzero;stroke:none"
             id="path38"
             inkscape:connector-curvature="0" /></g><g
           id="g40"
           transform="translate(193.925,80.0167)"><path
             d="m 0,0 c 0,-2.67 -2.162,-4.835 -4.831,-4.835 -2.67,0 -4.832,2.165 -4.832,4.835 0,2.667 2.162,4.832 4.832,4.832 C -2.162,4.832 0,2.667 0,0"
             style="fill:#a6d71c;fill-opacity:1;fill-rule:nonzero;stroke:none"
             id="path42"
             inkscape:connector-curvature="0" /></g><g
           id="g44"
           transform="translate(31.5905,33.3376)"><path
             d="m 0,0 1.165,1.379 c 1.736,-1.568 3.399,-2.352 5.705,-2.352 2.234,0 3.709,1.19 3.709,2.829 v 0.046 c 0,1.545 -0.833,2.425 -4.327,3.162 C 2.424,5.896 0.665,7.131 0.665,9.866 v 0.046 c 0,2.616 2.307,4.541 5.466,4.541 2.426,0 4.16,-0.689 5.85,-2.043 l -1.093,-1.45 c -1.545,1.259 -3.091,1.806 -4.805,1.806 -2.16,0 -3.538,-1.19 -3.538,-2.686 V 10.033 C 2.545,8.464 3.399,7.584 7.059,6.798 10.768,5.992 12.48,4.635 12.48,2.094 V 2.045 c 0,-2.851 -2.376,-4.707 -5.682,-4.707 C 4.16,-2.662 1.998,-1.782 0,0"
             style="fill:#231f20;fill-opacity:1;fill-rule:nonzero;stroke:none"
             id="path46"
             inkscape:connector-curvature="0" /></g><g
           id="g48"
           transform="translate(64.1531,39.1861)"><path
             d="m 0,0 v 0.048 c 0,3.78 -2.758,6.87 -6.561,6.87 -3.802,0 -6.513,-3.043 -6.513,-6.823 V 0.048 c 0,-3.78 2.757,-6.87 6.561,-6.87 C -2.71,-6.822 0,-3.779 0,0 m -15.023,0 v 0.048 c 0,4.589 3.447,8.605 8.51,8.605 5.064,0 8.462,-3.97 8.462,-8.558 V 0.048 c 0,-4.588 -3.446,-8.605 -8.51,-8.605 -5.063,0 -8.462,3.97 -8.462,8.557"
             style="fill:#231f20;fill-opacity:1;fill-rule:nonzero;stroke:none"
             id="path50"
             inkscape:connector-curvature="0" /></g><g
           id="g52"
           transform="translate(72.0398,47.5538)"><path
             d="M 0,0 H 11.957 V -1.735 H 1.878 v -5.943 h 9.01 v -1.711 h -9.01 v -7.25 H 0 Z"
             style="fill:#231f20;fill-opacity:1;fill-rule:nonzero;stroke:none"
             id="path54"
             inkscape:connector-curvature="0" /></g><g
           id="g56"
           transform="translate(94.6963,45.8186)"><path
             d="M 0,0 H -5.587 V 1.735 H 7.489 V 0 H 1.901 V -14.904 H 0 Z"
             style="fill:#231f20;fill-opacity:1;fill-rule:nonzero;stroke:none"
             id="path58"
             inkscape:connector-curvature="0" /></g><g
           id="g60"
           transform="translate(106.3864,47.5538)"><path
             d="M 0,0 H 2.046 L 6.8,-13.86 11.363,0.047 H 12.91 L 17.473,-13.86 22.227,0 H 24.2 l -5.943,-16.757 h -1.592 l -4.564,13.5 -4.589,-13.5 H 5.943 Z"
             style="fill:#231f20;fill-opacity:1;fill-rule:nonzero;stroke:none"
             id="path62"
             inkscape:connector-curvature="0" /></g><g
           id="g64"
           transform="translate(144.6063,37)"><path
             d="M 0,0 -3.78,8.487 -7.584,0 Z m -4.635,10.673 h 1.758 L 4.707,-6.086 H 2.688 L 0.736,-1.689 H -8.32 l -1.972,-4.397 h -1.927 z"
             style="fill:#231f20;fill-opacity:1;fill-rule:nonzero;stroke:none"
             id="path66"
             inkscape:connector-curvature="0" /></g><g
           id="g68"
           transform="translate(160.8552,39.0668)"><path
             d="M 0,0 C 2.494,0 4.278,1.284 4.278,3.424 V 3.47 c 0,2.045 -1.568,3.282 -4.255,3.282 H -5.111 V 0 Z M -6.989,8.487 H 0.166 C 2.209,8.487 3.851,7.87 4.896,6.823 5.703,6.014 6.18,4.849 6.18,3.543 V 3.495 C 6.18,0.737 4.278,-0.878 1.662,-1.354 L 6.774,-8.152 H 4.468 l -4.826,6.466 h -4.753 v -6.466 h -1.878 z"
             style="fill:#231f20;fill-opacity:1;fill-rule:nonzero;stroke:none"
             id="path70"
             inkscape:connector-curvature="0" /></g><g
           id="g72"
           transform="translate(174.412,47.5538)"><path
             d="M 0,0 H 12.029 V -1.713 H 1.878 v -5.68 h 9.08 v -1.711 h -9.08 v -5.825 h 10.269 v -1.71 H 0 Z"
             style="fill:#231f20;fill-opacity:1;fill-rule:nonzero;stroke:none"
             id="path74"
             inkscape:connector-curvature="0" /></g><g
           id="g76"
           transform="translate(193.6103,47.5538)"><path
             d="M 0,0 H 3.945 L 8.318,-7.037 12.695,0 h 3.944 V -16.639 H 13.003 V -5.776 L 8.318,-12.884 H 8.225 L 3.588,-5.847 V -16.639 H 0 Z"
             style="fill:#231f20;fill-opacity:1;fill-rule:nonzero;stroke:none"
             id="path78"
             inkscape:connector-curvature="0" /></g><path
           d="m 216.378,47.554 h 3.661 V 30.915 h -3.661 z"
           style="fill:#231f20;fill-opacity:1;fill-rule:nonzero;stroke:none"
           id="path80"
           inkscape:connector-curvature="0" /><g
           id="g82"
           transform="translate(242.1553,47.5538)"><path
             d="m 0,0 h 3.66 v -13.312 h 6.059 v -3.327 H 0 Z"
             style="fill:#231f20;fill-opacity:1;fill-rule:nonzero;stroke:none"
             id="path84"
             inkscape:connector-curvature="0" /></g><g
           id="g86"
           transform="translate(226.8646,47.5538)"><path
             d="m 0,0 h 3.66 v -13.312 h 6.059 v -3.327 H 0 Z"
             style="fill:#231f20;fill-opacity:1;fill-rule:nonzero;stroke:none"
             id="path88"
             inkscape:connector-curvature="0" /></g></g></g></g></svg>