<svg width="500" height="100" viewBox="0 0 500 100" fill="none" xmlns="http://www.w3.org/2000/svg">
<path d="M93.8999 10.8008L64.5 88.8008H49.3999L20 10.8008H34L57 73.3008L80 10.8008H93.8999Z" fill="#1C1635"/>
<path d="M154.599 13.8999C160.28 17.1501 164.819 22.0742 167.599 28C170.599 34.1 172.099 41.4 172.099 49.8C172.099 58.2001 170.599 65.4 167.599 71.5C164.793 77.4341 160.263 82.3833 154.599 85.7C148.545 89.0474 141.715 90.7378 134.798 90.6001C127.882 90.7378 121.052 89.0474 114.999 85.7C109.31 82.4133 104.772 77.4555 101.999 71.5C98.8985 65.4 97.3984 58.1 97.3984 49.8C97.3984 41.5 98.8985 34.1 101.999 28C104.75 22.0555 109.297 17.1238 114.999 13.8999C120.599 10.5999 127.198 9 134.798 9C142.398 9 148.999 10.5999 154.599 13.8999ZM121.999 24.5C118.285 26.8299 115.385 30.2538 113.698 34.3C111.698 38.5 110.698 43.7001 110.698 49.8C110.559 55.1234 111.583 60.4132 113.698 65.3C115.414 69.3025 118.309 72.6864 121.999 75C125.874 77.2715 130.308 78.4145 134.798 78.3C139.259 78.4282 143.664 77.2835 147.499 75C151.192 72.664 154.114 69.2897 155.898 65.3C158.014 60.4132 159.038 55.1234 158.898 49.8C158.898 43.7001 157.898 38.5 155.898 34.3C154.141 30.267 151.215 26.8533 147.499 24.5C143.664 22.2165 139.259 21.0718 134.798 21.2C130.308 21.0855 125.874 22.2285 121.999 24.5Z" fill="#1C1635"/>
<path d="M216.601 10.8008C224.001 10.8008 230.501 12.3006 236.001 15.4006C241.553 18.4789 246.022 23.1926 248.801 28.9006C251.801 34.7006 253.301 41.6007 253.301 49.5007C253.301 57.4007 251.801 64.4008 248.801 70.3008C246.023 76.0347 241.556 80.7806 236.001 83.9006C230.401 87.2006 223.901 88.8008 216.301 88.8008H185.801V10.8008H216.601ZM198.901 76.4006H214.801C220.501 76.4006 225.201 75.3008 229.001 73.1008C232.687 71.0554 235.602 67.8591 237.301 64.0007C239.21 59.4812 240.131 54.6054 240.001 49.7007C240.12 44.8293 239.199 39.9885 237.301 35.5007C235.602 31.6423 232.687 28.4461 229.001 26.4006C225.201 24.2006 220.501 23.2007 214.801 23.2007H198.901V76.4006Z" fill="#1C1635"/>
<path d="M280.1 23.2007V42.5007H317V54.9006H280.1V76.4006H320.5V88.8008H267V10.8008H320.5V23.2007H280.1Z" fill="#1C1635"/>
<path d="M398.6 10.8008V88.8008H383.5L347.2 31.3008V88.8008H334.1V10.8008H349.3L385.6 68.6008V10.8008H398.6Z" fill="#1C1635"/>
<path d="M469.499 13.8999C475.201 17.1238 479.748 22.0555 482.499 28C485.499 34.1 486.999 41.4 486.999 49.8C486.999 58.2001 485.499 65.4 482.499 71.5C479.726 77.4555 475.187 82.4133 469.499 85.7C463.445 89.0474 456.615 90.7378 449.699 90.6001C442.783 90.7378 435.953 89.0474 429.899 85.7C424.235 82.3833 419.704 77.4341 416.899 71.5C413.799 65.4 412.299 58.1 412.299 49.8C412.299 41.5 413.799 34.1 416.899 28C419.678 22.0742 424.218 17.1501 429.899 13.8999C435.499 10.5999 442.099 9 449.699 9C457.299 9 463.899 10.5999 469.499 13.8999ZM436.899 24.5C433.186 26.8299 430.286 30.2538 428.599 34.3C426.599 38.5 425.599 43.7001 425.599 49.8C425.459 55.1234 426.483 60.4132 428.599 65.3C430.314 69.3025 433.21 72.6864 436.899 75C440.775 77.2715 445.208 78.4145 449.699 78.3C454.19 78.4145 458.623 77.2715 462.499 75C466.163 72.6581 469.052 69.2827 470.799 65.3C472.915 60.4132 473.938 55.1234 473.799 49.8C473.799 43.7001 472.799 38.5 470.799 34.3C469.079 30.2741 466.187 26.8591 462.499 24.5C458.623 22.2285 454.19 21.0855 449.699 21.2C445.208 21.0855 440.775 22.2285 436.899 24.5Z" fill="#1C1635"/>
<path d="M8 0H0V100H8V0Z" fill="#5757D9"/>
</svg>
