<?xml version="1.0" encoding="UTF-8" standalone="no"?>
<svg
   xmlns:dc="http://purl.org/dc/elements/1.1/"
   xmlns:cc="http://creativecommons.org/ns#"
   xmlns:rdf="http://www.w3.org/1999/02/22-rdf-syntax-ns#"
   xmlns:svg="http://www.w3.org/2000/svg"
   xmlns="http://www.w3.org/2000/svg"
   xmlns:xlink="http://www.w3.org/1999/xlink"
   xmlns:sodipodi="http://sodipodi.sourceforge.net/DTD/sodipodi-0.dtd"
   xmlns:inkscape="http://www.inkscape.org/namespaces/inkscape"
   width="364.906"
   height="83.36"
   viewBox="0 0 364.906 83.36"
   version="1.1"
   id="svg40"
   sodipodi:docname="bigpicture.svg"
   inkscape:version="0.92.5 (2060ec1f9f, 2020-04-08)">
  <metadata
     id="metadata44">
    <rdf:RDF>
      <cc:Work
         rdf:about="">
        <dc:format>image/svg+xml</dc:format>
        <dc:type
           rdf:resource="http://purl.org/dc/dcmitype/StillImage" />
        <dc:title></dc:title>
      </cc:Work>
    </rdf:RDF>
  </metadata>
  <sodipodi:namedview
     pagecolor="#ffffff"
     bordercolor="#666666"
     borderopacity="1"
     objecttolerance="10"
     gridtolerance="10"
     guidetolerance="10"
     inkscape:pageopacity="0"
     inkscape:pageshadow="2"
     inkscape:window-width="1920"
     inkscape:window-height="1043"
     id="namedview42"
     showgrid="false"
     inkscape:zoom="0.95092981"
     inkscape:cx="182.453"
     inkscape:cy="41.68"
     inkscape:window-x="0"
     inkscape:window-y="0"
     inkscape:window-maximized="1"
     inkscape:current-layer="BigPictureCO-normal-horizontal" />
  <defs
     id="defs15">
    <linearGradient
       id="linear-gradient"
       x1="0.031"
       y1="0.228"
       x2="0.674"
       y2="0.801"
       gradientUnits="objectBoundingBox">
      <stop
         offset="0"
         stop-color="#b5043f"
         id="stop2" />
      <stop
         offset="1"
         stop-color="#ff0457"
         id="stop4" />
    </linearGradient>
    <linearGradient
       id="linear-gradient-2"
       x1="0.343"
       y1="0.911"
       x2="0.977"
       y2="0.36"
       xlink:href="#linear-gradient" />
    <linearGradient
       id="linear-gradient-3"
       x1="0.757"
       y1="0.049"
       x2="-0.063"
       y2="0.701"
       xlink:href="#linear-gradient" />
    <linearGradient
       id="linear-gradient-4"
       x1="0.5"
       y1="0.153"
       x2="0.5"
       y2="0.826"
       xlink:href="#linear-gradient" />
    <linearGradient
       id="linear-gradient-5"
       x1="0.5"
       y1="0.858"
       x2="0.5"
       y2="0.153"
       xlink:href="#linear-gradient" />
    <linearGradient
       id="linear-gradient-6"
       x1="0.971"
       y1="0.65"
       x2="0.305"
       y2="0.187"
       xlink:href="#linear-gradient" />
    <clipPath
       id="clip-BigPictureCO-normal-horizontal">
      <rect
         width="364.906"
         height="83.36"
         id="rect12" />
    </clipPath>
  </defs>
  <g
     id="BigPictureCO-normal-horizontal"
     clip-path="url(#clip-BigPictureCO-normal-horizontal)">
    <g
       id="Group_38"
       data-name="Group 38">
      <g
         id="Group_36"
         data-name="Group 36">
        <path
           id="Path_100"
           data-name="Path 100"
           d="M32.767,60.6l-12.5-7.216a3.685,3.685,0,0,1-1.8-2.625c-.033.854-.056,1.712-.056,2.576a63.724,63.724,0,0,0,4.135,22.643L33.166,82.1a7.368,7.368,0,0,0,7.37,0L61.423,70.045A63.5,63.5,0,0,1,32.767,60.6Z"
           fill="url(#linear-gradient)" />
        <path
           id="Path_101"
           data-name="Path 101"
           d="M52.243,54.069l-13.55,7.823a3.273,3.273,0,0,1-3.337.233c-.017-.009.23.137.4.23a63.472,63.472,0,0,0,25.668,7.69l8.593-4.962A7.367,7.367,0,0,0,73.7,58.7V35.193A64.176,64.176,0,0,1,52.243,54.069Z"
           fill="url(#linear-gradient-2)" />
        <path
           id="Path_102"
           data-name="Path 102"
           d="M20.073,30.109c.065-.043,14.935-8.641,14.935-8.641a3.682,3.682,0,0,1,3.081-.272,63.49,63.49,0,0,0-23.755-9.067L3.685,18.277A7.369,7.369,0,0,0,0,24.659V47.367A64.167,64.167,0,0,1,20.073,30.109Z"
           fill="url(#linear-gradient-3)" />
        <path
           id="Path_103"
           data-name="Path 103"
           d="M18.417,53.333c0-.864.023-1.722.056-2.576-.029-.187-.048-17.587-.048-17.587a3.68,3.68,0,0,1,1.647-3.061A64.187,64.187,0,0,0,0,47.367V58.7a7.369,7.369,0,0,0,3.685,6.382L22.552,75.976A63.724,63.724,0,0,1,18.417,53.333Z"
           fill="url(#linear-gradient-4)" />
        <g
           id="Group_35"
           data-name="Group 35">
          <path
             id="Path_104"
             data-name="Path 104"
             d="M70.016,18.277,50.624,7.081a63.692,63.692,0,0,1,4.652,23.963V50.19a3.706,3.706,0,0,1-1.814,3.2h0A64.178,64.178,0,0,0,73.7,35.193V24.659A7.367,7.367,0,0,0,70.016,18.277Z"
             fill="url(#linear-gradient-5)" />
        </g>
        <path
           id="Path_105"
           data-name="Path 105"
           d="M38.088,21.2c.207.074,15.345,8.782,15.345,8.782A3.68,3.68,0,0,1,55.251,32.8q.024-.873.025-1.752A63.692,63.692,0,0,0,50.624,7.081L40.536,1.256a7.373,7.373,0,0,0-7.37,0L14.334,12.129A63.479,63.479,0,0,1,38.088,21.2Z"
           fill="url(#linear-gradient-6)" />
      </g>
      <g
         id="Group_37"
         data-name="Group 37">
        <path
           id="Path_106"
           data-name="Path 106"
           d="M92,20.865h19.437c7.39,0,11.675,4.533,11.675,10.556a9.368,9.368,0,0,1-7.2,9.5c4.409.683,8.01,5.154,8.01,10.184,0,6.521-4.347,11.178-11.985,11.178H92Zm18.257,17.574c4.161,0,6.459-2.608,6.459-6.023s-2.3-6.086-6.459-6.086H98.209V38.439Zm.311,18.381c4.346,0,6.955-2.484,6.955-6.52,0-3.416-2.36-6.4-6.955-6.4H98.209V56.82Z"
           fill="#28303e" />
        <path
           id="Path_107"
           data-name="Path 107"
           d="M130.435,23.722a3.646,3.646,0,0,1,3.6-3.6,3.6,3.6,0,0,1,3.6,3.6,3.551,3.551,0,0,1-3.6,3.539A3.591,3.591,0,0,1,130.435,23.722Zm.87,8.569h5.589V62.285H131.3Z"
           fill="#28303e" />
        <path
           id="Path_108"
           data-name="Path 108"
           d="M148.007,65.887c2.485,2.856,5.527,3.975,9.626,3.975,4.658,0,9.315-2.236,9.315-8.57V57.379a12.643,12.643,0,0,1-9.874,5.155c-7.762,0-13.352-5.714-13.352-15.526,0-9.625,5.59-15.462,13.352-15.462a12.245,12.245,0,0,1,9.874,5.092V32.291h5.589V61.1c0,10.309-7.514,13.352-14.9,13.352-5.031,0-8.694-1.056-12.3-4.472Zm18.941-24.964a10.458,10.458,0,0,0-8.321-4.41c-5.59,0-9.068,4.348-9.068,10.495,0,6.211,3.478,10.557,9.068,10.557a10.511,10.511,0,0,0,8.321-4.471Z"
           fill="#28303e" />
        <path
           id="Path_109"
           data-name="Path 109"
           d="M181.352,20.865H198.8c8.508,0,13.228,5.837,13.228,12.73S207.248,46.326,198.8,46.326H187.563V62.285h-6.211Zm16.643,5.465H187.563V40.861h10.432c4.471,0,7.638-2.919,7.638-7.266S202.466,26.33,197.995,26.33Z"
           fill="#28303e" />
        <path
           id="Path_110"
           data-name="Path 110"
           d="M217.243,23.722a3.645,3.645,0,0,1,3.6-3.6,3.605,3.605,0,0,1,3.6,3.6,3.552,3.552,0,0,1-3.6,3.539A3.591,3.591,0,0,1,217.243,23.722Zm.869,8.569H223.7V62.285h-5.589Z"
           fill="#28303e" />
        <path
           id="Path_111"
           data-name="Path 111"
           d="M245.807,31.546c5.651,0,9.066,2.359,11.24,5.278l-3.726,3.416a8.377,8.377,0,0,0-7.266-3.727c-5.9,0-9.687,4.534-9.687,10.744s3.788,10.805,9.687,10.805a8.524,8.524,0,0,0,7.266-3.726l3.726,3.415c-2.174,2.919-5.589,5.279-11.24,5.279-9.067,0-15.276-6.768-15.276-15.773S236.74,31.546,245.807,31.546Z"
           fill="#28303e" />
        <path
           id="Path_112"
           data-name="Path 112"
           d="M264.124,55.641V37.2h-4.969V32.291h4.969v-8.2h5.588v8.2H275.8V37.2h-6.086V54.4c0,2.112.994,3.664,2.919,3.664a4.3,4.3,0,0,0,3.043-1.179L277.1,61.1c-1.181,1.118-2.919,1.925-5.838,1.925C266.546,63.03,264.124,60.36,264.124,55.641Z"
           fill="#28303e" />
        <path
           id="Path_113"
           data-name="Path 113"
           d="M302.065,58.186a14.818,14.818,0,0,1-10.681,4.844c-6.4,0-9.564-3.229-9.564-9.563V32.291h5.59V51.6c0,4.968,2.483,6.458,6.333,6.458a10.841,10.841,0,0,0,8.322-4.222V32.291h5.589V62.285h-5.589Z"
           fill="#28303e" />
        <path
           id="Path_114"
           data-name="Path 114"
           d="M316.345,32.291h5.589v4.6a12.741,12.741,0,0,1,9.812-5.278v5.651a8.742,8.742,0,0,0-1.925-.186c-2.8,0-6.582,2.111-7.887,4.347V62.285h-5.589Z"
           fill="#28303e" />
        <path
           id="Path_115"
           data-name="Path 115"
           d="M350.312,31.546c9,0,14.594,7.017,14.594,16.208V49.12H341.183a9.838,9.838,0,0,0,10.185,9.315,12.754,12.754,0,0,0,8.88-3.539l2.608,3.663a16.866,16.866,0,0,1-12.047,4.471c-8.942,0-15.525-6.334-15.525-15.773C335.284,38.563,341.556,31.546,350.312,31.546Zm-9.191,13.537h18.32c-.124-3.974-2.794-8.942-9.129-8.942C344.289,36.141,341.432,40.985,341.121,45.083Z"
           fill="#28303e" />
      </g>
    </g>
  </g>
</svg>
