<?xml version="1.0" encoding="UTF-8" standalone="no"?>
<!-- Created with Inkscape (http://www.inkscape.org/) -->

<svg
   xmlns:dc="http://purl.org/dc/elements/1.1/"
   xmlns:cc="http://creativecommons.org/ns#"
   xmlns:rdf="http://www.w3.org/1999/02/22-rdf-syntax-ns#"
   xmlns:svg="http://www.w3.org/2000/svg"
   xmlns="http://www.w3.org/2000/svg"
   xmlns:sodipodi="http://sodipodi.sourceforge.net/DTD/sodipodi-0.dtd"
   xmlns:inkscape="http://www.inkscape.org/namespaces/inkscape"
   version="1.1"
   id="svg2"
   xml:space="preserve"
   width="322.431"
   height="90.708336"
   viewBox="0 0 322.431 90.708336"
   sodipodi:docname="BNPParibas.svg"
   inkscape:version="0.92.5 (2060ec1f9f, 2020-04-08)"><metadata
     id="metadata8"><rdf:RDF><cc:Work
         rdf:about=""><dc:format>image/svg+xml</dc:format><dc:type
           rdf:resource="http://purl.org/dc/dcmitype/StillImage" /><dc:title></dc:title></cc:Work></rdf:RDF></metadata><defs
     id="defs6"><linearGradient
       x1="34.015629"
       y1="57.80859"
       x2="34.015629"
       y2="9.9313698"
       gradientUnits="userSpaceOnUse"
       spreadMethod="pad"
       id="linearGradient18"><stop
         style="stop-opacity:1;stop-color:#007b50"
         offset="0"
         id="stop12" /><stop
         style="stop-opacity:1;stop-color:#80d2a4"
         offset="0.59999"
         id="stop14" /><stop
         style="stop-opacity:1;stop-color:#00a770"
         offset="1"
         id="stop16" /></linearGradient><linearGradient
       x1="33.943851"
       y1="67.959473"
       x2="33.943851"
       y2="14.15868"
       gradientUnits="userSpaceOnUse"
       spreadMethod="pad"
       id="linearGradient34"><stop
         style="stop-opacity:1;stop-color:#00a770"
         offset="0"
         id="stop22" /><stop
         style="stop-opacity:1;stop-color:#80d2a4"
         offset="0.29999"
         id="stop24" /><stop
         style="stop-opacity:1;stop-color:#00a770"
         offset="0.54999"
         id="stop26" /><stop
         style="stop-opacity:1;stop-color:#007b50"
         offset="0.83516"
         id="stop28" /><stop
         style="stop-opacity:1;stop-color:#007b50"
         offset="0.87851452"
         id="stop30" /><stop
         style="stop-opacity:1;stop-color:#1ab07b"
         offset="1"
         id="stop32" /></linearGradient><linearGradient
       x1="42.562012"
       y1="17.129881"
       x2="42.562012"
       y2="51.945389"
       gradientUnits="userSpaceOnUse"
       spreadMethod="pad"
       id="linearGradient42"><stop
         style="stop-opacity:1;stop-color:#33b880"
         offset="0"
         id="stop38" /><stop
         style="stop-opacity:1;stop-color:#00a770"
         offset="1"
         id="stop40" /></linearGradient><linearGradient
       x1="20.960939"
       y1="17.12793"
       x2="20.960939"
       y2="51.953949"
       gradientUnits="userSpaceOnUse"
       spreadMethod="pad"
       id="linearGradient50"><stop
         style="stop-opacity:1;stop-color:#33b880"
         offset="0"
         id="stop46" /><stop
         style="stop-opacity:1;stop-color:#00a770"
         offset="1"
         id="stop48" /></linearGradient><linearGradient
       x1="27.689939"
       y1="17.13574"
       x2="27.689939"
       y2="51.938869"
       gradientUnits="userSpaceOnUse"
       spreadMethod="pad"
       id="linearGradient58"><stop
         style="stop-opacity:1;stop-color:#33b880"
         offset="0"
         id="stop54" /><stop
         style="stop-opacity:1;stop-color:#00a770"
         offset="1"
         id="stop56" /></linearGradient><linearGradient
       x1="33.507809"
       y1="17.130859"
       x2="33.507809"
       y2="51.94598"
       gradientUnits="userSpaceOnUse"
       spreadMethod="pad"
       id="linearGradient66"><stop
         style="stop-opacity:1;stop-color:#33b880"
         offset="0"
         id="stop62" /><stop
         style="stop-opacity:1;stop-color:#00a770"
         offset="1"
         id="stop64" /></linearGradient></defs><sodipodi:namedview
     pagecolor="#ffffff"
     bordercolor="#666666"
     borderopacity="1"
     objecttolerance="10"
     gridtolerance="10"
     guidetolerance="10"
     inkscape:pageopacity="0"
     inkscape:pageshadow="2"
     inkscape:window-width="1848"
     inkscape:window-height="1016"
     id="namedview4"
     showgrid="false"
     inkscape:zoom="1.0761992"
     inkscape:cx="57.61015"
     inkscape:cy="45.354168"
     inkscape:window-x="0"
     inkscape:window-y="27"
     inkscape:window-maximized="1"
     inkscape:current-layer="g10" /><g
     id="g10"
     inkscape:groupmode="layer"
     inkscape:label="BNPP_BL_Q"
     transform="matrix(1.3333333,0,0,-1.3333333,0,90.708333)"><path
       d="M 56.69287,11.33789 H 11.33838 v 45.35498 h 45.35449 z"
       style="fill:url(#linearGradient18);fill-opacity:1;fill-rule:nonzero;stroke:none"
       id="path20"
       inkscape:connector-curvature="0" /><path
       d="m 55.2915,33.75293 c 0,-9.4668 0.4375,-19.16016 0.4375,-19.16016 -0.0166,-1.08691 -0.71386,-1.78222 -1.59082,-1.78222 H 14.88135 c -0.87891,0 -1.48633,0.78222 -1.58985,1.78222 0,0 -1.13281,8.27539 -1.13281,20.92383 0,12.64258 1.13281,18.5957 1.13281,18.5957 0.13575,1.04004 0.71094,1.78321 1.58985,1.78321 h 39.25683 c 0.87696,0 1.61133,-0.81446 1.59082,-1.78321 0,0 -0.4375,-10.89257 -0.4375,-20.35937 z"
       style="fill:url(#linearGradient34);fill-opacity:1;fill-rule:nonzero;stroke:none"
       id="path36"
       inkscape:connector-curvature="0" /><path
       d="M 46.55811,44.44531 C 43.75342,42.80273 42.89697,42.6709 39.854,40.84375 l 0.14844,0.33789 c 1.59668,1.74219 2.29199,2.47656 3.3418,4.01563 -2.8125,-0.15235 -6.88867,-0.48829 -9.80567,-1.13086 v 0 0 0 l 0.1543,0.3125 c 2.64551,1.28711 7.55664,2.56543 10.06055,2.89648 -0.61035,0.85938 -5.58692,3.55078 -6.8252,4.07031 v 0 0 0 l 0.14453,0.31446 c 3.77149,-0.42578 8.76758,-2.18946 10.94629,-3.52539 0.91992,0.29003 1.86035,0.31836 3.56641,0.46679 0,0 -0.25195,-1.02929 -2.11231,-2.30566 v 0 0 0 c 0.46094,-1.23535 -0.64746,-8.0752 -1.55957,-9.88965 v 0 0 0 c -0.04101,2.86133 -0.29589,6.47168 -1.35546,8.03906 z"
       style="fill:url(#linearGradient42);fill-opacity:1;fill-rule:nonzero;stroke:none"
       id="path44"
       inkscape:connector-curvature="0" /><path
       d="m 26.06494,19.92578 0.14258,0.31641 c -1.48926,0.57812 -2.97852,1.03418 -4.18457,2.16992 v 0 0 0 0 0 0 0 0 0 0 0 0 0 0 0 0 0 0 0 0 0 0 0 0 0 0 0 0 0 0 0 c 0.37988,1.05469 0.81348,1.88086 1.52148,2.92578 v 0 0 0 0 0 0 0 0 0 0 0 0 0 0 0 0 0 0 0 0 0 0 0 0 0 0 0 0 0 0 0 l 0.14942,0.32031 c -1.2793,-0.19238 -2.44043,-0.66113 -3.54688,-0.87695 v 0 0 0 0 0 0 0 0 0 0 0 0 0 0 0 0 0 0 0 0 0 0 0 0 0 0 0 0 0 0 0 c -0.87304,1.53418 -1.21191,3.63281 -1.65136,5.63086 L 18.3501,30.09375 v 0 0 0 0 0 0 0 0 0 0 0 0 0 0 0 c -0.24707,-2.2793 -0.34668,-3.90918 -0.02051,-5.73047 v 0 0 0 0 0 0 0 0 0 0 0 0 0 0 0 0 0 0 0 0 0 0 0 0 0 0 0 0 0 0 0 c -0.92188,-0.25586 -1.73047,-0.29199 -2.47363,-0.6084 l -0.1416,-0.3125 v 0 0 0 0 0 0 0 0 0 0 0 0 0 0 0 0 0 0 0 0 0 0 0 0 0 0 0 0 0 0 0 c 1.18261,-0.72949 2.1455,-1.28808 3.48339,-1.91308 v 0 0 0 0 0 0 0 0 0 0 0 0 0 0 0 0 0 0 0 0 0 0 0 0 0 0 0 0 0 0 0 c 0.71485,-1.53711 1.45508,-2.57325 2.65332,-3.75684 v 0 0 0 0 0 0 0 0 0 0 0 0 0 0 0 0 0 0 0 0 0 0 0 0 0 0 0 0 0 0 0 l 0.14649,0.31641 c -0.21582,0.87402 -0.49512,1.5957 -0.38965,2.55078 v 0 0 0 0 0 0 0 0 0 0 0 0 0 0 0 0 0 0 0 0 0 0 0 0 0 0 0 0 0 0 0 c 1.48633,-0.4336 2.7627,-0.66211 4.45703,-0.71387 z"
       style="fill:url(#linearGradient50);fill-opacity:1;fill-rule:nonzero;stroke:none"
       id="path52"
       inkscape:connector-curvature="0" /><path
       d="m 30.20068,42.70508 c 0,0 -0.59863,-1.0625 -1.07812,-2.47266 H 29.0083 v 0 0 c 3.49219,-0.4707 6.79102,-1.88476 7.61914,-2.37304 l -0.14746,-0.3125 v 0 0 0 0 0 0 0 c -3.625,0.63671 -5.53418,0.56542 -6.88477,0.44433 v 0 0 0 c -1.34667,-0.12988 -1.62207,-0.29785 -1.62207,-0.29785 v 0 0 0 0 0 0 0 c -0.77734,-1.69922 -1.23339,-4.47656 -1.41796,-5.5 L 26.40967,31.875 v 0 0 0 0 0 0 0 c -0.66406,1.59375 -1.61914,4.77637 -1.61914,4.77637 v 0 0 0 0 0 0 0 c -1.82617,-0.97949 -6.03809,-4.93262 -6.03809,-4.93262 v 0 0 0 0 0 0 0 c 2.32227,4.62891 4.66797,6.74414 4.66797,6.74414 v 0 0 0 0 0 0 0 c -0.81055,0.8125 -2.92578,1.22656 -4.4707,1.29297 v 0 0 0 l 0.14258,0.3125 c 0.9707,0.28516 2.96875,0.4043 4.30859,0.46582 v 0 0 0 0 0 0 0 c 1.58496,0.04785 2.54297,-0.04297 2.54297,-0.04297 v 0 0 0 c 1.41015,1.12402 3.5166,2.10938 4.25683,2.21387 z"
       style="fill:url(#linearGradient58);fill-opacity:1;fill-rule:nonzero;stroke:none"
       id="path60"
       inkscape:connector-curvature="0" /><path
       d="M 34.64502,22.80176 C 33.9126,21.80859 33.28662,21.02637 32.479,20.11816 v 0 0 0 0 0 0 0 0 0 0 0 0 0 0 0 0 0 0 0 0 0 0 0 0 0 0 0 0 0 0 0 c -1.19336,-0.33105 -2.625,-0.18066 -3.72754,-0.2207 l -0.14453,-0.31641 v 0 0 0 0 0 0 0 0 0 0 0 0 0 0 0 0 0 0 0 0 0 0 0 0 0 0 0 0 0 0 0 c 0.83008,-0.42675 1.64258,-0.68847 2.51172,-0.86718 v 0 0 0 0 0 0 0 0 0 0 0 0 0 0 0 0 0 0 0 0 0 0 0 0 0 0 0 0 0 0 0 c -0.7041,-0.64063 -1.64551,-1.12891 -2.30566,-1.5752 L 28.6665,16.82715 v 0 0 0 0 0 0 0 0 0 0 0 0 0 0 0 0 0 0 0 0 0 0 0 0 0 0 0 0 0 0 0 c 1.417,0.33496 3.28223,0.93652 4.67188,1.75683 v 0 0 0 0 0 0 0 0 0 0 0 0 0 0 0 0 0 0 0 0 0 0 0 0 0 0 0 0 0 0 0 c 0.72266,-0.03222 1.39844,0.01563 1.89453,0.11426 v 0 0 0 0 0 0 0 0 0 0 0 0 0 0 0 0 0 0 0 0 0 0 0 0 0 0 0 0 0 0 0 c 0,0 0.14844,0.32324 0.14844,0.31543 -0.09082,0.32031 -0.375,0.51563 -0.45899,0.96387 v 0 0 0 0 0 0 0 0 0 0 0 0 0 0 0 0 0 0 0 0 0 0 0 0 0 0 0 0 0 0 0 c 1.30274,1.01074 2.2461,1.93164 3.33594,3.02734 v 0 0 0 0 0 0 0 0 0 0 0 0 0 0 0 0 0 0 0 0 0 0 0 0 0 0 0 0 0 0 0 l 0.15039,0.31739 c -1.07617,-0.74219 -2.38183,-1.7627 -3.64062,-2.35938 v 0 0 0 0 0 0 0 0 0 0 0 0 0 0 0 0 0 0 0 0 0 0 0 0 0 0 0 0 0 0 0 c -0.05176,0.61816 -0.0918,1.14356 -0.12305,1.83887 z"
       style="fill:url(#linearGradient66);fill-opacity:1;fill-rule:nonzero;stroke:none"
       id="path68"
       inkscape:connector-curvature="0" /><path
       d="m 46.70264,44.76465 c -2.79883,-1.64551 -3.65625,-1.78418 -6.7002,-3.60547 1.77246,1.92285 2.38867,2.74121 3.48535,4.35059 -2.80566,-0.14844 -6.88379,-0.48633 -9.79492,-1.13086 v 0 0 0 c 2.53418,1.35351 7.55859,2.85839 10.21094,3.21679 -0.61524,0.84864 -5.59277,3.54493 -6.83106,4.06446 v 0 0 0 c 3.94043,-0.30664 8.75782,-1.7793 11.09278,-3.20703 0.91894,0.2871 1.87402,0.30078 3.58398,0.45312 v 0 0 0 c -0.43555,-0.74805 -0.4541,-1.18066 -2.13183,-2.29297 v 0 0 0 c 0.46484,-1.24316 -0.64551,-8.07812 -1.5625,-9.88867 v 0 0 0 c -0.03321,2.85937 -0.28321,6.4707 -1.35254,8.04004 z"
       style="fill:#ffffff;fill-opacity:1;fill-rule:nonzero;stroke:none"
       id="path70"
       inkscape:connector-curvature="0" /><path
       d="m 26.20752,20.24219 c -1.6084,0.59668 -2.7666,1.29101 -4.04199,2.4834 v 0 0 0 0 0 0 0 0 0 0 0 0 0 0 0 0 0 0 0 0 0 0 0 0 0 0 0 0 0 0 0 c 0.38183,1.05371 0.81738,1.87695 1.52832,2.93261 v 0 0 0 0 0 0 0 0 0 0 0 0 0 0 0 0 0 0 0 0 0 0 0 0 0 0 0 0 0 0 0 c -1.30762,-0.19531 -2.27149,-0.34277 -3.39844,-0.55566 v 0 0 0 0 0 0 0 0 0 0 0 0 0 0 0 0 0 0 0 0 0 0 0 0 0 0 0 0 0 0 0 c -0.91699,1.60449 -1.33301,3.15332 -1.7998,5.30957 v 0 0 0 0 0 0 0 0 0 0 0 0 0 0 0 c -0.25,-2.28516 -0.34473,-3.91699 -0.02247,-5.73535 v 0 0 0 0 0 0 0 0 0 0 0 0 0 0 0 0 0 0 0 0 0 0 0 0 0 0 0 0 0 0 0 c -1.03418,-0.28711 -1.7666,-0.53809 -2.61718,-0.92188 v 0 0 0 0 0 0 0 0 0 0 0 0 0 0 0 0 0 0 0 0 0 0 0 0 0 0 0 0 0 0 0 c 1.19238,-0.72949 2.15527,-1.29101 3.48633,-1.91211 v 0 0 0 0 0 0 0 0 0 0 0 0 0 0 0 0 0 0 0 0 0 0 0 0 0 0 0 0 0 0 0 c 0.71582,-1.53418 1.45507,-2.57129 2.65527,-3.7539 v 0 0 0 0 0 0 0 0 0 0 0 0 0 0 0 0 0 0 0 0 0 0 0 0 0 0 0 0 0 0 0 c -0.28125,1.00781 -0.35547,1.80859 -0.24024,2.86621 v 0 0 0 0 0 0 0 0 0 0 0 0 0 0 0 0 0 0 0 0 0 0 0 0 0 0 0 0 0 0 0 c 1.48731,-0.4336 2.76075,-0.66113 4.4502,-0.71289 z"
       style="fill:#ffffff;fill-opacity:1;fill-rule:nonzero;stroke:none"
       id="path72"
       inkscape:connector-curvature="0" /><path
       d="m 30.39502,42.97656 v 0 0 0 0 C 29.89404,42.32617 29.31299,41.11328 29.15576,40.5498 v 0 0 0 c 4.14551,-0.56152 7.47168,-2.69042 7.47168,-2.69042 v 0 0 0 0 0 0 0 c -3.625,0.64257 -5.53515,0.5625 -6.88769,0.4414 v 0 0 0 C 28.396,38.17383 28.11963,38.01563 28.11963,38.01563 v 0 0 0 0 0 0 0 c -0.97754,-2.14258 -1.56445,-5.82227 -1.56445,-5.82227 v 0 0 0 0 0 0 0 c -0.65918,1.59082 -1.61231,4.77539 -1.61231,4.77539 v 0 0 0 0 0 0 0 C 23.11377,35.99023 18.90674,32.0332 18.90674,32.0332 v 0 0 0 0 0 0 0 c 2.3125,4.63282 4.66015,6.74024 4.66015,6.74024 v 0 0 0 0 0 0 0 C 22.75928,39.5918 20.64111,40 19.09229,40.06836 v 0 0 0 c 0.80371,0.32812 2.86718,0.71191 4.45214,0.78516 v 0 0 0 0 0 0 0 c 1.58692,0.04492 2.54688,-0.04493 2.54688,-0.04493 v 0 0 0 c 1.41504,1.11719 3.56348,2.0586 4.30371,2.16797 z"
       style="fill:#ffffff;fill-opacity:1;fill-rule:nonzero;stroke:none"
       id="path74"
       inkscape:connector-curvature="0" /><path
       d="M 34.79248,23.11426 C 34.06104,22.12109 33.43115,21.3418 32.61963,20.43457 v 0 0 0 0 0 0 0 0 0 0 0 0 0 0 0 0 0 0 0 0 0 0 0 0 0 0 0 0 0 0 0 c -1.39453,-0.3916 -2.50781,-0.53711 -3.86817,-0.53711 v 0 0 0 0 0 0 0 0 0 0 0 0 0 0 0 0 0 0 0 0 0 0 0 0 0 0 0 0 0 0 0 c 0.83497,-0.43066 1.64356,-0.68848 2.51465,-0.87109 v 0 0 0 0 0 0 0 0 0 0 0 0 0 0 0 0 0 0 0 0 0 0 0 0 0 0 0 0 0 0 0 c -0.87109,-0.78809 -1.60742,-1.34961 -2.45312,-1.8877 v 0 0 0 0 0 0 0 0 0 0 0 0 0 0 0 0 0 0 0 0 0 0 0 0 0 0 0 0 0 0 0 c 1.41797,0.33594 3.28125,0.9375 4.66894,1.75781 v 0 0 0 0 0 0 0 0 0 0 0 0 0 0 0 0 0 0 0 0 0 0 0 0 0 0 0 0 0 0 0 c 0.72461,-0.02832 1.40235,0.01856 1.89942,0.11719 v 0 0 0 0 0 0 0 0 0 0 0 0 0 0 0 0 0 0 0 0 0 0 0 0 0 0 0 0 0 0 0 c -0.12989,0.41992 -0.20899,0.7334 -0.31446,1.28028 v 0 0 0 0 0 0 0 0 0 0 0 0 0 0 0 0 0 0 0 0 0 0 0 0 0 0 0 0 0 0 0 c 1.30665,1.01171 2.25489,1.92773 3.3418,3.02832 v 0 0 0 0 0 0 0 0 0 0 0 0 0 0 0 0 0 0 0 0 0 0 0 0 0 0 0 0 0 0 0 C 37.25146,22.51465 36.25342,21.91211 34.91455,21.2793 v 0 0 0 0 0 0 0 0 0 0 0 0 0 0 0 0 0 0 0 0 0 0 0 0 0 0 0 0 0 0 0 c -0.05762,0.61718 -0.09082,1.13965 -0.12207,1.83496 z"
       style="fill:#ffffff;fill-opacity:1;fill-rule:nonzero;stroke:none"
       id="path76"
       inkscape:connector-curvature="0" /><path
       d="m 68.10254,41.73242 c 0.09473,-1.64746 0.19141,-5.81543 0.19141,-7.33496 0,-1.40039 -0.0029,-6.08789 -0.2461,-8.10937 l -0.0166,-0.16016 h 7.32617 c 3.59863,0 7.40723,1.12109 7.40723,4.31738 0,2.00196 -1.4502,3.48096 -4.16113,4.29053 2.01171,0.53906 3.35156,1.91309 3.35156,3.48486 0,2.60938 -2.99903,3.5918 -5.81641,3.66016 h -8.07812 l 0.04199,-0.14844 m 5.65625,-1.59814 c 3.05371,-0.02588 4.17285,-0.646 4.17285,-2.30811 0,-0.45898 -0.14062,-0.86621 -0.41211,-1.17724 -0.58398,-0.70313 -1.72265,-1.0669 -3.17676,-0.97559 h -0.07422 l -0.85351,-2.22266 h 0.85351 c 1.68555,0.04834 3.15137,-0.48291 3.9043,-1.4038 0.34766,-0.41895 0.52149,-0.92188 0.52149,-1.4375 0,-1.73731 -1.53028,-2.63575 -4.54981,-2.63575 -0.50879,0 -1.33691,0 -1.84961,0.01758 -0.08691,2.32031 -0.125,5.45947 -0.125,6.40625 0,1.09473 0.07129,3.53418 0.125,5.62012 0.34863,0.07129 0.92578,0.1167 1.46387,0.1167 z"
       style="fill:#231f20;fill-opacity:1;fill-rule:nonzero;stroke:none"
       id="path78"
       inkscape:connector-curvature="0" /><path
       d="m 99.66895,41.88086 h -3.56543 l 0.14453,-3.97266 c 0.06933,-1.9624 0.13672,-3.98193 0.27539,-5.94238 v 0 0 c -0.23047,0.61426 -0.44531,0.92969 -1.52832,2.50732 -0.0049,0.05469 -3.70899,5.75342 -4.99414,7.3711 l -0.03809,0.03662 h -4.13476 v -0.14844 c 0.13085,-1.64746 0.18359,-5.81543 0.18359,-7.33496 0,-1.40039 0,-6.08789 -0.19727,-8.10937 L 85.7793,26.12793 h 3.68457 v 0.16016 c -0.20899,3.84375 -0.20899,7.72412 -0.20899,11.4873 v 0 c 0.12891,-0.45605 0.292,-0.84814 0.87305,-1.7085 0.0459,-0.10156 6.39551,-9.34326 6.70312,-9.87255 l 0.03223,-0.06641 h 2.95215 l -0.0049,0.16016 c -0.22461,2.02148 -0.24317,6.70898 -0.24317,8.10937 0,1.51953 0.10157,5.6875 0.19727,7.33496 l 0.0459,0.14844 h -0.1416 z"
       style="fill:#231f20;fill-opacity:1;fill-rule:nonzero;stroke:none"
       id="path80"
       inkscape:connector-curvature="0" /><path
       d="m 103.93066,41.73242 c 0.14551,-1.64746 0.2002,-5.81543 0.2002,-7.33496 0,-1.40039 0,-6.08789 -0.2168,-8.10937 v -0.16016 h 4.38379 l -0.0185,0.16016 c -0.14942,1.4541 -0.22657,4.22754 -0.24219,6.34765 0.20703,-0.0088 0.82812,-0.04199 0.82812,-0.04199 l 0.6211,-0.01367 c 5.76758,0 8.57324,1.52685 8.57324,4.73926 0,3.6538 -3.93652,4.49316 -7.21777,4.56152 h -6.91114 v -0.14844 m 5.4043,-1.75293 c 2.05567,0.03809 3.48926,-0.37744 4.16895,-1.23974 0.3125,-0.3711 0.48632,-0.86036 0.48632,-1.42041 0,-2.27881 -2.56543,-2.77491 -4.70898,-2.77491 l -0.86914,0.04981 c 0,0 -0.20703,0.01953 -0.35938,0.03613 -0.0156,0.52637 -0.0156,1.22119 -0.0156,2 0,0.99121 0,2.16846 0.0469,3.2583 0.30176,0.03906 0.75879,0.09082 1.25098,0.09082 z"
       style="fill:#231f20;fill-opacity:1;fill-rule:nonzero;stroke:none"
       id="path82"
       inkscape:connector-curvature="0" /><path
       d="m 126.42773,41.73242 c 0.13868,-1.64746 0.21875,-5.81543 0.21875,-7.33496 0,-1.40039 -0.0146,-6.08789 -0.24218,-8.10937 v -0.16016 h 4.38672 l -0.0254,0.16016 c -0.13868,1.4541 -0.21875,4.22754 -0.21875,6.34765 0.20507,-0.0088 0.78906,-0.04199 0.78906,-0.04199 l 0.63672,-0.01367 c 5.76464,0 8.5957,1.52685 8.5957,4.73926 0,3.6538 -3.95898,4.49316 -7.25,4.56152 h -6.89063 v -0.14844 m 5.39649,-1.75293 c 2.05859,0.03809 3.49219,-0.37744 4.18164,-1.23974 0.31641,-0.3711 0.47656,-0.86036 0.47656,-1.42041 0,-2.27881 -2.5625,-2.77491 -4.67871,-2.77491 l -0.86816,0.04981 c 0,0 -0.23047,0.01953 -0.36328,0.03613 -0.0254,0.52637 -0.0254,1.2251 -0.0254,2 0,1.00147 0,2.16846 0.042,3.2583 0.27343,0.03906 0.74707,0.09082 1.23535,0.09082 z"
       style="fill:#231f20;fill-opacity:1;fill-rule:nonzero;stroke:none"
       id="path84"
       inkscape:connector-curvature="0" /><path
       d="m 146.43164,41.88086 h -0.0566 l -0.0312,-0.07959 c -0.81641,-2.24072 -6.07617,-13.71826 -6.9082,-15.47607 l -0.0693,-0.19727 h 3.73438 l 0.0312,0.08789 c 0.3291,1.08008 0.7705,2.29688 1.25097,3.59668 0.15039,0 3.11719,0.0459 3.11719,0.0459 l 2.57813,-0.01953 c 0,0 0.41601,-0.02637 0.54101,-0.02637 0.66406,-1.69336 1.17383,-2.96875 1.39551,-3.61816 l 0.043,-0.06641 h 4.32519 l -6.99023,15.75293 h -0.0859 -2.875 M 147.5,37.24219 c 0.34766,-0.75196 1.25195,-2.84473 2.27148,-5.34375 -0.1582,-0.0078 -0.35351,-0.0078 -0.35351,-0.0078 L 147.5,31.86621 c 0,0 -1.98828,0.02442 -2.31738,0.03223 0.82715,1.99658 1.64746,3.80224 2.31738,5.34375 z"
       style="fill:#231f20;fill-opacity:1;fill-rule:nonzero;stroke:none"
       id="path86"
       inkscape:connector-curvature="0" /><path
       d="m 158.14355,41.73242 c 0.12598,-1.64746 0.18848,-5.81543 0.18848,-7.33496 0,-1.40039 0,-6.08789 -0.24023,-8.10937 v -0.16016 h 4.41211 l -0.0195,0.16016 c -0.23243,2.03515 -0.25,6.70898 -0.25,8.10937 0,1.09473 0.0342,3.53418 0.14453,5.50781 0.33496,0.02246 0.84375,0.07422 1.19043,0.07422 2.04004,0.03809 3.48144,-0.38281 4.15722,-1.23974 0.32227,-0.3711 0.46875,-0.87061 0.46875,-1.42041 0,-1.81934 -1.69726,-2.74121 -3.27929,-2.82422 -0.53125,-0.02198 -0.92481,0.04687 -0.92481,0.04687 l -0.30859,0.05225 0.16894,-0.28906 c 1.56641,-2.28272 3.90821,-6.23975 4.875,-8.11084 l 0.0293,-0.06641 h 4.71094 l -0.11621,0.21289 c -0.19239,0.26563 -3.26172,4.7832 -4.56543,6.7124 0,0 -0.0586,0.05616 -0.11426,0.11719 2.41699,0.72461 3.58301,2.07617 3.58301,4.14893 0,3.62744 -3.93457,4.49072 -7.25586,4.56152 h -6.86719 l 0.0127,-0.14844 z"
       style="fill:#231f20;fill-opacity:1;fill-rule:nonzero;stroke:none"
       id="path88"
       inkscape:connector-curvature="0" /><path
       d="m 179.70313,41.88086 h -4.19922 l 0.0234,-0.14844 c 0.1084,-1.64746 0.19336,-5.81543 0.19336,-7.33496 0,-1.39355 -0.0195,-6.07422 -0.21679,-8.10937 l -0.0166,-0.16016 h 4.3545 l -0.0234,0.16016 c -0.16602,2.03515 -0.21875,6.71582 -0.21875,8.10937 0,1.51953 0.10352,5.6875 0.21875,7.33496 v 0.14844 h -0.11523 z"
       style="fill:#231f20;fill-opacity:1;fill-rule:nonzero;stroke:none"
       id="path90"
       inkscape:connector-curvature="0" /><path
       d="m 183.81152,41.73242 c 0.12598,-1.64746 0.20313,-5.81543 0.20313,-7.33496 0,-1.40039 0,-6.08789 -0.22168,-8.10937 l -0.0352,-0.16016 h 7.33594 c 3.58789,0 7.40625,1.12109 7.40625,4.31738 0,2.00196 -1.45117,3.48096 -4.18555,4.29053 2.0127,0.53906 3.36914,1.91309 3.36914,3.48486 0,2.60938 -3.00195,3.5918 -5.79492,3.66016 h -8.0957 l 0.0186,-0.14844 m 5.65332,-1.59814 v 0 c 3.07813,-0.02588 4.19532,-0.646 4.19532,-2.30811 0,-0.45898 -0.14063,-0.86621 -0.41993,-1.17724 -0.55468,-0.70313 -1.74023,-1.0669 -3.18164,-0.97559 h -0.0713 l -0.84667,-2.22266 h 0.84667 c 1.69239,0.04834 3.14356,-0.48291 3.89551,-1.4038 0.36719,-0.41895 0.54102,-0.92188 0.54102,-1.4375 0,-1.73731 -1.53711,-2.63575 -4.57227,-2.63575 -0.48828,0 -1.30859,0 -1.82226,0.01758 -0.12696,2.32031 -0.12696,5.45947 -0.12696,6.40625 0,1.09473 0.041,3.53418 0.12696,5.62012 0.33203,0.07129 0.90722,0.1167 1.43554,0.1167 z"
       style="fill:#231f20;fill-opacity:1;fill-rule:nonzero;stroke:none"
       id="path92"
       inkscape:connector-curvature="0" /><path
       d="m 209.28711,41.88086 h -2.94922 l -0.0195,-0.0708 c -0.88086,-2.38428 -6.43652,-14.46729 -6.90234,-15.46924 l -0.082,-0.21289 h 3.75391 l 0.0234,0.09375 c 0.3125,1.08008 0.74805,2.29102 1.23828,3.61719 0.11816,0 3.10156,0.04687 3.10156,0.04687 l 2.58301,-0.04004 c 0,0 0.4502,-0.0068 0.54785,-0.0068 0.67969,-1.69336 1.1836,-2.97949 1.40235,-3.61719 l 0.041,-0.09375 h 4.34375 l -6.98828,15.75293 h -0.0937 m -1.8125,-4.63037 c 0.35352,-0.73438 1.25,-2.83106 2.27148,-5.33643 -0.15625,0 -0.3457,-0.01562 -0.3457,-0.01562 l -1.92578,-0.02637 c 0,0 -2.00977,0.04199 -2.30762,0.04199 0.81641,2.01221 1.61621,3.80518 2.30762,5.33643 z"
       style="fill:#231f20;fill-opacity:1;fill-rule:nonzero;stroke:none"
       id="path94"
       inkscape:connector-curvature="0" /><path
       d="m 217.59766,37.80762 c 0,-2.76709 2.77148,-3.88135 5.22656,-4.89942 1.91016,-0.76074 3.91016,-1.5625 3.91016,-2.88183 0,-0.39942 -0.0801,-0.73535 -0.30176,-0.97168 -0.45996,-0.54199 -1.38965,-0.76856 -2.86621,-0.6875 -1.46485,0.05957 -3.11328,0.52051 -4.96973,1.375 l -0.72656,0.35058 v -0.61132 -2.82227 l 0.49609,-0.125 0.28809,-0.0498 c 0.91601,-0.22657 2.68554,-0.64356 4.44531,-0.64356 4.625,0 7.38477,1.8457 7.38477,4.89551 0,2.86523 -2.84961,3.979 -5.36817,4.98291 -1.85644,0.75146 -3.77637,1.49707 -3.77637,2.72607 0,0.35352 0,1.38672 2.39649,1.38672 1.7666,0 3.48437,-0.71826 4.45898,-1.09228 l 0.88867,-0.3711 -0.006,0.59033 v 2.85352 l -0.88282,0.16016 c -0.89941,0.18115 -2.39843,0.47949 -3.94336,0.47949 -3.99023,0 -6.65429,-1.88428 -6.65429,-4.64453 z"
       style="fill:#231f20;fill-opacity:1;fill-rule:nonzero;stroke:none"
       id="path96"
       inkscape:connector-curvature="0" /></g></svg>