<?xml version="1.0" encoding="UTF-8" standalone="no"?>
<!-- Created with Inkscape (http://www.inkscape.org/) -->

<svg
   version="1.1"
   id="svg2"
   xml:space="preserve"
   width="577.33331"
   height="165.41333"
   viewBox="0 0 577.33331 165.41333"
   sodipodi:docname="bosch.svg"
   inkscape:version="1.1.1 (3bf5ae0d25, 2021-09-20)"
   xmlns:inkscape="http://www.inkscape.org/namespaces/inkscape"
   xmlns:sodipodi="http://sodipodi.sourceforge.net/DTD/sodipodi-0.dtd"
   xmlns="http://www.w3.org/2000/svg"
   xmlns:svg="http://www.w3.org/2000/svg"><defs
     id="defs6" /><sodipodi:namedview
     id="namedview4"
     pagecolor="#ffffff"
     bordercolor="#666666"
     borderopacity="1.0"
     inkscape:pageshadow="2"
     inkscape:pageopacity="0.0"
     inkscape:pagecheckerboard="0"
     showgrid="false"
     inkscape:zoom="1.8421992"
     inkscape:cx="102.32335"
     inkscape:cy="83.595738"
     inkscape:window-width="1920"
     inkscape:window-height="1043"
     inkscape:window-x="0"
     inkscape:window-y="0"
     inkscape:window-maximized="1"
     inkscape:current-layer="g8"
     fit-margin-top="0"
     fit-margin-left="0"
     fit-margin-right="0"
     fit-margin-bottom="0" /><g
     id="g8"
     inkscape:groupmode="layer"
     inkscape:label="ink_ext_XXXXXX"
     transform="matrix(1.3333333,0,0,-1.3333333,-84.799998,252.09199)"><g
       id="g10"
       transform="scale(0.1)"><path
         d="m 2080.21,878.379 v 18.73 h 142.78 v -18.73 H 2163 V 703.02 h -22.53 v 175.359 h -60.26"
         style="fill:#231f20;fill-opacity:1;fill-rule:nonzero;stroke:none"
         id="path12" /><path
         d="m 2330.76,787.711 c -2.99,29.051 -13.85,40.988 -37.46,40.988 -22.53,0 -35.57,-13.301 -40.73,-40.988 z m 21.98,-62.172 c -13.03,-18.73 -31.21,-24.969 -54.01,-24.969 -45.07,0 -70.32,29.59 -70.32,73.02 0,43.699 26.34,73.84 64.61,73.84 37.74,0 60.8,-26.602 60.8,-70.578 v -7.332 h -102.06 c 0.54,-20.36 5.16,-31.758 14.94,-40.711 7.32,-6.52 16.82,-9.508 31.48,-9.508 15.74,0 27.15,4.347 38.01,19.551 l 16.55,-13.313"
         style="fill:#231f20;fill-opacity:1;fill-rule:nonzero;stroke:none"
         id="path14" /><path
         d="m 2507.19,730.43 c -13.57,-21.981 -31.49,-29.86 -55.65,-29.86 -39.63,0 -66.78,30.129 -66.78,73.301 0,43.969 26.34,73.559 65.42,73.559 23.35,0 40.18,-8.961 53.48,-28.231 l -18.73,-11.668 c -10.59,15.739 -19,21.168 -34.47,21.168 -26.61,0 -42.35,-20.359 -42.35,-55.379 0,-34.468 15.47,-54.019 43.98,-54.019 16.01,0 27.96,5.711 37.46,21.179 l 17.64,-10.05"
         style="fill:#231f20;fill-opacity:1;fill-rule:nonzero;stroke:none"
         id="path16" /><path
         d="M 2564.19,907.422 V 823.27 c 8.69,16.019 23.07,24.16 43.16,24.16 30.4,0 46.96,-19.809 46.96,-56.469 V 703.02 h -22.53 v 89.582 c 0,24.429 -9.23,35.289 -30.13,35.289 -22.8,0 -37.46,-14.93 -37.46,-38.012 V 703.02 h -22.53 v 204.402 h 22.53"
         style="fill:#231f20;fill-opacity:1;fill-rule:nonzero;stroke:none"
         id="path18" /><path
         d="M 2731.12,844.988 V 823.27 c 8.68,16.019 23.08,24.16 43.16,24.16 30.4,0 46.97,-19.809 46.97,-56.469 V 703.02 h -22.54 v 89.582 c 0,24.429 -9.23,35.289 -30.13,35.289 -22.8,0 -37.46,-14.93 -37.46,-38.012 V 703.02 h -22.53 v 141.968 h 22.53"
         style="fill:#231f20;fill-opacity:1;fill-rule:nonzero;stroke:none"
         id="path20" /><path
         d="m 2886.93,773.59 c 0,-33.391 16.83,-54.289 43.43,-54.289 26.87,0 43.97,21.179 43.97,54.57 0,33.109 -17.1,54.828 -43.16,54.828 -27.41,0 -44.24,-20.64 -44.24,-55.109 z m 110.75,0.551 c 0,-42.891 -27.96,-73.571 -67.32,-73.571 -38.55,0 -66.78,30.95 -66.78,73.301 0,42.891 27.96,73.559 67.59,73.559 38.55,0 66.51,-30.95 66.51,-73.289"
         style="fill:#231f20;fill-opacity:1;fill-rule:nonzero;stroke:none"
         id="path22" /><path
         d="m 3101.1,707.359 c -6.79,-4.07 -13.85,-6.507 -24.98,-6.507 -20.63,0 -34.47,9.226 -34.47,37.457 v 169.113 h 22.53 V 736.398 c 0,-13.296 7.06,-16.82 15.47,-16.82 6.52,0 10.59,1.891 14.12,4.613 l 7.33,-16.832"
         style="fill:#231f20;fill-opacity:1;fill-rule:nonzero;stroke:none"
         id="path24" /><path
         d="m 3139.91,773.59 c 0,-33.391 16.82,-54.289 43.43,-54.289 26.87,0 43.97,21.179 43.97,54.57 0,33.109 -17.1,54.828 -43.16,54.828 -27.42,0 -44.24,-20.64 -44.24,-55.109 z m 110.75,0.551 c 0,-42.891 -27.96,-73.571 -67.32,-73.571 -38.55,0 -66.78,30.95 -66.78,73.301 0,42.891 27.96,73.559 67.59,73.559 38.55,0 66.51,-30.95 66.51,-73.289"
         style="fill:#231f20;fill-opacity:1;fill-rule:nonzero;stroke:none"
         id="path26" /><path
         d="m 3308.75,801.281 c 0,-17.64 12.48,-28.769 32.84,-28.769 20.09,0 31.22,10.039 31.22,28.226 0,17.371 -12.49,28.774 -32.31,28.774 -19.81,0 -31.75,-10.59 -31.75,-28.231 z m 17.91,-86.871 c -2.17,0 -6.79,0.281 -8.96,0.551 -12.49,-6.242 -17.92,-13.582 -17.92,-23.609 0,-15.481 13.85,-23.352 41.27,-23.352 29.32,0 44.51,9.219 44.51,26.602 0,13.296 -9.5,19.808 -28.23,19.808 z m 30.94,19.551 c 32.04,0 49.95,-13.84 49.95,-38.281 0,-27.961 -25.79,-45.59 -67.05,-45.59 -38.27,0 -62.7,15.191 -62.7,39.082 0,12.758 7.87,22.797 24.16,30.406 -9.5,5.152 -13.85,12.481 -13.85,22.801 0,10.312 4.88,17.91 15.48,24.152 -11.68,9.5 -17.37,20.641 -17.37,34.75 0,27.418 21.17,46.149 52.12,46.149 10.58,0 18.45,-1.629 28.22,-5.981 l 40.72,5.711 v -20.371 h -21.17 c 6.51,-8.398 9.23,-16.551 9.23,-27.129 0,-27.961 -20.64,-45.07 -53.75,-45.07 -9.78,0 -17.37,1.359 -25.79,4.89 -5.16,-4.351 -7.33,-8.14 -7.33,-13.3 0,-9.231 5.16,-12.219 20.9,-12.219 h 28.23"
         style="fill:#231f20;fill-opacity:1;fill-rule:nonzero;stroke:none"
         id="path28" /><path
         d="M 3468.88,844.988 V 703.02 h -22.53 v 141.968 z m 3.26,44.25 c 0,-8.148 -6.78,-14.937 -14.93,-14.937 -8.14,0 -14.93,6.789 -14.93,14.937 0,8.141 6.79,14.922 14.93,14.922 8.15,0 14.93,-6.781 14.93,-14.922"
         style="fill:#231f20;fill-opacity:1;fill-rule:nonzero;stroke:none"
         id="path30" /><path
         d="m 3600.26,771.699 c -45.61,-1.629 -64.61,-10.59 -64.61,-30.949 0,-14.121 9.23,-21.988 26.07,-21.988 22.52,0 38.54,13.027 38.54,31.218 z m 38.54,-69.488 c -2.98,-0.281 -5.7,-0.281 -7.87,-0.281 -15.2,0 -24.97,6.789 -29.31,20.359 -12.49,-14.93 -26.07,-21.719 -43.7,-21.719 -26.34,0 -44.8,16.289 -44.8,39.102 0,20.887 13.85,35.828 39.09,42.609 13.3,3.528 23.62,4.61 48.05,5.43 v 8.961 c 0,21.976 -8.69,32.027 -27.96,32.027 -14.93,0 -26.06,-4.879 -40.72,-17.648 l -13.3,14.66 c 17.1,15.48 32.58,21.719 54.02,21.719 32.57,0 50.49,-17.918 50.49,-50.758 v -63.25 c 0,-10.043 3.8,-13.301 16.01,-13.582 v -17.629"
         style="fill:#231f20;fill-opacity:1;fill-rule:nonzero;stroke:none"
         id="path32" /><path
         d="m 3784.29,773.871 c 0,-34.75 16.02,-54.57 43.98,-54.57 27.41,0 41.26,17.91 41.26,54.019 0,34.739 -15.21,55.379 -40.99,55.379 -27.69,0 -44.25,-20.64 -44.25,-54.828 z m 0.81,47.77 c 10.86,16.828 27.15,25.789 47.24,25.789 36.38,0 60.54,-28.782 60.54,-72.75 0,-44.789 -23.9,-74.11 -60.81,-74.11 -20.36,0 -36.65,8.692 -46.97,25.25 v -22.8 h -22.53 v 204.402 h 22.53 v -85.781"
         style="fill:#231f20;fill-opacity:1;fill-rule:nonzero;stroke:none"
         id="path34" /><path
         d="m 3996.29,707.359 c -6.79,-4.07 -13.85,-6.507 -24.99,-6.507 -20.62,0 -34.47,9.226 -34.47,37.457 v 169.113 h 22.53 V 736.398 c 0,-13.296 7.06,-16.82 15.48,-16.82 6.51,0 10.59,1.891 14.11,4.613 l 7.34,-16.832"
         style="fill:#231f20;fill-opacity:1;fill-rule:nonzero;stroke:none"
         id="path36" /><path
         d="M 4046.5,844.988 V 703.02 h -22.53 v 141.968 z m 3.26,44.25 c 0,-8.148 -6.79,-14.937 -14.93,-14.937 -8.14,0 -14.93,6.789 -14.93,14.937 0,8.141 6.79,14.922 14.93,14.922 8.14,0 14.93,-6.781 14.93,-14.922"
         style="fill:#231f20;fill-opacity:1;fill-rule:nonzero;stroke:none"
         id="path38" /><path
         d="m 4156.71,890.051 c 0,-8.153 -7.34,-15.211 -15.48,-15.211 -7.87,0 -15.2,7.058 -15.2,15.211 0,8.14 7.33,15.199 15.2,15.199 8.14,0 15.48,-7.059 15.48,-15.199 z m 10.31,-63.789 h -76.01 v 18.726 h 99.89 V 821.91 l -76.81,-99.351 h 81.7 V 703.02 h -109.4 v 19 l 80.63,104.242"
         style="fill:#231f20;fill-opacity:1;fill-rule:nonzero;stroke:none"
         id="path40" /><path
         d="m 4320.1,787.711 c -2.97,29.051 -13.83,40.988 -37.46,40.988 -22.53,0 -35.55,-13.301 -40.71,-40.988 z m 22,-62.172 c -13.03,-18.73 -31.22,-24.969 -54.03,-24.969 -45.06,0 -70.3,29.59 -70.3,73.02 0,43.699 26.33,73.84 64.61,73.84 37.72,0 60.8,-26.602 60.8,-70.578 v -7.332 h -102.06 c 0.54,-20.36 5.16,-31.758 14.92,-40.711 7.34,-6.52 16.84,-9.508 31.5,-9.508 15.74,0 27.13,4.347 37.99,19.551 l 16.57,-13.313"
         style="fill:#231f20;fill-opacity:1;fill-rule:nonzero;stroke:none"
         id="path42" /><path
         d="m 4408.04,889.238 c 0,-8.148 -6.78,-14.937 -14.92,-14.937 -8.14,0 -14.93,6.789 -14.93,14.937 0,8.141 6.79,14.922 14.93,14.922 8.14,0 14.92,-6.781 14.92,-14.922 z m -3.25,-198.707 c 0,-25.519 -13.03,-39.09 -36.92,-39.09 -7.33,0 -11.95,1.09 -18.19,4.34 l 5.16,17.11 c 5.43,-2.45 6.79,-2.719 10.59,-2.719 11.13,0 16.83,5.969 16.83,17.91 v 156.906 h 22.53 V 690.531"
         style="fill:#231f20;fill-opacity:1;fill-rule:nonzero;stroke:none"
         id="path44" /><path
         d="M 4570.9,844.988 V 823.27 c 8.7,16.019 23.08,24.16 43.17,24.16 30.4,0 46.96,-19.809 46.96,-56.469 V 703.02 h -22.53 v 89.582 c 0,24.429 -9.23,35.289 -30.13,35.289 -22.81,0 -37.47,-14.93 -37.47,-38.012 V 703.02 h -22.52 v 141.968 h 22.52"
         style="fill:#231f20;fill-opacity:1;fill-rule:nonzero;stroke:none"
         id="path46" /><path
         d="m 4790.5,771.699 c -45.6,-1.629 -64.61,-10.59 -64.61,-30.949 0,-14.121 9.23,-21.988 26.07,-21.988 22.53,0 38.54,13.027 38.54,31.218 z m 38.55,-69.488 c -2.99,-0.281 -5.7,-0.281 -7.87,-0.281 -15.21,0 -24.97,6.789 -29.32,20.359 -12.49,-14.93 -26.06,-21.719 -43.71,-21.719 -26.33,0 -44.78,16.289 -44.78,39.102 0,20.887 13.84,35.828 39.09,42.609 13.3,3.528 23.61,4.61 48.04,5.43 v 8.961 c 0,21.976 -8.69,32.027 -27.95,32.027 -14.94,0 -26.07,-4.879 -40.73,-17.648 l -13.3,14.66 c 17.1,15.48 32.58,21.719 54.03,21.719 32.56,0 50.48,-17.918 50.48,-50.758 v -63.25 c 0,-10.043 3.8,-13.301 16.02,-13.582 v -17.629"
         style="fill:#231f20;fill-opacity:1;fill-rule:nonzero;stroke:none"
         id="path48" /><path
         d="m 4944.95,811.871 c -11.68,12.758 -20.36,16.828 -34.48,16.828 -16.83,0 -26.33,-7.058 -26.33,-19.277 0,-5.961 2.71,-11.121 7.06,-14.113 4.88,-3.258 10.04,-5.161 25.52,-8.95 21.7,-5.16 29.31,-8.418 37.46,-15.757 7.05,-6.512 11.12,-16.551 11.12,-27.68 0,-25.793 -20.9,-42.352 -53.48,-42.352 -25.52,0 -43.7,8.692 -58.63,27.418 l 16.29,13.301 c 12.76,-16.828 22.53,-21.988 41.53,-21.988 20.9,0 32.31,7.879 32.31,21.719 0,6.781 -2.99,12.48 -8.15,15.75 -5.43,3.789 -8.69,4.609 -28.5,9.5 -31.76,7.601 -44.52,19.808 -44.52,41.789 0,24.441 18.46,39.371 48.59,39.371 21.72,0 35.02,-5.7 48.87,-20.641 l -14.66,-14.918"
         style="fill:#231f20;fill-opacity:1;fill-rule:nonzero;stroke:none"
         id="path50" /><path
         d="m 2353,1225.69 h -117 v 125 h 114 c 57,0 84,-25 84,-62 0,-46 -34,-63 -81,-63 z m -117,371 h 116 c 36,0 60,-24 60,-60 0,-28 -22,-58 -63,-58 h -113 z m 252,-173 c 0,0 88,30 88,130 0,117 -83,175 -197,175 h -299 v -636 h 325 c 100,0 198,70 198,177 0,127 -115,153 -115,154"
         style="fill:#ed1c24;fill-opacity:1;fill-rule:evenodd;stroke:none"
         id="path52" /><path
         d="m 2947,1230.69 c -90,0 -135,81 -135,181 0,100 45,180 135,180 90,0 136,-81 136,-180 0,-101 -46,-181 -136,-181 z m 0,514 c -184,0 -292,-147 -292,-333 0,-187 108,-333 292,-333 185,0 292,146 292,333 0,186 -107,333 -292,333"
         style="fill:#ed1c24;fill-opacity:1;fill-rule:evenodd;stroke:none"
         id="path54" /><path
         d="m 3578,1478.69 -22,5 c -54,11 -97,25 -97,64 0,42 41,59 77,59 53,0 100,-26 130,-59 l 99,98 c -45,51 -118,100 -232,100 -134,0 -236,-75 -236,-200 0,-114 82,-170 182,-191 l 22,-5 c 83,-17 114,-30 114,-70 0,-38 -34,-63 -86,-63 -62,0 -118,27 -161,82 l -101,-100 c 56,-67 127,-119 264,-119 119,0 246,68 246,207 2,145 -108,173 -199,192"
         style="fill:#ed1c24;fill-opacity:1;fill-rule:evenodd;stroke:none"
         id="path56" /><path
         d="m 4133,1230.69 c -70,0 -143,58 -143,185 0,113 68,176 139,176 56,0 89,-26 115,-71 l 128,85 c -64,97 -140,138 -245,138 -192,0 -296,-149 -296,-329 0,-189 115,-337 294,-337 126,0 186,44 251,138 l -129,87 c -26,-42 -54,-72 -114,-72"
         style="fill:#ed1c24;fill-opacity:1;fill-rule:evenodd;stroke:none"
         id="path58" /><path
         d="m 4799,1728.69 v -234 h -193 v 234 h -167 v -636 h 167 v 251 h 193 v -251 h 167 v 636 h -167"
         style="fill:#ed1c24;fill-opacity:1;fill-rule:evenodd;stroke:none"
         id="path60" /><path
         d="m 1118,971.691 c -241,0 -437,195.999 -437,436.999 0,241 196,437 437,437 241,0 437,-196 437,-437 0,-241 -196,-436.999 -437,-436.999 z m 0,918.999 c -266,0 -482,-216 -482,-482 0,-266 216,-481.999 482,-481.999 266,0 482,215.999 482,481.999 0,266 -216,482 -482,482"
         style="fill:#231f20;fill-opacity:1;fill-rule:nonzero;stroke:none"
         id="path62" /><path
         d="m 1329,1173.69 v 471 c 66,-59 105,-144 105,-235 0,-92 -39,-177 -105,-236 z m -45,145 H 953 v 181 h 331 z m -377,-146 c -67,59 -106,144 -106,236 0,92 39,177 106,236 z m 410,537 h -33 v -165 H 953 v 165 h -34 c -97,-65 -162,-175 -162,-301 0,-126 65,-236 162,-301 h 34 v 165 h 331 v -165 h 33 c 98,65 162,175 162,301 0,126 -64,236 -162,301"
         style="fill:#231f20;fill-opacity:1;fill-rule:nonzero;stroke:none"
         id="path64" /></g></g></svg>
