<?xml version="1.0" encoding="UTF-8" standalone="no"?>
<svg
   xmlns:dc="http://purl.org/dc/elements/1.1/"
   xmlns:cc="http://creativecommons.org/ns#"
   xmlns:rdf="http://www.w3.org/1999/02/22-rdf-syntax-ns#"
   xmlns:svg="http://www.w3.org/2000/svg"
   xmlns="http://www.w3.org/2000/svg"
   xmlns:sodipodi="http://sodipodi.sourceforge.net/DTD/sodipodi-0.dtd"
   xmlns:inkscape="http://www.inkscape.org/namespaces/inkscape"
   height="186.664"
   width="601.25732"
   version="1.1"
   id="svg936"
   sodipodi:docname="cgi.svg"
   inkscape:version="0.92.5 (2060ec1f9f, 2020-04-08)">
  <metadata
     id="metadata942">
    <rdf:RDF>
      <cc:Work
         rdf:about="">
        <dc:format>image/svg+xml</dc:format>
        <dc:type
           rdf:resource="http://purl.org/dc/dcmitype/StillImage" />
        <dc:title></dc:title>
      </cc:Work>
    </rdf:RDF>
  </metadata>
  <defs
     id="defs940" />
  <sodipodi:namedview
     pagecolor="#ffffff"
     bordercolor="#666666"
     borderopacity="1"
     objecttolerance="10"
     gridtolerance="10"
     guidetolerance="10"
     inkscape:pageopacity="0"
     inkscape:pageshadow="2"
     inkscape:window-width="1848"
     inkscape:window-height="1016"
     id="namedview938"
     showgrid="false"
     fit-margin-top="0"
     fit-margin-left="100"
     fit-margin-right="100"
     fit-margin-bottom="0"
     inkscape:zoom="0.87475917"
     inkscape:cx="300.62665"
     inkscape:cy="93.333344"
     inkscape:window-x="1920"
     inkscape:window-y="27"
     inkscape:window-maximized="1"
     inkscape:current-layer="svg936" />
  <g
     id="g934"
     style="fill:#e11937"
     transform="translate(100,-0.0027)">
    <path
       d="m 99.7317,36.0027 c -36.5328,0 -58.9322,28.5317 -58.9322,57.3312 0,34.6666 28.2661,57.3328 59.1989,57.3328 20.5328,0 40.0003,-9.0651 56.5323,-23.7323 v 42.9323 c -17.3334,10.4 -41.0662,16.8 -59.4656,16.8 C 44.266,186.6667 0,143.7333 0,93.3339 0,40.0027 44.5323,0.0027 97.3317,0.0027 c 20.2667,0 44.0003,6.1333 59.4656,13.8666 V 56.0016 C 137.332,43.2026 117.5984,36.0026 99.7317,36.0026 m 169.0416,150.6641 c -53.0653,0 -97.864,-41.3334 -97.864,-93.3328 0,-52.5312 44.5334,-93.3312 100.264,-93.3312 20.2667,0 45.3334,5.3333 60.8,12.5333 v 41.8656 c -17.5986,-10.1336 -40.2653,-18.399 -60,-18.399 -36.5306,0 -60.2653,28.5318 -60.2653,57.3313 0,33.8661 28,58.3994 60.7987,58.3994 6.9333,0 13.6,-0.5333 22.1333,-3.7333 v -33.5995 h -29.864 v -35.466 h 68.2653 v 94.3988 c -19.4693,8.8 -41.3333,13.3334 -64.268,13.3334 m 94.0854,-3.7334 V 3.736 h 38.3986 v 179.1973 h -38.3986"
       id="path932"
       inkscape:connector-curvature="0" />
  </g>
</svg>
