<?xml version="1.0" encoding="UTF-8" standalone="no"?>
<!-- Created with Inkscape (http://www.inkscape.org/) -->

<svg
   xmlns:dc="http://purl.org/dc/elements/1.1/"
   xmlns:cc="http://creativecommons.org/ns#"
   xmlns:rdf="http://www.w3.org/1999/02/22-rdf-syntax-ns#"
   xmlns:svg="http://www.w3.org/2000/svg"
   xmlns="http://www.w3.org/2000/svg"
   xmlns:sodipodi="http://sodipodi.sourceforge.net/DTD/sodipodi-0.dtd"
   xmlns:inkscape="http://www.inkscape.org/namespaces/inkscape"
   version="1.1"
   id="svg2"
   xml:space="preserve"
   width="118.98306"
   height="76.870399"
   viewBox="0 0 118.98306 76.870399"
   sodipodi:docname="citi.svg"
   inkscape:version="0.92.5 (2060ec1f9f, 2020-04-08)"><metadata
     id="metadata8"><rdf:RDF><cc:Work
         rdf:about=""><dc:format>image/svg+xml</dc:format><dc:type
           rdf:resource="http://purl.org/dc/dcmitype/StillImage" /><dc:title></dc:title></cc:Work></rdf:RDF></metadata><defs
     id="defs6"><clipPath
       clipPathUnits="userSpaceOnUse"
       id="clipPath18"><path
         d="M 0,1080 H 1080 V 0 H 0 Z"
         id="path16"
         inkscape:connector-curvature="0" /></clipPath></defs><sodipodi:namedview
     pagecolor="#ffffff"
     bordercolor="#666666"
     borderopacity="1"
     objecttolerance="10"
     gridtolerance="10"
     guidetolerance="10"
     inkscape:pageopacity="0"
     inkscape:pageshadow="2"
     inkscape:window-width="1920"
     inkscape:window-height="1043"
     id="namedview4"
     showgrid="false"
     fit-margin-top="0"
     fit-margin-left="0"
     fit-margin-right="0"
     fit-margin-bottom="0"
     inkscape:zoom="0.92709556"
     inkscape:cx="-37.427395"
     inkscape:cy="270.88092"
     inkscape:window-x="0"
     inkscape:window-y="0"
     inkscape:window-maximized="1"
     inkscape:current-layer="g14" /><g
     id="g10"
     inkscape:groupmode="layer"
     inkscape:label="CITI_logo_bez-R"
     transform="matrix(1.3333333,0,0,-1.3333333,-660.50785,551.35785)"><g
       id="g12"><g
         id="g14"
         clip-path="url(#clipPath18)"><g
           id="g68"
           transform="translate(584.2812,398.4424)"><path
             d="M 0,0 C -6.664,9.45 -17.738,15.076 -29.007,15.076 -40.271,15.076 -51.351,9.45 -58.001,0 l -0.345,-0.48 h 8.397 l 0.088,0.097 c 5.717,5.896 13.184,9.019 20.854,9.019 7.679,0 15.136,-3.123 20.862,-9.019 l 0.083,-0.097 h 8.399 z"
             style="fill:#e30613;fill-opacity:1;fill-rule:nonzero;stroke:none"
             id="path70"
             inkscape:connector-curvature="0" /></g><g
           id="g72"
           transform="translate(522.6099,367.0176)"><path
             d="m 0,0 -0.163,-0.157 c -2.573,-2.626 -5.567,-4.018 -8.636,-4.018 -6.421,0 -11.079,4.814 -11.079,11.459 0,6.637 4.658,11.458 11.079,11.458 3.069,0 6.063,-1.407 8.636,-4.042 L 0,14.561 4.124,19.546 4.012,19.675 c -3.428,4.057 -7.548,6.024 -12.619,6.024 -5.076,0 -9.719,-1.7 -13.068,-4.787 -3.638,-3.337 -5.554,-8.047 -5.554,-13.628 0,-5.571 1.916,-10.292 5.554,-13.626 3.349,-3.1 7.992,-4.81 13.068,-4.81 5.071,0 9.191,1.971 12.619,6.025 l 0.112,0.13 z"
             style="fill:#28285b;fill-opacity:1;fill-rule:nonzero;stroke:none"
             id="path74"
             inkscape:connector-curvature="0" /></g><path
           d="m 530.914,392.147 h 7.29 v -35.609 h -7.29 z"
           style="fill:#28285b;fill-opacity:1;fill-rule:nonzero;stroke:none"
           id="path76"
           inkscape:connector-curvature="0" /><g
           id="g78"
           transform="translate(566.8799,364.2812)"><path
             d="m 0,0 c -1.942,-1.177 -3.759,-1.774 -5.38,-1.774 -2.354,0 -3.425,1.242 -3.425,4.016 v 18.885 h 7.431 v 6.704 h -7.431 v 11.082 l -7.144,-3.832 v -7.25 h -6.165 v -6.704 h 6.165 V 1.037 c 0,-5.474 3.242,-9.22 8.084,-9.303 3.287,-0.075 5.268,0.896 6.473,1.625 l 0.07,0.046 1.752,6.866 z"
             style="fill:#28285b;fill-opacity:1;fill-rule:nonzero;stroke:none"
             id="path80"
             inkscape:connector-curvature="0" /></g><path
           d="m 572.802,392.147 h 7.295 v -35.609 h -7.295 z"
           style="fill:#28285b;fill-opacity:1;fill-rule:nonzero;stroke:none"
           id="path82"
           inkscape:connector-curvature="0" /></g></g></g></svg>