<?xml version="1.0" encoding="UTF-8" standalone="no"?>
<!-- Created with Inkscape (http://www.inkscape.org/) -->

<svg
   xmlns:dc="http://purl.org/dc/elements/1.1/"
   xmlns:cc="http://creativecommons.org/ns#"
   xmlns:rdf="http://www.w3.org/1999/02/22-rdf-syntax-ns#"
   xmlns:svg="http://www.w3.org/2000/svg"
   xmlns="http://www.w3.org/2000/svg"
   xmlns:sodipodi="http://sodipodi.sourceforge.net/DTD/sodipodi-0.dtd"
   xmlns:inkscape="http://www.inkscape.org/namespaces/inkscape"
   version="1.1"
   id="svg2"
   xml:space="preserve"
   width="748"
   height="232"
   viewBox="0 0 748 232"
   sodipodi:docname="coderslab.svg"
   inkscape:version="0.92.5 (2060ec1f9f, 2020-04-08)"><metadata
     id="metadata8"><rdf:RDF><cc:Work
         rdf:about=""><dc:format>image/svg+xml</dc:format><dc:type
           rdf:resource="http://purl.org/dc/dcmitype/StillImage" /><dc:title></dc:title></cc:Work></rdf:RDF></metadata><defs
     id="defs6"><clipPath
       clipPathUnits="userSpaceOnUse"
       id="clipPath18"><path
         d="M 0,174 H 561 V 0 H 0 Z"
         id="path16"
         inkscape:connector-curvature="0" /></clipPath></defs><sodipodi:namedview
     pagecolor="#ffffff"
     bordercolor="#666666"
     borderopacity="1"
     objecttolerance="10"
     gridtolerance="10"
     guidetolerance="10"
     inkscape:pageopacity="0"
     inkscape:pageshadow="2"
     inkscape:window-width="1848"
     inkscape:window-height="1016"
     id="namedview4"
     showgrid="false"
     inkscape:zoom="0.54010695"
     inkscape:cx="374"
     inkscape:cy="116"
     inkscape:window-x="0"
     inkscape:window-y="27"
     inkscape:window-maximized="1"
     inkscape:current-layer="g10" /><g
     id="g10"
     inkscape:groupmode="layer"
     inkscape:label="logo_CL_yellow-gray_(1)"
     transform="matrix(1.3333333,0,0,-1.3333333,0,232)"><g
       id="g12"><g
         id="g14"
         clip-path="url(#clipPath18)"><g
           id="g20"
           transform="translate(30.0063,99.0405)"><path
             d="m 0,0 c 0,-10.815 0.856,-31.419 33.113,-31.419 8.575,0 15.325,1.026 21.219,2.162 v 11.611 c -5.142,-0.909 -13.288,-1.819 -21.219,-1.819 -16.825,0 -19.718,8.423 -19.718,19.465 v 19.581 c 0,11.382 3.215,20.035 19.718,20.035 8.039,0 16.077,-1.026 21.219,-1.936 V 49.405 C 48.438,50.544 41.793,51.567 33.113,51.567 0.856,51.567 0,30.963 0,20.148 Z"
             style="fill:#4e4d50;fill-opacity:1;fill-rule:nonzero;stroke:none"
             id="path22"
             inkscape:connector-curvature="0" /></g><g
           id="g24"
           transform="translate(129.0044,91.2998)"><path
             d="m 0,0 c -0.107,-9.902 -3.752,-12.294 -12.539,-12.294 -8.357,0 -12.644,2.162 -12.644,12.294 v 12.978 c 0,10.016 3.857,12.181 12.644,12.181 C -3.964,25.159 0,23.11 0,12.978 Z m 13.073,12.978 c 0,8.083 -0.534,23.676 -25.612,23.676 -25.075,0 -25.719,-15.593 -25.719,-23.676 V 0 c 0,-8.196 0.644,-23.676 25.719,-23.676 25.078,0 25.612,15.48 25.612,23.676 z"
             style="fill:#4e4d50;fill-opacity:1;fill-rule:nonzero;stroke:none"
             id="path26"
             inkscape:connector-curvature="0" /></g><g
           id="g28"
           transform="translate(173.8999,127.9546)"><path
             d="m 0,0 c -18.54,-0.343 -23.041,-11.155 -23.041,-23.792 v -12.179 c 0,-11.384 2.893,-24.362 22.078,-24.362 1.712,0 9.001,0.343 15.751,3.872 l 0.859,-2.846 H 26.042 V 21.627 H 12.965 V -1.936 C 9.965,-1.026 6.108,0 0,0 m 12.965,-47.242 c -3.108,-0.91 -8.357,-1.593 -11.143,-1.593 -9.323,0 -11.683,3.302 -11.683,12.181 v 12.862 c 0,10.018 3.43,12.294 11.683,12.294 4.609,0 8.25,-0.57 11.143,-1.366 z"
             style="fill:#4e4d50;fill-opacity:1;fill-rule:nonzero;stroke:none"
             id="path30"
             inkscape:connector-curvature="0" /></g><g
           id="g32"
           transform="translate(223.1719,103.708)"><path
             d="m 0,0 c 0.752,10.358 5.252,12.864 12.11,12.864 6.323,0 10.394,-2.506 10.394,-10.359 0,-0.799 0,-1.595 -0.107,-2.505 z m 34.506,-9.563 c 0.323,3.529 0.537,6.604 0.537,9.336 0,19.238 -8.787,24.473 -22.933,24.473 -15.862,0 -25.398,-5.008 -25.398,-30.393 0,-21.857 6.536,-29.94 27.754,-29.94 6.109,0 12.432,1.139 16.506,2.049 v 10.928 c -4.181,-1.023 -12.861,-1.706 -15.325,-1.706 -8.79,0 -15.861,0.796 -15.861,15.253 z"
             style="fill:#4e4d50;fill-opacity:1;fill-rule:nonzero;stroke:none"
             id="path34"
             inkscape:connector-curvature="0" /></g><g
           id="g36"
           transform="translate(277.5806,125.9058)"><path
             d="M 0,0 H -10.609 V -58.284 H 2.463 v 43.371 c 6.002,2.279 15.862,2.962 19.933,3.075 V 1.023 C 15.11,0.796 8.146,-2.619 1.5,-5.237 Z"
             style="fill:#4e4d50;fill-opacity:1;fill-rule:nonzero;stroke:none"
             id="path38"
             inkscape:connector-curvature="0" /></g><g
           id="g40"
           transform="translate(305.1743,71.2729)"><path
             d="m 0,0 c 6.538,-2.276 12.646,-3.415 17.896,-3.415 17.684,0 23.578,4.555 23.578,16.732 0,8.197 -2.682,12.068 -10.395,15.94 l -12.969,6.6 c -3,1.596 -3.964,2.05 -3.964,5.011 0,2.733 1.501,4.439 9.644,4.439 0.536,0 9.323,-0.114 15.217,-2.39 v 11.496 c -5.571,2.048 -12.11,2.505 -14.788,2.505 -18.325,0 -23.148,-5.124 -23.148,-15.483 0,-8.65 3.215,-12.408 11.575,-16.619 l 10.18,-5.122 C 25.719,18.215 28.29,16.849 28.29,13.547 28.29,9.106 26.363,8.083 17.896,8.083 13.502,8.083 6.645,9.106 0,12.068 Z"
             style="fill:#4e4d50;fill-opacity:1;fill-rule:nonzero;stroke:none"
             id="path42"
             inkscape:connector-curvature="0" /></g><g
           id="g44"
           transform="translate(380.9927,149.3481)"><path
             d="m 0,0 v -80.938 h 45.545 v 11.955 h -32.15 l 0,68.983 z"
             style="fill:#fcb832;fill-opacity:1;fill-rule:nonzero;stroke:none"
             id="path46"
             inkscape:connector-curvature="0" /></g><g
           id="g48"
           transform="translate(444.332,103.708)"><path
             d="m 0,0 c 0,8.993 2.037,12.75 11.68,12.75 2.786,0 7.182,-0.342 10.395,-0.912 v -34.605 c -3.001,-1.026 -7.714,-1.822 -10.395,-1.822 -9.324,0 -11.465,3.302 -11.68,12.295 z m -13.18,-12.181 c 0,-11.155 2.785,-23.906 21.967,-23.906 1.93,0 8.787,0.456 15.11,3.871 l 0.859,-2.845 H 35.15 v 55.892 c -8.038,2.392 -15.002,3.415 -23.255,3.415 -24.327,0 -25.075,-15.367 -25.075,-23.79 z"
             style="fill:#fcb832;fill-opacity:1;fill-rule:nonzero;stroke:none"
             id="path50"
             inkscape:connector-curvature="0" /></g><g
           id="g52"
           transform="translate(517.0664,127.7188)"><path
             d="M 0,0 C -6.108,0 -9.965,-1.023 -12.966,-1.936 V 21.63 h -13.076 v -80.254 c 9.432,-1.482 19.611,-1.709 24.005,-1.709 22.399,0 24.971,12.864 24.971,24.362 v 12.179 C 22.934,-11.155 18.433,-0.34 0,0 m -12.966,-12.864 c 2.786,0.796 7.287,1.366 11.144,1.366 8.145,0 11.575,-2.276 11.575,-12.294 v -12.862 c 0,-8.879 -2.359,-12.181 -11.575,-12.181 -1.715,0 -7.717,0.113 -11.144,0.57 z"
             style="fill:#fcb832;fill-opacity:1;fill-rule:nonzero;stroke:none"
             id="path54"
             inkscape:connector-curvature="0" /></g><path
           d="m 30.289,34.207 h 126.669 v 2.607 H 30.289 Z"
           style="fill:#fcb832;fill-opacity:1;fill-rule:nonzero;stroke:none"
           id="path56"
           inkscape:connector-curvature="0" /><path
           d="M 413.331,34.207 H 540 v 2.607 H 413.331 Z"
           style="fill:#fcb832;fill-opacity:1;fill-rule:nonzero;stroke:none"
           id="path58"
           inkscape:connector-curvature="0" /><g
           id="g60"
           transform="translate(193.1289,29.6953)"><path
             d="m 0,0 c 0,-2.178 -0.79,-3.877 -2.371,-5.096 -1.579,-1.219 -3.723,-1.828 -6.433,-1.828 -2.933,0 -5.191,0.378 -6.77,1.133 v 2.777 c 1.014,-0.428 2.121,-0.767 3.318,-1.015 1.196,-0.249 2.381,-0.373 3.554,-0.373 1.918,0 3.364,0.364 4.334,1.092 0.972,0.727 1.457,1.741 1.457,3.039 0,0.857 -0.172,1.56 -0.517,2.107 -0.343,0.548 -0.92,1.052 -1.726,1.516 -0.808,0.462 -2.035,0.987 -3.683,1.574 -2.302,0.824 -3.946,1.8 -4.935,2.928 -0.988,1.129 -1.481,2.602 -1.481,4.419 0,1.907 0.716,3.425 2.151,4.554 1.433,1.128 3.329,1.693 5.688,1.693 2.459,0 4.723,-0.452 6.788,-1.354 L -1.523,14.66 c -2.044,0.858 -4.03,1.286 -5.96,1.286 -1.523,0 -2.714,-0.327 -3.571,-0.982 -0.859,-0.654 -1.287,-1.563 -1.287,-2.725 0,-0.858 0.158,-1.56 0.475,-2.108 0.315,-0.547 0.847,-1.049 1.599,-1.506 C -9.516,8.168 -8.369,7.663 -6.823,7.11 -4.228,6.185 -2.44,5.19 -1.465,4.13 -0.488,3.069 0,1.693 0,0"
             style="fill:#4e4d50;fill-opacity:1;fill-rule:nonzero;stroke:none"
             id="path62"
             inkscape:connector-curvature="0" /></g><g
           id="g64"
           transform="translate(219.6392,23.1094)"><path
             d="M 0,0 H -17.015 V 2.251 L -3.877,22.16 h -12.731 v 2.59 H -0.374 V 22.499 L -13.509,2.607 H 0 Z"
             style="fill:#4e4d50;fill-opacity:1;fill-rule:nonzero;stroke:none"
             id="path66"
             inkscape:connector-curvature="0" /></g><g
           id="g68"
           transform="translate(248.7539,23.1094)"><path
             d="M 0,0 H -3.385 L -12.408,12.002 -14.998,9.7 V 0 h -2.879 v 24.75 h 2.879 V 12.477 L -3.775,24.75 h 3.404 L -10.326,14 Z"
             style="fill:#4e4d50;fill-opacity:1;fill-rule:nonzero;stroke:none"
             id="path70"
             inkscape:connector-curvature="0" /></g><g
           id="g72"
           transform="translate(260.3672,35.5186)"><path
             d="m 0,0 c 0,-3.352 0.714,-5.895 2.142,-7.626 1.427,-1.733 3.502,-2.599 6.221,-2.599 2.742,0 4.814,0.863 6.213,2.59 1.4,1.726 2.099,4.272 2.099,7.635 0,3.329 -0.697,5.854 -2.091,7.575 C 13.19,9.296 11.127,10.157 8.396,10.157 5.655,10.157 3.569,9.291 2.142,7.559 0.714,5.826 0,3.307 0,0 m 19.723,0 c 0,-3.962 -1.002,-7.076 -3.005,-9.344 -2.005,-2.27 -4.788,-3.404 -8.355,-3.404 -3.646,0 -6.458,1.115 -8.44,3.344 -1.981,2.229 -2.971,5.375 -2.971,9.438 0,4.028 0.994,7.152 2.981,9.37 1.985,2.218 4.806,3.326 8.463,3.326 3.557,0 6.332,-1.128 8.33,-3.385 C 18.723,7.088 19.723,3.973 19.723,0"
             style="fill:#4e4d50;fill-opacity:1;fill-rule:nonzero;stroke:none"
             id="path74"
             inkscape:connector-curvature="0" /></g><g
           id="g76"
           transform="translate(292.0557,23.1094)"><path
             d="M 0,0 V 8.6 L -1.776,7.602 -2.911,9.531 0,11.241 V 24.75 H 2.879 V 12.934 L 7.907,15.879 9.04,13.831 2.879,10.259 V 2.607 H 13.798 V 0 Z"
             style="fill:#4e4d50;fill-opacity:1;fill-rule:nonzero;stroke:none"
             id="path78"
             inkscape:connector-curvature="0" /></g><g
           id="g80"
           transform="translate(328.2148,33.5718)"><path
             d="M 0,0 -2.877,7.668 C -3.25,8.639 -3.633,9.83 -4.028,11.241 -4.276,10.157 -4.632,8.966 -5.096,7.668 L -8.006,0 Z M 3.98,-10.462 0.898,-2.59 h -9.921 l -3.046,-7.872 h -2.912 l 9.784,24.851 h 2.422 l 9.733,-24.851 z"
             style="fill:#4e4d50;fill-opacity:1;fill-rule:nonzero;stroke:none"
             id="path82"
             inkscape:connector-curvature="0" /></g><path
           d="m 360.479,47.859 h 2.879 v -24.75 h -2.879 z"
           style="fill:#4e4d50;fill-opacity:1;fill-rule:nonzero;stroke:none"
           id="path84"
           inkscape:connector-curvature="0" /><g
           id="g86"
           transform="translate(384.2114,23.1094)"><path
             d="m 0,0 h -2.877 v 22.194 h -7.839 V 24.75 H 7.838 V 22.194 H 0 Z"
             style="fill:#4e4d50;fill-opacity:1;fill-rule:nonzero;stroke:none"
             id="path88"
             inkscape:connector-curvature="0" /></g></g></g></g></svg>