<?xml version="1.0" encoding="UTF-8" standalone="no"?>
<!-- Created with Inkscape (http://www.inkscape.org/) -->

<svg
   xmlns:dc="http://purl.org/dc/elements/1.1/"
   xmlns:cc="http://creativecommons.org/ns#"
   xmlns:rdf="http://www.w3.org/1999/02/22-rdf-syntax-ns#"
   xmlns:svg="http://www.w3.org/2000/svg"
   xmlns="http://www.w3.org/2000/svg"
   xmlns:sodipodi="http://sodipodi.sourceforge.net/DTD/sodipodi-0.dtd"
   xmlns:inkscape="http://www.inkscape.org/namespaces/inkscape"
   version="1.1"
   id="svg2"
   xml:space="preserve"
   width="689.29468"
   height="284.48868"
   viewBox="0 0 689.29468 284.48868"
   sodipodi:docname="dataart.svg"
   inkscape:version="0.92.5 (2060ec1f9f, 2020-04-08)"><metadata
     id="metadata8"><rdf:RDF><cc:Work
         rdf:about=""><dc:format>image/svg+xml</dc:format><dc:type
           rdf:resource="http://purl.org/dc/dcmitype/StillImage" /><dc:title></dc:title></cc:Work></rdf:RDF></metadata><defs
     id="defs6"><clipPath
       clipPathUnits="userSpaceOnUse"
       id="clipPath18"><path
         d="M 0,212.598 H 583.937 V 0 H 0 Z"
         id="path16"
         inkscape:connector-curvature="0" /></clipPath></defs><sodipodi:namedview
     pagecolor="#ffffff"
     bordercolor="#666666"
     borderopacity="1"
     objecttolerance="10"
     gridtolerance="10"
     guidetolerance="10"
     inkscape:pageopacity="0"
     inkscape:pageshadow="2"
     inkscape:window-width="1848"
     inkscape:window-height="1016"
     id="namedview4"
     showgrid="false"
     inkscape:zoom="0.54072616"
     inkscape:cx="72.495342"
     inkscape:cy="319.2917"
     inkscape:window-x="0"
     inkscape:window-y="27"
     inkscape:window-maximized="1"
     inkscape:current-layer="g10"
     fit-margin-top="95"
     fit-margin-left="50"
     fit-margin-right="50"
     fit-margin-bottom="95" /><g
     id="g10"
     inkscape:groupmode="layer"
     inkscape:label="DataArt-Logo-Colour-CMYK"
     transform="matrix(1.3333333,0,0,-1.3333333,-44.643998,283.9764)"><g
       id="g12"><g
         id="g14"
         clip-path="url(#clipPath18)"><g
           id="g20"
           transform="translate(190.0629,141.7307)"><path
             d="m 0,0 h -22.041 v -69.238 h 21.36 c 14.263,0 34.925,8.815 34.925,34.462 C 34.244,-9.13 11.93,0 0,0 m -1.148,-55.847 h -5.079 v 42.46 h 5.808 c 5.03,0 18.121,-3.441 18.121,-21.389 0,-17.95 -14.402,-21.071 -18.85,-21.071"
             style="fill:#231f20;fill-opacity:1;fill-rule:nonzero;stroke:none"
             id="path22"
             inkscape:connector-curvature="0" /></g><g
           id="g24"
           transform="translate(266.2673,117.6538)"><path
             d="M 0,0 V -6.325 L -1.889,-4.2 c -1.918,2.163 -6.171,5.788 -13.121,5.788 -6.096,0 -12.064,-2.377 -15.966,-6.356 -2.561,-2.612 -6.856,-8.452 -6.856,-18.203 0,-6.709 1.963,-11.84 6.363,-16.64 4.422,-4.761 9.785,-7.177 15.938,-7.177 3.387,0 9.656,0.822 13.57,6.329 L 0,-37.702 v -7.497 H 13.018 V 0 Z m -12.622,-34.503 c -6.461,0 -11.697,5.351 -11.697,11.95 0,6.602 5.236,11.952 11.697,11.952 6.46,0 11.696,-5.35 11.696,-11.952 0,-6.599 -5.236,-11.95 -11.696,-11.95"
             style="fill:#231f20;fill-opacity:1;fill-rule:nonzero;stroke:none"
             id="path26"
             inkscape:connector-curvature="0" /></g><g
           id="g28"
           transform="translate(357.8711,117.6538)"><path
             d="M 0,0 V -6.325 L -1.888,-4.2 c -1.919,2.163 -6.172,5.788 -13.122,5.788 -6.097,0 -12.064,-2.377 -15.965,-6.356 -2.561,-2.612 -6.858,-8.452 -6.858,-18.203 0,-6.709 1.964,-11.84 6.363,-16.64 4.422,-4.761 9.786,-7.177 15.939,-7.177 3.388,0 9.655,0.822 13.57,6.329 L 0,-37.702 v -7.497 H 13.018 V 0 Z m -12.621,-34.503 c -6.462,0 -11.698,5.351 -11.698,11.95 0,6.602 5.236,11.952 11.698,11.952 6.459,0 11.694,-5.35 11.694,-11.952 0,-6.599 -5.235,-11.95 -11.694,-11.95"
             style="fill:#231f20;fill-opacity:1;fill-rule:nonzero;stroke:none"
             id="path30"
             inkscape:connector-curvature="0" /></g><g
           id="g32"
           transform="translate(293.2531,141.7111)"><path
             d="M 0,0 V -24.064 H -5.303 V -35.76 H 0 v -33.498 h 14.462 v 33.498 h 9.457 v 11.696 H 14.462 V 0 Z"
             style="fill:#231f20;fill-opacity:1;fill-rule:nonzero;stroke:none"
             id="path34"
             inkscape:connector-curvature="0" /></g><g
           id="g36"
           transform="translate(489.034,141.7323)"><path
             d="m 0,0 v -69.285 h 14.463 v 33.499 H 23.92 V -24.09 H 14.463 V 0 Z"
             style="fill:#231f20;fill-opacity:1;fill-rule:nonzero;stroke:none"
             id="path38"
             inkscape:connector-curvature="0" /></g><g
           id="g40"
           transform="translate(403.3001,141.7258)"><path
             d="m 0,0 -26.043,-69.226 h 16.279 l 4.772,12.121 h 27.71 L 27.07,-69.226 H 43.541 L 18.005,0 Z M 8.828,-16.297 18.859,-45.769 H -0.935 Z"
             style="fill:#231f20;fill-opacity:1;fill-rule:nonzero;stroke:none"
             id="path42"
             inkscape:connector-curvature="0" /></g><g
           id="g44"
           transform="translate(452.1,72.446)"><path
             d="m 0,0 h 14.463 v 19.172 c 0,1.928 0,7.8 4.085,11.604 2.051,1.908 4.774,2.835 8.325,2.835 2.446,0 5.125,-0.059 6.089,-0.083 v 11.631 c -0.669,0.04 -2.876,0.157 -2.876,0.157 -2.797,0 -5.438,0 -7.47,-1.121 -2.597,-1.326 -4.707,-3.443 -6.111,-6.126 l -2.042,-3.9 V 45.201 H 0 Z"
             style="fill:#231f20;fill-opacity:1;fill-rule:nonzero;stroke:none"
             id="path46"
             inkscape:connector-curvature="0" /></g><g
           id="g48"
           transform="translate(122.9104,89.8049)"><path
             d="M 0,0 -17.309,17.309 0,34.618 17.309,17.309 Z"
             style="fill:#fdde34;fill-opacity:1;fill-rule:nonzero;stroke:none"
             id="path50"
             inkscape:connector-curvature="0" /></g><g
           id="g52"
           transform="translate(140.2195,107.1141)"><path
             d="M 0,0 -17.309,17.309 0,34.618 Z"
             style="fill:#57c6b1;fill-opacity:1;fill-rule:nonzero;stroke:none"
             id="path54"
             inkscape:connector-curvature="0" /></g><g
           id="g56"
           transform="translate(88.2922,89.8049)"><path
             d="M 0,0 17.309,17.309 34.618,0 Z"
             style="fill:#f03e38;fill-opacity:1;fill-rule:nonzero;stroke:none"
             id="path58"
             inkscape:connector-curvature="0" /></g><g
           id="g60"
           transform="translate(105.6013,72.4958)"><path
             d="M 0,0 34.618,34.618 V 0 Z"
             style="fill:#70d1f6;fill-opacity:1;fill-rule:nonzero;stroke:none"
             id="path62"
             inkscape:connector-curvature="0" /></g><g
           id="g64"
           transform="translate(105.6013,72.4958)"><path
             d="M 0,0 17.309,17.309 H -17.309 L -34.618,0 Z"
             style="fill:#664caa;fill-opacity:1;fill-rule:nonzero;stroke:none"
             id="path66"
             inkscape:connector-curvature="0" /></g><g
           id="g68"
           transform="translate(70.983,141.7323)"><path
             d="M 0,0 34.618,-34.618 69.236,0 Z"
             style="fill:#304391;fill-opacity:1;fill-rule:nonzero;stroke:none"
             id="path70"
             inkscape:connector-curvature="0" /></g><g
           id="g72"
           transform="translate(70.983,72.4958)"><path
             d="M 0,0 34.618,34.618 0,69.236 Z"
             style="fill:#f8a22b;fill-opacity:1;fill-rule:nonzero;stroke:none"
             id="path74"
             inkscape:connector-curvature="0" /></g></g></g></g></svg>