<?xml version="1.0" encoding="UTF-8" standalone="no"?>
<!-- Created with Inkscape (http://www.inkscape.org/) -->

<svg
   xmlns:dc="http://purl.org/dc/elements/1.1/"
   xmlns:cc="http://creativecommons.org/ns#"
   xmlns:rdf="http://www.w3.org/1999/02/22-rdf-syntax-ns#"
   xmlns:svg="http://www.w3.org/2000/svg"
   xmlns="http://www.w3.org/2000/svg"
   xmlns:sodipodi="http://sodipodi.sourceforge.net/DTD/sodipodi-0.dtd"
   xmlns:inkscape="http://www.inkscape.org/namespaces/inkscape"
   version="1.1"
   id="svg2"
   xml:space="preserve"
   width="376.30347"
   height="136.00133"
   viewBox="0 0 376.30347 136.00133"
   sodipodi:docname="decerto.svg"
   inkscape:version="0.92.5 (2060ec1f9f, 2020-04-08)"><metadata
     id="metadata8"><rdf:RDF><cc:Work
         rdf:about=""><dc:format>image/svg+xml</dc:format><dc:type
           rdf:resource="http://purl.org/dc/dcmitype/StillImage" /><dc:title></dc:title></cc:Work></rdf:RDF></metadata><defs
     id="defs6" /><sodipodi:namedview
     pagecolor="#ffffff"
     bordercolor="#666666"
     borderopacity="1"
     objecttolerance="10"
     gridtolerance="10"
     guidetolerance="10"
     inkscape:pageopacity="0"
     inkscape:pageshadow="2"
     inkscape:window-width="1848"
     inkscape:window-height="1016"
     id="namedview4"
     showgrid="false"
     fit-margin-left="20"
     fit-margin-top="20"
     fit-margin-right="20"
     fit-margin-bottom="20"
     inkscape:zoom="0.62442675"
     inkscape:cx="188.1488"
     inkscape:cy="55.902664"
     inkscape:window-x="0"
     inkscape:window-y="27"
     inkscape:window-maximized="1"
     inkscape:current-layer="g12" /><g
     id="g10"
     inkscape:groupmode="layer"
     inkscape:label="ink_ext_XXXXXX"
     transform="matrix(1.3333333,0,0,-1.3333333,-0.82453281,269.07199)"><g
       id="g12"
       transform="scale(0.1)"><path
         d="m 1233.98,1388.26 c 0,-19.3 -6.32,-37.27 -16.97,-50.58 -12.97,-16.3 -31.94,-25.95 -59.55,-25.95 h -36.36 v 153.05 h 36.36 c 27.61,0 46.58,-9.65 59.55,-25.95 10.65,-13.31 16.97,-31.27 16.97,-50.57 z m -157.8,116.45 v -232.9 h 76.28 c 36.94,0 61.22,7.98 80.19,21.96 28.61,21.29 46.25,55.89 46.25,94.49 0,38.59 -17.64,73.2 -46.25,94.49 -18.97,13.97 -43.25,21.96 -80.19,21.96 z m 405.91,-39.93 v 39.93 h -139.74 v -232.9 h 143.07 v 39.92 h -98.15 v 64.88 h 71.53 v 39.93 h -71.53 v 48.24 z m 167.84,3.33 c 22.95,0 42.58,-9.98 56.56,-23.96 l 28.94,30.61 c -20.96,20.3 -50.57,33.28 -85.17,33.28 -72.53,0 -122.77,-52.91 -122.77,-119.78 0,-66.88 50.9,-119.78 123.43,-119.78 42.59,0 77.19,18.3 97.82,44.58 l -30.94,27.62 c -13.64,-17.63 -35.6,-32.27 -65.88,-32.27 -44.91,0 -79.52,34.6 -79.52,79.85 0,44.25 33.27,79.85 77.53,79.85 z m 289.43,-3.33 v 39.93 h -139.74 v -232.9 h 143.06 v 39.92 h -98.15 v 64.88 h 71.54 v 39.93 h -71.54 v 48.24 z m 134.41,-89.83 82.84,-103.14 h 55.57 l -87.17,106.8 c 9.31,2.99 16.96,7.65 23.29,13.64 12.64,11.98 20.62,28.95 20.62,47.58 0,18.63 -7.98,35.6 -20.62,47.58 -11.65,10.64 -26.95,17.3 -50.91,17.3 h -84.84 v -232.9 h 44.91 v 103.14 z m -16.31,39.93 v 49.9 h 37.27 c 12.97,0 18.63,-2.99 22.62,-7.32 4,-4.32 6.66,-10.98 6.66,-17.96 0,-6.66 -2.66,-13.31 -6.66,-17.64 -3.99,-4.32 -9.65,-6.98 -22.62,-6.98 z m 173.02,89.83 v -39.93 h 61.55 v -192.97 h 44.92 v 192.97 h 61.55 v 39.93 z m 250.02,-116.45 c 0,43.92 32.6,79.85 76.52,79.85 43.92,0 76.53,-35.93 76.53,-79.85 0,-43.92 -32.61,-79.85 -76.53,-79.85 -43.92,0 -76.52,35.93 -76.52,79.85 z m -44.92,0 c 0,-66.21 49.57,-119.78 121.44,-119.78 71.87,0 121.44,53.57 121.44,119.78 0,66.21 -49.57,119.78 -121.44,119.78 -71.87,0 -121.44,-53.57 -121.44,-119.78"
         style="fill:#002841;fill-opacity:1;fill-rule:nonzero;stroke:none"
         id="path14"
         inkscape:connector-curvature="0" /><path
         d="m 579.992,1148.03 c -7.387,230.93 -192.902,416.44 -423.808,423.83 v -296.15 h 127.828 v -127.68 h 295.98"
         style="fill:#5dc7d5;fill-opacity:1;fill-rule:nonzero;stroke:none"
         id="path16"
         inkscape:connector-curvature="0" /><path
         d="m 876.184,1444.18 c -7.387,230.94 -192.922,416.46 -423.848,423.86 v -296.2 h 127.656 v -127.66 h 296.192"
         style="fill:#89fcc5;fill-opacity:1;fill-rule:nonzero;stroke:none"
         id="path18"
         inkscape:connector-curvature="0" /></g></g></svg>