<?xml version="1.0" encoding="UTF-8" standalone="no"?>
<!-- Created with Inkscape (http://www.inkscape.org/) -->

<svg
   xmlns:dc="http://purl.org/dc/elements/1.1/"
   xmlns:cc="http://creativecommons.org/ns#"
   xmlns:rdf="http://www.w3.org/1999/02/22-rdf-syntax-ns#"
   xmlns:svg="http://www.w3.org/2000/svg"
   xmlns="http://www.w3.org/2000/svg"
   xmlns:sodipodi="http://sodipodi.sourceforge.net/DTD/sodipodi-0.dtd"
   xmlns:inkscape="http://www.inkscape.org/namespaces/inkscape"
   version="1.1"
   id="svg2"
   xml:space="preserve"
   width="354.276"
   height="154.62399"
   viewBox="0 0 354.276 154.62399"
   sodipodi:docname="fis.svg"
   inkscape:version="0.92.5 (2060ec1f9f, 2020-04-08)"><metadata
     id="metadata8"><rdf:RDF><cc:Work
         rdf:about=""><dc:format>image/svg+xml</dc:format><dc:type
           rdf:resource="http://purl.org/dc/dcmitype/StillImage" /><dc:title></dc:title></cc:Work></rdf:RDF></metadata><defs
     id="defs6"><clipPath
       clipPathUnits="userSpaceOnUse"
       id="clipPath18"><path
         d="M 0,115.968 H 265.707 V 0 H 0 Z"
         id="path16"
         inkscape:connector-curvature="0" /></clipPath><clipPath
       clipPathUnits="userSpaceOnUse"
       id="clipPath34"><path
         d="m 100.576,110.435 h 16.139 V 94.2964 h -16.139 z"
         id="path32"
         inkscape:connector-curvature="0" /></clipPath><clipPath
       clipPathUnits="userSpaceOnUse"
       id="clipPath50"><path
         d="M 74.8525,110.435 H 90.9916 V 94.2964 H 74.8525 Z"
         id="path48"
         inkscape:connector-curvature="0" /></clipPath><clipPath
       clipPathUnits="userSpaceOnUse"
       id="clipPath66"><path
         d="M 49.1327,110.435 H 65.2718 V 94.2964 H 49.1327 Z"
         id="path64"
         inkscape:connector-curvature="0" /></clipPath><clipPath
       clipPathUnits="userSpaceOnUse"
       id="clipPath82"><path
         d="M 23.4129,110.435 H 39.552 V 94.2964 H 23.4129 Z"
         id="path80"
         inkscape:connector-curvature="0" /></clipPath></defs><sodipodi:namedview
     pagecolor="#ffffff"
     bordercolor="#666666"
     borderopacity="1"
     objecttolerance="10"
     gridtolerance="10"
     guidetolerance="10"
     inkscape:pageopacity="0"
     inkscape:pageshadow="2"
     inkscape:window-width="1848"
     inkscape:window-height="1016"
     id="namedview4"
     showgrid="false"
     inkscape:zoom="1.0246249"
     inkscape:cx="177.138"
     inkscape:cy="77.311996"
     inkscape:window-x="1920"
     inkscape:window-y="27"
     inkscape:window-maximized="1"
     inkscape:current-layer="g10" /><g
     id="g10"
     inkscape:groupmode="layer"
     inkscape:label="FIS_logo_c_cmyk"
     transform="matrix(1.3333333,0,0,-1.3333333,0,154.624)"><g
       id="g12"><g
         id="g14"
         clip-path="url(#clipPath18)"><g
           id="g20"
           transform="translate(255.3986,72.1046)"><path
             d="m 0,0 c 0,3.066 -2.482,5.552 -5.548,5.552 h -64.05 c -11.68,0 -21.174,-9 -21.174,-20.681 0,-11.683 9.494,-20.68 21.174,-20.68 h 51.443 c 5.007,0 9.076,-4.578 9.076,-9.578 0,-5.007 -4.069,-9.584 -9.076,-9.584 h -64.047 c -3.062,0 -5.548,-2.486 -5.548,-5.543 0,-3.07 2.486,-5.549 5.548,-5.549 h 64.047 c 11.68,0 21.182,8.997 21.182,20.676 0,11.681 -9.502,20.674 -21.182,20.674 h -51.443 c -5,0 -9.072,4.581 -9.072,9.584 0,5.003 4.072,9.578 9.072,9.578 h 64.05 C -2.482,-5.551 0,-3.065 0,0"
             style="fill:#61c332;fill-opacity:1;fill-rule:nonzero;stroke:none"
             id="path22"
             inkscape:connector-curvature="0" /></g><g
           id="g24"
           transform="translate(142.4342,102.3663)"><path
             d="m 0,0 c 0,4.455 -3.61,8.069 -8.069,8.069 -4.459,0 -8.07,-3.614 -8.07,-8.069 0,-4.459 3.611,-8.07 8.07,-8.07 C -3.61,-8.07 0,-4.459 0,0"
             style="fill:#61c332;fill-opacity:1;fill-rule:nonzero;stroke:none"
             id="path26"
             inkscape:connector-curvature="0" /></g><g
           id="g28"><g
             id="g30" /><g
             id="g42"><g
               clip-path="url(#clipPath34)"
               id="g40"
               style="opacity:0.80000299"><g
                 transform="translate(116.7145,102.3663)"
                 id="g38"><path
                   d="m 0,0 c 0,4.455 -3.61,8.069 -8.069,8.069 -4.459,0 -8.07,-3.614 -8.07,-8.069 0,-4.459 3.611,-8.07 8.07,-8.07 C -3.61,-8.07 0,-4.459 0,0"
                   style="fill:#61c332;fill-opacity:1;fill-rule:nonzero;stroke:none"
                   id="path36"
                   inkscape:connector-curvature="0" /></g></g></g></g><g
           id="g44"><g
             id="g46" /><g
             id="g58"><g
               clip-path="url(#clipPath50)"
               id="g56"
               style="opacity:0.60000598"><g
                 transform="translate(90.9918,102.3663)"
                 id="g54"><path
                   d="m 0,0 c 0,4.455 -3.615,8.069 -8.07,8.069 -4.459,0 -8.069,-3.614 -8.069,-8.069 0,-4.459 3.61,-8.07 8.069,-8.07 C -3.615,-8.07 0,-4.459 0,0"
                   style="fill:#61c332;fill-opacity:1;fill-rule:nonzero;stroke:none"
                   id="path52"
                   inkscape:connector-curvature="0" /></g></g></g></g><g
           id="g60"><g
             id="g62" /><g
             id="g74"><g
               clip-path="url(#clipPath66)"
               id="g72"
               style="opacity:0.39999402"><g
                 transform="translate(65.2716,102.3663)"
                 id="g70"><path
                   d="m 0,0 c 0,4.455 -3.61,8.069 -8.069,8.069 -4.456,0 -8.07,-3.614 -8.07,-8.069 0,-4.459 3.614,-8.07 8.07,-8.07 C -3.61,-8.07 0,-4.459 0,0"
                   style="fill:#61c332;fill-opacity:1;fill-rule:nonzero;stroke:none"
                   id="path68"
                   inkscape:connector-curvature="0" /></g></g></g></g><g
           id="g76"><g
             id="g78" /><g
             id="g90"><g
               clip-path="url(#clipPath82)"
               id="g88"
               style="opacity:0.19999701"><g
                 transform="translate(39.5519,102.3663)"
                 id="g86"><path
                   d="m 0,0 c 0,4.455 -3.61,8.069 -8.065,8.069 -4.46,0 -8.074,-3.614 -8.074,-8.069 0,-4.459 3.614,-8.07 8.074,-8.07 C -3.61,-8.07 0,-4.459 0,0"
                   style="fill:#61c332;fill-opacity:1;fill-rule:nonzero;stroke:none"
                   id="path84"
                   inkscape:connector-curvature="0" /></g></g></g></g><g
           id="g92"
           transform="translate(98.5592,77.6524)"><path
             d="M 0,0 C -0.173,0 -0.339,-0.036 -0.505,-0.05 V 0 h -54.47 c -21.639,0 -36.302,-14.166 -36.302,-35.806 v -30.26 c 0,-3.338 2.703,-6.05 6.045,-6.05 3.346,0 6.053,2.712 6.053,6.05 v 30.26 c 0,15.003 9.075,24.711 24.204,24.711 h 54.47 v 0.05 c 0.166,-0.015 0.332,-0.05 0.505,-0.05 3.063,0 5.548,2.485 5.548,5.547 C 5.548,-2.486 3.063,0 0,0"
             style="fill:#61c332;fill-opacity:1;fill-rule:nonzero;stroke:none"
             id="path94"
             inkscape:connector-curvature="0" /></g><g
           id="g96"
           transform="translate(25.4332,41.8467)"><path
             d="M 0,0 C 0,-3.066 2.485,-5.551 5.548,-5.551 H 61.02 c 3.07,0 5.548,2.485 5.548,5.551 0,3.063 -2.478,5.549 -5.548,5.549 H 5.548 C 2.485,5.549 0,3.063 0,0"
             style="fill:#61c332;fill-opacity:1;fill-rule:nonzero;stroke:none"
             id="path98"
             inkscape:connector-curvature="0" /></g><g
           id="g100"
           transform="translate(128.3121,72.1046)"><path
             d="m 0,0 v -60.514 c 0,-3.342 2.71,-6.058 6.053,-6.058 3.342,0 6.053,2.716 6.053,6.058 V 0 c 0,3.342 -2.711,6.048 -6.053,6.048 C 2.71,6.048 0,3.342 0,0"
             style="fill:#61c332;fill-opacity:1;fill-rule:nonzero;stroke:none"
             id="path102"
             inkscape:connector-curvature="0" /></g></g></g></g></svg>