<?xml version="1.0" encoding="utf-8"?>
<!-- Generator: Adobe Illustrator 19.0.0, SVG Export Plug-In . SVG Version: 6.00 Build 0)  -->
<!DOCTYPE svg PUBLIC "-//W3C//DTD SVG 1.1 Basic//EN" "http://www.w3.org/Graphics/SVG/1.1/DTD/svg11-basic.dtd">
<svg version="1.1" baseProfile="basic" id="Layer_1"
	 xmlns="http://www.w3.org/2000/svg" xmlns:xlink="http://www.w3.org/1999/xlink" x="0px" y="0px" viewBox="0 0 841.9 306.1"
	 xml:space="preserve">
<g>
	<rect style="fill:#FFFFFF;" width="841.9" height="306.1"/>
	<rect x="294.8" y="11.3" style="fill:#2C3B4C;" width="510.2" height="283.5"/>
	<rect x="816.4" y="11.3" style="fill:#CF1E35;" width="14.2" height="283.5"/>
	<g>
		<polygon style="fill:#FFFFFF;" points="465.3,50.9 471.8,72.1 503.3,72.1 503.3,142.2 503.3,142.2 503.3,142.2 524.5,142.2 
			524.5,142.2 524.5,142.2 524.5,72.1 556,72.1 562.4,50.9 		"/>
		<path id="XMLID_143_" style="fill:#FFFFFF;" d="M400.4,72.1h26.5h8.4c1.6,0,2.9,1,3.4,2.5l1,3.4l19.6,64.2h22.2L459,68.4
			c-3.2-10.5-12.7-17.6-23.7-17.6h-8.4h-47.7v91.4h21.2V72.1z"/>
		<rect id="XMLID_141_" x="345" y="50.9" style="fill:#FFFFFF;" width="21.2" height="91.4"/>
		<path id="XMLID_139_" style="fill:#FFFFFF;" d="M735,201.9l-50.3-4.9c-1.9-0.2-3.3-1.7-3.3-3.6v-4.7c0-2,1.6-3.6,3.6-3.6h62.3
			l6.5-21.2h-72.4c-11.7,0-21.2,9.5-21.2,21.2v11.6c0,11,8.2,20.1,19.2,21.1l50.3,4.9c1.9,0.2,3.3,1.8,3.3,3.7v4.1
			c0,2-1.6,3.6-3.6,3.6h-74.8l6.5,21.2h72c11.7,0,21.2-9.5,21.2-21.2v-11C754.2,212.1,745.9,203,735,201.9z"/>
		<g id="XMLID_133_">
			<path style="fill:#FFFFFF;" d="M626.5,163.9h-75v91.4h21.2v-18.7h43.6c1.6,0,3,1,3.5,2.6l4.9,16.1h22.2l-7.1-23.4
				c1.5-1.2,2.8-2.6,3.9-4.2c2.5-3.5,4-7.7,4-12.3v-30.2C647.7,173.4,638.2,163.9,626.5,163.9z M572.7,185.1h50.1
				c2,0,3.6,1.6,3.6,3.6v22.9c0,2-1.6,3.6-3.6,3.6h-50.1V185.1z"/>
		</g>
		<g id="XMLID_116_">
			<path style="fill:#FFFFFF;" d="M474.9,163.9c-3.5,0-6.8,0.8-9.8,2.1c-5,2.1-9.1,5.9-11.8,10.7c-0.8,1.5-1.5,3.1-2.1,4.7l-16,52.6
				h-65.3c-2,0-3.6-1.6-3.6-3.6v-41.7c0-2,1.6-3.6,3.6-3.6h68.4l6.5-21.2h-78.5c-11.7,0-21.2,9.5-21.2,21.2v49
				c0,11.4,9,20.7,20.2,21.2h85.7l5.7-18.7h60.6v18.7h21.2v-91.4H474.9z M517.2,215.3h-54.1l7.9-25.9l0.5-1.8
				c0.5-1.5,1.8-2.5,3.4-2.5h7.9h34.4V215.3z"/>
		</g>
		<path style="fill:#FFFFFF;" d="M648.9,121h-56.4c-2,0-3.6-1.6-3.6-3.6v-10.3H645V86h-56.1V75.7c0-2,1.6-3.6,3.6-3.6h56.4l6.5-21.2
			h-66.5c-11.7,0-21.2,9.5-21.2,21.2V121c0,11,8.4,20.1,19.2,21.1c0.7,0.1,1.4,0.1,2,0.1h66.5L648.9,121z"/>
		<g id="XMLID_98_">
			<path style="fill:#FFFFFF;" d="M733.7,50.9h-67.3v91.3v0.1h21.2v-0.1v-18.7h35.9c1.6,0,3,1,3.5,2.6l4.9,16.2h22.2l-7.1-23.5
				c4.8-3.9,7.9-9.8,7.9-16.5V72.1C755,60.4,745.5,50.9,733.7,50.9z M687.7,72.1h42.4c2,0,3.6,1.6,3.6,3.6v22.8c0,2-1.6,3.6-3.6,3.6
				h-42.4V72.1z"/>
		</g>
	</g>
	<g>
		<rect x="11.3" y="11.3" style="fill:#CF1E35;" width="283.5" height="283.5"/>
		<g>
			<path style="fill:#FFFFFF;" d="M262,155.9l-28.3-0.7c-0.1,5.7-0.9,11.3-2.2,16.7l27.6,6.6C260.8,171.2,261.8,163.7,262,155.9z"/>
			<path style="fill:#FFFFFF;" d="M230.4,130.2l27.2-8.1c-2.2-7.4-5.1-14.4-8.7-21.1L224,114.6C226.7,119.5,228.8,124.7,230.4,130.2
				z"/>
			<path style="fill:#FFFFFF;" d="M221.9,110.9L246,96.1c-9-14.6-21.3-27-36-36l-14.8,24.2C206.1,90.9,215.2,100.1,221.9,110.9z"/>
			<path style="fill:#FFFFFF;" d="M153.1,44v28.3c13.9,0,27.1,3.5,38.5,9.8c6.6-12.2,8.7-16.1,13.5-24.9
				C189.6,48.8,171.9,44,153.1,44z"/>
			<path style="fill:#FFFFFF;" d="M233.7,151l28.3-0.7c-0.2-7.8-1.2-15.3-2.9-22.6l-27.6,6.6C232.8,139.6,233.5,145.2,233.7,151z"/>
			<path style="fill:#FFFFFF;" d="M74.6,134.2L47,127.6c-1.7,7.3-2.7,14.8-2.9,22.6l28.3,0.7C72.6,145.2,73.3,139.6,74.6,134.2z"/>
			<path style="fill:#FFFFFF;" d="M141.8,261.5v-28.6c-38.5-5.4-68.3-38-69.4-77.8l-28.3,0.7C45.5,211,87.8,256,141.8,261.5z"/>
			<path style="fill:#FFFFFF;" d="M153.1,77.8c-41.5,0-75.2,33.7-75.2,75.2s33.7,75.2,75.2,75.2c27.8,0,52.1-15.1,65.1-37.6
				l-33.1-19.1c-6.4,11.1-18.4,18.5-32.1,18.5c-20.5,0-37.1-16.6-37.1-37.1s16.6-37.1,37.1-37.1c13.4,0,25.1,7.1,31.6,17.7l32.6-20
				C204,92.2,180.2,77.8,153.1,77.8z"/>
		</g>
	</g>
</g>
</svg>
