<?xml version="1.0" encoding="UTF-8" standalone="no"?>
<!-- Created with Inkscape (http://www.inkscape.org/) -->

<svg
   version="1.1"
   id="svg2"
   xml:space="preserve"
   width="1008.7749"
   height="338.02161"
   viewBox="0 0 1008.7749 338.0216"
   sodipodi:docname="kmd.svg"
   inkscape:version="1.1.1 (3bf5ae0d25, 2021-09-20)"
   xmlns:inkscape="http://www.inkscape.org/namespaces/inkscape"
   xmlns:sodipodi="http://sodipodi.sourceforge.net/DTD/sodipodi-0.dtd"
   xmlns="http://www.w3.org/2000/svg"
   xmlns:svg="http://www.w3.org/2000/svg"><defs
     id="defs6"><clipPath
       clipPathUnits="userSpaceOnUse"
       id="clipPath16"><path
         d="M 0,841.89 H 1190.55 V 0 H 0 Z"
         id="path14" /></clipPath></defs><sodipodi:namedview
     id="namedview4"
     pagecolor="#ffffff"
     bordercolor="#666666"
     borderopacity="1.0"
     inkscape:pageshadow="2"
     inkscape:pageopacity="0.0"
     inkscape:pagecheckerboard="0"
     showgrid="false"
     inkscape:zoom="0.69664682"
     inkscape:cx="566.28408"
     inkscape:cy="152.15745"
     inkscape:window-width="1920"
     inkscape:window-height="1043"
     inkscape:window-x="0"
     inkscape:window-y="0"
     inkscape:window-maximized="1"
     inkscape:current-layer="g8"
     fit-margin-top="0"
     fit-margin-left="0"
     fit-margin-right="0"
     fit-margin-bottom="0" /><g
     id="g8"
     inkscape:groupmode="layer"
     inkscape:label="KMD_NEC_logo_RGB_black[2]"
     transform="matrix(1.3333333,0,0,-1.3333333,-227.27733,713.41145)"><g
       id="g10"><g
         id="g12"
         clip-path="url(#clipPath16)"><g
           id="g18"
           transform="translate(494.3677,450.1796)"><path
             d="M 0,0 C -0.591,0.734 -0.567,2.491 0.032,3.217 L 55.34,75.578 c 2.395,2.866 1.661,5.317 1.238,6.235 -0.432,0.918 -1.828,3.066 -5.549,3.066 H 9.484 c -3.649,0 -8.079,-2.212 -10.298,-5.142 0,0 -33.012,-43.046 -42.863,-56.027 l 0.032,52.97 c 0,4.519 -3.656,8.199 -8.143,8.199 h -32.668 c -4.494,0 -8.159,-3.68 -8.159,-8.199 V -76.656 c 0,-4.511 3.665,-8.191 8.159,-8.191 h 32.668 c 4.487,0 8.143,3.68 8.143,8.191 v 56.339 c 10.267,-13.341 45.297,-59.596 45.297,-59.596 2.228,-2.898 7.114,-4.934 10.77,-4.934 h 40.867 c 3.72,0 5.125,2.139 5.556,3.057 0.439,0.919 1.182,3.362 -1.189,6.244 z"
             style="fill:#0a0f14;fill-opacity:1;fill-rule:nonzero;stroke:none"
             id="path20" /></g><path
           d="M 170.458,365.39 H 339.145 V 535.043 H 170.458 Z"
           style="fill:#43b02a;fill-opacity:1;fill-rule:nonzero;stroke:none"
           id="path22" /><g
           id="g24"
           transform="translate(841.3467,535.057)"><path
             d="m 0,0 h -52.275 c -4.495,0 -8.152,-3.681 -8.152,-8.191 V -34.56 c 0,-4.519 3.657,-8.191 8.152,-8.191 h 44.539 c 26.369,0 42.751,-16.126 42.751,-42.112 0,-26.377 -16.143,-42.113 -43.174,-42.113 l -63.445,-0.006 c -0.885,0 -1.899,0.869 -2.035,1.755 L -93.262,-7.624 C -93.9,-3.353 -97.78,0 -102.067,0 l -31.997,-0.088 c -4.008,0 -8.2,-2.683 -9.708,-6.411 0,-0.007 -23.951,-59.372 -30.169,-74.915 -5.884,15.576 -30.137,74.747 -30.137,74.747 -1.438,3.801 -5.533,6.667 -9.612,6.579 l -29.634,-0.064 c -4.343,0.152 -8.495,-3.169 -9.445,-7.608 l -25.914,-153.471 c -0.143,-2.02 0.432,-4.248 1.82,-5.9 1.382,-1.653 3.482,-2.595 5.725,-2.595 h 32.46 c 4.311,0 8.254,4.16 8.885,8.439 0,0 8.087,55.883 11.033,76.28 7.928,-19.998 31.494,-78.14 31.494,-78.14 1.494,-3.752 5.645,-6.579 9.652,-6.579 h 7.321 c 3.983,0 8.15,2.794 9.692,6.498 0,0 23.639,58.199 31.941,78.206 2.579,-20.47 9.7,-76.984 9.7,-76.984 0.543,-4.327 4.367,-7.72 8.718,-7.72 H 0 c 47.253,0 85.692,38.073 85.692,84.863 C 85.692,-38.081 47.253,0 0,0"
             style="fill:#0a0f14;fill-opacity:1;fill-rule:nonzero;stroke:none"
             id="path26" /></g><g
           id="g28"
           transform="translate(580.2148,323.1654)"><path
             d="M 0,0 C -0.147,0.538 -0.438,0.882 -0.929,0.882 -1.467,0.882 -1.758,0.538 -1.906,0 l -4.45,-16.09 H 4.45 Z M 12.278,-31.937 H 9.391 c -0.438,0 -0.734,0.343 -0.829,0.734 L 5.379,-19.954 H -7.285 l -3.131,-11.249 c -0.099,-0.391 -0.49,-0.734 -0.881,-0.734 h -2.887 c -0.486,0 -0.829,0.343 -0.829,0.782 0,0.099 0,0.248 0.048,0.343 l 9.048,31.841 c 0.833,2.983 3.13,3.716 4.988,3.716 1.81,0 4.112,-0.682 4.941,-3.668 l 9.048,-31.889 c 0.047,-0.095 0.047,-0.244 0.047,-0.343 0,-0.439 -0.291,-0.782 -0.829,-0.782"
             style="fill:#0a0f14;fill-opacity:1;fill-rule:nonzero;stroke:none"
             id="path30" /></g><g
           id="g32"
           transform="translate(617.6787,291.2289)"><path
             d="m 0,0 h -2.349 c -0.539,0 -0.977,0.438 -0.977,0.977 v 16.094 c 0,4.941 -1.667,6.456 -5.383,6.456 -2.054,0 -4.351,-0.782 -6.604,-1.91 V 0.977 C -15.313,0.49 -15.751,0 -16.29,0 h -2.397 c -0.49,0 -0.928,0.438 -0.928,0.977 v 24.947 c 0,0.538 0.39,0.976 0.928,0.976 h 2.445 c 0.538,0 0.929,-0.438 0.929,-0.976 v -0.93 c 2.692,1.516 4.893,2.249 7.78,2.249 5.87,0 8.51,-3.668 8.51,-10.172 V 0.977 C 0.977,0.438 0.538,0 0,0"
             style="fill:#0a0f14;fill-opacity:1;fill-rule:nonzero;stroke:none"
             id="path34" /></g><g
           id="g36"
           transform="translate(662.0801,291.2289)"><path
             d="m 0,0 h -3.03 c -0.786,0 -1.321,0.295 -1.568,0.781 l -15.113,28.711 c -0.048,0.1 -0.096,0.148 -0.147,0.148 -0.048,0 -0.048,-0.048 -0.048,-0.148 V 0.929 C -19.906,0.438 -20.297,0 -20.787,0 h -2.54 c -0.491,0 -0.882,0.1 -0.882,0.586 v 34.386 c 0,0.781 0.634,1.367 1.416,1.367 h 2.691 c 1.368,0 1.616,-0.243 2.006,-0.977 L -3.083,6.799 -2.982,6.651 c 0.047,0 0.047,0.1 0.047,0.148 V 35.41 c 0,0.49 0.391,0.929 0.881,0.929 H 0.538 C 1.077,36.339 1.42,35.9 1.42,35.41 V 1.42 C 1.42,0.634 0.781,0 0,0"
             style="fill:#0a0f14;fill-opacity:1;fill-rule:nonzero;stroke:none"
             id="path38" /></g><g
           id="g40"
           transform="translate(691.082,291.1293)"><path
             d="m 0,0 c -1.858,-0.195 -6.651,-0.243 -9.539,-0.243 -6.847,0 -10.415,2.592 -10.415,9.099 v 18.83 c 0,6.503 3.568,9.095 10.415,9.095 2.888,0 7.485,-0.094 9.539,-0.29 C 0.295,36.438 0.49,36.1 0.49,35.805 V 33.36 c 0,-0.342 -0.195,-0.589 -0.538,-0.589 h -9.438 c -5.189,0 -6.018,-1.369 -6.018,-5.085 V 20.887 H -0.49 c 0.538,0 0.98,-0.443 0.98,-0.977 v -1.862 c 0,-0.534 -0.442,-0.977 -0.98,-0.977 H -15.504 V 8.856 c 0,-3.72 0.829,-5.087 6.018,-5.087 h 9.438 C 0.295,3.769 0.49,3.525 0.49,3.182 V 0.686 C 0.49,0.395 0.295,0.052 0,0"
             style="fill:#0a0f14;fill-opacity:1;fill-rule:nonzero;stroke:none"
             id="path42" /></g><g
           id="g44"
           transform="translate(718.2217,291.5238)"><path
             d="m 0,0 c -2.054,-0.395 -3.96,-0.638 -8.119,-0.638 -6.018,0 -12.912,3.23 -12.912,15.114 v 6.798 c 0,11.983 6.894,15.113 12.912,15.113 3.082,0 6.065,-0.439 8.219,-0.782 0.438,-0.047 0.781,-0.195 0.781,-0.633 v -2.496 c 0,-0.296 -0.1,-0.539 -0.586,-0.539 H 0.147 c -1.762,0.148 -5.379,0.439 -8.218,0.439 -4.793,0 -8.51,-2.788 -8.51,-11.102 v -6.798 c 0,-8.215 3.717,-11.102 8.51,-11.102 2.787,0 6.312,0.243 8.071,0.391 h 0.195 c 0.538,0 0.782,-0.244 0.782,-0.783 V 0.978 C 0.977,0.391 0.538,0.096 0,0"
             style="fill:#0a0f14;fill-opacity:1;fill-rule:nonzero;stroke:none"
             id="path46" /></g><g
           id="g48"
           transform="translate(756.9521,291.5238)"><path
             d="m 0,0 c -2.053,-0.395 -3.959,-0.638 -8.118,-0.638 -6.018,0 -12.912,3.23 -12.912,15.114 v 6.798 c 0,11.983 6.894,15.113 12.912,15.113 3.082,0 6.065,-0.439 8.219,-0.782 0.438,-0.047 0.781,-0.195 0.781,-0.633 v -2.496 c 0,-0.296 -0.1,-0.539 -0.586,-0.539 H 0.148 c -1.762,0.148 -5.379,0.439 -8.218,0.439 -4.793,0 -8.51,-2.788 -8.51,-11.102 v -6.798 c 0,-8.215 3.717,-11.102 8.51,-11.102 2.787,0 6.312,0.243 8.07,0.391 h 0.196 c 0.538,0 0.782,-0.244 0.782,-0.783 V 0.978 C 0.978,0.391 0.539,0.096 0,0"
             style="fill:#0a0f14;fill-opacity:1;fill-rule:nonzero;stroke:none"
             id="path50" /></g><g
           id="g52"
           transform="translate(779.0557,306.5375)"><path
             d="m 0,0 c 0,4.988 -2.006,8.171 -6.604,8.171 -4.545,0 -6.551,-3.135 -6.551,-8.171 v -3.717 c 0,-4.988 1.954,-8.166 6.551,-8.166 4.55,0 6.604,3.13 6.604,8.166 z m -6.604,-15.651 c -7.189,0 -10.858,4.745 -10.858,11.934 V 0 c 0,7.189 3.669,11.935 10.858,11.935 C 0.586,11.935 4.303,7.189 4.303,0 v -3.717 c 0,-7.189 -3.717,-11.934 -10.907,-11.934"
             style="fill:#0a0f14;fill-opacity:1;fill-rule:nonzero;stroke:none"
             id="path54" /></g><g
           id="g56"
           transform="translate(820.5312,291.2289)"><path
             d="m 0,0 h -2.349 c -0.539,0 -0.977,0.438 -0.977,0.977 v 17.314 c 0,4.111 -1.91,5.236 -4.454,5.236 -1.759,0 -3.813,-0.587 -5.723,-1.32 0.296,-1.076 0.443,-2.349 0.443,-3.816 V 0.977 C -13.06,0.49 -13.402,0 -13.941,0 h -2.592 c -0.49,0 -0.833,0.438 -0.833,0.977 v 17.414 c 0,4.255 -1.221,5.136 -3.765,5.136 -1.763,0 -3.912,-0.881 -5.97,-1.91 V 0.977 C -27.101,0.49 -27.439,0 -27.978,0 h -2.591 c -0.492,0 -0.834,0.438 -0.834,0.977 v 24.947 c 0,0.538 0.39,0.976 0.929,0.976 h 2.445 c 0.538,0 0.928,-0.438 0.928,-0.976 v -0.93 c 1.958,1.221 4.455,2.297 7.142,2.297 2.106,0 3.669,-0.586 4.894,-2.006 2.687,1.273 5.574,2.006 8.118,2.006 4.402,0 7.924,-2.201 7.924,-9 V 0.977 C 0.977,0.438 0.538,0 0,0"
             style="fill:#0a0f14;fill-opacity:1;fill-rule:nonzero;stroke:none"
             id="path58" /></g><g
           id="g60"
           transform="translate(844.54,306.39)"><path
             d="m 0,0 c 0,5.136 -1.516,8.461 -6.356,8.461 -2.058,0 -4.355,-0.242 -5.727,-0.485 v -19.373 c 1.615,-0.291 4.159,-0.487 5.727,-0.487 4.793,0 6.356,3.131 6.356,8.363 z m -6.356,-15.504 c -1.52,0 -3.817,0.195 -5.727,0.538 v -8.852 c 0,-0.491 -0.391,-0.929 -0.929,-0.929 h -2.492 c -0.49,0 -0.881,0.391 -0.881,0.929 V 9.833 c 0,0.634 0.148,0.93 1.029,1.125 2.591,0.634 6.013,1.124 9,1.124 C 0.929,12.082 4.303,7.337 4.303,0 v -3.521 c 0,-7.676 -3.522,-11.983 -10.659,-11.983"
             style="fill:#0a0f14;fill-opacity:1;fill-rule:nonzero;stroke:none"
             id="path62" /></g><g
           id="g64"
           transform="translate(869.0352,304.2406)"><path
             d="m 0,0 h -3.616 c -5.918,0 -7.486,-1.324 -7.486,-4.793 v -0.591 c 0,-3.52 1.664,-4.45 4.502,-4.45 2.249,0 4.255,0.687 6.6,1.958 z M 3.326,-13.012 H 1.077 c -0.539,0 -0.977,0.439 -0.977,0.977 v 1.077 c -2.349,-1.368 -4.793,-2.396 -7.533,-2.396 -4.159,0 -7.971,1.81 -7.971,7.922 v 0.586 c 0,5.284 3.078,7.924 11.788,7.924 H 0 v 1.958 c 0,4.108 -1.415,5.527 -5.231,5.527 -3.178,0 -5.528,-0.195 -7.486,-0.391 h -0.243 c -0.438,0 -0.881,0.148 -0.881,0.782 v 1.71 c 0,0.539 0.343,0.834 1.029,0.93 2.006,0.343 4.254,0.637 7.581,0.637 6.798,0 9.538,-3.424 9.538,-9.195 v -17.071 c 0,-0.538 -0.443,-0.977 -0.981,-0.977"
             style="fill:#0a0f14;fill-opacity:1;fill-rule:nonzero;stroke:none"
             id="path66" /></g><g
           id="g68"
           transform="translate(899.6045,291.2289)"><path
             d="m 0,0 h -2.349 c -0.539,0 -0.977,0.438 -0.977,0.977 v 16.094 c 0,4.941 -1.667,6.456 -5.383,6.456 -2.054,0 -4.351,-0.782 -6.604,-1.91 V 0.977 C -15.313,0.49 -15.751,0 -16.29,0 h -2.397 c -0.49,0 -0.928,0.438 -0.928,0.977 v 24.947 c 0,0.538 0.39,0.976 0.928,0.976 h 2.445 c 0.539,0 0.929,-0.438 0.929,-0.976 v -0.93 c 2.692,1.516 4.893,2.249 7.78,2.249 5.87,0 8.51,-3.668 8.51,-10.172 V 0.977 C 0.977,0.438 0.538,0 0,0"
             style="fill:#0a0f14;fill-opacity:1;fill-rule:nonzero;stroke:none"
             id="path70" /></g><g
           id="g72"
           transform="translate(926.9912,316.9574)"><path
             d="m 0,0 -8.071,-28.173 c -1.515,-5.284 -3.325,-7.242 -8.949,-7.242 -1.371,0 -3.082,0.195 -4.111,0.443 -0.586,0.148 -1.024,0.291 -1.024,0.782 v 1.81 c 0,0.538 0.39,0.781 0.929,0.781 h 0.148 c 1.076,-0.095 3.277,-0.291 4.349,-0.291 2.792,0 4.012,0.735 4.846,4.156 l 0.487,2.005 h -0.682 c -1.468,0 -2.739,0.343 -3.621,3.374 L -22.203,0 c -0.052,0.095 -0.052,0.243 -0.052,0.343 0,0.486 0.295,0.829 0.881,0.829 h 2.692 c 0.391,0 0.734,-0.391 0.829,-0.781 l 5.775,-21.227 c 0.243,-0.98 0.586,-1.076 0.929,-1.076 h 0.781 l 5.966,22.35 c 0.099,0.391 0.49,0.734 0.928,0.734 h 2.741 c 0.49,0 0.781,-0.343 0.781,-0.829 0,-0.1 0,-0.248 -0.048,-0.343"
             style="fill:#0a0f14;fill-opacity:1;fill-rule:nonzero;stroke:none"
             id="path74" /></g></g></g></g></svg>
