<?xml version="1.0" encoding="utf-8"?>
<!-- Generator: Adobe Illustrator 22.1.0, SVG Export Plug-In . SVG Version: 6.00 Build 0)  -->
<svg version="1.1" id="Warstwa_1" xmlns="http://www.w3.org/2000/svg" xmlns:xlink="http://www.w3.org/1999/xlink" x="0px" y="0px"
	 viewBox="0 0 1324.4 595.3" style="enable-background:new 0 0 1324.4 595.3;" xml:space="preserve">
<style type="text/css">
	.st0{fill:#575756;}
	.st1{fill:#EE7402;}
</style>
<g>
	<path class="st0" d="M1229.4,171.1c0-3.9-3.2-7.1-7.1-7.1c-2,0-3.8,0.8-5.1,2.2l-62.9,68c-1.3,1.3-2.1,3.1-2.1,5.1
		c0,3.9,3.2,7.1,7.1,7.1c2.2,0,4.2-1,5.5-2.6l62.6-67.6C1228.6,174.9,1229.4,173.1,1229.4,171.1z"/>
	<path class="st1" d="M114.4,171c0-3.9,3.2-7.1,7.1-7.1c2,0,3.8,0.8,5,2.1l0,0l63.1,68.2c0,0,0,0,0,0l0.3,0.3l0,0
		c1.1,1.2,1.7,2.9,1.7,4.6c0,3.9-3.2,7.1-7.1,7.1c-2.2,0-4.2-1-5.5-2.7l-62.2-67.2l0,0C115.4,175.1,114.4,173.2,114.4,171z"/>
	<path class="st1" d="M460.1,144.1c-3.9,0-7.1,3.2-7.1,7.1v169.2L328.3,147.4c-1.3-1.9-3.4-3.2-5.9-3.2c-3.9,0-7.1,3.2-7.1,7.1
		v191.2c0,3.9,3.2,7.1,7.1,7.1s7.1-3.2,7.1-7.1V173.2L454,346c1.2,2.1,3.5,3.5,6.1,3.5c3.9,0,7.1-3.2,7.1-7.1V151.2
		C467.2,147.3,464,144.1,460.1,144.1z"/>
	<path class="st0" d="M775.6,153.9L775.6,153.9c0.3-0.8,0.5-1.7,0.5-2.7c0-3.9-3.2-7.1-7.1-7.1c-3,0-5.5,1.8-6.6,4.4l0,0
		l-73.6,175.6L636,199.4c-1.1-2.6-3.6-4.4-6.5-4.4c-2.9,0-5.5,1.8-6.5,4.4l-52.9,124.8l-73.5-175.5c0-0.1-0.1-0.2-0.1-0.3l0,0l0,0
		c-1.1-2.4-3.6-4.2-6.4-4.2c-3.9,0-7.1,3.2-7.1,7.1c0,1.2,0.3,2.2,0.8,3.2l79.8,190.7c1.1,2.6,3.6,4.4,6.5,4.4
		c2.9,0,5.5-1.8,6.5-4.4l52.9-124.8l52.8,124.8c0,0,0,0,0,0.1l0,0l0,0c1.1,2.5,3.6,4.3,6.5,4.3c2.9,0,5.5-1.8,6.5-4.4h0L775.5,154
		C775.5,154,775.5,154,775.6,153.9L775.6,153.9z"/>
	<path class="st0" d="M1052.5,335.3h-99V151.2c0-3.9-3.2-7.1-7.1-7.1s-7.1,3.2-7.1,7.1v191.2c0,3.9,3.2,7.1,7.1,7.1h106.1
		c3.9,0,7.1-3.2,7.1-7.1S1056.4,335.3,1052.5,335.3z"/>
	<path class="st0" d="M908.3,335.3c-0.1,0-0.1,0-0.1,0l-98.7,0v-82.2h84.6c3.9,0,7.1-3.2,7.1-7.1s-3.2-7.1-7.1-7.1h-84.6v-80.6h98.8
		c3.9,0,7.1-3.2,7.1-7.1s-3.2-7.1-7.1-7.1H802.4c-3.9,0-7.1,3.2-7.1,7.1v191.2c0,3.9,3.2,7.1,7.1,7.1c0,0,0.1,0,0.1,0v0h105.9v0
		c3.9-0.1,7-3.2,7-7.1C915.3,338.5,912.2,335.3,908.3,335.3z"/>
	<path class="st0" d="M1231.4,182.2l-9.9,10.6c9.9,15,15.7,33.4,15.7,53.3c0,50.7-38,91.9-84.7,91.9s-84.7-41.2-84.7-91.9
		c0-50.7,38-91.9,84.7-91.9c18.6,0,35.8,6.5,49.8,17.6l9.7-10.4c-16.6-13.4-37.2-21.4-59.5-21.4c-54.5,0-98.9,47.6-98.9,106.1
		s44.4,106.1,98.9,106.1s98.9-47.6,98.9-106.1C1251.4,222.2,1243.9,200,1231.4,182.2z"/>
	<path class="st1" d="M112.5,182.2l9.9,10.6c-9.9,15-15.7,33.4-15.7,53.3c0,50.7,38,91.9,84.7,91.9s84.7-41.2,84.7-91.9
		c0-50.7-38-91.9-84.7-91.9c-18.6,0-35.8,6.5-49.8,17.6l-9.7-10.4C148.4,148,169,140,191.4,140c54.5,0,98.9,47.6,98.9,106.1
		s-44.4,106.1-98.9,106.1s-98.9-47.6-98.9-106.1C92.4,222.1,99.9,200,112.5,182.2z"/>
	<path class="st0" d="M181.9,395.6c-1.1,0-2.1,0.7-2.5,1.7l-19.5,46.6l-13.8-32.6c-0.4-1-1.4-1.7-2.5-1.7c-1.1,0-2.1,0.7-2.5,1.7
		l-13.8,32.6l-19.5-46.5c0,0,0-0.1,0-0.1c-0.4-1-1.4-1.6-2.5-1.6c-1.5,0-2.7,1.2-2.7,2.7c0,0.4,0.1,0.8,0.3,1.2l21.9,52.3
		c0.4,1,1.4,1.7,2.5,1.7c1.1,0,2.1-0.7,2.5-1.7l13.8-32.6l13.8,32.6c0.4,1,1.4,1.7,2.5,1.7c1.1,0,2.1-0.7,2.5-1.7l22-52.5
		c0.1-0.4,0.2-0.7,0.2-1.1C184.6,396.8,183.4,395.6,181.9,395.6z"/>
	<path class="st1" d="M437.4,448.4h-26.6v-50.1c0-1.5-1.2-2.7-2.7-2.7c-1.5,0-2.7,1.2-2.7,2.7v52.8c0,1.5,1.2,2.7,2.7,2.7h29.3
		c1.5,0,2.7-1.2,2.7-2.7C440.1,449.6,438.9,448.4,437.4,448.4z"/>
	<path class="st0" d="M236.3,401c1.5,0,2.7-1.2,2.7-2.7c0-1.5-1.2-2.7-2.7-2.7h-29.2c-1.5,0-2.7,1.2-2.7,2.7v52.8
		c0,1.2,0.8,2.3,2,2.6v0.1l0.7,0c0,0,0,0,0,0h0h29.2h0.8v-0.1c1.1-0.3,1.9-1.4,1.9-2.6c0-1.5-1.2-2.7-2.7-2.7h0l0,0l-26.5,0v-21.2
		h22.6c1.5,0,2.7-1.2,2.7-2.7c0-1.5-1.2-2.7-2.7-2.7h-22.6V401H236.3z"/>
	<path class="st1" d="M382.7,401c1.5,0,2.7-1.2,2.7-2.7c0-1.5-1.2-2.7-2.7-2.7h-29.2c-1.5,0-2.7,1.2-2.7,2.7v52.8
		c0,1.2,0.8,2.3,2,2.6v0.1l0.7,0c0,0,0,0,0,0h0h29.2h0.8v-0.1c1.1-0.3,1.9-1.4,1.9-2.6c0-1.5-1.2-2.7-2.7-2.7h0l0,0l-26.5,0v-21.2
		h22.6c1.5,0,2.7-1.2,2.7-2.7c0-1.5-1.2-2.7-2.7-2.7h-22.6V401H382.7z"/>
	<path class="st1" d="M586.7,401c1.5,0,2.7-1.2,2.7-2.7c0-1.5-1.2-2.7-2.7-2.7h-29.2c-1.5,0-2.7,1.2-2.7,2.7v52.8
		c0,1.2,0.8,2.3,2,2.6v0.1l0.7,0c0,0,0,0,0,0h0h29.2h0.8v-0.1c1.1-0.3,1.9-1.4,1.9-2.6c0-1.5-1.2-2.7-2.7-2.7h0l0,0l-26.5,0v-21.2
		h22.6c1.5,0,2.7-1.2,2.7-2.7c0-1.5-1.2-2.7-2.7-2.7h-22.6V401H586.7z"/>
	<path class="st1" d="M1114.2,401c1.5,0,2.7-1.2,2.7-2.7c0-1.5-1.2-2.7-2.7-2.7H1085c-1.5,0-2.7,1.2-2.7,2.7v52.8
		c0,1.2,0.8,2.3,2,2.6v0.1l0.7,0c0,0,0,0,0,0h0h29.2h0.8v-0.1c1.1-0.3,1.9-1.4,1.9-2.6c0-1.5-1.2-2.7-2.7-2.7h0l0,0l-26.5,0v-21.2
		h22.6c1.5,0,2.7-1.2,2.7-2.7c0-1.5-1.2-2.7-2.7-2.7h-22.6V401H1114.2z"/>
	<path class="st0" d="M784.4,395.7c-14.9,0-27.1,13-27.1,29s12.1,29,27.1,29c14.9,0,27.1-13,27.1-29S799.3,395.7,784.4,395.7z
		 M784.4,448.4c-12,0-21.8-10.6-21.8-23.7c0-13.1,9.8-23.7,21.8-23.7c12,0,21.8,10.6,21.8,23.7C806.2,437.8,796.4,448.4,784.4,448.4
		z"/>
	<path class="st1" d="M1214.5,420.3l-6-0.4c-7.6-0.7-13.5-4.9-13.5-9.7c0-5.3,7.1-9.8,15.5-9.8c6.3,0,12.1,2.6,14.5,6.4l0.4,0.7
		l0.1-0.1c0.5,0.5,1.2,0.8,1.9,0.8c1.6,0,2.8-1.3,2.8-2.8c0-0.6-0.2-1.3-0.7-1.8c-3.5-5.3-11-8.8-19-8.8c-11.7,0-21.1,6.9-21.1,15.4
		c0,7.6,7.8,14.2,18.2,15.2l7.1,0.5c8.1,1.2,14,5.8,14,10.9c0,6.1-8.3,11.2-18.2,11.2c-7.7,0-14.4-3.8-17-7.5l-0.6-0.9l-0.1,0.2
		c-0.5-0.5-1.2-0.8-1.8-0.8c-1.5,0-2.8,1.3-2.8,2.8c0,0.7,0.3,1.4,0.7,1.9l0.4,0.5c4.1,5.8,12.2,9.3,21.3,9.3
		c13.1,0,23.8-7.5,23.8-16.8C1234.3,428.6,1226,421.6,1214.5,420.3z"/>
	<path class="st1" d="M301,395.5c-0.5,0-1,0-1.6,0l-9,0c-1.5,0-2.8,1.2-2.8,2.8v52.4v0.8h0.1c0.3,0.9,1,1.6,1.9,1.9v0.1l0.8,0h8.4
		l2.5,0c7.7,0,15-3,20.4-8.5c5.4-5.4,8.4-12.7,8.4-20.5C330,408.6,317,395.5,301,395.5z M301,448h-7.8v-46.8c2,0,7.5,0,7.8,0
		c12.9,0,23.4,10.5,23.4,23.4S313.9,448,301,448z"/>
	<path class="st1" d="M460.5,395.6c-1.5,0-2.7,1.2-2.7,2.7v52.4c0,1.5,1.2,2.7,2.7,2.7s2.7-1.2,2.7-2.7v-52.4
		C463.2,396.9,462,395.6,460.5,395.6z"/>
	<path class="st1" d="M532,395.6c-1.1,0-2.1,0.7-2.5,1.7l-19.6,46.4l-19.5-46.4c-0.4-1-1.4-1.7-2.5-1.7c-1.5,0-2.7,1.2-2.7,2.7
		c0,0.4,0.1,0.7,0.2,1.1l22,52.4l0.3,0.7l0.1,0c0.5,0.6,1.3,1,2.1,1c1.1,0,2.1-0.7,2.5-1.7l22-52.3c0.2-0.3,0.3-0.7,0.3-1.2
		C534.8,396.9,533.5,395.6,532,395.6z"/>
	<path class="st1" d="M645.3,448.4L645.3,448.4c-0.1-0.1-0.2-0.2-0.2-0.2c-1.6-1.9-2.5-4.3-2.5-6.7l0,0c0-0.2,0-0.5,0-0.8
		c0-5-2.3-9.7-6.3-12.8l-0.1-0.1c-0.1-0.1-0.2-0.2-0.3-0.2c-0.2-0.2-0.5-0.4-0.7-0.6c5.1-3,8.2-8.5,8.2-14.4
		c0-9.3-7.6-16.8-16.9-16.8h-16c-1.5,0-2.7,1.2-2.7,2.7v52.5c0,1.5,1.2,2.7,2.7,2.7s2.7-1.2,2.7-2.7v-21.5h13.3
		c2,0.2,4.1,1.1,5.8,2.5c0.1,0.1,0.3,0.2,0.4,0.3c2.5,2.1,4.1,5.2,4.2,8.3c-0.2,4.2,1.2,8.2,3.8,11.4c0.3,0.3,0.5,0.5,0.7,0.8
		c0.5,0.8,1.4,1.2,2.4,1.2c1.6,0,2.9-1.3,2.9-2.9C646.8,449.8,646.2,448.9,645.3,448.4z M626.6,423.7h-13.3v-22.5h13.3
		c6.2,0,11.2,5.1,11.2,11.3C637.9,418.7,632.8,423.7,626.6,423.7z"/>
	<path class="st0" d="M742.5,395.6c-0.6,0-1.2,0.2-1.7,0.6l-0.1-0.1l-0.5,0.6L723,420.3l-17.3-23.6l-0.5-0.6l-0.1,0.1
		c-0.5-0.4-1-0.6-1.6-0.6c-1.5,0-2.7,1.2-2.7,2.7c0,0.3,0.1,0.7,0.2,1l-0.1,0.1l0.4,0.6l19,26v25c0,1.5,1.2,2.7,2.7,2.7
		s2.7-1.2,2.7-2.7v-25.3l18.8-25.7l0.4-0.6l-0.1-0.1c0.1-0.3,0.2-0.6,0.2-1C745.2,396.9,744,395.6,742.5,395.6z"/>
	<path class="st0" d="M870.2,395.6c-1.5,0-2.7,1.2-2.7,2.7v31.8c0,10-8.1,18-18.1,18c-10,0-18.1-8.1-18.1-18v-31.8
		c0-1.5-1.2-2.7-2.7-2.7c-1.5,0-2.7,1.2-2.7,2.7v31.8c0,13.1,10.6,23.7,23.6,23.7c13,0,23.6-10.6,23.6-23.7v-31.8
		C872.9,396.9,871.7,395.6,870.2,395.6z"/>
	<path class="st0" d="M933.2,448.3L933.2,448.3c-0.1-0.1-0.2-0.2-0.2-0.2c-1.6-1.9-2.5-4.3-2.5-6.7l0,0c0-0.2,0-0.5,0-0.8
		c0-5-2.3-9.7-6.3-12.8l-0.1-0.1c-0.1-0.1-0.2-0.2-0.3-0.2c-0.2-0.2-0.5-0.4-0.7-0.6c5.1-3,8.2-8.5,8.2-14.4
		c0-9.3-7.6-16.8-16.9-16.8h-16c-1.5,0-2.7,1.2-2.7,2.7v52.4c0,1.5,1.2,2.7,2.7,2.7c1.5,0,2.7-1.2,2.7-2.7v-21.5h13.2
		c2,0.2,4.1,1.1,5.8,2.5c0.1,0.1,0.3,0.2,0.4,0.3c2.5,2.1,4.1,5.2,4.2,8.3c-0.2,4.2,1.2,8.2,3.8,11.3c0.3,0.3,0.5,0.5,0.7,0.8
		c0.5,0.8,1.4,1.2,2.4,1.2c1.6,0,2.9-1.3,2.9-2.9C934.6,449.7,934,448.8,933.2,448.3z M914.5,423.6h-13.3v-22.5h13.3
		c6.2,0,11.2,5.1,11.2,11.3C925.7,418.6,920.7,423.6,914.5,423.6z"/>
	<path class="st1" d="M993.7,395.6c-1.5,0-2.7,1.2-2.7,2.7v52.5c0,1.5,1.2,2.7,2.7,2.7c1.5,0,2.7-1.2,2.7-2.7v-52.5
		C996.4,396.9,995.2,395.6,993.7,395.6z"/>
	<path class="st1" d="M1035.4,395.7c-0.5,0-1,0-1.6,0l-9,0c-1.5,0-2.8,1.3-2.8,2.8v52.7v0.8h0.1c0.3,0.9,1,1.7,1.9,1.9v0.1l0.8,0
		h8.4l2.5,0c7.8,0,15-3,20.5-8.5c5.4-5.5,8.4-12.8,8.4-20.6C1064.6,408.8,1051.5,395.7,1035.4,395.7z M1035.4,448.4h-7.8v-47.1
		c2,0,7.6,0,7.8,0c13,0,23.5,10.6,23.5,23.5S1048.4,448.4,1035.4,448.4z"/>
	<path class="st1" d="M1175,449.9l-19.9-52.5c-0.4-1.1-1.4-1.8-2.6-1.8c-1.2,0-2.2,0.7-2.6,1.9l-19.5,52.5l0,0l0,0l0,0.1l-0.3,0.7
		l0.1,0c0,0.1,0,0.1,0,0.2c0,1.5,1.2,2.7,2.7,2.7c0.9,0,1.7-0.4,2.2-1.1l0.1,0l0.3-0.7l4.8-12.9h24.7l4.8,12.7l0.3,0.7l0.1,0
		c0.5,0.8,1.4,1.3,2.3,1.3c1.5,0,2.7-1.2,2.7-2.7c0-0.1,0-0.3,0-0.4l0,0L1175,449.9z M1142.4,433.7l10.2-27.5l10.4,27.5H1142.4z"/>
</g>
</svg>
