<svg width="551" height="125" viewBox="0 0 551 125" fill="none" xmlns="http://www.w3.org/2000/svg">
<path d="M357.564 45.5177C348.273 37.2877 337.058 33.2653 324.091 33.2653C311.302 33.2653 300.086 37.2943 290.789 45.5177C281.498 53.5692 276.777 64.7763 276.777 79.1326C276.777 93.4889 281.498 104.689 290.789 112.92C300.08 120.971 311.302 125 324.091 125C337.058 125 348.273 120.971 357.564 112.92C367.034 104.689 371.755 93.4889 371.755 79.1326C371.755 64.7763 367.027 53.5692 357.564 45.5177ZM306.574 97.5113C301.674 92.7877 299.207 86.6548 299.207 79.1326C299.207 71.6039 301.654 65.4776 306.574 60.9259C311.474 56.2023 317.266 53.9264 324.084 53.9264C330.908 53.9264 336.873 56.2023 341.78 60.9259C346.852 65.4776 349.318 71.6039 349.318 79.1326C349.318 86.6614 346.871 92.7877 341.78 97.5113C336.88 102.063 330.915 104.339 324.084 104.339C317.266 104.339 311.487 102.063 306.574 97.5113Z" fill="#21262E"/>
<path d="M404.891 122.543V2.41333H382.812V122.543H404.891Z" fill="#21262E"/>
<path d="M476.163 35.7114V83.6429C476.163 95.1941 469.914 102.849 458.017 102.849C445.923 102.849 439.839 95.2007 439.839 83.6429V35.7114H417.719V87.3213C417.719 107.314 430.336 124.992 458.017 124.992H458.189C485.698 124.992 498.295 106.924 498.295 87.3213V35.7114H476.163Z" fill="#21262E"/>
<path d="M253.272 35.7114L231.192 94.5325L209.112 35.7114H185.63L220.863 122.544H241.548L276.774 35.7114H253.272Z" fill="#21262E"/>
<path d="M185.744 76.6782C185.744 64.0751 181.717 53.7478 173.828 45.5177C165.939 37.2877 155.788 33.2653 143.343 33.2653C130.554 33.2653 119.683 37.6449 110.743 46.219C101.974 54.7997 97.6031 65.6496 97.6031 79.1326C97.6031 92.6156 101.981 103.644 110.571 112.218C119.339 120.799 129.853 125 142.292 125C161.403 125 174.893 116.598 183.112 99.6152L166.647 90.1612C161.224 100.839 153.329 106.092 142.642 106.092C129.503 106.092 120.212 97.69 118.81 84.3856H185.738V76.6782H185.744ZM142.629 50.0694C155.068 50.0694 163.314 57.0689 165.41 68.2761H118.797C122.136 57.9488 131.235 50.0694 142.629 50.0694Z" fill="#21262E"/>
<path d="M97.6038 122.545L67.9788 70.7296C86.7193 63.9021 96.0102 52.0002 96.0102 34.6668C96.03 13.483 79.194 0 52.386 0H0V122.545H23.1313V72.8268H42.7645L71.1463 122.545H97.6038ZM52.386 20.3039C66.0545 20.3039 72.8921 25.7289 72.8921 36.4068C72.8921 47.0847 66.0479 52.5096 52.386 52.5096H23.1313V20.3039H52.386Z" fill="#21262E"/>
<path d="M535.725 124.992C521.514 124.992 509.988 113.474 509.988 99.257V12.2526H532.068V35.7453H551V53.6013H532.068V97.8412C532.068 102.009 535.447 105.383 539.626 105.383H551V124.992H535.725Z" fill="#21262E"/>
</svg>
