<?xml version="1.0" encoding="UTF-8" standalone="no"?>
<!-- Created with Inkscape (http://www.inkscape.org/) -->

<svg
   version="1.1"
   id="svg2"
   xml:space="preserve"
   width="733.33319"
   height="315.41467"
   viewBox="0 0 733.33319 315.41468"
   sodipodi:docname="rsystems.svg"
   inkscape:version="1.1.2 (0a00cf5339, 2022-02-04)"
   xmlns:inkscape="http://www.inkscape.org/namespaces/inkscape"
   xmlns:sodipodi="http://sodipodi.sourceforge.net/DTD/sodipodi-0.dtd"
   xmlns="http://www.w3.org/2000/svg"
   xmlns:svg="http://www.w3.org/2000/svg"><defs
     id="defs6"><clipPath
       clipPathUnits="userSpaceOnUse"
       id="clipPath16"><path
         d="M 0,258.925 H 425.457 V 0 H 0 Z"
         id="path14" /></clipPath></defs><sodipodi:namedview
     id="namedview4"
     pagecolor="#ffffff"
     bordercolor="#666666"
     borderopacity="1.0"
     inkscape:pageshadow="2"
     inkscape:pageopacity="0.0"
     inkscape:pagecheckerboard="0"
     showgrid="false"
     inkscape:zoom="2.425627"
     inkscape:cx="268.17808"
     inkscape:cy="153.15628"
     inkscape:window-width="1846"
     inkscape:window-height="1016"
     inkscape:window-x="74"
     inkscape:window-y="27"
     inkscape:window-maximized="1"
     inkscape:current-layer="g8"
     fit-margin-left="100"
     fit-margin-right="100"
     lock-margins="false"
     fit-margin-bottom="0"
     fit-margin-top="0" /><g
     id="g8"
     inkscape:groupmode="layer"
     inkscape:label="RSI Logo Blue (1)"
     transform="matrix(1.3333333,0,0,-1.3333333,83.028,330.32399)"><g
       id="g10"><g
         id="g12"
         clip-path="url(#clipPath16)"><path
           d="m 102.819,11.182 h -90.09 v 11.626 h 90.09 z M 90.651,49.237 90.648,40.602 c 0,0 0.319,-8.787 6.907,-11.929 H 17.542 c 3.403,1.409 7.358,4.617 7.358,11.919 v 8.645 z M 244.627,22.808 V 11.182 H 174.3 l -9.5,11.626 z m -30.632,26.429 6.532,-8.635 c 0,0 5.512,-8.787 16.298,-11.929 H 160.009 L 143.204,49.237 Z M 90.662,75.092 90.654,55.101 H 24.9 v 19.991 z m 103.777,0 15.121,-19.991 H 138.412 L 122.077,75.092 Z M 90.673,100.966 90.663,80.957 H 24.9 v 20.009 z m 84.192,0 15.137,-20.009 h -72.717 l -16.352,20.009 z m -19.509,25.791 15.074,-19.928 H 96.128 c -1.766,2.069 -4.509,4.969 -5.452,4.044 l -0.001,-4.044 H 24.9 v 19.928 z m 35.489,25.876 c -6.732,-9.599 -15.435,-15.992 -22.547,-20.011 H 24.9 v 20.011 h 65.776 v -4.778 c 10.927,-0.038 20.045,1.757 27.375,4.778 z M 90.676,158.496 H 24.9 v 19.991 h 65.776 z m 110.291,19.991 c -1.094,-7.669 -3.434,-14.293 -6.503,-19.991 h -66.102 c 7.161,5.538 11.156,12.669 11.982,19.991 z M 90.676,184.351 H 24.9 v 20.012 h 65.776 z m 107.652,20.012 c 2.247,-6.404 3.583,-13.225 3.214,-20.012 h -61.208 c -0.863,7.322 -4.887,14.461 -12.077,20.012 z m -18.541,25.876 c 6.346,-5.08 12.075,-11.614 16.116,-20.012 h -77.932 c -7.319,3.034 -16.408,4.864 -27.295,4.879 v -4.879 H 24.9 v 6.571 c 0,0 0.855,9.92 -6.321,13.441 z M 12.729,247.743 H 134.97 c 0,0 18.63,-1.39 36.234,-11.64 H 12.729 Z"
           style="fill:#008cc8;fill-opacity:1;fill-rule:evenodd;stroke:none"
           id="path18" /><g
           id="g20"
           transform="translate(409.1999,115.9772)"><path
             d="m 0,0 h -266.929 c -1.941,0 -3.528,-1.551 -3.528,-3.446 V -57.38 c 0,-1.897 1.587,-3.447 3.528,-3.447 H 0 c 1.941,0 3.529,1.55 3.529,3.447 V -3.446 C 3.529,-1.551 1.941,0 0,0"
             style="fill:#77787b;fill-opacity:1;fill-rule:evenodd;stroke:none"
             id="path22" /></g><g
           id="g24"
           transform="translate(386.2341,66.8786)"><path
             d="m 0,0 c -2.57,0 -4.819,0.329 -6.736,0.992 -1.923,0.66 -3.526,1.587 -4.817,2.765 -1.301,1.19 -2.278,2.6 -2.95,4.243 -0.673,1.64 -1.043,3.444 -1.1,5.405 h 6.507 c 0.113,-1.261 0.421,-2.352 0.939,-3.276 0.51,-0.936 1.163,-1.698 1.955,-2.306 0.785,-0.607 1.69,-1.053 2.708,-1.339 1.018,-0.288 2.103,-0.44 3.255,-0.44 1.094,0 2.087,0.112 2.986,0.335 0.899,0.217 1.674,0.521 2.313,0.917 0.64,0.4 1.13,0.887 1.479,1.46 0.349,0.583 0.518,1.231 0.518,1.937 0,0.735 -0.169,1.358 -0.509,1.875 -0.342,0.512 -0.892,0.974 -1.643,1.38 -0.76,0.406 -1.753,0.775 -2.982,1.109 -1.238,0.335 -2.749,0.676 -4.549,1.035 -2.055,0.456 -3.828,0.98 -5.304,1.581 -1.489,0.596 -2.709,1.308 -3.664,2.126 -0.955,0.816 -1.659,1.755 -2.118,2.827 -0.458,1.066 -0.684,2.294 -0.684,3.683 0,1.49 0.313,2.863 0.942,4.122 0.631,1.252 1.527,2.337 2.696,3.245 1.153,0.908 2.545,1.618 4.154,2.135 1.608,0.512 3.402,0.775 5.373,0.775 2.055,0 3.93,-0.278 5.627,-0.83 1.7,-0.558 3.161,-1.346 4.39,-2.381 1.229,-1.038 2.199,-2.306 2.902,-3.812 0.702,-1.5 1.075,-3.205 1.123,-5.105 H 6.369 c -0.468,4.036 -2.944,6.053 -7.412,6.053 -2.174,0 -3.839,-0.368 -4.996,-1.084 -1.149,-0.725 -1.731,-1.724 -1.731,-2.982 0,-0.514 0.129,-0.967 0.38,-1.339 0.252,-0.385 0.654,-0.735 1.213,-1.054 0.55,-0.323 1.263,-0.614 2.124,-0.877 0.874,-0.263 1.926,-0.518 3.155,-0.775 1.074,-0.214 2.174,-0.456 3.306,-0.725 1.124,-0.263 2.23,-0.583 3.314,-0.958 1.084,-0.375 2.102,-0.831 3.057,-1.363 0.952,-0.534 1.794,-1.187 2.52,-1.953 0.729,-0.756 1.295,-1.659 1.716,-2.697 0.418,-1.035 0.629,-2.247 0.629,-3.635 0,-1.634 -0.34,-3.125 -1.019,-4.479 C 11.947,5.232 11,4.066 9.797,3.094 8.584,2.12 7.146,1.364 5.474,0.816 3.799,0.273 1.97,0 0,0 m -24.071,0.559 h -6.517 V 23.271 L -38.333,0.559 h -5.63 l -7.699,22.712 V 0.559 h -6.491 v 35.463 h 8.716 l 8.317,-25.279 8.358,25.279 h 8.691 z m -42.71,0 h -27.481 v 35.463 h 26.695 v -6.093 h -19.984 v -8.015 h 18.708 v -6.05 H -87.551 V 6.658 h 20.77 z m -34.407,29.37 h -11.179 V 0.559 h -6.724 v 29.37 h -11.132 v 6.093 h 29.035 z M -149.563,0 c -2.574,0 -4.82,0.329 -6.736,0.992 -1.923,0.66 -3.526,1.587 -4.817,2.765 -1.301,1.19 -2.278,2.6 -2.95,4.243 -0.673,1.64 -1.043,3.444 -1.1,5.405 h 6.507 c 0.113,-1.261 0.418,-2.352 0.939,-3.276 0.51,-0.936 1.163,-1.698 1.955,-2.306 0.786,-0.607 1.69,-1.053 2.708,-1.339 1.018,-0.288 2.102,-0.44 3.259,-0.44 1.09,0 2.083,0.112 2.982,0.335 0.898,0.217 1.671,0.521 2.312,0.917 0.641,0.4 1.131,0.887 1.48,1.46 0.349,0.583 0.519,1.231 0.519,1.937 0,0.735 -0.17,1.358 -0.51,1.875 -0.339,0.512 -0.892,0.974 -1.643,1.38 -0.757,0.406 -1.754,0.775 -2.982,1.109 -1.238,0.335 -2.75,0.676 -4.549,1.035 -2.056,0.456 -3.827,0.98 -5.304,1.581 -1.49,0.596 -2.709,1.308 -3.664,2.126 -0.955,0.816 -1.656,1.755 -2.117,2.827 -0.459,1.066 -0.686,2.294 -0.686,3.683 0,1.49 0.315,2.863 0.943,4.122 0.632,1.252 1.53,2.337 2.693,3.245 1.159,0.908 2.548,1.618 4.157,2.135 1.608,0.512 3.399,0.775 5.373,0.775 2.054,0 3.927,-0.278 5.627,-0.83 1.7,-0.558 3.161,-1.346 4.39,-2.381 1.228,-1.038 2.199,-2.306 2.903,-3.812 0.704,-1.5 1.075,-3.205 1.125,-5.105 h -6.444 c -0.469,4.036 -2.945,6.053 -7.412,6.053 -2.175,0 -3.84,-0.368 -4.997,-1.084 -1.149,-0.725 -1.731,-1.724 -1.731,-2.982 0,-0.514 0.129,-0.967 0.38,-1.339 0.251,-0.385 0.654,-0.735 1.213,-1.054 0.55,-0.323 1.26,-0.614 2.124,-0.877 0.874,-0.263 1.926,-0.518 3.155,-0.775 1.074,-0.214 2.174,-0.456 3.305,-0.725 1.125,-0.263 2.231,-0.583 3.315,-0.958 1.084,-0.375 2.102,-0.831 3.057,-1.363 0.952,-0.534 1.791,-1.187 2.52,-1.953 0.729,-0.756 1.295,-1.659 1.716,-2.697 0.421,-1.035 0.628,-2.247 0.628,-3.635 0,-1.634 -0.339,-3.125 -1.018,-4.479 -0.679,-1.358 -1.624,-2.524 -2.828,-3.496 -1.213,-0.974 -2.651,-1.73 -4.323,-2.278 C -145.764,0.273 -147.589,0 -149.563,0 m -19.223,36.022 -14.226,-20.559 V 0.559 h -6.702 v 14.904 l -14.259,20.559 h 8.124 l 9.498,-14.363 9.443,14.363 z M -221.586,0 c -2.57,0 -4.816,0.329 -6.733,0.992 -1.925,0.66 -3.524,1.587 -4.818,2.765 -1.301,1.19 -2.28,2.6 -2.951,4.243 -0.671,1.64 -1.043,3.444 -1.099,5.405 h 6.508 c 0.112,-1.261 0.42,-2.352 0.938,-3.276 0.509,-0.936 1.164,-1.698 1.956,-2.306 0.784,-0.607 1.689,-1.053 2.709,-1.339 1.018,-0.288 2.1,-0.44 3.256,-0.44 1.092,0 2.085,0.112 2.984,0.335 0.897,0.217 1.673,0.521 2.311,0.917 0.639,0.4 1.132,0.887 1.48,1.46 0.347,0.583 0.518,1.231 0.518,1.937 0,0.735 -0.171,1.358 -0.511,1.875 -0.339,0.512 -0.889,0.974 -1.64,1.38 -0.759,0.406 -1.755,0.775 -2.983,1.109 -1.236,0.335 -2.748,0.676 -4.551,1.035 -2.054,0.456 -3.824,0.98 -5.302,1.581 -1.488,0.596 -2.709,1.308 -3.663,2.126 -0.953,0.816 -1.657,1.755 -2.117,2.827 -0.463,1.066 -0.688,2.294 -0.688,3.683 0,1.49 0.315,2.863 0.945,4.122 0.632,1.252 1.529,2.337 2.693,3.245 1.155,0.908 2.547,1.618 4.154,2.135 1.608,0.512 3.404,0.775 5.376,0.775 2.053,0 3.929,-0.278 5.626,-0.83 1.698,-0.558 3.161,-1.346 4.39,-2.381 1.228,-1.038 2.198,-2.306 2.903,-3.812 0.702,-1.5 1.075,-3.205 1.123,-5.105 h -6.443 c -0.47,4.036 -2.943,6.053 -7.414,6.053 -2.174,0 -3.84,-0.368 -4.994,-1.084 -1.148,-0.725 -1.73,-1.724 -1.73,-2.982 0,-0.514 0.129,-0.967 0.379,-1.339 0.251,-0.385 0.655,-0.735 1.213,-1.054 0.55,-0.323 1.261,-0.614 2.125,-0.877 0.874,-0.263 1.925,-0.518 3.154,-0.775 1.076,-0.214 2.173,-0.456 3.306,-0.725 1.124,-0.263 2.231,-0.583 3.314,-0.958 1.084,-0.375 2.102,-0.831 3.055,-1.363 0.954,-0.534 1.796,-1.187 2.523,-1.953 0.728,-0.756 1.293,-1.659 1.714,-2.697 0.42,-1.035 0.631,-2.247 0.631,-3.635 0,-1.634 -0.34,-3.125 -1.02,-4.479 -0.679,-1.358 -1.624,-2.524 -2.828,-3.496 -1.212,-0.974 -2.652,-1.73 -4.325,-2.278 C -217.785,0.273 -219.613,0 -221.586,0"
             style="fill:#e6e7e8;fill-opacity:1;fill-rule:nonzero;stroke:none"
             id="path26" /></g></g></g></g></svg>
