<svg xmlns="http://www.w3.org/2000/svg" viewBox="0 0 142.89551 45.85938"><title>sages_a</title><g id="Layer_2" data-name="Layer 2"><g id="Layer_1-2" data-name="Layer 1"><path d="M12.58105,16.021c-5.38964-.8545-6.78417-1.54541-6.78417-3.36084,0-2.09668,2.60937-3.67823,6.06933-3.67823,3.44922,0,5.8584,1.606,6.44531,4.29493l.02539.11816h4.86036l-.01758-.166c-.59375-5.44336-4.82227-8.69287-11.31348-8.69287-7.48242,0-10.89062,4.294-10.89062,8.28369,0,5.24512,4.13867,6.89454,10.8164,7.85645,6.77539.915,7.31348,2.33838,7.31348,4.10449,0,2.14453-2.30371,4.31543-6.708,4.31543-3.93848,0-6.95508-2.023-7.50781-5.0332l-.02246-.123H0l.02246.16895c.74024,5.76318,5.59766,9.48681,12.375,9.48681,6.79883,0,11.36719-3.64892,11.36719-9.08056C23.76465,18.28223,18.917,17.02148,12.58105,16.021Z" style="fill:#212c38"/><path d="M117.11426,20.2627a16.241,16.241,0,0,0-4.44141-11.70411,13.37981,13.37981,0,0,0-9.53027-4.02246c-7.67481,0-13.91992,6.52979-13.91992,14.55664A14.16753,14.16753,0,0,0,103.4082,33.543c6.377,0,11.13672-3.37061,13.06055-9.24707l.06445-.19678h-5.08691l-.04.08643a8.26906,8.26906,0,0,1-7.99805,4.96435c-5.44629,0-8.77539-4.36816-9.29492-8.73828h23Zm-13.97168-11.334a9.2116,9.2116,0,0,1,8.62988,7.14307H94.40527C95.38086,12.49121,98.65527,8.92871,103.14258,8.92871Z" style="fill:#212c38"/><path d="M131.71191,16.021c-5.38964-.8545-6.78418-1.54541-6.78418-3.36084,0-2.09668,2.60938-3.67823,6.06934-3.67823,3.44922,0,5.8584,1.606,6.44531,4.29493l.02539.11816h4.86035l-.01757-.166c-.59375-5.44336-4.82227-8.69287-11.31348-8.69287-7.48242,0-10.89062,4.294-10.89062,8.28369,0,5.24512,4.13867,6.89454,10.8164,7.85645,6.77539.915,7.31348,2.33838,7.31348,4.10449,0,2.14453-2.30371,4.31543-6.708,4.31543-3.93848,0-6.95508-2.023-7.50781-5.0332l-.02246-.123h-4.86817l.02246.16895c.74121,5.76318,5.59864,9.48681,12.376,9.48681,6.79883,0,11.36719-3.64892,11.36719-9.08056C142.89551,18.28223,138.04785,17.02148,131.71191,16.021Z" style="fill:#212c38"/><path d="M49.53809,5.15674V8.168a13.57531,13.57531,0,0,0-9.29688-3.66406c-7.834,0-13.9707,6.4414-13.9707,14.66406,0,8.10254,6.13672,14.44971,13.9707,14.44971a13.689,13.689,0,0,0,9.29688-3.60694v2.9668h4.67382V5.15674ZM49.376,19.168c0,5.50732-4.09766,9.98779-9.13477,9.98779-5.00683,0-9.08008-4.48047-9.08008-9.98779,0-5.62549,4.07325-10.20215,9.08008-10.20215C45.27832,8.96582,49.376,13.54248,49.376,19.168Z" style="fill:#212c38"/><circle cx="83.33887" cy="2.41797" r="2.41797" style="fill:#31c5f4"/><path d="M85.70508,17.85742l-.01465-.06494c-.65234-7.57861-6.624-13.28809-13.90527-13.28809-7.833,0-13.96973,6.44141-13.96973,14.66407,0,8.10254,6.13672,14.4497,13.96973,14.4497a13.72374,13.72374,0,0,0,9.06054-3.3916c.01563.16211.02832.33789.03907.53467V31.479a13.71256,13.71256,0,0,1-.11915,1.71778c-.78515,4.752-4.5625,8.20068-8.98046,8.20068A8.874,8.874,0,0,1,64.34473,37.084l-.04395-.06982H58.91113l.08692.208a13.89028,13.89028,0,0,0,12.78711,8.63721c7.834,0,13.97168-6.34717,13.97168-14.4502V19.16846c0-.36573-.02539-.727-.05176-1.10108Zm-4.78418,1.311c0,5.50732-4.09766,9.98779-9.13574,9.98779-5.00684,0-9.07911-4.48047-9.07911-9.98779,0-5.62549,4.07227-10.20215,9.07911-10.20215C76.82324,8.96631,80.9209,13.543,80.9209,19.16846Z" style="fill:#31c5f4"/></g></g></svg>