<?xml version="1.0" encoding="UTF-8" standalone="no"?>
<!-- Generator: Adobe Illustrator 25.1.0, SVG Export Plug-In . SVG Version: 6.00 Build 0)  -->

<svg
   xmlns:dc="http://purl.org/dc/elements/1.1/"
   xmlns:cc="http://creativecommons.org/ns#"
   xmlns:rdf="http://www.w3.org/1999/02/22-rdf-syntax-ns#"
   xmlns:svg="http://www.w3.org/2000/svg"
   xmlns="http://www.w3.org/2000/svg"
   xmlns:xlink="http://www.w3.org/1999/xlink"
   xmlns:sodipodi="http://sodipodi.sourceforge.net/DTD/sodipodi-0.dtd"
   xmlns:inkscape="http://www.inkscape.org/namespaces/inkscape"
   version="1.1"
   id="Layer_1"
   x="0px"
   y="0px"
   viewBox="0 0 364.26 95.709995"
   xml:space="preserve"
   sodipodi:docname="scalo.svg"
   width="364.26001"
   height="95.709999"
   inkscape:version="0.92.5 (2060ec1f9f, 2020-04-08)"><metadata
   id="metadata31"><rdf:RDF><cc:Work
       rdf:about=""><dc:format>image/svg+xml</dc:format><dc:type
         rdf:resource="http://purl.org/dc/dcmitype/StillImage" /><dc:title></dc:title></cc:Work></rdf:RDF></metadata><defs
   id="defs29" /><sodipodi:namedview
   pagecolor="#ffffff"
   bordercolor="#666666"
   borderopacity="1"
   objecttolerance="10"
   gridtolerance="10"
   guidetolerance="10"
   inkscape:pageopacity="0"
   inkscape:pageshadow="2"
   inkscape:window-width="1848"
   inkscape:window-height="1016"
   id="namedview27"
   showgrid="false"
   fit-margin-top="0"
   fit-margin-left="70"
   fit-margin-right="70"
   fit-margin-bottom="20"
   inkscape:zoom="1.0230254"
   inkscape:cx="182.125"
   inkscape:cy="57.865008"
   inkscape:window-x="0"
   inkscape:window-y="27"
   inkscape:window-maximized="1"
   inkscape:current-layer="Layer_1" />
<style
   type="text/css"
   id="style2">
	.st0{clip-path:url(#SVGID_2_);}
	.st1{fill-rule:evenodd;clip-rule:evenodd;}
	.st2{clip-path:url(#SVGID_4_);}
	.st3{fill:#FFFFFF;}
	.st4{fill-rule:evenodd;clip-rule:evenodd;fill:#FFFFFF;}
	.st5{clip-path:url(#SVGID_6_);}
	.st6{fill:#FDFDFD;}
	.st7{fill-rule:evenodd;clip-rule:evenodd;fill:#2BD483;}
	.st8{clip-path:url(#SVGID_8_);}
	.st9{clip-path:url(#SVGID_10_);}
	.st10{clip-path:url(#SVGID_12_);}
	.st11{clip-path:url(#SVGID_14_);}
	.st12{clip-path:url(#SVGID_16_);}
	.st13{fill:none;stroke:#000000;stroke-width:0.75;stroke-miterlimit:10;}
</style>
<g
   id="g24"
   transform="translate(12.53,-65.75)">
	<defs
   id="defs5">
		<rect
   id="SVGID_7_"
   x="-0.13"
   y="-0.25999999"
   width="339.57001"
   height="206.81" />
	</defs>
	<clipPath
   id="SVGID_2_">
		<use
   xlink:href="#SVGID_7_"
   style="overflow:visible"
   id="use7"
   x="0"
   y="0"
   width="100%"
   height="100%" />
	</clipPath>
	<g
   class="st0"
   clip-path="url(#SVGID_2_)"
   id="g22">
		<path
   d="m 158.38,133.64 h -15.39 l -2.86,7.07 h -10.5 l 16.07,-36.4 h 10.14 l 16.12,36.4 h -10.71 z m -3.02,-7.59 -4.68,-11.65 -4.68,11.65 z"
   id="path10"
   inkscape:connector-curvature="0" />
		<path
   d="m 176.16,104.31 h 10.3 v 28.24 h 17.37 v 8.16 h -27.66 v -36.4 z"
   id="path12"
   inkscape:connector-curvature="0" />
		<path
   d="m 102.31,139.02 c -3.03,-1.61 -5.42,-3.86 -7.15,-6.73 -1.73,-2.88 -2.6,-6.14 -2.6,-9.78 0,-3.64 0.87,-6.9 2.6,-9.78 1.73,-2.88 4.12,-5.12 7.15,-6.73 3.03,-1.61 6.46,-2.42 10.27,-2.42 3.33,0 6.33,0.59 9,1.77 2.67,1.18 4.89,2.88 6.66,5.1 l -6.55,5.93 c -2.36,-2.84 -5.22,-4.26 -8.58,-4.26 -1.98,0 -3.74,0.43 -5.28,1.3 -1.54,0.87 -2.74,2.09 -3.59,3.67 -0.85,1.58 -1.27,3.39 -1.27,5.43 0,2.05 0.42,3.86 1.27,5.43 0.85,1.58 2.05,2.8 3.59,3.67 1.54,0.87 3.3,1.3 5.28,1.3 3.36,0 6.22,-1.42 8.58,-4.26 l 6.55,5.93 c -1.77,2.22 -3.99,3.92 -6.66,5.1 -2.67,1.18 -5.67,1.77 -9,1.77 -3.82,-0.02 -7.24,-0.83 -10.27,-2.44 z"
   id="path14"
   inkscape:connector-curvature="0" />
		<path
   d="m 64.23,140.35 c -2.77,-0.73 -5.03,-1.7 -6.76,-2.91 l 3.36,-7.61 c 1.63,1.08 3.54,1.96 5.69,2.61 2.15,0.66 4.26,0.99 6.34,0.99 3.95,0 5.93,-0.99 5.93,-2.96 0,-1.04 -0.56,-1.81 -1.69,-2.31 -1.13,-0.5 -2.94,-1.03 -5.43,-1.59 -2.74,-0.59 -5.03,-1.22 -6.86,-1.9 -1.84,-0.68 -3.41,-1.76 -4.73,-3.25 -1.32,-1.49 -1.98,-3.5 -1.98,-6.03 0,-2.22 0.61,-4.22 1.82,-6.01 1.21,-1.79 3.02,-3.2 5.43,-4.24 2.41,-1.04 5.36,-1.56 8.87,-1.56 2.39,0 4.75,0.27 7.07,0.81 2.32,0.54 4.53,1.42 6.3,2.46 l -3.33,7.55 c -3.47,-1.87 -6.83,-2.81 -10.09,-2.81 -2.05,0 -3.54,0.3 -4.47,0.91 -0.93,0.61 -1.4,1.4 -1.4,2.37 0,0.97 0.55,1.7 1.66,2.18 1.11,0.49 2.89,0.99 5.36,1.51 2.77,0.59 5.07,1.22 6.89,1.9 1.82,0.68 3.4,1.75 4.73,3.22 1.33,1.47 2,3.48 2,6.01 0,2.18 -0.61,4.16 -1.82,5.93 -1.21,1.77 -3.03,3.18 -5.46,4.24 -2.43,1.06 -5.37,1.59 -8.84,1.59 -2.96,-0.01 -5.82,-0.38 -8.59,-1.1 z"
   id="path16"
   inkscape:connector-curvature="0" />
		<path
   d="m 224.97,132.34 c -5.43,0 -9.83,-4.4 -9.83,-9.83 0,-5.43 4.4,-9.83 9.83,-9.83 v -9.1 c -10.45,0 -18.93,8.47 -18.93,18.93 0,10.45 8.47,18.93 18.93,18.93 10.45,0 18.93,-8.47 18.93,-18.93 h -9.1 c 0,5.43 -4.4,9.83 -9.83,9.83 z"
   id="path18"
   inkscape:connector-curvature="0" />
		<path
   class="st7"
   d="m 224.97,65.75 v 27.29 c 16.28,0 29.47,13.19 29.47,29.47 h 27.29 c 0,-31.35 -25.42,-56.76 -56.76,-56.76 z"
   id="path20"
   inkscape:connector-curvature="0"
   style="clip-rule:evenodd;fill:#2bd483;fill-rule:evenodd" />
	</g>
</g>
</svg>