<?xml version="1.0" encoding="UTF-8" standalone="no"?>
<!-- Created with Inkscape (http://www.inkscape.org/) -->

<svg
   xmlns:dc="http://purl.org/dc/elements/1.1/"
   xmlns:cc="http://creativecommons.org/ns#"
   xmlns:rdf="http://www.w3.org/1999/02/22-rdf-syntax-ns#"
   xmlns:svg="http://www.w3.org/2000/svg"
   xmlns="http://www.w3.org/2000/svg"
   xmlns:sodipodi="http://sodipodi.sourceforge.net/DTD/sodipodi-0.dtd"
   xmlns:inkscape="http://www.inkscape.org/namespaces/inkscape"
   version="1.1"
   id="svg2"
   xml:space="preserve"
   width="982.67682"
   height="507.72131"
   viewBox="0 0 982.67682 507.72131"
   sodipodi:docname="sii.svg"
   inkscape:version="0.92.5 (2060ec1f9f, 2020-04-08)"><metadata
     id="metadata8"><rdf:RDF><cc:Work
         rdf:about=""><dc:format>image/svg+xml</dc:format><dc:type
           rdf:resource="http://purl.org/dc/dcmitype/StillImage" /><dc:title></dc:title></cc:Work></rdf:RDF></metadata><defs
     id="defs6"><clipPath
       clipPathUnits="userSpaceOnUse"
       id="clipPath18"><path
         d="M 4.208,11.199 H 591.217 V 391.99 H 4.208 Z"
         id="path16"
         inkscape:connector-curvature="0" /></clipPath><clipPath
       clipPathUnits="userSpaceOnUse"
       id="clipPath34"><path
         d="M 0,394.647 H 595.28 V 0 H 0 Z"
         id="path32"
         inkscape:connector-curvature="0" /></clipPath><clipPath
       clipPathUnits="userSpaceOnUse"
       id="clipPath46"><path
         d="M 4.208,11.199 H 591.217 V 391.99 H 4.208 Z"
         id="path44"
         inkscape:connector-curvature="0" /></clipPath><clipPath
       clipPathUnits="userSpaceOnUse"
       id="clipPath66"><path
         d="M 0,394.647 H 595.28 V 0 H 0 Z"
         id="path64"
         inkscape:connector-curvature="0" /></clipPath></defs><sodipodi:namedview
     pagecolor="#ffffff"
     bordercolor="#666666"
     borderopacity="1"
     objecttolerance="10"
     gridtolerance="10"
     guidetolerance="10"
     inkscape:pageopacity="0"
     inkscape:pageshadow="2"
     inkscape:window-width="1848"
     inkscape:window-height="1016"
     id="namedview4"
     showgrid="false"
     inkscape:zoom="0.43718922"
     inkscape:cx="491.24084"
     inkscape:cy="248.16602"
     inkscape:window-x="1920"
     inkscape:window-y="27"
     inkscape:window-maximized="1"
     inkscape:current-layer="g10"
     fit-margin-left="100"
     fit-margin-right="100"
     fit-margin-top="0"
     fit-margin-bottom="0" /><g
     id="g10"
     inkscape:groupmode="layer"
     inkscape:label="Logo_Sii_ (1)"
     transform="matrix(1.3333333,0,0,-1.3333333,94.387511,522.65332)"><g
       id="g12"><g
         id="g14"
         clip-path="url(#clipPath18)"><g
           id="g20"
           transform="translate(452.9453,108.4067)"><path
             d="m 0,0 -2.826,-0.656 c 11.687,33.678 54.711,157.792 54.417,158.385 -0.34,0.683 -36.254,112.862 -36.254,112.862 0,0 -18.58,19.937 -92.621,1.054 -73.51,-18.747 -136.393,-59.779 -136.393,-59.779 0,0 -5.813,-3.501 -14.908,-9.426 l -9.924,8.97 c 0,0 -20.172,-9.932 -41.588,-25.603 -13.747,-10.055 -22.452,-20.19 -24.95,-23.242 -1.83,-1.129 -2.809,-1.755 -2.809,-1.755 l -48.18,-64.165 -10.759,-80.865 30.428,25.406 -3.637,-35.308 c 0,0 -21.307,-97.907 7.765,-101.331 3.561,-0.418 7.582,-0.787 12.038,-1.054 l -0.044,-0.093 c 0,0 13.285,-0.755 22.848,-0.587 9.556,0.173 19.87,0.763 19.87,0.763 l 0.016,0.128 c 30.469,1.866 69.481,7.471 115.653,20.147 38.206,10.488 74.61,25.725 102.647,39.031 l 0.172,-0.439 c 0,0 7.494,3.026 28.505,14.293 C -9.73,-12.093 -3.639,-7.865 2.787,-4.06 9.224,-0.25 0,0 0,0"
             style="fill:#ffffff;fill-opacity:1;fill-rule:nonzero;stroke:none"
             id="path22"
             inkscape:connector-curvature="0" /></g><g
           id="g24"
           transform="translate(156.1592,29.394)"><path
             d="m 0,0 c -39.079,1.127 -69.236,13.368 -83.967,37.528 -24.609,40.359 -0.044,103.737 56.965,164.984 1.997,14.077 8.844,27.036 18.597,39.152 C -110.435,180.422 -169.429,101.573 -147.333,44.345 -132.775,6.626 -85.808,-14.388 -22.062,-17.692 -13.74,-11.768 -6.392,-5.879 0,0"
             style="fill:#1d62ac;fill-opacity:1;fill-rule:nonzero;stroke:none"
             id="path26"
             inkscape:connector-curvature="0" /></g></g></g><g
       id="g28"><g
         id="g30"
         clip-path="url(#clipPath34)"><g
           id="g36"
           transform="translate(291.3545,57.7739)"><path
             d="m 0,0 c -32.165,-12.845 -63.262,-21.442 -91.632,-25.601 -7.555,-6.96 -15.988,-13.746 -25.228,-20.307 37.038,2.05 77.903,9.132 120.286,21.406 C 2.142,-16.873 1.001,-8.653 0,0"
             style="fill:#1d62ac;fill-opacity:1;fill-rule:nonzero;stroke:none"
             id="path38"
             inkscape:connector-curvature="0" /></g></g></g><g
       id="g40"><g
         id="g42"
         clip-path="url(#clipPath46)"><g
           id="g48"
           transform="translate(395.3086,112.7466)"><path
             d="m 0,0 c -6.509,-4.336 -13.156,-8.592 -19.971,-12.748 -13.586,-8.277 -27.214,-15.81 -40.8,-22.679 -1.25,-12.573 -2.792,-23.69 -4.553,-32.766 6.407,2.255 12.848,4.609 19.29,7.098 16.878,6.517 33.15,13.574 48.737,21.067 C 1.523,-27.236 0.616,-13.763 0,0"
             style="fill:#1d62ac;fill-opacity:1;fill-rule:nonzero;stroke:none"
             id="path50"
             inkscape:connector-curvature="0" /></g><g
           id="g52"
           transform="translate(586.6045,296.7588)"><path
             d="m 0,0 c -6.27,16.227 -18.541,29.364 -35.558,39.327 11.978,-49.638 -29.784,-121.67 -104.793,-185.139 -0.072,-18.764 -0.728,-36.912 -1.847,-53.473 C -38.156,-137.774 22.324,-57.843 0,0"
             style="fill:#1d62ac;fill-opacity:1;fill-rule:nonzero;stroke:none"
             id="path54"
             inkscape:connector-curvature="0" /></g><g
           id="g56"
           transform="translate(324.8535,343.707)"><path
             d="m 0,0 c 27.148,6.692 53.477,11.208 78.331,13.573 v 1.093 L 108.21,32.532 V 15.415 c 48.597,1.257 89.808,-6.534 117.983,-23.031 -1.569,6.486 -4.038,12.595 -7.488,18.249 C 189.54,58.474 99.978,59.765 0,19.97 Z"
             style="fill:#accdeb;fill-opacity:1;fill-rule:nonzero;stroke:none"
             id="path58"
             inkscape:connector-curvature="0" /></g></g></g><g
       id="g60"><g
         id="g62"
         clip-path="url(#clipPath66)"><g
           id="g68"
           transform="translate(294.9756,350.6548)"><path
             d="m 0,0 c -18.107,-8.533 -36.381,-18.305 -54.555,-29.389 -5.518,-3.365 -10.898,-6.817 -16.205,-10.311 l 0.84,-0.717 c 6.932,2.951 13.935,5.833 21.095,8.6 16.399,6.325 32.704,11.88 48.825,16.708 z"
             style="fill:#accdeb;fill-opacity:1;fill-rule:nonzero;stroke:none"
             id="path70"
             inkscape:connector-curvature="0" /></g><g
           id="g72"
           transform="translate(158.395,161.3799)"><path
             d="M 0,0 C -24.582,26.521 -32.198,49.735 -29.244,70.526 -86.247,9.279 -110.812,-54.099 -86.208,-94.458 c 14.73,-24.16 44.893,-36.401 83.972,-37.528 C 46.456,-87.212 40.381,-43.577 0,0"
             style="fill:#79adde;fill-opacity:1;fill-rule:nonzero;stroke:none"
             id="path74"
             inkscape:connector-curvature="0" /></g><g
           id="g76"
           transform="translate(551.0469,336.0889)"><path
             d="m 0,0 c -28.176,16.496 -69.387,24.293 -117.983,23.036 v -35.25 l -29.879,-17.865 v 51.273 c -24.855,-2.364 -51.183,-6.881 -78.331,-13.579 v -19.829 l -29.878,-17.865 v 29.536 c -16.121,-4.832 -32.427,-10.383 -48.825,-16.708 -7.16,-2.762 -14.164,-5.649 -21.095,-8.601 l 9.584,-8.219 c -49.125,-28.014 -78.38,-62.849 -21.111,-122.428 47.324,-49.234 35.342,-102.138 -13.807,-147.417 28.366,4.159 59.462,12.753 91.633,25.601 -8.05,69.614 -6.943,167.468 3.621,214.811 l 29.878,17.862 c 14.997,-59.736 15.665,-152.965 9.684,-213.126 13.58,6.865 27.221,14.398 40.8,22.678 6.814,4.156 13.462,8.414 19.971,12.75 -2.682,59.47 -0.113,124.072 7.876,159.836 l 29.879,17.862 c 9.672,-38.522 13.373,-90.97 13.183,-139.497 C -29.777,-121.669 11.978,-49.638 0,0"
             style="fill:#79adde;fill-opacity:1;fill-rule:nonzero;stroke:none"
             id="path78"
             inkscape:connector-curvature="0" /></g></g></g></g></svg>