<?xml version="1.0" encoding="UTF-8" standalone="no"?>
<!-- Created with Inkscape (http://www.inkscape.org/) -->

<svg
   xmlns:dc="http://purl.org/dc/elements/1.1/"
   xmlns:cc="http://creativecommons.org/ns#"
   xmlns:rdf="http://www.w3.org/1999/02/22-rdf-syntax-ns#"
   xmlns:svg="http://www.w3.org/2000/svg"
   xmlns="http://www.w3.org/2000/svg"
   xmlns:sodipodi="http://sodipodi.sourceforge.net/DTD/sodipodi-0.dtd"
   xmlns:inkscape="http://www.inkscape.org/namespaces/inkscape"
   version="1.1"
   id="svg2"
   xml:space="preserve"
   width="377.94666"
   height="94.493469"
   viewBox="0 0 377.94666 94.493469"
   sodipodi:docname="sml.svg"
   inkscape:version="0.92.5 (2060ec1f9f, 2020-04-08)"><metadata
     id="metadata8"><rdf:RDF><cc:Work
         rdf:about=""><dc:format>image/svg+xml</dc:format><dc:type
           rdf:resource="http://purl.org/dc/dcmitype/StillImage" /><dc:title></dc:title></cc:Work></rdf:RDF></metadata><defs
     id="defs6"><clipPath
       clipPathUnits="userSpaceOnUse"
       id="clipPath30"><path
         d="M 0,70.87 H 283.46 V 0 H 0 Z"
         id="path28"
         inkscape:connector-curvature="0" /></clipPath></defs><sodipodi:namedview
     pagecolor="#ffffff"
     bordercolor="#666666"
     borderopacity="1"
     objecttolerance="10"
     gridtolerance="10"
     guidetolerance="10"
     inkscape:pageopacity="0"
     inkscape:pageshadow="2"
     inkscape:window-width="1848"
     inkscape:window-height="1016"
     id="namedview4"
     showgrid="false"
     inkscape:zoom="0.91811899"
     inkscape:cx="188.97333"
     inkscape:cy="47.246735"
     inkscape:window-x="0"
     inkscape:window-y="27"
     inkscape:window-maximized="1"
     inkscape:current-layer="g10" /><g
     id="g10"
     inkscape:groupmode="layer"
     inkscape:label="sml logo cmyk"
     transform="matrix(1.3333333,0,0,-1.3333333,0,94.493467)"><path
       d="M 0,0.002 H 283.46 V 70.868 H 0 Z"
       style="fill:#ffffff;fill-opacity:1;fill-rule:nonzero;stroke:none"
       id="path12"
       inkscape:connector-curvature="0" /><path
       d="m 38.528,26.838 h -6.88 v 22.016 h 6.88 z"
       style="fill:#417dc5;fill-opacity:1;fill-rule:nonzero;stroke:none"
       id="path14"
       inkscape:connector-curvature="0" /><path
       d="m 86.688,26.838 h -6.88 v 22.016 h 6.88 z"
       style="fill:#54bf36;fill-opacity:1;fill-rule:nonzero;stroke:none"
       id="path16"
       inkscape:connector-curvature="0" /><path
       d="m 57.792,26.838 h -6.881 v 22.016 h 6.881 z"
       style="fill:#9447a9;fill-opacity:1;fill-rule:nonzero;stroke:none"
       id="path18"
       inkscape:connector-curvature="0" /><path
       d="m 67.424,22.711 h -6.88 v 22.015 h 6.88 z"
       style="fill:#f145ab;fill-opacity:1;fill-rule:nonzero;stroke:none"
       id="path20"
       inkscape:connector-curvature="0" /><path
       d="m 77.056,26.838 h -6.88 v 22.016 h 6.88 z"
       style="fill:#b358b3;fill-opacity:1;fill-rule:nonzero;stroke:none"
       id="path22"
       inkscape:connector-curvature="0" /><g
       id="g24"><g
         id="g26"
         clip-path="url(#clipPath30)"><g
           id="g32"
           transform="translate(48.1602,45.4141)"><path
             d="m 0,0 c 0,-1.9 -1.54,-3.44 -3.44,-3.44 -1.9,0 -3.441,1.54 -3.441,3.44 0,1.899 1.541,3.439 3.441,3.439 C -1.54,3.439 0,1.899 0,0"
             style="fill:#73cade;fill-opacity:1;fill-rule:nonzero;stroke:none"
             id="path34"
             inkscape:connector-curvature="0" /></g><g
           id="g36"
           transform="translate(28.8965,30.2793)"><path
             d="m 0,0 c 0,-1.9 -1.539,-3.441 -3.44,-3.441 -1.9,0 -3.44,1.541 -3.44,3.441 0,1.898 1.54,3.439 3.44,3.439 C -1.539,3.439 0,1.898 0,0"
             style="fill:#384c9f;fill-opacity:1;fill-rule:nonzero;stroke:none"
             id="path38"
             inkscape:connector-curvature="0" /></g><g
           id="g40"
           transform="translate(96.3184,30.2793)"><path
             d="m 0,0 c 0,-1.9 -1.539,-3.441 -3.439,-3.441 -1.9,0 -3.439,1.541 -3.439,3.441 0,1.898 1.539,3.439 3.439,3.439 C -1.539,3.439 0,1.898 0,0"
             style="fill:#a6d71c;fill-opacity:1;fill-rule:nonzero;stroke:none"
             id="path42"
             inkscape:connector-curvature="0" /></g><g
           id="g44"
           transform="translate(104.1226,33.6445)"><path
             d="m 0,0 0.83,0.982 c 1.237,-1.117 2.422,-1.675 4.065,-1.675 1.592,0 2.643,0.847 2.643,2.015 V 1.355 C 7.538,2.456 6.944,3.083 4.455,3.608 1.727,4.201 0.474,5.081 0.474,7.029 v 0.034 c 0,1.863 1.644,3.235 3.895,3.235 1.728,0 2.964,-0.491 4.168,-1.456 L 7.757,7.809 C 6.657,8.706 5.555,9.096 4.334,9.096 2.795,9.096 1.813,8.248 1.813,7.182 V 7.148 C 1.813,6.03 2.422,5.403 5.03,4.844 7.672,4.27 8.892,3.303 8.892,1.492 V 1.457 C 8.892,-0.574 7.199,-1.896 4.844,-1.896 2.964,-1.896 1.423,-1.27 0,0"
             style="fill:#231f20;fill-opacity:1;fill-rule:nonzero;stroke:none"
             id="path46"
             inkscape:connector-curvature="0" /></g><g
           id="g48"
           transform="translate(127.3232,37.8115)"><path
             d="m 0,0 v 0.034 c 0,2.694 -1.965,4.895 -4.675,4.895 -2.709,0 -4.64,-2.168 -4.64,-4.862 V 0.034 c 0,-2.693 1.964,-4.894 4.674,-4.894 C -1.931,-4.86 0,-2.692 0,0 m -10.704,0 v 0.034 c 0,3.27 2.456,6.131 6.063,6.131 3.608,0 6.03,-2.828 6.03,-6.098 V 0.034 c 0,-3.268 -2.456,-6.131 -6.064,-6.131 -3.607,0 -6.029,2.828 -6.029,6.097"
             style="fill:#231f20;fill-opacity:1;fill-rule:nonzero;stroke:none"
             id="path50"
             inkscape:connector-curvature="0" /></g><g
           id="g52"
           transform="translate(132.9424,43.7734)"><path
             d="M 0,0 H 8.52 V -1.236 H 1.338 V -5.471 H 7.757 V -6.689 H 1.338 v -5.166 H 0 Z"
             style="fill:#231f20;fill-opacity:1;fill-rule:nonzero;stroke:none"
             id="path54"
             inkscape:connector-curvature="0" /></g><g
           id="g56"
           transform="translate(149.085,42.5371)"><path
             d="M 0,0 H -3.98 V 1.236 H 5.336 V 0 H 1.354 V -10.619 H 0 Z"
             style="fill:#231f20;fill-opacity:1;fill-rule:nonzero;stroke:none"
             id="path58"
             inkscape:connector-curvature="0" /></g><g
           id="g60"
           transform="translate(157.4141,43.7734)"><path
             d="M 0,0 H 1.458 L 4.845,-9.875 8.096,0.033 H 9.198 L 12.449,-9.875 15.837,0 h 1.405 L 13.008,-11.939 H 11.874 L 8.622,-2.32 5.353,-11.939 H 4.234 Z"
             style="fill:#231f20;fill-opacity:1;fill-rule:nonzero;stroke:none"
             id="path62"
             inkscape:connector-curvature="0" /></g><g
           id="g64"
           transform="translate(184.6455,36.2539)"><path
             d="M 0,0 -2.693,6.047 -5.403,0 Z M -3.303,7.604 H -2.05 L 3.354,-4.336 H 1.915 l -1.391,3.133 h -6.452 l -1.405,-3.133 h -1.373 z"
             style="fill:#231f20;fill-opacity:1;fill-rule:nonzero;stroke:none"
             id="path66"
             inkscape:connector-curvature="0" /></g><g
           id="g68"
           transform="translate(196.2227,37.7266)"><path
             d="m 0,0 c 1.777,0 3.048,0.915 3.048,2.439 v 0.034 c 0,1.457 -1.117,2.338 -3.031,2.338 H -3.642 V 0 Z m -4.979,6.047 h 5.097 c 1.456,0 2.626,-0.44 3.37,-1.186 C 4.063,4.285 4.403,3.455 4.403,2.524 V 2.49 c 0,-1.965 -1.355,-3.116 -3.218,-3.455 L 4.826,-5.809 H 3.184 l -3.439,4.608 h -3.387 v -4.608 h -1.337 z"
             style="fill:#231f20;fill-opacity:1;fill-rule:nonzero;stroke:none"
             id="path70"
             inkscape:connector-curvature="0" /></g><g
           id="g72"
           transform="translate(205.8818,43.7734)"><path
             d="M 0,0 H 8.57 V -1.221 H 1.338 v -4.047 h 6.47 v -1.218 h -6.47 v -4.151 h 7.316 v -1.218 H 0 Z"
             style="fill:#231f20;fill-opacity:1;fill-rule:nonzero;stroke:none"
             id="path74"
             inkscape:connector-curvature="0" /></g><g
           id="g76"
           transform="translate(219.5605,43.7734)"><path
             d="M 0,0 H 2.811 L 5.927,-5.014 9.045,0 h 2.81 v -11.855 h -2.59 v 7.74 L 5.927,-9.18 H 5.86 l -3.303,5.014 v -7.689 H 0 Z"
             style="fill:#231f20;fill-opacity:1;fill-rule:nonzero;stroke:none"
             id="path78"
             inkscape:connector-curvature="0" /></g><path
           d="m 235.782,43.773 h 2.608 V 31.918 h -2.608 z"
           style="fill:#231f20;fill-opacity:1;fill-rule:nonzero;stroke:none"
           id="path80"
           inkscape:connector-curvature="0" /><g
           id="g82"
           transform="translate(254.1484,43.7734)"><path
             d="m 0,0 h 2.607 v -9.484 h 4.318 v -2.371 H 0 Z"
             style="fill:#231f20;fill-opacity:1;fill-rule:nonzero;stroke:none"
             id="path84"
             inkscape:connector-curvature="0" /></g><g
           id="g86"
           transform="translate(243.2539,43.7734)"><path
             d="m 0,0 h 2.607 v -9.484 h 4.318 v -2.371 H 0 Z"
             style="fill:#231f20;fill-opacity:1;fill-rule:nonzero;stroke:none"
             id="path88"
             inkscape:connector-curvature="0" /></g></g></g></g></svg>