<?xml version="1.0" encoding="UTF-8" standalone="no"?>
<!-- Created with Inkscape (http://www.inkscape.org/) -->

<svg
   version="1.1"
   id="svg2"
   xml:space="preserve"
   width="734.29333"
   height="188.13333"
   viewBox="0 0 734.29333 188.13333"
   sodipodi:docname="starburst.svg"
   inkscape:version="1.1.2 (0a00cf5339, 2022-02-04)"
   xmlns:inkscape="http://www.inkscape.org/namespaces/inkscape"
   xmlns:sodipodi="http://sodipodi.sourceforge.net/DTD/sodipodi-0.dtd"
   xmlns="http://www.w3.org/2000/svg"
   xmlns:svg="http://www.w3.org/2000/svg"><defs
     id="defs6" /><sodipodi:namedview
     id="namedview4"
     pagecolor="#ffffff"
     bordercolor="#666666"
     borderopacity="1.0"
     inkscape:pageshadow="2"
     inkscape:pageopacity="0.0"
     inkscape:pagecheckerboard="0"
     showgrid="false"
     inkscape:zoom="1.8739105"
     inkscape:cx="366.87985"
     inkscape:cy="93.921241"
     inkscape:window-width="1920"
     inkscape:window-height="1043"
     inkscape:window-x="0"
     inkscape:window-y="0"
     inkscape:window-maximized="1"
     inkscape:current-layer="g8" /><g
     id="g8"
     inkscape:groupmode="layer"
     inkscape:label="ink_ext_XXXXXX"
     transform="matrix(1.3333333,0,0,-1.3333333,0,188.13333)"><g
       id="g10"
       transform="scale(0.1)"><path
         d="m 2114.23,687.902 c -19.21,14.45 -40.88,26.188 -64.89,35.192 -24.06,9 -47.91,17.351 -71.64,25.078 -19.21,6.402 -37.66,12.832 -55.26,19.258 -17.61,6.425 -33.34,14.613 -47.12,24.59 -13.76,9.957 -24.8,21.992 -33.16,36.148 -8.33,14.125 -12.48,32.129 -12.48,53.984 0,21.856 4.34,40.809 13,56.887 8.69,16.055 20.08,29.371 34.24,39.973 14.13,10.605 29.86,18.492 47.21,23.638 17.37,5.13 34.38,7.71 51.11,7.71 32.78,0 60.71,-6.27 83.89,-18.794 23.11,-12.554 42.06,-29.074 56.86,-49.648 l 54.92,44.336 c -16.71,22.496 -41.44,41.946 -74.22,58.346 -32.78,16.35 -72.29,24.57 -118.57,24.57 -25.06,0 -50.46,-3.55 -76.12,-10.6 -25.75,-7.08 -49.21,-18.33 -70.42,-33.74 -21.2,-15.45 -38.39,-35.053 -51.55,-58.81 -13.17,-23.782 -19.76,-52.063 -19.76,-84.84 0,-30.86 5.31,-56.867 15.91,-78.071 10.61,-21.203 24.57,-39.043 41.93,-53.496 17.35,-14.48 36.93,-26.199 58.81,-35.195 21.85,-9.008 43.98,-17.031 66.51,-24.102 21.83,-7.082 42.74,-14.132 62.64,-21.211 19.93,-7.07 37.61,-15.89 53.06,-26.496 15.38,-10.593 27.75,-23.796 37.08,-39.531 9.32,-15.75 13.99,-35.515 13.99,-59.297 0,-21.836 -4.67,-40.976 -13.99,-57.351 -9.33,-16.379 -21.21,-30.227 -35.66,-41.438 -14.48,-11.25 -30.7,-19.629 -48.68,-25.078 -18.02,-5.449 -35.66,-8.191 -53.01,-8.191 -36.01,0 -67.33,8.191 -94.01,24.57 -26.65,16.406 -47.39,36.797 -62.17,61.23 l -59.76,-44.335 c 12.2,-16.711 26.33,-31.504 42.4,-44.368 16.08,-12.851 33.41,-23.449 52.09,-31.808 18.61,-8.352 38.21,-14.59 58.76,-18.793 20.58,-4.168 41.14,-6.25 61.72,-6.25 26.98,0 53.8,3.84 80.48,11.551 26.67,7.718 50.39,19.601 71.13,35.679 20.74,16.059 37.63,36.469 50.62,61.203 12.97,24.727 19.49,54.141 19.49,88.223 0,34.063 -6.1,62.18 -18.28,84.336 -12.18,22.18 -27.89,40.48 -47.1,54.941"
         style="fill:#223142;fill-opacity:1;fill-rule:nonzero;stroke:none"
         id="path12" /><path
         d="m 2389.34,947.703 h -65.56 V 820.449 h -93.53 v -54.937 h 93.53 V 484.027 c 0,-25.058 3.66,-45.312 11.08,-60.742 7.38,-15.426 16.87,-27.625 28.45,-36.637 11.57,-8.988 24.08,-15.089 37.56,-18.296 13.53,-3.223 26.35,-4.821 38.6,-4.821 14.76,0 28.43,1.129 40.95,3.36 12.55,2.269 24.57,5.609 36.15,10.129 l -2.88,56.871 c -9.03,-4.504 -18.51,-8.047 -28.44,-10.606 -9.96,-2.57 -19.44,-3.847 -28.45,-3.847 -9.65,0 -18.65,1.113 -27,3.367 -8.35,2.246 -15.59,6.425 -21.69,12.55 -6.1,6.102 -10.75,14.59 -13.97,25.536 -3.23,10.929 -4.8,24.738 -4.8,41.437 v 263.184 h 127.23 v 54.937 h -127.23 v 127.254"
         style="fill:#223142;fill-opacity:1;fill-rule:nonzero;stroke:none"
         id="path14" /><path
         d="m 2984.06,470.52 v 197.617 c 0,27.636 -4.5,51.738 -13.47,72.297 -9.01,20.578 -21.56,37.605 -37.59,51.086 -16.08,13.503 -34.73,23.64 -55.94,30.367 -21.2,6.777 -44.03,10.136 -68.41,10.136 -38.58,0 -73.13,-6.121 -103.63,-18.324 -30.54,-12.203 -55.11,-27.633 -73.76,-46.261 l 36.64,-43.383 c 16.07,16.054 35.65,28.929 58.8,38.554 23.13,9.629 48.19,14.477 75.18,14.477 39.22,0 69.09,-9.602 89.63,-28.719 20.59,-19.14 30.89,-48.164 30.89,-87.066 v -14.363 c -41.14,0 -80.86,-1.465 -119.06,-4.368 -38.26,-2.898 -72.16,-9.343 -101.69,-19.343 -29.6,-10 -53.2,-25.149 -70.88,-45.45 -17.7,-20.324 -26.49,-47.863 -26.49,-82.687 0,-25.164 4.99,-46.426 14.94,-63.848 9.93,-17.39 22.48,-31.594 37.58,-42.57 15.11,-10.942 31.81,-18.852 50.14,-23.692 18.3,-4.82 36.15,-7.25 53.5,-7.25 36.63,0 67.95,6.61 93.98,19.758 26.01,13.184 49.32,34.879 69.88,65.082 h 1.95 c 0,-12.207 0.61,-24.734 1.92,-37.59 1.25,-12.871 2.89,-24.75 4.83,-35.679 h 58.79 c -2.6,12.847 -4.5,28.578 -5.77,47.265 -1.33,18.602 -1.96,36.602 -1.96,53.954 m -61.66,90.625 c 0,-19.93 -3.23,-38.907 -9.67,-56.883 -6.41,-17.989 -15.74,-33.899 -27.93,-47.707 -12.23,-13.828 -27.34,-24.754 -45.32,-32.782 -18.02,-8.046 -38.56,-12.062 -61.71,-12.062 -12.83,0 -25.54,1.465 -38.05,4.367 -12.55,2.871 -23.94,7.695 -34.24,14.453 -10.28,6.746 -18.47,15.567 -24.6,26.512 -6.09,10.91 -9.14,24.406 -9.14,40.461 0,21.23 7.1,38.23 21.21,51.113 14.13,12.832 32.29,22.645 54.47,29.395 22.18,6.746 46.92,11.23 74.22,13.476 27.33,2.254 54.49,3.407 81.46,3.407 h 19.3 v -33.75"
         style="fill:#223142;fill-opacity:1;fill-rule:nonzero;stroke:none"
         id="path16" /><path
         d="m 3320.3,832.027 c -32.15,0 -61.06,-8.211 -86.76,-24.57 -25.71,-16.398 -45.01,-37.766 -57.85,-64.125 h -1.92 c 0,9.652 -0.32,21.832 -0.97,36.637 -0.63,14.773 -1.6,28.281 -2.88,40.48 h -62.63 c 1.27,-15.426 2.19,-32.758 2.87,-52.058 0.65,-19.278 0.92,-35.036 0.92,-47.235 V 369.309 h 65.59 v 230.808 c 0,30.121 3.69,55.942 11.09,77.395 7.38,21.488 17.01,39.121 28.91,52.898 11.88,13.781 25.84,23.875 41.92,30.301 16.08,6.406 32.79,9.605 50.14,9.605 9,0 17.98,-0.625 26.98,-1.925 8.98,-1.297 15.42,-2.575 19.28,-3.828 l 8.7,62.64 c -7.08,1.926 -13.97,3.199 -20.77,3.848 -6.73,0.633 -14.29,0.976 -22.62,0.976"
         style="fill:#223142;fill-opacity:1;fill-rule:nonzero;stroke:none"
         id="path18" /><path
         d="m 3872.93,763.582 c -20.27,21.199 -44.71,37.906 -73.29,50.133 -28.58,12.18 -60.58,18.305 -95.91,18.305 -32.78,0 -64.59,-7.567 -95.42,-22.668 -30.83,-15.079 -55.89,-37.422 -75.19,-66.977 h -1.95 v 355.705 h -65.52 V 369.32 h 65.52 v 76.141 h 1.95 c 19.3,-28.906 44.36,-50.762 75.19,-65.539 30.83,-14.781 62.64,-22.184 95.42,-22.184 35.33,0 67.33,6.133 95.91,18.313 28.58,12.219 53.02,28.918 73.29,50.133 20.23,21.203 35.96,46.281 47.22,75.183 11.22,28.938 16.88,60.09 16.88,93.528 0,33.41 -5.66,64.558 -16.88,93.496 -11.26,28.925 -26.99,53.984 -47.22,75.191 m -16.88,-239.566 c -7.69,-22.157 -18.77,-41.438 -33.26,-57.813 -14.45,-16.406 -32.29,-29.258 -53.49,-38.586 -21.21,-9.304 -45.33,-13.961 -72.32,-13.961 -25.06,0 -48.16,4.657 -69.41,13.961 -21.21,9.328 -39.49,22.024 -54.91,38.098 -15.46,16.055 -27.47,35.168 -36.18,57.355 -8.68,22.149 -12.98,46.09 -12.98,71.825 0,25.683 4.3,49.648 12.98,71.796 8.71,22.188 20.72,41.465 36.18,57.844 15.42,16.399 33.7,29.25 54.91,38.559 21.25,9.301 44.35,13.988 69.41,13.988 26.99,0 51.11,-4.824 72.32,-14.453 21.2,-9.652 39.04,-22.664 53.49,-39.07 14.49,-16.356 25.57,-35.657 33.26,-57.817 7.69,-22.176 11.57,-45.797 11.57,-70.847 0,-25.059 -3.88,-48.7 -11.57,-70.879"
         style="fill:#223142;fill-opacity:1;fill-rule:nonzero;stroke:none"
         id="path20" /><path
         d="m 4406.59,468.598 v 351.847 h -65.56 V 589.094 c 0,-30.203 -3.85,-56.395 -11.59,-78.555 -7.72,-22.176 -17.97,-40.488 -30.83,-54.941 -12.9,-14.473 -27.49,-25.235 -43.86,-32.293 -16.38,-7.102 -33.27,-10.598 -50.63,-10.598 -23.78,0 -43.52,3.848 -59.28,11.555 -15.75,7.703 -28.28,18.465 -37.6,32.293 -9.28,13.8 -15.89,30.363 -19.74,49.648 -3.86,19.258 -5.78,40.781 -5.78,64.59 v 249.652 h -65.57 V 543.781 c 0,-55.886 14.32,-100.898 42.9,-134.953 28.59,-34.058 71.51,-51.078 128.69,-51.078 32.11,0 62.67,8.18 91.58,24.59 28.92,16.371 49.78,37.738 62.68,64.098 h 1.91 c 0,-9.649 0.34,-21.856 0.96,-36.657 0.66,-14.781 1.59,-28.281 2.9,-40.461 h 62.65 c -1.28,15.41 -2.26,32.782 -2.9,52.039 -0.62,19.278 -0.93,35.032 -0.93,47.239"
         style="fill:#223142;fill-opacity:1;fill-rule:nonzero;stroke:none"
         id="path22" /><path
         d="m 4731.64,832.027 c -32.16,0 -61.06,-8.211 -86.77,-24.57 -25.71,-16.398 -45.01,-37.766 -57.86,-64.125 h -1.9 c 0,9.652 -0.32,21.832 -0.98,36.637 -0.62,14.773 -1.6,28.281 -2.88,40.48 h -62.64 c 1.28,-15.426 2.21,-32.758 2.88,-52.058 0.65,-19.278 0.93,-35.036 0.93,-47.235 V 369.309 h 65.56 v 230.808 c 0,30.121 3.71,55.942 11.09,77.395 7.41,21.488 17.03,39.121 28.93,52.898 11.88,13.781 25.85,23.875 41.92,30.301 16.09,6.406 32.79,9.605 50.14,9.605 9,0 17.98,-0.625 26.98,-1.925 8.98,-1.297 15.43,-2.575 19.28,-3.828 l 8.7,62.64 c -7.07,1.926 -13.96,3.199 -20.76,3.848 -6.73,0.633 -14.32,0.976 -22.62,0.976"
         style="fill:#223142;fill-opacity:1;fill-rule:nonzero;stroke:none"
         id="path24" /><path
         d="m 5001.57,629.582 c -37.27,7.727 -64.59,17.188 -81.94,28.449 -17.32,11.219 -26.03,27.461 -26.03,48.672 0,12.199 2.74,22.801 8.22,31.805 5.43,9 12.64,16.402 21.69,22.18 8.98,5.773 19.25,9.949 30.83,12.546 11.58,2.532 23.11,3.852 34.68,3.852 25.06,0 47.41,-5.961 66.99,-17.84 19.6,-11.898 34.23,-27.164 43.86,-45.797 l 50.14,37.582 c -14.8,25.711 -36.98,45.637 -66.49,59.793 -29.55,14.125 -60.11,21.199 -91.62,21.199 -20.55,0 -40.46,-2.574 -59.74,-7.722 -19.26,-5.153 -36.5,-13.016 -51.54,-23.621 -15.16,-10.602 -27.17,-24.082 -36.18,-40.481 -9.02,-16.379 -13.47,-36.144 -13.47,-59.273 0,-21.207 4.15,-38.883 12.5,-53.016 8.35,-14.148 18.95,-25.867 31.8,-35.191 12.86,-9.328 26.82,-16.379 41.93,-21.231 15.11,-4.804 29.41,-8.82 42.9,-12.043 43.05,-10.273 76.02,-21.367 98.83,-33.242 22.78,-11.902 34.22,-29.715 34.22,-53.496 0,-14.805 -2.91,-27.168 -8.71,-37.129 -5.77,-9.969 -13.47,-18.164 -23.1,-24.59 -9.63,-6.425 -20.9,-10.898 -33.76,-13.476 -12.85,-2.598 -26.35,-3.848 -40.46,-3.848 -27.02,0 -51.76,6.731 -74.22,20.227 -22.52,13.504 -39.53,30.203 -51.1,50.136 l -52.09,-38.554 c 20.58,-30.235 46.91,-52.395 79.07,-66.512 32.13,-14.129 65.21,-21.231 99.27,-21.231 20.58,0 40.99,2.43 61.23,7.231 20.25,4.828 38.4,12.848 54.47,24.098 16.07,11.261 29.07,25.718 39.02,43.394 9.97,17.676 14.96,39.367 14.96,65.078 0,35.305 -12.71,63.449 -38.06,84.328 -25.41,20.879 -64.78,36.778 -118.1,47.723"
         style="fill:#223142;fill-opacity:1;fill-rule:nonzero;stroke:none"
         id="path26" /><path
         d="m 5507.24,765.504 v 54.941 H 5380 v 127.254 h -65.56 V 820.445 h -93.52 v -54.941 h 93.52 V 484.027 c 0,-25.058 3.67,-45.312 11.09,-60.722 7.38,-15.453 16.87,-27.645 28.45,-36.657 11.55,-9 24.08,-15.078 37.55,-18.308 13.53,-3.219 26.34,-4.82 38.61,-4.82 14.75,0 28.43,1.14 40.94,3.371 12.56,2.269 24.57,5.629 36.16,10.129 l -2.88,56.89 c -9.05,-4.523 -18.52,-8.078 -28.44,-10.605 -9.98,-2.602 -19.44,-3.867 -28.45,-3.867 -9.65,0 -18.65,1.113 -27,3.378 -8.36,2.254 -15.6,6.434 -21.7,12.528 -6.09,6.105 -10.76,14.621 -13.96,25.547 -3.23,10.929 -4.81,24.726 -4.81,41.437 v 263.176 h 127.24"
         style="fill:#223142;fill-opacity:1;fill-rule:nonzero;stroke:none"
         id="path28" /><path
         d="M 929.547,766.793 705.18,1410.96 c -0.254,0 -0.532,0.05 -0.789,0.05 -34.45,0 -68.067,-3.29 -101.196,-8.07 L 913.797,760.363 c 5.101,2.485 10.344,4.551 15.75,6.43"
         style="fill:#30bbc9;fill-opacity:1;fill-rule:nonzero;stroke:none"
         id="path30" /><path
         d="m 879.777,737.563 -519.82,583.367 c -32.18,-18.07 -62.668,-38.7 -91.48,-61.41 l 599.257,-534 c 3.805,4.265 7.793,8.257 12.043,12.043"
         style="fill:#30bbc9;fill-opacity:1;fill-rule:nonzero;stroke:none"
         id="path32" /><path
         d="M 844.938,691.516 92.2617,1055.34 C 73.4922,1022.6 57.5547,988.172 44.1914,952.418 L 838.512,675.766 c 1.879,5.398 3.945,10.644 6.426,15.75"
         style="fill:#30bbc9;fill-opacity:1;fill-rule:nonzero;stroke:none"
         id="path34" /><path
         d="m 829.68,627.102 c 0,2.921 0.699,5.636 0.859,8.507 L 0,683.449 C 1.18359,645.316 4.96484,607.816 11.9727,571.438 l 818.5663,47.148 c -0.16,2.871 -0.859,5.586 -0.859,8.516"
         style="fill:#30bbc9;fill-opacity:1;fill-rule:nonzero;stroke:none"
         id="path36" /><path
         d="M 838.508,578.449 110.887,325.012 c 19.465,-30.282 41.226,-58.84 64.957,-85.731 l 669.094,323.407 c -2.485,5.109 -4.551,10.351 -6.43,15.761"
         style="fill:#30bbc9;fill-opacity:1;fill-rule:nonzero;stroke:none"
         id="path38" /><path
         d="M 867.738,528.676 369.336,84.5508 c 28.695,-15.5117 58.949,-28.4102 89.875,-39.9024 l 420.57,471.9846 c -4.269,3.801 -8.238,7.765 -12.043,12.043"
         style="fill:#30bbc9;fill-opacity:1;fill-rule:nonzero;stroke:none"
         id="path40" /><path
         d="M 913.789,493.828 675.777,1.44141 c 9.563,-0.3711 18.953,-1.4531288 28.61,-1.4531288 19.023,0 37.722,1.3828088 56.394,2.8632788 L 929.543,487.406 c -5.406,1.883 -10.652,3.946 -15.754,6.422"
         style="fill:#30bbc9;fill-opacity:1;fill-rule:nonzero;stroke:none"
         id="path42" /><path
         d="m 978.203,478.578 c -2.926,0 -5.64,0.692 -8.515,0.86 L 944.543,42.832 c 22.48,8.1485 44.379,17.3594 65.717,27.6797 L 986.719,479.438 c -2.879,-0.168 -5.594,-0.86 -8.516,-0.86"
         style="fill:#223142;fill-opacity:1;fill-rule:nonzero;stroke:none"
         id="path44" /><path
         d="m 1076.63,516.645 199.26,-223.657 c 10.15,14.032 19.68,28.453 28.77,43.192 l -215.99,192.496 c -3.8,-4.27 -7.8,-8.235 -12.04,-12.031"
         style="fill:#223142;fill-opacity:1;fill-rule:nonzero;stroke:none"
         id="path46" /><path
         d="m 1125.87,635.609 c 0.16,-2.882 0.86,-5.597 0.86,-8.515 0,-2.903 -0.7,-5.637 -0.86,-8.496 l 275.71,-15.891 c 2.37,16.223 4.33,32.551 5.59,49.113 l -281.3,-16.211"
         style="fill:#223142;fill-opacity:1;fill-rule:nonzero;stroke:none"
         id="path48" /><path
         d="m 1088.66,725.523 270.68,241.188 c -7.96,19.957 -16.87,39.349 -26.54,58.329 L 1076.63,737.566 c 4.26,-3.804 8.23,-7.793 12.03,-12.043"
         style="fill:#223142;fill-opacity:1;fill-rule:nonzero;stroke:none"
         id="path50" /><path
         d="m 969.691,774.77 c 2.883,0.16 5.598,0.851 8.52,0.851 2.898,0 5.637,-0.691 8.488,-0.851 l 32.361,561.51 c -26.997,13.47 -54.908,25.29 -83.747,35.29 l 34.378,-596.8"
         style="fill:#223142;fill-opacity:1;fill-rule:nonzero;stroke:none"
         id="path52" /><path
         d="m 1026.86,487.406 116.25,-333.797 c 15.62,12.411 30.51,25.582 44.99,39.25 l -145.49,300.969 c -5.1,-2.476 -10.35,-4.539 -15.75,-6.422"
         style="fill:#223142;fill-opacity:1;fill-rule:nonzero;stroke:none"
         id="path54" /><path
         d="M 1111.47,562.688 1358.92,443.09 c 6.01,14.988 11.69,30.113 16.68,45.586 l -257.7,89.765 c -1.88,-5.41 -3.95,-10.656 -6.43,-15.753"
         style="fill:#223142;fill-opacity:1;fill-rule:nonzero;stroke:none"
         id="path56" /><path
         d="m 1117.9,675.754 288.42,100.453 c -1.81,18.258 -4.9,36.102 -8.08,53.918 L 1111.47,691.508 c 2.48,-5.11 4.55,-10.352 6.43,-15.754"
         style="fill:#223142;fill-opacity:1;fill-rule:nonzero;stroke:none"
         id="path58" /><path
         d="m 1238.49,1165.6 c -16.78,19.44 -34.69,37.81 -53.46,55.33 L 1026.86,766.793 c 5.4,-1.879 10.65,-3.969 15.75,-6.43 l 195.88,405.237"
         style="fill:#223142;fill-opacity:1;fill-rule:nonzero;stroke:none"
         id="path60" /></g></g></svg>
