<svg width="111" height="24" viewBox="0 0 111 24" fill="none" xmlns="http://www.w3.org/2000/svg">
<path d="M18.041 20.0799C19.166 20.0799 19.916 19.7682 20.321 18.8656L20.9341 17.4448L14.2666 0.446716H18.8923L23.1766 12.1115L27.4629 0.446716H32.1223L24.4029 19.9518C23.1766 23.0975 20.9998 23.9312 18.1872 24.0001C17.4671 23.9863 16.7497 23.905 16.0441 23.7572L16.6872 19.8026C17.1192 19.9814 17.5804 20.0755 18.0466 20.0799H18.041Z" fill="#FF8300"/>
<path d="M1.92 12.2032C3.13875 13.3773 5.65125 14.5514 7.74563 14.5514C9.66375 14.5514 10.5694 13.8764 10.5694 12.8094C10.5694 11.5989 9.105 11.1725 7.19438 10.7804C4.29 10.2106 0.5625 9.50114 0.5625 5.4089C0.5625 2.52712 3.03562 0.00102743 7.46625 0.00102743C9.92987 -0.0333436 12.3304 0.795576 14.2669 2.34928L12.4875 5.45097C11.4769 4.34186 9.5625 3.45266 7.5 3.45266C5.89687 3.45266 4.84875 4.05693 4.84875 5.05322C4.84875 6.12026 6.17438 6.51228 8.05875 6.90238C10.9537 7.47606 14.8256 8.25435 14.8256 12.5244C14.8256 15.6548 12.21 18.0375 7.53562 18.0375C4.605 18.0375 1.77937 17.0431 0 15.3699L1.92 12.2032Z" fill="#FF8300"/>
<path d="M43.8751 7.22359C43.8751 4.839 42.6545 4.02246 40.772 4.02246C40.022 4.03101 39.2844 4.21885 38.6186 4.5709C37.9526 4.92293 37.3769 5.42935 36.9376 6.04946V17.611H32.5107V0.427411H36.9376V2.66858C38.0232 1.35295 40.0801 0.000976562 42.8364 0.000976562C46.5339 0.000976562 48.3132 2.13506 48.3132 5.47961V17.611H43.8751V7.22359Z" fill="#FF8300"/>
<path d="M58.1535 0.000976562C61.6054 0.000976562 63.6998 1.53079 64.8154 3.09693L61.9204 5.87162C61.1179 4.66116 59.8973 4.02246 58.3579 4.02246C55.671 4.02246 53.7866 6.01313 53.7866 8.99435C53.7866 11.9756 55.6766 14.0179 58.3635 14.0179C59.0605 14.031 59.7499 13.8693 60.3711 13.5468C60.9923 13.2243 61.5263 12.7511 61.926 12.1687L64.821 14.9071C63.7054 16.5095 61.611 18.0393 58.1591 18.0393C52.9616 18.0393 49.2285 14.3028 49.2285 9.002C49.2229 3.72989 52.956 0.000976562 58.1535 0.000976562Z" fill="#FF8300"/>
<path d="M106.389 7.22359C106.389 4.839 105.169 4.02246 103.286 4.02246C102.535 4.03057 101.797 4.21818 101.131 4.57023C100.464 4.92228 99.8878 5.42893 99.4481 6.04946V17.611H95.0176V0.427411H99.4481V2.66858C100.53 1.35295 102.589 0.000976562 105.343 0.000976562C109.041 0.000976562 110.812 2.13506 110.812 5.47961V17.611H106.389V7.22359Z" fill="#FF8300"/>
<path d="M70.3964 2.77379V0.427455H65.9658V17.611H70.3964V6.17953C71.5121 4.89831 73.4996 4.04162 75.7496 4.04162H75.7627V0.0373535C73.6758 0.0373535 71.5833 1.24399 70.3964 2.77379Z" fill="#FF8300"/>
<path d="M80.5649 11.7212H76.1773L74.6436 9.01149L79.498 0.440735H89.2031L91.2994 4.14287H81.7274L79.1061 9.01149L80.5649 11.7212Z" fill="#FF8300"/>
<path d="M94.0563 9.01158L89.2037 17.5842H79.4986L77.4023 13.8802H86.9725L89.5956 9.01158L88.135 6.29999H92.5207L94.0563 9.01158Z" fill="#FF8300"/>
</svg>
