<?xml version="1.0" encoding="UTF-8" standalone="no"?>
<svg
   xmlns:dc="http://purl.org/dc/elements/1.1/"
   xmlns:cc="http://creativecommons.org/ns#"
   xmlns:rdf="http://www.w3.org/1999/02/22-rdf-syntax-ns#"
   xmlns:svg="http://www.w3.org/2000/svg"
   xmlns="http://www.w3.org/2000/svg"
   viewBox="0 0 679.30664 270.33334"
   height="270.33334"
   width="679.30664"
   xml:space="preserve"
   id="svg2"
   version="1.1"><metadata
     id="metadata8"><rdf:RDF><cc:Work
         rdf:about=""><dc:format>image/svg+xml</dc:format><dc:type
           rdf:resource="http://purl.org/dc/dcmitype/StillImage" /></cc:Work></rdf:RDF></metadata><defs
     id="defs6" /><g
     transform="matrix(1.3333333,0,0,-1.3333333,0,270.33333)"
     id="g10"><g
       transform="scale(0.1)"
       id="g12"><path
         id="path14"
         style="fill:#3db955;fill-opacity:1;fill-rule:nonzero;stroke:none"
         d="M 1790.35,1905.55 2033.96,1448.93 1925.95,1368 1607.04,1591.89 Z M 630.742,80 H 565.41 l 50.324,130.02 c 0,0.011 0,0.011 0,0.011 l 613.706,1585.729 478.92,128.03 -188.96,-323.3 c 0,-0.01 0,-0.01 -0.01,-0.01 z m -95.351,144.07 -7.68,-19.832 -28.539,-73.75 L 117.098,763.91 326.277,736.602 Z M 2362.79,1595.36 h 42.55 l -258.85,-258.54 -113.59,11.36 76.49,57.3 c 0,0 0.01,0.01 0.02,0.02 z m -452.83,-313.03 c 1.15,-0.53 2.35,-0.97 3.55,-1.39 0.76,-0.26 1.5,-0.55 2.27,-0.77 1.15,-0.32 2.33,-0.54 3.51,-0.77 0.85,-0.16 1.69,-0.35 2.55,-0.45 0.3,-0.04 0.59,-0.13 0.89,-0.16 l 234.65,-23.46 c 11.94,-1.2 23.75,3.01 32.24,11.5 l 340.63,340.22 c 11.45,11.43 14.88,28.65 8.7,43.6 -6.19,14.95 -20.79,24.71 -36.96,24.71 h -152.52 c -8.73,0 -17,-2.76 -23.98,-7.99 l -226.75,-169.9 -271.5,508.9 c -0.04,0.08 -0.09,0.14 -0.14,0.22 -0.24,0.45 -0.55,0.86 -0.81,1.3 -0.72,1.22 -1.46,2.42 -2.3,3.54 -0.09,0.12 -0.15,0.25 -0.24,0.37 -0.28,0.36 -0.62,0.66 -0.91,1.02 -0.84,1.04 -1.71,2.05 -2.65,2.99 -0.42,0.41 -0.86,0.8 -1.29,1.19 -1,0.91 -2.02,1.78 -3.1,2.58 -0.43,0.32 -0.86,0.62 -1.3,0.92 -1.15,0.79 -2.34,1.51 -3.57,2.18 -0.42,0.23 -0.85,0.46 -1.28,0.67 -1.28,0.63 -2.59,1.18 -3.94,1.67 -0.43,0.16 -0.86,0.34 -1.3,0.48 -1.35,0.44 -2.72,0.79 -4.12,1.08 -0.48,0.1 -0.95,0.24 -1.43,0.32 -1.36,0.24 -2.73,0.37 -4.12,0.46 -0.54,0.04 -1.06,0.12 -1.6,0.14 -0.14,0 -0.28,0.03 -0.42,0.04 -1.57,0.03 -3.12,-0.08 -4.65,-0.23 -0.2,-0.02 -0.4,0 -0.6,-0.02 -1.95,-0.22 -3.86,-0.59 -5.72,-1.08 -0.05,-0.01 -0.09,-0.01 -0.13,-0.03 L 1189.14,1867.8 c -12.4,-3.32 -22.33,-12.24 -26.97,-24.21 L 577.449,332.75 391.559,788.359 C 386.113,801.711 374,811.051 359.703,812.91 L 45.1563,853.98 C 29.9766,855.961 14.8711,849.012 6.49609,836.199 -1.87891,823.391 -2.17969,806.762 5.72656,793.648 L 472.789,19.3398 c 0.176,-0.289 0.399,-0.539 0.582,-0.8281 0.238,-0.3711 0.426,-0.7617 0.672,-1.1211 0.375,-0.5508 0.809,-1.0195 1.203,-1.539 0.434,-0.5821 0.856,-1.1524 1.317,-1.7032 0.722,-0.8476 1.492,-1.6367 2.277,-2.4179 0.453,-0.461 0.883,-0.9414 1.355,-1.3711 1.071,-0.96877 2.196,-1.8594 3.36,-2.69924 0.234,-0.17188 0.445,-0.37891 0.683,-0.53907 1.414,-0.98046 2.891,-1.85937 4.414,-2.64062 0.496,-0.26172 1.024,-0.46094 1.532,-0.69922 1.054,-0.49219 2.113,-0.96094 3.207,-1.35937 0.648,-0.23047 1.316,-0.42188 1.98,-0.6211 0.992,-0.30078 1.992,-0.58984 3.012,-0.812499 0.722,-0.160156 1.453,-0.277343 2.187,-0.398437 1.004,-0.167969 2.008,-0.289063 3.028,-0.378906 0.746,-0.070313 1.492,-0.1210942 2.246,-0.1406255 C 506.242,0.0585938 506.637,0 507.039,0 h 146.656 c 14.16,0 27.387,7.58984 34.535,19.8086 l 878.3,1502.7814 337.2,-236.73 c 0.25,-0.18 0.52,-0.29 0.77,-0.46 1.13,-0.75 2.3,-1.42 3.5,-2.06 0.65,-0.34 1.29,-0.7 1.96,-1.01" /><path
         id="path16"
         style="fill:#3db955;fill-opacity:1;fill-rule:nonzero;stroke:none"
         d="m 1208.41,96.3711 h 120.06 V 667.059 H 1208.41 V 96.3711" /><path
         id="path18"
         style="fill:#3db955;fill-opacity:1;fill-rule:nonzero;stroke:none"
         d="M 1687.96,409.012 H 1545.6 v 161.379 h 142.36 c 37.73,0 61.74,-16.391 61.74,-81.09 0,-69.379 -20.58,-80.289 -61.74,-80.289 z m 182.66,80.289 c 0,136.437 -72.89,177.758 -171.52,177.758 H 1424.68 V 96.3711 h 120.07 V 323.238 l 105.48,-10.906 103.76,-215.9609 h 135.5 l -119.2,224.5269 c 35.16,10.133 100.33,27.293 100.33,168.403" /><path
         id="path20"
         style="fill:#3db955;fill-opacity:1;fill-rule:nonzero;stroke:none"
         d="m 1936.89,566.48 h 169.79 V 96.3711 h 120.06 V 566.48 h 174.09 V 667.059 H 1936.89 V 566.48" /><path
         id="path22"
         style="fill:#3db955;fill-opacity:1;fill-rule:nonzero;stroke:none"
         d="m 2835.15,345.859 c 0,-126.308 -36.87,-152.82 -116.63,-152.82 -90.04,0 -121.77,22.609 -121.77,152.82 v 321.2 h -120.07 v -321.2 c 0,-259.6207 125.22,-253.3902 241.84,-253.3902 103.78,0 237.56,1.5703 237.56,253.3902 v 321.2 h -120.93 v -321.2" /><path
         id="path24"
         style="fill:#3db955;fill-opacity:1;fill-rule:nonzero;stroke:none"
         d="m 3324.7,433.172 h -99.47 c -48.02,0 -66.9,9.348 -66.9,54.578 v 28.07 c 0,53.012 30.02,56.121 82.33,55.34 30.88,0 155.22,-3.121 210.1,-7.789 v 85.758 c -49.72,13.262 -152.64,24.16 -242.69,22.609 -96.04,-1.558 -169.8,-34.297 -169.8,-147.347 v -49.129 c 0,-49.883 10.3,-151.242 162.08,-151.242 h 96.05 c 46.32,0 56.6,-21.04 56.6,-53.79 v -30.398 c 0,-43.672 -41.15,-49.133 -77.18,-49.133 -79.76,0 -184.37,5.461 -218.68,8.582 V 113.52 c 65.17,-17.1489 135.5,-23.3794 242.7,-23.3794 84.92,0 173.23,24.1484 173.23,153.5784 v 38.203 c 0,63.16 -24.86,151.25 -148.37,151.25" /><path
         id="path26"
         style="fill:#3db955;fill-opacity:1;fill-rule:nonzero;stroke:none"
         d="M 3688.58,235.531 V 665.102 H 3568.51 V 205.121 c 0,-87.32 62.61,-110.7108 130.38,-110.7108 H 3957 V 194.98 h -215.26 c -24.87,0 -53.16,-0.781 -53.16,40.551" /><path
         id="path28"
         style="fill:#3db955;fill-opacity:1;fill-rule:nonzero;stroke:none"
         d="m 4229.33,317.371 75.47,204.27 70.32,-204.27 z m 6.01,347.731 -211.83,-570.6918 h 128.63 l 45.45,126.3008 h 205.82 L 4448,94.4102 h 127.78 L 4371.67,665.102 h -136.33" /><path
         id="path30"
         style="fill:#3db955;fill-opacity:1;fill-rule:nonzero;stroke:none"
         d="m 4905.32,191.082 h -136.36 v 155.93 h 136.36 c 50.58,0 69.46,-38.203 69.46,-80.301 0,-60.031 -33.46,-75.629 -69.46,-75.629 z m -136.36,377.34 h 131.21 c 30.88,0 66.03,-11.692 66.03,-64.703 0,-40.539 -22.3,-64.719 -66.03,-64.719 h -131.21 z m 229.83,-177.75 c 60.89,10.129 85.76,69.387 85.76,121.617 0,82.641 -47.16,152.813 -176.68,152.813 H 4648.89 V 94.4102 h 260.71 c 132.06,0 185.24,61.5778 185.24,167.6098 0,72.511 -43.74,120.082 -96.05,128.652" /></g></g></svg>