<?xml version="1.0" encoding="UTF-8"?>
<svg xmlns="http://www.w3.org/2000/svg" version="1.1" viewBox="0 0 5200 1600">
  <!-- Generator: Adobe Illustrator 29.4.0, SVG Export Plug-In . SVG Version: 2.1.0 Build 152)  -->
  <defs>
    <style>
      .st0 {
        fill: none;
      }

      .st1 {
        fill: #898989;
      }

      .st2 {
        fill: #ef151f;
      }
    </style>
  </defs>
  <g id="Warstwa_2">
    <rect class="st0" width="5200" height="1600"/>
  </g>
  <g id="Warstwa_1">
    <path class="st1" d="M2120,1037.1h92.9v-410.7h-92.9v410.7ZM1929.3,633c-25.2-12.3-53.6-18.5-85.1-18.5-75.9,0-130.3,24.1-163.2,72.4l63.7,57.6c10.7-14.4,23.6-24.8,38.8-31.2,15.2-6.4,34.3-9.6,57.3-9.6s51,6.7,64.3,20.2c13.3,13.4,19.9,30,19.9,49.7-11.8-.8-22.3-1.2-31.7-1.2h-5.8c-8.2,0-18.2.3-30,.8-14.8.6-28,1.5-39.7,2.9-11.7,1.4-24.7,3.6-39.1,6.8-14.4,3.1-27.1,6.9-38,11.3-11,4.4-21.9,10.2-32.9,17.4-11,7.2-20,15.4-27.1,24.6-7.1,9.1-12.9,20.1-17.3,32.9-4.4,12.8-6.6,26.9-6.6,42.2,0,38,14.5,70.5,43.6,97.5,29,27,64.5,40.4,106.5,40.4s47.9-3.6,68.9-10.6c21-7.1,37.3-16.5,49.1-28.3v27h89.2v-252.4c0-36.2-7.9-67.4-23.6-93.7-15.8-26.3-36.2-45.6-61.5-58ZM1925.2,894.2c0,16-13.2,31.5-39.5,46.6-26.3,15.1-50.3,22.7-71.9,22.7s-39.7-5.2-50.8-15.7c-11.1-10.4-16.6-23.2-16.6-38.4s1.5-14.1,4.5-20c3-5.9,7.7-10.8,14.2-14.6,6.4-3.9,12.8-7.2,19.1-10.1,6.3-2.9,15-5.1,26.1-6.6,11.1-1.5,20.3-2.7,27.5-3.7,7.3-1,17.5-1.4,30.6-1.4h28.8c6,0,15.3.3,28,.8v40.4ZM2167.3,557.3c15.9,0,30-6.1,42.3-18.3,12.3-12.2,18.5-26.4,18.5-42.5s-6.1-29.9-18.3-42.1c-12.2-12.2-26.4-18.3-42.5-18.3s-31.2,6-43.6,18.1c-12.3,12.1-18.5,26.2-18.5,42.3s6.2,30.4,18.5,42.5c12.3,12.2,26.9,18.3,43.6,18.3Z"/>
    <path class="st2" d="M3180.3,709.6c-11.1-18.5-24.6-34.7-40.7-48.5-16-13.8-35.3-24.8-57.9-32.9-22.6-8.1-47.3-12.1-74.1-12.1s-62.8,6.2-89.5,18.5c-26.7,12.3-48.4,28.8-65,49.3-16.6,20.6-29.3,43.6-38.1,69.1-8.8,25.5-13.2,52.2-13.2,80.2s2.7,43.3,8.2,64.1c5.5,20.8,13.8,40.5,25.1,59,11.2,18.5,24.8,34.7,40.7,48.7,15.9,14,35.2,25.1,57.8,33.3,22.6,8.2,47.3,12.3,73.9,12.3s51.6-4.1,74.3-12.3c22.7-8.2,42-19.3,57.9-33.3,15.9-14,29.4-30.3,40.5-48.9,11.1-18.6,19.3-38.3,24.6-59,5.3-20.7,8-42,8-63.9s-2.7-43.7-8-64.5c-5.3-20.8-13.6-40.5-24.6-59ZM3090.5,922.8c-19.7,24.7-47.3,37-82.9,37s-63.3-12.3-83.1-37c-19.8-24.7-29.7-54-29.7-88s4.2-42.4,12.5-61.5c8.3-19,21.3-34.9,38.8-47.5,17.5-12.6,38-18.9,61.6-18.9s44,6.3,61.5,18.9c17.5,12.6,30.4,28.4,38.6,47.3,8.2,18.9,12.3,39.5,12.3,61.7,0,34-9.9,63.3-29.5,88ZM2692.6,670.4c-19.9-18.1-42.2-32.2-67.1-42.4-24.8-10.1-50.1-15.2-75.9-15.2-37.5,0-74.4,12.9-110.8,38.6v-25.1h-94.5v589.1h94.5v-203.3c38,24.6,75,36.8,110.8,36.8s50.3-5.5,75.3-16.4c25-11,47.3-25.9,67.1-44.8,19.7-18.9,35.8-42.2,48.1-69.8,12.3-27.7,18.5-56.9,18.5-87.9s-6-62.9-18.1-90.7c-12.1-27.8-28-50.8-47.9-68.9ZM2630,922.7c-22.7,23.6-49.5,35.4-80.4,35.4s-60.3-11-79.8-32.9c-19.6-22-29.3-53.7-29.3-95.1s10.3-70.1,31-92.6c20.7-22.5,46.7-33.8,78.2-33.8s60.5,11.3,82.1,33.8c21.6,22.5,32.4,53.4,32.4,92.6s-11.4,69-34.1,92.6ZM4179.8,654.1c-15.2-13.3-32.6-23.2-52.2-29.8-19.6-6.6-41-9.9-64.3-9.9s-32.6,2.7-49.4,8.2c-16.8,5.5-31.1,12.9-42.9,22.2v-20.6h-92.9v412.7h92.9v-249.1c0-27.1,7.6-47.4,23-60.8,15.3-13.4,36.8-20.1,64.4-20.1s41.2,6.9,55.6,20.8c14.3,13.8,21.5,33.4,21.5,58.6v250.8h92.9v-250.8c0-29.9-4.3-56-12.9-78.5-8.6-22.5-20.5-40.4-35.7-53.6ZM4606.4,449.2v202.2c-36.5-23.6-73.6-35.4-111.4-35.4s-50.3,5.5-75.2,16.4c-24.9,11-47.3,25.8-67,44.6-19.7,18.8-35.8,42-48.1,69.7-12.3,27.7-18.5,57-18.5,88s3.9,51.1,11.7,74.4c7.8,23.3,18.5,43.5,32.1,60.6,13.6,17.1,29.3,32,47.1,44.6,17.8,12.6,36.8,22.1,56.9,28.4,20.1,6.3,40.5,9.5,61,9.5,39.7,0,76.9-12.9,111.4-38.6v25.1h94.5V449.2h-94.5ZM4573.5,927.5c-20.8,22.6-47,33.9-78.5,33.9s-60.5-11.2-82-33.7c-21.5-22.5-32.3-53.4-32.3-92.9s11.3-68.9,33.9-92.5c22.6-23.6,49.4-35.4,80.4-35.4s60.4,11,80.2,33.1c19.7,22.1,29.6,53.6,29.6,94.8s-10.4,70.1-31.2,92.7ZM3380.4,1005c-1-4.4-2.5-11.5-4.5-21.4-2.1-9.9-3.6-18.4-4.7-25.7-1.1-7.3-2.1-15.6-3.1-24.9-1-9.3-1.4-17.8-1.4-25.5v-460h-94.6v429.6c0,68.2,7.9,121.5,23.8,159.9h92.5l-3.3-12.7c-2.2-8.5-3.8-14.9-4.7-19.3ZM3714.9,633c-25.2-12.3-53.6-18.5-85.1-18.5-75.9,0-130.3,24.1-163.2,72.4l63.7,57.6c10.7-14.4,23.6-24.8,38.8-31.2,15.2-6.4,34.3-9.6,57.3-9.6s51,6.7,64.3,20.2c13.3,13.4,19.9,30,19.9,49.7-11.8-.8-22.3-1.2-31.7-1.2h-5.8c-8.2,0-18.2.3-30,.8-14.8.6-28,1.5-39.7,2.9-11.7,1.4-24.7,3.6-39.1,6.8-14.4,3.1-27.1,6.9-38,11.3-11,4.4-21.9,10.2-32.9,17.4-11,7.2-20,15.4-27.1,24.6-7.1,9.1-12.9,20.1-17.3,32.9-4.4,12.8-6.6,26.9-6.6,42.2,0,38,14.5,70.5,43.6,97.5,29,27,64.5,40.4,106.5,40.4s47.9-3.6,68.9-10.6c21-7.1,37.3-16.5,49.1-28.3v27h89.2v-252.4c0-36.2-7.9-67.4-23.6-93.7-15.8-26.3-36.2-45.6-61.5-58ZM3710.8,894.2c0,16-13.2,31.5-39.5,46.6-26.3,15.1-50.3,22.7-71.9,22.7s-39.7-5.2-50.8-15.7c-11.1-10.4-16.6-23.2-16.6-38.4s1.5-14.1,4.5-20c3-5.9,7.7-10.8,14.2-14.6,6.4-3.9,12.8-7.2,19.1-10.1,6.3-2.9,15-5.1,26.1-6.6,11.1-1.5,20.3-2.7,27.5-3.7,7.3-1,17.5-1.4,30.6-1.4h28.8c6,0,15.3.3,28,.8v40.4Z"/>
    <path class="st2" d="M728,385l-229.8,728.9h204.6l157-497.9,157,497.9h204.6l-229.8-728.9h-263.5ZM1301.1,385h-204.6l229.8,728.9h204.6l-229.8-728.9Z"/>
  </g>
</svg>