<?xml version="1.0" encoding="utf-8"?>
<svg xmlns="http://www.w3.org/2000/svg" id="Layer_1" viewBox="113.86 57.65 701.3 166.25">
  <defs>
    <style>
      .cls-1 {
        fill: #424143;
      }

      .cls-2 {
        fill: #0590b5;
      }
    </style>
  </defs>
  <g>
    <path class="cls-2" d="M113.88,187.2h32.67s34.13-86.16,34.13-86.16l21.35,52.84,16.57-41.7-15.76-38.9s-4.79-15.63-21.11-15.63c-16.78,0-21.49,13.43-21.49,13.43l-46.38,116.1h0Z"/>
    <polygon class="cls-2" points="232.73 113.94 265.92 113.94 222.22 223.9 189.05 223.87 232.73 113.94 232.73 113.94"/>
  </g>
  <g>
    <path class="cls-1" d="M314.74,114.03h-22.45c-.82,0-1.22.44-1.22,1.33v70.14c0,.89.4,1.33,1.22,1.33h22.45c11.56,0,20.14-2.85,25.73-8.56,5.6-5.71,8.39-14.23,8.39-25.57v-6.67c0-10.67-2.82-18.67-8.45-24.01-5.63-5.33-14.19-8-25.67-8ZM335.53,152.83c0,7.56-1.74,13.21-5.22,16.95-3.48,3.74-8.97,5.61-16.45,5.61h-9.45s0-49.91,0-49.91h9.45c7.48,0,12.97,1.69,16.45,5.06,3.48,3.37,5.22,8.5,5.22,15.39v6.89Z"/>
    <path class="cls-1" d="M393.66,115.03c-.22-.67-.74-1-1.55-1h-14.23c-.74,0-1.22.33-1.45,1l-24.01,70.36c-.22.96.15,1.45,1.11,1.45h11.45c.81,0,1.33-.37,1.56-1.11l4.32-14.12h28.23s4.46,14.23,4.46,14.23c.22.67.71,1,1.45,1h11.78c.96,0,1.3-.48,1-1.45l-24.12-70.36ZM374.19,160.72l6.36-20.79c.74-2.37,1.46-4.76,2.17-7.17.7-2.41,1.39-4.8,2.06-7.17h.22c.66,2.44,1.35,4.87,2.06,7.28.7,2.41,1.42,4.83,2.17,7.28l6.45,20.56h-21.48Z"/>
    <path class="cls-1" d="M469.13,124.48v-9.11c0-.89-.45-1.33-1.34-1.33h-51.69c-.89,0-1.33.44-1.33,1.33v9.11c0,.89.44,1.33,1.33,1.33h19.12s0,59.69,0,59.69c0,.89.44,1.33,1.33,1.33h10.78c.89,0,1.34-.44,1.34-1.33v-59.69s19.12,0,19.12,0c.89,0,1.34-.44,1.34-1.33Z"/>
    <path class="cls-1" d="M507.26,115.04c-.22-.67-.74-1-1.55-1h-14.23c-.74,0-1.22.33-1.45,1l-24.01,70.36c-.22.96.15,1.45,1.11,1.45h11.45c.81,0,1.33-.37,1.56-1.11l4.32-14.12h28.23s4.46,14.23,4.46,14.23c.22.67.71,1,1.45,1h11.78c.96,0,1.3-.48,1-1.45l-24.12-70.36ZM487.78,160.72l6.36-20.79c.74-2.37,1.46-4.76,2.17-7.17.7-2.41,1.39-4.8,2.06-7.17h.22c.66,2.44,1.35,4.87,2.06,7.28.7,2.41,1.42,4.83,2.17,7.28l6.45,20.56h-21.48Z"/>
    <path class="cls-1" d="M582.17,175.06h-29.23s0-59.69,0-59.69c0-.89-.41-1.33-1.22-1.33h-10.89c-.82,0-1.22.44-1.22,1.33v70.14c0,.89.4,1.33,1.22,1.33h41.35c.89,0,1.33-.44,1.33-1.33v-9.11c0-.89-.44-1.33-1.33-1.33Z"/>
    <path class="cls-1" d="M605.74,114.04h-10.78c-.82,0-1.22.44-1.22,1.33v70.14c0,.89.4,1.33,1.22,1.33h10.78c.89,0,1.33-.44,1.33-1.33v-70.14c0-.89-.44-1.33-1.33-1.33Z"/>
    <path class="cls-1" d="M680.1,114.04h-10.45c-.81,0-1.22.44-1.22,1.33v35.12c0,1.93.02,4.08.06,6.45.03,2.37.09,4.72.17,7.06.07,2.33.18,4.5.33,6.5h-.33c-.67-1.78-1.45-3.71-2.33-5.78-.89-2.07-1.87-4.26-2.95-6.56-1.08-2.29-2.24-4.67-3.5-7.11l-17.89-36.13c-.3-.59-.82-.89-1.56-.89h-15.78c-.82,0-1.22.44-1.22,1.33v70.14c0,.89.4,1.33,1.22,1.33h10.45c.89,0,1.33-.44,1.33-1.33v-33.57c0-2.37,0-4.74,0-7.11,0-2.37-.04-4.74-.11-7.11-.07-2.37-.15-4.7-.22-7h.33c.89,2.08,1.83,4.26,2.84,6.56,1,2.3,2.04,4.61,3.11,6.95,1.07,2.33,2.17,4.61,3.28,6.83l17.34,34.9c.29.59.81.89,1.55.89h15.56c.89,0,1.34-.44,1.34-1.33v-70.14c0-.89-.44-1.33-1.33-1.33Z"/>
    <path class="cls-1" d="M729.67,143.6l24.45-28.01c.37-.44.46-.81.28-1.11-.19-.3-.54-.44-1.06-.44h-13.45c-.67,0-1.19.22-1.56.66l-18.01,21.01c-1.63,2-3.22,4-4.78,6-1.55,2-3.07,4-4.56,6h-.22c.15-2.22.24-4.45.28-6.67.03-2.22.05-4.41.05-6.56v-19.12c0-.89-.44-1.33-1.33-1.33h-10.78c-.82,0-1.22.44-1.22,1.33v70.14c0,.89.4,1.33,1.22,1.33h10.78c.89,0,1.33-.44,1.33-1.33v-21.01s9.34-10.56,9.34-10.56l20.23,32.01c.37.59.89.89,1.55.89h13.34c.52,0,.85-.15,1-.44.15-.3.07-.67-.22-1.11l-26.68-41.68Z"/>
    <path class="cls-1" d="M813.87,159.5c-.93-2.37-2.44-4.46-4.56-6.28-2.11-1.81-4.98-3.46-8.61-4.95l-15.89-6.78c-2.22-.96-3.98-1.89-5.28-2.78-1.3-.89-2.21-1.87-2.72-2.95-.52-1.07-.78-2.31-.78-3.72,0-2.67.96-4.67,2.89-6,1.93-1.33,4.78-2,8.56-2,4.3,0,7.61.87,9.95,2.61,2.33,1.74,3.39,4.09,3.17,7.06-.07.74,0,1.26.22,1.56.22.3.56.44,1,.44h10.56c.74,0,1.19-.66,1.33-2,.45-4.59-.33-8.43-2.33-11.5-2-3.07-5.02-5.41-9.06-7-4.04-1.59-8.95-2.39-14.73-2.39-8.23,0-14.42,1.67-18.56,5-4.15,3.33-6.26,8.15-6.34,14.45,0,3.04.45,5.74,1.34,8.12.89,2.37,2.41,4.47,4.55,6.28,2.15,1.82,5,3.5,8.56,5.06l16.12,6.89c2.15.89,3.85,1.76,5.11,2.61,1.26.85,2.15,1.82,2.67,2.89s.78,2.31.78,3.72c0,3.04-1.09,5.28-3.28,6.73-2.19,1.45-5.54,2.17-10.06,2.17-4.59,0-8-.84-10.23-2.5-2.22-1.67-3.33-4.32-3.33-7.95.07-1.11-.37-1.67-1.33-1.67h-10.45c-.89,0-1.41.63-1.56,1.89-.52,6.82,1.37,12.13,5.67,15.95,4.3,3.82,11.15,5.72,20.56,5.72,9.48,0,16.41-1.76,20.78-5.28,4.37-3.52,6.56-8.5,6.56-14.95.07-3.26-.35-6.08-1.28-8.45Z"/>
  </g>
</svg>