<svg xmlns="http://www.w3.org/2000/svg" viewBox="0 0 1177.31 213.55"><defs><style>.cls-1,.cls-2{fill-rule:evenodd;}.cls-2{fill:#ed0b1a;}</style></defs><g id="Warstwa_2" data-name="Warstwa 2"><g id="Layer_1" data-name="Layer 1"><path class="cls-2" d="M1153.39,6.67V57.92c-8.54-5.55-17.93-9-28.18-9-25.63,0-53,23.06-53,55.52,0,34.16,26.91,55.09,53,55.09,10.25,0,19.64-3.42,28.18-9.82v6.4h23.92V6.67Zm-28.18,129.84c-16.23,0-29-11.53-29-32,0-20.07,14.09-32.46,29-32.46,16.65,0,27.76,11.1,27.76,32.46C1153,125,1140.58,136.51,1125.21,136.51Z"/><path class="cls-2" d="M1014.67,48.94c23.06,0,41.86,12.39,41.86,43.56v63.64H1033V92.5c0-13.24-8.54-20.07-19.65-20.07-13.67,0-22.21,6.41-22.21,20.5v63.21H967.69V51.5h23.49v5.13c6-4.7,15.38-7.69,23.49-7.69"/><path class="cls-2" d="M903.87,48.94c-9.39,0-29.47.86-41.42,18.36l16.22,14.53c5.56-7.26,12.82-10.25,24.35-10.25,16.23,0,21.35,9,21.35,17.51-21.35-.86-67.91-1.28-67.91,35,0,19.22,16.66,35,38,35,12.81,0,23.91-3.84,29.89-9.82v6.83H947V92.08C947,63.46,927.36,48.94,903.87,48.94Zm20.5,70.9c0,8.54-17.93,17.51-28.18,17.51-12.39,0-17.09-6.84-17.09-13.67,0-15.37,27.76-14.52,45.27-14.09Z"/><path class="cls-2" d="M816.42,115.58V6.67h23.92v116.6c0,12.39,4.27,27.76,5.55,32.88H822.4c-1.28-3-6-14.94-6-40.57"/><path class="cls-2" d="M746.18,48.94c-34.6,0-52.11,27.33-52.11,55.09,0,27.34,17.51,55.1,52.11,55.1,35,0,52.1-27.76,52.1-55.1C798.28,76.27,781.2,48.94,746.18,48.94Zm0,87.13c-19.22,0-28.62-15.8-28.62-31.61,0-16.23,9.82-32.46,28.62-32.46s28.61,16.23,28.61,32.46C774.79,120.27,765.39,136.07,746.18,136.07Z"/><path class="cls-2" d="M630.5,46.72c-9.83,0-19.22,3.42-28.19,9.82v-6.4H578.39V199.62h23.92V147.94c8.54,5.55,18.36,9.39,28.19,9.39,25.62,0,53-23.06,53-55.52C683.46,67.65,656.55,46.72,630.5,46.72Zm0,87.55c-16.66,0-27.76-11.1-27.76-32.46,0-20.5,12.38-32,27.76-32,16.23,0,29,11.53,29,32C659.54,121.88,645.44,134.27,630.5,134.27Z"/><path class="cls-1" d="M525,113.59V2.22h24.46V121.45c0,12.67,4.37,28.39,5.68,33.63h-24C529.81,152,525,139.79,525,113.59"/><path class="cls-1" d="M462.25,46.72c-9.61,0-30.14.87-42.36,18.77l16.59,14.86c5.68-7.43,13.1-10.49,24.89-10.49,16.6,0,21.84,9.17,21.84,17.91-21.84-.88-69.44-1.31-69.44,35.81,0,19.65,17,35.81,38.87,35.81,13.1,0,24.46-3.93,30.57-10v7h23.15V90.83C506.36,61.56,486.27,46.72,462.25,46.72Zm21,72.49c0,8.73-18.34,17.91-28.82,17.91-12.67,0-17.47-7-17.47-14,0-15.72,28.39-14.85,46.29-14.41Z"/><path class="cls-1" d="M350.33,120.82V71.47H335.91V49.2h14.42V15.57h24V49.2h23.47V71.47H374.35v51.1c0,11.79,8.29,15.72,20.52,11.79L406.66,154c-38,13.1-56.33-3.5-56.33-33.2"/><path class="cls-1" d="M248.51,49.33V55C239.78,49.78,231,46.72,221,46.72c-26.21,0-54.16,23.14-54.16,56.77,0,35.38,27.52,55.9,54.16,55.9,9.61,0,18.78-3.06,27.51-8.3v5.24c-.44,24.46-13.54,32.76-30.57,32.76-10.48,0-21.4-4.37-26.64-12.23l-21.84,12.23c11.36,15.72,31,24.46,48.48,24.46,31.45,0,54.59-17.91,54.59-55.9V49.33Zm-27.51,86c-16.6,0-29.7-10.92-29.7-31.88,0-20.53,14.41-32.32,29.7-32.32,17,0,28.39,10.49,28.39,32.32C249.39,124.45,236.72,135.37,221,135.37Z"/><polygon class="cls-1" points="126.28 155.91 150.3 155.91 150.3 49.35 126.28 49.35 126.28 155.91 126.28 155.91"/><path class="cls-1" d="M122.35,15.72c0-8.3,7.43-15.72,16.16-15.72,8.3,0,15.72,7.42,15.72,15.72s-7.42,15.72-15.72,15.72c-8.73,0-16.16-7.42-16.16-15.72Z"/><polygon class="cls-1" points="291.28 155.91 315.3 155.91 315.3 49.35 291.28 49.35 291.28 155.91 291.28 155.91"/><path class="cls-1" d="M287.35,15.72c0-8.3,7.43-15.72,16.16-15.72,8.3,0,15.72,7.42,15.72,15.72s-7.42,15.72-15.72,15.72c-8.73,0-16.16-7.42-16.16-15.72Z"/><path class="cls-1" d="M81.14,6.67V57.92C72.6,52.37,63.21,49,53,49,27.33,49,0,72,0,104.48c0,34.16,26.9,55.09,53,55.09,10.25,0,19.64-3.42,28.18-9.82v6.4h23.92V6.67ZM53,136.51c-16.23,0-29-11.53-29-32C23.91,84.41,38,72,53,72c16.65,0,27.76,11.1,27.76,32.46C80.72,125,68.33,136.51,53,136.51Z"/></g></g></svg>