<?xml version="1.0" encoding="utf-8"?>
<!-- Generator: Adobe Illustrator 25.3.1, SVG Export Plug-In . SVG Version: 6.00 Build 0)  -->
<svg version="1.1" id="LOGO_02" xmlns="http://www.w3.org/2000/svg" xmlns:xlink="http://www.w3.org/1999/xlink" x="0px" y="0px"
	 viewBox="0 0 1685.8 442.6" style="enable-background:new 0 0 1685.8 442.6;" xml:space="preserve">
<style type="text/css">
	.st0{fill:#111111;}
</style>
<path class="st0" d="M354.5,264.3h36.9v38.5h-36.9v128.8h-45.6V302.9h-23.7v-38.5h23.7v-27.4c0-41.9,24.3-62.9,64.6-62.9
	c8.8,0,17.2,1.4,25,3.7V216c-5.1-0.7-9.5-1-13.5-1c-20.6,0-30.4,7.1-30.4,26V264.3z M447.4,175.1c16.2,0,29.4,12.2,29.4,28.4
	c0,15.9-13.2,28.1-29.4,28.1c-16.2,0-29.1-12.2-29.1-28.1C418.3,187.2,431.2,175.1,447.4,175.1z M424.8,264.3h45.6v167.4h-45.6
	V264.3z"/>
<path class="st0" d="M515.7,178.1h45.6v253.6h-45.6V178.1z"/>
<path class="st0" d="M864.6,431.7H819v-97.4c0-19.9-11.8-32.5-29.8-32.5c-17.9,0-30.8,12.8-30.8,31.4v98.4h-45.6v-97.4
	c0-19.9-11.8-32.5-29.8-32.5c-18.6,0-30.8,12.5-30.8,32.5v97.4h-45.6V264.3h41.9v14.9c11.2-11.8,28.1-18.6,47.3-18.6
	c22,0,38.5,8.1,49.7,24c13.2-14.9,32.8-24,55.8-24c39.2,0,63.2,26.7,63.2,67.3V431.7z"/>
<path class="st0" d="M988.7,263.3c28.7,0,53.1,13.9,68,35.8l-18.6,14.9c-13.2-17.9-29.8-26.7-49-26.7c-34.1,0-59.8,27.7-59.8,61.9
	c0,34.5,25.7,62.2,59.8,62.2c19.3,0,35.5-8.8,48.7-26.4l18.6,14.5c-14.9,22-38.9,35.8-67.6,35.8c-47.7,0-86.2-38.5-86.2-86.2
	C901.5,302.2,941.7,262.6,988.7,263.3z"/>
<path class="st0" d="M1083.7,178.1h26v253.6h-26V178.1z"/>
<path class="st0" d="M1224.4,263.3c47-0.7,87.2,38.9,86.2,85.9c1,46.3-39.6,86.9-86.6,85.9c-47,1-86.6-39.6-85.9-85.9
	C1137.1,302.2,1177.4,262.3,1224.4,263.3z M1224.4,287.3c-33.8,0-59.5,26.7-59.5,62.2c0,34.5,25.7,61.5,59.2,61.5s59.8-27,59.8-61.5
	C1283.9,314,1257.8,287.3,1224.4,287.3z"/>
<path class="st0" d="M1337.3,267h25.7v100.8c0,26.7,18.3,43.6,42.6,43.6c24,0,41.9-17.6,41.9-43.6V267h26v99.1
	c0,41.6-29.8,69.3-68,69.3c-38.5,0-68.3-27.7-68.3-69.3V267z"/>
<path class="st0" d="M1668.3,178.1v253.6h-24.7v-26c-12.5,18.6-36.5,29.8-62.2,29.8c-46.3,0-81.5-37.5-81.5-85.9
	c0-48.3,35.2-86.2,81.5-86.2c24.7,0,47.7,10.5,60.9,28.1V178.1H1668.3z M1585.1,287.3c-33.5,0-58.5,26.4-58.5,61.9
	c0,35.5,25,62.2,58.5,62.2c29.8,0,57.5-20.3,57.5-61.9C1642.6,307.6,1614.9,287.3,1585.1,287.3z"/>
<path class="st0" d="M548.7,71.5c-11.3-21.1-43.4-47.5-82.9-57.3c-33.9-8.4-73.7-6.3-106.7,5.5c-42.8,15.4-74.1,46.6-90.8,90.2
	c-19.7-14.8-70.6-19.4-108.5-3c-23.4,10.1-52.1,32.2-55.7,79.7c-10.6,1-33.9,9.5-54.8,28.5c-19.1,17.5-42,49.5-42,102.8
	c0,30.5,5.9,62.9,48.5,92.5c21,14.6,56.2,21.4,114.2,22.2h0c0,0,0,0,0,0c1.5,0,2.8-1.2,2.9-2.7c0.1-1.6-1-2.9-2.6-3
	c-24.1-2.6-73.1-18.2-101.7-43.5c-20.1-17.7-22.6-44.8-22.6-66.4c0-44.8,30.6-79.1,91.1-101.8c1.5-0.6,2.4-2.2,2.1-3.8
	c-5.4-26.4,6.8-53.8,30.4-68.1c30.5-18.5,71-11.5,108.5,18.9c0.8,0.6,1.8,0.9,2.8,0.7c1-0.2,1.8-0.8,2.3-1.7
	c29.9-57.1,64.2-91.8,104.8-106.1c42.7-15,93.8-8.1,156.3,21c1.3,0.6,2.9,0.3,3.9-0.8C549.2,74.3,549.4,72.8,548.7,71.5z"/>
</svg>
