<?xml version="1.0" encoding="UTF-8"?>
<svg id="Warstwa_1" data-name="Warstwa 1" xmlns="http://www.w3.org/2000/svg" viewBox="0 0 595.28 595.28">
  <defs>
    <style>
      .cls-1 {
        fill: #2a317e;
      }
    </style>
  </defs>
  <g>
    <path class="cls-1" d="M400.42,350.15l-29.35-33.81v34.71h-10.89v-40.24l10.14-11.99,19.21,21.61v-21.61h10.89v51.34ZM349.08,351.05h-10.14v-7.36h-19.21l9.59-12.75h9.62v-18.28l-30.1,38.39v-16.78l28.97-35.46h11.27v52.24ZM299.25,303.25c4.9,4.68,6.87,10.83,5.89,18.46-.6,5.43-2.76,9.68-6.46,12.75-3.56,2.45-8.55,3.68-14.95,3.68v-12.92c3.69,0,5.91-.18,6.66-.55.23-.11.48-.24.73-.38,2.95-1.83,3.81-4.48,2.58-7.94-.49-.98-1.1-1.84-1.83-2.58-.37-.48-.86-.91-1.48-1.28-1.24-.75-4.19-1.06-8.86-.93v39.49h-10.89v-40.24l10.34-11.99c6.64,0,11.01.37,13.1,1.1,1.96.74,3.69,1.85,5.18,3.33ZM477.77,223.84v-37.46c0-2.95-1.42-4.92-4.23-5.91l-.2-.2h-.17c-.5-.11-1.06-.18-1.65-.18h-49.86c-2.95,0-4.93,1.42-5.91,4.26-.25.62-.38,1.29-.38,2.03v37.46c0,2.96,1.42,4.93,4.26,5.91h.17l.17.2c.5.12,1.06.17,1.68.17h49.86c2.95,0,4.91-1.41,5.88-4.23.25-.75.38-1.43.38-2.05ZM477.77,348.47v-107.08c0-2.95-1.42-4.92-4.23-5.91l-.2-.17h-.17c-.5-.13-1.06-.2-1.65-.2h-49.86c-2.95,0-4.93,1.42-5.91,4.26-.25.62-.38,1.29-.38,2.03v107.08c0,2.96,1.42,4.93,4.26,5.91l.17.2h.17c.5.12,1.06.18,1.68.18h49.86c2.95,0,4.91-1.42,5.88-4.26.25-.61.38-1.29.38-2.03ZM346.68,235.11h-91v-4.98h91c1.6,0,2.4.81,2.4,2.4.13.12.13.25,0,.38,0,1.47-.81,2.2-2.4,2.2ZM409.08,278.68v-92.3c0-2.95-1.42-4.92-4.23-5.91l-.17-.2h-.2c-.49-.11-1.04-.18-1.65-.18h-203.29c-2.96,0-4.93,1.42-5.91,4.26-.25.62-.38,1.29-.38,2.03v162.1c0,2.96,1.41,4.93,4.26,5.91h.17c.61.25,1.23.38,1.85.38h49.86c2.95,0,4.92-1.42,5.91-4.26.25-.61.38-1.29.38-2.03v-63.51h147.15c2.95,0,4.92-1.42,5.91-4.26v-.18c.23-.61.35-1.23.35-1.85ZM186.99,223.84v-37.46c0-2.95-1.42-4.92-4.26-5.91h-.17c-.62-.24-1.24-.38-1.85-.38h-49.86c-2.96,0-4.93,1.42-5.91,4.26-.24.62-.35,1.29-.35,2.03v37.46c0,2.96,1.41,4.93,4.23,5.91.61.25,1.29.38,2.03.38h49.86c2.95,0,4.92-1.41,5.91-4.23.24-.75.38-1.43.38-2.05ZM186.99,348.47v-107.08c0-2.95-1.42-4.92-4.26-5.91h-.17c-.62-.24-1.24-.38-1.85-.38h-49.86c-2.96,0-4.93,1.42-5.91,4.26-.24.62-.35,1.29-.35,2.03v107.08c0,2.96,1.41,4.93,4.23,5.91.61.25,1.29.38,2.03.38h49.86c2.95,0,4.92-1.42,5.91-4.26.24-.61.38-1.29.38-2.03ZM484.06,348.47c0,4.81-2.16,8.2-6.46,10.17-1.49.74-3.09,1.1-4.81,1.1h-63.71v-69.79h-147.15v69.79h-132.37c-4.81,0-8.2-2.15-10.17-6.46-.74-1.48-1.1-3.09-1.1-4.81v-162.1c0-4.8,2.15-8.19,6.46-10.17,1.48-.73,3.09-1.1,4.81-1.1h343.22c4.8,0,8.19,2.16,10.17,6.46.73,1.49,1.1,3.09,1.1,4.81v162.1Z"/>
    <path class="cls-1" d="M400.42,350.15l-29.35-33.81v34.71h-10.89v-40.24l10.14-11.99,19.21,21.61v-21.61h10.89v51.34ZM349.08,351.05h-10.14v-7.36h-19.21l9.59-12.75h9.62v-18.28l-30.1,38.39v-16.78l28.97-35.46h11.27v52.24ZM299.25,303.25c4.9,4.68,6.87,10.83,5.89,18.46-.6,5.43-2.76,9.68-6.46,12.75-3.56,2.45-8.55,3.68-14.95,3.68v-12.92c3.69,0,5.91-.18,6.66-.55.23-.11.48-.24.73-.38,2.95-1.83,3.81-4.48,2.58-7.94-.49-.98-1.1-1.84-1.83-2.58-.37-.48-.86-.91-1.48-1.28-1.24-.75-4.19-1.06-8.86-.93v39.49h-10.89v-40.24l10.34-11.99c6.64,0,11.01.37,13.1,1.1,1.96.74,3.69,1.85,5.18,3.33ZM477.77,223.84v-37.46c0-2.95-1.42-4.92-4.23-5.91l-.2-.2h-.17c-.5-.11-1.06-.18-1.65-.18h-49.86c-2.95,0-4.93,1.42-5.91,4.26-.25.62-.38,1.29-.38,2.03v37.46c0,2.96,1.42,4.93,4.26,5.91h.17l.17.2c.5.12,1.06.17,1.68.17h49.86c2.95,0,4.91-1.41,5.88-4.23.25-.75.38-1.43.38-2.05ZM477.77,348.47v-107.08c0-2.95-1.42-4.92-4.23-5.91l-.2-.17h-.17c-.5-.13-1.06-.2-1.65-.2h-49.86c-2.95,0-4.93,1.42-5.91,4.26-.25.62-.38,1.29-.38,2.03v107.08c0,2.96,1.42,4.93,4.26,5.91l.17.2h.17c.5.12,1.06.18,1.68.18h49.86c2.95,0,4.91-1.42,5.88-4.26.25-.61.38-1.29.38-2.03ZM346.68,235.11h-91v-4.98h91c1.6,0,2.4.81,2.4,2.4.13.12.13.25,0,.38,0,1.47-.81,2.2-2.4,2.2ZM409.08,278.68v-92.3c0-2.95-1.42-4.92-4.23-5.91l-.17-.2h-.2c-.49-.11-1.04-.18-1.65-.18h-203.29c-2.96,0-4.93,1.42-5.91,4.26-.25.62-.38,1.29-.38,2.03v162.1c0,2.96,1.41,4.93,4.26,5.91h.17c.61.25,1.23.38,1.85.38h49.86c2.95,0,4.92-1.42,5.91-4.26.25-.61.38-1.29.38-2.03v-63.51h147.15c2.95,0,4.92-1.42,5.91-4.26v-.18c.23-.61.35-1.23.35-1.85ZM186.99,223.84v-37.46c0-2.95-1.42-4.92-4.26-5.91h-.17c-.62-.24-1.24-.38-1.85-.38h-49.86c-2.96,0-4.93,1.42-5.91,4.26-.24.62-.35,1.29-.35,2.03v37.46c0,2.96,1.41,4.93,4.23,5.91.61.25,1.29.38,2.03.38h49.86c2.95,0,4.92-1.41,5.91-4.23.24-.75.38-1.43.38-2.05ZM186.99,348.47v-107.08c0-2.95-1.42-4.92-4.26-5.91h-.17c-.62-.24-1.24-.38-1.85-.38h-49.86c-2.96,0-4.93,1.42-5.91,4.26-.24.62-.35,1.29-.35,2.03v107.08c0,2.96,1.41,4.93,4.23,5.91.61.25,1.29.38,2.03.38h49.86c2.95,0,4.92-1.42,5.91-4.26.24-.61.38-1.29.38-2.03ZM484.06,348.47c0,4.81-2.16,8.2-6.46,10.17-1.49.74-3.09,1.1-4.81,1.1h-63.71v-69.79h-147.15v69.79h-132.37c-4.81,0-8.2-2.15-10.17-6.46-.74-1.48-1.1-3.09-1.1-4.81v-162.1c0-4.8,2.15-8.19,6.46-10.17,1.48-.73,3.09-1.1,4.81-1.1h343.22c4.8,0,8.19,2.16,10.17,6.46.73,1.49,1.1,3.09,1.1,4.81v162.1Z"/>
    <g>
      <path class="cls-1" d="M117.54,404.58v-20.2h3.57v20.2h-3.57Z"/>
      <path class="cls-1" d="M137.2,404.58h-3.46v-8.36c0-1.19-.19-2.07-.57-2.62-.38-.55-.91-.83-1.58-.83-.35,0-.7.08-1.06.23-.36.15-.7.37-1.02.64-.32.27-.61.6-.87.98-.26.38-.45.8-.57,1.25v8.71h-3.47v-14.91h3.13v2.76c.5-.95,1.22-1.69,2.17-2.22s2.02-.8,3.21-.8c.84,0,1.53.17,2.07.51.53.34.95.79,1.24,1.34.29.55.5,1.18.61,1.88.11.7.17,1.41.17,2.13v9.3Z"/>
      <path class="cls-1" d="M145.34,404.86c-1.14,0-2.25-.2-3.34-.6-1.09-.4-2.02-.97-2.79-1.71l1.29-2.39c.83.65,1.63,1.13,2.42,1.46.78.33,1.56.5,2.34.5.69,0,1.23-.14,1.63-.43.4-.28.59-.69.59-1.22s-.23-.92-.7-1.17c-.47-.25-1.22-.53-2.28-.85-.88-.27-1.63-.52-2.25-.77-.62-.25-1.12-.53-1.5-.84-.38-.31-.66-.67-.83-1.08-.17-.41-.26-.9-.26-1.46,0-.76.13-1.44.4-2.05.27-.61.64-1.12,1.12-1.55.48-.43,1.05-.75,1.69-.98s1.35-.34,2.11-.34c1.02,0,1.97.16,2.86.48.89.32,1.7.84,2.44,1.56l-1.4,2.3c-.69-.57-1.36-.99-2-1.25-.65-.27-1.29-.4-1.93-.4-.59,0-1.08.13-1.47.4-.4.27-.59.69-.59,1.28,0,.27.05.48.14.65.09.17.25.32.45.46.21.13.48.26.81.38.34.12.75.25,1.25.38.93.27,1.73.53,2.39.8.66.27,1.21.57,1.63.91s.73.74.93,1.18c.2.45.3.98.3,1.61,0,1.46-.49,2.61-1.47,3.46-.98.84-2.32,1.27-4.01,1.27Z"/>
      <path class="cls-1" d="M161.19,403.81c-.47.23-1.04.46-1.71.68-.67.23-1.38.34-2.12.34-.48,0-.94-.07-1.36-.2-.42-.13-.79-.35-1.11-.64s-.57-.67-.76-1.14c-.19-.46-.28-1.03-.28-1.69v-8.56h-1.78v-2.93h1.78v-4.84h3.46v4.84h2.84v2.93h-2.84v7.28c0,.53.12.91.38,1.12.25.22.56.33.92.33s.71-.07,1.06-.2.62-.25.83-.34l.7,3.02Z"/>
      <path class="cls-1" d="M163,387.59v-3.78h3.47v3.78h-3.47ZM163,404.58v-14.91h3.47v14.91h-3.47Z"/>
      <path class="cls-1" d="M177.72,403.81c-.47.23-1.04.46-1.71.68-.67.23-1.38.34-2.12.34-.48,0-.94-.07-1.36-.2-.42-.13-.79-.35-1.11-.64s-.57-.67-.76-1.14c-.19-.46-.28-1.03-.28-1.69v-8.56h-1.78v-2.93h1.78v-4.84h3.46v4.84h2.84v2.93h-2.84v7.28c0,.53.12.91.38,1.12.25.22.56.33.92.33s.71-.07,1.06-.2c.34-.13.62-.25.83-.34l.7,3.02Z"/>
      <path class="cls-1" d="M183.67,404.86c-1.4,0-2.46-.49-3.18-1.48-.72-.99-1.09-2.45-1.09-4.38v-9.33h3.47v8.51c0,2.29.75,3.44,2.25,3.44.67,0,1.32-.22,1.95-.67.63-.45,1.14-1.12,1.54-2.03v-9.25h3.46v10.53c0,.4.06.68.19.85.13.17.34.27.63.28v3.24c-.35.08-.63.12-.87.14-.23.02-.44.03-.63.03-.62,0-1.12-.16-1.51-.47-.39-.31-.62-.74-.68-1.29l-.08-1.19c-.6,1.02-1.38,1.79-2.33,2.3-.95.51-1.99.77-3.13.77Z"/>
      <path class="cls-1" d="M203.63,403.81c-.47.23-1.04.46-1.71.68-.67.23-1.38.34-2.12.34-.48,0-.94-.07-1.36-.2-.42-.13-.79-.35-1.11-.64s-.57-.67-.76-1.14c-.19-.46-.28-1.03-.28-1.69v-8.56h-1.78v-2.93h1.78v-4.84h3.46v4.84h2.84v2.93h-2.84v7.28c0,.53.12.91.38,1.12.25.22.56.33.92.33s.71-.07,1.06-.2.62-.25.83-.34l.7,3.02Z"/>
      <path class="cls-1" d="M211.39,404.86c-1.09,0-2.07-.2-2.95-.61-.88-.41-1.63-.96-2.25-1.66-.62-.7-1.1-1.52-1.44-2.45-.34-.93-.5-1.91-.5-2.93s.16-2.06.49-3c.33-.94.8-1.76,1.42-2.48.62-.71,1.38-1.27,2.26-1.69.89-.42,1.88-.63,2.99-.63s2.09.21,2.96.63c.87.42,1.61.98,2.22,1.68.61.7,1.08,1.52,1.4,2.45.32.93.48,1.9.48,2.9,0,.25,0,.48-.01.71s-.03.42-.06.57h-10.47c.05.59.18,1.11.39,1.56s.47.84.8,1.17c.33.32.7.57,1.11.74.41.17.84.26,1.29.26.69,0,1.34-.19,1.95-.55s1.03-.86,1.25-1.46l2.97.91c-.5,1.14-1.3,2.07-2.39,2.8-1.1.73-2.4,1.1-3.92,1.1ZM214.91,395.87c-.09-1.12-.46-2.01-1.12-2.69-.66-.67-1.47-1.01-2.42-1.01-.47,0-.9.09-1.31.27-.41.18-.76.43-1.07.75-.31.32-.57.71-.76,1.17-.2.46-.31.96-.35,1.51h7.03Z"/>
      <path class="cls-1" d="M233.06,404.86c-1.1,0-2.09-.21-2.97-.63-.88-.42-1.63-.98-2.24-1.69-.61-.71-1.08-1.53-1.41-2.46-.33-.93-.49-1.91-.49-2.93s.16-2.03.49-2.96c.33-.93.8-1.75,1.41-2.46.61-.71,1.36-1.27,2.24-1.69.88-.42,1.87-.63,2.97-.63s2.09.21,2.96.63c.87.42,1.61.98,2.22,1.69.61.71,1.08,1.53,1.41,2.46.33.93.49,1.92.49,2.96s-.16,2-.49,2.93c-.33.93-.79,1.75-1.4,2.46-.6.71-1.34,1.28-2.22,1.69-.88.42-1.87.63-2.97.63ZM229.52,397.15c0,.66.09,1.27.27,1.81s.43,1.01.75,1.41c.32.4.69.71,1.12.92.43.22.9.33,1.4.33s.97-.11,1.4-.33c.43-.22.81-.53,1.12-.92.32-.4.57-.87.75-1.42.18-.55.27-1.16.27-1.82s-.09-1.24-.27-1.79c-.18-.55-.43-1.02-.75-1.42-.32-.4-.69-.71-1.12-.92-.43-.22-.9-.33-1.4-.33s-.97.11-1.4.34c-.43.23-.81.54-1.12.94-.32.4-.57.87-.75,1.42-.18.55-.27,1.15-.27,1.79Z"/>
      <path class="cls-1" d="M243.1,404.58v-11.21h-1.78v-2.9h1.78v-.91c0-1.86.4-3.33,1.21-4.41s1.91-1.62,3.31-1.62c1.1,0,2.22.29,3.34.88l-.7,2.87c-.26-.15-.56-.28-.92-.38-.35-.1-.68-.16-.97-.16-1.21,0-1.81.89-1.81,2.67v1.05h3.31v2.9h-3.31v11.21h-3.46Z"/>
      <path class="cls-1" d="M256.72,394.33c0-1.23.2-2.45.61-3.66.41-1.2,1-2.28,1.77-3.23.78-.95,1.72-1.72,2.84-2.3,1.12-.59,2.4-.88,3.83-.88,1.69,0,3.15.41,4.38,1.22,1.23.82,2.15,1.88,2.75,3.19l-2.74,2.08c-.24-.57-.54-1.05-.88-1.44-.34-.39-.72-.7-1.11-.92s-.81-.39-1.24-.5c-.43-.1-.85-.16-1.27-.16-.9,0-1.68.2-2.34.6-.66.4-1.22.92-1.66,1.55s-.77,1.36-1,2.16c-.22.81-.34,1.61-.34,2.4,0,.89.13,1.75.39,2.57.26.82.62,1.55,1.1,2.18.47.63,1.04,1.13,1.71,1.51.66.38,1.39.57,2.19.57.41,0,.84-.06,1.29-.17.45-.11.88-.29,1.28-.54.4-.25.78-.56,1.12-.95.34-.39.62-.86.83-1.41l2.92,1.85c-.29.76-.71,1.43-1.25,2.01-.54.58-1.16,1.07-1.84,1.46-.68.4-1.41.7-2.19.91-.78.21-1.53.31-2.28.31-1.31,0-2.51-.3-3.59-.91-1.09-.61-2.02-1.4-2.81-2.38-.78-.98-1.4-2.09-1.84-3.33-.44-1.24-.66-2.51-.66-3.8Z"/>
      <path class="cls-1" d="M281.5,404.86c-1.1,0-2.09-.21-2.97-.63-.88-.42-1.63-.98-2.24-1.69-.61-.71-1.08-1.53-1.41-2.46-.33-.93-.49-1.91-.49-2.93s.16-2.03.49-2.96c.33-.93.8-1.75,1.41-2.46.61-.71,1.36-1.27,2.24-1.69.88-.42,1.87-.63,2.97-.63s2.09.21,2.96.63c.87.42,1.61.98,2.22,1.69.61.71,1.08,1.53,1.41,2.46.33.93.49,1.92.49,2.96s-.16,2-.49,2.93c-.33.93-.79,1.75-1.4,2.46-.6.71-1.34,1.28-2.22,1.69-.88.42-1.87.63-2.97.63ZM277.95,397.15c0,.66.09,1.27.27,1.81s.43,1.01.75,1.41c.32.4.69.71,1.12.92.43.22.9.33,1.4.33s.97-.11,1.4-.33c.43-.22.81-.53,1.12-.92.32-.4.57-.87.75-1.42.18-.55.27-1.16.27-1.82s-.09-1.24-.27-1.79c-.18-.55-.43-1.02-.75-1.42-.32-.4-.69-.71-1.12-.92-.43-.22-.9-.33-1.4-.33s-.97.11-1.4.34c-.43.23-.81.54-1.12.94-.32.4-.57.87-.75,1.42-.18.55-.27,1.15-.27,1.79Z"/>
      <path class="cls-1" d="M311.96,404.58h-3.47v-8.36c0-1.19-.19-2.07-.56-2.62-.37-.55-.88-.83-1.54-.83-.69,0-1.34.29-1.94.87-.6.58-1.03,1.33-1.29,2.26v8.68h-3.47v-8.36c0-1.19-.19-2.07-.56-2.62-.37-.55-.88-.83-1.54-.83s-1.31.28-1.93.85-1.05,1.32-1.31,2.25v8.71h-3.47v-14.91h3.13v2.76c.5-.97,1.18-1.71,2.06-2.23.87-.52,1.87-.78,2.99-.78s2.02.3,2.64.91c.62.61,1.02,1.36,1.19,2.25.55-1.02,1.25-1.81,2.09-2.35s1.81-.81,2.9-.81c.83,0,1.51.17,2.04.51s.95.79,1.24,1.34c.29.55.5,1.18.61,1.88.11.7.17,1.41.17,2.13v9.3Z"/>
      <path class="cls-1" d="M323.11,404.86c-1.07,0-2-.26-2.79-.78-.79-.52-1.41-1.23-1.86-2.12v8.68h-3.47v-20.97h3.03v2.56c.5-.87,1.15-1.56,1.94-2.06.79-.5,1.71-.75,2.74-.75.91,0,1.76.2,2.53.61.78.41,1.44.96,2,1.65.56.69,1,1.51,1.32,2.45.32.94.48,1.93.48,2.97s-.15,2.1-.44,3.04c-.29.95-.7,1.77-1.23,2.48-.53.7-1.15,1.25-1.88,1.65-.72.4-1.52.6-2.38.6ZM321.95,401.62c.52,0,1-.12,1.44-.37s.81-.58,1.12-1c.31-.42.55-.9.72-1.45.17-.55.26-1.12.26-1.71,0-.63-.09-1.21-.28-1.75-.19-.54-.45-1.01-.79-1.41-.34-.4-.73-.71-1.19-.94-.46-.23-.95-.34-1.49-.34-.33,0-.66.06-1.01.19s-.66.3-.96.53c-.29.23-.56.49-.79.8s-.41.64-.53,1v3.5c.31.85.78,1.56,1.42,2.12.64.56,1.33.84,2.07.84Z"/>
      <path class="cls-1" d="M335.52,404.86c-1.4,0-2.46-.49-3.18-1.48-.72-.99-1.09-2.45-1.09-4.38v-9.33h3.47v8.51c0,2.29.75,3.44,2.25,3.44.67,0,1.32-.22,1.95-.67.63-.45,1.14-1.12,1.54-2.03v-9.25h3.46v10.53c0,.4.06.68.19.85.13.17.34.27.63.28v3.24c-.35.08-.63.12-.87.14-.23.02-.44.03-.63.03-.62,0-1.12-.16-1.51-.47-.39-.31-.62-.74-.68-1.29l-.08-1.19c-.6,1.02-1.38,1.79-2.33,2.3-.95.51-1.99.77-3.13.77Z"/>
      <path class="cls-1" d="M355.49,403.81c-.47.23-1.04.46-1.71.68-.67.23-1.38.34-2.12.34-.48,0-.94-.07-1.36-.2-.42-.13-.79-.35-1.11-.64s-.57-.67-.76-1.14c-.19-.46-.28-1.03-.28-1.69v-8.56h-1.78v-2.93h1.78v-4.84h3.46v4.84h2.84v2.93h-2.84v7.28c0,.53.12.91.38,1.12.25.22.56.33.92.33s.71-.07,1.06-.2.62-.25.83-.34l.7,3.02Z"/>
      <path class="cls-1" d="M363.25,404.86c-1.09,0-2.07-.2-2.95-.61-.88-.41-1.63-.96-2.25-1.66-.62-.7-1.1-1.52-1.44-2.45-.34-.93-.5-1.91-.5-2.93s.16-2.06.49-3c.33-.94.8-1.76,1.42-2.48.62-.71,1.38-1.27,2.26-1.69.89-.42,1.88-.63,2.99-.63s2.09.21,2.96.63c.87.42,1.61.98,2.22,1.68.61.7,1.08,1.52,1.4,2.45.32.93.48,1.9.48,2.9,0,.25,0,.48-.01.71s-.03.42-.06.57h-10.47c.05.59.18,1.11.39,1.56s.47.84.8,1.17c.33.32.7.57,1.11.74.41.17.84.26,1.29.26.69,0,1.34-.19,1.95-.55s1.03-.86,1.25-1.46l2.97.91c-.5,1.14-1.3,2.07-2.39,2.8-1.1.73-2.4,1.1-3.92,1.1ZM366.76,395.87c-.09-1.12-.46-2.01-1.12-2.69-.66-.67-1.47-1.01-2.42-1.01-.47,0-.9.09-1.31.27-.41.18-.76.43-1.07.75-.31.32-.57.71-.76,1.17-.2.46-.31.96-.35,1.51h7.03Z"/>
      <path class="cls-1" d="M380.52,392.97c-1.05.02-1.99.24-2.82.67-.83.43-1.42,1.07-1.78,1.92v9.02h-3.47v-14.91h3.18v3.19c.24-.51.53-.97.85-1.38.33-.41.68-.76,1.06-1.07.38-.3.76-.54,1.15-.7s.76-.24,1.12-.24h.43c.09,0,.18,0,.27.03v3.47Z"/>
      <path class="cls-1" d="M399.32,389.67c-.12-.13-.34-.31-.66-.54s-.71-.45-1.16-.67c-.46-.22-.95-.4-1.49-.56-.54-.15-1.08-.23-1.63-.23-.98,0-1.71.2-2.2.6-.48.4-.72.96-.72,1.68,0,.42.09.76.27,1.04s.44.52.79.73c.34.21.78.4,1.31.57.53.17,1.13.35,1.82.54.9.27,1.71.55,2.44.85.73.3,1.35.68,1.86,1.14s.9,1,1.18,1.64.41,1.42.41,2.35c0,1.08-.19,2.01-.56,2.77-.37.77-.87,1.39-1.5,1.86-.63.47-1.35.82-2.17,1.04-.82.22-1.68.33-2.57.33-1.38,0-2.74-.23-4.09-.68s-2.55-1.1-3.62-1.93l1.58-3.39c.16.17.44.39.84.67.4.28.88.55,1.43.83s1.16.51,1.84.7c.67.19,1.36.28,2.07.28,1.97,0,2.95-.69,2.95-2.08,0-.44-.11-.81-.34-1.11-.22-.3-.54-.57-.96-.8s-.91-.44-1.5-.63-1.24-.4-1.97-.63c-.88-.27-1.64-.55-2.29-.87s-1.19-.68-1.62-1.11c-.43-.43-.75-.92-.97-1.48-.22-.56-.32-1.23-.32-2.01,0-1.02.17-1.93.52-2.73s.82-1.46,1.44-1.99c.61-.53,1.32-.93,2.13-1.21.81-.27,1.68-.41,2.61-.41,1.29,0,2.48.22,3.57.67,1.09.45,2.03.97,2.84,1.58l-1.58,3.19Z"/>
      <path class="cls-1" d="M403.04,397.12c0-1.04.16-2.03.49-2.96.33-.93.8-1.74,1.42-2.45.62-.7,1.37-1.26,2.25-1.68.88-.42,1.87-.63,2.97-.63,1.48,0,2.75.35,3.79,1.05s1.82,1.62,2.34,2.76l-3.39,1.14c-.29-.55-.68-.97-1.16-1.27-.48-.29-1.02-.44-1.6-.44-.5,0-.97.11-1.4.33-.43.22-.81.52-1.12.91-.32.39-.57.86-.75,1.41-.18.55-.27,1.16-.27,1.82s.09,1.27.28,1.82c.19.55.44,1.02.76,1.42.32.4.69.71,1.12.92.43.22.89.33,1.37.33.62,0,1.19-.17,1.72-.51.53-.34.89-.76,1.1-1.25l3.39,1.14c-.47,1.14-1.23,2.07-2.3,2.79-1.07.72-2.35,1.08-3.85,1.08-1.1,0-2.09-.21-2.97-.63-.88-.42-1.63-.98-2.25-1.69-.62-.71-1.1-1.54-1.44-2.47-.34-.94-.5-1.92-.5-2.94Z"/>
      <path class="cls-1" d="M418.48,387.59v-3.78h3.47v3.78h-3.47ZM418.48,404.58v-14.91h3.47v14.91h-3.47Z"/>
      <path class="cls-1" d="M431.36,404.86c-1.09,0-2.07-.2-2.95-.61-.88-.41-1.63-.96-2.25-1.66-.62-.7-1.1-1.52-1.44-2.45-.34-.93-.5-1.91-.5-2.93s.16-2.06.49-3c.33-.94.8-1.76,1.42-2.48.62-.71,1.38-1.27,2.26-1.69.89-.42,1.88-.63,2.99-.63s2.09.21,2.96.63c.87.42,1.61.98,2.22,1.68.61.7,1.08,1.52,1.4,2.45.32.93.48,1.9.48,2.9,0,.25,0,.48-.01.71s-.03.42-.06.57h-10.47c.05.59.18,1.11.39,1.56s.47.84.8,1.17c.33.32.7.57,1.11.74.41.17.84.26,1.29.26.69,0,1.34-.19,1.95-.55s1.03-.86,1.25-1.46l2.97.91c-.5,1.14-1.3,2.07-2.39,2.8-1.1.73-2.4,1.1-3.92,1.1ZM434.88,395.87c-.09-1.12-.46-2.01-1.12-2.69-.66-.67-1.47-1.01-2.42-1.01-.47,0-.9.09-1.31.27-.41.18-.76.43-1.07.75-.31.32-.57.71-.76,1.17-.2.46-.31.96-.35,1.51h7.03Z"/>
      <path class="cls-1" d="M453.16,404.58h-3.46v-8.36c0-1.19-.19-2.07-.57-2.62-.38-.55-.91-.83-1.58-.83-.35,0-.7.08-1.06.23-.36.15-.7.37-1.02.64-.32.27-.61.6-.87.98-.26.38-.45.8-.57,1.25v8.71h-3.47v-14.91h3.13v2.76c.5-.95,1.22-1.69,2.17-2.22s2.02-.8,3.21-.8c.84,0,1.53.17,2.07.51.53.34.95.79,1.24,1.34.29.55.5,1.18.61,1.88.11.7.17,1.41.17,2.13v9.3Z"/>
      <path class="cls-1" d="M455.34,397.12c0-1.04.16-2.03.49-2.96.33-.93.8-1.74,1.42-2.45.62-.7,1.37-1.26,2.25-1.68.88-.42,1.87-.63,2.97-.63,1.48,0,2.75.35,3.79,1.05s1.82,1.62,2.34,2.76l-3.39,1.14c-.29-.55-.68-.97-1.16-1.27-.48-.29-1.02-.44-1.6-.44-.5,0-.97.11-1.4.33-.43.22-.81.52-1.12.91-.32.39-.57.86-.75,1.41-.18.55-.27,1.16-.27,1.82s.09,1.27.28,1.82c.19.55.44,1.02.76,1.42.32.4.69.71,1.12.92.43.22.89.33,1.37.33.62,0,1.19-.17,1.72-.51.53-.34.89-.76,1.1-1.25l3.39,1.14c-.47,1.14-1.23,2.07-2.3,2.79-1.07.72-2.35,1.08-3.85,1.08-1.1,0-2.09-.21-2.97-.63-.88-.42-1.63-.98-2.25-1.69-.62-.71-1.1-1.54-1.44-2.47-.34-.94-.5-1.92-.5-2.94Z"/>
      <path class="cls-1" d="M476.93,404.86c-1.09,0-2.07-.2-2.95-.61-.88-.41-1.63-.96-2.25-1.66-.62-.7-1.1-1.52-1.44-2.45-.34-.93-.5-1.91-.5-2.93s.16-2.06.49-3c.33-.94.8-1.76,1.42-2.48.62-.71,1.38-1.27,2.26-1.69.89-.42,1.88-.63,2.99-.63s2.09.21,2.96.63c.87.42,1.61.98,2.22,1.68.61.7,1.08,1.52,1.4,2.45.32.93.48,1.9.48,2.9,0,.25,0,.48-.01.71s-.03.42-.06.57h-10.47c.05.59.18,1.11.39,1.56s.47.84.8,1.17c.33.32.7.57,1.11.74.41.17.84.26,1.29.26.69,0,1.34-.19,1.95-.55s1.03-.86,1.25-1.46l2.97.91c-.5,1.14-1.3,2.07-2.39,2.8-1.1.73-2.4,1.1-3.92,1.1ZM480.45,395.87c-.09-1.12-.46-2.01-1.12-2.69-.66-.67-1.47-1.01-2.42-1.01-.47,0-.9.09-1.31.27-.41.18-.76.43-1.07.75-.31.32-.57.71-.76,1.17-.2.46-.31.96-.35,1.51h7.03Z"/>
      <path class="cls-1" d="M117.54,439.25v-20.2h7.78c.84,0,1.62.19,2.34.58.72.39,1.33.9,1.85,1.54.52.64.92,1.36,1.21,2.16.29.81.44,1.62.44,2.43s-.14,1.68-.41,2.49c-.28.81-.66,1.52-1.16,2.15s-1.1,1.13-1.81,1.51c-.71.38-1.48.57-2.33.57h-4.34v6.77h-3.57ZM121.11,429.04h4.14c.66,0,1.2-.29,1.64-.88.44-.59.66-1.38.66-2.39,0-.51-.07-.97-.21-1.38-.14-.41-.32-.75-.54-1.04-.22-.28-.49-.5-.79-.64-.3-.14-.61-.21-.92-.21h-3.98v6.54Z"/>
      <path class="cls-1" d="M139.34,439.54c-1.1,0-2.09-.21-2.97-.63-.88-.42-1.63-.98-2.24-1.69-.61-.71-1.08-1.53-1.41-2.46-.33-.93-.49-1.91-.49-2.93s.16-2.03.49-2.96c.33-.93.8-1.75,1.41-2.46.61-.71,1.36-1.27,2.24-1.69.88-.42,1.87-.63,2.97-.63s2.09.21,2.96.63c.87.42,1.61.98,2.22,1.69.61.71,1.08,1.53,1.41,2.46.33.93.49,1.92.49,2.96s-.16,2-.49,2.93c-.33.93-.79,1.75-1.4,2.46-.6.71-1.34,1.28-2.22,1.69-.88.42-1.87.63-2.97.63ZM135.8,431.83c0,.66.09,1.27.27,1.81s.43,1.01.75,1.41c.32.4.69.71,1.12.92.43.22.9.33,1.4.33s.97-.11,1.4-.33c.43-.22.81-.53,1.12-.92.32-.4.57-.87.75-1.42.18-.55.27-1.16.27-1.82s-.09-1.24-.27-1.79c-.18-.55-.43-1.02-.75-1.42-.32-.4-.69-.71-1.12-.92-.43-.22-.9-.33-1.4-.33s-.97.11-1.4.34c-.43.23-.81.54-1.12.94-.32.4-.57.87-.75,1.42-.18.55-.27,1.15-.27,1.79Z"/>
      <path class="cls-1" d="M148.73,418.48h3.46v15.99c0,.55.12.98.36,1.28.24.3.59.46,1.04.46.21,0,.43-.04.68-.11.25-.08.49-.17.71-.28l.46,2.9c-.46.25-1.01.44-1.63.57-.62.13-1.18.2-1.68.2-1.09,0-1.93-.32-2.52-.95-.6-.63-.89-1.54-.89-2.72v-17.32Z"/>
      <path class="cls-1" d="M156.95,422.27v-3.78h3.47v3.78h-3.47ZM156.95,439.25v-14.91h3.47v14.91h-3.47Z"/>
      <path class="cls-1" d="M168.67,439.54c-1.14,0-2.25-.2-3.34-.6-1.09-.4-2.02-.97-2.79-1.71l1.29-2.39c.83.65,1.63,1.13,2.42,1.46.78.33,1.56.5,2.34.5.69,0,1.23-.14,1.63-.43.4-.28.59-.69.59-1.22s-.23-.92-.7-1.17c-.47-.25-1.22-.53-2.28-.85-.88-.27-1.63-.52-2.25-.77-.62-.25-1.12-.53-1.5-.84-.38-.31-.66-.67-.83-1.08-.17-.41-.26-.9-.26-1.46,0-.76.13-1.44.4-2.05.27-.61.64-1.12,1.12-1.55.48-.43,1.05-.75,1.69-.98s1.35-.34,2.11-.34c1.02,0,1.97.16,2.86.48.89.32,1.7.84,2.44,1.56l-1.4,2.3c-.69-.57-1.36-.99-2-1.25-.65-.27-1.29-.4-1.93-.4-.59,0-1.08.13-1.47.4-.4.27-.59.69-.59,1.28,0,.27.05.48.14.65.09.17.25.32.45.46.21.13.48.26.81.38.34.12.75.25,1.25.38.93.27,1.73.53,2.39.8.66.27,1.21.57,1.63.91s.73.74.93,1.18c.2.45.3.98.3,1.61,0,1.46-.49,2.61-1.47,3.46-.98.84-2.32,1.27-4.01,1.27Z"/>
      <path class="cls-1" d="M188.99,439.25h-3.46v-8.36c0-1.18-.2-2.04-.6-2.6-.4-.56-.96-.84-1.68-.84-.31,0-.64.08-.98.23-.35.15-.67.37-.98.64-.31.27-.59.6-.85.98-.26.38-.45.8-.57,1.25v8.71h-3.47v-20.77h3.47v8.62c.5-.97,1.18-1.71,2.03-2.23.85-.52,1.8-.78,2.83-.78.88,0,1.59.17,2.15.5.55.33.98.77,1.29,1.32.31.55.53,1.18.65,1.88.12.7.18,1.42.18,2.16v9.3Z"/>
      <path class="cls-1" d="M202.98,419.05h3.16l6.98,20.2h-3.67l-1.71-5.04h-6.41l-1.68,5.04h-3.67l7.01-20.2ZM207.1,431.46l-2.54-7.94-2.64,7.94h5.17Z"/>
      <path class="cls-1" d="M213.59,431.8c0-1.04.16-2.03.49-2.96.33-.93.8-1.74,1.42-2.45.62-.7,1.37-1.26,2.25-1.68.88-.42,1.87-.63,2.97-.63,1.48,0,2.75.35,3.79,1.05s1.82,1.62,2.34,2.76l-3.39,1.14c-.29-.55-.68-.97-1.16-1.27-.48-.29-1.02-.44-1.6-.44-.5,0-.97.11-1.4.33-.43.22-.81.52-1.12.91-.32.39-.57.86-.75,1.41-.18.55-.27,1.16-.27,1.82s.09,1.27.28,1.82c.19.55.44,1.02.76,1.42.32.4.69.71,1.12.92.43.22.89.33,1.37.33.62,0,1.19-.17,1.72-.51.53-.34.89-.76,1.1-1.25l3.39,1.14c-.47,1.14-1.23,2.07-2.3,2.79-1.07.72-2.35,1.08-3.85,1.08-1.1,0-2.09-.21-2.97-.63-.88-.42-1.63-.98-2.25-1.69-.62-.71-1.1-1.54-1.44-2.47-.34-.94-.5-1.92-.5-2.94Z"/>
      <path class="cls-1" d="M232.72,439.54c-.66,0-1.27-.12-1.84-.36-.57-.24-1.06-.57-1.47-1-.41-.43-.74-.92-.97-1.49-.23-.57-.35-1.19-.35-1.88s.14-1.35.43-1.95c.28-.6.68-1.1,1.19-1.52s1.12-.74,1.82-.98,1.48-.36,2.33-.36c.6,0,1.19.06,1.77.17.58.11,1.09.27,1.54.48v-.85c0-.99-.25-1.74-.76-2.28-.51-.53-1.26-.8-2.26-.8-.72,0-1.43.14-2.12.43-.69.28-1.4.7-2.12,1.25l-1.06-2.42c1.74-1.27,3.62-1.91,5.64-1.91s3.46.53,4.54,1.58c1.08,1.05,1.62,2.57,1.62,4.57v4.64c0,.4.06.68.19.85.13.17.34.27.63.28v3.24c-.59.13-1.09.2-1.53.2-.66,0-1.16-.16-1.51-.48-.35-.32-.57-.75-.66-1.28l-.08-.83c-.6.87-1.34,1.54-2.2,1.99-.86.46-1.78.68-2.77.68ZM233.71,436.75c.59,0,1.14-.11,1.67-.34.53-.23.93-.53,1.23-.91.38-.32.57-.68.57-1.08v-1.71c-.41-.17-.86-.31-1.34-.41-.48-.1-.95-.16-1.4-.16-.9,0-1.63.22-2.2.67-.57.45-.85,1.01-.85,1.69,0,.64.22,1.18.67,1.61.45.43,1,.64,1.66.64Z"/>
      <path class="cls-1" d="M249.48,439.54c-.93,0-1.79-.2-2.59-.6s-1.47-.95-2.04-1.65c-.57-.7-1.01-1.52-1.33-2.46-.32-.94-.48-1.95-.48-3.03s.15-2.09.45-3.02c.3-.93.72-1.74,1.25-2.45.53-.7,1.17-1.25,1.91-1.65.74-.4,1.55-.6,2.43-.6,1,0,1.9.27,2.7.8s1.43,1.22,1.88,2.08v-8.48h3.47v16.39c0,.4.06.68.18.85.12.17.33.27.62.28v3.24c-.6.13-1.1.2-1.47.2-.62,0-1.13-.17-1.53-.51-.4-.34-.62-.79-.67-1.34l-.08-.94c-.5.95-1.18,1.66-2.03,2.15s-1.75.73-2.68.73ZM250.39,436.29c.33,0,.66-.06,1.01-.19.34-.12.66-.3.96-.53.29-.23.56-.49.79-.8.23-.3.41-.64.53-1v-3.56c-.14-.42-.33-.8-.58-1.15-.25-.35-.53-.65-.85-.91-.32-.26-.66-.46-1.01-.61-.35-.15-.7-.23-1.05-.23-.52,0-1,.12-1.44.37-.44.25-.81.58-1.12,1.01-.31.43-.55.92-.72,1.46-.17.55-.26,1.12-.26,1.71,0,.63.09,1.2.28,1.73.19.53.45,1,.78,1.39.33.4.72.71,1.18.94.46.23.96.34,1.51.34Z"/>
      <path class="cls-1" d="M266.84,439.54c-1.09,0-2.07-.2-2.95-.61-.88-.41-1.63-.96-2.25-1.66-.62-.7-1.1-1.52-1.44-2.45-.34-.93-.5-1.91-.5-2.93s.16-2.06.49-3c.33-.94.8-1.76,1.42-2.48.62-.71,1.38-1.27,2.26-1.69.89-.42,1.88-.63,2.99-.63s2.09.21,2.96.63c.87.42,1.61.98,2.22,1.68.61.7,1.08,1.52,1.4,2.45.32.93.48,1.9.48,2.9,0,.25,0,.48-.01.71s-.03.42-.06.57h-10.47c.05.59.18,1.11.39,1.56s.47.84.8,1.17c.33.32.7.57,1.11.74.41.17.84.26,1.29.26.69,0,1.34-.19,1.95-.55s1.03-.86,1.25-1.46l2.97.91c-.5,1.14-1.3,2.07-2.39,2.8-1.1.73-2.4,1.1-3.92,1.1ZM270.35,430.55c-.09-1.12-.46-2.01-1.12-2.69-.66-.67-1.47-1.01-2.42-1.01-.47,0-.9.09-1.31.27-.41.18-.76.43-1.07.75-.31.32-.57.71-.76,1.17-.2.46-.31.96-.35,1.51h7.03Z"/>
      <path class="cls-1" d="M297.09,439.25h-3.47v-8.36c0-1.19-.19-2.07-.56-2.62-.37-.55-.88-.83-1.54-.83-.69,0-1.34.29-1.94.87-.6.58-1.03,1.33-1.29,2.26v8.68h-3.47v-8.36c0-1.19-.19-2.07-.56-2.62-.37-.55-.88-.83-1.54-.83s-1.31.28-1.93.85-1.05,1.32-1.31,2.25v8.71h-3.47v-14.91h3.13v2.76c.5-.97,1.18-1.71,2.06-2.23.87-.52,1.87-.78,2.99-.78s2.02.3,2.64.91c.62.61,1.02,1.36,1.19,2.25.55-1.02,1.25-1.81,2.09-2.35s1.81-.81,2.9-.81c.83,0,1.51.17,2.04.51s.95.79,1.24,1.34c.29.55.5,1.18.61,1.88.11.7.17,1.41.17,2.13v9.3Z"/>
      <path class="cls-1" d="M300.09,442.15c.29.09.58.17.85.21.28.05.51.07.7.07.22,0,.43-.05.62-.14.19-.1.36-.26.52-.5.16-.24.31-.56.46-.98.16-.42.32-.94.49-1.56l-5.35-14.91h3.57l3.67,11.61,3.26-11.61h3.26l-5.69,17.86c-.33,1.04-.89,1.9-1.68,2.56s-1.78,1-2.95,1c-.28,0-.56-.02-.84-.07-.28-.05-.58-.13-.89-.24v-3.3Z"/>
      <path class="cls-1" d="M325.8,439.54c-1.1,0-2.09-.21-2.97-.63-.88-.42-1.63-.98-2.24-1.69-.61-.71-1.08-1.53-1.41-2.46-.33-.93-.49-1.91-.49-2.93s.16-2.03.49-2.96c.33-.93.8-1.75,1.41-2.46.61-.71,1.36-1.27,2.24-1.69.88-.42,1.87-.63,2.97-.63s2.09.21,2.96.63c.87.42,1.61.98,2.22,1.69.61.71,1.08,1.53,1.41,2.46.33.93.49,1.92.49,2.96s-.16,2-.49,2.93c-.33.93-.79,1.75-1.4,2.46-.6.71-1.34,1.28-2.22,1.69-.88.42-1.87.63-2.97.63ZM322.26,431.83c0,.66.09,1.27.27,1.81s.43,1.01.75,1.41c.32.4.69.71,1.12.92.43.22.9.33,1.4.33s.97-.11,1.4-.33c.43-.22.81-.53,1.12-.92.32-.4.57-.87.75-1.42.18-.55.27-1.16.27-1.82s-.09-1.24-.27-1.79c-.18-.55-.43-1.02-.75-1.42-.32-.4-.69-.71-1.12-.92-.43-.22-.9-.33-1.4-.33s-.97.11-1.4.34c-.43.23-.81.54-1.12.94-.32.4-.57.87-.75,1.42-.18.55-.27,1.15-.27,1.79Z"/>
      <path class="cls-1" d="M335.83,439.25v-11.21h-1.78v-2.9h1.78v-.91c0-1.86.4-3.33,1.21-4.41s1.91-1.62,3.31-1.62c1.1,0,2.22.29,3.34.88l-.7,2.87c-.26-.15-.56-.28-.92-.38-.35-.1-.68-.16-.97-.16-1.21,0-1.81.89-1.81,2.67v1.05h3.31v2.9h-3.31v11.21h-3.46Z"/>
      <path class="cls-1" d="M361.51,424.35c-.12-.13-.34-.31-.66-.54s-.71-.45-1.16-.67c-.46-.22-.95-.4-1.49-.56-.54-.15-1.08-.23-1.63-.23-.98,0-1.71.2-2.2.6-.48.4-.72.96-.72,1.68,0,.42.09.76.27,1.04s.44.52.79.73c.34.21.78.4,1.31.57.53.17,1.13.35,1.82.54.9.27,1.71.55,2.44.85.73.3,1.35.68,1.86,1.14s.9,1,1.18,1.64.41,1.42.41,2.35c0,1.08-.19,2.01-.56,2.77-.37.77-.87,1.39-1.5,1.86-.63.47-1.35.82-2.17,1.04-.82.22-1.68.33-2.57.33-1.38,0-2.74-.23-4.09-.68s-2.55-1.1-3.62-1.93l1.58-3.39c.16.17.44.39.84.67.4.28.88.55,1.43.83s1.16.51,1.84.7c.67.19,1.36.28,2.07.28,1.97,0,2.95-.69,2.95-2.08,0-.44-.11-.81-.34-1.11-.22-.3-.54-.57-.96-.8s-.91-.44-1.5-.63-1.24-.4-1.97-.63c-.88-.27-1.64-.55-2.29-.87s-1.19-.68-1.62-1.11c-.43-.43-.75-.92-.97-1.48-.22-.56-.32-1.23-.32-2.01,0-1.02.17-1.93.52-2.73s.82-1.46,1.44-1.99c.61-.53,1.32-.93,2.13-1.21.81-.27,1.68-.41,2.61-.41,1.29,0,2.48.22,3.57.67,1.09.45,2.03.97,2.84,1.58l-1.58,3.19Z"/>
      <path class="cls-1" d="M365.24,431.8c0-1.04.16-2.03.49-2.96.33-.93.8-1.74,1.42-2.45.62-.7,1.37-1.26,2.25-1.68.88-.42,1.87-.63,2.97-.63,1.48,0,2.75.35,3.79,1.05s1.82,1.62,2.34,2.76l-3.39,1.14c-.29-.55-.68-.97-1.16-1.27-.48-.29-1.02-.44-1.6-.44-.5,0-.97.11-1.4.33-.43.22-.81.52-1.12.91-.32.39-.57.86-.75,1.41-.18.55-.27,1.16-.27,1.82s.09,1.27.28,1.82c.19.55.44,1.02.76,1.42.32.4.69.71,1.12.92.43.22.89.33,1.37.33.62,0,1.19-.17,1.72-.51.53-.34.89-.76,1.1-1.25l3.39,1.14c-.47,1.14-1.23,2.07-2.3,2.79-1.07.72-2.35,1.08-3.85,1.08-1.1,0-2.09-.21-2.97-.63-.88-.42-1.63-.98-2.25-1.69-.62-.71-1.1-1.54-1.44-2.47-.34-.94-.5-1.92-.5-2.94Z"/>
      <path class="cls-1" d="M380.68,422.27v-3.78h3.47v3.78h-3.47ZM380.68,439.25v-14.91h3.47v14.91h-3.47Z"/>
      <path class="cls-1" d="M393.55,439.54c-1.09,0-2.07-.2-2.95-.61-.88-.41-1.63-.96-2.25-1.66-.62-.7-1.1-1.52-1.44-2.45-.34-.93-.5-1.91-.5-2.93s.16-2.06.49-3c.33-.94.8-1.76,1.42-2.48.62-.71,1.38-1.27,2.26-1.69.89-.42,1.88-.63,2.99-.63s2.09.21,2.96.63c.87.42,1.61.98,2.22,1.68.61.7,1.08,1.52,1.4,2.45.32.93.48,1.9.48,2.9,0,.25,0,.48-.01.71s-.03.42-.06.57h-10.47c.05.59.18,1.11.39,1.56s.47.84.8,1.17c.33.32.7.57,1.11.74.41.17.84.26,1.29.26.69,0,1.34-.19,1.95-.55s1.03-.86,1.25-1.46l2.97.91c-.5,1.14-1.3,2.07-2.39,2.8-1.1.73-2.4,1.1-3.92,1.1ZM397.07,430.55c-.09-1.12-.46-2.01-1.12-2.69-.66-.67-1.47-1.01-2.42-1.01-.47,0-.9.09-1.31.27-.41.18-.76.43-1.07.75-.31.32-.57.71-.76,1.17-.2.46-.31.96-.35,1.51h7.03Z"/>
      <path class="cls-1" d="M415.36,439.25h-3.46v-8.36c0-1.19-.19-2.07-.57-2.62-.38-.55-.91-.83-1.58-.83-.35,0-.7.08-1.06.23-.36.15-.7.37-1.02.64-.32.27-.61.6-.87.98-.26.38-.45.8-.57,1.25v8.71h-3.47v-14.91h3.13v2.76c.5-.95,1.22-1.69,2.17-2.22s2.02-.8,3.21-.8c.84,0,1.53.17,2.07.51.53.34.95.79,1.24,1.34.29.55.5,1.18.61,1.88.11.7.17,1.41.17,2.13v9.3Z"/>
      <path class="cls-1" d="M417.53,431.8c0-1.04.16-2.03.49-2.96.33-.93.8-1.74,1.42-2.45.62-.7,1.37-1.26,2.25-1.68.88-.42,1.87-.63,2.97-.63,1.48,0,2.75.35,3.79,1.05s1.82,1.62,2.34,2.76l-3.39,1.14c-.29-.55-.68-.97-1.16-1.27-.48-.29-1.02-.44-1.6-.44-.5,0-.97.11-1.4.33-.43.22-.81.52-1.12.91-.32.39-.57.86-.75,1.41-.18.55-.27,1.16-.27,1.82s.09,1.27.28,1.82c.19.55.44,1.02.76,1.42.32.4.69.71,1.12.92.43.22.89.33,1.37.33.62,0,1.19-.17,1.72-.51.53-.34.89-.76,1.1-1.25l3.39,1.14c-.47,1.14-1.23,2.07-2.3,2.79-1.07.72-2.35,1.08-3.85,1.08-1.1,0-2.09-.21-2.97-.63-.88-.42-1.63-.98-2.25-1.69-.62-.71-1.1-1.54-1.44-2.47-.34-.94-.5-1.92-.5-2.94Z"/>
      <path class="cls-1" d="M439.12,439.54c-1.09,0-2.07-.2-2.95-.61-.88-.41-1.63-.96-2.25-1.66-.62-.7-1.1-1.52-1.44-2.45-.34-.93-.5-1.91-.5-2.93s.16-2.06.49-3c.33-.94.8-1.76,1.42-2.48.62-.71,1.38-1.27,2.26-1.69.89-.42,1.88-.63,2.99-.63s2.09.21,2.96.63c.87.42,1.61.98,2.22,1.68.61.7,1.08,1.52,1.4,2.45.32.93.48,1.9.48,2.9,0,.25,0,.48-.01.71s-.03.42-.06.57h-10.47c.05.59.18,1.11.39,1.56s.47.84.8,1.17c.33.32.7.57,1.11.74.41.17.84.26,1.29.26.69,0,1.34-.19,1.95-.55s1.03-.86,1.25-1.46l2.97.91c-.5,1.14-1.3,2.07-2.39,2.8-1.1.73-2.4,1.1-3.92,1.1ZM442.64,430.55c-.09-1.12-.46-2.01-1.12-2.69-.66-.67-1.47-1.01-2.42-1.01-.47,0-.9.09-1.31.27-.41.18-.76.43-1.07.75-.31.32-.57.71-.76,1.17-.2.46-.31.96-.35,1.51h7.03Z"/>
      <path class="cls-1" d="M453.45,439.54c-1.14,0-2.25-.2-3.34-.6-1.09-.4-2.02-.97-2.79-1.71l1.29-2.39c.83.65,1.63,1.13,2.42,1.46.78.33,1.56.5,2.34.5.69,0,1.23-.14,1.63-.43.4-.28.59-.69.59-1.22s-.23-.92-.7-1.17c-.47-.25-1.22-.53-2.28-.85-.88-.27-1.63-.52-2.25-.77-.62-.25-1.12-.53-1.5-.84-.38-.31-.66-.67-.83-1.08-.17-.41-.26-.9-.26-1.46,0-.76.13-1.44.4-2.05.27-.61.64-1.12,1.12-1.55.48-.43,1.05-.75,1.69-.98s1.35-.34,2.11-.34c1.02,0,1.97.16,2.86.48.89.32,1.7.84,2.44,1.56l-1.4,2.3c-.69-.57-1.36-.99-2-1.25-.65-.27-1.29-.4-1.93-.4-.59,0-1.08.13-1.47.4-.4.27-.59.69-.59,1.28,0,.27.05.48.14.65.09.17.25.32.45.46.21.13.48.26.81.38.34.12.75.25,1.25.38.93.27,1.73.53,2.39.8.66.27,1.21.57,1.63.91s.73.74.93,1.18c.2.45.3.98.3,1.61,0,1.46-.49,2.61-1.47,3.46-.98.84-2.32,1.27-4.01,1.27Z"/>
    </g>
  </g>
  <path class="cls-1" d="M400.95,350.74l-29.42-33.88v34.79h-10.92v-40.33l10.17-12.02,19.25,21.66v-21.66h10.92v51.45ZM349.49,351.64h-10.17v-7.38h-19.25l9.61-12.78h9.64v-18.32l-30.17,38.48v-16.82l29.04-35.54h11.29v52.36ZM299.55,303.73c4.91,4.69,6.88,10.86,5.9,18.5-.6,5.44-2.77,9.7-6.48,12.78-3.56,2.46-8.57,3.69-14.98,3.69v-12.95c3.7,0,5.92-.18,6.68-.55.23-.11.48-.24.73-.38,2.96-1.84,3.82-4.49,2.59-7.96-.49-.98-1.1-1.84-1.83-2.58-.37-.48-.87-.91-1.48-1.28-1.24-.75-4.2-1.06-8.88-.93v39.58h-10.92v-40.33l10.37-12.02c6.66,0,11.03.37,13.13,1.1,1.97.74,3.7,1.85,5.2,3.34ZM478.48,224.14v-37.55c0-2.95-1.42-4.93-4.24-5.92l-.2-.2h-.18c-.5-.11-1.06-.18-1.66-.18h-49.97c-2.96,0-4.94,1.42-5.92,4.27-.25.62-.38,1.3-.38,2.03v37.55c0,2.96,1.42,4.94,4.27,5.92h.18l.18.2c.5.12,1.06.18,1.68.18h49.97c2.95,0,4.93-1.41,5.9-4.24.25-.75.38-1.44.38-2.06ZM478.48,349.06v-107.33c0-2.95-1.42-4.93-4.24-5.92l-.2-.18h-.18c-.5-.13-1.06-.2-1.66-.2h-49.97c-2.96,0-4.94,1.42-5.92,4.27-.25.62-.38,1.3-.38,2.03v107.33c0,2.96,1.42,4.94,4.27,5.92l.18.2h.18c.5.12,1.06.18,1.68.18h49.97c2.95,0,4.93-1.42,5.9-4.27.25-.62.38-1.29.38-2.03ZM347.08,235.43h-91.21v-5h91.21c1.6,0,2.41.81,2.41,2.41.13.12.13.25,0,.38,0,1.47-.81,2.21-2.41,2.21ZM409.63,279.1v-92.52c0-2.95-1.42-4.93-4.24-5.92l-.18-.2h-.2c-.49-.11-1.04-.18-1.66-.18h-203.76c-2.96,0-4.94,1.42-5.92,4.27-.25.62-.38,1.3-.38,2.03v162.47c0,2.96,1.42,4.94,4.27,5.92h.18c.62.25,1.24.38,1.86.38h49.97c2.96,0,4.93-1.42,5.92-4.27.25-.62.38-1.29.38-2.03v-63.65h147.48c2.96,0,4.93-1.42,5.92-4.27v-.18c.23-.61.35-1.24.35-1.86ZM187.02,224.14v-37.55c0-2.95-1.42-4.93-4.27-5.92h-.18c-.62-.24-1.24-.38-1.86-.38h-49.97c-2.96,0-4.94,1.42-5.92,4.27-.24.62-.35,1.3-.35,2.03v37.55c0,2.96,1.41,4.94,4.24,5.92.62.25,1.29.38,2.03.38h49.97c2.95,0,4.93-1.41,5.92-4.24.24-.75.38-1.44.38-2.06ZM187.02,349.06v-107.33c0-2.95-1.42-4.93-4.27-5.92h-.18c-.62-.24-1.24-.38-1.86-.38h-49.97c-2.96,0-4.94,1.42-5.92,4.27-.24.62-.35,1.3-.35,2.03v107.33c0,2.96,1.41,4.94,4.24,5.92.62.25,1.29.38,2.03.38h49.97c2.95,0,4.93-1.42,5.92-4.27.24-.62.38-1.29.38-2.03ZM484.78,349.06c0,4.82-2.17,8.22-6.48,10.19-1.49.74-3.1,1.1-4.82,1.1h-63.85v-69.95h-147.49v69.95h-132.68c-4.82,0-8.22-2.16-10.19-6.48-.74-1.49-1.11-3.09-1.11-4.82v-162.47c0-4.81,2.16-8.21,6.48-10.19,1.49-.73,3.09-1.11,4.82-1.11h344.02c4.81,0,8.21,2.17,10.19,6.48.73,1.49,1.11,3.1,1.11,4.82v162.47Z"/>
</svg>