<svg width="605" height="149" viewBox="0 0 605 149" fill="none" xmlns="http://www.w3.org/2000/svg">
<path d="M13.3561 56.1381L39.6593 27.8696H53.8453L26.7589 56.1381L56.2983 90.3323H41.8611L13.3561 56.1381ZM0.337463 0H11.9375V90.3175H0.337463V0Z" fill="#012438"/>
<path d="M94.4673 83.7572C96.1076 83.5799 97.6887 83.107 99.2403 82.3386C100.792 81.6588 101.885 80.5062 102.536 78.9103C103.186 77.3144 103.496 75.1126 103.496 72.2754V46.977C103.496 43.1054 103.023 40.2978 102.078 38.5245C101.132 36.7661 99.5211 35.5987 97.2307 35.0372C94.955 34.4756 91.4085 34.2096 86.5912 34.2096C81.7738 34.2096 78.2273 34.4904 75.9517 35.0372C73.6612 35.5987 72.0653 36.7661 71.1048 38.5245C70.159 40.283 69.6862 43.1054 69.6862 46.977V72.2754C69.6862 75.1126 70.0113 77.3292 70.6467 78.9103C71.2969 80.5062 72.3904 81.6441 73.942 82.3386C75.4936 83.107 77.0747 83.5799 78.715 83.7572C80.3552 83.9345 82.9708 84.0232 86.5912 84.0232C90.2115 84.0232 92.8271 83.9345 94.4673 83.7572ZM74.2227 91.0423C71.4742 90.6581 68.7257 89.8158 65.9771 88.5302C63.1399 87.2446 61.0712 85.1462 59.7855 82.2647C58.4999 79.3832 57.8497 75.4968 57.8497 70.5908V48.9128C57.8497 45.0412 58.3226 41.6425 59.2683 38.7166C60.2141 35.7908 61.4701 33.5151 63.0217 31.8749C64.3073 30.4119 66.2727 29.2741 68.8882 28.4466C71.5038 27.6338 74.1932 27.0871 76.9565 26.8359C80.0597 26.6586 83.2811 26.5699 86.6207 26.5699C91.0982 26.5699 94.4673 26.6733 96.743 26.895C99.0187 27.1166 101.457 27.5599 104.028 28.2545C106.688 29.0229 108.757 30.1903 110.22 31.7419C111.683 33.2934 112.924 35.5396 113.958 38.4507C114.904 41.4652 115.377 44.9526 115.377 48.898V70.576C115.377 77.8907 113.692 83.2104 110.338 86.5796C108.964 87.9539 106.984 89.0326 104.398 89.801C101.826 90.5842 99.1517 91.0866 96.4031 91.3526C93.1374 91.5299 89.8569 91.6186 86.6059 91.6186C81.1089 91.6186 76.986 91.4265 74.2227 91.0275V91.0423Z" fill="#012438"/>
<path d="M165.664 81.436C168.501 79.9731 169.919 77.4758 169.919 73.9441V43.1043C169.919 37.5186 164.201 34.7257 152.763 34.7257C145.892 34.7257 141.414 35.2429 139.346 36.2773C137.188 37.3117 136.124 39.5874 136.124 43.1191V73.9588C136.124 77.4906 137.306 79.9879 139.671 81.4508C142.035 82.9137 146.054 83.6526 151.729 83.6526C158.186 83.6526 162.812 82.9285 165.664 81.4508V81.436ZM134.706 89.7555C131.174 88.5143 128.617 86.4602 127.036 83.623C125.44 80.7858 124.657 76.8256 124.657 71.7571V44.2717C124.657 37.9914 126.608 33.4697 130.524 30.7211C134.425 27.9726 140.912 26.5983 149.941 26.5983C155.349 26.5983 160.019 27.2928 163.935 28.6671C167.851 30.0414 169.845 32.0215 169.934 34.6075H170.2L169.934 18.7369V0.0291367H181.534V90.3466H170.185V82.9876C170.185 85.3076 168.338 87.2878 164.644 88.928C160.935 90.7308 155.837 91.6322 149.305 91.6322C143.114 91.6322 138.252 90.9968 134.735 89.7555H134.706Z" fill="#012438"/>
<path d="M237.495 72.2743C237.495 75.1263 237.185 77.3281 236.534 78.924C235.899 80.52 234.791 81.6578 233.239 82.3523C231.688 83.1207 230.106 83.5936 228.481 83.7709C226.841 83.9482 224.225 84.0221 220.605 84.0221C216.984 84.0221 214.369 83.9482 212.729 83.7709C211.088 83.5936 209.507 83.1207 207.97 82.3523C206.419 81.6578 205.31 80.52 204.675 78.924C204.025 77.3281 203.715 75.1263 203.715 72.2743V46.9908C203.715 43.1192 204.187 40.2968 205.133 38.5383C206.079 36.7798 207.69 35.6124 209.965 35.0509C212.256 34.4894 215.787 34.2086 220.605 34.2086C225.422 34.2086 228.969 34.4894 231.244 35.0509C233.52 35.6124 235.131 36.7798 236.076 38.5383C237.022 40.2968 237.495 43.1044 237.495 46.9908V72.2743ZM247.942 38.4792C246.908 35.5533 245.667 33.3072 244.204 31.7704C242.741 30.2188 240.672 29.0662 238.012 28.283C235.441 27.6032 233.003 27.1452 230.727 26.9235C228.451 26.7166 225.082 26.6132 220.605 26.6132C217.25 26.6132 214.029 26.7018 210.941 26.8644C208.177 27.1304 205.488 27.6624 202.872 28.4751C200.257 29.3026 198.291 30.4404 197.006 31.9034C195.454 33.5436 194.213 35.8193 193.267 38.7452C192.321 41.671 191.849 45.0697 191.849 48.9413V70.6341C191.849 75.5253 192.484 79.4264 193.77 82.308C195.055 85.1895 197.124 87.2731 199.961 88.5587C202.71 89.8443 205.458 90.6866 208.207 91.0856C210.97 91.4698 215.093 91.6619 220.59 91.6619C223.856 91.6619 227.121 91.5732 230.387 91.3959C233.136 91.1447 235.81 90.6275 238.382 89.8443C238.869 89.6965 239.342 89.534 239.785 89.3714L249.331 62.0781V48.9413C249.331 44.9811 248.858 41.5085 247.913 38.4939L247.942 38.4792Z" fill="#012438"/>
<path d="M315.34 77.6834C315.34 80.5206 313.405 82.3234 309.533 83.1066C306.607 83.7125 303.031 84.0228 298.82 84.0228H296.5C293.396 84.0228 291.076 83.6534 289.525 82.9293C287.973 82.1904 286.909 80.9935 286.303 79.3089C285.698 77.6243 285.387 75.2452 285.387 72.142C285.387 68.699 285.653 66.2016 286.17 64.65C286.673 63.0984 287.766 62.0493 289.392 61.4877C291.032 60.941 293.707 60.6602 297.386 60.6602H315.311V77.6834H315.34ZM325.005 33.8103C323.719 31.1504 321.355 29.2737 317.912 28.195C314.469 27.1163 309.149 26.5843 301.923 26.5843C297.342 26.5843 292.392 26.7616 287.087 27.1015L284.116 35.6426C289.894 35.0072 295.273 34.7117 300.238 34.7117C304.272 34.7117 307.346 34.9777 309.459 35.4949C311.557 36.0121 313.065 36.8987 313.981 38.14C314.882 39.3812 315.34 41.1693 315.34 43.5041V53.4342H296.647C290.707 53.4342 286.141 53.981 282.905 55.1188C279.683 56.2419 277.408 58.1038 276.078 60.7341C274.733 63.3497 274.068 67.0439 274.068 71.7578C274.068 77.0923 274.777 81.1856 276.196 84.0228C277.614 86.86 279.934 88.8401 283.156 89.9632C286.377 91.0862 290.958 91.6478 296.884 91.6478C308.484 91.6478 314.764 89.2391 315.725 84.4218V90.3622H326.94V46.2378C326.94 40.6521 326.29 36.5145 325.005 33.8399V33.8103Z" fill="#012438"/>
<path d="M486.489 77.6834C486.489 80.5206 484.553 82.3234 480.681 83.1066C477.755 83.7125 474.179 84.0228 469.968 84.0228H467.648C464.545 84.0228 462.225 83.6534 460.673 82.9293C459.121 82.1904 458.057 80.9935 457.452 79.3089C456.846 77.6243 456.535 75.2452 456.535 72.142C456.535 68.699 456.801 66.2016 457.319 64.65C457.821 63.0984 458.915 62.0493 460.54 61.4877C462.18 60.941 464.855 60.6602 468.534 60.6602H486.459V77.6834H486.489ZM496.153 33.8103C494.867 31.1504 492.503 29.2737 489.06 28.195C485.617 27.1163 480.297 26.5843 473.071 26.5843C468.49 26.5843 463.54 26.7616 458.235 27.1015L455.265 35.6426C461.042 35.0072 466.421 34.7117 471.386 34.7117C475.421 34.7117 478.494 34.9777 480.607 35.4949C482.706 36.0121 484.213 36.8987 485.129 38.14C486.03 39.3812 486.489 41.1693 486.489 43.5041V53.4342H467.796C461.855 53.4342 457.289 53.981 454.053 55.1188C450.831 56.2419 448.556 58.1038 447.226 60.7341C445.881 63.3497 445.216 67.0439 445.216 71.7578C445.216 77.0923 445.925 81.1856 447.344 84.0228C448.763 86.86 451.083 88.8401 454.304 89.9632C457.525 91.0862 462.106 91.6478 468.032 91.6478C479.632 91.6478 485.912 89.2391 486.873 84.4218V90.3622H498.089V46.2378C498.089 40.6521 497.438 36.5145 496.153 33.8399V33.8103Z" fill="#012438"/>
<path d="M340.624 27.885H352.224V35.4952C353.421 29.5549 360.425 26.5847 373.252 26.5847C383.655 26.5847 390.142 29.4219 392.728 35.0963C393.496 32.3477 395.846 30.2346 399.762 28.7717C403.663 27.3087 408.466 26.5699 414.14 26.5699C421.883 26.5699 427.336 28.0033 430.528 30.8848C433.705 33.7663 435.301 38.3029 435.301 44.4945V90.3034H423.701V45.2777C423.701 43.6374 423.568 42.3075 423.316 41.2731C423.065 40.2387 422.548 39.2043 421.765 38.1699C420.051 36.0272 416.223 34.9485 410.283 34.9485C405.732 34.9485 402.318 35.2588 400.102 35.8499C397.856 36.4557 396.334 37.4901 395.521 38.9531C394.693 40.416 394.294 42.5291 394.294 45.2777V90.3034H382.694V45.2777C382.694 43.6374 382.561 42.3075 382.31 41.2731C382.059 40.2387 381.542 39.2043 380.759 38.1699C379.044 36.0272 375.261 34.9485 369.41 34.9485C364.681 34.9485 361.105 35.2588 358.696 35.8499C356.288 36.4557 354.618 37.4606 353.657 38.8792C352.712 40.2978 352.239 42.4257 352.239 45.2777V90.3034H340.639V27.8555L340.624 27.885Z" fill="#012438"/>
<path d="M522.663 38.9228C523.49 37.2382 524.938 36.0856 527.051 35.4354C529.164 34.7852 532.445 34.4749 536.908 34.4749C541.37 34.4749 545.759 34.933 550.562 35.8344L553.31 27.973C548.316 27.0568 543.321 26.5987 538.326 26.5987C534.898 26.5987 532.238 26.6579 530.332 26.7908C528.44 26.9238 526.298 27.1603 523.874 27.5001C521.466 27.84 519.515 28.4754 518.008 29.3768C516.501 30.293 515.023 31.5934 513.56 33.3075C510.9 36.3368 509.57 41.3167 509.57 48.2767V71.2551C509.57 75.1267 510.087 78.3481 511.122 80.9341C512.156 83.5939 513.397 85.6184 514.875 87.0074C516.323 88.3817 518.392 89.4161 521.052 90.1106C523.549 90.7904 525.766 91.2337 527.702 91.3962C528.573 91.4701 529.696 91.544 531.071 91.5735C532.711 91.6327 534.706 91.6474 537.041 91.6474C539.109 91.6474 541.119 91.6031 543.07 91.4997C543.602 91.4849 544.119 91.4406 544.636 91.411L547.621 82.8994C547.074 82.9585 546.542 83.0324 546.01 83.0767C543.41 83.3575 540.809 83.5053 538.208 83.5053C536.642 83.5053 535.223 83.4757 533.908 83.4018C531.337 83.2541 529.268 82.9733 527.687 82.5448C525.322 81.8946 523.682 80.8011 522.781 79.2495C521.879 77.6979 521.421 75.3335 521.421 72.1565V46.6069C521.421 43.1786 521.835 40.6074 522.648 38.9376L522.663 38.9228Z" fill="#012438"/>
<path d="M568.797 82.4563L603.878 35.7607V27.8845H560.463L557.729 35.7607H590.726L555.645 82.4563V90.3325H601.779L604.543 82.4563H568.797Z" fill="#012438"/>
<path d="M290.382 0L251.784 110.917H239.002L277.821 0H290.382Z" fill="#FF9D03"/>
<path d="M461.308 129.241C461.308 128.28 461.146 127.349 460.791 126.477C460.451 125.606 460.008 124.852 459.432 124.202C458.855 123.552 458.176 123.049 457.392 122.665C456.609 122.281 455.767 122.103 454.866 122.103C453.964 122.103 453.122 122.296 452.339 122.665C451.555 123.049 450.861 123.552 450.27 124.202C449.664 124.852 449.191 125.606 448.851 126.477C448.497 127.349 448.334 128.265 448.334 129.241C448.334 130.216 448.511 131.117 448.851 131.975C449.191 132.817 449.679 133.556 450.27 134.191C450.876 134.826 451.555 135.329 452.339 135.698C453.122 136.083 453.964 136.26 454.866 136.26C455.767 136.26 456.609 136.068 457.392 135.698C458.176 135.329 458.855 134.826 459.432 134.191C460.008 133.556 460.466 132.817 460.791 131.975C461.131 131.132 461.308 130.216 461.308 129.241ZM464.485 129.241C464.485 130.645 464.234 131.945 463.747 133.157C463.259 134.368 462.594 135.432 461.752 136.363C460.909 137.279 459.89 138.018 458.708 138.536C457.525 139.053 456.24 139.319 454.866 139.319C453.491 139.319 452.147 138.964 450.964 138.27C449.782 137.575 448.866 136.718 448.201 135.713V138.816H445.142V110.932H448.319V122.429C449.014 121.468 449.945 120.67 451.068 120.005C452.206 119.34 453.462 119.015 454.866 119.015C456.269 119.015 457.511 119.281 458.708 119.828C459.905 120.375 460.909 121.099 461.752 122.03C462.594 122.946 463.274 124.039 463.747 125.266C464.234 126.492 464.485 127.822 464.485 129.211V129.241Z" fill="#012438"/>
<path d="M484.42 119.562V140.249C484.42 141.52 484.213 142.643 483.799 143.633C483.385 144.623 482.824 145.466 482.1 146.16C481.376 146.855 480.518 147.387 479.543 147.741C478.553 148.111 477.504 148.288 476.381 148.288C475.361 148.288 474.401 148.14 473.544 147.86C472.672 147.564 471.889 147.15 471.194 146.604C470.5 146.042 469.909 145.377 469.436 144.609C468.963 143.826 468.638 142.939 468.46 141.934H471.711C472.051 142.983 472.628 143.781 473.381 144.372C474.15 144.949 475.154 145.244 476.396 145.244C477.888 145.244 479.07 144.786 479.942 143.885C480.814 142.968 481.243 141.772 481.243 140.279V137.397C480.046 138.668 478.42 139.304 476.381 139.304C475.258 139.304 474.209 139.112 473.219 138.727C472.229 138.343 471.371 137.796 470.662 137.102C469.938 136.407 469.377 135.565 468.963 134.575C468.549 133.585 468.342 132.491 468.342 131.265V119.591H471.519V131.265C471.519 132.713 471.963 133.91 472.834 134.841C473.706 135.772 474.903 136.245 476.396 136.245C477.888 136.245 479.07 135.772 479.942 134.841C480.814 133.91 481.257 132.713 481.257 131.265V119.591H484.434L484.42 119.562Z" fill="#012438"/>
<path d="M515.91 132.949C515.91 133.939 515.732 134.825 515.348 135.609C514.964 136.392 514.403 137.057 513.693 137.604C512.984 138.15 512.142 138.564 511.152 138.874C510.161 139.17 509.083 139.332 507.915 139.332C506.748 139.332 505.625 139.17 504.605 138.874C503.6 138.579 502.714 138.136 501.945 137.544C501.192 136.953 500.571 136.259 500.084 135.431C499.611 134.604 499.3 133.673 499.167 132.638H502.433C502.64 133.776 503.246 134.678 504.251 135.343C505.255 135.993 506.482 136.333 507.901 136.333C509.423 136.333 510.62 136.008 511.491 135.372C512.363 134.737 512.807 133.998 512.807 133.126C512.807 132.786 512.747 132.476 512.644 132.166C512.541 131.87 512.304 131.589 511.95 131.338C511.595 131.087 511.033 130.85 510.324 130.644C509.615 130.437 508.654 130.245 507.472 130.082C506.29 129.905 505.226 129.698 504.28 129.447C503.349 129.195 502.551 128.885 501.886 128.457C501.236 128.028 500.719 127.511 500.364 126.875C500.01 126.24 499.832 125.472 499.832 124.555C499.832 123.846 499.995 123.152 500.29 122.472C500.586 121.777 501.074 121.171 501.694 120.61C502.33 120.048 503.128 119.605 504.088 119.25C505.049 118.911 506.186 118.733 507.502 118.733C509.777 118.733 511.624 119.28 513.043 120.359C514.462 121.437 515.274 122.93 515.466 124.866H512.201C511.964 123.802 511.432 123.019 510.575 122.487C509.718 121.969 508.699 121.703 507.487 121.703C506.201 121.703 505.137 121.969 504.295 122.501C503.467 123.033 503.039 123.684 503.039 124.437C503.039 124.792 503.113 125.087 503.275 125.324C503.438 125.575 503.704 125.782 504.073 125.974C504.458 126.166 504.96 126.343 505.595 126.491C506.231 126.654 507.029 126.787 507.989 126.949C509.083 127.127 510.102 127.333 511.048 127.555C512.009 127.792 512.836 128.117 513.56 128.516C514.284 128.944 514.846 129.491 515.274 130.185C515.703 130.88 515.895 131.781 515.895 132.904L515.91 132.949Z" fill="#012438"/>
<path d="M534.869 129.092C534.869 128.102 534.691 127.171 534.337 126.285C533.982 125.398 533.509 124.63 532.889 123.979C532.283 123.329 531.573 122.797 530.775 122.428C529.978 122.044 529.12 121.866 528.219 121.866C527.318 121.866 526.446 122.058 525.633 122.428C524.82 122.812 524.126 123.329 523.549 123.979C522.958 124.63 522.5 125.413 522.16 126.285C521.821 127.171 521.643 128.102 521.643 129.092C521.643 130.082 521.806 130.999 522.16 131.856C522.5 132.713 522.958 133.466 523.549 134.117C524.126 134.767 524.82 135.269 525.633 135.653C526.446 136.038 527.303 136.215 528.219 136.215C529.135 136.215 529.978 136.023 530.775 135.653C531.573 135.269 532.268 134.767 532.889 134.117C533.494 133.466 533.982 132.713 534.337 131.856C534.691 130.999 534.869 130.082 534.869 129.092ZM538.09 138.845H534.972V135.683C534.278 136.703 533.347 137.56 532.165 138.269C530.982 138.978 529.652 139.333 528.219 139.333C526.786 139.333 525.5 139.067 524.303 138.535C523.121 138.003 522.087 137.264 521.215 136.318C520.343 135.373 519.663 134.294 519.161 133.038C518.658 131.797 518.422 130.467 518.422 129.048C518.422 127.629 518.673 126.285 519.161 125.029C519.663 123.773 520.343 122.679 521.215 121.748C522.087 120.832 523.121 120.078 524.303 119.546C525.485 119 526.8 118.719 528.219 118.719C529.638 118.719 530.982 119.073 532.165 119.783C533.347 120.492 534.292 121.349 534.972 122.339V119.221H538.09V138.83V138.845Z" fill="#012438"/>
<path d="M561.142 125.058C560.655 123.802 559.975 122.709 559.103 121.792C559 121.689 558.896 121.586 558.778 121.497C557.98 120.714 557.049 120.078 556 119.591C555.276 119.251 554.493 119.059 553.665 118.955C553.65 118.941 553.635 118.941 553.621 118.941C553.532 118.926 553.443 118.911 553.369 118.896C553.133 118.852 552.882 118.822 552.645 118.808C552.468 118.778 552.276 118.778 552.084 118.778C551.877 118.778 551.655 118.793 551.448 118.808C551.212 118.822 550.961 118.852 550.724 118.896C550.636 118.911 550.562 118.926 550.473 118.941C550.458 118.941 550.444 118.941 550.429 118.955C549.616 119.059 548.833 119.251 548.109 119.591C547.06 120.078 546.143 120.699 545.331 121.482C545.212 121.571 545.109 121.689 544.991 121.807C544.134 122.738 543.439 123.817 542.952 125.073C542.449 126.314 542.213 127.644 542.213 129.078C542.213 130.511 542.449 131.856 542.952 133.082C543.454 134.323 544.134 135.417 544.991 136.348C545.124 136.496 545.257 136.629 545.419 136.762C546.188 137.515 547.089 138.106 548.094 138.564C548.848 138.904 549.675 139.096 550.517 139.2C550.577 139.215 550.636 139.229 550.695 139.229C550.931 139.274 551.182 139.303 551.434 139.318C551.641 139.348 551.862 139.348 552.069 139.348C552.261 139.348 552.453 139.348 552.631 139.318C552.867 139.303 553.104 139.274 553.34 139.229C553.399 139.229 553.473 139.215 553.532 139.2H553.576C554.374 139.052 555.143 138.757 555.852 138.358C557.019 137.678 557.936 136.865 558.66 135.905V137.944C558.66 138.83 558.541 139.732 558.29 140.604C558.054 141.49 557.655 142.288 557.108 142.983C556.561 143.677 555.852 144.254 554.995 144.697C554.182 145.111 553.192 145.332 552.04 145.347C551.966 145.362 551.892 145.362 551.818 145.362C551.463 145.362 551.02 145.332 550.488 145.258C549.956 145.17 549.394 145.037 548.833 144.8C548.257 144.564 547.725 144.224 547.207 143.781C546.69 143.337 546.277 142.746 545.951 142.008H542.567C543.07 144.002 544.149 145.584 545.804 146.751C547.473 147.904 549.454 148.48 551.788 148.48C551.862 148.48 551.951 148.48 552.025 148.465C553.429 148.45 554.699 148.214 555.882 147.726C557.123 147.224 558.202 146.5 559.073 145.584C559.96 144.638 560.655 143.544 561.127 142.259C561.157 142.185 561.187 142.111 561.201 142.022C561.63 140.796 561.851 139.451 561.851 137.959V129.078C561.851 127.659 561.6 126.314 561.098 125.073L561.142 125.058ZM558.364 131.25C558.29 131.471 558.216 131.708 558.128 131.915C557.773 132.801 557.3 133.585 556.694 134.25C556.088 134.9 555.379 135.417 554.596 135.801C554.153 136.008 553.709 136.171 553.222 136.274C553.059 136.304 552.882 136.333 552.705 136.348C552.512 136.363 552.306 136.377 552.099 136.377C551.877 136.377 551.641 136.363 551.434 136.348C551.271 136.333 551.079 136.304 550.916 136.274C550.399 136.185 549.912 136.023 549.454 135.801C548.641 135.417 547.946 134.915 547.37 134.25C546.779 133.585 546.321 132.816 545.981 131.915C545.907 131.708 545.833 131.471 545.774 131.25C545.7 130.999 545.641 130.733 545.597 130.467C545.523 130.038 545.493 129.595 545.493 129.122C545.493 128.619 545.538 128.117 545.611 127.659C545.656 127.423 545.7 127.186 545.774 126.95C545.833 126.728 545.907 126.506 545.981 126.285C546.336 125.398 546.779 124.615 547.37 123.935C547.946 123.27 548.641 122.738 549.454 122.354C549.926 122.147 550.414 121.97 550.916 121.881C551.079 121.852 551.271 121.822 551.434 121.807C551.641 121.792 551.877 121.778 552.099 121.778C552.306 121.778 552.512 121.792 552.705 121.807C552.882 121.822 553.059 121.852 553.222 121.881C553.709 121.985 554.167 122.132 554.596 122.354C555.379 122.738 556.088 123.255 556.694 123.935C557.3 124.615 557.788 125.383 558.128 126.285C558.216 126.506 558.29 126.728 558.364 126.95C558.556 127.644 558.645 128.368 558.645 129.137C558.645 129.905 558.556 130.6 558.364 131.265V131.25Z" fill="#012438"/>
<path d="M581.83 127.008C581.623 126.225 581.313 125.501 580.899 124.851C580.471 124.2 579.983 123.624 579.436 123.166C578.875 122.693 578.254 122.338 577.589 122.072C576.924 121.821 576.23 121.688 575.52 121.688C574.811 121.688 574.161 121.807 573.496 122.058C572.816 122.309 572.196 122.649 571.634 123.107C571.073 123.565 570.555 124.112 570.112 124.777C569.669 125.442 569.344 126.181 569.152 127.023H581.845L581.83 127.008ZM584.948 132.742C584.254 134.855 583.131 136.465 581.535 137.588C579.939 138.726 578.003 139.273 575.727 139.273C574.309 139.273 572.994 139.007 571.782 138.475C570.555 137.943 569.506 137.219 568.605 136.318C567.703 135.401 566.994 134.337 566.477 133.081C565.96 131.84 565.694 130.495 565.694 129.047C565.694 127.599 565.945 126.299 566.477 125.043C566.994 123.787 567.703 122.693 568.59 121.777C569.477 120.861 570.511 120.107 571.708 119.575C572.89 119.028 574.176 118.748 575.55 118.748C576.821 118.748 578.047 118.999 579.229 119.501C580.412 120.018 581.476 120.743 582.407 121.703C583.338 122.664 584.076 123.831 584.608 125.205C585.155 126.565 585.436 128.131 585.436 129.875H568.974C569.078 130.88 569.344 131.796 569.757 132.594C570.186 133.392 570.688 134.071 571.309 134.618C571.93 135.165 572.624 135.594 573.378 135.889C574.146 136.185 574.915 136.318 575.727 136.318C577.116 136.318 578.299 135.993 579.274 135.357C580.249 134.722 581.003 133.835 581.535 132.697H584.948V132.742Z" fill="#012438"/>
<path d="M604.513 132.949C604.513 133.939 604.306 134.825 603.922 135.609C603.538 136.392 602.976 137.057 602.267 137.604C601.558 138.15 600.715 138.564 599.725 138.874C598.735 139.17 597.656 139.332 596.489 139.332C595.322 139.332 594.199 139.17 593.179 138.874C592.174 138.579 591.288 138.136 590.519 137.544C589.765 136.953 589.145 136.259 588.657 135.431C588.184 134.604 587.874 133.673 587.741 132.638H591.007C591.214 133.776 591.82 134.678 592.824 135.343C593.829 135.993 595.056 136.333 596.474 136.333C597.996 136.333 599.193 136.008 600.065 135.372C600.937 134.737 601.38 133.998 601.38 133.126C601.38 132.786 601.321 132.476 601.218 132.166C601.114 131.87 600.878 131.589 600.523 131.338C600.169 131.087 599.607 130.85 598.898 130.644C598.188 130.437 597.228 130.245 596.046 130.082C594.864 129.905 593.8 129.698 592.854 129.447C591.923 129.195 591.125 128.885 590.46 128.457C589.81 128.028 589.293 127.511 588.938 126.875C588.583 126.24 588.406 125.472 588.406 124.555C588.406 123.846 588.569 123.152 588.864 122.472C589.16 121.777 589.647 121.171 590.268 120.61C590.903 120.048 591.701 119.605 592.662 119.25C593.622 118.911 594.76 118.733 596.075 118.733C598.351 118.733 600.198 119.28 601.617 120.359C603.035 121.437 603.848 122.93 604.04 124.866H600.76C600.523 123.802 599.991 123.019 599.134 122.487C598.277 121.969 597.257 121.703 596.046 121.703C594.76 121.703 593.696 121.969 592.854 122.501C592.026 123.033 591.598 123.684 591.598 124.437C591.598 124.792 591.672 125.087 591.834 125.324C591.997 125.575 592.263 125.782 592.632 125.974C593.016 126.166 593.519 126.343 594.154 126.491C594.79 126.654 595.588 126.787 596.548 126.949C597.642 127.127 598.661 127.333 599.607 127.555C600.568 127.792 601.395 128.117 602.119 128.516C602.843 128.944 603.405 129.491 603.833 130.185C604.262 130.88 604.454 131.781 604.454 132.904H604.483L604.513 132.949Z" fill="#012438"/>
</svg>
