<svg xmlns="http://www.w3.org/2000/svg" xmlns:xlink="http://www.w3.org/1999/xlink" width="1400" zoomAndPan="magnify" viewBox="0 0 1050 318.749988" height="425" preserveAspectRatio="xMidYMid meet" version="1.2"><defs><clipPath id="6e4c1dfd60"><path d="M 208.886719 213.273438 L 252.355469 213.273438 L 252.355469 256.746094 L 208.886719 256.746094 Z M 208.886719 213.273438 "/></clipPath><clipPath id="2ca421f896"><path d="M 230.621094 213.273438 C 218.617188 213.273438 208.886719 223.007812 208.886719 235.007812 C 208.886719 247.011719 218.617188 256.746094 230.621094 256.746094 C 242.625 256.746094 252.355469 247.011719 252.355469 235.007812 C 252.355469 223.007812 242.625 213.273438 230.621094 213.273438 Z M 230.621094 213.273438 "/></clipPath><clipPath id="05b0cadadb"><path d="M 58 47 L 178 47 L 178 257 L 58 257 Z M 58 47 "/></clipPath><clipPath id="450da501fb"><path d="M 52.042969 245.539062 L 146.21875 40.050781 L 184.628906 57.652344 L 90.449219 263.140625 Z M 52.042969 245.539062 "/></clipPath><clipPath id="4a1056445d"><path d="M 137.398438 59.296875 L 130.078125 75.269531 L 130.132812 75.292969 L 69.652344 207.25 L 69.601562 207.226562 L 60.820312 226.382812 C 55.980469 236.945312 60.632812 249.476562 71.199219 254.316406 C 81.761719 259.160156 94.289062 254.503906 99.132812 243.941406 L 175.710938 76.855469 C 180.550781 66.292969 175.953125 53.789062 165.386719 48.945312 C 154.824219 44.105469 142.242188 48.734375 137.398438 59.296875 Z M 137.398438 59.296875 "/></clipPath><clipPath id="5e6ed7cd56"><path d="M 69 161 L 111 161 L 111 239 L 69 239 Z M 69 161 "/></clipPath><clipPath id="925f0a9bbd"><path d="M 68.03125 235.503906 L 102.894531 159.4375 L 112.757812 163.960938 L 77.894531 240.027344 Z M 68.03125 235.503906 "/></clipPath><clipPath id="eb23200c50"><path d="M 100.820312 164.328125 L 70.371094 230.757812 C 69.148438 233.425781 70.304688 236.539062 72.972656 237.761719 C 75.640625 238.984375 78.753906 237.828125 79.976562 235.160156 L 88.757812 216.003906 L 88.703125 215.980469 L 110.34375 168.757812 C 111.566406 166.089844 110.414062 162.980469 107.746094 161.757812 C 105.078125 160.535156 102.015625 161.714844 100.820312 164.328125 Z M 100.820312 164.328125 "/></clipPath><clipPath id="a06ec19fff"><path d="M 138 46 L 231 46 L 231 207 L 138 207 Z M 138 46 "/></clipPath><clipPath id="46db94dc5a"><path d="M 197.921875 213.269531 L 132.378906 56.257812 L 171.367188 39.980469 L 236.910156 196.996094 Z M 197.921875 213.269531 "/></clipPath><clipPath id="f0f1a1d8f6"><path d="M 140.535156 75.796875 L 146.1875 89.335938 L 146.242188 89.3125 L 181.742188 174.359375 L 181.6875 174.378906 L 189.804688 193.824219 C 194.28125 204.550781 206.644531 209.628906 217.367188 205.152344 C 228.09375 200.675781 233.171875 188.316406 228.695312 177.589844 L 179.425781 59.5625 C 174.949219 48.839844 162.640625 43.734375 151.917969 48.210938 C 141.191406 52.691406 136.058594 65.074219 140.535156 75.796875 Z M 140.535156 75.796875 "/></clipPath><clipPath id="664a66d79d"><path d="M 170 115 L 210 115 L 210 194 L 170 194 Z M 170 115 "/></clipPath><clipPath id="4d422e6fc1"><path d="M 201.398438 194.71875 L 169.167969 117.5 L 179.179688 113.320312 L 211.414062 190.539062 Z M 201.398438 194.71875 "/></clipPath><clipPath id="fcbb5d0582"><path d="M 171.351562 122.34375 L 199.5 189.777344 C 200.632812 192.488281 203.703125 193.75 206.410156 192.617188 C 209.117188 191.488281 210.382812 188.417969 209.25 185.707031 L 201.132812 166.261719 L 201.078125 166.285156 L 181.070312 118.347656 C 179.9375 115.640625 176.867188 114.378906 174.160156 115.507812 C 171.449219 116.640625 170.242188 119.6875 171.351562 122.34375 Z M 171.351562 122.34375 "/></clipPath></defs><g id="e76efc1f73"><g clip-rule="nonzero" clip-path="url(#6e4c1dfd60)"><g clip-rule="nonzero" clip-path="url(#2ca421f896)"><path style=" stroke:none;fill-rule:nonzero;fill:#30323e;fill-opacity:1;" d="M 208.886719 213.273438 L 252.355469 213.273438 L 252.355469 256.746094 L 208.886719 256.746094 Z M 208.886719 213.273438 "/></g></g><g clip-rule="nonzero" clip-path="url(#05b0cadadb)"><g clip-rule="nonzero" clip-path="url(#450da501fb)"><g clip-rule="nonzero" clip-path="url(#4a1056445d)"><path style=" stroke:none;fill-rule:nonzero;fill:#41c0f0;fill-opacity:1;" d="M 52.042969 245.539062 L 146.152344 40.199219 L 184.410156 57.734375 L 90.300781 263.070312 Z M 52.042969 245.539062 "/></g></g></g><g clip-rule="nonzero" clip-path="url(#5e6ed7cd56)"><g clip-rule="nonzero" clip-path="url(#925f0a9bbd)"><g clip-rule="nonzero" clip-path="url(#eb23200c50)"><path style=" stroke:none;fill-rule:nonzero;fill:#ffffff;fill-opacity:1;" d="M 52.042969 245.539062 L 146.152344 40.199219 L 184.410156 57.734375 L 90.300781 263.070312 Z M 52.042969 245.539062 "/></g></g></g><g clip-rule="nonzero" clip-path="url(#a06ec19fff)"><g clip-rule="nonzero" clip-path="url(#46db94dc5a)"><g clip-rule="nonzero" clip-path="url(#f0f1a1d8f6)"><path style=" stroke:none;fill-rule:nonzero;fill:#41c0f0;fill-opacity:1;" d="M 197.921875 213.269531 L 132.441406 56.40625 L 171.277344 40.195312 L 236.757812 197.058594 Z M 197.921875 213.269531 "/></g></g></g><g clip-rule="nonzero" clip-path="url(#664a66d79d)"><g clip-rule="nonzero" clip-path="url(#4d422e6fc1)"><g clip-rule="nonzero" clip-path="url(#fcbb5d0582)"><path style=" stroke:none;fill-rule:nonzero;fill:#41c0f0;fill-opacity:1;" d="M 197.921875 213.269531 L 132.441406 56.40625 L 171.277344 40.195312 L 236.757812 197.058594 Z M 197.921875 213.269531 "/></g></g></g><g style="fill:#41c0f0;fill-opacity:1;"><g transform="translate(280.99732, 147.745027)"><path style="stroke:none" d="M 43.078125 -70.078125 C 49.671875 -70.078125 55.671875 -68.535156 61.078125 -65.453125 C 66.484375 -62.367188 70.726562 -58.125 73.8125 -52.71875 C 76.894531 -47.3125 78.4375 -41.269531 78.4375 -34.59375 L 78.4375 -3.796875 C 78.4375 -2.703125 78.097656 -1.796875 77.421875 -1.078125 C 76.742188 -0.359375 75.816406 0 74.640625 0 C 73.535156 0 72.625 -0.359375 71.90625 -1.078125 C 71.1875 -1.796875 70.828125 -2.703125 70.828125 -3.796875 L 70.828125 -13.6875 C 68.046875 -9.207031 64.222656 -5.675781 59.359375 -3.09375 C 54.503906 -0.519531 49.078125 0.765625 43.078125 0.765625 C 36.410156 0.765625 30.375 -0.773438 24.96875 -3.859375 C 19.5625 -6.941406 15.316406 -11.1875 12.234375 -16.59375 C 9.148438 -22 7.609375 -28 7.609375 -34.59375 C 7.609375 -41.269531 9.148438 -47.3125 12.234375 -52.71875 C 15.316406 -58.125 19.5625 -62.367188 24.96875 -65.453125 C 30.375 -68.535156 36.410156 -70.078125 43.078125 -70.078125 Z M 43.078125 -6.34375 C 48.316406 -6.34375 53.046875 -7.566406 57.265625 -10.015625 C 61.492188 -12.460938 64.8125 -15.835938 67.21875 -20.140625 C 69.625 -24.453125 70.828125 -29.269531 70.828125 -34.59375 C 70.828125 -39.914062 69.625 -44.726562 67.21875 -49.03125 C 64.8125 -53.34375 61.492188 -56.742188 57.265625 -59.234375 C 53.046875 -61.734375 48.316406 -62.984375 43.078125 -62.984375 C 37.847656 -62.984375 33.117188 -61.734375 28.890625 -59.234375 C 24.671875 -56.742188 21.332031 -53.34375 18.875 -49.03125 C 16.425781 -44.726562 15.203125 -39.914062 15.203125 -34.59375 C 15.203125 -29.269531 16.425781 -24.453125 18.875 -20.140625 C 21.332031 -15.835938 24.671875 -12.460938 28.890625 -10.015625 C 33.117188 -7.566406 37.847656 -6.34375 43.078125 -6.34375 Z M 43.078125 -6.34375 "/></g></g><g style="fill:#41c0f0;fill-opacity:1;"><g transform="translate(364.497428, 147.745027)"><path style="stroke:none" d="M 17.734375 0 C 16.640625 0 15.734375 -0.359375 15.015625 -1.078125 C 14.296875 -1.796875 13.9375 -2.703125 13.9375 -3.796875 L 13.9375 -65.515625 C 13.9375 -66.691406 14.296875 -67.617188 15.015625 -68.296875 C 15.734375 -68.972656 16.640625 -69.3125 17.734375 -69.3125 C 18.921875 -69.3125 19.851562 -68.972656 20.53125 -68.296875 C 21.207031 -67.617188 21.546875 -66.691406 21.546875 -65.515625 L 21.546875 -3.796875 C 21.546875 -2.703125 21.207031 -1.796875 20.53125 -1.078125 C 19.851562 -0.359375 18.921875 0 17.734375 0 Z M 17.609375 -83.890625 C 15.921875 -83.890625 14.523438 -84.457031 13.421875 -85.59375 C 12.328125 -86.738281 11.78125 -88.15625 11.78125 -89.84375 C 11.78125 -91.695312 12.375 -93.128906 13.5625 -94.140625 C 14.75 -95.160156 16.144531 -95.671875 17.75 -95.671875 C 19.351562 -95.671875 20.722656 -95.160156 21.859375 -94.140625 C 23.003906 -93.128906 23.578125 -91.695312 23.578125 -89.84375 C 23.578125 -88.15625 23.003906 -86.738281 21.859375 -85.59375 C 20.722656 -84.457031 19.304688 -83.890625 17.609375 -83.890625 Z M 17.609375 -83.890625 "/></g></g><g style="fill:#41c0f0;fill-opacity:1;"><g transform="translate(397.441217, 147.745027)"><path style="stroke:none" d=""/></g></g><g style="fill:#41c0f0;fill-opacity:1;"><g transform="translate(432.032203, 147.745027)"><path style="stroke:none" d="M 82.375 -9 C 83.46875 -7.894531 84.015625 -6.960938 84.015625 -6.203125 C 84.015625 -5.535156 83.632812 -4.820312 82.875 -4.0625 C 82.03125 -3.207031 81.144531 -2.78125 80.21875 -2.78125 C 79.28125 -2.78125 78.390625 -3.207031 77.546875 -4.0625 L 63.484375 -18.125 L 59.6875 -14.1875 C 55.039062 -9.289062 50.539062 -5.660156 46.1875 -3.296875 C 41.832031 -0.929688 37.25 0.25 32.4375 0.25 C 27.03125 0.25 22.300781 -0.71875 18.25 -2.65625 C 14.195312 -4.601562 11.09375 -7.304688 8.9375 -10.765625 C 6.78125 -14.234375 5.703125 -18.117188 5.703125 -22.421875 C 5.703125 -27.660156 7.222656 -32.5625 10.265625 -37.125 C 13.304688 -41.6875 18.375 -46.753906 25.46875 -52.328125 L 27.625 -53.984375 L 20.65625 -60.953125 C 17.945312 -63.566406 15.8125 -66.519531 14.25 -69.8125 C 12.6875 -73.113281 11.90625 -76.453125 11.90625 -79.828125 C 11.90625 -83.460938 12.832031 -86.78125 14.6875 -89.78125 C 16.550781 -92.78125 19.085938 -95.125 22.296875 -96.8125 C 25.515625 -98.5 29.109375 -99.34375 33.078125 -99.34375 C 37.128906 -99.34375 40.800781 -98.476562 44.09375 -96.75 C 47.394531 -95.019531 49.992188 -92.613281 51.890625 -89.53125 C 53.796875 -86.445312 54.75 -83.003906 54.75 -79.203125 C 54.75 -74.640625 53.457031 -70.414062 50.875 -66.53125 C 48.300781 -62.644531 44.648438 -58.925781 39.921875 -55.375 L 37.640625 -53.734375 L 63.234375 -28.125 L 74.25 -39.921875 C 75.269531 -40.929688 76.160156 -41.4375 76.921875 -41.4375 C 77.679688 -41.4375 78.484375 -41.054688 79.328125 -40.296875 C 80.253906 -39.535156 80.71875 -38.691406 80.71875 -37.765625 C 80.71875 -36.921875 80.296875 -36.078125 79.453125 -35.234375 L 68.171875 -23.1875 Z M 33.203125 -58.15625 L 36.234375 -60.578125 C 39.617188 -63.191406 42.320312 -66.101562 44.34375 -69.3125 C 46.375 -72.519531 47.390625 -75.734375 47.390625 -78.953125 C 47.390625 -82.742188 46.097656 -85.945312 43.515625 -88.5625 C 40.941406 -91.1875 37.460938 -92.5 33.078125 -92.5 C 29.273438 -92.5 26.0625 -91.253906 23.4375 -88.765625 C 20.820312 -86.273438 19.515625 -83.296875 19.515625 -79.828125 C 19.515625 -76.960938 20.0625 -74.367188 21.15625 -72.046875 C 22.257812 -69.722656 23.910156 -67.460938 26.109375 -65.265625 Z M 58.421875 -23.1875 L 32.1875 -49.421875 L 29.140625 -47.140625 C 23.140625 -42.410156 19 -38.082031 16.71875 -34.15625 C 14.445312 -30.226562 13.3125 -26.191406 13.3125 -22.046875 C 13.3125 -17.566406 15.039062 -13.867188 18.5 -10.953125 C 21.96875 -8.046875 26.695312 -6.59375 32.6875 -6.59375 C 36.40625 -6.59375 39.972656 -7.601562 43.390625 -9.625 C 46.816406 -11.65625 50.515625 -14.785156 54.484375 -19.015625 Z M 58.421875 -23.1875 "/></g></g><g style="fill:#41c0f0;fill-opacity:1;"><g transform="translate(519.713662, 147.745027)"><path style="stroke:none" d=""/></g></g><g style="fill:#41c0f0;fill-opacity:1;"><g transform="translate(554.304661, 147.745027)"><path style="stroke:none" d="M 43.078125 -70.203125 C 49.242188 -70.203125 54.753906 -68.929688 59.609375 -66.390625 C 64.472656 -63.859375 68.273438 -60.164062 71.015625 -55.3125 C 73.765625 -50.457031 75.140625 -44.648438 75.140625 -37.890625 L 75.140625 -3.796875 C 75.140625 -2.703125 74.78125 -1.796875 74.0625 -1.078125 C 73.34375 -0.359375 72.4375 0 71.34375 0 C 70.25 0 69.34375 -0.359375 68.625 -1.078125 C 67.90625 -1.796875 67.546875 -2.703125 67.546875 -3.796875 L 67.546875 -37.890625 C 67.546875 -45.910156 65.285156 -52.03125 60.765625 -56.25 C 56.242188 -60.476562 50.347656 -62.59375 43.078125 -62.59375 C 38.609375 -62.59375 34.535156 -61.726562 30.859375 -60 C 27.179688 -58.269531 24.285156 -55.863281 22.171875 -52.78125 C 20.066406 -49.695312 19.015625 -46.296875 19.015625 -42.578125 L 19.015625 -3.796875 C 19.015625 -2.703125 18.675781 -1.796875 18 -1.078125 C 17.320312 -0.359375 16.390625 0 15.203125 0 C 14.109375 0 13.203125 -0.359375 12.484375 -1.078125 C 11.765625 -1.796875 11.40625 -2.703125 11.40625 -3.796875 L 11.40625 -65.515625 C 11.40625 -66.691406 11.765625 -67.617188 12.484375 -68.296875 C 13.203125 -68.972656 14.109375 -69.3125 15.203125 -69.3125 C 16.390625 -69.3125 17.320312 -68.972656 18 -68.296875 C 18.675781 -67.617188 19.015625 -66.691406 19.015625 -65.515625 L 19.015625 -58.921875 C 21.878906 -62.472656 25.378906 -65.238281 29.515625 -67.21875 C 33.660156 -69.207031 38.179688 -70.203125 43.078125 -70.203125 Z M 43.078125 -70.203125 "/></g></g><g style="fill:#41c0f0;fill-opacity:1;"><g transform="translate(637.044503, 147.745027)"><path style="stroke:none" d="M 25.34375 0 C 20.53125 0 16.582031 -1.941406 13.5 -5.828125 C 10.414062 -9.710938 8.875 -14.738281 8.875 -20.90625 L 8.875 -95.171875 C 8.875 -96.347656 9.234375 -97.273438 9.953125 -97.953125 C 10.671875 -98.628906 11.578125 -98.96875 12.671875 -98.96875 C 13.859375 -98.96875 14.785156 -98.628906 15.453125 -97.953125 C 16.128906 -97.273438 16.46875 -96.347656 16.46875 -95.171875 L 16.46875 -20.90625 C 16.46875 -17.019531 17.289062 -13.832031 18.9375 -11.34375 C 20.59375 -8.851562 22.726562 -7.609375 25.34375 -7.609375 L 28.515625 -7.609375 C 29.441406 -7.609375 30.203125 -7.269531 30.796875 -6.59375 C 31.390625 -5.914062 31.6875 -4.984375 31.6875 -3.796875 C 31.6875 -2.703125 31.347656 -1.796875 30.671875 -1.078125 C 29.992188 -0.359375 29.0625 0 27.875 0 Z M 25.34375 0 "/></g></g><g style="fill:#41c0f0;fill-opacity:1;"><g transform="translate(668.721214, 147.745027)"><path style="stroke:none" d="M 46.765625 -70.078125 C 53.429688 -70.078125 59.46875 -68.535156 64.875 -65.453125 C 70.28125 -62.367188 74.523438 -58.125 77.609375 -52.71875 C 80.691406 -47.3125 82.234375 -41.269531 82.234375 -34.59375 C 82.234375 -28 80.691406 -22 77.609375 -16.59375 C 74.523438 -11.1875 70.28125 -6.941406 64.875 -3.859375 C 59.46875 -0.773438 53.429688 0.765625 46.765625 0.765625 C 40.765625 0.765625 35.332031 -0.519531 30.46875 -3.09375 C 25.613281 -5.675781 21.796875 -9.207031 19.015625 -13.6875 L 19.015625 25.84375 C 19.015625 27.03125 18.675781 27.960938 18 28.640625 C 17.320312 29.316406 16.390625 29.65625 15.203125 29.65625 C 14.109375 29.65625 13.203125 29.316406 12.484375 28.640625 C 11.765625 27.960938 11.40625 27.03125 11.40625 25.84375 L 11.40625 -35.359375 C 11.488281 -41.859375 13.09375 -47.769531 16.21875 -53.09375 C 19.34375 -58.414062 23.585938 -62.578125 28.953125 -65.578125 C 34.316406 -68.578125 40.253906 -70.078125 46.765625 -70.078125 Z M 46.765625 -6.34375 C 51.992188 -6.34375 56.71875 -7.566406 60.9375 -10.015625 C 65.164062 -12.460938 68.503906 -15.835938 70.953125 -20.140625 C 73.410156 -24.453125 74.640625 -29.269531 74.640625 -34.59375 C 74.640625 -39.914062 73.410156 -44.726562 70.953125 -49.03125 C 68.503906 -53.34375 65.164062 -56.742188 60.9375 -59.234375 C 56.71875 -61.734375 51.992188 -62.984375 46.765625 -62.984375 C 41.523438 -62.984375 36.789062 -61.734375 32.5625 -59.234375 C 28.34375 -56.742188 25.03125 -53.34375 22.625 -49.03125 C 20.21875 -44.726562 19.015625 -39.914062 19.015625 -34.59375 C 19.015625 -29.269531 20.21875 -24.453125 22.625 -20.140625 C 25.03125 -15.835938 28.34375 -12.460938 32.5625 -10.015625 C 36.789062 -7.566406 41.523438 -6.34375 46.765625 -6.34375 Z M 46.765625 -6.34375 "/></g></g><g style="fill:#41c0f0;fill-opacity:1;"><g transform="translate(280.99732, 257.411557)"><path style="stroke:none" d="M 74.640625 -98.96875 C 75.816406 -98.96875 76.742188 -98.628906 77.421875 -97.953125 C 78.097656 -97.273438 78.4375 -96.347656 78.4375 -95.171875 L 78.4375 -33.953125 C 78.351562 -27.453125 76.75 -21.539062 73.625 -16.21875 C 70.5 -10.894531 66.253906 -6.734375 60.890625 -3.734375 C 55.523438 -0.734375 49.585938 0.765625 43.078125 0.765625 C 36.410156 0.765625 30.375 -0.773438 24.96875 -3.859375 C 19.5625 -6.941406 15.316406 -11.1875 12.234375 -16.59375 C 9.148438 -22 7.609375 -28.039062 7.609375 -34.71875 C 7.609375 -41.3125 9.148438 -47.3125 12.234375 -52.71875 C 15.316406 -58.125 19.5625 -62.367188 24.96875 -65.453125 C 30.375 -68.535156 36.410156 -70.078125 43.078125 -70.078125 C 49.078125 -70.078125 54.503906 -68.785156 59.359375 -66.203125 C 64.222656 -63.628906 68.046875 -60.101562 70.828125 -55.625 L 70.828125 -95.171875 C 70.828125 -96.347656 71.1875 -97.273438 71.90625 -97.953125 C 72.625 -98.628906 73.535156 -98.96875 74.640625 -98.96875 Z M 43.078125 -6.34375 C 48.316406 -6.34375 53.046875 -7.585938 57.265625 -10.078125 C 61.492188 -12.566406 64.8125 -15.960938 67.21875 -20.265625 C 69.625 -24.578125 70.828125 -29.394531 70.828125 -34.71875 C 70.828125 -40.039062 69.625 -44.851562 67.21875 -49.15625 C 64.8125 -53.46875 61.492188 -56.847656 57.265625 -59.296875 C 53.046875 -61.753906 48.316406 -62.984375 43.078125 -62.984375 C 37.847656 -62.984375 33.117188 -61.753906 28.890625 -59.296875 C 24.671875 -56.847656 21.332031 -53.46875 18.875 -49.15625 C 16.425781 -44.851562 15.203125 -40.039062 15.203125 -34.71875 C 15.203125 -29.394531 16.425781 -24.578125 18.875 -20.265625 C 21.332031 -15.960938 24.671875 -12.566406 28.890625 -10.078125 C 33.117188 -7.585938 37.847656 -6.34375 43.078125 -6.34375 Z M 43.078125 -6.34375 "/></g></g><g style="fill:#41c0f0;fill-opacity:1;"><g transform="translate(368.298659, 257.411557)"><path style="stroke:none" d="M 43.078125 -70.078125 C 49.671875 -70.078125 55.671875 -68.535156 61.078125 -65.453125 C 66.484375 -62.367188 70.726562 -58.125 73.8125 -52.71875 C 76.894531 -47.3125 78.4375 -41.269531 78.4375 -34.59375 L 78.4375 -3.796875 C 78.4375 -2.703125 78.097656 -1.796875 77.421875 -1.078125 C 76.742188 -0.359375 75.816406 0 74.640625 0 C 73.535156 0 72.625 -0.359375 71.90625 -1.078125 C 71.1875 -1.796875 70.828125 -2.703125 70.828125 -3.796875 L 70.828125 -13.6875 C 68.046875 -9.207031 64.222656 -5.675781 59.359375 -3.09375 C 54.503906 -0.519531 49.078125 0.765625 43.078125 0.765625 C 36.410156 0.765625 30.375 -0.773438 24.96875 -3.859375 C 19.5625 -6.941406 15.316406 -11.1875 12.234375 -16.59375 C 9.148438 -22 7.609375 -28 7.609375 -34.59375 C 7.609375 -41.269531 9.148438 -47.3125 12.234375 -52.71875 C 15.316406 -58.125 19.5625 -62.367188 24.96875 -65.453125 C 30.375 -68.535156 36.410156 -70.078125 43.078125 -70.078125 Z M 43.078125 -6.34375 C 48.316406 -6.34375 53.046875 -7.566406 57.265625 -10.015625 C 61.492188 -12.460938 64.8125 -15.835938 67.21875 -20.140625 C 69.625 -24.453125 70.828125 -29.269531 70.828125 -34.59375 C 70.828125 -39.914062 69.625 -44.726562 67.21875 -49.03125 C 64.8125 -53.34375 61.492188 -56.742188 57.265625 -59.234375 C 53.046875 -61.734375 48.316406 -62.984375 43.078125 -62.984375 C 37.847656 -62.984375 33.117188 -61.734375 28.890625 -59.234375 C 24.671875 -56.742188 21.332031 -53.34375 18.875 -49.03125 C 16.425781 -44.726562 15.203125 -39.914062 15.203125 -34.59375 C 15.203125 -29.269531 16.425781 -24.453125 18.875 -20.140625 C 21.332031 -15.835938 24.671875 -12.460938 28.890625 -10.015625 C 33.117188 -7.566406 37.847656 -6.34375 43.078125 -6.34375 Z M 43.078125 -6.34375 "/></g></g><g style="fill:#41c0f0;fill-opacity:1;"><g transform="translate(451.798768, 257.411557)"><path style="stroke:none" d="M 66.53125 -69.1875 C 68.132812 -68.507812 68.9375 -67.539062 68.9375 -66.28125 C 68.9375 -65.9375 68.765625 -65.34375 68.421875 -64.5 L 25.84375 27.75 C 25.082031 29.269531 24.113281 30.03125 22.9375 30.03125 C 22.425781 30.03125 21.832031 29.90625 21.15625 29.65625 C 19.550781 28.976562 18.75 28.003906 18.75 26.734375 C 18.75 26.398438 18.921875 25.8125 19.265625 24.96875 L 31.9375 -2.40625 C 31.851562 -2.488281 31.679688 -2.785156 31.421875 -3.296875 L 3.671875 -64.125 C 3.335938 -64.800781 3.171875 -65.472656 3.171875 -66.140625 C 3.171875 -67.410156 3.890625 -68.382812 5.328125 -69.0625 C 6.003906 -69.394531 6.675781 -69.5625 7.34375 -69.5625 C 8.613281 -69.5625 9.585938 -68.847656 10.265625 -67.421875 L 35.984375 -11.15625 L 61.84375 -67.28125 C 62.601562 -68.800781 63.570312 -69.5625 64.75 -69.5625 C 65.34375 -69.5625 65.9375 -69.4375 66.53125 -69.1875 Z M 66.53125 -69.1875 "/></g></g></g></svg>