<?xml version="1.0" encoding="utf-8"?>
<!-- Generator: Adobe Illustrator 27.4.0, SVG Export Plug-In . SVG Version: 6.00 Build 0)  -->
<svg version="1.1" id="Layer_1" xmlns="http://www.w3.org/2000/svg" xmlns:xlink="http://www.w3.org/1999/xlink" x="0px" y="0px"
	 width="3621.526px" height="800px" viewBox="0 0 3621.526 800" enable-background="new 0 0 3621.526 800" xml:space="preserve">
<g>
	<path d="M3621.526,334.211V211.11h-147.019V50.611h-142.188v585.134c0,53.764,13.519,94.737,40.197,121.784
		c26.662,27.07,68.208,40.793,123.493,40.793h125.516V675.221h-91.844c-19.981,0-34.316-4.391-42.613-13.065
		c-7.622-7.936-12.563-27.987-12.563-51.074V334.211H3621.526z"/>
	<polygon points="1651.305,211.094 1504.294,638.874 1357.284,211.094 1207.912,211.094 1420.136,793.287 1588.453,793.287 
		1800.676,211.094 	"/>
	<rect x="2470.098" width="142.188" height="793.28"/>
	<path d="M3100.572,502.748c0,36.857-5.583,68.922-16.594,95.302c-10.931,26.239-26.584,46.353-46.533,59.77
		c-19.95,13.417-44.479,20.224-72.882,20.224c-40.652,0-71.329-13.362-91.169-39.695c-20.044-26.615-30.207-66.954-30.207-119.886
		V211.11h-142.188v323.068c0,50.305,6.289,92.973,18.711,126.802c12.421,33.932,29.485,61.535,50.721,82.026
		c21.22,20.467,46,35.249,73.65,43.953c27.509,8.657,57.089,13.041,87.938,13.041c44.463,0,81.257-8.061,109.331-23.965
		c25.612-14.547,47.067-31.555,63.88-50.627l12.735,67.871h124.795V211.11h-142.188V502.748z"/>
	<path d="M2252.748,241.811c-44.808-24.843-98.015-37.429-158.123-37.429c-59.371,0-112.381,12.586-157.558,37.421
		c-45.232,24.898-80.771,60.061-105.637,104.508c-24.827,44.408-37.413,97.043-37.413,156.437
		c0,58.665,12.586,110.931,37.413,155.339c24.851,44.432,60.398,79.587,105.637,104.484c45.177,24.835,98.188,37.421,157.558,37.421
		c60.107,0,113.314-12.586,158.123-37.429c44.855-24.882,80.206-60.037,105.065-104.477c24.835-44.432,37.429-96.698,37.429-155.339
		c0-59.371-12.594-112.005-37.429-156.437C2332.939,301.856,2297.595,266.693,2252.748,241.811z M2177.631,657.788
		c-22.906,14.915-50.831,22.483-82.998,22.483c-31.43,0-59.175-7.567-82.465-22.49c-23.329-14.939-41.625-36.025-54.391-62.68
		c-12.821-26.678-19.33-57.747-19.33-92.353c0-35.32,6.501-66.569,19.33-92.886c12.759-26.294,31.069-47.388,54.422-62.703
		c23.282-15.299,51.019-23.055,82.433-23.055c32.151,0,60.061,7.756,82.974,23.039c22.977,15.323,41.107,36.425,53.897,62.727
		c12.813,26.38,19.314,57.63,19.314,92.879c0,34.528-6.501,65.605-19.314,92.353C2218.715,621.763,2200.592,642.85,2177.631,657.788
		z"/>
	<rect x="0" y="195.779" width="147.764" height="597.508"/>
	<path d="M611.145,229.946c0-126.787-103.246-229.938-230.158-229.938H0V127.61h362.873c57.434,0,105.01,45.122,106.061,100.579
		c0.525,27.768-9.896,53.975-29.344,73.792c-19.456,19.824-45.451,30.748-73.196,30.748H225.037c-5.019,0-9.104,4.078-9.104,9.097
		v113.409c0,1.929,0.596,3.772,1.717,5.325l239.835,332.729h175.563L392.656,459.649
		C513.718,453.571,611.145,351.855,611.145,229.946z"/>
	<path d="M1065.507,238.423c-42.565-22.592-93.106-34.041-150.218-34.041c-57.183,0-108.311,12.594-151.967,37.445
		c-43.726,24.874-78.128,60.045-102.242,104.516c-24.09,44.369-36.3,97.372-36.3,157.542c0,58.641,12.398,110.891,36.864,155.307
		c24.521,44.518,59.888,79.493,105.104,103.951C811.878,787.602,866.011,800,927.632,800c48.886,0,92.785-9.159,130.48-27.235
		c37.703-18.122,68.483-42.801,91.491-73.352c21.855-29.038,36.598-61.88,43.812-97.607l0.776-3.811h-141.396l-0.667,2.29
		c-7.787,26.647-22.89,47.702-44.91,62.594c-23.635,16.013-52.666,24.137-86.299,24.137c-28.505,0-54.25-6.109-76.513-18.154
		c-22.153-11.974-39.476-29.101-51.474-50.917c-12.045-21.894-18.899-48.235-20.365-78.136v-4.674h427.105l0.478-2.611
		c1.49-8.195,2.447-16.64,2.862-25.133c0.353-8.273,0.557-16.538,0.557-24.882c-0.761-56.406-13.37-106.022-37.468-147.481
		C1141.91,293.52,1108.064,261.015,1065.507,238.423z M1013.696,348.06c24.294,20.444,39.405,49.498,44.949,86.409H777.476
		c3.215-23.949,11.167-44.691,23.659-61.707c13.104-17.848,29.893-31.869,49.905-41.679c20.036-9.841,42.032-14.837,65.37-14.837
		C955.862,316.245,988.594,326.949,1013.696,348.06z"/>
</g>
</svg>
