<svg width="78" height="26" viewBox="0 0 78 26" fill="none" xmlns="http://www.w3.org/2000/svg">
<path d="M6.86741 9.08312C3.92546 8.59866 3.16425 8.20695 3.16425 7.17769C3.16425 5.98898 4.58858 5.09231 6.47721 5.09231C8.35998 5.09231 9.67504 6.00284 9.9954 7.52733L10.0093 7.59432H12.6623L12.6527 7.5002C12.3286 4.41409 10.0205 2.57178 6.47721 2.57178C2.39291 2.57178 0.532529 5.00626 0.532529 7.26822C0.532529 10.2419 2.79164 11.1771 6.4367 11.7224C10.1351 12.2412 10.4288 13.0482 10.4288 14.0495C10.4288 15.2653 9.1713 16.4961 6.7672 16.4961C4.61737 16.4961 2.97075 15.3492 2.66904 13.6425L2.65678 13.5728H0L0.0122599 13.6686C0.416322 16.936 3.06776 19.0471 6.76719 19.0471C10.4784 19.0471 12.972 16.9784 12.972 13.8989C12.972 10.3651 10.3259 9.65034 6.86741 9.08312Z" fill="#212C38"/>
<path d="M63.9274 11.488C63.9661 10.2703 63.7717 9.05682 63.3555 7.91778C62.9394 6.77873 62.3097 5.73678 61.5031 4.85231C60.8251 4.13261 60.0159 3.5603 59.1228 3.16875C58.2296 2.77721 57.2704 2.57428 56.3009 2.57178C52.1116 2.57178 48.7027 6.27384 48.7027 10.8247C48.6822 11.8938 48.8674 12.9563 49.2474 13.9501C49.6274 14.9439 50.1947 15.8488 50.9159 16.6119C51.6371 17.375 52.4978 17.9808 53.4474 18.3938C54.397 18.8069 55.4164 19.0188 56.4459 19.0172C59.9268 19.0172 62.525 17.1063 63.5751 13.7746L63.6103 13.663H60.8336L60.8117 13.712C60.446 14.5867 59.8321 15.3246 59.0521 15.8275C58.272 16.3304 57.3629 16.5743 56.446 16.5266C53.4731 16.5266 51.6559 14.0501 51.3723 11.5724H63.9269L63.9274 11.488ZM56.3009 5.06215C57.4055 5.10552 58.4656 5.52573 59.3171 6.25779C60.1686 6.98985 60.7642 7.99295 61.0116 9.11191H51.5317C52.0642 7.08191 53.8515 5.06215 56.3009 5.06215V5.06215Z" fill="#212C38"/>
<path d="M71.8953 9.08312C68.9533 8.59866 68.1921 8.20695 68.1921 7.17769C68.1921 5.98898 69.6165 5.09231 71.5051 5.09231C73.3879 5.09231 74.7029 6.00284 75.0233 7.52733L75.0371 7.59432H77.6902L77.6806 7.5002C77.3565 4.41409 75.0483 2.57178 71.5051 2.57178C67.4208 2.57178 65.5604 5.00626 65.5604 7.26822C65.5604 10.2419 67.8195 11.1771 71.4646 11.7224C75.1629 12.2412 75.4567 13.0482 75.4567 14.0495C75.4567 15.2653 74.1992 16.4961 71.7951 16.4961C69.6452 16.4961 67.9986 15.3492 67.6969 13.6425L67.6847 13.5728H65.0273L65.0396 13.6686C65.4442 16.936 68.0956 19.0471 71.7951 19.0471C75.5062 19.0471 77.9999 16.9784 77.9999 13.8989C77.9999 10.3651 75.3538 9.65034 71.8953 9.08312Z" fill="#212C38"/>
<path d="M27.0405 2.92358V4.63082C25.6648 3.29338 23.8501 2.55056 21.9658 2.55348C17.6896 2.55348 14.3398 6.20543 14.3398 10.8673C14.3398 15.461 17.6896 19.0595 21.9658 19.0595C23.8448 19.0648 25.6567 18.3347 27.0405 17.0146V18.6966H29.5918V2.92358H27.0405ZM26.9521 10.8673C26.9521 13.9896 24.7153 16.5299 21.9658 16.5299C19.2328 16.5299 17.0094 13.9896 17.0094 10.8673C17.0094 7.6779 19.2328 5.08316 21.9658 5.08316C24.7153 5.08314 26.9521 7.67788 26.9521 10.8673Z" fill="#212C38"/>
<path d="M45.4908 2.74174C46.2197 2.74174 46.8106 2.12798 46.8106 1.37087C46.8106 0.613759 46.2197 0 45.4908 0C44.7618 0 44.1709 0.613759 44.1709 1.37087C44.1709 2.12798 44.7618 2.74174 45.4908 2.74174Z" fill="#31C5F4"/>
<path d="M46.7822 10.1242L46.7743 10.0874C46.4182 5.7907 43.1585 2.55371 39.184 2.55371C34.9083 2.55371 31.5586 6.20567 31.5586 10.8675C31.5586 15.4613 34.9083 19.0598 39.184 19.0598C41.0027 19.0636 42.7605 18.3802 44.1297 17.1369C44.1383 17.2288 44.1452 17.3285 44.1511 17.44V17.847C44.1491 18.1727 44.1273 18.498 44.086 18.8209C43.6574 21.515 41.5956 23.4703 39.184 23.4703C38.363 23.4536 37.5595 23.2205 36.849 22.7927C36.1386 22.3649 35.5445 21.7565 35.1226 21.0247L35.0986 20.9852H32.1567L32.2041 21.1031C32.7711 22.5446 33.7368 23.7792 34.9792 24.6508C36.2215 25.5224 37.6848 25.9919 39.184 25.9999C43.4602 25.9999 46.8105 22.4014 46.8105 17.8074V10.8675C46.8105 10.6602 46.7966 10.4553 46.7822 10.2433V10.1242ZM44.1708 10.8675C44.1708 13.9899 41.9341 16.5301 39.184 16.5301C36.451 16.5301 34.2282 13.9899 34.2282 10.8675C34.2282 7.67812 36.451 5.08338 39.184 5.08338C41.9341 5.0834 44.1708 7.67816 44.1708 10.8675V10.8675Z" fill="#31C5F4"/>
</svg>
