<?xml version="1.0" encoding="UTF-8"?>
<svg id="Layer_1" data-name="Layer 1" xmlns="http://www.w3.org/2000/svg" version="1.1" viewBox="0 0 180 72">
  <defs>
    <style>
      .cls-1 {
        fill: #fe0103;
        fill-rule: evenodd;
      }

      .cls-1, .cls-2, .cls-3 {
        stroke-width: 0px;
      }

      .cls-2 {
        fill: #000;
      }

      .cls-3 {
        fill: #fff;
      }
    </style>
  </defs>
  <rect class="cls-3" x="2.4" y="2.4" width="67.1" height="67.1"/>
  <path class="cls-2" d="M125.6,14.6"/>
  <path class="cls-1" d="M.5,71.9h71.4V0H0v71.9h.5ZM48.9,51c-.3-.3-.6-.5-1-.8-3.3-3-6.9-5.8-10.6-8.2-3.5,2.1-7,4-10.7,5.7l-22.3-4.5c4.4-1.1,8.6-2.5,12.8-4.2,2.8-1.1,5.5-2.4,8.2-3.8-1.7-.8-3.3-1.5-5.1-2.2-4.2-1.7-8.5-3-12.8-4.2l22.3-4.5c2.5,1.2,4.9,2.4,7.4,3.8,2.7-2,5.3-4.1,7.8-6.3.3-.3.6-.5,1-.8l18.8-3.6c-4.8,6.5-10.5,12.4-16.9,17.4,7.6,5.5,14.4,12.2,20,19.7l-18.8-3.5h-.1Z"/>
  <g>
    <path class="cls-2" d="M98.6,36.9l-12.3-16.2h9.1l8.1,10.6,7.8-10.6h8.9l-12.4,16.3,12.7,16.6h-9.1l-8.3-10.9-7.8,10.9h-8.9l12.3-16.6Z"/>
    <path class="cls-2" d="M137.1,53.6c-6.3,0-10.6-3.7-10.6-11v-14.6h-4.7v-7.3h4.7v-6l7.8-2.4v8.4h7.1v7.3h-7.1v14.3c0,2.5,1.3,3.9,3.2,3.9h3.9v7.3h-4.3,0Z"/>
    <path class="cls-2" d="M163.1,54.2c-4.6,0-8-2-10.4-5.1v4.4h-7.4V7.5h7.8v17.3c2.4-2.8,5.9-4.7,10.3-4.7,9.1,0,16.3,7.7,16.3,17.3s-7.1,16.8-16.5,16.8h0ZM171.6,37.2c0-5.5-3.9-9.4-9.4-9.4s-9.4,3.9-9.4,9.4,3.9,9.4,9.4,9.4,9.4-3.9,9.4-9.4Z"/>
  </g>
</svg>