<?xml version="1.0" encoding="UTF-8" standalone="no"?>
<svg
   width="498.57956"
   zoomAndPan="magnify"
   viewBox="0 0 373.93467 158.52272"
   height="211.36363"
   preserveAspectRatio="xMidYMid"
   version="1.2"
   id="svg3"
   sodipodi:docname="xtb.svg"
   inkscape:version="1.4 (e7c3feb1, 2024-10-09)"
   xmlns:inkscape="http://www.inkscape.org/namespaces/inkscape"
   xmlns:sodipodi="http://sodipodi.sourceforge.net/DTD/sodipodi-0.dtd"
   xmlns="http://www.w3.org/2000/svg"
   xmlns:svg="http://www.w3.org/2000/svg">
  <sodipodi:namedview
     id="namedview3"
     pagecolor="#ffffff"
     bordercolor="#000000"
     borderopacity="0.25"
     inkscape:showpageshadow="2"
     inkscape:pageopacity="0.0"
     inkscape:pagecheckerboard="0"
     inkscape:deskcolor="#d1d1d1"
     inkscape:zoom="0.98920108"
     inkscape:cx="41.447589"
     inkscape:cy="342.7008"
     inkscape:window-width="2560"
     inkscape:window-height="1387"
     inkscape:window-x="1692"
     inkscape:window-y="1035"
     inkscape:window-maximized="1"
     inkscape:current-layer="svg3" />
  <defs
     id="defs1">
    <clipPath
       id="d6f1192992">
      <path
         d="M 0,0.1875 H 675 V 375 H 0 Z m 0,0"
         id="path1" />
    </clipPath>
  </defs>
  <g
     id="g3"
     transform="translate(-148.93466,-108.66477)" />
  <g
     id="g4"
     transform="translate(-148.93466,-108.66477)">
    <path
       d="m 478.07465,224.861 c -4.49867,-0.35988 -7.25877,-0.96086 -9.3786,-2.04207 -1.42399,-0.72631 -3.13395,-2.66158 -4.7934,-5.42502 -0.83247,-1.38628 -1.61245,-2.55347 -1.73329,-2.59375 -0.16379,-0.0546 -0.21971,1.0466 -0.21971,4.32634 v 4.39958 l -1.73438,0.12845 c -0.9539,0.0707 -4.0203,0.10178 -6.81422,0.0692 l -5.07985,-0.0593 -0.11982,-6.375 c -0.0659,-3.50625 -0.0682,-24.64219 -0.005,-46.96875 l 0.11478,-40.59375 h 7.05364 7.05364 l 0.0478,17.85938 c 0.0263,9.82265 0.11572,17.85937 0.1987,17.85937 0.083,0 0.6521,-0.52892 1.26468,-1.17537 7.53899,-7.95578 19.33281,-10.60663 30.5513,-6.8669 10.92262,3.6411 19.27541,12.93475 22.14195,24.63602 0.96134,3.92421 1.04586,12.88352 0.16008,16.96875 -1.79817,8.29323 -7.03317,15.87404 -14.14578,20.48456 -6.83897,4.43314 -14.72017,6.15562 -24.5625,5.36827 z m 8.30436,-14.31995 c 8.20738,-1.43125 13.93925,-6.69623 16.01071,-14.70655 0.64206,-2.48283 0.80038,-6.48427 0.36049,-9.11126 -0.76656,-4.57794 -2.48674,-7.96549 -5.61941,-11.06631 -4.65453,-4.60719 -11.03032,-6.50711 -18.2124,-5.42709 -10.05186,1.51156 -16.86961,9.6721 -16.83717,20.15333 0.0269,8.69302 4.58352,15.82823 12.05592,18.8784 1.31515,0.53683 4.06641,1.27469 5.34375,1.43314 1.51219,0.18758 5.44348,0.1 6.89811,-0.15366 z m -52.08561,13.39216 c -5.08916,-0.16715 -7.95185,-0.52663 -10.52647,-1.32185 -5.84205,-1.80442 -10.13588,-6.06299 -12.06298,-11.96392 -1.22601,-3.7541 -1.18655,-3.07836 -1.30378,-22.32677 l -0.10677,-17.53125 -5.01563,-0.0499 -5.01562,-0.0499 v -6.84068 -6.84069 h 5.0625 5.0625 v -6.25708 -6.25708 l 6.91757,-2.27417 c 3.80466,-1.25079 7.01091,-2.27417 7.125,-2.27417 0.14857,0 0.20743,2.44748 0.20743,8.625 v 8.625 h 7.50234 7.50234 l -0.0492,6.79688 -0.0492,6.79687 -7.5,0.0937 -7.5,0.0937 0.0239,15.28125 c 0.0158,10.0865 0.0948,15.77484 0.23233,16.73324 0.51561,3.5925 1.94374,5.66144 4.67954,6.7793 0.75913,0.31019 1.51158,0.36991 5.61107,0.44534 l 4.73438,0.0871 v 6.55233 c 0,4.15812 -0.0709,6.68484 -0.1941,6.915 -0.12742,0.23808 -0.36897,0.35159 -0.70312,0.33043 -0.27997,-0.0177 -2.36528,-0.0932 -4.63403,-0.16772 z M 329.38715,223.4063 c 0,-0.0904 5.21015,-7.12337 11.57812,-15.6288 14.1933,-18.9574 13.43736,-17.91612 13.21173,-18.19856 -0.0997,-0.12486 -1.67094,-2.16764 -3.49152,-4.53952 -1.82059,-2.37187 -4.18901,-5.45156 -5.26316,-6.84375 -8.84163,-11.45947 -16.21958,-21.11771 -16.22098,-21.23437 -9.3e-4,-0.0773 3.78488,-0.14063 8.41292,-0.14063 h 8.4146 l 1.38227,1.79515 c 0.76025,0.98734 3.32478,4.29906 5.69897,7.35938 2.37418,3.06032 5.60585,7.22832 7.18149,9.26222 1.57563,2.0339 2.93541,3.74165 3.02174,3.795 0.14029,0.0867 3.65238,-4.49963 13.56319,-17.71175 1.74053,-2.32031 3.27875,-4.28292 3.41826,-4.36136 0.13951,-0.0784 3.94235,-0.12062 8.45077,-0.0937 l 8.19712,0.0489 -4.90349,6.375 c -2.69692,3.50625 -5.48734,7.13438 -6.20093,8.0625 -0.71359,0.92813 -2.37967,3.0913 -3.7024,4.80705 -1.32272,1.71575 -3.43159,4.45794 -4.68637,6.09375 -1.25478,1.63581 -3.04775,3.96783 -3.98438,5.18227 -0.93662,1.21444 -1.70295,2.31828 -1.70295,2.45298 0,0.1347 0.61617,1.0395 1.36927,2.01068 2.76463,3.56517 15.55286,20.10938 19.58758,25.34056 2.28533,2.96301 4.29433,5.59973 4.46446,5.85938 l 0.30932,0.47208 h -8.32948 c -6.38431,0 -8.39703,-0.0547 -8.61873,-0.23437 -0.34649,-0.28076 -1.54067,-1.8034 -7.9776,-10.17188 -8.76486,-11.39496 -9.53736,-12.3726 -9.81356,-12.41963 -0.15802,-0.0269 -0.74516,0.63121 -1.39751,1.56645 -0.61875,0.88706 -1.44195,2.04661 -1.82933,2.57676 -0.38737,0.53016 -1.03647,1.42798 -1.44243,1.99517 -0.40596,0.56719 -2.90701,3.98438 -5.5579,7.59375 -2.65088,3.60938 -5.11069,6.98438 -5.46623,7.5 -1.19635,1.73501 -0.35101,1.59375 -9.53738,1.59375 -4.53559,0 -8.13548,-0.0727 -8.13548,-0.16437 z"
       style="fill:#000000;fill-opacity:1"
       id="path1-5" />
    <path
       style="fill:#fe0700;fill-opacity:1"
       d="m 158.25288,260.43033 -2.73665,-0.0571 -0.10152,-8.29203 c -0.0558,-4.56062 -0.09,-37.23265 -0.0758,-72.60453 l 0.0257,-64.3125 72.79687,-0.0471 72.79688,-0.0471 v 72.63462 72.63462 l -0.42188,0.11306 c -0.41419,0.111 -136.92438,0.09 -142.28352,-0.0219 z m 134.2679,-35.39392 c 0,-0.38207 -5.24414,-6.88346 -8.92102,-11.05977 -3.25295,-3.69482 -11.77334,-12.33231 -14.89148,-15.09615 -1.08281,-0.95978 -2.30625,-2.05012 -2.71875,-2.42299 -0.66612,-0.60212 -5.4892,-4.59928 -7.21875,-5.98259 -0.36094,-0.28869 -1.75313,-1.35408 -3.09375,-2.36754 -2.81579,-2.12863 -3.28173,-2.52696 -3.27998,-2.80404 7e-4,-0.11093 0.4694,-0.58138 1.04155,-1.04544 0.57215,-0.46406 1.23155,-1.0125 1.46532,-1.21875 0.23378,-0.20625 1.76685,-1.51406 3.40682,-2.90625 8.73428,-7.41461 19.40648,-18.54745 25.53814,-26.64042 0.74764,-0.98679 1.5703,-1.99234 1.82812,-2.23456 0.4537,-0.42623 0.64152,-1.12502 0.30238,-1.12502 -0.0915,0 -1.16731,0.20857 -2.39063,0.46349 -1.22332,0.25492 -4.03828,0.80146 -6.25547,1.21452 -14.99018,2.7927 -27.95654,5.30679 -28.59375,5.54414 -0.4125,0.15365 -1.13837,0.59543 -1.61304,0.98174 -0.89576,0.729 -4.59774,3.88492 -5.41821,4.619 -1.64092,1.46815 -7.99649,6.36394 -10.80451,8.32287 l -0.58576,0.40864 -1.57049,-0.80809 c -0.86377,-0.44446 -3.46893,-1.78452 -5.78924,-2.97792 -6.10751,-3.14127 -7.91082,-3.923 -8.56657,-3.71359 -0.28995,0.0926 -3.10062,0.68185 -6.24593,1.30946 -3.14531,0.62761 -11.83594,2.36803 -19.3125,3.8676 -7.47656,1.49956 -14.56406,2.90899 -15.75,3.13206 -1.81566,0.34152 -2.58863,0.60995 -2.37413,0.82445 0.0236,0.0237 1.64327,0.50679 3.59918,1.07365 5.22738,1.515 13.57684,4.30576 19.02495,6.35898 5.93578,2.237 12.46875,5.05867 12.46875,5.38541 0,0.26705 -4.71359,2.67045 -9.28125,4.7324 -8.74701,3.9486 -20.98547,8.30845 -30.46079,10.85141 -0.7175,0.19256 -1.38093,0.42649 -1.47429,0.51986 -0.26088,0.26088 0.0308,0.57742 0.53201,0.57742 0.39395,0 19.94047,3.8472 33.37182,6.56834 2.57812,0.52231 5.99531,1.2104 7.59375,1.52909 l 2.90625,0.57942 4.02967,-2.0182 c 4.57448,-2.29105 9.90556,-5.14881 14.43908,-7.74015 l 3.09375,-1.76837 0.7512,0.39551 c 0.85892,0.45223 2.55018,1.57088 5.35926,3.54479 2.90862,2.04385 6.67333,4.86136 7.38954,5.53033 0.20625,0.19264 1.17656,0.99117 2.15625,1.77449 1.48107,1.18423 4.16028,3.494 5.22987,4.50873 1.05167,0.99773 2.9126,2.2958 3.65039,2.54629 0.48678,0.16526 1.61989,0.42828 2.51802,0.58448 2.87747,0.50042 9.27018,1.68487 16.72324,3.0985 1.69966,0.32237 4.86372,0.90995 7.03125,1.30573 8.76838,1.60105 10.30437,1.89317 10.38648,1.97527 0.20564,0.20565 0.77325,0.0601 0.77325,-0.19823 z"
       id="path4"
       sodipodi:nodetypes="ccsccccccsscssssssssssssssssssscsssssscssssssssscsscsssssssssss" />
    <rect
       style="fill:none;fill-opacity:0.0978261;stroke-width:0.75"
       id="rect3"
       width="373.93466"
       height="158.52272"
       x="148.93466"
       y="108.66477" />
  </g>
</svg>
