<?xml version="1.0" encoding="UTF-8" standalone="no"?>
<!-- Generator: Adobe Illustrator 23.0.1, SVG Export Plug-In . SVG Version: 6.00 Build 0)  -->

<svg
   version="1.1"
   id="Layer_1"
   x="0px"
   y="0px"
   viewBox="0 0 28.1 30.799999"
   xml:space="preserve"
   sodipodi:docname="_logo_black.svg"
   width="28.1"
   height="30.799999"
   inkscape:version="1.4 (e7c3feb1, 2024-10-09)"
   xmlns:inkscape="http://www.inkscape.org/namespaces/inkscape"
   xmlns:sodipodi="http://sodipodi.sourceforge.net/DTD/sodipodi-0.dtd"
   xmlns="http://www.w3.org/2000/svg"
   xmlns:svg="http://www.w3.org/2000/svg"
   xmlns:rdf="http://www.w3.org/1999/02/22-rdf-syntax-ns#"
   xmlns:cc="http://creativecommons.org/ns#"
   xmlns:dc="http://purl.org/dc/elements/1.1/"><defs
   id="defs1" /><sodipodi:namedview
   id="namedview1"
   pagecolor="#ffffff"
   bordercolor="#000000"
   borderopacity="0.25"
   inkscape:showpageshadow="2"
   inkscape:pageopacity="0.0"
   inkscape:pagecheckerboard="0"
   inkscape:deskcolor="#d1d1d1"
   inkscape:zoom="1.8427068"
   inkscape:cx="68.649012"
   inkscape:cy="36.630896"
   inkscape:window-width="1456"
   inkscape:window-height="684"
   inkscape:window-x="0"
   inkscape:window-y="25"
   inkscape:window-maximized="0"
   inkscape:current-layer="Layer_1" />
<style
   type="text/css"
   id="style1">
	.st0{fill-rule:evenodd;clip-rule:evenodd;}
	.st1{fill:#ED1D46;}
</style>
<title
   id="title1">logo_dark-01 copy</title>
<desc
   id="desc1">Created with Sketch.</desc>
<g
   id="Page-1"
   transform="translate(-0.1,-0.2)">
	<g
   id="home"
   transform="translate(-57,-34)">
		
			<g
   id="logo_dark-01-copy"
   transform="translate(57,34)">
			<g
   id="Group">

				<path
   class="st1"
   d="M 28.1,21.8 V 23 c 0,4.4 -3.8,8 -8.6,8 H 8.7 C 4,31 0.1,27.4 0.1,23 v -7 c 0,-4.4 3.8,-8 8.6,-8 h 10.9 c 4.7,0 8.6,3.6 8.6,8 v 1.2 H 21.7 V 16 c 0,-1.1 -0.9,-1.9 -2.1,-1.9 H 8.7 C 7.6,14.1 6.6,15 6.6,16 v 7 c 0,1.1 0.9,1.9 2.1,1.9 h 10.9 c 1.1,0 2.1,-0.9 2.1,-1.9 V 21.8 Z M 23.8,0.2 H 4.4 v 5.2 h 19.4 z"
   id="path1" />
			</g>

		</g>
	</g>
</g>
<metadata
   id="metadata1"><rdf:RDF><cc:Work
       rdf:about=""><dc:title>logo_dark-01 copy</dc:title></cc:Work></rdf:RDF></metadata></svg>
