<?xml version="1.0" encoding="UTF-8" standalone="no"?>
<svg
   xmlns:dc="http://purl.org/dc/elements/1.1/"
   xmlns:cc="http://creativecommons.org/ns#"
   xmlns:rdf="http://www.w3.org/1999/02/22-rdf-syntax-ns#"
   xmlns:svg="http://www.w3.org/2000/svg"
   xmlns="http://www.w3.org/2000/svg"
   viewBox="0 0 1791.3815 352.05865"
   height="352.05865"
   width="1791.3815"
   xml:space="preserve"
   id="svg196"
   version="1.1"><metadata
     id="metadata202"><rdf:RDF><cc:Work
         rdf:about=""><dc:format>image/svg+xml</dc:format><dc:type
           rdf:resource="http://purl.org/dc/dcmitype/StillImage" /><dc:title></dc:title></cc:Work></rdf:RDF></metadata><defs
     id="defs200"><clipPath
       id="clipPath214"
       clipPathUnits="userSpaceOnUse"><path
         id="path212"
         d="M 0,471.449 H 1552.879 V 0 H 0 Z" /></clipPath></defs><g
     transform="matrix(1.3333333,0,0,-1.3333333,-138.27066,490.32932)"
     id="g204"><g
       id="g208"><g
         clip-path="url(#clipPath214)"
         id="g210"><g
           transform="translate(525.336,162.4394)"
           id="g216"><path
             id="path218"
             style="fill:#ffffff;fill-opacity:1;fill-rule:nonzero;stroke:none"
             d="m 0,0 c -14.76,-13.368 -30.076,-19.215 -49.573,-19.215 -39.267,0 -68.233,28.962 -68.233,68.232 0,40.657 28.41,69.622 68.511,69.622 19.219,0 35.094,-6.684 51.524,-21.441 L -21.444,75.75 c -7.796,7.799 -16.153,11.417 -26.459,11.417 -19.493,0 -33.975,-15.872 -33.975,-37.039 0,-22.003 14.76,-37.875 35.368,-37.875 9.191,0 15.878,2.785 25.066,10.862 z" /></g><g
           transform="translate(569.6281,212.0117)"
           id="g220"><path
             id="path222"
             style="fill:#ffffff;fill-opacity:1;fill-rule:nonzero;stroke:none"
             d="m 0,0 c 0,-22.278 13.927,-37.32 34.535,-37.32 20.329,0 34.534,15.32 34.534,36.764 0,23.393 -13.09,37.875 -34.257,37.875 C 13.927,37.319 0,22.556 0,0 m 104.715,-1.115 c 0,-37.878 -30.913,-67.673 -70.458,-67.673 -40.663,0 -69.906,28.684 -69.906,68.788 0,40.941 28.687,69.066 70.461,69.066 40.66,0 69.903,-29.518 69.903,-70.181" /></g><g
           transform="translate(735.9059,276.6224)"
           id="g224"><path
             id="path226"
             style="fill:#ffffff;fill-opacity:1;fill-rule:nonzero;stroke:none"
             d="m 0,0 v -15.875 c 9.469,14.76 18.937,20.33 35.094,20.33 12.253,0 23.948,-4.455 31.746,-11.972 8.354,-8.358 11.417,-18.66 11.417,-39.827 v -81.601 H 42.889 v 79.928 c 0,7.243 -0.834,11.42 -3.063,15.038 -3.34,5.295 -10.024,8.639 -16.989,8.639 C 9.191,-25.34 0,-35.649 0,-50.688 v -78.257 H -35.368 V 0 Z" /></g><g
           transform="translate(886.3042,147.678)"
           id="g228"><path
             id="path230"
             style="fill:#ffffff;fill-opacity:1;fill-rule:nonzero;stroke:none"
             d="m 0,0 h -35.365 v 99.142 h -14.208 v 29.802 h 14.208 v 7.24 c 0,34.538 16.986,50.688 52.355,49.573 V 153.174 C 4.736,151.781 0,147.045 0,136.184 v -7.24 H 16.99 V 99.142 H 0 Z" /></g><path
           id="path232"
           style="fill:#ffffff;fill-opacity:1;fill-rule:nonzero;stroke:none"
           d="m 962.903,147.679 h -35.371 v 128.944 h 35.371 z m 1.948,165.427 c 0,-10.861 -8.355,-19.215 -19.493,-19.215 -11.421,0 -19.775,8.354 -19.775,19.493 0,11.417 8.354,19.771 19.775,19.771 11.416,0 19.493,-8.354 19.493,-20.049" /><g
           transform="translate(1035.0361,185.5553)"
           id="g234"><path
             id="path236"
             style="fill:#ffffff;fill-opacity:1;fill-rule:nonzero;stroke:none"
             d="m 0,0 c 0,-6.129 2.226,-7.799 10.024,-8.354 h 6.129 v -29.524 h -28.129 c -17.271,0.555 -23.673,7.517 -23.396,24.51 v 75.194 h -14.76 v 29.796 h 14.76 V 126.16 H 0 V 91.622 H 16.153 V 61.826 H 0 Z" /></g><g
           transform="translate(1188.2111,276.6224)"
           id="g238"><path
             id="path240"
             style="fill:#ffffff;fill-opacity:1;fill-rule:nonzero;stroke:none"
             d="m 0,0 v -81.597 c 0,-18.941 -3.896,-29.525 -14.479,-38.438 -10.306,-8.632 -24.789,-13.364 -41.778,-13.364 -17.823,0 -33.139,5.01 -43.163,14.201 -9.195,8.354 -13.65,20.608 -13.65,37.601 V 0 h 35.372 v -79.372 c 0,-14.479 8.632,-24.232 21.441,-24.232 13.09,0 20.892,8.361 20.892,22.007 V 0 Z" /></g><g
           transform="translate(1256.1819,276.6224)"
           id="g242"><path
             id="path244"
             style="fill:#ffffff;fill-opacity:1;fill-rule:nonzero;stroke:none"
             d="m 0,0 v -18.938 c 3.618,9.469 6.125,13.369 11.417,17.268 5.569,3.899 13.087,6.125 20.885,6.125 0.837,0 2.233,0 4.177,-0.278 v -36.201 c -2.785,0.277 -5.569,0.555 -7.517,0.555 -9.747,0 -18.66,-4.458 -23.674,-11.698 C 1.111,-49.017 0,-54.587 0,-66.84 v -62.105 H -35.372 V 0 Z" /></g><g
           transform="translate(1342.8021,211.1745)"
           id="g246"><path
             id="path248"
             style="fill:#ffffff;fill-opacity:1;fill-rule:nonzero;stroke:none"
             d="m 0,0 c 0,-22.556 14.757,-39.549 33.972,-39.549 19.778,0 35.649,18.386 35.649,40.663 0,22.837 -14.479,38.993 -35.364,38.993 C 14.201,40.107 0,23.677 0,0 m 69.066,65.448 h 35.371 V -63.497 H 69.066 v 17.823 C 57.09,-60.99 43.167,-67.951 24.226,-67.951 c -36.202,0 -62.104,28.125 -62.104,67.395 0,40.663 27.295,70.459 64.888,70.459 17.549,0 29.525,-6.125 42.056,-20.886 z" /></g><path
           id="path250"
           style="fill:#ff0040;fill-opacity:1;fill-rule:nonzero;stroke:none"
           d="M 293.322,367.747 H 138.485 v -44.941 h 154.837 z m 34.782,-185.185 v -10.269 c 0,-37.821 -30.769,-68.59 -68.59,-68.59 h -87.221 c -37.821,0 -68.59,30.769 -68.59,68.59 v 59.661 c 0,37.822 30.769,68.591 68.59,68.591 h 87.221 c 37.821,0 68.59,-30.769 68.59,-68.591 v -10.208 h -51.848 v 10.208 c 0,9.231 -7.511,16.739 -16.742,16.739 h -87.221 c -9.227,0 -16.738,-7.508 -16.738,-16.739 v -59.661 c 0,-9.231 7.511,-16.738 16.738,-16.738 h 87.221 c 9.231,0 16.742,7.507 16.742,16.738 v 10.269 z" /></g></g></g></svg>