<?xml version="1.0" encoding="utf-8"?>
<!-- Generator: Adobe Illustrator 17.1.0, SVG Export Plug-In . SVG Version: 6.00 Build 0)  -->
<!DOCTYPE svg PUBLIC "-//W3C//DTD SVG 1.1//EN" "http://www.w3.org/Graphics/SVG/1.1/DTD/svg11.dtd">
<svg version="1.1" id="Layer_1" xmlns="http://www.w3.org/2000/svg" xmlns:xlink="http://www.w3.org/1999/xlink" x="0px" y="0px"
	 viewBox="0 0 667.5266113 633.2836914" enable-background="new 0 0 667.5266113 633.2836914" xml:space="preserve">
<rect x="571.0466309" y="537.3875732" transform="matrix(0.7071068 -0.7071068 0.7071068 0.7071068 -225.8676453 576.3305664)" fill="#D7193E" width="23.4240589" height="46.8481255"/>
<circle fill="#D7193E" cx="625.694519" cy="418.4958496" r="37.4785118"/>
<path fill="#8B0020" d="M655.4244995,395.6878052l-0.8839722-0.8839111l-42.977356,42.9773865l0.9281006,0.9281006
	c2.414917,2.414917,6.3302612,2.4148254,8.7452393-0.0001221l37.6463623-37.6463928
	C657.9018555,399.1965027,656.7421265,397.4009705,655.4244995,395.6878052z"/>
<rect x="506.8668213" y="563.0211182" transform="matrix(-0.7071068 0.7071068 -0.7071068 -0.7071068 1278.0146484 615.4104614)" fill="#D7193E" width="9.369627" height="18.7392578"/>
<circle fill="#D7193E" cx="196.8483887" cy="370.3184814" r="9.3696289"/>
<circle fill="#D7193E" cx="262.524353" cy="304.6424561" r="9.3696289"/>
<rect x="208.7268677" y="344.385498" transform="matrix(0.7071068 -0.7071068 0.7071068 0.7071068 -187.6358032 254.517334)" fill="#D7193E" width="9.369627" height="18.7392578"/>
<rect x="221.9776611" y="331.1347656" transform="matrix(0.7071068 -0.7071068 0.7071068 0.7071068 -174.3850555 260.006012)" fill="#D7193E" width="9.369627" height="18.7392578"/>
<circle fill="#D7193E" cx="242.6636963" cy="324.5031738" r="9.3696289"/>
<rect x="274.3723755" y="278.7399902" transform="matrix(0.7071068 -0.7071068 0.7071068 0.7071068 -121.9902954 281.7085876)" fill="#D7193E" width="9.369627" height="18.7392578"/>
<circle fill="#D7193E" cx="196.3015137" cy="291.3613281" r="9.3696289"/>
<circle fill="#D7193E" cx="176.4408569" cy="311.2220459" r="9.3696289"/>
<rect x="208.1495972" y="265.4588623" transform="matrix(0.7071068 -0.7071068 0.7071068 0.7071068 -131.9953308 230.9920654)" fill="#D7193E" width="9.369627" height="18.7392578"/>
<circle fill="#D7193E" cx="349.2004089" cy="178.2144623" r="9.3696289"/>
<rect x="327.952301" y="185.4080658" transform="matrix(-0.7071068 0.7071068 -0.7071068 -0.7071068 705.5756836 97.2963715)" fill="#D7193E" width="9.369627" height="18.7392578"/>
<circle fill="#D7193E" cx="176.383606" cy="430.5351562" r="9.3696289"/>
<circle fill="#D7193E" cx="322.684082" cy="284.2347412" r="9.3696289"/>
<rect x="480.379303" y="112.4849701" transform="matrix(0.7071068 -0.7071068 0.7071068 0.7071068 55.9077835 378.6825256)" fill="#D7193E" width="9.369627" height="18.7392578"/>
<rect x="155.135498" y="437.7288818" transform="matrix(-0.7071068 0.7071068 -0.7071068 -0.7071068 588.9767456 650.2348633)" fill="#D7193E" width="9.369627" height="18.7392578"/>
<circle fill="#D7193E" cx="431.0023804" cy="216.9244232" r="37.4923706"/>
<rect x="364.2706299" y="227.5849152" transform="matrix(0.7071068 -0.7071068 0.7071068 0.7071068 -75.2297897 348.4441528)" fill="#D7193E" width="37.4475403" height="74.8950882"/>
<rect x="533.336853" y="139.0314789" transform="matrix(-0.7071068 0.7071068 -0.7071068 -0.7071068 1023.395874 -127.1022263)" fill="#D7193E" width="9.369627" height="18.7392578"/>
<rect x="559.8630371" y="152.2571869" transform="matrix(-0.7071068 0.7071068 -0.7071068 -0.7071068 1078.0308838 -123.2813721)" fill="#D7193E" width="9.369627" height="18.7392578"/>
<rect x="361.0944519" y="311.2738037" transform="matrix(-0.7071068 0.7071068 -0.7071068 -0.7071068 851.1533813 288.7275696)" fill="#D7193E" width="9.369627" height="18.7392578"/>
<circle fill="#D7193E" cx="236.600647" cy="429.9460449" r="23.4240704"/>
<rect x="460.413269" y="132.4510345" transform="matrix(0.7071068 -0.7071068 0.7071068 0.7071068 35.9417267 370.412323)" fill="#D7193E" width="9.369627" height="18.7392578"/>
<rect x="413.178833" y="259.1894531" transform="matrix(0.7071068 -0.7071068 0.7071068 0.7071068 -67.5105057 374.1333618)" fill="#D7193E" width="9.369627" height="18.7392578"/>
<rect x="426.4295959" y="245.9387054" transform="matrix(-0.7071068 0.7071068 -0.7071068 -0.7071068 916.4885864 130.9946747)" fill="#D7193E" width="9.369627" height="18.7392578"/>
<circle fill="#D7193E" cx="475.0818176" cy="370.3487549" r="9.3696289"/>
<circle fill="#D7193E" cx="538.0847778" cy="327.2218018" r="23.4240723"/>
<rect x="566.5404663" y="225.083725" transform="matrix(0.7071068 -0.7071068 0.7071068 0.7071068 1.5244588 472.5870667)" fill="#D7193E" width="9.369627" height="18.7392578"/>
<rect x="494.8158264" y="335.3560181" transform="matrix(0.7071068 -0.7071068 0.7071068 0.7071068 -105.3281097 463.2430115)" fill="#D7193E" width="23.407753" height="46.8155136"/>
<circle fill="#D7193E" cx="382.3120422" cy="343.8626709" r="9.3696289"/>
<rect x="440.5678406" y="271.5523682" transform="matrix(-0.7071068 0.7071068 -0.7071068 -0.7071068 958.7356567 164.7226562)" fill="#D7193E" width="9.369627" height="18.7392578"/>
<rect x="427.3172607" y="284.8029785" transform="matrix(-0.7071068 0.7071068 -0.7071068 -0.7071068 945.4851074 196.7124329)" fill="#D7193E" width="9.369627" height="18.7392578"/>
<circle fill="#D7193E" cx="581.2416382" cy="144.9330902" r="9.3696289"/>
<rect x="215.352356" y="496.7679443" transform="matrix(0.7071068 -0.7071068 0.7071068 0.7071068 -293.4459229 303.8340454)" fill="#D7193E" width="9.369627" height="18.7392578"/>
<circle fill="#D7193E" cx="448.5804749" cy="317.3461914" r="9.3696289"/>
<circle fill="#D7193E" cx="402.2032776" cy="363.7233887" r="9.3696289"/>
<rect x="473.7094116" y="278.1628418" transform="matrix(-0.7071068 0.7071068 -0.7071068 -0.7071068 1019.9862061 152.5728149)" fill="#D7193E" width="9.369627" height="18.7392578"/>
<rect x="460.4586792" y="291.4135742" transform="matrix(0.7071068 -0.7071068 0.7071068 0.7071068 -76.4484558 417.003479)" fill="#D7193E" width="9.369627" height="18.7392578"/>
<path fill="#D7193E" d="M371.5968933,453.9571838c-9.0420532-9.25177-9.147644-23.9784851-0.0001221-33.1260071
	s23.9786072-9.147522,33.1261292,0s9.240448,24.0726013,0.0000916,33.1260071
	C395.4360657,463.0562439,380.4296265,462.9948425,371.5968933,453.9571838z"/>
<rect x="341.2337036" y="450.3905029" transform="matrix(-0.7071068 0.7071068 -0.7071068 -0.7071068 915.6193237 540.2583008)" fill="#D7193E" width="9.369627" height="18.7392578"/>
<circle fill="#D7193E" cx="441.0523376" cy="364.6262207" r="9.3696289"/>
<circle fill="#D7193E" cx="460.9283447" cy="344.7502441" r="9.3696289"/>
<circle fill="#D7193E" cx="250.7650146" cy="554.9135742" r="9.3696289"/>
<rect x="420.7223816" y="370.9017334" transform="matrix(-0.7071068 0.7071068 -0.7071068 -0.7071068 995.1079712 348.3554993)" fill="#D7193E" width="9.369627" height="18.7392578"/>
<circle fill="#D7193E" cx="395.5931396" cy="410.0854492" r="9.3696289"/>
<rect x="407.4716492" y="384.1525879" transform="matrix(0.7071068 -0.7071068 0.7071068 0.7071068 -157.5443878 406.6986389)" fill="#D7193E" width="9.369627" height="18.7392578"/>
<rect x="327.9829407" y="463.6412354" transform="matrix(0.7071068 -0.7071068 0.7071068 0.7071068 -237.0330505 373.7733154)" fill="#D7193E" width="9.369627" height="18.7392578"/>
<circle fill="#D7193E" cx="541.4714966" cy="264.2071533" r="9.3696289"/>
<rect x="553.3203125" y="238.3039398" transform="matrix(-0.7071068 0.7071068 -0.7071068 -0.7071068 1127.7059326 28.2360477)" fill="#D7193E" width="9.369627" height="18.7392578"/>
<circle fill="#D7193E" cx="634.350647" cy="171.3279877" r="9.3696289"/>
<rect x="472.8067932" y="318.8173828" transform="matrix(0.7071068 -0.7071068 0.7071068 0.7071068 -92.209198 433.761322)" fill="#D7193E" width="9.369627" height="18.7392578"/>
<rect x="486.0575256" y="305.5666504" transform="matrix(-0.7071068 0.7071068 -0.7071068 -0.7071068 1060.4431152 190.6226044)" fill="#D7193E" width="9.369627" height="18.7392578"/>
<circle fill="#D7193E" cx="395.6082764" cy="529.3262939" r="37.4785156"/>
<rect x="330.4918823" y="538.2248535" transform="matrix(-0.7071068 0.7071068 -0.7071068 -0.7071068 1003.258606 735.8433838)" fill="#D7193E" width="37.4785118" height="74.9570312"/>
<rect x="433.9881592" y="437.1398926" transform="matrix(-0.7071068 0.7071068 -0.7071068 -0.7071068 1064.5915527 452.0507812)" fill="#D7193E" width="9.369627" height="18.7392578"/>
<rect x="420.7374268" y="450.390625" transform="matrix(0.7071068 -0.7071068 0.7071068 0.7071068 -200.4962921 435.4796143)" fill="#D7193E" width="9.369627" height="18.7392578"/>
<circle fill="#D7193E" cx="298.9423828" cy="586.9437256" r="9.3696289"/>
<circle fill="#D7193E" cx="415.484314" cy="509.4501953" r="9.3696289"/>
<circle fill="#D7193E" cx="481.6919556" cy="443.2425537" r="9.3696289"/>
<rect x="539.9477539" y="370.932373" transform="matrix(-0.7071068 0.7071068 -0.7071068 -0.7071068 1198.6600342 264.1027222)" fill="#D7193E" width="9.369627" height="18.7392578"/>
<rect x="526.6972046" y="384.1828613" transform="matrix(-0.7071068 0.7071068 -0.7071068 -0.7071068 1185.4094238 296.0922852)" fill="#D7193E" width="9.369627" height="18.7392578"/>
<circle fill="#D7193E" cx="501.5679321" cy="423.3665771" r="9.3696289"/>
<rect x="513.4464722" y="397.4335938" transform="matrix(0.7071068 -0.7071068 0.7071068 0.7071068 -135.8961792 485.5240479)" fill="#D7193E" width="9.369627" height="18.7392578"/>
<rect x="460.4743042" y="450.4057617" transform="matrix(-0.7071068 0.7071068 -0.7071068 -0.7071068 1119.1865234 455.9685059)" fill="#D7193E" width="9.369627" height="18.7392578"/>
<circle fill="#D7193E" cx="435.3450317" cy="489.5894775" r="9.3696289"/>
<rect x="447.2235413" y="463.6564941" transform="matrix(0.7071068 -0.7071068 0.7071068 0.7071068 -202.1190796 458.0936279)" fill="#D7193E" width="9.369627" height="18.7392578"/>
<circle fill="#D7193E" cx="653.8569946" cy="271.0775146" r="9.3696289"/>
<rect x="632.7943726" y="278.0856934" transform="matrix(0.7071068 -0.7071068 0.7071068 0.7071068 -16.5482712 534.9595337)" fill="#D7193E" width="9.369627" height="18.7392578"/>
<rect x="619.5740967" y="291.3060303" transform="matrix(0.7071068 -0.7071068 0.7071068 0.7071068 -29.7685814 529.4835815)" fill="#D7193E" width="9.369627" height="18.7392578"/>
<circle fill="#D7193E" cx="607.694397" cy="317.2401123" r="9.3696289"/>
<circle fill="#D7193E" cx="547.9603882" cy="416.7260742" r="9.3696289"/>
<rect x="526.7122803" y="423.9197998" transform="matrix(-0.7071068 0.7071068 -0.7071068 -0.7071068 1213.5334473 363.9168396)" fill="#D7193E" width="9.369627" height="18.7392578"/>
<rect x="513.461731" y="437.1704102" transform="matrix(-0.7071068 0.7071068 -0.7071068 -0.7071068 1200.282959 395.9065857)" fill="#D7193E" width="9.369627" height="18.7392578"/>
<circle fill="#D7193E" cx="501.5831909" cy="463.1032715" r="9.3696289"/>
<circle fill="#D7193E" cx="481.7071838" cy="482.979248" r="9.3696289"/>
<circle fill="#D7193E" cx="435.3605957" cy="529.3259277" r="9.3696289"/>
<rect x="460.4590759" y="490.1729736" transform="matrix(-0.7071068 0.7071068 -0.7071068 -0.7071068 1147.2802734 523.8661499)" fill="#D7193E" width="9.369627" height="18.7392578"/>
<rect x="447.2086182" y="503.4234619" transform="matrix(0.7071068 -0.7071068 0.7071068 0.7071068 -230.2429352 469.7305298)" fill="#D7193E" width="9.369627" height="18.7392578"/>
<circle fill="#D7193E" cx="475.1123352" cy="529.3261719" r="9.3696289"/>
<rect x="453.8641968" y="536.5197754" transform="matrix(-0.7071068 0.7071068 -0.7071068 -0.7071068 1168.7941895 607.6483765)" fill="#D7193E" width="9.369627" height="18.7392578"/>
<circle fill="#D7193E" cx="540.432251" cy="464.0062256" r="9.3696289"/>
<circle fill="#D7193E" cx="560.3082886" cy="444.130249" r="9.3696289"/>
<rect x="520.102356" y="470.2817383" transform="matrix(-0.7071068 0.7071068 -0.7071068 -0.7071068 1235.0324707 447.7355347)" fill="#D7193E" width="9.369627" height="18.7392578"/>
<circle fill="#D7193E" cx="494.973053" cy="509.4654541" r="9.3696289"/>
<rect x="506.8515625" y="483.5324707" transform="matrix(0.7071068 -0.7071068 0.7071068 0.7071068 -198.7088776 506.0785217)" fill="#D7193E" width="9.369627" height="18.7392578"/>
<rect x="572.1867065" y="418.1972656" transform="matrix(0.7071068 -0.7071068 0.7071068 0.7071068 -133.3736877 533.1412354)" fill="#D7193E" width="9.369627" height="18.7392578"/>
<rect x="649.3171387" y="539.8267822" transform="matrix(-0.7071068 0.7071068 -0.7071068 -0.7071068 1504.791626 475.0877075)" fill="#D7193E" width="9.369627" height="18.7392578"/>
<rect x="573.0744019" y="457.0616455" transform="matrix(0.7071068 -0.7071068 0.7071068 0.7071068 -160.5949554 545.1520386)" fill="#D7193E" width="9.369627" height="18.7392578"/>
<rect x="520.1022339" y="510.0336914" transform="matrix(-0.7071068 0.7071068 -0.7071068 -0.7071068 1263.1411133 515.5964355)" fill="#D7193E" width="9.369627" height="18.7392578"/>
<rect x="506.8515015" y="523.2844238" transform="matrix(0.7071068 -0.7071068 0.7071068 0.7071068 -226.8177643 517.7215576)" fill="#D7193E" width="9.369627" height="18.7392578"/>
<circle fill="#D7193E" cx="541.335144" cy="542.6072998" r="9.3696289"/>
<circle fill="#D7193E" cx="494.9885254" cy="588.9538574" r="9.3696289"/>
<circle fill="#D7193E" cx="83.7140503" cy="443.5587158" r="9.3696289"/>
<circle fill="#D7193E" cx="614.1984863" cy="529.3718262" r="23.4240665"/>
<rect x="586.4223022" y="85.9460297" transform="matrix(0.7071068 -0.7071068 0.7071068 0.7071068 105.7329178 445.893158)" fill="#D7193E" width="9.369627" height="18.7392578"/>
<rect x="121.8097534" y="431.1605225" transform="matrix(-0.7071068 0.7071068 -0.7071068 -0.7071068 527.4415894 662.586792)" fill="#D7193E" width="9.369627" height="18.7392578"/>
<rect x="632.8425903" y="39.5256233" transform="matrix(0.7071068 -0.7071068 0.7071068 0.7071068 152.1533051 465.1210632)" fill="#D7193E" width="9.369627" height="18.7392578"/>
<circle fill="#D7193E" cx="620.9645386" cy="65.4581146" r="9.3696289"/>
<rect x="599.7635498" y="72.6047211" transform="matrix(0.7071068 -0.7071068 0.7071068 0.7071068 119.0742188 451.419281)" fill="#D7193E" width="9.369627" height="18.7392578"/>
<g>
	
		<rect x="314.9691772" y="270.0485535" transform="matrix(-0.7071068 0.7071068 -0.7071068 -0.7071068 941.9144287 285.6177368)" fill="#B00F31" width="193.6693268" height="135.6743622"/>
	<polygon fill="#8B0020" points="465.2626343,267.9787903 429.2216492,304.0198059 454.0235291,321.5409241 486.3934021,289.171051 
			"/>
	<path fill="#B00F31" d="M613.329895,437.7824097l52.0013428-52.0013733c2.9273071-2.9272766,2.9273071-7.6732788,0-10.6005249
		l-37.9126587-37.9126892l-52.0013428,52.0013733l37.9126587,37.9126892"/>
	<path fill="#8B0020" d="M608.5438843,422.3958435l-10.6005249,10.6005249l4.7860107,4.7860413
		c2.9272461,2.9272461,7.6732788,2.9272461,10.6005249,0c2.9272461-2.9272766,2.9272461-7.6732788,0-10.6005249
		L608.5438843,422.3958435z"/>
	<path fill="#8B0020" d="M606.3696899,420.2217102l3.8400879-3.8400574c4.0119019-4.0119324,4.0119019-10.516571,0-14.5285034
		l-23.6882935-23.6882324l-11.104248,11.1042786L606.3696899,420.2217102z"/>
	
		<rect x="323.7410583" y="314.3264771" transform="matrix(-0.7071068 0.7071068 -0.7071068 -0.7071068 881.3019409 376.1793213)" fill="#8B0020" width="78.0012512" height="112.5735855"/>
	<g>
		<path fill="#B00F31" d="M604.4193726,413.3386536L451.1047363,566.6532593
			c-1.9671631,1.9671631-5.5368652,1.9671631-7.7385864-0.2346191l-57.9627686-57.962738
			c-2.2017212-2.2017212-2.2017212-5.7714233,0-7.9731445l153.3146362-153.3146362
			c2.2017212-2.2017212,5.7714233-2.2017212,7.9731445,0l57.9627686,57.962738
			C606.8556519,407.3326111,606.8556519,410.9023132,604.4193726,413.3386536z"/>
		
			<rect x="396.3901672" y="498.2833557" transform="matrix(0.7071068 -0.7071068 0.7071068 0.7071068 -236.9132538 433.4311829)" fill="#9D0829" width="16.7018452" height="8.823616"/>
		
			<rect x="408.7368469" y="506.6909485" transform="matrix(0.7071068 -0.7071068 0.7071068 0.7071068 -242.0274048 445.7778625)" fill="#9D0829" width="16.7018452" height="16.7018452"/>
		
			<rect x="423.8692627" y="521.8233643" transform="matrix(0.7071068 -0.7071068 0.7071068 0.7071068 -248.2954865 460.9103088)" fill="#9D0829" width="16.7018452" height="16.7018452"/>
		
			<rect x="439.0016479" y="536.9558105" transform="matrix(0.7071068 -0.7071068 0.7071068 0.7071068 -254.5635681 476.0426941)" fill="#9D0829" width="16.7018452" height="16.7018452"/>
		
			<rect x="411.5223999" y="483.1511536" transform="matrix(0.7071068 -0.7071068 0.7071068 0.7071068 -221.7810364 439.6991882)" fill="#9D0829" width="16.7018452" height="8.823616"/>
		
			<rect x="423.8690796" y="491.5587463" transform="matrix(0.7071068 -0.7071068 0.7071068 0.7071068 -226.8952026 452.0458679)" fill="#9D0829" width="16.7018452" height="16.7018452"/>
		
			<rect x="439.0014954" y="506.6911926" transform="matrix(0.7071068 -0.7071068 0.7071068 0.7071068 -233.163269 467.1782837)" fill="#9D0829" width="16.7018452" height="16.7018452"/>
		
			<rect x="426.654541" y="468.0189514" transform="matrix(0.7071068 -0.7071068 0.7071068 0.7071068 -206.6488495 445.9671021)" fill="#9D0829" width="16.7018452" height="8.823616"/>
		
			<rect x="439.0012512" y="476.4266663" transform="matrix(0.7071068 -0.7071068 0.7071068 0.7071068 -211.763092 458.3138428)" fill="#9D0829" width="16.7018452" height="16.7018452"/>
		
			<rect x="454.1336365" y="491.5589905" transform="matrix(0.7071068 -0.7071068 0.7071068 0.7071068 -218.0310822 473.4461975)" fill="#9D0829" width="16.7018452" height="16.7018452"/>
		
			<rect x="441.7868042" y="452.8867493" transform="matrix(0.7071068 -0.7071068 0.7071068 0.7071068 -191.5166321 452.2351074)" fill="#9D0829" width="16.7018452" height="8.823616"/>
		
			<rect x="454.1334839" y="461.294342" transform="matrix(0.7071068 -0.7071068 0.7071068 0.7071068 -196.6307983 464.5817871)" fill="#9D0829" width="16.7018452" height="16.7018452"/>
		
			<rect x="469.2658691" y="476.4267883" transform="matrix(0.7071068 -0.7071068 0.7071068 0.7071068 -202.89888 479.7141724)" fill="#9D0829" width="16.7018452" height="16.7018452"/>
		
			<rect x="456.9189148" y="437.7546692" transform="matrix(0.7071068 -0.7071068 0.7071068 0.7071068 -176.3845367 458.5030518)" fill="#9D0829" width="16.7018452" height="8.823616"/>
		
			<rect x="469.2655945" y="446.162262" transform="matrix(0.7071068 -0.7071068 0.7071068 0.7071068 -181.498703 470.8497314)" fill="#9D0829" width="16.7018452" height="16.7018452"/>
		
			<rect x="484.3979797" y="461.2947083" transform="matrix(0.7071068 -0.7071068 0.7071068 0.7071068 -187.7667847 485.9821167)" fill="#9D0829" width="16.7018452" height="16.7018452"/>
		
			<rect x="472.0511475" y="422.622467" transform="matrix(0.7071068 -0.7071068 0.7071068 0.7071068 -161.2523346 464.7710266)" fill="#9D0829" width="16.7018452" height="8.823616"/>
		
			<rect x="484.3978271" y="431.0300598" transform="matrix(0.7071068 -0.7071068 0.7071068 0.7071068 -166.3665009 477.1177063)" fill="#9D0829" width="16.7018452" height="16.7018452"/>
		
			<rect x="499.5302124" y="446.162384" transform="matrix(0.7071068 -0.7071068 0.7071068 0.7071068 -172.634491 492.250061)" fill="#9D0829" width="16.7018452" height="16.7018452"/>
		
			<rect x="441.5979919" y="491.5592346" transform="matrix(0.7071068 -0.7071068 0.7071068 0.7071068 -209.1669617 494.8465881)" fill="#9D0829" width="102.3023987" height="16.7018452"/>
		
			<rect x="487.1832886" y="407.4902649" transform="matrix(0.7071068 -0.7071068 0.7071068 0.7071068 -146.1201477 471.0389404)" fill="#9D0829" width="16.7018452" height="8.823616"/>
		
			<rect x="499.5299683" y="415.8978577" transform="matrix(0.7071068 -0.7071068 0.7071068 0.7071068 -151.234314 483.3856201)" fill="#9D0829" width="16.7018452" height="16.7018452"/>
		
			<rect x="514.6623535" y="431.030304" transform="matrix(0.7071068 -0.7071068 0.7071068 0.7071068 -157.5023804 498.5180359)" fill="#9D0829" width="16.7018452" height="16.7018452"/>
		
			<rect x="529.7947388" y="446.1626282" transform="matrix(0.7071068 -0.7071068 0.7071068 0.7071068 -163.7703857 513.6503906)" fill="#9D0829" width="16.7018452" height="16.7018452"/>
		
			<rect x="502.3155212" y="392.3580627" transform="matrix(0.7071068 -0.7071068 0.7071068 0.7071068 -130.9879303 477.3069153)" fill="#9D0829" width="16.7018452" height="8.823616"/>
		
			<rect x="514.6621704" y="400.7656555" transform="matrix(0.7071068 -0.7071068 0.7071068 0.7071068 -136.1020966 489.653595)" fill="#9D0829" width="16.7018452" height="16.7018452"/>
		
			<rect x="544.927002" y="431.030426" transform="matrix(0.7071068 -0.7071068 0.7071068 0.7071068 -148.6381683 519.918396)" fill="none" stroke="#231F20" stroke-linecap="round" stroke-linejoin="round" stroke-miterlimit="10" width="16.7018452" height="16.7018452"/>
		
			<rect x="517.4473877" y="377.2261047" transform="matrix(0.7071068 -0.7071068 0.7071068 0.7071068 -115.8559952 483.5747375)" fill="#9D0829" width="16.7018452" height="8.823616"/>
		
			<rect x="529.7940674" y="385.6336975" transform="matrix(0.7071068 -0.7071068 0.7071068 0.7071068 -120.9701538 495.9214172)" fill="#9D0829" width="16.7018452" height="16.7018452"/>
		
			<rect x="544.9265137" y="400.7661438" transform="matrix(0.7071068 -0.7071068 0.7071068 0.7071068 -127.2382278 511.0538635)" fill="#9D0829" width="16.7018452" height="16.7018452"/>
		
			<rect x="560.0588989" y="415.8985901" transform="matrix(0.7071068 -0.7071068 0.7071068 0.7071068 -133.5063171 526.1862793)" fill="#B00F31" width="16.7018452" height="16.7018452"/>
		
			<rect x="532.5795288" y="362.0940247" transform="matrix(0.7071068 -0.7071068 0.7071068 0.7071068 -100.7238998 489.8427124)" fill="#9D0829" width="16.7018452" height="8.823616"/>
		
			<rect x="544.9262085" y="370.5016174" transform="matrix(0.7071068 -0.7071068 0.7071068 0.7071068 -105.8380585 502.1893921)" fill="#9D0829" width="16.7018452" height="16.7018452"/>
		
			<rect x="575.19104" y="400.7663879" transform="matrix(0.7071068 -0.7071068 0.7071068 0.7071068 -118.3741226 532.4541626)" fill="#9D0829" width="16.7018452" height="16.7018452"/>
	</g>
	
		<rect x="268.96875" y="317.7319336" transform="matrix(-0.7071068 0.7071068 -0.7071068 -0.7071068 836.1462402 417.3175049)" fill="#FF0040" width="125.3501358" height="128.1967621"/>
	
		<rect x="219.0928802" y="325.5177002" transform="matrix(0.7071068 -0.7071068 0.7071068 0.7071068 -152.1993256 296.4672546)" fill="#C41538" width="125.3501358" height="12.8735199"/>
	<g>
		<polygon fill="#9D0829" points="399.9896545,594.7227173 394.5343628,594.7227173 383.440033,605.8170776 
			387.6238403,610.0008545 389.079071,611.4561157 410.9066772,633.2836914 443.6494141,600.5408936 418.9104614,575.8019409 		"/>
		<polygon fill="#FF0040" points="418.8475342,583.0197754 386.1047668,615.7625732 410.9066772,633.2836914 
			443.6494141,600.5408936 		"/>
	</g>
	<polygon fill="#9D0829" points="566.9669189,306.0034485 566.9669189,300.5481567 578.0612183,289.4538269 605.527832,316.9204712 
		572.7850952,349.663208 548.0461426,324.9242554 	"/>
	<polygon fill="#FF0040" points="555.2639771,324.8613281 588.0067139,292.1185608 605.527832,316.9204712 572.7850952,349.663208 	
		"/>
	<polygon fill="#9D0829" points="434.2729797,282.9801025 428.817688,282.9801025 417.7233582,294.0744324 421.907135,298.2582092 
		423.3623657,299.7134705 445.1899719,321.5410461 477.9327393,288.7982788 453.1937561,264.0592957 	"/>
	
		<rect x="443.6993103" y="321.6070862" transform="matrix(-0.7071068 0.7071068 -0.7071068 -0.7071068 1056.4523926 230.5485992)" fill="#FF0040" width="73.5573654" height="24.9313316"/>
	<g>
		<polygon fill="#C41538" points="428.9651184,256.7326355 476.3989868,209.2987671 504.6028748,237.5026703 
			498.2937317,243.8118286 511.5669556,257.085022 485.8123474,256.2932129 457.1690063,284.936554 		"/>
		
			<line fill="none" stroke="#FF0040" stroke-width="4" stroke-miterlimit="10" x1="474.5518799" y1="228.2269592" x2="448.1990051" y2="254.579834"/>
		
			<line fill="none" stroke="#FF0040" stroke-width="4" stroke-miterlimit="10" x1="479.9162292" y1="233.5912933" x2="453.5633545" y2="259.9441833"/>
		
			<line fill="none" stroke="#FF0040" stroke-width="4" stroke-miterlimit="10" x1="485.2805786" y1="238.9556427" x2="458.9277039" y2="265.3085327"/>
	</g>
	<path fill="#8B0020" d="M490.1078186,527.6494751l-11.9882507-11.9882202
		c-1.8912354-1.8912354-2.1973877-4.9627991-0.4942322-7.0249939c1.9537964-2.3656311,5.4635315-2.4898376,7.5807495-0.3726501
		l14.5646667,14.5646973l1.3296509-1.3297119l-20.473114-20.4730835c-1.8912354-1.8912354-2.1974182-4.9627991-0.4942322-7.0250244
		c1.9537964-2.3656006,5.4635925-2.4897766,7.580719-0.3726196l20.6286926,20.6286621l1.3296814-1.3296509l-22.7115173-22.7115173
		c-1.8912354-1.8912354-2.1974182-4.9627991-0.4942322-7.0249939c1.9537964-2.3656311,5.463562-2.4897766,7.580719-0.3726501
		l22.8670654,22.8670959l1.3297119-1.3296814l-19.090332-19.0903015c-1.8912354-1.8912354-2.1975403-4.9627991-0.4944458-7.0250854
		c1.9536438-2.3656921,5.463562-2.4899292,7.58078-0.3727112l16.825531,16.825531"/>
	<path fill="#8B0020" d="M586.9499512,430.8080139l-17.5893555-17.5894165
		c-1.8912354-1.8912048-4.9627686-2.1973877-7.0249634-0.4942017c-2.3656616,1.9537964-2.4898682,5.4635315-0.3726807,7.580719
		l0.3875732,0.3876038l-1.3296509,1.3296814l-2.854126-2.8541565c-1.8912354-1.8912048-4.9628296-2.1973877-7.0250244-0.4942017
		c-2.3656006,1.9537659-2.4897461,5.463562-0.3726196,7.580719l3.0097046,3.0096741l-1.3296509,1.3296814l-4.4276733-4.4276733
		c-1.8912354-1.8912354-4.9628296-2.1974182-7.0250244-0.4942322c-2.3656006,1.9537964-2.4898071,5.463562-0.3726196,7.580719
		l4.583252,4.583252l-1.3297119,1.3296814l-19.090271-19.0903015c-1.8912354-1.8912354-4.9628296-2.1975708-7.0250854-0.4944763
		c-2.3657227,1.9536743-2.4899292,5.463562-0.3727417,7.58078l32.3295288,32.3294983l-1.3703003,1.3703308l-7.9630737-7.9630432
		c-1.8911743-1.8911743-4.9625854-2.1974792-7.0248413-0.4944763c-2.3657227,1.9536438-2.4901123,5.4636536-0.3728638,7.5809021
		l12.3924561,12.3924255"/>
	<path fill="#FF0040" d="M546.9908447,515.2401123v14.3125l23.5753784,23.5754395l-26.3555908,26.3555908l-23.5753784-23.5754395
		l-5.5579834-0.0133057c-3.5679016-0.0084839-6.9872437-1.4296265-9.5101318-3.9525146l-36.28125-36.28125
		c-1.8912048-1.8912354-2.1973877-4.9627686-0.4942017-7.0249634c1.9537659-2.3656311,5.4635315-2.4898682,7.580719-0.3726501
		l14.5646667,14.5646667l1.3296814-1.3297119l-20.473114-20.4730835c-1.8912354-1.8912354-2.1974182-4.9627991-0.4942322-7.0249939
		c1.9537659-2.3656311,5.463562-2.4897766,7.580719-0.3726501l20.6286926,20.6287231l1.3296509-1.3297119l-22.7114868-22.7114868
		c-1.8912354-1.8912354-2.1974182-4.9627991-0.4942322-7.0249939c1.9537659-2.3656311,5.463562-2.4898071,7.580719-0.3726501
		l22.8670654,22.8670654l1.3296814-1.3296509L490.3199158,485.26474c-1.8912354-1.8912354-2.1975708-4.9627991-0.4944763-7.0250854
		c1.9536743-2.3657227,5.4635925-2.4899292,7.58078-0.3727417l32.3294983,32.3295288l1.3703003-1.3703308l-7.9630127-7.9630127
		c-1.8911743-1.8911743-2.1974487-4.962616-0.4944458-7.0248413c1.9536133-2.3657532,5.463623-2.4901123,7.5808716-0.3728638
		l13.1824951,13.1824646h-0.000061C545.7874146,509.0233765,546.9804077,512.130127,546.9908447,515.2401123"/>
	<path fill="#FF0040" d="M545.928772,476.7463379h14.312561l23.4772949,23.477356l26.3555908-26.3555908l-23.4772949-23.4773254
		l-0.0133057-5.5579834c-0.0085449-3.5679016-1.4296265-6.9872131-3.9525757-9.5101013l-22.104126-22.104187
		c-1.8912354-1.8912048-4.9627686-2.1973877-7.0249634-0.4942017c-2.3656616,1.9537659-2.4898682,5.4635315-0.3726807,7.580719
		l0.3875732,0.3875732l-1.3296509,1.3296814l-2.854126-2.854126c-1.8912354-1.8912354-4.9627686-2.1974182-7.0249634-0.4942322
		c-2.3656616,1.9537964-2.4898071,5.463562-0.3726807,7.580719l3.0097046,3.0097046l-1.3296509,1.3296814l-4.4276733-4.4276733
		c-1.8912354-1.8912354-4.9628296-2.1974182-7.0250244-0.4942322c-2.3656006,1.9537659-2.4897461,5.463562-0.3726196,7.580719
		l4.583252,4.583252l-1.3296509,1.3296509l-19.090332-19.0903015c-1.8912354-1.8912354-4.9627991-2.1975403-7.0250854-0.4944458
		c-2.3656921,1.9536438-2.4899292,5.463562-0.3727417,7.58078l32.3295288,32.3294983l-1.3703003,1.3703003l-7.9630737-7.9630432
		c-1.8911133-1.8911743-4.9625854-2.1974487-7.0248413-0.4944458c-2.3657227,1.9536438-2.4901123,5.463623-0.3728027,7.5809021
		l13.1824341,13.1824341l0,0C539.7120361,475.5429382,542.8188477,476.7359009,545.928772,476.7463379"/>
	<g>
		<polygon fill="#C41538" points="332.7348328,434.8691406 284.6998291,482.9041443 323.699585,521.9038696 
			330.0087585,515.5947266 341.0727844,526.6588135 341.0727539,504.5307312 371.7345886,473.8688965 		"/>
		
			<line fill="none" stroke="#FF0040" stroke-width="4" stroke-miterlimit="10" x1="301.2819214" y1="483.4031372" x2="333.2338257" y2="451.4512329"/>
		
			<line fill="none" stroke="#FF0040" stroke-width="4" stroke-miterlimit="10" x1="306.6462708" y1="488.7674866" x2="338.598175" y2="456.8155823"/>
		
			<line fill="none" stroke="#FF0040" stroke-width="4" stroke-miterlimit="10" x1="312.0777893" y1="494.1989746" x2="344.0296631" y2="462.2471008"/>
		
			<line fill="none" stroke="#FF0040" stroke-width="4" stroke-miterlimit="10" x1="317.4421387" y1="499.563324" x2="349.3940125" y2="467.6114502"/>
		
			<line fill="none" stroke="#FF0040" stroke-width="4" stroke-miterlimit="10" x1="322.806488" y1="504.9276733" x2="354.7583618" y2="472.9757996"/>
	</g>
	<polygon fill="#FF0040" points="453.1308594,271.2771606 420.388092,304.019928 445.1899719,321.5410461 477.9327393,288.7982788 	
		"/>
</g>
<rect x="236.1117554" y="476.0085449" transform="matrix(0.7071068 -0.7071068 0.7071068 0.7071068 -272.6865234 312.4328613)" fill="#D7193E" width="9.369627" height="18.7392578"/>
<rect x="335.1960449" y="258.9046631" transform="matrix(-0.7071068 0.7071068 -0.7071068 -0.7071068 769.911499 217.6407776)" fill="#D7193E" width="9.369627" height="18.7392578"/>
<rect x="394.2057495" y="317.9144287" transform="matrix(-0.7071068 0.7071068 -0.7071068 -0.7071068 912.3735352 276.6506042)" fill="#D7193E" width="9.369627" height="18.7392578"/>
<rect x="374.3297729" y="298.0384521" transform="matrix(-0.7071068 0.7071068 -0.7071068 -0.7071068 864.3887329 256.7746277)" fill="#D7193E" width="9.369627" height="18.7392578"/>
<circle fill="#D7193E" cx="607.5883179" cy="476.3540039" r="9.3696289"/>
<rect x="201.5125732" y="391.3518066" transform="matrix(0.7071068 -0.7071068 0.7071068 0.7071068 -222.9590149 263.1721802)" fill="#D7193E" width="9.369627" height="18.7392578"/>
<rect x="188.2620239" y="404.6022949" transform="matrix(0.7071068 -0.7071068 0.7071068 0.7071068 -236.2095337 257.6835938)" fill="#D7193E" width="9.369627" height="18.7392578"/>
<circle fill="#D7193E" cx="316.0587769" cy="211.3560638" r="9.3696289"/>
<rect x="294.8106079" y="218.5497894" transform="matrix(-0.7071068 0.7071068 -0.7071068 -0.7071068 672.434021 177.3075409)" fill="#D7193E" width="9.369627" height="18.7392578"/>
<rect x="361.0484619" y="112.5599213" transform="matrix(0.7071068 -0.7071068 0.7071068 0.7071068 20.9035873 294.3248291)" fill="#D7193E" width="9.369627" height="18.7392578"/>
<circle fill="#D7193E" cx="468.5458069" cy="58.8690071" r="9.3696289"/>
<rect x="154.4367065" y="557.3344727" transform="matrix(0.7071068 -0.7071068 0.7071068 0.7071068 -354.1146851 278.4996948)" fill="#D7193E" width="9.369627" height="18.7392578"/>
<rect x="167.6873169" y="544.0837402" transform="matrix(0.7071068 -0.7071068 0.7071068 0.7071068 -340.8639832 283.9882507)" fill="#D7193E" width="9.369627" height="18.7392578"/>
<rect x="636.036377" y="553.1075439" transform="matrix(0.7071068 -0.7071068 0.7071068 0.7071068 -210.0685272 617.8040161)" fill="#D7193E" width="9.369627" height="18.7392578"/>
<rect x="174.3642578" y="498.0040283" transform="matrix(-0.7071068 0.7071068 -0.7071068 -0.7071068 664.4232178 739.5341797)" fill="#D7193E" width="9.369627" height="18.7392578"/>
<rect x="275.8637085" y="515.760498" transform="matrix(0.7071068 -0.7071068 0.7071068 0.7071068 -289.1523132 352.1848145)" fill="#D7193E" width="9.369627" height="18.7392578"/>
<rect x="262.6434937" y="528.9807129" transform="matrix(-0.7071068 0.7071068 -0.7071068 -0.7071068 837.0291138 729.9918213)" fill="#D7193E" width="9.369627" height="18.7392578"/>
<rect x="277.8087158" y="594.0229492" transform="matrix(0.7071068 -0.7071068 0.7071068 0.7071068 -343.9225464 376.4826965)" fill="#D7193E" width="9.369627" height="18.7392578"/>
<circle fill="#D7193E" cx="126.7689819" cy="599.0565186" r="9.3696289"/>
<rect x="88.9748535" y="344.5655518" transform="matrix(0.7071068 -0.7071068 0.7071068 0.7071068 -222.837677 169.8926086)" fill="#D7193E" width="9.369627" height="18.7392578"/>
<rect x="75.7242432" y="357.8161621" transform="matrix(0.7071068 -0.7071068 0.7071068 0.7071068 -236.0882874 164.4040222)" fill="#D7193E" width="9.369627" height="18.7392578"/>
<path fill="#D7193E" d="M77.4345779,370.1602173"/>
<circle fill="#D7193E" cx="26.5166016" cy="421.0782471" r="9.3696289"/>
<rect x="5.2532363" y="428.2871094" transform="matrix(-0.7071068 0.7071068 -0.7071068 -0.7071068 326.4353638 740.0994873)" fill="#D7193E" width="9.369627" height="18.7392578"/>
<rect x="414.0809937" y="59.5274544" transform="matrix(0.7071068 -0.7071068 0.7071068 0.7071068 73.9360809 316.291626)" fill="#D7193E" width="9.369627" height="18.7392578"/>
<rect x="347.8907776" y="125.7176361" transform="matrix(0.7071068 -0.7071068 0.7071068 0.7071068 7.7458811 288.8747559)" fill="#D7193E" width="9.369627" height="18.7392578"/>
<rect x="480.3944702" y="32.9659309" transform="matrix(-0.7071068 0.7071068 -0.7071068 -0.7071068 858.0178833 -270.7315369)" fill="#D7193E" width="9.369627" height="18.7392578"/>
<circle fill="#D7193E" cx="501.7174988" cy="105.2012787" r="9.3696289"/>
<rect x="592.2959595" y="0.5683461" transform="matrix(0.7071068 -0.7071068 0.7071068 0.7071068 167.8244171 425.0399475)" fill="#D7193E" width="9.369627" height="18.7392578"/>
<rect x="578.7937622" y="14.0705433" transform="matrix(0.7071068 -0.7071068 0.7071068 0.7071068 154.3222198 419.447113)" fill="#D7193E" width="9.369627" height="18.7392578"/>
<rect x="565.2915039" y="27.5728626" transform="matrix(0.7071068 -0.7071068 0.7071068 0.7071068 140.8199158 413.8543396)" fill="#D7193E" width="9.369627" height="18.7392578"/>
<rect x="546.6776123" y="125.6906586" transform="matrix(0.7071068 -0.7071068 0.7071068 0.7071068 65.9882736 429.4303589)" fill="#D7193E" width="9.369627" height="18.7392578"/>
<rect x="586.3699341" y="205.2542572" transform="matrix(-0.7071068 0.7071068 -0.7071068 -0.7071068 1160.7556152 -51.5529213)" fill="#D7193E" width="9.369627" height="18.7392578"/>
<rect x="393.2093201" y="0.8199331" transform="matrix(-0.7071068 0.7071068 -0.7071068 -0.7071068 686.4528809 -263.9589844)" fill="#D7193E" width="9.369627" height="18.7392578"/>
<circle fill="#D7193E" cx="375.3545227" cy="32.7292366" r="9.3696289"/>
<rect x="520.163208" y="152.2050629" transform="matrix(-0.7071068 0.7071068 -0.7071068 -0.7071068 1010.2221069 -95.298317)" fill="#D7193E" width="9.369627" height="18.7392578"/>
<circle fill="#D7193E" cx="508.284668" cy="178.1380463" r="9.3696289"/>
<rect x="632.1312256" y="358.2528076" transform="matrix(0.7071068 -0.7071068 0.7071068 0.7071068 -73.4292068 557.9710693)" fill="#D7193E" width="9.369627" height="18.7392578"/>
<rect x="619.9919434" y="370.3920898" transform="matrix(0.7071068 -0.7071068 0.7071068 0.7071068 -85.5684891 552.9428101)" fill="#D7193E" width="9.369627" height="18.7392578"/>
<circle fill="#D7193E" cx="289.595459" cy="396.8272705" r="9.3696289"/>
<rect x="314.6939087" y="357.6743164" transform="matrix(-0.7071068 0.7071068 -0.7071068 -0.7071068 804.7528687 400.7483215)" fill="#D7193E" width="9.369627" height="18.7392578"/>
<rect x="327.9752197" y="344.3930664" transform="matrix(-0.7071068 0.7071068 -0.7071068 -0.7071068 818.0341797 368.6845093)" fill="#D7193E" width="9.369627" height="18.7392578"/>
<rect x="341.2106628" y="331.1575928" transform="matrix(-0.7071068 0.7071068 -0.7071068 -0.7071068 831.2695923 336.7312622)" fill="#D7193E" width="9.369627" height="18.7392578"/>
<rect x="301.4434814" y="370.9248047" transform="matrix(0.7071068 -0.7071068 0.7071068 0.7071068 -179.2458649 327.8510742)" fill="#D7193E" width="9.369627" height="18.7392578"/>
<circle fill="#D7193E" cx="210.2045898" cy="476.2181396" r="9.3696289"/>
<rect x="188.9564819" y="483.4118652" transform="matrix(-0.7071068 0.7071068 -0.7071068 -0.7071068 679.0155029 704.305542)" fill="#D7193E" width="9.369627" height="18.7392578"/>
<circle fill="#D7193E" cx="382.3270569" cy="383.5996094" r="9.3696289"/>
<rect x="361.1094971" y="390.7626953" transform="matrix(0.7071068 -0.7071068 0.7071068 0.7071068 -175.7975922 375.8516846)" fill="#D7193E" width="9.369627" height="18.7392578"/>
<rect x="343.1582031" y="434.2106018" transform="matrix(0.7071068 -0.7071068 0.7071068 0.7071068 -212.5311737 374.9021301)" fill="#8B0020" width="6.2462177" height="19.5765915"/>
<rect x="441.5884094" y="221.2615051" transform="matrix(0.7071068 -0.7071068 0.7071068 0.7071068 -31.9797554 381.6575317)" fill="#8B0020" width="6.2462177" height="16.3404865"/>
<rect x="470.1383057" y="265.5804749" transform="matrix(0.7071068 0.7071068 -0.7071068 0.7071068 331.8409729 -254.6095734)" fill="#8B0020" width="6.2462177" height="15.3644161"/>
<rect x="495.7967529" y="339.4107361" transform="matrix(0.7071068 0.7071068 -0.7071068 0.7071068 394.411377 -249.9482117)" fill="#8B0020" width="6.2462177" height="23.4236431"/>
<path fill="#8B0020" d="M474.7562866,379.7028198l9.6796265-9.6796265c-0.0776978-2.2449341-0.9533081-4.4645996-2.6362-6.1972961
	l-13.2407227,13.2407227C470.2915955,378.7496033,472.5112305,379.6252136,474.7562866,379.7028198z"/>
<path fill="#8B0020" d="M521.5214233,310.6584473c-0.0185547,0.0185242-0.0352783,0.0379944-0.053772,0.0566101l6.7213135,6.7213135
	l-13.2669678,13.2669373c0.3467407,2.3190002,1.0453491,4.5941467,2.0889282,6.7445374l15.5947876-15.5947571l4.416748-4.4167786
	l-4.416748-4.4167175l-6.1381836-6.1381836C524.6988525,307.8928833,523.0315552,309.1483154,521.5214233,310.6584473z"/>
<path fill="#8B0020" d="M395.7161865,449.9094238l4.416748,4.416748l10.6401062-10.6401062
	c0.8493652-3.0766296,1.0555115-6.297699,0.6180115-9.4515076L395.7161865,449.9094238z"/>
<path fill="#8B0020" d="M366.585144,446.3713074l8.3796997-8.3796692l-4.4167786-4.416748l-5.6855469,5.6855469
	C365.0638428,441.6839905,365.638031,444.0844421,366.585144,446.3713074z"/>
<path fill="#8B0020" d="M591.8961792,434.6953125l14.4735718-14.4736023l-4.416748-4.4167786l-12.4415894,12.4415894
	C590.1029663,430.4497375,590.8961182,432.6089172,591.8961792,434.6953125z"/>
<polygon fill="#8B0020" points="563.940918,546.5027466 570.5662231,553.1280518 564.5390015,559.1552124 568.9558105,563.5720215 
	575.0290527,557.4987793 579.3997803,553.1280518 568.3577271,542.0859375 "/>
<path fill="#8B0020" d="M606.815918,307.912384c-2.0947266,0.196106-4.1359863,1.0948181-5.7409668,2.6970825l4.4503784,6.3135071
	l-5.5789185,5.5789185c0.3264771,0.4796143,0.6972656,0.9381714,1.1226196,1.3635254
	c1.1500244,1.1499939,2.5247192,1.9374695,3.9827271,2.364563l8.6082764-8.6082764L606.815918,307.912384z"/>
<path fill="#8B0020" d="M329.3002625,290.8691711c1.6846008-1.6845703,2.5836487-3.8514404,2.7171021-6.0560608
	l-1.6734924-1.6734924l-4.3865662,4.3865967L329.3002625,290.8691711z"/>
</svg>
