<?xml version="1.0" encoding="utf-8"?>
<!-- Generator: Adobe Illustrator 17.1.0, SVG Export Plug-In . SVG Version: 6.00 Build 0)  -->
<!DOCTYPE svg PUBLIC "-//W3C//DTD SVG 1.1//EN" "http://www.w3.org/Graphics/SVG/1.1/DTD/svg11.dtd">
<svg version="1.1" id="Layer_1" xmlns="http://www.w3.org/2000/svg" xmlns:xlink="http://www.w3.org/1999/xlink" x="0px" y="0px"
	 viewBox="0 0 2195.5395508 2000" enable-background="new 0 0 2195.5395508 2000" xml:space="preserve">
<g>
	
		<rect x="1918.5726318" y="1777.6912842" transform="matrix(0.7071068 -0.7071068 0.7071068 0.7071068 -739.2041016 1928.1842041)" fill="#D7193E" width="78.6990509" height="157.3981323"/>
	<path fill="#D7193E" d="M2191.2138672,1289.206665c-49.1743164-49.1741943-128.9016113-49.1741943-178.0758057,0
		c-49.1741943,49.1743164-49.1741943,128.9014893,0,178.0758057c49.1741943,49.1741943,128.9014893,49.1741943,178.0758057,0
		c1.4868164-1.4869385,2.9287109-3.0018311,4.3256836-4.5428467l0.005127-168.9846191
		C2195.5446777,1293.7550049,2192.7023926,1290.6954346,2191.2138672,1289.206665z"/>
	<path fill="#8B0020" d="M2195.5368652,1302.1999512l-140.8388672,140.8387451l3.1181641,3.1181641
		c8.1135254,8.1135254,21.2683105,8.1132812,29.3818359-0.0003662l108.3376465-108.3375244l0,0L2195.5368652,1302.1999512z"/>
	
		<rect x="1702.9440918" y="1863.8138428" transform="matrix(-0.7071068 0.7071068 -0.7071068 -0.7071068 4274.1518555 2020.1751709)" fill="#D7193E" width="31.4796333" height="62.9592743"/>
	<circle fill="#D7193E" cx="661.3587646" cy="1216.380249" r="31.4796371"/>
	<circle fill="#D7193E" cx="882.0137939" cy="995.7251587" r="31.4796371"/>
	
		<rect x="701.2675781" y="1129.2519531" transform="matrix(0.7071068 -0.7071068 0.7071068 0.7071068 -610.7545166 846.9712524)" fill="#D7193E" width="31.4796333" height="62.9592743"/>
	
		<rect x="745.7868652" y="1084.732666" transform="matrix(0.7071068 -0.7071068 0.7071068 0.7071068 -566.2352295 865.4117432)" fill="#D7193E" width="31.4796333" height="62.9592743"/>
	<circle fill="#D7193E" cx="815.2869873" cy="1062.4521484" r="31.4796371"/>
	
		<rect x="921.8203125" y="908.6992798" transform="matrix(0.7071068 -0.7071068 0.7071068 0.7071068 -390.2018738 938.3272095)" fill="#D7193E" width="31.4796333" height="62.9592743"/>
	<circle fill="#D7193E" cx="659.5216064" cy="951.1038208" r="31.4796371"/>
	<circle fill="#D7193E" cx="592.7947998" cy="1017.8307495" r="31.4796371"/>
	
		<rect x="699.328125" y="864.0779419" transform="matrix(0.7071068 -0.7071068 0.7071068 0.7071068 -423.8162842 767.9321899)" fill="#D7193E" width="31.4796333" height="62.9592743"/>
	<circle fill="#D7193E" cx="1173.2241211" cy="570.9581909" r="31.4796371"/>
	
		<rect x="1101.8355713" y="595.1271362" transform="matrix(-0.7071068 0.7071068 -0.7071068 -0.7071068 2350.8984375 279.4395447)" fill="#D7193E" width="31.4796333" height="62.9592743"/>
	<circle fill="#D7193E" cx="592.6021729" cy="1418.6938477" r="31.4796371"/>
	<circle fill="#D7193E" cx="1084.1357422" cy="927.1600952" r="31.4796371"/>
	
		<rect x="1613.9526367" y="350.1237183" transform="matrix(0.7071068 -0.7071068 0.7071068 0.7071068 207.4915771 1264.1356201)" fill="#D7193E" width="31.4796333" height="62.9592743"/>
	
		<rect x="521.2138672" y="1442.8626709" transform="matrix(-0.7071068 0.7071068 -0.7071068 -0.7071068 1959.1546631 2137.1760254)" fill="#D7193E" width="31.4796333" height="62.9592743"/>
	<circle fill="#D7193E" cx="1448.0584717" cy="701.0140991" r="125.9651108"/>
	
		<rect x="1223.8563232" y="736.8309937" transform="matrix(0.7071068 -0.7071068 0.7071068 0.7071068 -233.0981445 1162.5422363)" fill="#D7193E" width="125.8144836" height="251.6289978"/>
	
		<rect x="1791.8769531" y="439.3130493" transform="matrix(-0.7071068 0.7071068 -0.7071068 -0.7071068 3418.6955566 -474.4846802)" fill="#D7193E" width="31.4796333" height="62.9592743"/>
	
		<rect x="1880.9984131" y="483.7483521" transform="matrix(-0.7071068 0.7071068 -0.7071068 -0.7071068 3602.2558594 -461.6472778)" fill="#D7193E" width="31.4796333" height="62.9592743"/>
	
		<rect x="1213.1850586" y="1018.0049438" transform="matrix(-0.7071068 0.7071068 -0.7071068 -0.7071068 2840.0036621 922.6011353)" fill="#D7193E" width="31.4796333" height="62.9592743"/>
	<circle fill="#D7193E" cx="794.916626" cy="1416.7143555" r="78.6990967"/>
	
		<rect x="1546.8717041" y="417.2046509" transform="matrix(0.7071068 -0.7071068 0.7071068 0.7071068 140.4106445 1236.3498535)" fill="#D7193E" width="31.4796333" height="62.9592743"/>
	
		<rect x="1388.1757812" y="843.0142212" transform="matrix(0.7071068 -0.7071068 0.7071068 0.7071068 -207.1631622 1248.8515625)" fill="#D7193E" width="31.4796333" height="62.9592743"/>
	
		<rect x="1432.6949463" y="798.4950562" transform="matrix(-0.7071068 0.7071068 -0.7071068 -0.7071068 3059.5136719 392.6573792)" fill="#D7193E" width="31.4796333" height="62.9592743"/>
	<circle fill="#D7193E" cx="1596.1544189" cy="1216.4821777" r="31.4796371"/>
	<circle fill="#D7193E" cx="1807.8288574" cy="1071.5861816" r="78.6990967"/>
	
		<rect x="1903.4329834" y="728.4274292" transform="matrix(0.7071068 -0.7071068 0.7071068 0.7071068 24.7772827 1579.6318359)" fill="#D7193E" width="31.4796333" height="62.9592743"/>
	
		<rect x="1662.4559326" y="1098.9151611" transform="matrix(0.7071068 -0.7071068 0.7071068 0.7071068 -334.2209778 1548.2380371)" fill="#D7193E" width="78.6442719" height="157.288559"/>
	<circle fill="#D7193E" cx="1284.4709473" cy="1127.4953613" r="31.4796371"/>
	
		<rect x="1480.1959229" y="884.5507202" transform="matrix(-0.7071068 0.7071068 -0.7071068 -0.7071068 3201.4533691 505.9753418)" fill="#D7193E" width="31.4796333" height="62.9592743"/>
	
		<rect x="1435.6773682" y="929.069397" transform="matrix(-0.7071068 0.7071068 -0.7071068 -0.7071068 3156.9348145 613.4528198)" fill="#D7193E" width="31.4796333" height="62.9592743"/>
	<circle fill="#D7193E" cx="1952.8251953" cy="459.1410828" r="31.4796371"/>
	
		<rect x="723.5275879" y="1641.2191162" transform="matrix(0.7071068 -0.7071068 0.7071068 0.7071068 -966.2501831 1012.663147)" fill="#D7193E" width="31.4796333" height="62.9592743"/>
	<circle fill="#D7193E" cx="1507.1164551" cy="1038.4066162" r="31.4796371"/>
	<circle fill="#D7193E" cx="1351.3005371" cy="1194.2225342" r="31.4796371"/>
	
		<rect x="1591.543457" y="906.7600708" transform="matrix(-0.7071068 0.7071068 -0.7071068 -0.7071068 3407.2399902 465.1544495)" fill="#D7193E" width="31.4796333" height="62.9592743"/>
	
		<rect x="1547.024292" y="951.2792358" transform="matrix(0.7071068 -0.7071068 0.7071068 0.7071068 -237.1924438 1392.8845215)" fill="#D7193E" width="31.4796333" height="62.9592743"/>
	<path fill="#D7193E" d="M1248.4705811,1497.3858643c-30.3790283-31.0837402-30.7337646-80.5618896-0.0002441-111.2952881
		c30.7333984-30.7333984,80.5621338-30.7333984,111.2955322,0s31.0456543,80.8780518,0.0003662,111.2952881
		C1328.5643311,1527.9562988,1278.1464844,1527.75,1248.4705811,1497.3858643z"/>
	
		<rect x="1146.4577637" y="1485.4024658" transform="matrix(-0.7071068 0.7071068 -0.7071068 -0.7071068 3056.5930176 1767.6818848)" fill="#D7193E" width="31.4796333" height="62.9592743"/>
	<circle fill="#D7193E" cx="1481.8238525" cy="1197.2559814" r="31.4796371"/>
	<circle fill="#D7193E" cx="1548.6022949" cy="1130.4776611" r="31.4796371"/>
	<circle fill="#D7193E" cx="842.505249" cy="1836.5744629" r="31.4796371"/>
	
		<rect x="1413.5201416" y="1218.34021" transform="matrix(-0.7071068 0.7071068 -0.7071068 -0.7071068 3323.6555176 1122.9364014)" fill="#D7193E" width="31.4796333" height="62.9592743"/>
	<circle fill="#D7193E" cx="1329.0921631" cy="1349.987793" r="31.4796371"/>
	
		<rect x="1369.0009766" y="1262.859375" transform="matrix(0.7071068 -0.7071068 0.7071068 0.7071068 -509.6546631 1358.2628174)" fill="#D7193E" width="31.4796333" height="62.9592743"/>
	
		<rect x="1101.9385986" y="1529.9217529" transform="matrix(0.7071068 -0.7071068 0.7071068 0.7071068 -776.717041 1247.6419678)" fill="#D7193E" width="31.4796333" height="62.9592743"/>
	<circle fill="#D7193E" cx="1819.2073975" cy="859.8723755" r="31.4796371"/>
	
		<rect x="1859.0163574" y="772.8439331" transform="matrix(-0.7071068 0.7071068 -0.7071068 -0.7071068 3769.1516113 47.4134178)" fill="#D7193E" width="31.4796333" height="62.9592743"/>
	<circle fill="#D7193E" cx="2131.2583008" cy="547.8214722" r="31.4796371"/>
	
		<rect x="1588.5108643" y="1043.3494873" transform="matrix(0.7071068 -0.7071068 0.7071068 0.7071068 -290.1447754 1449.1867676)" fill="#D7193E" width="31.4796333" height="62.9592743"/>
	
		<rect x="1633.0301514" y="998.8302612" transform="matrix(-0.7071068 0.7071068 -0.7071068 -0.7071068 3543.1655273 592.9926147)" fill="#D7193E" width="31.4796333" height="62.9592743"/>
	<circle fill="#D7193E" cx="1329.1429443" cy="1750.6071777" r="125.9185562"/>
	<polygon fill="#D7193E" points="1177.8665771,2000 1257.8259277,2000 1306.8840332,1950.9417725 1128.8083496,1772.8660889 
		1039.7705078,1861.9039307 	"/>
	
		<rect x="1458.0899658" y="1440.8839111" transform="matrix(-0.7071068 0.7071068 -0.7071068 -0.7071068 3557.1030273 1471.3266602)" fill="#D7193E" width="31.4796333" height="62.9592743"/>
	
		<rect x="1413.5706787" y="1485.4031982" transform="matrix(0.7071068 -0.7071068 0.7071068 0.7071068 -653.9627686 1454.9598389)" fill="#D7193E" width="31.4796333" height="62.9592743"/>
	<circle fill="#D7193E" cx="1004.3695068" cy="1944.1879883" r="31.4796371"/>
	<circle fill="#D7193E" cx="1395.9215088" cy="1683.8286133" r="31.4796371"/>
	<circle fill="#D7193E" cx="1618.362915" cy="1461.387207" r="31.4796371"/>
	
		<rect x="1814.0878906" y="1218.442749" transform="matrix(-0.7071068 0.7071068 -0.7071068 -0.7071068 4007.5397949 839.8673096)" fill="#D7193E" width="31.4796333" height="62.9592743"/>
	
		<rect x="1769.5693359" y="1262.9614258" transform="matrix(-0.7071068 0.7071068 -0.7071068 -0.7071068 3963.0214844 947.3447876)" fill="#D7193E" width="31.4796333" height="62.9592743"/>
	<circle fill="#D7193E" cx="1685.1412354" cy="1394.6088867" r="31.4796371"/>
	
		<rect x="1725.0500488" y="1307.4805908" transform="matrix(0.7071068 -0.7071068 0.7071068 0.7071068 -436.9222412 1623.0968018)" fill="#D7193E" width="31.4796333" height="62.9592743"/>
	
		<rect x="1547.0767822" y="1485.4539795" transform="matrix(-0.7071068 0.7071068 -0.7071068 -0.7071068 3740.5288086 1484.4893799)" fill="#D7193E" width="31.4796333" height="62.9592743"/>
	<circle fill="#D7193E" cx="1462.6486816" cy="1617.1015625" r="31.4796371"/>
	
		<rect x="1502.5574951" y="1529.9732666" transform="matrix(0.7071068 -0.7071068 0.7071068 0.7071068 -659.414917 1530.9373779)" fill="#D7193E" width="31.4796333" height="62.9592743"/>
	<path fill="#D7193E" d="M2195.5366211,914.4348755c-17.3857422,0-31.4794922-14.0939331-31.4794922-31.4796753
		c0-17.3856812,14.09375-31.4796143,31.4794922-31.4796143V914.4348755z"/>
	
		<rect x="2126.029541" y="906.5011597" transform="matrix(0.7071068 -0.7071068 0.7071068 0.7071068 -35.9428368 1789.1878662)" fill="#D7193E" width="31.4796333" height="62.9592743"/>
	
		<rect x="2081.612793" y="950.9179077" transform="matrix(0.7071068 -0.7071068 0.7071068 0.7071068 -80.3595886 1770.789917)" fill="#D7193E" width="31.4796333" height="62.9592743"/>
	<circle fill="#D7193E" cx="2041.6998291" cy="1038.050415" r="31.4796371"/>
	<circle fill="#D7193E" cx="1841.0084229" cy="1372.298584" r="31.4796371"/>
	
		<rect x="1769.6199951" y="1396.4676514" transform="matrix(-0.7071068 0.7071068 -0.7071068 -0.7071068 4057.5109863 1175.2183838)" fill="#D7193E" width="31.4796333" height="62.9592743"/>
	
		<rect x="1725.1013184" y="1440.9862061" transform="matrix(-0.7071068 0.7071068 -0.7071068 -0.7071068 4012.9921875 1282.6958008)" fill="#D7193E" width="31.4796333" height="62.9592743"/>
	<circle fill="#D7193E" cx="1685.1925049" cy="1528.114502" r="31.4796371"/>
	<circle fill="#D7193E" cx="1618.4140625" cy="1594.8928223" r="31.4796371"/>
	<circle fill="#D7193E" cx="1462.7009277" cy="1750.605957" r="31.4796371"/>
	
		<rect x="1547.0256348" y="1619.0618896" transform="matrix(-0.7071068 0.7071068 -0.7071068 -0.7071068 3834.9165039 1712.6085205)" fill="#D7193E" width="31.4796333" height="62.9592743"/>
	
		<rect x="1502.5073242" y="1663.5802002" transform="matrix(0.7071068 -0.7071068 0.7071068 0.7071068 -753.9039917 1570.0344238)" fill="#D7193E" width="31.4796333" height="62.9592743"/>
	<circle fill="#D7193E" cx="1596.256958" cy="1750.6069336" r="31.4796371"/>
	
		<rect x="1524.8684082" y="1774.776001" transform="matrix(-0.7071068 0.7071068 -0.7071068 -0.7071068 3907.1984863 1994.0966797)" fill="#D7193E" width="31.4796333" height="62.9592743"/>
	<circle fill="#D7193E" cx="1815.7158203" cy="1531.1479492" r="31.4796371"/>
	<circle fill="#D7193E" cx="1882.4942627" cy="1464.3696289" r="31.4796371"/>
	
		<rect x="1747.4121094" y="1552.2320557" transform="matrix(-0.7071068 0.7071068 -0.7071068 -0.7071068 4129.7416992 1456.828125)" fill="#D7193E" width="31.4796333" height="62.9592743"/>
	<circle fill="#D7193E" cx="1662.9841309" cy="1683.8796387" r="31.4796371"/>
	
		<rect x="1702.8929443" y="1596.7513428" transform="matrix(0.7071068 -0.7071068 0.7071068 0.7071068 -647.9572144 1692.1547852)" fill="#D7193E" width="31.4796333" height="62.9592743"/>
	
		<rect x="1922.402832" y="1377.2415771" transform="matrix(0.7071068 -0.7071068 0.7071068 0.7071068 -428.4474182 1783.0787354)" fill="#D7193E" width="31.4796333" height="62.9592743"/>
	<polygon fill="#D7193E" points="2163.8925781,1806.236084 2186.1520996,1783.9766846 2195.5366211,1793.3612061 
		2195.5366211,1837.880127 	"/>
	
		<rect x="1925.3852539" y="1507.8157959" transform="matrix(0.7071068 -0.7071068 0.7071068 0.7071068 -519.9038086 1823.4320068)" fill="#D7193E" width="31.4796333" height="62.9592743"/>
	
		<rect x="1747.4118652" y="1685.7891846" transform="matrix(-0.7071068 0.7071068 -0.7071068 -0.7071068 4224.1806641 1684.824585)" fill="#D7193E" width="31.4796333" height="62.9592743"/>
	
		<rect x="1702.8927002" y="1730.3084717" transform="matrix(0.7071068 -0.7071068 0.7071068 0.7071068 -742.3964844 1731.272583)" fill="#D7193E" width="31.4796333" height="62.9592743"/>
	<circle fill="#D7193E" cx="1818.7492676" cy="1795.2280273" r="31.4796371"/>
	<circle fill="#D7193E" cx="1663.0361328" cy="1950.9411621" r="31.4796371"/>
	<circle fill="#D7193E" cx="281.2554626" cy="1462.4494629" r="31.4796371"/>
	<circle fill="#D7193E" cx="2063.5522461" cy="1750.7602539" r="78.6990814"/>
	
		<rect x="1970.230835" y="260.9591675" transform="matrix(0.7071068 -0.7071068 0.7071068 0.7071068 374.8919067 1489.9466553)" fill="#D7193E" width="31.4796333" height="62.9592743"/>
	
		<rect x="409.2475891" y="1420.7947998" transform="matrix(-0.7071068 0.7071068 -0.7071068 -0.7071068 1752.4119873 2178.6760254)" fill="#D7193E" width="31.4796333" height="62.9592743"/>
	
		<rect x="2126.1916504" y="104.9982376" transform="matrix(0.7071068 -0.7071068 0.7071068 0.7071068 530.8528442 1554.5478516)" fill="#D7193E" width="31.4796333" height="62.9592743"/>
	<circle fill="#D7193E" cx="2086.2844238" cy="192.1250305" r="31.4796371"/>
	
		<rect x="2015.0543213" y="216.1356812" transform="matrix(0.7071068 -0.7071068 0.7071068 0.7071068 419.7153931 1508.5131836)" fill="#D7193E" width="31.4796333" height="62.9592743"/>
	<g>
		
			<rect x="1058.2154541" y="879.4981079" transform="matrix(-0.7071068 0.7071068 -0.7071068 -0.7071068 3144.9379883 912.1525879)" fill="#B00F31" width="650.6810913" height="455.8323669"/>
		<polygon fill="#8B0020" points="1563.1644287,872.5443726 1442.0755615,993.6332397 1525.4038086,1052.4998779 
			1634.1585693,943.7451172 		"/>
		<polyline fill="#B00F31" points="2060.6337891,1443.0424805 2195.5368652,1308.1395264 2195.5339355,1192.9039307 
			2107.9682617,1105.3383789 1933.2565918,1280.0501709 2060.6337891,1407.4273682 		"/>
		<path fill="#8B0020" d="M2044.5539551,1391.3474121l-35.6151123,35.6152344l16.079834,16.079834
			c9.8348389,9.8348389,25.7803955,9.8348389,35.6151123,0c9.8349609-9.8348389,9.8349609-25.7802734,0-35.6151123
			L2044.5539551,1391.3474121z"/>
		<path fill="#8B0020" d="M2037.2493896,1384.0428467l12.9014893-12.9014893c13.479248-13.479126,13.479248-35.3331299,0-48.8122559
			l-79.5865479-79.5866699l-37.3077393,37.3077393L2037.2493896,1384.0428467z"/>
		
			<rect x="1087.6868896" y="1028.2609863" transform="matrix(-0.7071068 0.7071068 -0.7071068 -0.7071068 2941.295166 1216.4171143)" fill="#8B0020" width="262.0649414" height="378.2194519"/>
		<g>
			<path fill="#B00F31" d="M2030.6966553,1360.9174805L1515.59729,1876.0168457
				c-6.6090088,6.6090088-18.602417,6.6090088-25.9996338-0.788208l-194.7406006-194.7406006
				c-7.3972168-7.3972168-7.3972168-19.390625,0-26.7878418l515.0993652-515.0992432
				c7.3972168-7.3973389,19.390625-7.3973389,26.7878418,0l194.7404785,194.7404785
				C2038.8820801,1340.7386475,2038.8820801,1352.7320557,2030.6966553,1360.9174805z"/>
			
				<rect x="1331.7700195" y="1646.3109131" transform="matrix(0.7071068 -0.7071068 0.7071068 0.7071068 -776.3146973 1448.0776367)" fill="#9D0829" width="56.1140709" height="29.6451702"/>
			
				<rect x="1373.2518311" y="1674.5583496" transform="matrix(0.7071068 -0.7071068 0.7071068 0.7071068 -793.4970703 1489.5595703)" fill="#9D0829" width="56.1140709" height="56.1140709"/>
			
				<rect x="1424.0928955" y="1725.3994141" transform="matrix(0.7071068 -0.7071068 0.7071068 0.7071068 -814.5561523 1540.4006348)" fill="#9D0829" width="56.1140709" height="56.1140709"/>
			
				<rect x="1474.934082" y="1776.2404785" transform="matrix(0.7071068 -0.7071068 0.7071068 0.7071068 -835.6151733 1591.2416992)" fill="#9D0829" width="56.1140709" height="56.1140709"/>
			
				<rect x="1382.6105957" y="1595.4703369" transform="matrix(0.7071068 -0.7071068 0.7071068 0.7071068 -725.4740601 1469.1365967)" fill="#9D0829" width="56.1140709" height="29.6451702"/>
			
				<rect x="1424.0924072" y="1623.7177734" transform="matrix(0.7071068 -0.7071068 0.7071068 0.7071068 -742.6564941 1510.6184082)" fill="#9D0829" width="56.1140709" height="56.1140709"/>
			
				<rect x="1474.9334717" y="1674.5588379" transform="matrix(0.7071068 -0.7071068 0.7071068 0.7071068 -763.7155762 1561.4594727)" fill="#9D0829" width="56.1140709" height="56.1140709"/>
			
				<rect x="1433.4508057" y="1544.6300049" transform="matrix(0.7071068 -0.7071068 0.7071068 0.7071068 -674.6337891 1490.1951904)" fill="#9D0829" width="56.1140709" height="29.6451702"/>
			
				<rect x="1474.9327393" y="1572.8774414" transform="matrix(0.7071068 -0.7071068 0.7071068 0.7071068 -691.8161621 1531.677124)" fill="#9D0829" width="56.1140709" height="56.1140709"/>
			
				<rect x="1525.7738037" y="1623.7185059" transform="matrix(0.7071068 -0.7071068 0.7071068 0.7071068 -712.8752441 1582.5181885)" fill="#9D0829" width="56.1140709" height="56.1140709"/>
			
				<rect x="1484.2913818" y="1493.7894287" transform="matrix(0.7071068 -0.7071068 0.7071068 0.7071068 -623.7932129 1511.2540283)" fill="#9D0829" width="56.1140709" height="29.6451702"/>
			
				<rect x="1525.7731934" y="1522.0368652" transform="matrix(0.7071068 -0.7071068 0.7071068 0.7071068 -640.975647 1552.7359619)" fill="#9D0829" width="56.1140709" height="56.1140709"/>
			
				<rect x="1576.6143799" y="1572.8779297" transform="matrix(0.7071068 -0.7071068 0.7071068 0.7071068 -662.034668 1603.5770264)" fill="#9D0829" width="56.1140709" height="56.1140709"/>
			
				<rect x="1535.1315918" y="1442.9493408" transform="matrix(0.7071068 -0.7071068 0.7071068 0.7071068 -572.953064 1532.3127441)" fill="#9D0829" width="56.1140709" height="29.6451702"/>
			
				<rect x="1576.6134033" y="1471.1967773" transform="matrix(0.7071068 -0.7071068 0.7071068 0.7071068 -590.135498 1573.7946777)" fill="#9D0829" width="56.1140709" height="56.1140709"/>
			
				<rect x="1627.4545898" y="1522.0378418" transform="matrix(0.7071068 -0.7071068 0.7071068 0.7071068 -611.194519 1624.6358643)" fill="#9D0829" width="56.1140709" height="56.1140709"/>
			
				<rect x="1585.972168" y="1392.1087646" transform="matrix(0.7071068 -0.7071068 0.7071068 0.7071068 -522.1124878 1553.3717041)" fill="#9D0829" width="56.1140709" height="29.6451702"/>
			
				<rect x="1627.4539795" y="1420.3562012" transform="matrix(0.7071068 -0.7071068 0.7071068 0.7071068 -539.2949219 1594.8535156)" fill="#9D0829" width="56.1140709" height="56.1140709"/>
			
				<rect x="1678.2950439" y="1471.1972656" transform="matrix(0.7071068 -0.7071068 0.7071068 0.7071068 -560.3540039 1645.6945801)" fill="#9D0829" width="56.1140709" height="56.1140709"/>
			
				<rect x="1483.6569824" y="1623.7192383" transform="matrix(0.7071068 -0.7071068 0.7071068 0.7071068 -683.0938721 1654.4182129)" fill="#9D0829" width="343.7107849" height="56.1140709"/>
			
				<rect x="1636.8125" y="1341.2684326" transform="matrix(0.7071068 -0.7071068 0.7071068 0.7071068 -471.2721863 1574.4304199)" fill="#9D0829" width="56.1140709" height="29.6451702"/>
			
				<rect x="1678.2943115" y="1369.5158691" transform="matrix(0.7071068 -0.7071068 0.7071068 0.7071068 -488.4545898 1615.9122314)" fill="#9D0829" width="56.1140709" height="56.1140709"/>
			
				<rect x="1729.135376" y="1420.3569336" transform="matrix(0.7071068 -0.7071068 0.7071068 0.7071068 -509.5136414 1666.7532959)" fill="#9D0829" width="56.1140709" height="56.1140709"/>
			
				<rect x="1779.9765625" y="1471.197998" transform="matrix(0.7071068 -0.7071068 0.7071068 0.7071068 -530.5726929 1717.5944824)" fill="#9D0829" width="56.1140709" height="56.1140709"/>
			
				<rect x="1687.6529541" y="1290.4279785" transform="matrix(0.7071068 -0.7071068 0.7071068 0.7071068 -420.4317322 1595.4892578)" fill="#9D0829" width="56.1140709" height="29.6451702"/>
			
				<rect x="1729.1348877" y="1318.675293" transform="matrix(0.7071068 -0.7071068 0.7071068 0.7071068 -437.6140137 1636.9710693)" fill="#9D0829" width="56.1140709" height="56.1140709"/>
			
				<rect x="1830.8171387" y="1420.3574219" transform="matrix(0.7071068 -0.7071068 0.7071068 0.7071068 -479.7320862 1738.6533203)" fill="none" stroke="#231F20" stroke-width="3.3597529" stroke-linecap="round" stroke-linejoin="round" stroke-miterlimit="10" width="56.1140709" height="56.1140709"/>
			
				<rect x="1738.4924316" y="1239.588501" transform="matrix(0.7071068 -0.7071068 0.7071068 0.7071068 -369.5922546 1616.5476074)" fill="#9D0829" width="56.1140709" height="29.6451702"/>
			
				<rect x="1779.9742432" y="1267.8358154" transform="matrix(0.7071068 -0.7071068 0.7071068 0.7071068 -386.7745667 1658.0294189)" fill="#9D0829" width="56.1140709" height="56.1140709"/>
			
				<rect x="1830.8154297" y="1318.677002" transform="matrix(0.7071068 -0.7071068 0.7071068 0.7071068 -407.8336792 1708.8706055)" fill="#9D0829" width="56.1140709" height="56.1140709"/>
			
				<rect x="1881.6564941" y="1369.5180664" transform="matrix(0.7071068 -0.7071068 0.7071068 0.7071068 -428.8927307 1759.7116699)" fill="#B00F31" width="56.1140709" height="56.1140709"/>
			
				<rect x="1789.3327637" y="1188.7481689" transform="matrix(0.7071068 -0.7071068 0.7071068 0.7071068 -318.7519226 1637.6063232)" fill="#9D0829" width="56.1140709" height="29.6451702"/>
			
				<rect x="1830.8145752" y="1216.9954834" transform="matrix(0.7071068 -0.7071068 0.7071068 0.7071068 -335.9342346 1679.0881348)" fill="#9D0829" width="56.1140709" height="56.1140709"/>
			
				<rect x="1932.4968262" y="1318.6777344" transform="matrix(0.7071068 -0.7071068 0.7071068 0.7071068 -378.0523987 1780.7703857)" fill="#9D0829" width="56.1140709" height="56.1140709"/>
		</g>
		
			<rect x="903.6655273" y="1039.7027588" transform="matrix(-0.7071068 0.7071068 -0.7071068 -0.7071068 2789.583252 1354.6317139)" fill="#FF0040" width="421.1454773" height="430.7094421"/>
		
			<rect x="736.0948486" y="1065.8608398" transform="matrix(0.7071068 -0.7071068 0.7071068 0.7071068 -491.6967773 987.9125977)" fill="#C41538" width="421.1454773" height="43.2518463"/>
		<g>
			<polygon fill="#9D0829" points="1343.8634033,1970.3232422 1325.5349121,1970.3232422 1295.876709,1999.9814453 
				1480.4202881,2000 1490.5494385,1989.8709717 1407.4324951,1906.7540283 			"/>
			<polygon fill="#FF0040" points="1407.2211914,1931.0042725 1339.1102295,2000 1480.4202881,2000 1490.5494385,1989.8709717 			
				"/>
		</g>
		<polygon fill="#9D0829" points="1904.8656006,1000.2977905 1904.8656006,981.9693604 1942.1398926,944.6951904 
			2034.4208984,1036.9761963 1924.4133301,1146.9838867 1841.2965088,1063.8669434 		"/>
		<polygon fill="#FF0040" points="1865.5466309,1063.6556396 1975.5541992,953.6480103 2034.4208984,1036.9761963 
			1924.4133301,1146.9838867 		"/>
		<polygon fill="#9D0829" points="1459.0467529,922.9450073 1440.7183838,922.9450073 1403.4442139,960.2192383 
			1417.5007324,974.2757568 1422.3898926,979.164978 1495.7252197,1052.5002441 1605.7327881,942.4926758 1522.6159668,859.3758545 
					"/>
		
			<rect x="1490.717041" y="1052.7220459" transform="matrix(-0.7071068 0.7071068 -0.7071068 -0.7071068 3529.7573242 727.1339111)" fill="#FF0040" width="247.1345825" height="83.7631149"/>
		<g>
			<polygon fill="#C41538" points="1441.2137451,834.7600708 1600.579834,675.3939819 1695.3378906,770.1520996 
				1674.1407471,791.3493042 1718.7354736,835.9440308 1632.2064209,833.2836304 1535.9718018,929.5181885 			"/>
			
				<line fill="none" stroke="#FF0040" stroke-width="13.4390116" stroke-miterlimit="10" x1="1594.3740234" y1="738.9879761" x2="1505.8348389" y2="827.5270996"/>
			
				<line fill="none" stroke="#FF0040" stroke-width="13.4390116" stroke-miterlimit="10" x1="1612.3968506" y1="757.0108643" x2="1523.857666" y2="845.5499878"/>
			
				<line fill="none" stroke="#FF0040" stroke-width="13.4390116" stroke-miterlimit="10" x1="1630.4196777" y1="775.0336914" x2="1541.8806152" y2="863.572876"/>
		</g>
		<path fill="#8B0020" d="M1646.6380615,1744.9737549l-40.2775879-40.2775879
			c-6.3540039-6.354126-7.3826904-16.6737061-1.6604004-23.6021729c6.564209-7.947876,18.3560791-8.3652344,25.4693604-1.2519531
			l48.9337158,48.9335938l4.4674072-4.4672852l-68.784668-68.784668
			c-6.3540039-6.3540039-7.3828125-16.6737061-1.6605225-23.6022949c6.5643311-7.947876,18.3563232-8.3649902,25.4693604-1.2519531
			l69.307373,69.307373l4.4672852-4.4674072l-76.3050537-76.3050537c-6.3540039-6.354126-7.3828125-16.6738281-1.6605225-23.6022949
			c6.5643311-7.947876,18.3563232-8.3649902,25.4693604-1.2519531l76.8277588,76.8277588l4.4674072-4.4674072
			l-64.1386719-64.1386719c-6.354126-6.354126-7.3833008-16.6737061-1.661377-23.6025391
			c6.5638428-7.9482422,18.3563232-8.3656006,25.4696045-1.2523193l56.5296631,56.5296631"/>
		<path fill="#8B0020" d="M1972.0037842,1419.6103516l-59.0960693-59.0960693
			c-6.3540039-6.3540039-16.673584-7.3826904-23.6020508-1.6605225c-7.947998,6.5643311-8.3653564,18.3562012-1.2520752,25.4694824
			l1.3022461,1.302124l-4.4674072,4.4674072l-9.5891113-9.5892334c-6.354126-6.3540039-16.6738281-7.3826904-23.6022949-1.6604004
			c-7.947876,6.564209-8.3651123,18.3562012-1.2519531,25.4693604l10.1118164,10.1118164l-4.4674072,4.4674072
			l-14.8758545-14.8759766c-6.3540039-6.3540039-16.6738281-7.3828125-23.6022949-1.6605225
			c-7.947876,6.5643311-8.3649902,18.3563232-1.2519531,25.4693604l15.3985596,15.3986816l-4.4672852,4.4672852
			l-64.1387939-64.1386719c-6.3540039-6.354126-16.6737061-7.3831787-23.602417-1.6612549
			c-7.9482422,6.5637207-8.3656006,18.3562012-1.2523193,25.4694824l108.6191406,108.6191406l-4.6038818,4.6040039
			l-26.7539062-26.7539062c-6.3537598-6.3538818-16.6730957-7.3829346-23.6016846-1.6612549
			c-7.9482422,6.5637207-8.3662109,18.3564453-1.2526855,25.4699707l41.635498,41.635498"/>
		<path fill="#FF0040" d="M1837.7509766,1703.28125v48.0865479l79.2075195,79.2075195l-88.5482178,88.5483398
			l-79.2076416-79.2076416l-18.6733398-0.0446777c-11.9873047-0.0285645-23.4753418-4.8032227-31.9516602-13.279541
			l-121.8961182-121.8959961c-6.3540039-6.3540039-7.3826904-16.6737061-1.6604004-23.6021729
			c6.564209-7.947876,18.3562012-8.3652344,25.4693604-1.2519531l48.9337158,48.9335938l4.4674072-4.4672852l-68.784668-68.784668
			c-6.3540039-6.3540039-7.3828125-16.6737061-1.6605225-23.6021729c6.5643311-7.947998,18.3563232-8.3651123,25.4693604-1.2520752
			l69.307373,69.307373l4.4672852-4.4674072l-76.3050537-76.3050537c-6.3540039-6.354126-7.3826904-16.6738281-1.6605225-23.6022949
			c6.5643311-7.947876,18.3563232-8.3649902,25.4693604-1.2519531l76.8277588,76.8277588l4.4674072-4.4674072
			l-64.1386719-64.1386719c-6.354126-6.354126-7.3833008-16.6737061-1.6612549-23.6025391
			c6.5637207-7.9482422,18.3562012-8.3656006,25.4694824-1.2523193l108.6191406,108.6192627l4.6038818-4.6038818
			l-26.7537842-26.7539062c-6.3538818-6.3538818-7.3829346-16.6730957-1.6612549-23.6016846
			c6.5637207-7.9483643,18.3564453-8.3662109,25.4698486-1.2526855l44.289917,44.2897949l0,0
			C1833.7077637,1682.3945312,1837.7158203,1692.8325195,1837.7509766,1703.28125"/>
		<path fill="#FF0040" d="M1834.1828613,1573.9517822h48.0864258l78.8780518,78.8780518l88.5482178-88.5483398
			l-78.8779297-78.8780518l-0.0446777-18.6733398c-0.0286865-11.9873047-4.8032227-23.4753418-13.279541-31.9516602
			l-74.2646484-74.2645264c-6.3540039-6.3540039-16.673584-7.3826904-23.6020508-1.6604004
			c-7.947998,6.564209-8.3652344,18.3560791-1.2520752,25.4693604l1.3022461,1.302124l-4.4674072,4.4674072l-9.5891113-9.5892334
			c-6.354126-6.3540039-16.6738281-7.3826904-23.6022949-1.6604004c-7.947876,6.564209-8.3651123,18.3562012-1.2519531,25.4693604
			l10.1118164,10.1118164l-4.4672852,4.4674072l-14.8759766-14.8759766
			c-6.3540039-6.3540039-16.6737061-7.3826904-23.6022949-1.6605225c-7.947876,6.5643311-8.3649902,18.3563232-1.2519531,25.4693604
			l15.3986816,15.3986816l-4.4674072,4.4672852l-64.1386719-64.1386719
			c-6.354126-6.354126-16.6738281-7.3831787-23.6025391-1.6612549c-7.9482422,6.5638428-8.3656006,18.3562012-1.2523193,25.4694824
			l108.6191406,108.6192627l-4.6038818,4.6038818l-26.7537842-26.7539062
			c-6.3538818-6.3538818-16.6732178-7.3829346-23.6018066-1.6612549
			c-7.9482422,6.5638428-8.3660889,18.3564453-1.2526855,25.4699707l44.2897949,44.2897949l0,0
			C1813.2961426,1569.9085693,1823.7340088,1573.916748,1834.1828613,1573.9517822"/>
		<g>
			<polygon fill="#C41538" points="1117.9038086,1433.2547607 956.5180664,1594.6403809 1087.5476074,1725.6699219 
				1108.744751,1704.4727783 1145.9172363,1741.6452637 1145.9171143,1667.300415 1248.9332275,1564.2843018 			"/>
			
				<line fill="none" stroke="#FF0040" stroke-width="13.4390116" stroke-miterlimit="10" x1="1012.2297974" y1="1596.3168945" x2="1119.5802002" y2="1488.9664307"/>
			
				<line fill="none" stroke="#FF0040" stroke-width="13.4390116" stroke-miterlimit="10" x1="1030.2526855" y1="1614.3397217" x2="1137.6030273" y2="1506.9893799"/>
			
				<line fill="none" stroke="#FF0040" stroke-width="13.4390116" stroke-miterlimit="10" x1="1048.5010986" y1="1632.5882568" x2="1155.8515625" y2="1525.237793"/>
			
				<line fill="none" stroke="#FF0040" stroke-width="13.4390116" stroke-miterlimit="10" x1="1066.5240479" y1="1650.6112061" x2="1173.8745117" y2="1543.2607422"/>
			
				<line fill="none" stroke="#FF0040" stroke-width="13.4390116" stroke-miterlimit="10" x1="1084.546875" y1="1668.6340332" x2="1191.8973389" y2="1561.2835693"/>
		</g>
		<polygon fill="#FF0040" points="1522.4046631,883.6259766 1412.3969727,993.633606 1495.7252197,1052.5002441 
			1605.7327881,942.4926758 		"/>
	</g>
	
		<rect x="793.2739258" y="1571.4727783" transform="matrix(0.7071068 -0.7071068 0.7071068 0.7071068 -896.5038452 1041.5529785)" fill="#D7193E" width="31.4796333" height="62.9592743"/>
	
		<rect x="1126.1727295" y="842.0576782" transform="matrix(-0.7071068 0.7071068 -0.7071068 -0.7071068 2567.0507812 683.767395)" fill="#D7193E" width="31.4796333" height="62.9592743"/>
	
		<rect x="1324.4309082" y="1040.3157959" transform="matrix(-0.7071068 0.7071068 -0.7071068 -0.7071068 3045.6884766 882.0253296)" fill="#D7193E" width="31.4796333" height="62.9592743"/>
	
		<rect x="1257.6524658" y="973.5372925" transform="matrix(-0.7071068 0.7071068 -0.7071068 -0.7071068 2884.4709473 815.2468872)" fill="#D7193E" width="31.4796333" height="62.9592743"/>
	<circle fill="#D7193E" cx="2041.3436279" cy="1572.6337891" r="31.4796371"/>
	
		<rect x="677.0292969" y="1287.0469971" transform="matrix(0.7071068 -0.7071068 0.7071068 0.7071068 -729.4317017 876.0492554)" fill="#D7193E" width="31.4796333" height="62.9592743"/>
	
		<rect x="632.5107422" y="1331.5657959" transform="matrix(0.7071068 -0.7071068 0.7071068 0.7071068 -773.9504395 857.6091919)" fill="#D7193E" width="31.4796333" height="62.9592743"/>
	<circle fill="#D7193E" cx="1061.8762207" cy="682.3059692" r="31.4796371"/>
	
		<rect x="990.487793" y="706.4750366" transform="matrix(-0.7071068 0.7071068 -0.7071068 -0.7071068 2239.5507812 548.2570801)" fill="#D7193E" width="31.4796333" height="62.9592743"/>
	
		<rect x="1213.0305176" y="350.3754272" transform="matrix(0.7071068 -0.7071068 0.7071068 0.7071068 89.8862076 980.7146606)" fill="#D7193E" width="31.4796333" height="62.9592743"/>
	<circle fill="#D7193E" cx="1574.1950684" cy="169.9871521" r="31.4796371"/>
	
		<rect x="518.8659668" y="1844.7078857" transform="matrix(0.7071068 -0.7071068 0.7071068 0.7071068 -1170.0825195 927.5460205)" fill="#D7193E" width="31.4796333" height="62.9592743"/>
	
		<rect x="563.3850098" y="1800.1888428" transform="matrix(0.7071068 -0.7071068 0.7071068 0.7071068 -1125.5634766 945.9863892)" fill="#D7193E" width="31.4796333" height="62.9592743"/>
	
		<rect x="2136.921875" y="1830.5064697" transform="matrix(0.7071068 -0.7071068 0.7071068 0.7071068 -686.1229248 2067.5249023)" fill="#D7193E" width="31.4796333" height="62.9592743"/>
	
		<rect x="585.817627" y="1645.3721924" transform="matrix(-0.7071068 0.7071068 -0.7071068 -0.7071068 2212.6359863 2437.199707)" fill="#D7193E" width="31.4796333" height="62.9592743"/>
	
		<rect x="926.8308105" y="1705.0296631" transform="matrix(0.7071068 -0.7071068 0.7071068 0.7071068 -951.8249512 1175.1099854)" fill="#D7193E" width="31.4796333" height="62.9592743"/>
	
		<rect x="882.4140625" y="1749.446167" transform="matrix(-0.7071068 0.7071068 -0.7071068 -0.7071068 2792.5493164 2405.1396484)" fill="#D7193E" width="31.4796333" height="62.9592743"/>
	<polygon fill="#D7193E" points="937.975708,1966.0626221 915.7162476,1988.3221436 927.394165,2000 971.8934326,1999.9803467 	"/>
	<path fill="#D7193E" d="M448.1689148,1962.6242676c10.1187134,10.1187744,11.9088135,25.4122314,5.3703308,37.3618164
		l-55.2559204,0.0067139c-6.5428162-11.9506836-4.7539062-27.2479248,5.3666687-37.3685303
		C415.9435425,1950.3308105,435.8753662,1950.3308105,448.1689148,1962.6242676z"/>
	
		<rect x="298.9304504" y="1129.8569336" transform="matrix(0.7071068 -0.7071068 0.7071068 0.7071068 -729.0241699 562.6530762)" fill="#D7193E" width="31.4796333" height="62.9592743"/>
	
		<rect x="254.4116516" y="1174.3754883" transform="matrix(0.7071068 -0.7071068 0.7071068 0.7071068 -773.5427856 544.2127075)" fill="#D7193E" width="31.4796333" height="62.9592743"/>
	<path fill="#D7193E" d="M260.1579285,1215.8487549"/>
	<circle fill="#D7193E" cx="89.0860367" cy="1386.9206543" r="31.4796371"/>
	
		<rect x="17.646513" y="1411.1407471" transform="matrix(-0.7071068 0.7071068 -0.7071068 -0.7071068 1077.0806885 2439.0993652)" fill="#D7193E" width="31.4796333" height="62.9592743"/>
	
		<rect x="1391.2067871" y="172.1992188" transform="matrix(0.7071068 -0.7071068 0.7071068 0.7071068 268.062439 1054.5177002)" fill="#D7193E" width="31.4796333" height="62.9592743"/>
	
		<rect x="1168.8239746" y="394.5819702" transform="matrix(0.7071068 -0.7071068 0.7071068 0.7071068 45.6796684 962.4036865)" fill="#D7193E" width="31.4796333" height="62.9592743"/>
	
		<rect x="1614.0036621" y="82.959053" transform="matrix(-0.7071068 0.7071068 -0.7071068 -0.7071068 2863.0666504 -957.0436401)" fill="#D7193E" width="31.4796333" height="62.9592743"/>
	<circle fill="#D7193E" cx="1685.6436768" cy="325.6521912" r="31.4796371"/>
	<polygon fill="#D7193E" points="1977.8544922,0 2016.8345947,38.9801102 2039.0938721,16.7209263 2022.373291,0 	"/>
	
		<rect x="1944.6008301" y="19.4754677" transform="matrix(0.7071068 -0.7071068 0.7071068 0.7071068 538.1398315 1401.0946045)" fill="#D7193E" width="31.4796333" height="62.9592743"/>
	
		<rect x="1899.2366943" y="64.8396683" transform="matrix(0.7071068 -0.7071068 0.7071068 0.7071068 492.7756348 1382.3041992)" fill="#D7193E" width="31.4796333" height="62.9592743"/>
	
		<rect x="1836.6986084" y="394.491394" transform="matrix(0.7071068 -0.7071068 0.7071068 0.7071068 241.3596802 1434.6358643)" fill="#D7193E" width="31.4796333" height="62.9592743"/>
	
		<rect x="1970.0550537" y="661.8053589" transform="matrix(-0.7071068 0.7071068 -0.7071068 -0.7071068 3880.1904297 -220.6575012)" fill="#D7193E" width="31.4796333" height="62.9592743"/>
	<polygon fill="#D7193E" points="1308.1268311,0 1347.9526367,39.8257904 1370.2121582,17.5657864 1352.7067871,0 	"/>
	<circle fill="#D7193E" cx="1261.0953369" cy="82.1638489" r="31.4796371"/>
	
		<rect x="1747.6166992" y="483.5733032" transform="matrix(-0.7071068 0.7071068 -0.7071068 -0.7071068 3374.4353027 -367.6309814)" fill="#D7193E" width="31.4796333" height="62.9592743"/>
	<circle fill="#D7193E" cx="1707.7078857" cy="570.7015991" r="31.4796371"/>
	
		<rect x="2123.8017578" y="1175.8426514" transform="matrix(0.7071068 -0.7071068 0.7071068 0.7071068 -227.0485382 1866.5008545)" fill="#D7193E" width="31.4796333" height="62.9592743"/>
	
		<rect x="2083.0166016" y="1216.6276855" transform="matrix(0.7071068 -0.7071068 0.7071068 0.7071068 -267.8335571 1849.6071777)" fill="#D7193E" width="31.4796333" height="62.9592743"/>
	<circle fill="#D7193E" cx="972.9659424" cy="1305.4432373" r="31.4796371"/>
	
		<rect x="1057.2906494" y="1173.8991699" transform="matrix(-0.7071068 0.7071068 -0.7071068 -0.7071068 2684.1091309 1298.9631348)" fill="#D7193E" width="31.4796333" height="62.9592743"/>
	
		<rect x="1101.9125977" y="1129.2772217" transform="matrix(-0.7071068 0.7071068 -0.7071068 -0.7071068 2728.730957 1191.2362061)" fill="#D7193E" width="31.4796333" height="62.9592743"/>
	
		<rect x="1146.3803711" y="1084.8094482" transform="matrix(-0.7071068 0.7071068 -0.7071068 -0.7071068 2773.1987305 1083.8814697)" fill="#D7193E" width="31.4796333" height="62.9592743"/>
	
		<rect x="1012.7724609" y="1218.4173584" transform="matrix(0.7071068 -0.7071068 0.7071068 0.7071068 -582.5663452 1093.3543701)" fill="#D7193E" width="31.4796333" height="62.9592743"/>
	<circle fill="#D7193E" cx="706.2325439" cy="1572.177002" r="31.4796371"/>
	
		<rect x="634.8439941" y="1596.3460693" transform="matrix(-0.7071068 0.7071068 -0.7071068 -0.7071068 2261.6625977 2318.8400879)" fill="#D7193E" width="31.4796333" height="62.9592743"/>
	<circle fill="#D7193E" cx="1284.5213623" cy="1261.001709" r="31.4796371"/>
	
		<rect x="1213.2355957" y="1285.0679932" transform="matrix(0.7071068 -0.7071068 0.7071068 0.7071068 -570.9811401 1254.6247559)" fill="#D7193E" width="31.4796333" height="62.9592743"/>
	
		<rect x="1152.9237061" y="1431.0422363" transform="matrix(0.7071068 -0.7071068 0.7071068 0.7071068 -694.3969116 1251.4345703)" fill="#8B0020" width="20.9857502" height="65.7725143"/>
	
		<rect x="1483.6248779" y="715.5858765" transform="matrix(0.7071068 -0.7071068 0.7071068 0.7071068 -87.7887192 1274.1309814)" fill="#8B0020" width="20.9857502" height="54.9000015"/>
	
		<rect x="1579.5454102" y="864.4866333" transform="matrix(0.7071068 0.7071068 -0.7071068 0.7071068 1095.24646 -863.5649414)" fill="#8B0020" width="20.9857502" height="51.6206436"/>
	
		<rect x="1665.7514648" y="1112.5379639" transform="matrix(0.7071068 0.7071068 -0.7071068 0.7071068 1305.4676514 -847.9039307)" fill="#8B0020" width="20.9857502" height="78.6976547"/>
	<path fill="#8B0020" d="M1595.060791,1247.9094238l32.5211182-32.5211182c-0.2609863-7.5424805-3.2028809-15-8.8569336-20.8214111
		l-44.4855957,44.4855957C1580.0604248,1244.7069092,1587.5179443,1247.6488037,1595.060791,1247.9094238z"/>
	<path fill="#8B0020" d="M1752.1801758,1015.9373779c-0.0623779,0.0623169-0.1186523,0.1277466-0.1807861,0.1902466
		l22.5819092,22.5819702l-44.5736084,44.5736084c1.164917,7.7912598,3.5119629,15.4351807,7.0181885,22.6600342
		l52.3945312-52.3945312l14.8393555-14.8392334l-14.8391113-14.8391724l-20.6228027-20.6227417
		C1762.8554688,1006.645874,1757.2536621,1010.8638306,1752.1801758,1015.9373779z"/>
	<path fill="#8B0020" d="M1329.5054932,1483.786377l14.8392334,14.8391113l35.7480469-35.7480469
		c2.8537598-10.336792,3.5462646-21.1588135,2.076416-31.7548828L1329.5054932,1483.786377z"/>
	<path fill="#8B0020" d="M1231.6324463,1471.8991699l28.1536865-28.1536865l-14.8392334-14.8392334l-19.1020508,19.1020508
		C1226.5212402,1456.1508789,1228.4503174,1464.2158203,1231.6324463,1471.8991699z"/>
	<path fill="#8B0020" d="M1988.6218262,1432.6706543l48.6276855-48.6278076l-14.8391113-14.8391113l-41.8006592,41.8005371
		C1982.5970459,1418.4066162,1985.2618408,1425.6608887,1988.6218262,1432.6706543z"/>
	<polygon fill="#8B0020" points="1894.6990967,1808.315918 1916.9584961,1830.5753174 1896.7086182,1850.8251953 
		1911.5478516,1865.6644287 1931.9523926,1845.2600098 1946.637085,1830.5753174 1909.5383301,1793.4766846 	"/>
	<path fill="#8B0020" d="M2038.7484131,1006.7113647c-7.0377197,0.6588135-13.895874,3.6782837-19.2880859,9.0614624
		l14.9520264,21.2119141l-18.7436523,18.7437744c1.0969238,1.6113281,2.3426514,3.1519775,3.7717285,4.5810547
		c3.8636475,3.8637695,8.4824219,6.5093994,13.3809814,7.9443359l28.9217529-28.9217529L2038.7484131,1006.7113647z"/>
	<path fill="#8B0020" d="M1106.364502,949.4503784c5.65979-5.65979,8.6804199-12.9399414,9.1286621-20.3469238l-5.6224365-5.6224365
		l-14.737793,14.737854L1106.364502,949.4503784z"/>
</g>
</svg>
