<svg id="Layer_1" xmlns="http://www.w3.org/2000/svg" viewBox="0 0 465 582">
	<style>
		.st0{fill:#fff}.st1{fill:#adadad}.st2{fill:#939393}.st3{fill:none;stroke:#000;stroke-width:2;stroke-miterlimit:10}.st6{fill:#bcbcbc}.st7{fill:none}.st10,.st8,.st9{stroke:#000;stroke-miterlimit:10}.st8{stroke-width:2;fill:#fff}.st10,.st9{fill:none}.st10{fill:#939393;stroke-width:2}
	</style>
	<path class="st0" d="M208.9 167.6c-4.9 3.6-13.6 18.6-14.3 20.3s-4.5 9.2-5.5 13-.4 2.6-.1 7.4l.2 2.3-.2-1.7c0-1.3-4.1 2.5-3.3 12.7-.4-3.8-.1-6 .4-8-1.8-1.2-4.5-1.9-5.2-.9-.1.2-.2.5-.2 1.1-.2-1.7-.5-3.2-1.1-4.5-2.5-5.5-4.4-5.5-4.5-6.5 0-.7-1.6-3-2.3-3.1l.1-.1c-.6-5.2-7.6-12.7-9.6-14.4-.9-.8-1.3-1.4-1.5-1.4-.1-2.8-3.6-6-4.1-6.6-.6-.7-2.8-3.1-3.8-3.9s-1.4-2.2-2.1-3.6-.6-3.2-1.8-3.4-3 1.6-4.2 3.3-17.4 11.6-22.8 11.9-7.2-1.1-7.4-.4 2.6 5 3.1 6.4 1.4 1.8 1.8 3.1.6 10.5 2.4 14.6 6.1 9.5 7.4 14.2 1.8 7.6 2.7 8.6c.7.8 2.1 1.2 3.6 1.4.1.4 2.6 2.4 3.2 4.1.8 2.2 2.2 5 5 7.2.4.3.8.5 1.3.6 2.5 3.5 6.5 6.6 9 10.1l2.3 3.2c2.5 3.5 5.8 7.9 9 9.9 4.2 2.7 10 3.2 10 3.2s11.1 7 31.6-8.8c20.5-15.9 44.5-51.9 47-59.9s17.7-52.4-21.2-57.9c-3.8-.5-8.4 3.6-11.7 8.6l-3.3 5.3-9.9 12.6z"/>
	<path class="st1" d="M364.5 43.9a448 448 0 0 1 70.1 27.7c13 7.7 19.5 1.4 22.5 16.5s3 69.5 0 82.8-22 77.2-28 91-11.1 31.2-13.1 31.2-28.8 56.4-36.8 70c-8 13.6-71.6 50.8-79.1 58.4s-28.4 6.8-31.9 0-26.4-25.2-28.4-27.8-29.1-44.6-28.6-59.6"/>
	<path d="M283.1 427.4c-1.8 0-3.6-.1-5.2-.4-5.4-.8-9.3-2.9-10.7-5.6-2.3-4.5-13.8-14.6-21.4-21.3-4-3.5-6.2-5.5-6.9-6.3-1.2-1.5-8.5-12.8-15.3-25.3-9.1-16.7-13.7-28.5-13.4-35l2 .1c-.5 14.2 26.4 55.2 29.1 58.6.6.7 3.2 2.9 6.5 5.8 7.7 6.8 19.2 17 21.8 21.9 1.1 2.1 4.6 3.9 9.3 4.6 7.1 1.1 16.1.4 20.6-4.2 2.8-2.9 12.8-9.4 25.4-17.8 20.5-13.5 48.6-32 53.6-40.5 3.5-5.9 10.7-20.2 17.6-34 16-31.7 18.5-36.1 19.9-36.5a78 78 0 0 0 5.8-13.7c2-5.4 4.2-11.4 6.6-17a1085 1085 0 0 0 27.9-90.8c3-13.3 3-67.2 0-82.4-1.8-9.1-4.6-9.9-10.2-11.3-3.1-.8-7-1.8-11.8-4.6a436.7 436.7 0 0 0-69.8-27.6l.6-1.9A433.9 433.9 0 0 1 435.4 70c4.5 2.6 8.2 3.6 11.3 4.4 5.8 1.5 9.7 2.5 11.7 12.8 3 15.3 3 69.7 0 83.2-2.9 12.9-21.9 77.1-28.1 91.2-2.4 5.5-4.6 11.5-6.6 16.8-4.2 11.3-5.5 14.5-7.1 14.9-1.8 1.9-11.1 20.5-18.7 35.5-7 13.8-14.1 28.1-17.7 34.1-5.2 8.8-32.4 26.7-54.2 41.1-12 7.9-22.4 14.8-25 17.5-4.3 4.3-11.4 5.9-17.9 5.9z"/>
	<path class="st2" d="M106.9 562.6c-.4.7-1.4 2.1-1.3 3.4.6 6.4 10.2 11.1 24.8 8.2 21-4.2 33.5-21.3 35-23.7s15.8-18.3 17.3-19.7 9.3-11.3 2.8-19.8c0 0-55.9 14.2-78.6 51.6z"/>
	<path d="M185.1 512.1c-6.3 1.7-56.5 16.5-77.4 51l-.1.2c-.4.6.8 4.9 2.6 6.2a25.3 25.3 0 0 0 20 3.6c22-4.4 34.2-23 34.3-23.2 1.6-2.4 15.9-18.4 17.5-19.9.6-.5 2.8-3.2 4.2-6.8 1.4-4.2 1.1-7.9-1.1-11.1zM121.9 576c-5.5 0-10.2-1.2-13.4-3.7a8.7 8.7 0 0 1-3.8-6.3c-.1-1.5.8-2.9 1.3-3.8l.1-.2c22.6-37.3 78.7-51.9 79.2-52.1l.6-.2.4.5c2.9 3.8 4.5 8.5 2.7 13.4a30.8 30.8 0 0 1-4.5 8.3c-1.7 1.6-16.7 14.5-18.3 18.9-.1.2-12.8 19.5-35.6 24.1-3.1.8-6 1.1-8.7 1.1z"/>
	<path class="st0" d="M176.6 492.9a35 35 0 0 1 9 18c.2 6-1.2 8.7-2.8 11.8-1.7 3.2-19.5 23-21.2 24.7s-16.2 20-37.2 21-19.7-11.3-18-16.7c1.7-5.3 12.5-17 14.5-19s13.1-22.4 11.8-26.3c0 0 14.4 10.2 33.9-.2 8.3-8.7 10-13.3 10-13.3z"/>
	<path d="M122 569.5c-7.4 0-12.5-1.8-15.3-5.4-3.3-4.3-2.3-9.8-1.4-12.6 1.7-5.6 12.7-17.3 14.8-19.4 2.3-2.3 12.6-22.2 11.6-25.3l-.9-2.8 2.4 1.7s3.6 2.5 9.4 3.7a34.7 34.7 0 0 0 23.4-3.8c7.9-8.4 9.6-12.9 9.6-12.9l.5-1.4 1.1 1.1a36 36 0 0 1 9.3 18.7c.2 6.4-1.3 9.3-3 12.3a412.8 412.8 0 0 1-21.3 24.9l-.7.7c-14.5 16.2-28.2 20.1-37.2 20.6l-2.3-.1zm11.7-61.3a91.9 91.9 0 0 1-12.1 25.3 71.9 71.9 0 0 0-12.8 17.3c-.8 2.5-2.1 8.1.7 11.7 2.6 3.4 6.9 5.4 14.9 5 8.6-.4 21.7-4.2 35.8-19.9l.8-.8c2-2 17.7-19.1 19.3-22.1 1.6-2.9 3.4-6.7 3.2-12.6a36 36 0 0 0-6.5-17.4c-1.1 2-3.7 6.2-9.5 12.3l-.1.1-.1.1a35.3 35.3 0 0 1-33.6 1z"/>
	<path class="st2" d="M8.3 421.8c-1-.2-2.8 1.5-2.6 2s-2 11.7 24 21c17.7 6.3 37.8 2.6 41.2 2.7s20 6.7 34.6 2.7"/>
	<path d="M95.1 452.4c-7.9 0-15.4-1.9-20.1-3-2-.5-3.5-.9-4.2-.9l-3.3.2c-7 .7-24.2 3.7-38.8-1.5-21.5-7.7-24-18.3-24-23.1v-.1c-.1-.5.1-1 .6-1.5.5-.6 1.9-1.8 3.2-1.6l-.3 2c-.3 0-1.2.6-1.4 1v.3c0 7.3 8.5 14.5 23.3 19.8 14.2 5.1 30.4 3.5 37.3 2.9l3.5-.3c.9 0 2.4.4 4.6 1 6.6 1.6 18.8 4.7 29.7 1.7l.5 1.9c-3.5.8-7.1 1.2-10.6 1.2z"/>
	<path class="st0" d="M54.7 404.7c-1.7 2.5-9.7 7.3-14 6.8s-11.2-3.3-17.7-2.8-16 3.8-14.2 14.5 19.3 19.3 33.3 21.2c14 1.8 29 0 29 0s22.7 6.4 32.7 2.7c0 0 5.1-14.8 4.4-22.9s4.6-15.2-7.7-13.8c-12.3 1.3-41.3-6.8-41.5-7.4-.2-.7-4.3 1.7-4.3 1.7z"/>
	<path d="M95.3 449.2c-10.2 0-22.7-3.4-24.5-3.9-1.8.2-16 1.7-29.1 0-7.2-1-15.3-3.7-21.6-7.4-5.1-3-11.4-8-12.6-14.6-.7-3.9 0-7.2 2.1-9.8 3.6-4.7 10.3-5.6 13-5.8 4.4-.3 8.8.8 12.7 1.7l5.1 1.1c3.9.5 11.1-5.5 12.6-7.7l.6 1.1.2-.1c4.1-2.3 4.8-2 5.1-1.9l.4.3c2.3 1 29.1 8.4 40.7 7.2 4.2-.5 6.7 0 8.1 1.4 1.7 1.7 1.4 4.3 1 7.3-.2 1.8-.4 3.9-.3 6 .8 8.3-4.2 22.7-4.5 23.3l-.2.5-.4.2a29 29 0 0 1-8.4 1.1zm-24.4-5.9h.2c.2.1 21.8 6.1 31.6 2.9.9-2.5 4.8-15 4.2-22-.2-2.3 0-4.5.3-6.4.3-2.6.5-4.7-.5-5.7-.9-.9-3-1.2-6.4-.8-6.7.7-17.6-1.2-25.6-3l-11.4-2.8c-3-.8-4.3-1.3-4.9-1.6-.6.2-2.1.9-3.3 1.6-2 2.7-10.1 7.6-14.8 7-1.6-.2-3.4-.6-5.4-1.1-3.8-.9-8-2-12.1-1.7-2.4.2-8.4 1-11.6 5a8 8 0 0 0-1.8 7.3c1.7 9.8 18.2 18.1 32.5 20 13.7 1.8 28.7 1.4 28.9 1.3h.1z"/>
	<path class="st0" d="M105.5 139.6c-1.1-.2-2.5-.9-6.4-.5-3.7.4-4 6.3-4.1 7.1-.1 1 .7 3.5 3.6 5.2l.9.5h-.1c-.8-.3-4.2 2-4 4.9.1 2.2 1.3 5.5 6 8 .8 1.5 4.3 5.8 7.8 9.5s5.7 5.8 6 6.8c0 0 11.8 1 17.7-2.5 4.4-2.6 16.1-12.3 16.1-12.3 0-2.6-1.3-7.7 0-9.9s3.4-3.9 5.2-5.5 9.2-6.5 6.6-10.9c-2.9-4.9-9.7-2.4-14.7 1.2s-8.4 7.1-9.2 6.3-3-5.6-3.8-10.1c-.5-3.5-3.1-18-3.6-20.8-.9-4.4-5.7-6.1-8.9-3.7s-3 7.9-2.7 9.9l2 15.2c-2.2-3.7-4.9-8.5-6.4-11.8a32 32 0 0 0-7-10.4c-1.6-1.5-6.6-1-7.6 2.7-1 3.8.6 9 1.3 10.6 1.3 3 5.1 10.2 5.3 10.5m14.4-1.4zM345.4 96.1a65.2 65.2 0 0 1-37.5 59c-8.4 3.9-6.3 9.1-16.2 9.1-7.9 0-27.3 3.5-32.9-1.3-16-13.7-42.7-37.6-42.7-65.7 0-8.4 1.5-13.8 2.7-21.7.8-5.4.1-20.2 3.8-25.1C234.5 35.1 259.3 31 280.2 31c36 0 65.2 29.2 65.2 65.1zM148.8 241.9c2.5-.4 5.2-1.4 6.6-.6-1.6.1-3.6.5-6.6.6z"/>
	<path class="st0" d="M403 184.3c1.9 2.8-.7-17.2-7.2-29a56.7 56.7 0 0 0-32-25.3v-.4c3.7-6.7 35.2-71.3-18-106.3C284-19 228.1 32.6 225.4 46.8c0 0 25.7-26.6 69.4-3.4 33.9 18 43.8 47.7 45 49.7 1.2 2 6.2 25.7 4.5 33-1.7 7.3-26.7 27.7-46.7 35.2-4.8 1.8-45.7 11-59.1-16.4v-.7c-2.2 6-6.6 32.2-6.6 45.7s-27.9 51-51.2 72.5c-3.2 2.9-3.3 3.6-3.7 4.6.6.8-3.1 0-3.7 2.2h.1l-.2-.1c-1.4-.7-4.9.9-4.2 2.2s15.8 15.6 16.4 19.8a108 108 0 0 0-18.2-20.9c-1.8-.6-7.5-2-9.4-.6a75 75 0 0 0-17.6-12.3c-11-5.7-31.8-25.3-65.8-15.7s-30.7 69.8-30.8 71.2a375 375 0 0 0 0 30c0-.1 0 0 0 0a37.2 37.2 0 0 0 0 .1c-.2 1.6-1.5 12.1.2 21.3-.9-1.4 3.1 15.8 3 19.3s-.3 5.3 2.7 10.5 5.5 9.3 8.3 12.3 17 14 30.8 13.5l-.2-1.9c1.4 2.5 11.2 20.8 15.5 27.1 4.4 6.2 5.9 10.5 6.9 12.6s.4 1.4 3.5 6.1 7.5 17.4 8 18.4.2.9 3 6.2 2.9 3.6 4.4 9.5 5.8 11.6 15.1 11.4 24.8-3.2 26.5-6.4 3.2-4.9 4.6-6.5 2.8-2.9 1.8-4.4-.5-.4-1-1.5-.2-2.9.6-4.9-1.1-6.9-1.1-10.2-.6-10.9-2-14.1-2.4-4.2-3.4-8.1-2-17.5-3.4-20.9-6.1-9.3-7.5-12.4c-.7-1.6-.8-2.6-1.3-3.3 2.8-1.7 1.9-3.4 1.1-4.9 2.8 3.6 6.4 1.3 7.6-.4 2.4 1.4 5.1 1.4 12.1-1.3 7-2.8 7-2.8 9.3-3s12.9-5 17.9-5.1 8.9 0 14-2.6 8-5.9 12.3-6.3 30-2.7 34.7-7.4 8-7 12-11 3-2.2 9-11.8 11.3-13.2 15.3-15.9 12.7-13 17.3-21.2 7.7-9.8 14-19.1 6-5.7 8.7-12.7 5.7-11.5 7.7-14.3c.6 4.8 0 14.3.3 17.1l-2.4 3.9c-4.3 18-1.1 9.5-3.2 14.5-1.8 4.3-1.1 1.2-2.8 4.5l-7.4 14.3c-4.9 9.7-9.6 13.7-11.1 19.7s-3.2 8.3 1.8 12.3 28.3 15.3 29.3 14.7.3-2.3 1.7-2.7c1.3-.3 8 .3 9.3-2 .4-.7.6-2.2.6-4.2.3.4 1.1-.3 3-2.1 9.3-7 15-14.3 15.3-16.7.3-2.3.3-5.3 4.7-11.3 4.3-6 9.3-18.3 10.3-20.3s4.3-1.7 6-7.3c1.7-5.7 9.3-20.3 9.7-36.7.3-16.3-2-28.7-2-31.7s.7-27-2.7-31.7c-3.3-4.7-4.7-7-5-10.3s.2-7-1.8-10.9c-2-3.8-1.6-7.3-2.2-8.3M196.7 318.5l-.4-.2.4.2zm-.5-.2zm-9.2-39.6l-1.6-1.8a6 6 0 0 1 1.6 1.8zm1.4 37.6l-6.5-.4c1.8 0 4.1.1 6.5.4zm-29.6-45.6l-.8-.8.8.8zm-1.4 53.1L146 327a136.4 136.4 0 0 1 11.4-3.2zm-15.6 5c0-.1 0-.1 0 0zm4.2-1.7l-2.5 1 2.5-1zm-12.8 2.9zm-12-1.8c3.3-2 6.9-3.8 8.3-4.1.9-.1-3.9 2-8.3 4.1zm-27.8-13.9zm-12.3 55.6a51.7 51.7 0 0 0-1.9 24.5 41.5 41.5 0 0 1 1.9-24.5zm-.2 30.2l1.8 4.1-1.8-4.1zm27.2-59.3c-3.3 2-6.7 4.1-9.8 6.2 1.2-2 2.1-5.7 1.7-7.2-.5-1.8.6-6.3-.5-6-6.4 1.5-24.9-3.8-28.9-15 4.3 8.8 19.2 16.6 28.9 15 2.4-.4 3.1-2 2.7-4.1.2.9.2 1.4 0 1.7-.2.3 1.8-2 4.4-1.6.4-.2.8-.2 1.2-.2l-.1.2.4-.1c2.1.3 4.4 1.7 12.2-14.9 1.8-3.7-3.8 14.8-10.3 15 1.2.3 4 3 5.1 3.2 2.4 1.5 5.6 1.1 8.5.3a89.7 89.7 0 0 0-15.5 7.5zm20 66.6c-1.8-1.8 16.7 3.1 26.7 7.5-4.8-1.5-22-7.1-26.7-7.5zm32.1-84.4l.6-.2-.2.1-.4.1zm5.6 68.6zm3-72.5l2.8-1.7a29 29 0 0 1-2.8 1.7zM361.3 236a24 24 0 0 0-6.5 3.6v-.3c1.7-1.6 3.8-2.9 6.5-3.3zm3.9 122.7zm-11.6-64.4c3.1-4.4 8.2-10.6 17.2-10-7.3 2.5-11.9 3.2-17.2 10zm-213.5-37c-11-5.7-34.3-23.8-65.8-15.7M43.6 343.5v0z"/>
	<path class="st0" d="M107.9 330.5a2 2 0 0 1-1.1 0c.5.4.8.3 1.1 0z"/>
	<path class="st1" d="M299.9 162.8c-5.4.8-3.9 6.4 0 10.2s12.9 5.8 7.6 10.3-12.5 1.1-7.6 8.7 13.9 10.7 12.4 16.4-.6 12.8 1.4 14.6c1.8 1.7 5.8 4.7 8.9 8.3 3 3.6 4.4 4.6 3.6 7s-8.1-2.2-11.1-4.9-8.6 3.2-4.6 5.7c4.2 2.6 5.3 4.1 7.3 6.3s4.8 6.8 3.8 9.1c-1 2.4-1 2.5-6.7-.9s.4.3-12.2-7.9c-6-3.9-9 4.6-5.2 7.7s9.4 3.7 12.2 8.7 3.6 8.8 1.5 10.2c-1.4.9-2 5.1-7.5-1.6-3-3.6-6.6-5.5-11.8-7.9-8.4-3.9-10 8.9 3.6 12.6 1.8.5 15.4 9.9 2.6 16.4-4.7 2.4-8.3-9.1-17.4-11.7-6.7-2-13.9 4.8-4.4 7.5s13.8 5 15.9 10-2.4 11.2-7.4 6.5.2-9.3-6.1-10.2c-6.3-.9-8.4 7.3-13.4 8s-4.5-3.2-8.2 0-9.3.8-5.9 4.3-1.6 30.6-6.8 23.2c-11.9-16.9-16.7 3.2-7 10.9s5.2 10.1.3 12.2c-3.1 1.3-6.1.3-11.6-3.5s-8-5.8-12.1-2.8-3.5 4.9-8.5 4.1-8.9-4.7-12.9-1.9-6.5 12.2-6.5 14.7c0 3.4-1.6 8.6-5.8 9.1-1.5.2-4.1-4.2-8.7-1-2.4 1.7-3.8 6-4.6 11.4-1.3 8.9-3.3 9.7-2.1 12.8s.1 6.6 1 12.7c-.8-5.4-.3-10.5-2.1-18.5s-1.6-7.3-4.3-10.8c-2.7-3.5-7.8-.2-5.3 5.6.8 1.9 1.8 2.5 1.2 4.2s-1.6 3.8-3.6 1.8-2.1-5.3-4.6-6.8-7.3 2-7.6 4.3 4.8 3.7 7.3 6.3c-.6 2.6 1.1 3.4-2.1 0s-4.5-3.2-8.4-5.4c-1.9-1-2.1 5.9.1 7.3 6 3.8 6.1 4.1 7.3 5.6 5 6-1.6 4.1-4.3 2.8-2.5-1.2-5.9-4.2-8.2-2.3-3.1 2.6-4.9 5.6-1.3 6.7 4.3 1.2 18.9 4 21.7 7.4s2.1 12.1-2.6 9.2-3.9-2.7-11-3.7c-5.1-.7-8.3 11.7 1.4 12.2 10.7.6 10.6 2.8 7.7 5.8s-11.9 1-11.4 5c.7 5.3 10.6 8.1 12.9 10.9 2.3 2.8-6 .2-6.5 4.8s8.6 19.1 13 20.5c6.2 1.9 1.2 7.2.8 12.9s7.6 14.7 7.8 20.8c.2 8.6-13.4 25.1-14.4 26.8s-10.4 6.8-14.9 7.3c-16.1 1.8-21 19.5-11.1 18.9a48.5 48.5 0 0 0 22-7.3 92.8 92.8 0 0 0 18.9-17.3c7.9-8.7 11.1-12.2 12.7-14.3 3.2-3.6 10.2-11.8 3.8-26.4-2-4.5-3.1-8.2-3.7-11.2-.8-4.3-.7-7.3-1.6-9.5-1.5-3.8-.2-11.3-2.2-17.3s-4.7-16.5-5.2-21-.8-3.6-2.4-10.7-7.2-8.3-7.4-13.4 6.2-4 6.8-7c1 .3 3.5 1.8 6.5 1.1s9.2-2.7 15.3-4.2 13.4-4.8 16.5-5.5c3.1-.7 11.3.2 14.8-2.5s8.9-6.7 13.5-6.8c4.7-.1 23.4-3 27.9-4.3s7.6-4.4 13.8-9.4 14.9-17.6 17-20.9c2.2-3.3 13-12.3 17.2-16.3s13-17.1 13.7-18.6 10.2-14.1 12-15.7c1.8-1.5 5.5-7.5 7.2-9.8s5.8-16.2 7.8-17.3c2-1.1 0-4.7 0-6.4 0-1.8 1.7-5.4 1.4-8.4s-.9-4.8-1.4-8.1-2.8-18.1-3.1-21.6c-.3-3.4-.5-5.5-1.4-8.7-.7-2.5 2.1-2.4-1.5-4.8s-4.7-.3-7.5-6.5-13.6-36.1-12-43.8 4.9-20.7 6.7-23.2 8.2-13.7 8.2-13.7-1.4-5.5-3.3 0c-2.4 7.7-30.8 25.4-34.5 25.9z"/>
	<path class="st0" d="M278.6 159.8c-5.6 0-11.2-.9-16.7-2.6-23.4-7.4-38.6-25.2-44-51.5a60 60 0 0 1 2.9-34.9c6.3-15.9 17.6-25.2 18.8-26.2 3.9-2 9.4-3 15.9-3 18.1 0 45.4 8.7 62.4 27.9a60.6 60.6 0 0 1 15.1 49.1c-16.3 34-38.6 41.2-54.4 41.2z"/>
	<path d="M255.6 43c17.8 0 44.5 8.6 61.3 27.4a59.2 59.2 0 0 1 14.8 47.7c-8.9 18.5-25.3 40.2-53 40.2-5.5 0-10.9-.9-16.2-2.5-22.9-7.3-37.7-24.7-43-50.4a59 59 0 0 1 2.9-34.1 66.8 66.8 0 0 1 18.2-25.5c3.6-1.8 8.8-2.8 15-2.8m0-3c-6.7 0-12.5 1.1-16.7 3.3 0 0-12.5 9.6-19.3 26.9a62 62 0 0 0-3 35.8c8 39.3 35.4 49.6 45 52.7 2.8.9 9.1 2.7 17.1 2.7 16 0 39-7.1 55.9-42.4 6.3-53.3-46.7-79-79-79z"/>
	<path class="st2" d="M308.6 58.7c-8.1-6.4 1.9-16.6 11.4-21.6s25.5-9.3 38.2 6.1c12.7 15.4 20.7 48.9 8.8 75.5s-5 11.4-5 11.4-15.2-.5-20 4.1c-4.8 4.6-39.4 28.9-44.2 27.8-4.8-1.1-7.6-2.3-4-3s24.7-12.5 33-26.3c7-11.5 8.9-24.4 6.5-37.4-1.8-10.8-9.2-24.2-24.7-36.6z"/>
	<path class="st2" d="M376 88.4s47.7 13.6 50.8 18c3.1 4.5-2.7 46.2-3.8 52.2s-7.1 36.7-8.6 39.3c-1.5 2.5-5.9 11.7-5.9 11.7s-1.8 2-2.5-1.4-.3-6.3-.9-10.4l-2.2-13c-.4-2.7-.1-7.8-1.5-11.7-1.4-3.9-5.1-17-7.1-19.7-13-17.5-28.4-22.9-33-21.8 3.5-8.6 14.5-22.7 14.7-43.2z"/>
	<path d="M275.7 168.6c-14.1 0-31.2-6.3-39-22.2l1.8-.9c5.5 11.2 16.2 17.4 31.9 18.5 13 .9 24.2-2.1 25.9-2.7 20.3-7.6 44.5-27.9 46-34.5 1.7-7.3-3.4-30.6-4.4-32.3l-.7-1.4a97 97 0 0 0-43.9-47.8c-42.5-22.6-67.9 2.9-68.2 3.2l-2.3 2.4.6-3.3c1.5-8.1 17.4-25 39.7-34.1a84.3 84.3 0 0 1 83.2 8.4c56.3 37 17.7 108.5 17.3 109.2l-1.8-1c.4-.7 37.1-69-17.7-105a81.4 81.4 0 0 0-80.2-9.8 79.3 79.3 0 0 0-37.1 29.2c8.2-6.2 33.2-21 68.4-2.2a102 102 0 0 1 43.9 50.1l.5 1.2c1.3 2.2 6.3 26.2 4.6 33.7-1 4.5-9.4 12.3-16.8 18.1-10.1 7.8-20.5 16-29.7 19.5-2.8 1.1-12 3.7-22 3.7z"/>
	<path d="M262.9 41.3s-40.3 22.3-37.3 60.7 24.4 50.6 31.5 54c7.1 3.4 51.3 19.3 77.5-37 7.9-62.4-66.7-80.5-71.7-77.7z"/>
	<path class="st3" d="M225.4 46.8a32.4 32.4 0 0 0-6.9 26.1s-1.5-21.5 20.4-29.7 44.3 3 55 7.7"/>
	<path class="st2" d="M339.5 138c11.9.4 23.4 2.1 23.9 13.6s-6.7 28.2-12 26.9-9.8-3.9-9.3.4 6.7 13.2 2 17.2-6.3 1.5-7.1 3.2c-.8 1.6-1.4 6.1-6.8.9-1.4-1.3 3.2 18.3 13 24.8.2-9.1-1.1-18.5 5.4-31.8 2.2-4.5 6.6-9.7 12.8-14.2 24-17.6 41.6 5.9 41.6 5.9s.5-27-20.8-43.4-29.4-12-29.7-12-12.1 4.4-13 8.5z"/>
	<path d="M343.5 226.3c-.6 0-1.4-.4-2-.8-6.6-4.1-14.7-25.2-17.8-41.7a59.8 59.8 0 0 1 14.3-47.1c5.6-6 11.6-8.9 17.5-8.2a56.1 56.1 0 0 1 40.3 27.4c4.6 8.3 9.9 28.9 7.2 30.6-.1.1-1 .6-1.7-.5-9-13-22.2-12-27.9-11.6l-.9.1c-5 .3-13 6.6-14.3 8l-.4.4c-.8.9-2.4 2.5-4.2 5.2l-1 1.5a59.6 59.6 0 0 0-6.8 15.3 37.4 37.4 0 0 0-1 17.1c.3 2.4.5 3.7-.5 4.3-.2-.1-.5 0-.8 0zm10.3-95.9c-5.9 0-11 4.1-14.3 7.6a58.5 58.5 0 0 0-13.8 45.4c3.7 19.4 11.9 37.3 16.9 40.3l.5.3-.2-2.1c-.5-3.7-1.3-10 1-18a60 60 0 0 1 7-15.8c.7-1.1 3.9-6 5.3-7.9a40.4 40.4 0 0 1 16.1-8.7c7.7-1.3 17.6-2.5 29.3 11.4a79 79 0 0 0-7.6-26.3 54 54 0 0 0-38.7-26.3l-1.5.1z"/>
	<path class="st2" d="M358 184c-2.7 4.9-9.8 20.8-8.1 33.8 1.7 13 4.3 17.1 3.6 18.5-.7 1.5-3.2 2.9-1.5 4.4s4.4 7.2 3.9 8.2 2.5 9.2 2 12-2.7 11.2-2.2 12.2 1.8 6.2 2.2 7.5c.3 1.3-2.1 7.3-2.6 9.7-.5 2.4-1.7 5.5-.6 6.5s2.1 3.7 1.8 5.7c-.3 2 1.3 13.6 0 14.8-1.3 1.2-6.3 10.4-8 12.2s-3.7 6.8-5.2 10.1-5.8 7.4-8.2 10.2-3.3 5.8-4.6 8.9c-1.3 3.1-4.1 4-3 6.6s20.5 15.1 23 14.6 2-5.4 4.2-6.2c2.3-.8 4.3.5 6.5-.5s5.8-6.5 5.8-9.2 1.3-.2 3.7-1.4 8.7-4.7 10.6-6.9c1.8-2.2 3.6-2.7 3.8-5.5.2-2.8 4.7-9.7 6.3-11.7 1.7-2 5.9-12.4 6.6-14.1s4.5-4.6 5.4-5.1 13.2-31 12.3-40.9c-.9-9.9-2.9-41-3-44-.1-3 .5-13.5-.3-15.5s-2.4-5.5-3.9-7.6c-1.4-2.1-1.9-6.1-2.8-8.9s-.7-5.7-1.5-8.6-4-7.4-3.2-7.9c.9-.5-6.8-8.5-11.6-10.1-10.8-3.5-18-1.4-20.3-.7s-6.4 3.4-7.9 4.5c-1.4 1.2-3.2 4.4-3.2 4.4z"/>
	<path d="M355.1 382.7c-1 0-3.8-.9-13.6-5.7-6.1-3-13.6-7-16.4-9.2-4.8-3.8-4-6.7-2.8-11l.6-2.3c.9-3.5 2.8-6.3 5.1-9.9 1.8-2.7 3.9-5.8 6-10l5.3-10.2 2.1-4.1c.8-1.6 1.2-2 1.6-2.2.1-.1.4-.4 1.1-2.2l.6-1.4.1-.3a54 54 0 0 1 2.5-12.7l.1-.2 2.2-3.6a55 55 0 0 1 0-5.8c0-4.5.1-11.2-.7-12.8-.8-1.7-.6-4.6-.4-7.8.2-2.7.4-5.4-.1-6.8l-.3-.9c-.9-2.6-1.1-3.1-1.6-11v-1.8l-.3-1.3v-.7l-.5-4.7c-.6-5.3-.9-8.5-.8-11.1l-.2-.8-.1-.3-.4-1.3c-.4-1.4-.9-2.9-1.4-5.5l1.9-1.1 1 4.6c.7-1.5 1.6-3.2 2.8-5 0 0 1.9-2.1 2.5-1.7.6.4-.9 2.7-.9 2.7-3.9 6.5-4 7.4-2.6 19.2l.2 2c1-1.9 2.4-3.5 4-4.9 2-2.3 4.6-4.3 8.1-4.7 0 0 8.8-1.2 9-1.1 2.1.9-8.5 3.1-8.5 3.1-2.1.8-4.5 2.3-6.8 4.3a30.4 30.4 0 0 0-4.2 6.5l-.2.5-.7 1.3v1.7c.4 7.7 1.4 7.4 2.2 9.8l.4 2.1c.6 1.8-.4 4.1-.6 7.1-.2 2.6-.4 5.5.2 6.8.9 1.9.9 7.1.9 13.7v3l.1-.1c3.2-4.5 8.5-10.9 18-10.4 0 0 2.9-.1 3 .7.1.8-2.8 1.3-2.8 1.3l-3 1c-5.5 1.8-9.4 3.1-13.7 8.5l-.8 1.1-1.1 1.5-2.2 3.6a73.5 73.5 0 0 0-2.7 13.2l-.6 1.3c-1 2.4-1.3 2.7-1.9 3.1-.1 0-.3.2-.9 1.5l-2.1 4.1-5.3 10.2a82 82 0 0 1-6.2 10.2c-2.3 3.4-4.1 6-4.9 9.2a42 42 0 0 1-.6 2.4c-1.2 4.3-1.6 5.9 2.1 8.9 4.6 3.7 24.9 13.6 28.3 14.4l.1-.5c.1-.7.4-1.8 1.7-2.1l2.2-.2c1.9 0 5.8-.1 6.5-1.4.2-.4.5-1.5.5-3.4a7 7 0 0 1-.3-2.4l-.3-4.2a26.3 26.3 0 0 0-5.5-12.6s-1-1.3-1.1-2.6c-.1-.5 2.7 1.4 2.7 1.4a29.1 29.1 0 0 1 5.8 13.5c.4 2 .5 3.7.6 4.6v.6l1.4-1.3.1-.1c9.3-7 14.7-14.1 14.9-16l.1-.7c.3-2.3.7-5.5 4.8-11.1 3.4-4.7 7.2-13.5 9.1-17.7l1.1-2.5a5 5 0 0 1 2.1-2c1.3-.9 2.9-1.9 3.8-5.2.4-1.4 1.1-3.2 2-5.5 2.9-7.4 7.4-18.6 7.6-31 .2-11.6-.9-21.2-1.5-26.9l-.5-4.8v-1.4c.3-21.2-1.2-27.9-2.5-29.7-3.4-4.7-4.8-7.2-5.2-10.8l-.1-2.7c-.1-2.5-.1-5.1-1.6-7.8a19 19 0 0 1-2-6.8l-.3-1.6 1.7-1.1c.3.5.4 1.3.6 2.4.2 1.6.5 3.8 1.8 6.1 1.7 3.1 1.7 6.1 1.8 8.7l.1 2.6c.3 3.1 1.5 5.2 4.8 9.9 2.2 3 3.1 13.1 2.9 30.9v1.4l.4 4.6c.7 5.7 1.8 15.4 1.6 27.1-.3 12.7-5 24.6-7.8 31.6a70 70 0 0 0-2 5.3c-1.2 4-3.2 5.3-4.7 6.3-.7.4-1.2.8-1.4 1.2l-1.1 2.4c-2 4.6-5.8 13.2-9.3 18.1-3.8 5.2-3.8 7.9-4.1 10.1l-.2 1.8c-.8 1.6-7.3 9.8-15.9 16.3-1.2 1.2-2 1.9-2.7 2.3.4 1.8-.3 3-.7 3.8-1.3 2.2-5.3 2.3-8.2 2.4l-1.8.1-.3.6c-.1.6-.3 1.4-1.1 1.9.8-.1.7.1.3.1z"/>
	<path d="M350.9 297.8c2.9-3.9 8.1-12.5 19-12.5-9.1 3.1-14.1 3.4-21.3 16.3" fill="#fff" stroke="#000" stroke-miterlimit="10"/>
	<path d="M384.2 354.1v-.6c-.5-6-.6-7.5-10.8-17.9-10.5-10.8-31.7-7.8-34.4-6.2l-1.1-1.7c3.8-2.4 26.9-6.1 37.8 5.1 10.3 10.5 9.9 13.9 10.5 20.5v.6l-2 .2zM403.5 319.2c-10.3-15.2-21.1-15.5-26.9-15.8-2.3-.1-3.8-.1-4.5-1.2-.5-.9-.1-1.9.2-2.5 3-6.3 5.5-55.4 3.8-58.5l-.6-1 1-.5c.2-.1 17.3-8.5 36.7 2.6l.4 1.9a40.8 40.8 0 0 0-35.3-2.1c1.6 8.3-1.4 52.7-4.2 58.5l-.2.6a7 7 0 0 0 2.8.3c6.9-1.1 17.6.6 28.5 16.6l-1.7 1.1z"/>
	<path class="st2" d="M404.4 317.3c-16.1-23.8-33.4-11.2-30.4-17.5s6-54.3 4.3-57.9c0 0 17-7.6 34.8 1.8l.2.4s2.6 29 2 35.9c-.4 4.9-1.9 12-4.5 20.1-3.1 9-6.4 17.2-6.4 17.2z"/>
	<path d="M415.7 268.9c-14.9-11.6-35.8-4.5-38.1-3.6l-.7-1.9c2.4-.9 20.6-11.6 39.4 3.9l-.6 1.6zM413.2 293.3c-9.9-9.6-33.6-9.7-37.2-8.8l-.3-2c3.9-1 28.3-4.9 38.9 9.3l-1.4 1.5zM408.6 235.2a36.8 36.8 0 0 0-14.4-3.5c-2.2-.1-4.2.5-5.7.5-.5 0-1.8.2-2-.5-.2-1 1-1.5 1.6-1.5 1.4-.2 4.6-1.1 6.8-1 5 .2 10.2 1.9 14.7 4.3 0 0 1.5 1 1 1.8-.4.5-2-.1-2-.1z"/>
	<path d="M361 193.4c-3.8 10.1 1 29.3 3 29.8s33.1-3.1 34.2-3.6c1.1-.5-1.5-23.9-3.2-28.8-1.6-5.1-32.7-1-34 2.6z" fill="#cc1232" stroke="#000" stroke-width="2" stroke-miterlimit="10"/>
	<path d="M373.3 173.6l-1.9-.5.7-2.3c1.2-3.6 2.4-7.4-.6-12.6 0 0-1.6-3.1-1.1-3.4.5-.3 2.9 2.4 2.9 2.4 3.4 6 2 10.4.8 14.2l-.8 2.2zM351.2 189.6l-.5-.3c-4-2.8-5-3.5-6.6-8.6 0 0-.2-2 .3-2.2.5-.2 1.6 1.6 1.6 1.6 1.4 4.4 2.1 4.9 5.9 7.6l.5.3-1.2 1.6z"/>
	<path class="st0" d="M393.4 177.1c1.6-2.7 2.8-3.2.2-9.9"/>
	<path d="M394.3 177.6l-1.7-1c.2-.3.5-.5.5-.9.5-2.4.8-3.9-.4-8.2 0 0-1.4-4.2-.7-4.6.7-.4 2.6 3.9 2.6 3.9 1.7 5.3 1.2 6.5.2 10l-.5.8z"/>
	<path class="st0" d="M322.5 363.9c-2 1.1-5.5 5.2-6.5 7.5s-1.5-.2-4.5 3.8-8.8 8.2-10 13-2 5.2-3.8 9.8-3.5 10-2.2 13 3.2 8.7 11 7.3c-1.3-4.8-.6-11.8.4-15.7.8-3.3-3.4 12.9.9 17.9s11.6.1 12.6-.2c-1.6-3.2-1.6-2.9-2.2-6.1-.7-3.6-.1-7.9-.1-9.7 1-1.5-3 14.8 5.5 18.3s10.6-2.3 10.4-3.3-2.6-2.8-3.1-7.5 0-10.2 0-10.2-2.8 15.2 6.5 20.8 11.9-3.6 10.4-5.6-4.1-5.8-1.2-10.2c4-6.1 5.1-9.6 5.9-14.9s1.8-5.8 2.9-10c-9.3-3.4-30.6-13.4-32.9-18z"/>
	<path d="M342.6 425.1c-1.5 0-3.5-.5-5.8-1.9-.9-.5-1.7-1.1-2.4-1.8-.3.6-.8 1.2-1.4 1.7-1.6 1.4-4.6 2.6-9.9.4a7.3 7.3 0 0 1-3-2.2l-.2.1c-2.4 1.2-8.8 4.3-12.9-.5a10 10 0 0 1-1.1-1.7c-7.6 1-9.9-4.6-11.2-7.6l-.2-.4c-1.1-2.7-.4-6.9 2.2-13.8.6-1.7 1.2-2.8 1.6-3.8.8-1.7 1.3-2.9 2.1-5.9.9-3.4 3.8-6.4 6.6-9.3 1.4-1.4 2.6-2.7 3.6-4 1.8-2.3 2.9-2.8 3.8-3 .3-.1.3-.1.6-.6 1.1-2.4 4.6-6.7 6.9-8l.9-.5.5.9c.4.8 2.6 3.4 13.4 9a173 173 0 0 0 18.7 8.3l.9.3-.2.9a40 40 0 0 1-1.3 3.8 27 27 0 0 0-1.6 6.1c-.8 5.2-1.8 8.9-6 15.3-2.3 3.5-.7 6.6 1.2 9.1 1 1.4.7 4.7-1.2 6.9a5.5 5.5 0 0 1-4.6 2.2zm-7.8-6.2c.8 1 1.8 1.9 3 2.6 3.5 2.1 6.2 2.1 7.9.2 1.5-1.6 1.5-3.9 1.1-4.4-1.3-1.7-5.5-6.9-2.2-12.1 4-6.1 5.9-8.9 6.6-13.8.5-3.4 1.1-4.9 1.7-6.5l1-2.7c-7.8-2.9-27.3-11.8-31.7-17a24 24 0 0 0-5.3 6.5c-.6 1.3-1.2 1.6-2 1.7-.5.1-3.9 5.4-5.3 6.8-2.6 2.7-6.4 5.1-7.2 8-.8 3.1-1.4 4.5-2.2 6.2l-1.6 3.7c-.9 2.3-3.6 9.1-2.3 12.2l.2.4c1.2 3 2.9 7 8.7 6.4a38 38 0 0 1 .6-15.1l.1-.3c.3-1.1 1.2-.9 1.2-.9s1 .2.7 1.3c-1.3 6.2-1.9 14.5.6 17.4 3 3.6 8.1 1.2 10.4 0-.9-1.5-1.4-3.3-1.7-5.1l-.1-.4c-.5-2.6-.3-5.5-.2-7.6l.1-2.2v-.3l.2-.3c.4-.5.9-.6 1.3-.5.8.3.8 1 .6 2.7-.1 1.8-.4 4.7 0 7.6v.3c.5 2.6.5 2.7 1.5 4.6l.6 1.2c.7.9 1.5 1.6 2.6 2 3.2 1.3 5.8 1.4 7.5.2 1-.7 1.4-1.7 1.5-2.2a16.5 16.5 0 0 1-3-7.4c-1-5.4-.1-10.5-.1-10.9l2 .3s-.4 5.3 0 9.9c.3 1.7.8 3.4 1.6 5l.7 1.1c.5.7.8 1 .9 1.4z"/>
	<path class="st6" d="M165.3 320.5c2.6-.5 8.8-1.4 8.2-4.4s-9.2-8.5-12.9-7.5-6.4 2.3-8.5 1c-2.1-1.3.1-2.2-3.3-4.3-3.5-2.2-4.9-3.8-9.1-1.7-4.2 2.2-9.3-5.3-12.8-6s-3.8-1-4.5-4c-.7-2.9 2.6-2.2.6-4.2s-21-7.9-23.3-6.4c-2.3 1.5-11.4.1-16.5 2.1s-9.5 4.6-10.8 8.5c-1.1 3.3-1.8 2.2-3.7 6.5s-3.4 2.1-6.2 7.8c-2.7 5.6-7.2 14.6-2.3 17.5 4.3 2.6 4.2 4.8 3.7 9.4-.5 4.3-3.9 4.8-2.5 9.8s2.4 10.6 1.7 12.5-3.8 7-2 11 5 5.8 2.8 8-4.2-1-4.3 4.2c-.2 5.3.5 2.6 1.3 8.1s-1.4 4.8-2.8 9.2-3.1 4-1.7 7.1c1.4 3 10.1 10 14.2 12.1s8.8 4.6 12.4 3.9 5.4-.1 4.4-2.8-1.2-2.9-3.2-7a108 108 0 0 1-6.8-19.8c-.6-4.2 1.6-16.2 2.2-19.5.6-3.3 6.5-16.4 10.1-18.9 3.8-2.7 7.7-4.2 8.6-5.7s1.4-6.9.6-9-2.3-2.8 2.4-5.6c4.7-2.8 12.4-.3 13.9.6 1.4.9 8.1 2.7 11.7.7s7.8-3 11.9-4.5c4.1-1.5 23.4-4.4 24-5.3l2.5-3.4z"/>
	<path class="st2" d="M171.3 205.8c.2-.7 2.9-.1 4.1 1.2s1.2.5 2.1 2.8 2.2 4.2 2.1 5.5 3.1-1.2 6 1.2c2.8 2.3 2-1.3 3.5-2.7 1.5-1.3 1-4.2.9-5.6s5.8-18.4 8-20.8 8.6-11.7 9.5-11.5 3.1-7.4 6.5-9.5c3.5-2.1 10.9-17.6 22.3-15.8-3.7 17.7-3.8 26.7-4.4 27.9s-3.3-.9-3.3-.9l-5.8 12-.8 1.7s-10 24.3-10.5 29.4c0 0-.3 4.6-.1 7.3-2.9 2.4-22.9 31-33.9 37.7-3.3 1.4-18.4-11.5-22-18.2-1.7-3.1-16.7-16.7-14.5-17.5 2.2-.6 26.7-8.2 30.3-24.2z"/>
	<path class="st7" d="M237.6 145.2c-2.2 6-6.6 32.2-6.6 45.7s-27.9 51-51.2 72.5c-3.2 2.9-3.3 3.6-3.7 4.6.6.8-3.1 0-3.7 2.2a50 50 0 0 1 13.7 9.5 32.3 32.3 0 0 0-13.9-9.6c-1.4-.7-4.9.9-4.2 2.2s15.8 15.6 16.4 19.8c-2.6-5.2-16.4-20.2-18.2-20.9s-7.5-2-9.4-.6c1.3 1.1 2.3 2.7 3.6 4.4a58.6 58.6 0 0 0-21.2-16.7c-11-5.7-31.8-25.3-65.8-15.7-34 9.7-30.7 69.8-30.8 71.2a375 375 0 0 0 0 30 53 53 0 0 1 0 0c.2-.9-1.7 11.1.2 21.5-.9-1.4 3.1 15.8 3 19.3s-.3 5.3 2.7 10.5 5.5 9.3 8.3 12.3c2.8 3 17 14 30.8 13.5-.3-14.7-21.8-24.8-1.8-62.7 6.5-7.7 9.3-8 10.8-9.3s3-6.4 2.5-8.2.6-6.3-.5-6c-6.4 1.5-24.9-3.8-28.9-15 4.3 8.8 19.2 16.6 28.9 15 9.7-1.7-8.5-22.3-11-25.8 12.8 15.7 14.4 22.4 13.8 23.4-.2.3 1.8-2 4.4-1.6 6.5 1-.9-15.3 3.6-32.7-3.9 5.6.8 36-3.6 32.7 2.8-1.3 4.1 5.3 13.7-15 1.8-3.7-3.8 14.8-10.3 15 1.2.3 4 3 5.1 3.2.7-2 11.8-8.3 14.4-8.8 1.7-.3-17 7.2-14.4 8.8 4.3 2.6 11-.5 14.7-2s11.8-1.7 13.3-2.7 9-3.2 12.5-4 8.8-2.5 12.3-4.7 6-4.2 9.5-3.8c3.5.3 16.5-1 23.8 5.7"/>
	<path d="M86.6 422c-14.5 0-28.4-11.5-30.6-13.8-2.9-3.1-5.4-7.3-8.5-12.5-3.1-5.3-3-7.4-2.8-10.8v-.2c.1-1.8-1.1-7.9-1.9-12.4-.9-4.9-1.3-6.6-1.1-7.3a73.5 73.5 0 0 1-.2-20.6v-.3c-.5-3.1-.1-29 0-30.2v-.9c-.2-18.6 0-64.2 29.3-72.5 28.6-8.1 51.1 5.2 62.9 12.7 2.5 1.6 4.2 3.5 6 4.4a79.6 79.6 0 0 1 17.3 12c3.2-1.2 9.5.9 9.6.9l.8.5.2-.3c.9-1 2.8-1.7 4.2-1.5.8-1.2 2.4-1.4 3.3-1.6h.1c.4-1.1.9-2 3.9-4.8 27.4-25.3 50.9-60.6 50.9-71.8 0-13.3 4.4-39.9 6.7-46l1.9.7c-2.3 6.1-6.5 32.2-6.5 45.3 0 13.9-28.4 51.8-51.6 73.2-2.6 2.4-3 3.1-3.3 3.8l-.1.5c-.3.7-.9.8-1.6.9l-1.3.3a34.1 34.1 0 0 1 12.9 9.6c4.3 4.7-1.2 1.5-3.2-.6a62.8 62.8 0 0 0-11.7-7.5h-.1l-.2-.1c-.2-.1-.8-.1-1.6.2a3 3 0 0 0-1.2.8l3.1 3.4c6.5 6.8 12.8 13.6 13.3 16.6l1 6.3-2.8-5.7c-2.5-5.1-16-19.6-17.6-20.4a19 19 0 0 0-7.2-1.1c1.2 1.3 2.1 2.5 2.6 3.5 0 0 1 2 .5 2.4-.5.4-2.2-1.4-2.2-1.4l-1-1.4-1.4-1.9-1-1-.9-.8h.1a74.3 74.3 0 0 0-16.5-11.4c-1.9-1-4.1-2.4-6.6-4-12.2-7.8-30.8-19.5-58.5-11.6-27.9 7.9-30.4 51-30.1 69.1v1.2c-.2 1.3-.5 26.8-.1 29.5v.1c.2.7.9 2.5 2 4.6 1.8 3.2 4.2 8 9.2 12.7 0 0 1 .6.6 2-.2.5-2-.6-2-.6a35 35 0 0 1-9.6-13c-.1-.4-.5 12.1.1 15.5.7.8 2.2 2.2 3.9 3.6l5.5 4.2s.7.7.3 1.6c-.2.3-1.4.1-1.4.1-1.2-.8-3.8-1.9-6-3.7l-2.1-1.8c.2 1.1.6 1.7.8 3 1 5.1 2.1 10.8 2 12.8v.2c-.2 3.3-.2 4.9 2.5 9.7 3 5.1 6.4 7.4 9.1 10.3 3.2 3.4 15.5 14.9 28.1 15-.4-3.8-2.1-7.3-4.1-11.3-5.3-10.6-11.8-23.8 2.4-50.8l.1-.2c4.9-5.8 7.9-7.5 9.6-8.5l1.3-.8c1.2-1.1 2.6-5.7 2.2-7.2-.3-1-.2-2.3-.1-3.5l.1-1.6c-.9.1-1.9.2-3.1.1a30 30 0 0 1-5-.7c-8.1-1.8-18.3-6.9-21.3-15.1 0 0 .3-1.1.6-1.2.3-.1 1.2.4 1.2.4 4.2 8.4 18.7 16 27.8 14.4h.1c1.1-.2 1.5-.7 1.7-1.1l.2-.7v-.9a47 47 0 0 0-8.5-14.9l-3.3-4.2-1.8-2.4s-.6-1.5-.3-1.8c.4-.3 1.9.6 1.9.6 2.1 2.5 3.9 4.9 5.5 7.1a43 43 0 0 1 8.3 14.6h1.5c.8-.2 1.4-.2 1.9-.2l.7-.2c.6-1.9.5-7.8.4-12.3-.1-8.2-.3-16.7 1.8-19.8 0 0 1-1.2 1.4-1 .4.2.4 1.8.4 1.8-2.2 8.3-1.5 16.5-1.1 22.5.3 4 .5 6.9-.1 8.8 1.6-.6 4.2-3.4 9.4-14.3.2-.4.6-1.3 1.5-1 .1 0 .9.3.7 1.2-.2 1.5-4 12.5-9.2 15.5l.8.6 1.1.8c.8-1 2.7-2.2 6.3-4 3.5-2.1 7.3-4 8.7-4.2.8-.1 2.1 0 2.2.3.3.9-.8 1.3-4.3 2.9a119 119 0 0 0-5.6 2.7c-2.1 1.3-4 2.6-5 3.4 3.6 1.2 8.7-.9 11.9-2.2l.8-.3c2.1-.8 5.2-1.9 8.1-2.3 2-.3 4.2-1.5 4.8-1.9 1.8-1.2 10.2-1.9 13.1-2.6 3.7-.9 8.8-2.5 12-4.5.5-.3 1-.5 1.4-.9 8.5-7.1 26.8-2.9 33.2 2.8l-1.4 1.5c-5.8-5.2-15.3-5.3-20.5-5.3l-2.8-.1c-2.7-.2-4.7 1-7.5 2.8l-1.4.9c-4.3 2.7-10.8 4.3-12.6 4.8-3.9.9-10.9 3-12.2 3.9-.9.6-2.7.8-5.8 1.2-2.8.4-5.9.8-7.7 1.5l-.8.3c-3.8 1.6-10.2 4.2-14.6 1.7-.6-.2-1.4-.8-2.6-1.7l-2.2-1.5c-.6.1-1.1 0-1.7-.1l-.3.2c-.3.2-.9.3-1.7-.1-1-.1-2.1.3-3.2 1.2l-.1.4c-.3.7-.4 1.3-1.6 1.9.1.6-.1 1.6-.1 2.5a8 8 0 0 0 .2 2.8c.6 2.2-1.6 7.7-3.3 9.2l-1.6 1.1c-1.6 1-4.4 2.5-9 8-13.7 26.1-7.4 38.7-2.4 48.9 2.2 4.4 4.3 8.6 4.4 13.2v1h-1c-.4.2-.7.2-1 .2z"/>
	<path class="st7" d="M350.5 280.7c-2 2.8-5 7.3-7.7 14.3s-2.3 3.3-8.7 12.7c-6.3 9.3-9.3 11-14 19.1s-13.3 18.5-17.3 21.2-9.3 6.3-15.3 15.9c-6 9.6-5 7.8-9 11.8s-7.3 6.3-12 11-30.3 7-34.7 7.4c-4.3.4-7.2 3.6-12.3 6.3s-9 2.5-14 2.6-15.6 4.9-17.9 5.1-2.2.2-9.2 3-9.8 2.7-12.1 1.3c.2-1.2-2.8-22.8-.8-26.7-2.4 13.4 2 24.9.8 26.7s-4.9 4.1-7.6.4-8.3-19.2-23.1-25.5c13.1 3.6 22.2 24 23.1 25.5s1.8 3.2-1.1 4.9c-7.9-4.6-32.4-11.3-30.4-9.3 4.7.4 22.2 6.1 26.8 7.5s3.5 2 4.9 5.1 6.1 9 7.5 12.4 2.4 17 3.4 20.9 2 4.9 3.4 8.1 2 10.8 2 14.1 2 8.2 1.1 10.2-1.1 3.8-.6 4.9 0 0 1 1.5-.4 2.8-1.8 4.4-2.9 3.4-4.6 6.5-17.1 6.1-26.5 6.4-13.6-5.5-15.1-11.4-1.6-4.1-4.4-9.5-2.5-5.2-3-6.2-4.9-13.6-8-18.4-2.5-4-3.5-6.1-2.5-6.4-6.9-12.6-14.1-24.6-15.5-27.1-.6-2.8-7.4-17.9 1.4-36.6 5.7-42.8c4.3-6.2 13.2-11.4 21.5-16.5s23-10.2 31.8-11.7"/>
	<path d="M143.2 511.4c-10.8 0-14.3-7.6-15.5-12.1-.9-3.6-1.3-4.2-2.1-5.5-.5-.8-1.2-1.8-2.2-3.8-2-3.9-2.4-4.9-2.7-5.6l-.3-.7-.9-2.4c-1.5-4-4.6-12.3-7-15.8a27 27 0 0 1-3.1-5.2l-.5-1-.6-1.3c-1.1-2.4-2.6-6.1-6.2-11.1-3.4-4.9-10-17-13.6-23.5l-2-3.7c-.6-1-.8-1.7-1.3-3-.7-2-2-5.7-6.1-15-6.8-15.3 1.3-37.2 5.8-43.8 4.1-5.9 12.1-10.8 19.8-15.6l1.9-1.2c8.5-5.3 23.5-10.4 32.1-11.8l.3 2c-8.4 1.4-23.1 6.4-31.4 11.5l-2 1.2a61.9 61.9 0 0 0-18.2 15.3c-4.3 6.3-13.1 27-6.6 41.6 4.2 9.4 5.5 13.1 6.2 15.2.4 1.2.6 1.8 1.1 2.7a315.2 315.2 0 0 0 15.5 27c3.7 5.2 5.4 9.2 6.4 11.5.2.5 1.6 3.7 4 7.3 2.5 3.7 5.6 12.2 7.2 16.2l.9 2.2.4.8 2.6 5.4 2.1 3.6c.9 1.5 1.4 2.2 2.4 6.1 1 4.1 4.4 9.3 14.2 9 10.2-.3 24.2-1.9 25.5-4.3 1.8-3.1 3.3-5 4.6-6.6l.6-.6c1.3-1.5 1.6-2 1.2-2.6l-.5-.7c-.2-.2-.3-.3-.6-1-.6-1.4-1.9-3.2-.9-5.6.4-.8.6-3 .2-4.8-.4-1.7.1-3.6.1-5.1 0-3.1-.6-10.6-1.9-13.7l-1.3-2.7c-.8-1.6-1.8-3-2.4-5.6-.4-1.7-.6-5.5-1-9.2-.6-4.8-1.3-9.7-2.1-11.5a41 41 0 0 0-3.9-6.5 49.5 49.5 0 0 1-3.6-5.8c-.4-.8-.6-1.4-.7-2-.1-.4-.2-.8-.4-1-.9-.5-2-1.1-3.3-1.6l-4.1-1.3c-6.6-2-18.8-5.9-22.4-6.2h-.4l-.3-.2c-.6-.5-.5-1.2-.2-1.6.4-.5 1.1-1.4 13.8 2.4a137 137 0 0 1 14.1 5h.1c1.7.5 2.7.9 3.4 1.5 1.2-1 .9-1.7.1-3.1-.6-.8-1.3-2.1-2.2-3.7-3.2-5.8-9.1-16.6-20.5-21.5 0 0-.5-.6-.3-1.2s1-.7 1-.7c5.6 1.5 14.2 7.2 23.3 25.1l.4.8c.8 1 1.6 1.5 2.6 1.5 1.3 0 2.6-1 3.2-1.7l-.3-3.8-.4-4.4c-.4-3.2-.8-7.1-.7-11.4 0-3.3.2-6 .8-7.2l3-5.8-1.1 6.5a52.6 52.6 0 0 0 .5 20.8c.4 2.5.6 4.1.5 5.2 1.9.8 4.5.7 10.6-1.7 7-2.8 7.1-2.8 9.5-3.1.7-.1 2.8-.8 4.9-1.6 4.3-1.5 9.7-3.5 13-3.5h1.1c4.4-.1 7.9-.2 12.4-2.5 1.8-.9 3.2-1.9 4.7-2.8 2.7-1.8 4.6-4 7.6-4.2 13.6-1.2 30-3.5 33.3-6.8 2.5-2.5 5.6-3.8 7.6-5.5 1.8-1.6 3.6-3.1 5.5-5 .8-.8 1.4-2.7 1.8-3.1 2-1.9 1.4-1.5 6.2-9.2 6.2-10 11.8-13.6 15.5-16.1a79.3 79.3 0 0 0 18-20.2c2.6-4.6 4.7-7.1 7.1-10.1 1.9-2.3 4.1-5 6.9-9.1 2.9-4.2 4.4-5.8 5.4-6.9 1.2-1.3 1.7-1.8 3.1-5.5a59.5 59.5 0 0 1 7.8-14.5l1.6 1.2c-2.2 3.1-5 7.4-7.5 14.1-1.6 4.1-2.2 4.8-3.5 6.2a39 39 0 0 0-5.2 6.7c-2.9 4.2-5.1 6.9-7 9.3a67.8 67.8 0 0 0-7 9.8 85.3 85.3 0 0 1-17.6 21.5c-3.6 2.4-9 6-15 15.6a38 38 0 0 1-7.4 10.2l-1.8 1.7c-2 2-3.7 3.5-5.6 5.1-2 1.7-4 3.5-6.4 5.9-4.7 4.7-28.2 7-35.3 7.7-2.5.2-4.5 1.5-7.1 3.2-1.4.9-3 2-4.9 2.9a27.4 27.4 0 0 1-13.3 2.7h-1.1c-3 .1-8.5 2-12.4 3.4-2.8 1-3.7 2.5-4.6 2.7-2.1.2-3 .5-9.9 3.2-6.2 2.4-9.4 1.7-12.2.4a6.6 6.6 0 0 1-4.4 2.1 5 5 0 0 1-1.6-.3c-.1.8-.1 1.3-1.2 2.2.1.3.4 1.9.7 2.6.6 1.4 1.9 3.2 3.3 5.3 1.6 2.5 3.4 5.7 4.2 7.5.8 2.1 1.8 7.1 2.4 12.2.4 3.6.6 7.1 1 8.7.6 2.4 1.5 3.4 2.3 4.9.4.8.6 2.1 1.1 3.2a49.8 49.8 0 0 1 2.6 14.5c0 1.3 0 3 .3 4.6.5 2.5 1.2 4.6.6 6.1-.8 1.7-.9 2.8-.5 3.7.1.2.2 1 .6 1.6 1.3 2-.5 3.7-1.8 5.2l-.5.6c-1.4 1.6-3.2 5.1-4.9 8-2.2 3.9-18 5.8-26.9 5.1.2-.5 0-.5-.2-.5z"/>
	<path class="st3" d="M233.7 141.3c-3.4 1.8-8.4 3.6-11.7 8.6s-10.2 14.8-6.8 27.2a46.1 46.1 0 0 0 13.7 22.2"/>
	<path d="M176.2 269c-.2 0-6.1-.6-10.5-3.4a40 40 0 0 1-10.5-11.9l-1.1-1.5c-1.2-1.7-2.8-3.3-4.4-5-1.5-1.6-3.1-3.2-4.4-4.9l-1.3-.7a16.7 16.7 0 0 1-5.3-7.7c-.3-.9-1.5-2.2-2.2-2.9-.8-.8-1.4-1.4-.8-2.2.5-.8 1.4-.4 1.9-.1 1.9.5 17.4-7.2 24.1-12.8a28.3 28.3 0 0 0 9.5-15.2c0-1.7 1.1-1.8 1.4-1.8 1.5 0 3.2 2.9 3.4 4l.4.4c.8.7 2.3 2.1 4 5.9l.8 2.4c1.2-.3 2.9.1 4.3.8a8.8 8.8 0 0 1 2.3-4.1l.1-.1-.3-2.8c-.2-1.5-.2-2 .5-4.6.8-3 3.2-8.1 4.6-11.1l.9-2c.8-1.9 9.6-17.1 14.6-20.7l.3-.2c1.9-5.4 5.8-9.6 9.6-12.2l1.1 1.6a23 23 0 0 0-10 16.2c-.1 1.2 0 2.2 0 3.2l.5 3.3c.2.7.3 1.4-.3 1.8l-.5.4-.6-.4c-.6-.4-1.1-2.4-1.2-5.4V172l.1-1.7a100.8 100.8 0 0 0-12 18.1l-1 2.1c-1.4 3-3.8 8-4.5 10.8-.6 2.3-.6 2.5-.4 3.8l.3 3.3v.7l.2 1.5c.5 3.2 2.4 10.4 5.8 16.2 0 0 3.4 3.5 2.5 4.3-.9.8-4.3-2.8-4.3-2.8-3-3.5-5.1-11.7-5.9-17.2-.8 1.6-1.8 4.7-1.6 9.8.1 1.8 1.1 6.4 1.4 9.1.1.8-2.1-1.4-2.4-2.1-1.1-2.1-.8-4.4-.9-6.3a22 22 0 0 1 .3-7.1c-1.4-.8-2.9-.9-3.3-.8l-.1.4c.6 5.9-1.4 16.3-5.4 19.7-.7.6.1-2.9.4-3.8 2.1-5.6 2.9-11 3-14.4l.1-1.6c-.2-1.5-.5-2.8-1-3.9-1.5-3.4-2.8-4.5-3.5-5.2-.5-.5-1-.9-1-1.7-.1-.3-.4-.9-.9-1.5a31.5 31.5 0 0 1-9.8 16.9 77 77 0 0 1-24.5 12.2c.7.8 1.5 1.8 1.8 2.7.6 1.9 1.9 4.5 4.7 6.8l.8.4h2.6l2.1-.4c2-.4 3.8-.8 5.1-.1l2.9 1.6-3.3.2-1.9.2c-1.3.2-2.8.4-4.8.4l-.8.1a31 31 0 0 0 3.1 3.2c1.6 1.7 3.3 3.4 4.6 5.2l1.1 1.5 1.2 1.7c2.5 3.5 5.7 7.7 8.7 9.6 4 2.5 9.5 3.1 9.6 3.1v2z"/>
	<path class="st3" d="M189 254.9c-10.8-.8-13.5-8.2-13.1-7.2s-13.1 6.5-18.6 7.2"/>
	<path class="st2" d="M146.7 165.6c-.2-1.3-2.5-8.8 0-10.7 2.5-1.9 9.7-5.4 11.2-8.2s2.8-8.4-3.4-7.5-14.3 10.3-16.3 10.3-6.5-4.2-8.7-20.1c-2.2-15.9-3.2-15.4-5.7-14.4s-3.8 2.6-3.2 9.7 2 14.5 2.7 15.1c.7.6 3.7 4 1.3 5-1.1.5-.4 3.3-9-10.7-6.8-11-8-14.9-9.4-16-1.4-1.2-6-.7-5.5 3.2.5 3.8 6.6 17.3 8.1 19.4 1.5 2.2 5.3 2.5 5.9 3.3.2.3 5.3 2.4 3.2 7.5-1.3 5.9-6 2.6-6.3 3.8-1.6 5.7-2.5 10.7-.8 13.3 3.3 5 5.9 6.5 5.8 7.5s1.8 4.2 1.8 4.2 7.1 2.6 17.8-4.6c10.7-7.2 11.3-9.4 11.3-9.4l-.8-.7z"/>
	<path class="st3" d="M181.8 253c-.8 1.2-9.8 12.6-15.6 11.7"/>
	<path class="st8" d="M99.9 152c-.8-.3-4.2 2-4 4.9s2.1 7.7 11.5 10.1c9.4 2.4 9.6-5.6 8.9-7.3-.7-1.7-1.9-3.2-4.1-3.9s-9.1-2.5-12.3-3.8z"/>
	<path class="st3" d="M101.9 164.9c.8 1.5 4.3 5.8 7.8 9.5s5.7 5.8 6 6.8"/>
	<path class="st9" d="M135 154.3c-1 4.5.2 4.7-4.2 7-4.3 2.3-11.9 3.5-14.3 6.1M127 154.3c-3.8 3.7-5.7 4-6.3 4.3"/>
	<path d="M64.3 329h-.4c-2.7-.4-21.7-14.9-22.4-18.8l2.1-1.5c.2 1 3.1 5.5 9.5 10.6 5.4 4.4 9.9 7.3 10.9 7.6 0-.3-1.4-4.8-1-6.3.8-2.9 7-16.4 8.7-18.3.9-1 9.4-4.2 13.1-6.5 3.7-2.3 6.4-5.4 7.8-6.2 3-1.8 17.4-3.5 23.7 2.4.8.7 1.4 1.2 2 1.2 1 0 2-1 3-2l.9-.8c1.6-1.4 3.4-6.4 5.5-14.7a64 64 0 0 0-2.6-25.1l1.9-.7c1.2 3 4.6 18.9 2.7 26.3-2.3 9-4.2 13.9-6.1 15.7l-.8.8c-1.2 1.2-2.6 2.6-4.4 2.6-1.2 0-2.3-.7-3.4-1.9-2.8-3.1-18.9-3.3-21.2-2-1.4.8-4.5 4-8.2 6.4-3.8 2.4-11.6 5.2-12.3 5.9-1.3 1.4-6.6 14.8-7.4 18.1-.3 1.2.5 6-.2 6.8-.5.2-.9.4-1.4.4z"/>
	<path class="st0" d="M85.9 240.3c9.6 5.4 16 31.9 11.2 41.6"/>
	<path d="M97.9 282.3s-.8.4-1.2.3c-.6-.2-.6-1.2-.6-1.2 4.9-9.8-2-35.4-10.8-40.3l1-1.7c10.4 5.8 16.5 33.1 11.6 42.9z"/>
	<path class="st0" d="M52.9 259.8c-2.1 23.7 7.9 27.1 11.9 32.7"/>
	<path d="M64 293.1c-.8-1-1.8-2.1-2.9-3.1-4.6-4.6-10.9-10.9-9.2-30.2l2 .2c-1.7 18.5 4 24.1 8.6 28.6 1.1 1.1 2.2 2.2 3.1 3.4 0 0 .3 1.4 0 1.7-.4.2-1.6-.6-1.6-.6z"/>
	<path class="st0" d="M138.9 330.1c8.1 2.3 18.3 5.9 23 13.5 4.7 7.7 4.2 15 4.4 16s-1.4-2.3-11.8 0-23.3 7.3-28.3 10.7c-5 3.3-7.3 4.7-9 10s-2.4 24-1.5 26.3 1.2 8 2.2 11.7 4.7 6 1.7 8-5.7 2.7-12.3 2c-6.7-.7-14.9-4.2-17.3-4.7"/>
	<path d="M112.7 430.5c-1.3 0-5.1.2-6.8 0-4.8-.5-13.3-2-16.2-5.9l.4-2 3.7 1.2c3.6 1.2 9 3.1 13.5 3.5 6.6.7 9 0 11.7-1.8 1-.7 1-1.1-.3-3.2-.6-1-1.4-2.2-1.7-3.7-.5-1.8-.8-4.1-1.1-6.2a93.4 93.4 0 0 1-.2-32.5c1.7-5.4 4.9-6.9 9.4-9.9l.7-.5c5.3-3.6 18-9.2 28.2-11.5 5.9-1.3 9.6-.2 11.3.3-.1-2.6-.6-8.3-4.2-14.2-4.3-7.1-16.3-10-25-12.5l3.1-2.5c9 2.6 18.9 6.3 23.5 14 4 6.5 4.3 12.7 4.5 15.4l.1.9c.2.6-.1 1-.3 1.2-.5.4-1.1.2-1.4 0-2.3-1.1-5.9-1.1-10.8 0a107 107 0 0 0-28 10.5l-.7.5c-4.4 2.9-6.4 4.3-7.9 9-1.6 5.2-2.3 23.7-1.6 25.7a30 30 0 0 1 1.1 5.8c.3 2.1.6 4.3 1.1 6a10 10 0 0 0 1.5 3.1c1.1 1.8 2.5 4.1-.3 6-2.5 1.6-3.7 3.3-7.3 3.3z"/>
	<path class="st2" d="M119.9 182.6c2.1 3.4 3.6 4.2 3.9 7 .3 2.9 1.4 4.5 4.4 11.9 3 7.3 6.3 11 6.8 14.2s.8 5.9 1.5 7.4 1.3 4 2.3 4.6c1 .6 1.7.8 7-2s14.3-7.3 17.7-11.5a32 32 0 0 0 7.6-12.7c.9-3.8-2.9-7.3-4.9-9.4-1.7-1.8-4.4-4-4.9-4.7-.4-.7-2.1-4.6-4.1-6.9-1.5-1.8-4.1-4.1-5.2-5.4-1-1.3-2.2-3.6-2.6-5.5s-1.5-2.3-2.6-.8-3 3-7.2 5.7a54.2 54.2 0 0 1-15.9 7.5c-2.5-.4-3.8.6-3.8.6z"/>
	<path class="st0" d="M91.2 352.5c12.3-3.1 22.4-4.1 28.5 8.5"/>
	<path d="M118.9 361.4c-6-12.2-15.9-10.8-27.4-8l-.5-1.9c11.2-5.1 23.1-4.5 29.7 9 0 0 .1 1.5-.2 1.7-.4.2-1.6-.8-1.6-.8z"/>
	<path class="st0" d="M78.1 395.1c10.1 9.2 23.1 3.9 25.4 2.2"/>
	<path d="M91.3 401.7c-8.1-.2-9.3-1.7-13.9-5.8l1.3-3.5a23 23 0 0 0 24.2 4.2s1.9-.5 2.2-.1c.2.4-1 1.7-1 1.7a27 27 0 0 1-12.8 3.5z"/>
	<path class="st10" d="M337 87.9c-1.7-3.9 21.5-3.8 22.5-3.8s6.3 26.6 1.7 36.7c-4.4 4.5-18.5 3.6-19.3 3.8s-1.1-28.1-4.9-36.7z"/>
	<path class="st10" d="M359.5 84.1c1.9.6-6-4-7-4s-20.5 3.8-19.5 4 2.7 3 3.9 3.4c7-2.9 19.9-4.2 22.6-3.4z"/>
	<path class="st10" d="M333 84.1c.2.9 2.3 11 3.5 20.9.9 7.5 1 15 1 17.8 3.2 2.3 4.6 1.9 4.6 1.9s-2-32.1-5.1-36.5c-3.1-4.4-4-4.1-4-4.1z"/>
	<path class="st1" d="M235 160.6c1.4 6.1 2.2 12.9 7.2 18.2s36 14.5 37.5 15.3c11.2 5.8 10.5 17.7 10.2 21.2s-13.7 45.4-20.7 48.2c-7 2.7-42.3-6.8-46.3-10.6-4-3.7-11.9-7.1-11.8-17 0-2.7.8-7.1.8-7.1s39.3 14.1 44.1 14.6 18-29.7 20.8-34.8-12.7-15.7-15.3-17.4c-2.6-1.7-26.8-10.2-28.7-12.2a209 209 0 0 1 1.9-14.5c-.1-1.7.3-3.9.3-3.9z"/>
	<path class="st0" d="M229 178.9s41.7 14.8 46.1 16-16.9 40.5-19.1 43.1c-2.2 2.6-45-13.4-45-16.4s18-42.7 18-42.7z"/>
	<path d="M254.8 239.2c-2.4 0-7.9-1.1-21.1-5.9a217 217 0 0 1-15.9-6.4c-7.2-3.3-8-4.4-7.8-5.4 2-11.8 15.1-36.5 18.1-43.2l.4-.8.9.3c.4.1 41.7 14.8 46 16 .6.2 1 .6 1.2 1.2.3.9 1.1 3.6-8.5 23a211.6 211.6 0 0 1-11.3 20.5c-.2.4-.6.7-2 .7zM212 221.5c2.7 3.4 39.6 16.9 43.2 15.8 1.1-1.4 6.2-10.4 11.2-20.4 8.5-17 8.4-20.4 8.2-21a2573 2573 0 0 1-45.1-15.7 598 598 0 0 0-17.5 41.3z"/>
	<path class="st2" d="M275.7 195.6c-.7-2.9 7.1 10.4 8.1 13s-18.3 37.5-23.6 41.7c-4.2 3.4-43-12.6-44.5-13.9-1.5-1.4-4.7-14.8-4.7-14.8s35 15.8 40.8 15 25-36.6 23.9-41z"/>
	<path d="M258.2 251.8c-2.8 0-10.1-.4-23-5-9.2-3.3-19.1-8.7-20.2-9.7-1.6-1.5-4-11.1-4.8-14.4l-.2-1.1 1.4-1c14 6.3 36.2 15.4 40.2 14.9.3 0 2.2-.6 7.1-7.8 9.1-13.2 16.5-30 16-32-.3-1.2.4-1.5.7-1.6.8-.2 1.2-.4 5.1 6.2 1.7 2.9 3.7 6.5 4.2 7.8 1.5 3.7-19.4 39.2-23.9 42.9-.3.4-.8.8-2.6.8zm-45.7-28.4a56.4 56.4 0 0 0 3.9 12.3c.9.7 10.7 4.9 21.2 8.6 19.2 6.9 21.8 5.4 22 5.3 2.1-1.7 7.6-10 13.6-20.7 6.1-10.8 9.7-18.6 9.7-20-.8-1.9-4.3-8.1-6.3-11.1a141.1 141.1 0 0 1-16.1 31.2c-5.7 8.3-7.8 8.6-8.5 8.6-5.4.7-31.7-10.7-39.5-14.2z"/>
	<path class="st8" d="M252.6 236.4s7.1 12.4 6.8 14.3"/>
	<path class="st0" d="M136.8 255.4c3.9-1.9 12.1-1.2 21.7 3.2 15 6.9 28.5 6.9 40.3-.1A47.6 47.6 0 0 0 219 233s1-.8 3-.5c1.8.2 3 1.2 3 1.2a50.4 50.4 0 0 1-22.5 29.5c-9.4 5.8-25.2 10.6-46.5.8-7.8-3.6-10.1-6.7-13.6-5 .1 0-5.7-1.9-5.6-3.6z"/>
	<path d="M136 254.8c5.5-2.6 13-1.7 23 2.9 14.7 6.8 27.9 6.8 39.4 0a46.4 46.4 0 0 0 19.7-24.7v-.5l.4-.3c.1-.1 1.4-1 3.7-.7 2.1.2 3.5 1.4 3.5 1.5l.4.3v.5c-.1 2.3-2.1 7.5-5.7 13.2-3.2 5-8.1 12.5-16.5 17.8-9.6 5.9-23.8 11.2-45.6 1.1-7.4-3.4-11.1-7.5-14.2-6l-1.5-.9c3.8-1.8 5.9.4 14 4.1 21 9.7 36.4 5 45.6-.7a50 50 0 0 0 21.9-28.2c-.4-.3-1.2-.6-2.1-.7-1-.1-1.6.1-2 .2a49.4 49.4 0 0 1-20.6 25.7c-12.1 7.1-25.9 7.2-41.2.1-9.4-4.3-16.3-5.3-21.3-2.9l-.9-1.8z"/>
	<circle class="st8" cx="237.3" cy="193.2" r="4.8"/>
	<circle class="st8" cx="248.1" cy="198.2" r="3.2"/>
	<path d="M409.5 211.2l-.9-1.6c.4-1.2 1.5-3.6 2.2-4.7 1.2-2 2.6-4.6 4-9.9.9-3.4 1.2-4.9 1.5-6.5.5-2.5 1.1-5.4 3.8-15.4 4.6-17.1 9.4-59.4 7.5-65.6-1.1-3.5-19.1-7-31.9-10.8-9-2.6-17-6.9-20.9-8.9l.9-1.8a154 154 0 0 0 20.9 7c19 5.6 31.6 9.6 32.9 13.8 2.2 7.1-3.1 50.4-7.5 66.7-2.7 10-3.2 12.8-3.7 15.3-.3 1.7-.6 3.2-1.5 6.6-1.5 5.5-3.1 8.3-4.2 10.4-.8 1.2-2.8 4.4-3.1 5.4z"/>
	<path class="st0" d="M438 93.6c10-9.5 17.7-11.9 16.4-13.5"/>
	<path d="M438.7 94.4s-5.1 2.1-3.6 0c4.4-6.3 12.1-9.5 15.1-11.5 1.5-1 3.1-2.1 3.3-2.5l.1.4 1.5-1.3c.3.4.4.8.3 1.2-.2 1.1-1.4 2-4.2 3.8-2.8 2-7.3 5-12.5 9.9zM415.3 256.5l-.8-3.8 2.8-7.6c4.2-11.8 10-27.9 17.4-39.8 5.4-8.8 4.8-12.4 4-16.5-.5-3-1.1-6.4.3-11.9 2.1-8 2.6-26 3-42 .2-9.9.2-18.6 1-23 .2-.9 2.2-3.7 2.6-2.8 1.5 3.2-1.4 16-1.6 25.9-.4 16-.8 34.2-3 42.4-1.4 5.1-.8 8.1-.3 11.1.8 4.4 2.3 8.6-3.5 18a228.8 228.8 0 0 0-18 39.3l-3.9 10.7z"/>
	<path class="st6" d="M187.6 408c31.9 23.6 58.9 23.6 63.7 23.6s33.7-4.2 40.2-6.2c0 0-16.5 1.9-20-1.3s-13.2-14-15.8-16.4l-16.1-14.5s-8-.2-11.5 1.9-10 6.2-12.7 6.8-6.3.4-9.9 1c-3.5.5-17.9 5.1-17.9 5.1z"/>
	<path d="M251.3 432.6c-12 0-41.3-2.8-64.3-23.8l-1.6-1.2 1.9-.6c.6-.2 14.4-4.6 18-5.2 1.7-.3 3.4-.4 5.1-.5 1.8-.1 3.4-.2 4.7-.5 2.1-.5 7.2-3.5 10.6-5.6l1.8-1.1c3.7-2.2 11.7-2 12-2h.4l.3.2 16.1 14.5c1.2 1.1 3.9 4 6.8 7.1 3.3 3.6 7.1 7.6 9 9.3 2.3 2.1 13 1.7 19.2 1l.4 2a278 278 0 0 1-40.4 6.4zm-61.5-24.2a99.7 99.7 0 0 0 61.4 20.2c3.1 0 14.9.2 25.7-1.7-3.6-.2-4.6-.7-6.1-2-1.9-1.7-5.6-5.6-9.1-9.4-2.8-3-5.5-5.9-6.7-7a1422 1422 0 0 0-15.9-14.2c-1.6 0-7.8.1-10.6 1.7l-1.8 1.1a52.4 52.4 0 0 1-11.2 5.8c-1.5.3-3.2.4-5 .5-1.6.1-3.3.2-4.9.5-2.6.4-11.8 3.2-15.8 4.5z"/>
	<path d="M228 308c11.1 10.8 35.9 59.6 43.3 71.4.4-9.7-29.6-58.9-33.7-64.7-4.1-5.8-15.9-14.3-15.9-15.2 0-1-38.8-31.6-39.9-29.7s-5.1 1.2-3.4 1.8c1.7.4 7.9 3.1 49.6 36.4z" fill="#7c7c7c"/>
	<path class="st0" d="M181.8 269.7c-11.3-3.4 44.9 26 55.8 45 10.9 19 32.6 52.8 33.9 59.5 1.3 6.7 3.3 5.2 7 1.5s-2-20-10-35.3-18.9-36.6-28.9-46.9-39.6-28.8-39.6-28.8-12.4 6.7-18.2 5z"/>
	<path d="M273.5 380.3c-1.3.3-2.5-.4-3.2-3.8-.8-4.4-11.6-23.4-21.2-39.2-4.7-7.8-9.7-15.6-13.2-21.7-6.8-11.9-33.1-29.5-47-38.4-10.8-7-10.9-8-9.6-8.2.9-.2 1.8-.6 2.7-.4 4.4 1.3 14-3.1 17.4-4.9l.5-.3.5.3c1.2.8 30 17.8 40.1 28.1 9.6 9.8 19.3 29.8 27.3 45.1l1.5 2.8c7.3 14 14.3 31.9 9.8 36.4a13.9 13.9 0 0 1-5.6 4.2zm-89.9-109.4l7.8 5.1c15 9.6 40 25.8 47.1 38.1 3.4 6 7.9 13.4 12.6 21.1 10.5 17.4 20.5 33.9 21.4 38.7.6 3.3 1.3 3.8 1.5 3.8.7.2 2.8-1.8 3.8-2.8 2.5-2.5-.3-15.2-10.2-34.1l-1.5-2.8c-8-15.3-17.9-34.2-27.3-43.9-9.2-9.4-35-25.9-38.9-28.3a40 40 0 0 1-16.3 5.1z"/>
	<g>
		<path class="st0" d="M215.2 268.1a93.5 93.5 0 0 0-20.7 17.2c-1 2.3 16.3 13.3 20.7 16.3 4.3 3 24-16.6 22.2-18.5-1.9-2-22.2-15-22.2-15z"/>
		<path d="M216.2 302.9c-.6 0-1.2-.1-1.6-.5-.7-.5-2.4-.7-3.6-1.5-4-2.7-6.8-4.6-9.3-6.5-6.9-5-8.7-8-8.1-9.6a61.5 61.5 0 0 1 21.1-17.7l.5-.3.5.3a74 74 0 0 1 22.4 15.1c.6.9.9 2.1-3 6.7-3.6 4.3-13.7 14-18.9 14zm-20.7-17.3c.8 2.2 13.2 10.5 17.4 13.3l2.9 1.9c.2.1.9.4 3.2-.7a55 55 0 0 0 17.5-16.5c-1.9-1.7-13.5-9.3-21.3-14.3a99.7 99.7 0 0 0-19.7 16.3z"/>
	</g>
	<path class="st3" d="M149.4 166.4c0-2.6-1.3-7.7 0-9.9s3.4-3.9 5.2-5.5 9.2-6.5 6.6-10.9c-2.9-4.9-9.7-2.4-14.7 1.2-5 3.6-8.4 7.1-9.2 6.3s-3-5.6-3.8-10.1c-.5-3.5-3.1-18-3.6-20.8-.9-4.4-5.7-6.1-8.9-3.7s-3 7.9-2.7 9.9l2 15.2s2.9 4.1 3.4 5.2c.5 1.1-7-10.8-9.8-17s-5.9-9.4-7-10.4c-1.6-1.5-6.6-1-7.6 2.7-1 3.8.6 9 1.3 10.6 1.2 2.9 5 10 5.3 10.4s1.8.3 4.8 2.2c3.1 1.9 5.8 3 6.6 4.1 1.2 1.5.8 5.9-.1 7.4s-1.5 3-6.6 1.9-8.8-1.9-11.6-3.7-3.7-4.2-3.6-5.2c.1-.8.3-6.7 4.1-7.1 3.8-.4 5.2.2 6.4.5"/>
	<path class="st6" d="M56 408.2c5.7 6.7 23.4 15 31.6 13.8 6.2 10.8 14.4 24.6 14.4 24.6-.9.3-2.8.6-7.6.6-7.2 0-21.4-2.9-23.2-3.8-4.3.3-27.5.3-38.8-3.5-11.4-3.9-19.8-10.2-20.5-12.5-.8-2.3 5.3-15.5 17.3-9.3 12 6.2 18 3 21 .8s5.8-10.7 5.8-10.7z"/>
	<g>
		<path d="M138.4 230.6c-2.1 0-4.8-.5-6.1-1.9-.8-.8-1.2-2.3-1.8-4.8l-1.1-4.2c-.8-2.6-2.5-5.5-4.2-8.3-1.2-2.1-2.4-4-3.2-5.8a46.9 46.9 0 0 1-2-11.6 24 24 0 0 0-.4-3.1l-.7-1.2c-.4-.5-.8-1-1.1-1.8a15 15 0 0 0-1.3-2.4c-1.6-2.9-2.1-3.8-1.8-4.6.4-1.1 1.5-.9 2.5-.7 1.1.2 2.9.5 5.8.4 4.9-.2 20.8-9.8 22-11.5.7-1 3-4.1 5.2-3.7 1.4.2 1.8 1.7 2.1 2.7l.4 1.2.4.8c.4 1 .9 1.9 1.5 2.5a45 45 0 0 1 3.8 4l.4.4c1.2 1.2 3.6 3.8 3.9 6.3l.2.2 1 1c1.4 1.2 9.3 9 10 15l-2 .2c-.6-4.9-7.5-12.2-9.3-13.7l-.3-.2c-2 5.9-6.7 10-10.6 12.5-2 1.5-3.8 2.5-4.8 2.5l-4-.2 3.6-1.7c1.1-.5 2.6-1.3 4.3-2.4 3.7-3 8.6-8 9.2-10.7l.2-1.1.4-1.2c-.3-1.9-2.6-4.2-3.4-5l-.5-.5c-.5-.7-2.8-3-3.7-3.8s-1.4-2-1.9-3.1l-.3-.7-.5-1.6c-.1-.4-.3-1.2-.5-1.3-.4-.1-1.8.9-3.2 2.9a46.2 46.2 0 0 1-23.5 12.3c-3 .2-4.9-.2-6.1-.4l1.3 2.4 1.4 2.7.8 1.3c.4.5.8 1 1.1 1.8.2.5.3 1.5.5 3.5.3 3.3.8 8.4 1.9 11 .7 1.6 1.9 3.5 3.1 5.5a36.2 36.2 0 0 1 5.5 13.1c.5 1.9.9 3.5 1.3 4 .7.8 2.8 1.3 4.9 1.3v2c-.2-.3-.3-.3-.4-.3z"/>
	</g>
	<path class="st1" d="M244.2 323.8c0-3.3 2.4-14.7 8.4-10.5 5.2 7.9 14.4 26.8 16 29.4s11.3 25.9 10 30.2c0 2.1-3.8 5.2-4.6 4.8-.5-.3-.5-.3-.8-1.2-.8-2.3-1.9-6.4-4.9-12.1-4.5-8.1-23.1-39.1-24.1-40.6"/>
	<path class="st1" d="M269.2 343.9c3.3 5.8 10.7 24.3 9.4 29.1 0 2.1-3.8 5.2-4.6 4.8M350.5 382.1c-.5 2.5-.1 7.2-2.1 11.7s-5.5 8.9-6.1 11.2-.2 5.8 1.2 8.9 1.8 7-1.5 7.1c-3.3.2-9-3.1-10.2-9.4s0-9.9 0-9.9-1.8-1.7-2-.3-.9 11.1 1.1 14.7-6.2 6.7-7.5 2.6-3.6-12.8-3.5-14.6-2.9-1.6-2.9 0c0 1.5-.7 8.8.6 12.3 1.3 3.4-7.6 3.5-8.3 1s.4-14.5.9-15.8-2.9-1.7-4.1.4-1.3 9.8-1.1 11.8-9.1-1.5-8.5-7.7c.6-6.2 8.5-14 9-14.7s1.1-2.9 1.8-3.9 3.9-3.1 5.5-4.1 4.6-4.6 5-5.6.8-1.5 1.6-2.4 3.9-4.6 4.3-5.4c.4-.8 1.5-2.2 3.1-1.2a863 863 0 0 0 23.7 13.3z"/>
	<circle class="st0" cx="266.9" cy="91" r="2.6"/>
	<circle class="st0" cx="291.1" cy="105.5" r="1.1"/>
	<circle class="st0" cx="285.4" cy="85.8" r="1.6"/>
	<circle class="st0" cx="262.7" cy="111" r=".9"/>
	<circle class="st0" cx="293.8" cy="122" r="2.7"/>
	<circle class="st0" cx="243.5" cy="95" r="1.3"/>
	<circle class="st0" cx="265.6" cy="133" r="1.3"/>
	<circle class="st0" cx="312.6" cy="100.2" r=".6"/>
	<circle class="st0" cx="270.1" cy="54.3" r=".6"/>
	<circle class="st0" cx="243.9" cy="138.7" r=".5"/>
	<circle class="st0" cx="321.6" cy="118.3" r="1.1"/>
	<circle class="st0" cx="248.1" cy="62.6" r=".5"/>
	<circle class="st0" cx="298.3" cy="67.8" r="1.9"/>
	<path class="st0" d="M388.7 209.1l.1.8a5.6 5.6 0 0 1-5 6.2l-7.1.8a5.6 5.6 0 0 1-6.2-5l-.5-4.9a5.6 5.6 0 0 1 5-6.2l7.1-.8a5.6 5.6 0 0 1 6.2 5l.1.8-4.2.5-.1-.8c-.1-.8-.8-1.3-1.5-1.2l-7.1.8c-.8.1-1.3.8-1.2 1.5l.5 4.9c.1.8.8 1.3 1.5 1.2l7.1-.8c.8-.1 1.3-.8 1.2-1.5l-.1-.8 4.2-.5zm-4.5-14.8l-12.6 1.4.4 3.7 12.6-1.4-.4-3.7z"/>
</svg>
