<svg xmlns="http://www.w3.org/2000/svg" width="116" height="110" viewBox="0 0 116 110">
    <g fill="#FFF" fill-rule="evenodd">
        <path d="M58.5 33C48.546 33 30 37.664 30 48.96v22.022c0 5.803 4.348 11.14 9.902 12.902V110h7.544V53.83h-7.544v21.66c-1.415-1.244-2.358-3.005-2.358-4.508V48.96c0-4.198 12.207-8.498 20.956-8.498 8.75 0 20.956 4.3 20.956 8.498v22.022c0 1.554-.943 3.264-2.358 4.508V53.83h-7.544v56.118h7.544V83.832C82.6 82.071 87 76.734 87 70.93V48.908C87 37.664 68.454 33 58.5 33zM89.842 40c-.895 0-1.842.052-2.842.156l.684 7.443c.737-.053 1.474-.105 2.158-.105 7.158 0 18.58 3.904 18.58 8.536v22.119c0 1.3-1.054 2.238-2.37 2.862V60.974h-7.578V110h7.579V88.87C111.368 87.673 116 84.03 116 78.2V56.083C116 44.684 99 40 89.842 40z"/>
        <path d="M55 78h7v32h-7zM0 56.082V78.2c0 5.829 4.632 9.524 9.947 10.669V110h7.58V60.974h-7.58v20.037c-1.315-.572-2.368-1.51-2.368-2.862v-22.12c0-4.631 11.421-8.535 18.579-8.535.684 0 1.368.052 2.158.105L29 40.156c-1-.104-1.947-.156-2.842-.156C17 40.104 0 44.788 0 56.082z"/>
        <path fill-rule="nonzero" d="M25.5 35C33.498 35 40 28.498 40 20.5S33.498 6 25.5 6 11 12.502 11 20.5 17.502 35 25.5 35zm0-21.621c3.922 0 7.121 3.2 7.121 7.121 0 3.922-3.2 7.121-7.121 7.121-3.922 0-7.121-3.2-7.121-7.121 0-3.922 3.2-7.121 7.121-7.121zM91.5 35c7.998 0 14.5-6.502 14.5-14.5S99.498 6 91.5 6 77 12.502 77 20.5 83.502 35 91.5 35zm0-21.621c3.922 0 7.121 3.2 7.121 7.121 0 3.922-3.2 7.121-7.121 7.121-3.922 0-7.121-3.2-7.121-7.121 0-3.922 3.2-7.121 7.121-7.121zM58.5 29C66.498 29 73 22.51 73 14.526S66.498 0 58.5 0 44 6.49 44 14.474 50.502 29 58.5 29zm0-21.583c3.922 0 7.121 3.194 7.121 7.109 0 3.914-3.2 7.108-7.121 7.108-3.922 0-7.121-3.194-7.121-7.108 0-3.915 3.2-7.109 7.121-7.109z"/>
    </g>
</svg>
