<svg width="666" height="443" xmlns="http://www.w3.org/2000/svg">
    <defs>
        <linearGradient x1="25%" y1="6.7%" x2="75%" y2="93.3%" id="a">
            <stop stop-color="#F5515F" offset="0%"/>
            <stop stop-color="#ED1D46" offset="51.6%"/>
            <stop stop-color="#9F041B" offset="100%"/>
        </linearGradient>
    </defs>
    <g fill="none" fill-rule="evenodd">
        <path d="M74.8 65.4c-134.8 98-87 234.9 157 197C476 224.8 574.2 613 603.5 277.2 632.7-58.8 209.7-32.7 74.8 65.4z" stroke="#ED1F47" fill-rule="nonzero"/>
        <g transform="translate(326 103)">
            <circle fill="url(#a)" cx="169.8" cy="169.7" r="169.5"/>
            <path d="M89.7 247.1c12.5.9 31.8-7.8 40.8-6.2 18.8 3.3 22.3.9 32.2-2.2 23.3-7.4 66.2 1.7 72.5-4.5 14.2-13.7 42.8-18.2 57-16.3 21.7 3 25-7.4 35.5-15 5.1-3.6 8.5-9.6 10.7-14.8a164.3 164.3 0 0 0-3.6-58 47.7 47.7 0 0 1-11.2 7c-18 8.4-45.8 32.5-77.8 30.8-32.1-1.7-58.4 5.4-70.4 3.4-6.6-1.1-31-3.2-35.9-4.6-17.5-5-35 18.8-63 30.8-27.7 12-65.8 12-72.3 7.5 2.5 12 6.4 23.6 11.3 34.5 29.5 12.4 63 7 74.2 7.6zM37.8 168.4c27.5-3 99-42.6 120.3-37.5 21.3 5 39.7 2.9 64.3 4.6 24.6 1.7 55.6-.4 58.2-.4 11.3-.5 32.3-9 40.4-13 2.8-1.3 6.4-3.7 9.7-6-9.8-29.1-27-54.7-49.6-74.3-4.7 5.6-15 16-29.6 19.5-20.4 5-40.4 7-49.6 10.4-7.8 2.9-31.5 7.2-40.3 8.7 1-.2.6-.1-.1 0l-2.9.4 2.9-.4h.1c-1 0-2.9.3-6.7.8-16.3 2-43.3 6.7-58.4 10.9-13.1 3.7-60.4 2.5-77-.4C9 112 2.4 134.7.9 158.7c5.6 4.6 17.9 11.8 36.9 9.7z"/>
            <path d="M85.2 78.8l17-1.7s13.4-5.3 29.2-7c15.3-1.7 114.8-11 145.3-32A167.7 167.7 0 0 0 241.2 16a17 17 0 0 1-9 4.5c-9.4 1.4-24.3 5.1-38.4 6.8-14 1.6-24.7 1-37.3 2a261.4 261.4 0 0 0-37.3 5.6c-11.1 2.7-23 1.2-30.4 1.7-7.6.4-9.8-2.3-22 2.2l-7.9 2.8c-9.3 8-17.6 17-25 27C46.1 72.4 72.3 80 85.1 78.8zM106 311.8c30.4 17.6 75-11.7 83.4-10a17.3 17.3 0 0 0 16.2-4.2c2.5-2.4 53.8-12.9 62.1-12 8.4.8 16.3-5.8 28.8-15 7.6-5.6 13-8.8 17.7-11.8 4.6-7.4 8.6-15.2 12-23.4-10.4-2.6-26.4 8.8-38.4 9.3-5 .1-14.2-3-28.4-5.8-14.1-3-37.9 17.9-64.5 14.6-10.3-1.3-31.3-4.2-40.4-1.3-9.2 2.9-16.3 14.2-29.2 10.8-10.3-2.6-31.7 11.3-38 15-3.7 2.4-25 5.3-42.5 6.1 7.1 7.8 15 14.9 23.4 21.2 16.9-3.2 27.8.7 37.8 6.5z"/>
            <path d="M253.5 291.6c-8.4-.9-44.2-10-46.8-7.6-2.4 2.5-17.8 8-26.2 6.4-8.4-1.7-43.6 26.2-74 8.6-10-5.7-21.5 3-38.6 6.2a169.3 169.3 0 0 0 246-46.4c-4.7 3-9.7 17.7-17.3 23.3-12.4 9.2-34.8 10.3-43.1 9.5zM125.2 263c12.9 3.4 59.3.5 69.6.1 59.8-2 90.6-26.8 95.7-27 12-.4 29-13.3 39.5-10.7 6.2-14.8 7.5-30 9.3-46.6-2.1 5.1-3.6 11.7-8.7 15.4-10.4 7.5-16.7 26.7-38.4 23.7-14.3-2-40.8 8.7-57 16.3-8 3.7-35-3.5-58.3 3.8-9.7 3-77.2-1.1-89.7-2-11.3-.7-42 15.8-71.7 3.5A169.2 169.2 0 0 0 44.8 284c17.4-1 38.7-3.9 42.5-6.1 6.2-3.7 27.5-17.5 37.9-14.9zM76.4 197.6c28-12 47.9-22 65.4-17 5 1.4 32.1 10.2 38.7 11.3 12 2 33-25.7 65.1-24 32.1 1.8 60-22.4 77.8-30.8 4.7-2.1 8.4-4.6 11.2-7-1-4.7-2.5-9.5-4-14a68.6 68.6 0 0 1-9.7 6c-8.2 4-33.1.5-44.4 1-2.6 0-29.8 14.1-54.4 12.4-24.6-1.7-43 .4-64.2-4.6-21.3-5-92.9 34.5-120.4 37.5-19 2-31.2-5-37-9.7l-.3 11c0 12.2 1.3 24 3.6 35.4 6.8 4.5 44.8 4.5 72.6-7.5zM110.8 43.3c33.7 1.6 69-14.3 83-16 14.1-1.7 29-5.4 38.5-6.8 3.5-.5 6.4-2.2 8.9-4.5A169 169 0 0 0 59 41.5l7.8-2.8c12.3-4.3 36.5 4.2 44 4.6zM82.4 102.8c15-4.2 84.3-12 85.1-12 8.8-1.4 27.7-10.5 35.6-13.4 9.1-3.3 33.6-3.2 54-8.3 14.6-3.6 19.2-21.8 23.9-27.4L270 33C238 58.3 168 77.2 152.7 78.8c-15.8 1.8-47.9-7.4-65-5.8-12.8 1.3-41.5-.7-53.8-4.7a311.5 311.5 0 0 0-18.5 31.4c16.5 3 53.8 6.7 67 3z" fill="#AA0C2B"/>
            <path d="M161.5 80.5h-.2c.8-.1 1.3-.2.2 0zM158.5 80.9l2.8-.4-2.8.4z" fill="#AA0C2B"/>
        </g>
        <g transform="translate(26 41)">
            <circle fill="url(#a)" cx="40" cy="39.9" r="39.9"/>
            <path d="M21.1 58.2c3 .2 7.5-1.9 9.6-1.5 4.4.8 5.3.2 7.6-.5 5.5-1.8 15.5.4 17-1 3.4-3.3 10.1-4.4 13.5-4 5 .8 5.9-1.7 8.3-3.4a8 8 0 0 0 2.5-3.5 38.7 38.7 0 0 0-.8-13.7c-.7.6-1.6 1.2-2.7 1.7-4.2 2-10.7 7.6-18.3 7.2-7.5-.4-13.7 1.3-16.5.8-1.6-.3-7.3-.7-8.5-1-4.1-1.3-8.2 4.3-14.8 7.2-6.5 2.8-15.5 2.8-17 1.7.6 2.9 1.5 5.6 2.7 8.2 6.9 2.9 14.8 1.6 17.4 1.8zM8.9 39.6c6.5-.7 23.3-10 28.3-8.8 5 1.2 9.3.7 15.1 1 5.8.5 13.1 0 13.7 0a33 33 0 0 0 9.5-3l2.3-1.5A40.1 40.1 0 0 0 66.1 9.8a13.7 13.7 0 0 1-7 4.6c-4.7 1.2-9.4 1.7-11.6 2.5-1.8.6-7.4 1.7-9.5 2 .3 0 .2 0 0 0l-.7.1h.7l-1.6.1c-3.8.5-10.1 1.6-13.7 2.6-3 .8-14.2.6-18.1-.1C2 26.4.6 31.7.2 37.3c1.3 1.1 4.2 2.8 8.7 2.3z"/>
            <path d="M20 18.6l4-.4s3.2-1.3 7-1.7C34.4 16 58 13.9 65 9c-2.5-2-5.3-3.9-8.4-5.2a4 4 0 0 1-2 1c-2.3.3-5.8 1.2-9 1.6-3.4.4-6 .3-8.9.5-3 .3-6.1.7-8.8 1.3-2.6.6-5.3.3-7.1.4-1.8.1-2.3-.5-5.2.5l-1.8.7c-2.2 1.9-4.2 4-6 6.3 3 1 9.1 2.7 12.1 2.5zM25 73.4c7.1 4.1 17.6-2.8 19.6-2.4a4 4 0 0 0 3.8-1c.6-.6 12.6-3 14.6-2.8 2 .2 3.8-1.4 6.8-3.5l4.1-2.8c1.1-1.7 2-3.6 2.9-5.5-2.5-.6-6.3 2-9 2.2-1.3 0-3.4-.7-6.8-1.4-3.3-.7-8.9 4.2-15.2 3.4-2.4-.3-7.3-1-9.5-.3-2.1.7-3.8 3.4-6.8 2.6-2.4-.6-7.5 2.6-9 3.5-.8.6-5.8 1.3-10 1.5 1.7 1.8 3.6 3.5 5.5 5 4-.8 6.6.1 9 1.5z"/>
            <path d="M48.4 70C40 71 38.2 78.8 16 71.8A39.7 39.7 0 0 0 74 61c-1.2.7-2.4 4.2-4.2 5.5-3 2.1-13.3 2.7-21.4 3.6zM31.3 7.8a84.2 84.2 0 0 0 25.4-4 39.7 39.7 0 0 0-42.8 6l1.8-.7c3-1 13.8-1.4 15.6-1.3zM38 19c.2 0 .3-.1 0 0zM37.3 19h.6-.6zM23.5 46.6c-1-2.6-3.2-4.5-5.8-4.5-3.5 0-6.3 3.1-6.3 7 0 1.7.5 3.2 1.3 4.4l-.1 1.5c0 4.7 4.1 8.5 9.2 8.5 5.2 0 9.3-3.8 9.3-8.5 0-4.2-3.3-7.7-7.6-8.4zM70.5 28.9c.5-1.2.6-2.7.3-4.3-.5-2.6-2.2-4.6-4-5.2-1.2-2-3.3-3-5.5-2.6-2.8.6-4.6 3.7-4 7 .6 3 2.9 5 5.4 5 .5.9 1 1.6 1.7 2-.8 1.3-1.1 3-.8 4.8.7 3.3 3.5 5.5 6.4 5 2.9-.6 4.7-3.8 4-7a6.4 6.4 0 0 0-3.5-4.7z" fill="#AA0C2B"/>
            <circle fill="#AA0C2B" cx="22.2" cy="24.8" r="3.7"/>
            <circle fill="#AA0C2B" cx="57.9" cy="53.3" r="1.2"/>
            <circle fill="#AA0C2B" cx="66.8" cy="47.6" r="1.2"/>
            <circle fill="#AA0C2B" cx="66.1" cy="56.9" r="2.5"/>
            <circle fill="#AA0C2B" cx="9.2" cy="34" r="1.3"/>
            <circle fill="#AA0C2B" cx="19.7" cy="32.8" r="1.2"/>
            <circle fill="#AA0C2B" cx="46.6" cy="16.2" r="1.2"/>
            <circle fill="#AA0C2B" cx="33.6" cy="65.2" r="1.7"/>
            <circle fill="#AA0C2B" cx="22.6" cy="70.8" r="1.7"/>
            <circle fill="#AA0C2B" cx="50.6" cy="21.1" r="1.7"/>
            <path d="M56.5 45.3c1.5-7.2-2.5-16.7-8.7-18-6.3-1.3-14.5 2.1-15.9 9.3-1 4.4 2.2 13 4.7 15.9-.6 5 2.2 9.5 6.6 10.4 4.6 1 9.3-2.6 10.3-8 .3-1 .3-2.3.2-3.4 1.4-1.7 2.3-3.8 2.8-6.2z" fill="#AA0C2B"/>
        </g>
    </g>
</svg>
