<svg xmlns="http://www.w3.org/2000/svg" width="141" height="112" viewBox="0 0 141 112">
    <g fill="none" fill-rule="evenodd">
        <path fill="#EE1C45" d="M3.508 58.603H64.06v49.902H3.508z"/>
        <path fill="#FFF" fill-rule="nonzero" d="M67.568 112H0V55.108h67.514V112h.054zm-60.552-6.937h53.536V62.098H7.016v42.965z"/>
        <path fill="#FFF" d="M3.508 66.561H64.06v6.991H3.508z"/>
        <path fill="#EE1C45" d="M22.886 45.622h60.552v49.436H22.886z"/>
        <path fill="#FFF" fill-rule="nonzero" d="M86.892 98.52H19.378V42.16h67.514v56.36zM26.34 91.596h53.536V49.032H26.34v42.563z"/>
        <path fill="#FFF" d="M22.886 53.507h60.552v6.925H22.886z"/>
        <g>
            <path fill="#EE1C45" d="M41.67 31.676h60.552v49.436H41.67z"/>
            <path fill="#FFF" fill-rule="nonzero" d="M105.73 84.574H38.162v-56.36h67.514v56.36h.054zm-60.552-6.925h53.536V35.085H45.178v42.564z"/>
            <path fill="#FFF" d="M41.67 39.56h60.552v6.925H41.67z"/>
        </g>
        <g>
            <path fill="#EE1C45" d="M58.886 17.676h60.552v49.436H58.886z"/>
            <path fill="#FFF" fill-rule="nonzero" d="M122.946 70.574H55.378V14.266h67.514v56.308h.054zm-60.552-6.872h53.536V21.138H62.394v42.564z"/>
            <path fill="#FFF" d="M58.886 25.56h60.552v6.925H58.886z"/>
        </g>
        <g>
            <path fill="#EE1C45" d="M76.616 3.729h60.552v49.436H76.616z"/>
            <path fill="#FFF" fill-rule="nonzero" d="M140.622 56.627H73.108V.267h67.514v56.36zm-60.498-6.925h53.536V7.192H80.124v42.51z"/>
            <path fill="#FFF" d="M76.616 11.613h60.552v6.925H76.616z"/>
        </g>
        <path fill="#FFF" fill-rule="nonzero" d="M113 36.805v.545c0 2.016-1.644 3.65-3.671 3.65h-4.658c-2.027 0-3.671-1.634-3.671-3.65v-3.16c0-2.015 1.644-3.65 3.671-3.65h4.658c2.027 0 3.671 1.635 3.671 3.65v.545h-2.74v-.544a.863.863 0 0 0-.876-.872h-4.658a.863.863 0 0 0-.877.872v3.16c0 .49.384.87.877.87h4.658a.863.863 0 0 0 .876-.87v-.546H113zM111.137 27h-8.22v2.397h8.22V27z"/>
    </g>
</svg>
