<svg xmlns="http://www.w3.org/2000/svg" width="140" height="98" viewBox="0 0 140 98">
    <path fill="#FFF" fill-rule="nonzero" d="M69.972 98C46.61 98 23.53 87.205 3.16 66.803L0 63.638l3.16-3.165c7.336-7.347 15.01-13.395 22.91-18.198L3.724 19.95l6.32-6.33 24.152 24.19c10.214-4.917 20.71-7.8 31.318-8.421V0h8.916v29.445c10.608.622 21.104 3.448 31.318 8.421l24.151-24.189 6.32 6.33-22.29 22.324c7.9 4.804 15.575 10.908 22.911 18.198l3.16 3.165-3.16 3.165C116.413 87.262 93.333 98 69.972 98zM12.696 63.694c36.115 33.74 78.38 33.74 114.495 0-36.058-33.74-78.38-33.74-114.495 0zm57.276 10.343c-5.7 0-10.383-4.634-10.383-10.4 0-5.707 4.627-10.398 10.383-10.398 5.7 0 10.326 4.634 10.326 10.399.057 5.765-4.627 10.399-10.326 10.399zm0-11.812c-.79 0-1.467.622-1.467 1.47 0 .847.62 1.469 1.467 1.469.79 0 1.41-.622 1.41-1.47 0-.847-.62-1.47-1.41-1.47z"/>
</svg>
