<?xml version="1.0" encoding="utf-8"?>
<!-- Generator: Adobe Illustrator 23.0.1, SVG Export Plug-In . SVG Version: 6.00 Build 0)  -->
<svg version="1.1" id="Layer_1" xmlns="http://www.w3.org/2000/svg" xmlns:xlink="http://www.w3.org/1999/xlink" x="0px" y="0px"
	 viewBox="0 0 447 286" style="enable-background:new 0 0 447 286;" xml:space="preserve">
<style type="text/css">
	.st0{fill:#FFFFFF;}
</style>
<g>
	<path class="st0" d="M79.8,232.9c0.1,0,0.2,0,0.3-0.1c0.6-0.2,1.3-0.4,2-0.6c17.1-3.6,26.7-9.2,28.5-16.5
		c5.1-20.8-2.1-39.8-20.4-53.2c-13.6-10.1-57.8-45.7-57.2-82c0.3-16.3,9.9-32.1,26.3-43.4C121-5.2,178.6,3.8,216.6,9.9l0.8,0.1
		c2.4,0.4,4.7,0.7,6.9,1.1c21.3,3.2,56.7,19.7,88.2,34.9l2.2,1.1c46.7,22.6,91,44,113.3,35.3c5-1.9,8.4-5.5,10.7-11.4
		c3.8-9.4,3.3-17.8-1.5-26.5c-2.8-5.2-12.5-10.3-28-14.9c-4.1-1.2-8-2.7-8.8-5.3l-0.1-0.2l0.1-0.2c1.4-3.4,5.3-7.1,23.8-8.6
		c9.7-0.8,19.5-0.9,21.9-0.8v-2c-5.9-0.1-39.7-0.1-46.9,7.5c-1.6,1.6-1.8,3.3-1.7,4.5c0.3,4.8,6.4,6.6,14,8.8
		c9.3,2.7,20.8,6.1,25.2,15.1c2.8,5.9,2.3,13.8-1.6,23.5c-1.6,4.1-4.4,6.8-8.5,8.4c-20.7,8-70.3-15.9-114.1-37.1
		c-34.1-16.4-66.2-32-87.8-35.3c-2.2-0.3-4.5-0.7-6.9-1.1C178.8,0.8,120-8.5,56.3,35.1C37.8,47.8,28.3,63.1,28,80.3
		c-0.7,40.5,49.8,79.9,60,87.4c16.6,12.3,21.1,27.3,16.4,46.6c-0.4,1.8-0.5,7.6-24.1,12.6c-0.2,0-0.4,0.1-0.7,0.1
		c-1.7,0.3-2.7,0.6-3.1,0.9c-8.7,6.4-23.7,10.6-39.2,13.4c-12.1,2.2-28.8,19.2-34,38.6c0,0-1.2,4.8-1.3,6.5c3.6-0.1,4.8-0.1,5.9,0
		c0.4-1.4,0.9-3.6,1.2-4.9c2.9-14.8,20.4-32.4,29-33.5c12.9-1.7,37.2-11.2,41.4-14.5"/>
	<path d="M82,234.6c17.5-3.7,27.8-10.9,29.7-18.6c5.2-21.2-1.6-41.4-20.3-55.1c-13.5-10-57.9-44.5-57.3-80.4
		c0.3-16,9.7-31.5,25.9-42.6c61.3-42,116.5-32.4,154.4-26.4c0,0,7.7,1,9.9,1.4c21.2,3.2,56.4,18.9,87.9,34.1l2.2,1.1
		c39.7,19.1,77.4,37.4,101.9,37.4c4.6,0,8.7-0.6,12.2-2c5.2-2,10.5-6.1,13-12.2c3.9-9.7,1.7-18-3.2-27.1
		c-3.7-6.8-17.6-12.1-28.6-15.4c-3.7-1.1-7.2-2.4-8.1-4.5c1.3-2.9,5.2-6.3,22.8-7.9c10.5-0.9,21.1-0.8,22.3-0.8h0.5l0.1-4h-0.5
		c-6.7-0.1-42.4-0.5-49.9,7.5c-1.8,1.9-2.3,4.2-2.2,5.5c0.4,5.5,8.7,7.4,16.7,9.8c9.1,2.7,20.4,6,24.5,14.6
		c2.7,5.6,2.2,13.3-1.7,22.7c-1.5,3.8-4.1,6.4-7.9,7.9c-20.3,7.8-68.9-17.6-112.5-38.7C279.4,24.4,246.5,10.3,224.7,7
		c-2.2-0.3-4.5-0.7-6.9-1.1c-39-6.2-97.9-15.5-161.9,28.5C36.9,47.2,26.3,62.6,26,80.2c-0.7,41,51.1,80.8,61.4,88.4
		c16.3,12,20.9,27,16.3,45.8c-1.1,4.5-8.3,8.4-23.6,11.7c-0.2,0-0.4,0.1-0.7,0.1c-2,0.4-2.9,0.9-3.9,1.8c-7.9,6.3-24.5,10.7-38.1,13
		c-13,2.2-30.8,20.1-36.1,39.4c-0.5,1.9-1,4-1.3,6.3H3c0.3-2.4,0.8-4.5,1.3-6.4c4.8-17.7,20.7-35.9,32.6-38.3
		c13.2-2.6,18.9-1.2,41.5-13.7c4.8-2.7,23.4-3,26.8-13.8c5.9-18.6-1.1-34.1-17.6-46.3c-10.2-7.5-60.9-47.1-60.2-87.8
		c0.3-17.5,9.9-32.8,28.6-45.6C119.8-8.9,178.7,0.4,217.5,6.4c2.4,0.4,4.7,0.7,6.9,1.1c21.7,3.3,53.8,18.8,88,35.3
		c43.7,21.1,93.2,45,113.7,37.1c4-1.5,6.6-4.2,8.2-8.1c3.9-9.6,4.4-17.3,1.7-23.1c-4.2-8.8-15.7-12.1-24.9-14.9
		c-7.8-2.3-14-4.1-14.4-9.3c-0.1-1.2,0.2-3.1,1.9-4.9c7.4-7.9,41.2-7.8,47.7-7.7v3c-0.1,0-11.2-0.1-22.3,0.8
		c-19,1.6-22.2,5.5-23.3,8.3c0.8,2.5,4.8,3.9,8.5,5c9.8,2.9,24.5,8.1,28.3,15.1c3.9,7.1,6,15.7,1.5,26.9c-2.2,5.5-5.5,9.5-11,11.7
		c-22.9,8.9-68.9-13.8-115.9-36.4c-33.7-16.2-67.3-31.7-88.1-34.9c-2.2-0.3-4.5-0.7-6.9-1.1c-38-6-95.8-15.5-157.7,27
		c-16.9,11.8-25.7,27.7-26,43.2c-0.7,37.8,47.2,74.4,57,81.6c18.4,13.6,25.8,32.5,20.6,53.8c-2.6,10.8-20.8,15.3-28.9,16.9
		c-1,0.2-2.1,0.6-2.6,0.7c0,0-28.4,13.8-42.5,13.6c-9.6,1.7-24.2,16.6-28.9,34.1c-0.4,1.6-0.8,3.4-1.2,5.4l2.1-0.1
		c0.3-1.7,0.7-3.3,1-4.7c4.9-18.1,20.3-31.5,28.2-32.1c0,0,7.8-1,15.8-3.8C65.3,241.8,78.2,235.5,82,234.6"/>
</g>
</svg>
