<svg xmlns="http://www.w3.org/2000/svg" width="210" height="31" viewBox="0 0 210 31">
    <g fill="none" fill-rule="evenodd">
        <path fill="#FFF" d="M52.763 24.144c-1.852 1.55-3.768 2.236-6.196 2.236-4.918 0-8.527-3.368-8.527-7.959 0-4.74 3.545-8.108 8.56-8.108 2.395 0 4.375.775 6.451 2.504l-2.97 2.504c-.959-.894-2.013-1.341-3.29-1.341-2.428 0-4.248 1.848-4.248 4.322 0 2.563 1.852 4.411 4.408 4.411 1.15 0 1.98-.327 3.13-1.251l2.682 2.682z"/>
        <path fill="#FFF" fill-rule="nonzero" d="M71.384 18.48c0 4.412-3.865 7.9-8.815 7.9-5.079 0-8.72-3.339-8.72-8.018 0-4.77 3.578-8.049 8.816-8.049 5.046 0 8.719 3.428 8.719 8.168m-13.095-.12c0 2.594 1.725 4.352 4.312 4.352 2.555 0 4.312-1.788 4.312-4.292 0-2.712-1.63-4.411-4.28-4.411-2.587 0-4.344 1.728-4.344 4.352"/>
        <path fill="#FFF" d="M79.081 10.82v1.848c1.182-1.729 2.364-2.384 4.376-2.384 1.533 0 3.002.506 3.96 1.4 1.054.984 1.438 2.177 1.438 4.65v9.51h-4.408v-9.33c0-.835-.096-1.342-.383-1.76-.415-.625-1.246-1.013-2.108-1.013-1.693 0-2.843 1.193-2.843 2.951v9.121h-4.407V10.82h4.375zM97.862 25.873h-4.408V14.308h-1.789V10.82h1.789v-.834c0-4.024 2.108-5.902 6.548-5.783v3.785c-1.534.15-2.108.716-2.108 1.968v.834h2.108v3.518h-2.108v11.565h-.032z"/>
        <path fill="#FFF" fill-rule="nonzero" d="M107.667 6.588c0 1.251-1.054 2.235-2.427 2.235-1.438 0-2.46-.984-2.46-2.265 0-1.342 1.054-2.295 2.46-2.295 1.405-.03 2.427.953 2.427 2.325zm-.256 19.285h-4.407V10.82h4.407v15.053z"/>
        <path fill="#FFF" d="M116.418 21.432c0 .715.288.894 1.246.983h.766v3.428h-3.513c-2.172-.06-2.97-.864-2.906-2.861v-8.764h-1.853v-3.457h1.853V6.737h4.407v4.024h2.012v3.487h-2.012v7.184zM135.55 10.82v9.509c0 2.206-.48 3.428-1.82 4.471-1.278 1.013-3.099 1.55-5.207 1.55-2.236 0-4.152-.596-5.398-1.67-1.15-.983-1.692-2.414-1.692-4.381V10.82h4.407v9.24c0 1.7 1.086 2.832 2.683 2.832 1.63 0 2.62-.983 2.62-2.563V10.82h4.407zM144.046 10.82v2.206c.447-1.103.766-1.55 1.437-2.027.703-.447 1.629-.715 2.619-.715.096 0 .287 0 .51.03v4.232c-.35-.03-.702-.06-.925-.06-1.214 0-2.332.507-2.97 1.372-.512.685-.671 1.341-.671 2.772v7.243h-4.408V10.82h4.408z"/>
        <path fill="#FFF" fill-rule="nonzero" d="M163.497 10.82h4.407v15.023h-4.407v-2.086c-1.502 1.788-3.226 2.593-5.59 2.593-4.535 0-7.761-3.279-7.761-7.87 0-4.739 3.417-8.226 8.113-8.226 2.203 0 3.673.715 5.238 2.444V10.82zm-8.624 7.631c0 2.623 1.852 4.62 4.248 4.62 2.46 0 4.44-2.146 4.44-4.74 0-2.652-1.821-4.53-4.408-4.53-2.491-.03-4.28 1.908-4.28 4.65z"/>
        <path fill="#ED1D46" fill-rule="nonzero" d="M28.138 21.79v1.192c0 4.411-3.832 7.988-8.56 7.988H8.657c-4.727 0-8.56-3.577-8.56-7.988v-6.945c0-4.412 3.833-7.989 8.56-7.989h10.89c4.728 0 8.56 3.577 8.56 7.989v1.192h-6.483v-1.192c0-1.074-.926-1.938-2.076-1.938H8.656c-1.15 0-2.077.864-2.077 1.938v6.945c0 1.073.927 1.937 2.077 1.937h10.89c1.15 0 2.077-.864 2.077-1.937v-1.193h6.515zM23.795.208H4.44v5.246h19.355V.209z"/>
        <g fill="#FFF">
            <path d="M175.775 4.241l2.903.693-1.882 6.841-3.668-.934zM182.569 12.167V8.37l8.42-4.159V25.91h-4.337V10.088z"/>
            <path fill-rule="nonzero" d="M202.791 17.562c-.478.09-.701.12-1.02.12-3.7 0-6.507-2.742-6.507-6.359 0-3.978 3.253-7.022 7.464-7.022 4.146 0 7.208 2.924 7.208 6.902 0 1.959-.702 3.797-2.424 6.389l-5.55 8.318h-4.848l5.677-8.348zm-3.38-6.39c0 1.718 1.37 3.075 3.157 3.075 1.818 0 3.254-1.296 3.254-3.014 0-1.688-1.404-3.074-3.126-3.074-1.818-.03-3.286 1.326-3.286 3.014z"/>
        </g>
    </g>
</svg>
