<svg xmlns="http://www.w3.org/2000/svg" width="141" height="115" viewBox="0 0 141 115">
    <g fill="#FFF" fill-rule="evenodd">
        <path d="M140.7 75.959H50.58v-16.1h6.36v9.79h77.34V14.803H56.94v14.92h-6.36V8.551h90.12z"/>
        <path d="M45.78 114.705h-6.36v-68.94H51c4.38 0 6.78-1.416 7.62-4.719h-41.1c-7.44 0-10.74 1.946-10.74 13.328V73.6c0 3.597.9 7.844 5.16 7.844h2.82v6.25h-2.82C4.8 87.695.36 82.27.36 73.6V54.374c0-13.74 5.1-19.58 17.16-19.58h47.82v3.127c0 8.964-5.22 14.094-14.34 14.094h-5.16v62.69h-.06z"/>
        <path d="M25.5 76.313h6.36v38.392H25.5zM11.52 54.374h6.36v60.331h-6.36z"/>
        <path fill-rule="nonzero" d="M28.56 30.313c-8.46 0-15.42-6.782-15.42-15.157C13.14 6.782 20.04 0 28.56 0s15.42 6.782 15.42 15.156c0 8.375-6.96 15.157-15.42 15.157zm0-24.003c-4.98 0-9 3.952-9 8.846 0 4.895 4.02 8.847 9 8.847s9-3.952 9-8.847c0-4.894-4.02-8.846-9-8.846zM107 46.835v.932c0 3.437-2.88 6.233-6.42 6.233h-8.16C88.88 54 86 51.204 86 47.767V42.35c0-3.437 2.88-6.233 6.42-6.233h8.16c3.54 0 6.42 2.796 6.42 6.233v.932h-4.86v-.932c0-.816-.72-1.515-1.56-1.515h-8.16c-.84 0-1.56.699-1.56 1.515v5.417c0 .816.72 1.515 1.56 1.515h8.16c.84 0 1.56-.7 1.56-1.515v-.932H107zM103.76 30H89.24v4.078h14.52V30z"/>
    </g>
</svg>
