<svg xmlns="http://www.w3.org/2000/svg" width="38" height="46" viewBox="0 0 38 46">
    <g fill="#FFF" fill-rule="evenodd">
        <path fill-rule="nonzero" d="M18.98 0c2.116 0 6.586 2.673 7.464 8.908.08.527 1.837 13.12 1.517 20.328-.28 7.005-6.705 14.86-7.743 16.116-.24.405-.679.648-1.158.648h-.04a1.44 1.44 0 0 1-1.197-.688c-1.198-1.418-7.464-9.111-7.783-16.036-.32-7.167 1.397-19.76 1.476-20.327C12.395 2.713 16.865 0 18.98 0zm.04 42.396c1.956-2.51 5.988-8.3 6.187-13.282.28-6.924-1.477-19.68-1.517-19.8-.678-4.82-3.991-6.52-4.75-6.52-.798 0-4.07 1.7-4.75 6.52 0 .12-1.756 12.876-1.436 19.8.28 4.981 4.35 10.772 6.266 13.282z"/>
        <path d="M3.288 1l2.694 1.014-2.82 6.776L12 15.85 10.148 18 .51 10.291C.047 9.926-.12 9.277.09 8.71L3.288 1z"/>
        <path d="M13.506 6.056L11.93 8.391 7.216 5.313l1.576-2.335zM34.639 1l3.245 7.69a1.28 1.28 0 0 1-.422 1.579L27.854 18 26 15.855l8.808-7.084-2.824-6.76L34.64 1z"/>
        <path d="M30.796 5.26l-4.703 3.096-1.585-2.33 4.703-3.095zM20.49 30.397l-2.85.006-.006-3.088 2.85-.005z"/>
    </g>
</svg>
