<svg xmlns="http://www.w3.org/2000/svg" height="142.00508" width="555.53552"><defs><clipPath id="a"><path d="M0 171.739h481.889V0H0z"/></clipPath></defs><g clip-path="url(#a)" transform="matrix(1.33333 0 0 -1.33333 -43.490908 185.63839)" fill="#1574c4"><path d="M70.5903 66.8311l-9.087.005 45.84 48.299.035-39.755h16.103c.98 3.366 1.516 6.921 1.516 10.6 0 21.13-17.322 38.249-38.692 38.249-21.368 0-38.687-17.119-38.687-38.249 0-21.134 17.319-38.255 38.687-38.255 3.462 0 6.816.456 10.009 1.299v17.807z" fill-rule="evenodd"/><path d="M96.314 75.3799v14.906l-13.989-14.906zm11.0644-21.4785c5.098 3.28 9.361 7.713 12.419 12.93h-12.419z" fill-rule="evenodd"/><path d="M148.7534 107.2471v-42.534h10.3v16.466h22.32v8.505h-22.32v9.055h25.331v8.508zM189.043 64.713h10.294v42.534h-10.294zm17.9682 42.5341v-42.534h10.157v27.036l22.662-27.036h8.755v42.534h-10.163v-26.19l-21.919 26.19z"/><path d="M282.6548 82.5137h-12.429l6.216 13.793zm-10.827 25.037l-20.052-42.838h10.492l4.277 9.539h19.789l4.276-9.539h10.764l-20.056 42.838z" fill-rule="evenodd"/><path d="M304.561 107.2471v-42.534h10.159v27.036l22.666-27.036h8.753v42.534h-10.156v-26.19l-21.928 26.19zm70.7032-43.2676c2.272 0 4.344.181 6.151.549 1.809.303 3.542.85 5.08 1.519 1.534.668 2.939 1.459 4.212 2.369 1.271.915 2.541 2.007 3.744 3.157l-6.554 6.018c-1.801-1.519-3.673-2.734-5.545-3.647-1.805-.909-4.076-1.335-6.753-1.335-2.006 0-3.877.364-5.55 1.099-1.671.666-3.076 1.636-4.277 2.849-1.139 1.216-2.073 2.611-2.743 4.253-.663 1.644-.998 3.348-.998 5.168v.122c0 1.821.335 3.527.998 5.165.67 1.579 1.604 2.978 2.814 4.192 1.199 1.217 2.668 2.19 4.34 2.86 1.675.666 3.478 1.029 5.416 1.029 2.338 0 4.481-.427 6.417-1.276 1.872-.85 3.744-2.004 5.552-3.523l6.544 6.868c-1.065.973-2.205 1.882-3.475 2.67-1.269.787-2.608 1.524-4.075 2.066-1.473.552-3.142 1.037-4.943 1.341-1.806.302-3.746.483-5.957.483-3.606 0-6.882-.603-9.89-1.761-3.006-1.154-5.544-2.734-7.686-4.742-2.142-2.003-3.815-4.313-5.011-6.986-1.205-2.615-1.805-5.466-1.805-8.508v-.119c0-3.038.6-5.901 1.805-8.57 1.196-2.673 2.869-4.982 5.011-6.988 2.142-1.944 4.68-3.461 7.616-4.617 2.944-1.156 6.156-1.705 9.562-1.705m58.6757 34.9399v.004h.331v8.324h-35.627v-42.535h35.627v8.323h-.331v.005h-25.068v8.926h22.061v8.326h-22.061v8.627z"/></g></svg>
