<svg xmlns="http://www.w3.org/2000/svg" height="352" width="397.33">
    <defs>
        <clipPath id="a">
            <path d="M0 264h298V0H0z"/>
        </clipPath>
    </defs>
    <g clip-path="url(#a)" transform="matrix(1.33333 0 0 -1.33333 0 352)">
        <path d="M232.1 72.8C202.32 20.25 136.76-2.02 81.23 22.27 29.45 44.9 1.83 103.1 14.49 157.66c11.5 49.55 55.9 86.12 106.23 89.88 50.89 3.81 99.22-27.17 118.02-74.34 1.24-3.1 6.32-1.76 5.07 1.4a124.6 124.6 0 0 1-121.36 78.3c-52.55-2.44-98.22-40.2-112.18-90.54-14.22-51.29 7.7-106.31 51.62-135.5 46.3-30.8 109.03-24.54 150 12.12 9.93 8.88 18.19 19.61 24.74 31.18 1.67 2.95-2.87 5.6-4.53 2.65" fill="#151b37"/>
        <path d="M69.21 73.32l67.4 79.88H44v19.34h110.61c7.77 0 11.87-4.55 11.87-10.26 0-3.37-1.46-7.03-4.39-10.55l-64.33-78.4zM271.38 172.53v-70.35l-73.85 68.9c-2.2 2.2-5.42 3.65-10.4 3.65-7.03 0-11.86-2.92-11.86-9.22V73.32h20.65v70.35l73.85-68.89c2.2-2.2 5.42-3.66 10.4-3.66 7.03 0 11.86 2.93 11.86 9.23v92.18z" fill="#151b37"/>
    </g>
</svg>
