<svg xmlns="http://www.w3.org/2000/svg" height="153.38" width="266.78"><defs><clipPath id="a"><path d="M99.2 99.22h85.05v85.03H99.2V99.22"/></clipPath><radialGradient id="b" spreadMethod="pad" gradientTransform="matrix(42.52 0 0 -42.52 141.73 141.73)" gradientUnits="userSpaceOnUse" r="1" cy="0" cx="0" fy="0" fx="0"><stop offset="0" stop-color="#efc957"/><stop offset="1" stop-color="#ebb81e"/></radialGradient><clipPath id="c"><path d="M183.12 99.22h-22.24c-1 .07-2 .15-2.96.26-1.25.13-2.45.09-3.6.3-1.28.24-4.17 1.15-4.17 1.15s1.8-.07 4.25-.32c1-.1 2.2-.44 3.61-.54a199.48 199.48 0 0 1 17.24-.44c2.76.24 6.24.32 9 .34v-.65c-.38-.04-.76-.08-1.13-.1m-29.87 0h-2.07l-.65.21s1.12-.06 2.72-.21m-6.7 0h-3.58c.12 1.68.15 4.37-.69 5.9l-1.3-1.35s.7-1.72.7-4.55h-.83a14.2 14.2 0 0 1-.73 3.6l-1.1-1.04s.42-1 .65-2.56h-1.31c-.16.5-.32 1-.53 1.45l-1.11-1s.12-.16.29-.45h-2.51l.12.12c.16 1.3.39 3.87.03 6.12l-1.06-1.11c.05-.9.13-3.05-.13-5.13h-.51c.06 1.24.05 2.8-.2 4.24l-1.17-1.25c.02-.6.04-1.7-.02-3h-.6c-.01.72-.04 1.47-.1 2.22l-1.19-1.26.06-.95h-.92l-.01.01-.01-.01h-3.54c.52.62.98 1.07.98 1.07a5.97 5.97 0 0 0-1.78-.28c-1.2 0-2 .36-2 .36a4.64 4.64 0 0 1 1.3-.02c.5 1.2.47 2.25.41 2.74l-2.2-2.22c.57.87 1.21 1.76 1.9 2.67l.68.9 1.08 1.34.47.56c-.11.02-.23.03-.36.03-.95 0-2.14-.54-2.75-.86-.1-.18-.2-.37-.28-.57a8.08 8.08 0 0 1-.85-3.15s-.62 1.7 1.12 5.18c-1.82-.81-2.91-.94-3.84-1.07a4.2 4.2 0 0 0-.57-.04c-1.75 0-2.98 1.17-1.8 3.12l.06.1-.02-.07c-.2-.69-.2-1.19-.03-1.57.55.66 2.34 2.53 2.52 2.72l.02.02.73.7 1.17 1.12c-.16.05-.34.07-.53.07a5.8 5.8 0 0 1-2.25-.65 23.3 23.3 0 0 1-1.41-1.84c.21.64.47 1.2.74 1.7l.08.13c.27.47.55.88.83 1.23-.76-.35-1.4-.6-1.87-.72l-.66-.15c.17.17.43.46.72.82l.41.57.02.02.05.1a9.58 9.58 0 0 1 1.58 4.88l-1.43-1c-.18-2-1.13-3.6-1.73-4.43l-.01-.01-.04-.05-.47-.57c-.2-.23-.38-.4-.5-.5l-.38-.01c-2.23 0-3.58 1.08-2.13 3.54l-.06-.42a2.7 2.7 0 0 1 .06-1.31 27.8 27.8 0 0 0 3.66 3.37l1.04.83.57.45c-.13.02-.28.03-.43.03-1.14 0-2.54-.48-3.24-.75-.6-.55-.93-.9-.93-.9.15.25.31.48.5.72h-.02l.02.01.45.59a22.03 22.03 0 0 0 2.58 2.65c.68.6 1.29 1.08 1.77 1.44l-.28-.07a19.2 19.2 0 0 0-5.16-.78c-.74 0-1.48.06-2.22.19.15.11.55.41.84.65l.12.1.05.04c.84.7 2.46 2.23 3.42 4.14l-1.5-.6a8.96 8.96 0 0 0-3.09-3.35v-.01c-.53-.36-.9-.56-1.06-.63-1.8.77-1.03 2.25-.31 2.96 0 0-.11-.26-.14-.6.52.4 1.45.91 2.61 1.49l1.11.53 1.55.71c-.26.07-.54.1-.83.1-.8 0-1.67-.2-2.12-.33a10.6 10.6 0 0 1-.92-.63l-.34-.28.22.25c.23.24.68.67 1.4 1.22l.67.5c.44.3.95.64 1.56 1-.39-.04-.8-.06-1.23-.08a7.14 7.14 0 0 1 1.9 3.2l-.38-.02c-1.53-2.54-3.27-3.27-3.27-3.27a34.42 34.42 0 0 0-2.62 0c1.18 1.99 1.3 2.64 1.07 2.65-.31 0-1.21-1.8-2.88-2.42-5.56.6-2.16 2.32-2.16 2.32h-.37c-1.01 0-3.7.13-3.93 1.52-.24 1.43 1.7 2.59 1.7 2.59-1.03-1.15-2.03-2.68-.07-3.04.38-.08.79-.12 1.22-.16 1.41.81 2.38 1.79 2.9 2.4-2.34-.64-4.33-1.2-4.96-1.35 0 0 1.07.54 3.47 1.37l.83.3a75.46 75.46 0 0 0 2.57.81 24.52 24.52 0 0 1-4.3.15l.87.28 2.13.71c-.87.07-1.53.15-1.98.21-1.47.1-3.18.3-4.95.63l-.13.03v.63l.18-.06a9.25 9.25 0 0 1 2.62 2.52l-1.6-.27c-.1 0-.19-.02-.29-.03a21.5 21.5 0 0 0-.91-.78v2.88l.67-.01a8.95 8.95 0 0 1 3 3.48l-1.61-.25c-.32-.5-1.01-1.49-2.06-2.4v.57c.38.45.77 1 1.1 1.67l-1.1-.18v1.64l.04.03c.42.29 1.04.83 1.35 1.75l-.7-.07a3.6 3.6 0 0 0-.7-1.07v1.64l2.01.22c.95.87 3.03 2.97 4.35 5.73-.61-.07-1.25-.16-1.93-.26-.56-1-2.13-3.47-4.42-5.28v.82a16.57 16.57 0 0 1 3 4.22 93.4 93.4 0 0 1-2.05-.37 20.8 20.8 0 0 0-.95-1.5v1.9h.06a131.87 131.87 0 0 0 8.95 1.42c-.77.05-1.56.07-2.35.07-2.14 0-4.25-.15-5.84-.3l-.82-.07v.24l1.64.22c1.95 1.17 2.9 4.54 2.94 4.68l.04.14-1.57-.18-.03-.1c-.93-2.82-2.75-4.36-2.77-4.38l-.25-.21v1.09c1.17 1.55 1.48 3.16 1.5 3.25l.03.13-1.53-.24v.75c.7.17 1.4.33 2.1.46-.66.37-1.4.68-2.1.93v.8c2.17-.37 3.48-.99 4.15-1.4.77.1 1.53.19 2.3.25-1.68.97-3.8 1.28-5.85 1.28l-.6-.01v1.41c.78.74 1.8 1.94 2.57 3.65l-.89-.2a9.52 9.52 0 0 0-1.68-2.6v4.79a19.26 19.26 0 0 1 6.9 5.2l.05.07.12.17-2.6-.21-.03-.05a26.3 26.3 0 0 0-4.44-4.17v.93a15.04 15.04 0 0 1 3.26 3.06l.12.17.04.06-.84-.1-1.82-.21c-.25-.3-.5-.6-.76-.88v3.47l.7-.15c1.53.44 4.33 1.84 5.55 3.32-.67.1-1.32.19-1.92.26a16.64 16.64 0 0 0-4.33-2.5v1.03a8.92 8.92 0 0 1 2.48 1.67c-1.1.1-1.96.17-2.48.2v2.6h2.37a12 12 0 0 0-2.24-.65l2.8-.6c.73.3 1.61.73 2.45 1.25h1.47a14.47 14.47 0 0 0-3.13-1.4c.75-.16 1.52-.3 2.32-.46l.27-.06c.97.46 2.12 1.1 3.07 1.92h1.5c-.74-.59-2-1.46-3.7-2.1.73-.15 1.45-.3 2.14-.47 1.29.5 3.07 1.34 4.28 2.57h5.22c.09-.14.14-.25.18-.33.57-.21 1.14-.44 1.71-.68-.13.41-.32.74-.52 1h1.1c.49-.56.76-1.26.87-1.64.44-.2.88-.4 1.3-.63a6.67 6.67 0 0 1-1.04 2.28h5.63a27.94 27.94 0 0 0 3.46-2.73l.12.15c.2.5.46 1.55-.41 2.58h4.13c-3.78-3.63-3.17-7-3.17-7-4.46-.98-3.7-4.51-3.7-4.51-6.2-7.09-3-8.72-3-8.72-3.92-4.36-3.7-8.18-2.44-11.39 2.08-5.36 6.75-6.15 6.75-6.15-2.07 1.69-3.32 4.41-3.71 7.4a8.06 8.06 0 0 0 1.96 6.6c2.02 2.5 4.42 3 5.18 3.64.76.66.98 1.3.38 2.24-.2.3-.45.4-.7.4-.5 0-.99-.4-.99-.4a4.3 4.3 0 0 0 1.58 1.36c2-3.54 4.43-4.2 5.95-4.2.88 0 1.46.23 1.46.23-1.2.82-2.01 2.01-2.01 2.01 1.03-.7 2.28-.7 2.28-.7-2.18 1.03-3.76 4.56-3.76 4.56-.43-1.2 1.14-3.53 1.14-3.53-1.73 1.03-2.45 3.16-2.45 3.16-.43-1.2.77-2.72.77-2.72-3.6 2.72-.66 4.84.49 5.6 1.14.77 1.69 2.02 1.69 2.02-.27-2.02.21-3.87 3.59-6.64a8.63 8.63 0 0 1 5.6-2c2.57 0 4.53 1.02 4.53 1.02-1.2-.27-2.24-.38-3.12-.38-5.29 0-5.21 4.08-5.21 4.08.43-.88 1.85-1.52 1.85-1.52-1.64 1.9-.82 5.22-.82 5.22-1.25-.7-1.3-2.67-1.3-2.67s-1.37 2.07 1.8 4.74a12.34 12.34 0 0 1 3.86 6.48c0-3.92-2.84-6.8-2.84-6.8 1.75.65 3 2.99 3 2.99-.8-3.54-3.43-3.38-3.8-5.4-.72-2.66 1.03-4.62 1.03-4.62-.39 1.52.38 3.97.38 3.97-.06-1.47.87-2.34.87-2.34-.71 1.75.1 3.27 1.9 4.8 1.4 1.18 2.73 6.72 3.25 9.17h.16c-.45-4.9-2.04-8.54-2.7-9.45-.7-.97-.7-2.07-.7-2.07 2.82.6 3.32 5.83 3.32 5.83a4.54 4.54 0 0 1 4.67-3.56c1.14 0 2.03.3 2.03.3-2.18.43-3.49 2.72-3.49 2.72a6.39 6.39 0 0 1 4.26-1.74c1.68 0 2.83.76 2.83.76-2.24.43-4.52 2.72-4.52 2.72-1.37-.6-.28-1.96-.28-1.96-2.87 1.23-3.7 4.57-3.93 6.45h.44c1.43-2.46 4.63-2.7 5.85-2.7h.47c.27-2.67 2.67-3.97 4.47-4.13l.4-.02c1.54 0 2.44.84 3.9.94l.27.01c.68 0 1.24-.2 1.84-.41a6.46 6.46 0 0 1 2.3-.41c1.96.05 1.96.92-.1 1.53a6.64 6.64 0 0 0-3.18 2.07c.64-.76 3.6-1.84 5.3-2.02a7.78 7.78 0 0 1 7.69 3.58l.12.2v-2.33c-1.6-2.06-4.33-3.92-8.9-4.02 0 0-5.6-2.86-11.3-3.28-1.39.05-2.43.48-3.9.48h-.25c-1.63-.05-2.7-.75-4.6-.96l-.28-.01c-1.67 0-2.82 1.49-2.82 1.49-.23-1.58 2.11-2.41 2.11-2.41l-.2-.01a5.65 5.65 0 0 0-2.84 1.06c.6-1.8 3.16-2.24 3.16-2.24a5.63 5.63 0 0 0-.63-.04c-2.37 0-3.34 1.62-3.34 1.62.2-1.56 1.74-2.68 3.46-2.68 1.09 0 2.25.46 3.18 1.54.8.93 2.67 1.61 4.37 1.66a8 8 0 0 1-4.95-4.88c-.72-1.96-2.08-3.51-4.48-4.99l-.56-.33c-.63-.36-1.33-.72-2.1-1.08.71-.1 1.49-.24 2.32-.42 0 0-1.52-.12-3.54-.35.02-.22.04-.62-.15-.99l2.78-.37s-1.58-.15-3.7-.4c-.44-.22-.98-.44-1.42-.68l3.98-.54s-2.11-.11-4.8-.36c0-.09.01-.18.05-.27.15-.35.22-.55.22-.74.97-.14 2.1-.3 3.48-.48 0 0-1.52-.06-3.64-.22-.08-.21-.17-.5-.28-.9l-.04-.18c.93-.14 2.1-.32 3.62-.57l-3.82-.17c-.08-.3-.18-.59-.31-.87.98-.15 2.15-.4 3.6-.65l-4.15-.18c-.2-.24-.44-.5-.72-.79.82-.17 1.81-.4 3.11-.63l-3.64-.35c-.07-.19-.13-.4-.18-.64.85-.2 1.82-.52 3.02-.77 0 0-1.15-.14-3.1-.23 0-.2.01-.41.05-.63.8-.24 1.77-.56 3.05-.89l-2.78-.1a5 5 0 0 1 .4-.79c.79-.22 1.74-.51 3-.8l-2.38-.08c.25-.3.5-.58.76-.85.64-.18 1.38-.36 2.27-.56 0 0-.7-.01-1.73-.05.9-1.05 1.5-2.21.7-4.23 0 0 .3 2.39-2.13 4.39-2.45 2-1.98 5.45-1.98 5.45a5.45 5.45 0 0 1-.92-4.58s-1.03 2.07-.7 3.76c.1.52.05.72-.07.72-.26 0-.88-.99-1.03-1.6-.2-.84-.1-2.34.55-3.75 0 0-.7.51-1.32.51-.68 0-1.27-.63-.7-3.29 0 0-1.69 2.06-2.78 2.18 0 0 .88-2.56.93-3.65.05-1.1.32-2.5.71-3.1 0 0-1.3 1.24-1.96 3.37 0 0 .08-1.22-1.12-2.16-.69-.55-1.46-2.24-1.46-2.24s0 1.72 1.11 3.1c1.07 1.3.66 3.13.61 3.32.03-.12.15-.93-1.03-2.04-1.29-1.2-2.5-4.12-2.5-4.12.1 1.98 1.38 3.69 2.07 5.5.7 1.8.41 4.03.41 4.03s-.37-.05-.98-.05c-.48 0-1.1.03-1.79.14.7-.6 1.97-2.08.73-4.3a25.65 25.65 0 0 1-2.32-6.32c-.06-.3-.11-.65-.08-.92l.01-.05.02-.08c.17-.46.63-.65 1.17-.65.76 0 1.68.37 2.15.9.88.98 2.84 1.64 2.84 1.64-4.82-3.86-2.5-8.13.17-8.13h.15c2.73.17 2.4 3.27 2.4 3.27 1.74-1.84-.33-4.24-.33-4.24 3.57 2.1.54 6.7.54 6.7s1.47-.41 2.27-2.84c.22 2.89-2.48 5.68-2.48 5.68.9-.61 2.83-.92 3.7-.92.44 0 .6.07.26.23-1.9.88-2.85 4.73-2.85 4.73a8.47 8.47 0 0 1 4.61-4.15c-.44-7.63.82-19.29.82-19.29s-.34 1.66-3.22 2.34c-2.93.7-1.96 2.48-1.96 2.48-.11 0-.94-.05-1.22-1.55-.2-1.42.94-1.87 3.48-2.58 2.58-.7 3.48-3.4 3.48-3.4s-1.03 2.12-4.13 2.63c-2 .33-2.69 1.22-2.88 2 .15-2.2 1.85-2.96 3.56-3.28a6.4 6.4 0 0 0 3.99-3.82c.78-2.67 1.4-5.5 1.4-5.5.38-1.77.94-6.92.94-6.92v-.08m-10.08 8.13l-.95-.98c.04-.93.1-3.98-.41-6.58l1.22 1.16c.14.95.49 3.85.14 6.4m-10.87-2.82l-.85-.86a5.73 5.73 0 0 0-.58-3.27c.4.07.82.17 1.23.28.46 1.58.33 3.06.2 3.85m1.62 1.62l-.98-.98c.35-1.7-.2-3.57-.5-4.38.39.13.76.26 1.12.4.58 1.89.48 3.9.36 4.96m10.97 2.98l-.89-.9c.04-1.28.04-4.4-.55-6.88l1.31 1.24c.13.92.51 3.93.13 6.54m-9.54-1.55l-.82-.83a11.2 11.2 0 0 0-.56-5.38l1.24.58a13.51 13.51 0 0 1 .14 5.63m1.6 1.58l-.98-.98a14.28 14.28 0 0 0-.08-4.56l-.07-.43-.02-.08-.21-.97.14.08.17.13.81.54c.68 2.36.44 4.97.25 6.27m9.55 1.64l-.77-.78c.04-1.21.05-4.47-.56-7.03l1.07 1.01s1 3.1.26 6.8m-8.02-.13l-.97-.95c.7-3.25-.4-6.53-.4-6.53l-.14-.12 1.34.89c.67 2.6.37 5.4.17 6.71m1.4 1.37l-.8-.77c.71-3.04-.07-6.14-.32-7l1.23 1.08c.65 3.17.21 5.53-.12 6.7m-9.9-6.1l-.06-.02-.03-.04.08.07m11.6 7.7l-1-.96c.7-2.93.3-5.63.1-6.62l1 1.07c.52 2.85.22 5.14-.1 6.5m-7.99-5.4c-.92 0-2.04-.51-2.66-.83l-.16-.22c-.18-.23-.35-.49-.53-.76a5.14 5.14 0 0 0 3.5 1.03l.56.65h-.02c-.2.09-.44.12-.69.12m-7.59 1.29c-.98-.85-1.83-1.6-2.49-2.15.3-.59.98-.83 1.82-.85.67 1.05.71 2.37.67 3m1.6 1.4l-1.06-.94a5.35 5.35 0 0 0-.9-3.45c.38.01.79.06 1.18.14.81 1.53.84 3.35.79 4.25m1.76 1.53l-1.22-1.07c.1-2.66-.6-4.06-1.02-4.65.49.12.96.26 1.38.41.9 1.93.91 4.24.86 5.31m1.85 1.62l-1.26-1.1c.11-2.9-.65-4.88-1.02-5.65l1.04.48c.58 1.2.9 2.61 1.06 3.86.12.95.17 1.8.18 2.41m1.89 1.65l-1.28-1.11a15.6 15.6 0 0 0-1.46-6.6c.39.18.78.39 1.2.61 1.27 2.27 1.5 5.5 1.54 7.1m1.94 1.7l-1.31-1.15a15.25 15.25 0 0 0-1.76-7.42l1.5.87c1.3 2.54 1.54 6.02 1.57 7.7m9.19-2.35a17.9 17.9 0 0 0-.12-5.4l1.58 1.5c.14 1.06-.02 2.63-.1 3.24-.44.24-.92.45-1.36.66m-7.39 3.93l-1.12-.97c.02-4.01-1.27-6.97-1.8-8.03l1.35.84c1.45 2.8 1.58 6.74 1.57 8.16m1.45 1.26l-.77-.67a16.57 16.57 0 0 0-1.74-8.42l1.51 1.01c1.45 3.2 1.12 7.06 1 8.08m-14.77-3.6l-1.22-.87a5.99 5.99 0 0 0-1.75-3.38h.18c.36 0 .78.04 1.26.14a10.3 10.3 0 0 1 1.53 4.12m5.73-2.72c-.73 0-1.59-.3-2.25-.6l-.72-.69-.25-.25a5.57 5.57 0 0 0 2.95.6l.07.07.81.78c-.18.06-.39.09-.6.09m-7.6 1.38c-.9-.64-1.81-1.31-2.71-1.98.2-.5.62-.81 1.28-.91a6.65 6.65 0 0 1 1.43 2.9m5.97 4.22c-.45-.31-.92-.63-1.38-.97a9.68 9.68 0 0 0-1.8-5.26c.45.17.9.37 1.4.58a11.75 11.75 0 0 1 1.78 5.65m2.28 1.59l-1.5-1.05a11.9 11.9 0 0 0-1.88-5.86c.4.19.81.4 1.25.6 1.8 2.58 2.1 5.18 2.13 6.3m11.53.18c.16-3.29-.55-5.45-1.04-6.5.55.58 1.06 1.1 1.5 1.58l.12.53c.14 2.63-.15 3.83-.58 4.39m-9.5 1.21c-.4-.27-.82-.54-1.26-.86a11.75 11.75 0 0 0-2.22-6.46c.6.3 1.18.63 1.75.95a12.43 12.43 0 0 1 1.72 6.37m1.98 1.35l-1.26-.86c-.04-3.2-1.21-5.5-1.85-6.52l1.48.89c1.5 2.35 1.65 5.25 1.63 6.49m1.05.7l-.25-.16c.06-3.22-1.15-5.6-1.8-6.64.65.4 1.27.81 1.88 1.22.76 2 .89 4.01.87 5.24-.25.1-.49.21-.7.34m-8.67-4.32c-1.02 0-2.24-.33-3.05-.6-.5-.4-.95-.78-1.36-1.13l-.02-.02a7.57 7.57 0 0 0 4 .8l.04.03 1.13.85c-.23.05-.48.07-.74.07m10.25 3.74a12.51 12.51 0 0 0-.97-4.46l1.7 1.21a11 11 0 0 1 .46 3.13c-.44 0-.83.06-1.19.12m-8.01-1.88a8.5 8.5 0 0 1-2.5-.38c-.31-.21-.61-.42-.9-.64l-.36-.26a8.37 8.37 0 0 0 3.88.53l.95.68a8.7 8.7 0 0 1-1.07.07m11 1.89c-.3-.05-.61-.09-.93-.12a10.2 10.2 0 0 0-.56-2.55c.48.37.95.73 1.38 1.08a5.44 5.44 0 0 0 .1 1.6m-15.34 3.08l-1.8-.71c-.32-.8-1.35-2.92-3.71-4.51a13.98 13.98 0 0 1 1.44-.04c.93.81 2.96 2.78 4.07 5.26m2.5 1l-1.73-.69a14.62 14.62 0 0 0-4.4-5.55c.64.04 1.29.1 1.9.2.88.82 3.1 3.12 4.24 6.05m2.42.97l-1.72-.7a15.15 15.15 0 0 0-4.52-6.26c.68.12 1.3.26 1.86.42l.1.04c.6.6 3.06 3.15 4.28 6.5m-9.87-3.95l-3.68-1.47c.01-.46.21-1 .92-1.31.08-.04.2-.07.29-.1.7.58 1.76 1.6 2.47 2.88m12.3 4.92l-1.64-.66c-.32-.9-1.67-4.25-4.5-6.63l2.23.82c.88.98 2.87 3.44 3.9 6.47m.68-6.17c-.16 0-.46 0-.86-.04a10.43 10.43 0 0 1-2.54-.5l-.44-.18c-.22-.09-.43-.2-.64-.32a15.47 15.47 0 0 0 2.26.25c.36 0 .68-.03.9-.12l.1.05.27.18 1.07.68h-.12m-.07 6.29a14.85 14.85 0 0 0-3.8-6.32c.62.22 1.25.48 1.87.7.48.6 1.28 1.74 2.12 3.51-.18.76-.2 1.52-.19 2.1m.44-2.86c-.38-.78-.9-1.65-1.65-2.46 1.05.4 2 .78 2.6 1.02l-.56.72c-.15.23-.28.46-.39.72m1.48 6.12h-.01c-.27-.45-3.58-6.38 3.06-7.32 0 0-1.47 1.03-1.14 2.66 0 0 .58-1.3 2.52-1.3.2 0 .4.02.64.05 0 0-3.37 1.42-1.66 5.67 0 0-1.9-1.42-1.56-3.76 0 0-2.1.87-1.85 4m-10.3-1.46l-1.43-.28c-.47-1.68-1.46-2.85-1.6-3.02l-.04-.03.2.03.54.1.17.04.16.03.23.03.08.1.1.08c.2.2.38.4.53.62a7.5 7.5 0 0 1 1.06 2.3m2.25.46l-1.28-.26a8.12 8.12 0 0 0-.96-2.34l-.25-.4-.05-.07v-.01l-.04-.05-.07-.1-.05-.06.07.02.57.1.24.04.27.05.1.1.16.19.07.09.03.02.1.15.07.1.02.03.02.03a6.86 6.86 0 0 1 .98 2.37m2.45-2.42c.13-.02.23-.06.33-.1l.02.01a2 2 0 0 1-.35.1m.07 3.03v-.01l-1.6-.42c-.06-.42-.19-.8-.34-1.14-.14-.33-.3-.62-.43-.83l-.07-.1v-.01l-.02-.03-.08-.1-.04-.06v-.02l-.1-.1c.22.05.4.13.58.2l.09.05.23.11.14.07.3.2.06.04.16.1.06.07.25.22.1.11.04.04.16.21.12.17.13.25c.24.48.26.87.26.96v.02m-12.88 2l-1.95-.54c-1.42-1.65-3.88-2.7-3.88-2.7l-.3-.08c.48-.04 1-.06 1.53-.06.6 0 1.2.03 1.82.06l-.29.01a11.7 11.7 0 0 1 3.07 3.3m2.69.75l-1.47-.4c-1.32-2.07-3.94-3.64-3.98-3.66.83.05 1.67.12 2.48.21a15.15 15.15 0 0 1 2.97 3.85m2.8.63l-.73-.04-.79-.23c-1-1.9-2.77-3.43-3.7-4.15.75.08 1.48.17 2.16.26a13.72 13.72 0 0 1 3.06 4.16m2.62.22c-.52-.06-1.02-.1-1.5-.14a14.12 14.12 0 0 0-3.7-4.17l1.58.2.66.08a13.63 13.63 0 0 1 2.96 4.03m2.5.29l-1.37-.17a14.14 14.14 0 0 0-3.61-4.1l2.44.38a14.38 14.38 0 0 1 2.54 3.89m.9-.08a13.4 13.4 0 0 0-2.9-3.71c.78.12 1.55.28 2.3.43a14.3 14.3 0 0 1 1.85 3.02c-.38.02-.8.1-1.25.26m6.84.63a2.82 2.82 0 0 0-1.68-1.08c-.33-.09-.57-.1-.57-.1a6.26 6.26 0 0 0-1.03-2.1c-.3-.41-.55-.68-.55-.68l.49.06.28.03 1 .1c1.2.68 1.74 2.3 1.95 3.18.08.36.11.6.11.6m-8.72 7.37s-1.26-2.8.67-6.06c1.16-1.97 3.8-2.07 3.8-2.07s-.16-.06-.44-.1a12.4 12.4 0 0 0-2.26-2.96c.65.14 1.28.3 1.84.45a5.56 5.56 0 0 1 1.27 2.65l-.03.01.03.01.01.05h.15c.9.32 4.53 1.99 1.5 7.4 0 0 .47-.35 1.12-.52.49-.86 1.42-3 .34-5.13a5.34 5.34 0 0 0-.93-1.3s.23.07.57.26c.26.15.58.38.89.73.44.48.84 1.2 1 2.2.16.95.11 2.14-.33 3.7l1.04 1.56a9.28 9.28 0 0 0-5.34 3.16c.03-.84.18-2.45.94-3.7 0 0-1.3 2.05-2.96 2.05-.47 0-.97-.17-1.47-.59-1.4-1.15-.2-5.74.02-6.22 0 0-1.8 2.03-1.43 4.42m-4.94-2.68l-1.55-.24c-1.86-2.98-5.39-4.97-5.89-5.24l.65-.06c.58 0 1.16.02 1.73.03a15.4 15.4 0 0 1 5.06 5.51m2.91.46l-1.73-.27c-1.56-3-4.89-5.16-5.72-5.68.83.04 1.64.08 2.42.15a15.74 15.74 0 0 1 5.03 5.8m-5.73-.9l-1.91-.3c-1.76-2.45-4.72-4.08-5.34-4.4.8-.12 1.58-.22 2.28-.3a16.36 16.36 0 0 1 4.97 5m6.63.65c-1.56-2.88-4.4-4.88-5.36-5.5.9.07 1.74.16 2.52.26a7.92 7.92 0 0 1 3.05 3.46c-.13.57-.2 1.18-.21 1.78m-9.75-1.14l-.14-.02-.03-.01-1.48-.23a15.14 15.14 0 0 0-4.42-3.63c.53-.1 1.06-.2 1.6-.27 2.43 1.6 3.79 3.17 4.47 4.16m10.26-1.66a8.54 8.54 0 0 0-2.69-2.35c1.74.23 3.05.46 3.75.6-.15.16-.3.33-.44.53-.25.37-.46.78-.62 1.22m-13.04 1.22l-1.89-.3a13.08 13.08 0 0 0-3.3-2.76 49 49 0 0 1 1.53-.33 12.91 12.91 0 0 1 3.66 3.39m.48 5.2l-1.63-.25a10.59 10.59 0 0 0-3.52-3.61h.25l2.12.14c.67.57 1.96 1.84 2.78 3.72m2.53.37l-1.58-.23c-.37-.63-1.69-2.73-3.35-3.84l2.07.13c.79.72 2.03 2.05 2.86 3.94m2.6.37l-1.64-.24a12.03 12.03 0 0 0-3.46-4.04l1.98.14c.83.69 2.25 2.1 3.12 4.14m2.63.36l-1.6-.22a14.18 14.18 0 0 0-3.69-4.26l1.87.13c.7.56 2.4 2.04 3.44 4.35h-.02m2.75.27l-1.2-.1-.47-.06c-.4-.65-1.98-3.04-4.07-4.43l2.32.15c.57.44 2.31 1.94 3.42 4.44m2.67.24l-1.64-.15a13.3 13.3 0 0 0-3.92-4.5l2.13.15c.7.57 2.38 2.14 3.43 4.5m-.82-2.6a14.1 14.1 0 0 0-2.03-1.87l1.74.12c.03.61.13 1.2.3 1.75m12.47 10.5s-3.6-4.85 1.41-9.1c0 0-2.6 3.7-1.41 9.1m-27.75-6.86l-.85-.07c-.01-.02-.43-1.25-1.82-2.1l.86.08a3.4 3.4 0 0 1 1.81 2.1m1.81.15l-.82-.09c-.09-.18-.37-1.27-1.82-2.14l.92.12c.57.31 1.3.97 1.72 2.11m1.77.15l-.8-.07c0-.01-.38-1.3-1.7-2.18l.67.08c.56.3 1.5.94 1.83 2.17m1.6.1l-.64-.07a4.22 4.22 0 0 0-1.63-2.12c.1 0 .64.12.64.12.02 0 1.15.47 1.63 2.08m1.42.09l-.62-.06a3.4 3.4 0 0 0-1.35-2l.61.13c.02 0 1.13.6 1.36 1.93m1.31.1l-.6-.08c-.04-.35-.59-1.55-1.34-1.88.12.02.78.22.78.22.01 0 .86.52 1.16 1.74m9.5-1.53h.03-.02m11.45 6.27s-1.85-3.7 1.03-6.16c0 0-1.03 2.02-1.03 6.16m-2.83.75s-2.67-2.67.66-6.6c0 0-1.48 3.17-.66 6.6m-1.32-.11s-2.45-2.4.27-5.45c0 0-.87 2.95-.27 5.45m-18.09.58c-.62-.03-1.32-.09-2.1-.16a21.4 21.4 0 0 0-5.17-5.83l2.3.19c.8.56 3.03 2.31 4.97 5.8m2.19.07l-.75-.01c-.56-.88-2.73-4.02-5.74-5.8 1.01.05 1.92.12 2.66.15 1.12.77 3.35 2.58 4.83 5.58l-.25.07h-.75m2.16-.5c-.61-.95-2.46-3.6-5.27-5.11l1.13.06c2.77.45 4.97 3.35 5.36 4.25-.33.3-.74.58-1.22.8m4.06-.68l-1.57-.48c-2.05-2.93-4.51-3.7-4.51-3.7l.55.06c3.08.72 5.53 4.12 5.53 4.12m2.6.83l-1.38-.68c-1.9-2.92-4.72-4.14-4.72-4.14l1.22.32c3.13 1.25 4.88 4.5 4.88 4.5m23.79 1.67l-.04-.1c-.07-.15-.22-.52-.45-.96a8.8 8.8 0 0 0-1.15-1.8l-.15-.2a7.85 7.85 0 0 1-1.48-2.93c.23.47.72.96 1.25 1.44.39.35.78.7 1.1 1.04.2.22.37.42.49.62l.03.08c.13.26.22.58.28.9.06.3.1.61.11.9.03.4.02.75.02.91l-.01.1m-8.39-3.54c.25-1.05.94-1.6 1.8-1.6.98 0 2.18.72 3.2 2.22.21.33.42.67.62 1.07l.12.27c.07.11.12.23.17.35.25.5.46.92.7 1.3l.3.43c.42.54.94.95 1.75 1.29.22.1.48.19.76.28l.17.05a3.7 3.7 0 0 1 1.91 1.11c.22.28.32.56.34.78.04.26 0 .46-.01.57a8.78 8.78 0 0 1-3.51-1.27 7.92 7.92 0 0 1-1.4-1.19c-.38-.41-.83-1.18-1.33-2.03l-.84-1.45c-.8-1.33-1.68-2.56-2.57-2.83-.22-.07-.43-.1-.62-.1-1 0-1.56.75-1.56.75m9.97 8.98s-.32 0-.79-.06a4.9 4.9 0 0 1-2.58-1.13c-1.91-1.75-2.51-5.94-6.54-6.16 0 0 .48-.21 1.19-.21.63 0 1.44.17 2.27.8a5.46 5.46 0 0 1 1.55 1.87c1.44 2.55 2.5 3.96 4 4.6.3.12.58.23.9.3m-9.58-1.1c-.77-1.25-2.46-.26-2.9-2.23-.46-2.1.8-3.1 2.38-3.1.83 0 1.74.28 2.53.82 2.5 1.69 2.72 5.28 4.95 5.94l-.5.02c-1.66 0-2.16-.76-3.25-2.1a4.81 4.81 0 0 0-2.83-1.68c1.03.54 1.14 2.39 1.14 2.39a3.45 3.45 0 0 0-2.56-1.68c1.15.48 1.04 1.63 1.04 1.63m-16.7-.41c-1.64-3.1-5.04-4.5-5.07-4.52l.8-.09c3.05.63 5.7 4.09 5.81 4.24l.08.1c-.41.08-.96.18-1.63.27m-2.81.33c-1.6-3.47-4.7-4.64-4.72-4.66l1.53-.1c2.38.69 4.88 4.35 4.99 4.5l.04.07-1.84.2m-9.54.17l-1.66-.1c-.8-2.78-2.64-4.44-2.65-4.46l-.4-.36 1.27.1c1.89.85 3.2 4.17 3.44 4.82m6.5.03a7.72 7.72 0 0 0-3.39-4.42l-.6-.3 1.36-.1c3.01 1.08 4.08 4 4.3 4.73-.52.04-1.08.06-1.67.09m-3.7.06c-.54 0-1.08-.01-1.65-.04-.91-2.94-2.74-4.4-2.76-4.42l-.49-.38 1.31.12c2.33 1.33 3.32 3.83 3.6 4.72m1.03 0a7.55 7.55 0 0 0-3.13-4.4l-.57-.33 1.34-.06c2.8 1.14 3.78 3.87 4.03 4.77l-1.67.02m22.96 4.12s.58-1.62-2.84-2.93c-3.42-1.32-4.4-4.94-4.4-4.94s1.96 3.28 5.33 4.45c2.86 1 2.93 2.54 1.9 3.42m-19.9-1.8s.19-.13.43-.35c.32-.27.7-.69.88-1.18l1.07-.1a3 3 0 0 1-.97 1.08l-.09.06c-.12.08-.27.15-.42.22-.27.12-.56.22-.9.27m-3.26.64s.25-.1.6-.27l.2-.1c.65-.36 1.5-.93 1.64-1.64l1.19-.08a3.55 3.55 0 0 1-1.51 1.5 4.56 4.56 0 0 1-2.12.6m-6.37-.26c-.73 0-1.55-.06-2.5-.19 0 0 4.26-.02 5.78-1.56h.15l1.52.05c-.02.04-.98 1.7-4.95 1.7m2.97.41l-.67-.01-.93-.07s.38 0 .92-.05h.07c1.21-.14 3.2-.58 3.89-1.93l.73-.05c.27 0 .54-.02.8-.03-.1.22-.69 1.4-2.8 1.9-.12.03-.24.07-.36.08a8.57 8.57 0 0 1-1.65.16m10.54 2.03a12.76 12.76 0 0 0-2.06-2.32c.2-.08.4-.15.57-.23.54.45 1.49 1.34 2.3 2.46l-.81.1m-2.41.54c-.32-.52-.88-1.28-1.88-2.19.23-.06.45-.11.66-.18.57.5 1.3 1.23 1.91 2.17l-.7.2m-10.4 2.05c-.35-.05-.72-.12-1.1-.2l-.04-.13c-.03-.1-.58-1.8-2.74-3.85l.8.13c.72.6 2.08 1.92 3.08 4.05m8.5-1.38c-.36-.67-.99-1.54-2.03-2.46l.72-.12c.84.71 1.5 1.6 1.91 2.34l-.6.24m-5.77 1.7c-.24 0-.5-.02-.78-.04h-.08c-.17-.51-.86-2.16-2.97-4.04.34.05.68.07 1.01.1.82.75 1.98 2.05 2.82 3.99m3.83-.84c-.4-.78-1.12-1.9-2.43-3.09.24 0 .46-.02.7-.04.65.56 1.55 1.48 2.34 2.84l-.61.29m-2.16.8c-.14-.42-.75-2-2.75-3.85h.78c.76.66 1.9 1.87 2.76 3.73-.16.05-.4.1-.8.13m37.06-1.14s1.87-1.1 4.1-1.1c1.41 0 2.97.43 4.3 1.87 0 0-1.93-1.25-5.03-1.25-1.01 0-2.14.13-3.37.48m-23.3 1.85c-.67-.9-2.07-1.61-3.1-2.04a11.2 11.2 0 0 0-1.2-.46l.5-.06.33-.03c.43 0 .84.06 1.23.16a8.66 8.66 0 0 1 4.04 2.63l.19.29s-.18-.17-.83-.35c-.43-.12-.8-.14-1-.14h-.16m-2.4.45l-.03-.04a13.29 13.29 0 0 0-4.03-2.45l-.04-.02 1.12-.25c.14.03.27.09.41.12 2.19.68 4.05 2.29 4.47 3.04l.26.46-.44-.28a3.52 3.52 0 0 0-1.65-.58h-.07m-2.3.5l-.05-.04a9.33 9.33 0 0 0-3.63-2.3l-.43-.13 1.03-.3c2.53.5 5 2.9 5.4 3.27 0 0-.73-.4-1.34-.49-.22-.03-.4-.04-.56-.04-.27 0-.43.03-.43.03m-1.84.87l-.05-.05c-1.7-1.67-3.64-2.22-3.65-2.23l-.36-.1.73-.3.16-.07.23.08c1.83.52 4.09 1.93 4.88 2.83 0 0-.14-.1-.96-.17a6.82 6.82 0 0 0-.59-.03c-.31 0-.39.04-.39.04m-6.58 4.12l-1.36-.12-1.24-.1-.03-.04-.03-.02a24.69 24.69 0 0 0-7.63-6.15l.94.08c6.12 2.03 9.16 6.07 9.18 6.12l.17.23m4.81-3.1l-.06-.04a10.15 10.15 0 0 0-3.77-2.56l-.37-.14.96-.28.48.16c1.96.77 4.44 2.62 4.95 3.07 0 0-.33-.13-1.09-.2a6.24 6.24 0 0 0-1.1 0m-1.53 2.93l-1.08-.07-1.17-.08-.03-.05-.13-.14c-3.46-3.95-7.24-5.51-7.27-5.53l.86.05a19.23 19.23 0 0 1 8.42 5.3l.24.3.16.22m-.7-2.2l-.08-.07c-1.86-2-4.37-3.02-4.4-3.03l1.18-.2c2.65.83 5.3 3.4 5.41 3.5 0 0-.36-.18-1.15-.25a3.9 3.9 0 0 0-.35-.02c-.4 0-.61.06-.61.06m12.46 1.06c-.18-.17-.42-.36-.72-.6a9.84 9.84 0 0 0-3.68-1.75c.36-.07.73-.15 1.1-.2 1.23.38 3.09 1.09 4.1 2.13l-.8.42m-1.52.75c-.2-.17-.5-.4-.87-.68-.9-.66-2.26-1.49-3.68-1.85.18-.09.38-.18.58-.25.83.22 2.58.82 4.17 2.3l.26.26-.46.22m-1.5.72a11.8 11.8 0 0 0-4.28-2.42c.16-.14.34-.28.54-.42.92.31 2.46 1 4.1 2.47l.14.13-.5.24m-1.63.73a14.04 14.04 0 0 0-3.62-2.2l.44-.46c.91.36 2.22 1.01 3.58 2.2l.21.2-.6.26m-1.86.78l-.4-.35c-.03-.02-.22-.2-.56-.45-.41-.32-1.04-.75-1.8-1.14.17-.15.32-.3.47-.47.83.4 1.82 1 2.86 1.87l.24.21-.81.33m-1.95.77l-.4-.4a11.4 11.4 0 0 0-2.03-1.42c.34-.1.62-.23.88-.38.6.35 1.23.79 1.85 1.35l.26.24.32.29-.88.32m-6.3 1.9a12.7 12.7 0 0 0-4.66-3.34l1.77-.15c1.79.67 3.23 2.25 4.03 3.24l-1.15.25m4.23-1.16c-.5-.55-1.88-1.95-2.59-2.25h.07l.3-.01c.23-.01.43-.04.63-.06a10.53 10.53 0 0 1 2.28 1.68l.29.31-.98.33m-1.97.64c-.82-.95-2.46-2.58-3.49-2.96l.2.01 1.14.05c1.03.43 2.46 1.83 3.06 2.62l-.9.28m-5.29 1.07c-1.02-1.33-4.04-3-5.45-3.39l2.08-.3c1.78.5 3.9 2.11 4.9 3.43l-1.53.26m13.06-2.75c.49-.2.95-.4 1.39-.6a11.1 11.1 0 0 1 3.92-.13c.42.07.9.26 1.38.53-.25.21-.6.5-1.11.87a14.29 14.29 0 0 0-5.58-.67m3.13 2.22a14.73 14.73 0 0 0-5.78-1.2c.63-.23 1.24-.45 1.8-.68 1.35.02 3.7.2 5.37 1.05-.4.26-.88.53-1.39.83m2.46 2.48a9.35 9.35 0 0 0 1.1-3.2c.41-.27.82-.57 1.21-.88.5.45-.23 2.76-1.84 3.85l-.47.23m-5.31-1.03a11.98 11.98 0 0 0-5.25-1.84l1.59-.54c1.35.15 3.72.55 5.4 1.53-.54.28-1.11.56-1.74.85m-2.95 1.23a13.35 13.35 0 0 0-5.33-2.14l2.18-.66c1.34.29 3.46.89 4.94 2.08-.56.24-1.16.48-1.8.72m5.5 1.03a7.3 7.3 0 0 0 1.13-2.71l1.28-.76c-.2 1.5-.81 2.5-1.15 2.94l-1.26.53m-8.75.1a13.1 13.1 0 0 0-4.84-2.55l1.97-.5c1.36.36 3.49 1.1 4.88 2.38-.63.22-1.3.44-2.01.66m62.54-83.5c-1.88 0-3.39.06-4.46.14-1.3-.03-2.63-.05-3.98-.05-3.1 0-6.27.1-9.24.34-1.73.15-3.39.12-4.94.38-1.37.24-4.5 1.14-4.5 1.14s1.94-.07 4.51-.33c1.32-.13 2.99-.5 5.02-.62a200.23 200.23 0 0 1 14.16-.35c3.3.25 7.63.3 10.92.3v-.6a82.34 82.34 0 0 0-7.49-.36m.31 1.52c-1.72 0-3.15.05-4.23.12a189.4 189.4 0 0 0-4.44-.05c-2.82 0-5.7.07-8.45.25-2.02.13-3.96.12-5.76.4-1.54.23-5.11 1.2-5.11 1.2s2.25-.14 5.15-.42c1.53-.16 3.49-.52 5.89-.65 3.06-.16 6.85-.28 11.41-.28h.95c3.32.3 8.05.39 11.77.4v-.68c-2.75-.22-5.17-.3-7.18-.3m-1.76 1.4c-1.46 0-2.68.06-3.62.13a121.44 121.44 0 0 0-9.99.08c-2.63.12-5.18.21-7.51.58-1.8.28-5.67 1.32-5.67 1.32s2.36-.18 5.8-.53c1.93-.19 4.41-.6 7.52-.73a204.18 204.18 0 0 1 10.13-.18c3.6.35 8.81.48 12.28.53v-.56c-3.51-.49-6.55-.63-8.94-.63m-.8 1.42c-2.3 0-4.23.08-5.63.16a179.06 179.06 0 0 0-4.86.06c-3.38.1-6.73.13-9.74.6-2.03.31-6.08 1.34-6.08 1.34s2.32-.08 6.12-.5c2.45-.28 5.74-.78 9.92-.92a174.51 174.51 0 0 1 9.02-.1l10.99.5v-.64c-3.55-.38-6.91-.5-9.74-.5m-4.95 1.32c-3.91 0-8.3.15-12.98.57-3.31.3-8.88 1.96-8.88 1.96s6.07-.9 12.96-1.32c4.62-.28 2.87-.12 8.8-.72h1.41c2.57 0 5.3.07 8.3.2l-.03.02c1.34.27 3.2.46 5.1.6v-.87a32.81 32.81 0 0 0-3.13.01c-3.01-.24-6.95-.45-11.55-.45m-9.16 1.82c-2.05 0-3.81.25-5.78.49-2.84.33-5.45 1.15-7.39 1.73 0 0 2.2-.18 8.51-.78 2.34-.21 3.61-.24 4.6-.67.52-.23 1.17-.3 1.84-.3.44 0 .9.03 1.33.06.42.03.82.06 1.17.06h.24c2.94-.12 6.06-.19 9.67-.19 2.25 0 4.7.03 7.42.09.67.1 1.43.2 2.24.3v-.72a16.1 16.1 0 0 0-2.51.22 246.45 246.45 0 0 0-15.15-.26c-.67 0-2.13.15-3.36.15-.63 0-1.2-.04-1.58-.15l-1.25-.03m19.37 1.51c-2.63 0-5.64.08-9.02.3 0 0 7 .26 13.5.41v-.63c-1.35-.04-2.84-.08-4.48-.08m-15.05.2c-1.38 0-2.67.03-3.87.07-.71.03-1.47.27-2.18.27a14.84 14.84 0 0 0-1.53-.09c-1.84 0-3.55.31-4.87.53-2.82.45-5.69 1.62-5.69 1.62 1.06-.09 3.7-.37 6.41-.76 2.04-.29 3.24-.5 4.26-.83.55-.2 1.21-.23 1.83-.23h.6l.54.02.32-.01c5.41-.4 9.26-.49 9.26-.49-1.82-.07-3.51-.1-5.08-.1m19.53 1.3c-2.58 0-5.51.05-8.82.22 0 0 3.17.3 8.82.46V111m-22.02.27c-1.27 0-2.43.06-3.71.18-.74.07-1.86.42-2.76.42-.12 0-.24 0-.36-.02-.2-.02-.4-.03-.63-.03-1.23 0-2.85.3-3.91.55-3 .74-5 1.79-5 1.79 1.02-.17 2.91-.27 5.06-.69 1.45-.28 2.35-.48 3.5-.98a6.2 6.2 0 0 1 2.72-.43h.48a17.3 17.3 0 0 0 .82-.01c4.8-.56 7.2-.66 7.2-.66a53.82 53.82 0 0 0-3.41-.12m21.15 1.04c-1.44 0-3.08.08-4.91.26 0 0 2.32.47 5.78.67v-.92h-.87m-22.21.73c-2.02 0-3.66.14-5.52.41-.6.1-1.94.48-2.75.48-.12 0-.22 0-.31-.03l-.34-.02c-.85 0-2.23.32-3.04.55a23.26 23.26 0 0 0-4.08 1.6c1.14-.13 2.39-.34 4.17-.74 1.27-.3 2.03-.48 2.63-.77.84-.5 2.69-.36 3.5-.46 5.17-.66 9.37-.9 9.37-.9a56.7 56.7 0 0 0-3.63-.12m22.82.84c-1.08 0-2.36.11-3.84.41 0 0 1.62.36 4.1.46v-.86h-.26m-22.8.84c-3.17 0-5.68.32-8 .75-.7.13-1.9.52-2.6.52-.1 0-.19-.01-.26-.03a9.38 9.38 0 0 0-2.47.36c-1.57.5-3 1.34-3 1.34.98-.01 2.3-.26 3.05-.44a6.74 6.74 0 0 0 2.05-.78c.74-.41 2.56-.38 3.4-.5 5.68-.81 11.31-1.1 11.31-1.1-1.25-.08-2.4-.12-3.47-.12m22.8.65c-1.09 0-2.37.1-3.85.41 0 0 1.73.35 4.1.46v-.87h-.26m-23.29.92c-3.79 0-6.55.41-9.05.98-.81.18-2.25.7-3.07.7h-.14c-.51 0-1.27.11-1.73.28a32.63 32.63 0 0 0-2.45 1.04l.31.01c.69 0 1.73-.12 2.32-.28.42-.1.93-.38 1.31-.64.54-.36 2.35-.45 3.19-.6 6.11-1 13.28-1.36 13.28-1.36-1.44-.1-2.76-.13-3.97-.13m23.55.41c-1.69.1-3.82.34-6.44.53l-2.6.05s-3.1.13-5.6.86c0 0 1.3-.1 2.68-.1 1.23 0 2.53.08 3.03.37 0 0-4.02 1.12-5.01 1.71 0 0 2.33-.4 3.4-.54a58 58 0 0 1 4.03-.4h.1c1.37 0 2.57.17 3.32.36.73.17 1.01.34.57.34l-.27-.01c-.29-.02-.7-.04-1.21-.04-1.92 0-5.1.21-7.19 1.08 0 0 3.28-.61 6.53-.61 1.08 0 2.15.07 3.1.24.33.06 1 .7.38.7-.57-.05-1.11-.07-1.6-.07-2.23 0-3.6.38-3.6.38h.93c1.54 0 3.12.07 4.51.28.32.08.67.67.22.83a30.42 30.42 0 0 0-2.82-.14c-.58 0-.9.02-.9.02 1.32.2 1.97.3 3.34.65.38.03.3.25.2.32h.05a6.34 6.34 0 0 1-1.65.4c-.5 0-1.07-.16-1.68-.31a8.2 8.2 0 0 0-2.18-.31c-1.53.08-1.8 1.07-4.29 1.07-1.72 0-2.22-.6-4.24-.6-.9 0-2.1.12-3.84.47l1.38 1.3a7.48 7.48 0 0 1 1.78-.25c.64 0 1.22.11 1.82.32 1.1.38 2.08 1.55 4.05 1.55h.13c1.99-.06 2.4-1.22 3.8-1.22.31 0 .66.05 1.09.19.38.24 1.04.81 1.55.86l-.4.4a4.7 4.7 0 0 0-1.66-.36c-.72 0-1.46.27-1.75 1.23 0 0 .56-.56 1.6-.56.38 0 .8.07 1.29.26l-.24.27c-.52.6-1.6-.04-2.24 1-.42.7-.73 1.41-1.7 1.88-.33.15-.6.2-.86.2s-.51-.05-.78-.1c-.3-.05-.61-.1-.98-.1h-.1c-1.16.05-2.1 1.12-2.1 1.12s.87-.24 1.54-.24c.3 0 .57.05.69.2l.08.23-.23-.01a3.5 3.5 0 0 0-2.38.9s.93-.32 1.91-.32h.12c-.1.1-.12.22-.01.35.16.22.52.32.98.32a7.3 7.3 0 0 0 2.32-.49c1.46-.52 1.97-1.47 4.22-1.47l.42.01c1.01.05 1.53.32 1.86.63-1.32.11-2.6.36-2.6.36 1.15 0 2.84.4 3.34.54.19.18.42.3.79.36v-2.76l-.2-.16.2-.01v-.55a6 6 0 0 1-.69.05 6.8 6.8 0 0 1-.54-.7 7.6 7.6 0 0 0 1.23-.13v-.69c-.62.18-1.17.25-1.54.27a3.53 3.53 0 0 1-.32-.99c.67 0 1.26-.07 1.86-.28v-.81a6.1 6.1 0 0 1-1.84.47c.1-.34.34-.63.77-.8.4-.14.74-.34 1.07-.54v-9.26m-6.35 15.07c.75-.89 1.5-1.17 2.15-1.17 1.12 0 1.95.83 1.95.83a5.78 5.78 0 0 0-1.67-.25c-1.48 0-2.43.59-2.43.59m-15.16-13.96c-5.66 0-9.75.73-12.8 1.52-.84.22-2.09.71-2.79.71-.5.04-1.05.08-1.42.23-.85.32-1.9.87-1.9.87h.05c.48 0 1.42-.11 1.88-.24.38-.11.85-.27 1.26-.58.5-.3 2.4-.5 3.2-.64 7.14-1.28 16.84-1.74 16.84-1.74-1.54-.09-2.98-.13-4.33-.13m-.6 1.69c-8.13 0-13.53 1.57-16.28 2.6-.38.01-.84.15-1.1.26-.7.28-1.43.67-1.43.67h.03c.33 0 1.18-.12 1.54-.22.29-.08.68-.3.96-.51 6.74-1.77 20.52-2.66 20.52-2.66-1.49-.1-2.9-.14-4.25-.14m.3 1.92c-8.52 0-14.26 1.71-16.89 2.72-.4.06-.74.13-.97.23-.54.23-1.28.64-1.28.64h.08c.34 0 1.03-.14 1.32-.24.26-.08.44-.26.88-.45 6.62-1.84 21.1-2.76 21.1-2.76-1.48-.1-2.9-.14-4.24-.14m.56 1.81c-12.5 0-19.12 3.45-19.12 3.45 8.96-2.99 23.5-3.31 23.5-3.31-1.53-.1-2.99-.14-4.38-.14m-2.37 1.8c-10.58 0-16.54 3.12-16.54 3.12 6.16-2.58 21.66-2.88 21.66-2.88a56.38 56.38 0 0 0-5.12-.24m.58 1.48c-10.14 0-17.12 2.98-17.12 2.98 8.77-2.47 17.93-2.71 21.2-2.71l1.26.01c-1.86-.2-3.64-.28-5.34-.28m-.18 1.5c-10.13 0-16.96 3.03-16.96 3.03 9-2.54 17.07-2.83 20.29-2.83.95 0 1.48.03 1.48.03a50.45 50.45 0 0 0-4.81-.23m2.62 1.08c-2.96 0-5.93.44-7.45.71-8.68 1.04-12.43 2.95-12.43 2.95 5.74-1.63 10.3-2.49 13.45-2.95a118.71 118.71 0 0 1 10.43-.36 19.9 19.9 0 0 0-4-.35m-29.8.92c-.52 0-1.06.29-1.24.81-.38 1.1.82 2.07.82 2.07-.38-.75.33-.92.33-.92s.1.02.23.02c.36 0 1-.11.97-.94-.04-.7-.56-1.04-1.11-1.04m30.82.36c-1.87 0-3.6.2-4.62.36-11.71 1.05-16.24 3.57-16.24 3.57a93.9 93.9 0 0 1 15.27-3.39 72.41 72.41 0 0 1 10.12 0c-1.43-.4-3.03-.54-4.53-.54m3.5 1.26c-2.8 0-6.44.42-6.44.42 2.37-.06 4.2-.08 5.61-.08 2.81 0 3.88.08 3.88.08-.44-.32-1.64-.42-3.04-.42m-7.1.5c-10.26.64-16.8 3.91-16.8 3.91 8.68-3.14 16.8-3.9 16.8-3.9m7.65.73c-1.91 0-4.49.17-4.49.17 2.43.18 3.96.23 4.9.23 1.68 0 1.61-.17 1.61-.17-.04-.17-.92-.23-2.02-.23m15.54 1.02c-1.12.28-1.87.37-1.87.37a14.16 14.16 0 0 0 1.87.07v-.44m-24.31.08a35.12 35.12 0 0 0-13.02 3.03c6.73-2.43 13.02-3.03 13.02-3.03m9.32.08c-1.29 0-3 .17-3 .17 1.57.16 2.58.21 3.22.21 1.13 0 1.15-.15 1.15-.15-.06-.17-.65-.23-1.37-.23m.54 1.08c-.94 0-2.2.2-2.2.2 1.06.13 1.78.17 2.26.17.84 0 .96-.13.96-.13-.07-.18-.5-.24-1.02-.24m14.45.18c-1.14.3-1.92.42-1.92.42a13.38 13.38 0 0 0 1.92.05v-.47m-24.96.35c-4.49.25-7.13 1.67-7.13 1.67 3.77-1.07 7.13-1.67 7.13-1.67m11.59.53c-.57 0-1.34.16-1.34.16.64.1 1.08.14 1.37.14.51 0 .59-.1.59-.1-.05-.15-.3-.2-.62-.2m13.37.47c-1.37.4-2.32.53-2.32.53a13.34 13.34 0 0 0 2.32.05v-.58m-40.03.26a5.83 5.83 0 0 0-4.39 2.24c1.05-.76 2.62-.98 2.62-.98 0 .22-.53 1.43-1.57 2.34-1.15.98-1.48 3.1-1.48 3.1.49-.97 1.4-2.09 2.07-2.5 1.21-.76 1.53-2.26 1.84-2.26.02 0 .05 0 .07.03.47.4.7.81-.6 2.12-1.9 1.9-2.18 3.37-2.18 3.37s.87-1.52 2.73-3.04c2.4-1.99 1.08-4.42 1.08-4.42h-.19m40.03 1.18a17.7 17.7 0 0 1-2.43.56 12.44 12.44 0 0 0 2.43.05v-.6M124 139.17c-2.75 0-4.36 5.56-2.79 6.26.27.12.51.17.73.17 2.11 0 2.1-5.07 2.1-5.07s-.43 2.3-1.16 2.3a.41.41 0 0 1-.2-.06c-1.58-.88 1.36-3.6 1.36-3.6H124m60.25.37c-1.48.45-2.54.6-2.54.6a12.84 12.84 0 0 0 2.54.03v-.63m0 1.43c-1.53.48-2.65.63-2.65.63.56.06 1.07.1 1.53.1.4 0 .78-.03 1.12-.08v-.65m0 1.44c-1.59.5-2.75.65-2.75.65.54.07 1.03.1 1.48.1.47 0 .89-.03 1.27-.09v-.66m0 1.46c-1.59.5-2.75.66-2.75.66.58.08 1.1.12 1.58.12.43 0 .81-.03 1.17-.08v-.7m0 1.43c-1.64.54-2.85.7-2.85.7a11.07 11.07 0 0 0 2.85.02v-.72m-17.65 1.39c-3.12 0-5.6 1.29-5.6 1.29a20.4 20.4 0 0 1 5.71-.77c2.34 0 4 .34 4 .34a9.8 9.8 0 0 0-4.11-.86m17.65.08c-1.64.53-2.85.7-2.85.7a11.57 11.57 0 0 0 2.85.03v-.73m-16.36 1.32c-.72 0-1.22.06-1.22.06 2.42.06 3.88 1.46 4.92 1.74-.11.31-.45.43-.93.43-1.03 0-2.67-.54-3.97-.86a4.96 4.96 0 0 0-1.15-.12c-1.85 0-4 .79-4.62 1.32-.58.5-1.68.56-2.19.56l-.27-.01s3.6 2.4 6.92 2.78c.35.04.68.06 1 .06 2.83 0 4.89-1.32 4.89-1.32s-1.29 2.84-5.7 2.84h-.13c-4.52-.06-8.34-4.3-8.34-4.3-.1-.02-.19-.02-.29-.02a6.63 6.63 0 0 0-3.15 1.08s.14-.02.4-.02c.55 0 1.63.1 2.94.7l-4.02.52c.7.16 1.56.22 2.38.22 1.25 0 2.4-.12 2.69-.16l.34.23.69.48-5.04.45c1.7.24 3.08.3 4.12.3.9 0 1.56-.05 1.95-.09.51.28 1.12.55 1.83.78l-5.96.14c2.14.37 4.4.49 6.42.49a55.74 55.74 0 0 0 6-.32c.15-.02.28-.04.39-.04h.1c.5 0 .32.4.04.8-1.23.23-4.84.27-7.34.27l-2.54-.01c3.4.6 4.8.57 6.56.6 1.04 0 2.47.28 3.19.28 3.6 0 6.15-2.12 7.62-2.58a1.95 1.95 0 0 0-.76-.16c-.52-.04-1.16-.23-.4-.58.54-.24 1.35-.52 1.97-.76l-2.27.1h-.04c-.76 0-.7-.85-.37-.87a29.4 29.4 0 0 0 3.86-.6s-2.43-.11-4.05-.14c-.4 0 .07-.73.64-.76 1.54-.18 2.26-.56 2.26-.56-.52-.04-2.07-.07-3.01-.07-.62-.05-1.2-.8-.71-.8h.03a7.6 7.6 0 0 0 2.4-.33c-.51-.04-2.5-.22-3.36-.31v-.01c-.32-.03-1.1-.52-.68-.53a22.16 22.16 0 0 0 2.46-.27c-.58 0-3.2-.28-4.26-.41-.8-.18-1.61-.22-2.24-.22m-4.23 3.74c-.15 0-.35-.02-.57-.1-.9-.26-1.4-.66-1.4-.66a5.65 5.65 0 0 1 3.32-1.06c1.16 0 1.97.34 1.97.34s-.47-.06-1.1-.06c-.93 0-2.18.14-2.82.84h.13c.89 0 .85.65.85.65s-.14.05-.38.05m3.96-.23c-.3 0-.24-.22-.24-.5 0-.26-.05-.49.25-.49s.91.23.91.5-.6.49-.91.49m16.62-3.33c-1.59.5-2.75.66-2.75.66a12 12 0 0 0 1.56.1c.43 0 .83-.02 1.19-.07v-.69m-58.79.92c-5.17 5.83-.77 10.51-.77 10.51-2.17-6.48.77-10.5.77-10.5m58.79.6c-1.47.45-2.53.6-2.53.6a12.17 12.17 0 0 0 2.53.07v-.67m0 1.6a24.5 24.5 0 0 1-3.04.47 18.08 18.08 0 0 0 3.04.17v-.63m0 1.76c-2.07.32-3.48.42-3.48.42a37.95 37.95 0 0 0 3.48.1v-.52m0 1.57c-2.64.36-4.48.45-4.48.45a38.58 38.58 0 0 0 4.48.16v-.61m0 1.53c-2.02.28-3.4.35-3.4.35 1.3.14 2.4.2 3.4.2v-.55m-7.1.25c-.56 0-1.05.15-1.4.33a9 9 0 0 1-1.47.62 2.66 2.66 0 0 0 1.7-.22 8.8 8.8 0 0 1 1.72-.69 3.17 3.17 0 0 0-.54-.04m7.09 1.4c-1.02.1-1.64.14-1.64.14.59.04 1.13.07 1.64.08v-.23m-59.07 5s2.02 1.92 2.78 4.04c.77 2.12 1.1 2.66 1.64 3.27 0 0-.07.03-.2.03-.24 0-.72-.12-1.34-.82.2.34.66 1.28.01 2.59 0 0 1.01-1.06 2.47-1.06.89 0 1.94.4 3.03 1.65 0 0-1.8-2.56-1.14-4.14 0 0-.81 1.04-.76 1.96 0 0-1.42-.32-2.07-1.46-.66-1.15-1.14-4.14-4.42-6.05m59.07 1.11c-2.37.44-4 .6-4 .6h.29c1.4 0 2.63-.05 3.7-.16v-.44m0 1.95c-3.89.56-6.96.64-6.96.64 1.37.11 2.58.16 3.66.16 1.3 0 2.39-.07 3.3-.18v-.62m0 1.95c-4.45.58-7.93.65-7.93.65 1.54.11 2.9.16 4.11.16 1.5 0 2.76-.07 3.83-.19v-.62m0 2.07c-3.55.43-6.2.5-6.2.5 1.42.11 2.68.16 3.8.16.88 0 1.68-.03 2.4-.08V170m-41.74 1.2c-1.36.98-.98 2.5-.98 2.5-.99-.49-.82-1.95-.82-1.95-1.36 2.39 1.58 3.91 3.37 5.33 1.8 1.42 3.28 5.99 3.28 5.99-.23-4.08-2.95-6.8-4.03-8.11-1.1-1.31-.82-3.76-.82-3.76m41.74.86c-2.8.3-4.77.35-4.77.35a42.8 42.8 0 0 0 4.77.16v-.5m0 2c-2.4.24-4.04.28-4.04.28 1.39.12 2.61.16 3.7.16h.34v-.44m-53.18.36c-1.23 0-2.07.96-2.07.96a2.73 2.73 0 0 1 1.58-.56c1.7 0 3.11 1.91 4.08 3.88a4.02 4.02 0 0 0 3.73 2.2c.25 0 .4-.02.4-.02-2.39-2.66-1.62-6.16-1.62-6.16-1.3 3.06.05 5.18.05 5.18-1.63-.32-1.03-.92-3.54-3.97-.95-1.16-1.85-1.51-2.6-1.51m7.72.96c.12.82.93 2.34 2.5 3.05a4.87 4.87 0 0 1 2.24 2.56s-1.04-.76-2.01-.92c-1.58-.28-2.57-1.96-2.57-1.96s.39 2.23 2.73 2.77a5.1 5.1 0 0 1 2.94 2.12c-.16-2.44-1.3-4.57-3.1-5.33-1.8-.76-2.73-2.29-2.73-2.29m45.45.69c-2 .18-3.31.2-3.31.2a42 42 0 0 0 3.3.16v-.36m-51.81 2.52s.28 3.38 2.89 4.47c1.65.7 3.73.52 6.24 1.17h2.67c-.58-.4-1.26-.81-2.1-1.17-1.94-.81-2.73-1.52-2.73-1.52s.49 1.03.82 1.25c0 0-.78.07-1.71.07-1.02 0-2.22-.08-2.82-.45-1.14-.71-2.17-1.03-3.26-3.82m36.16.77c-6.53 0-7.13 4.57-7.13 4.57 1.53-3.8 7.25-4.57 7.25-4.57h-.12m8.6 1.1c-.28 0-.57.02-.86.04-2.86.25-4.72 2.28-5.7 3.73h.43a9.3 9.3 0 0 1 3.96-2.53 8.82 8.82 0 0 0-2.34 2.53h.5c2.17-1.92 4.13-1.98 4.37-1.98h.03a7.38 7.38 0 0 0-3 1.98h.6a6.8 6.8 0 0 1 3.82-1.28c1.52 0 2.79.62 3.7 1.28h1.23c-1-2.12-3.46-3.76-6.74-3.76m-6.05.64l-.03.04.03-.04m-.03.04h-.01m-1.91.27c-1.45 0-3.94.42-6.3 2.8h.57c1.3-.83 3.21-1.85 4.87-1.92 0 0-.91.46-1.58 1.93h.63a9.47 9.47 0 0 1 3.07-2.7s-.48-.11-1.26-.11"/></clipPath><radialGradient id="d" spreadMethod="pad" gradientTransform="matrix(42.52 0 0 -42.52 141.73 141.73)" gradientUnits="userSpaceOnUse" r="1" cy="0" cx="0" fy="0" fx="0"><stop offset="0" stop-color="#641518"/><stop offset="1" stop-color="#631518"/></radialGradient><clipPath id="e"><path d="M184.25 99.21h85.04v85.04h-85.04z"/></clipPath><linearGradient id="f" gradientTransform="matrix(-85.041 0 0 85.041 269.3 141.73)" gradientUnits="userSpaceOnUse" x2="1"><stop offset="0" stop-color="#661338"/><stop offset=".5" stop-color="#661338"/><stop offset="1" stop-color="#431021"/></linearGradient></defs><g clip-path="url(#a)" transform="matrix(1.33333 0 0 -1.33333 -112.28 265.67)"><path d="M99.2 99.22h85.05v85.03H99.2V99.22" fill="url(#b)"/></g><g clip-path="url(#c)" transform="matrix(1.33333 0 0 -1.33333 -112.28 265.67)"><path d="M183.12 99.22h-22.24c-1 .07-2 .15-2.96.26-1.25.13-2.45.09-3.6.3-1.28.24-4.17 1.15-4.17 1.15s1.8-.07 4.25-.32c1-.1 2.2-.44 3.61-.54a199.48 199.48 0 0 1 17.24-.44c2.76.24 6.24.32 9 .34v-.65c-.38-.04-.76-.08-1.13-.1m-29.87 0h-2.07l-.65.21s1.12-.06 2.72-.21m-6.7 0h-3.58c.12 1.68.15 4.37-.69 5.9l-1.3-1.35s.7-1.72.7-4.55h-.83a14.2 14.2 0 0 1-.73 3.6l-1.1-1.04s.42-1 .65-2.56h-1.31c-.16.5-.32 1-.53 1.45l-1.11-1s.12-.16.29-.45h-2.51l.12.12c.16 1.3.39 3.87.03 6.12l-1.06-1.11c.05-.9.13-3.05-.13-5.13h-.51c.06 1.24.05 2.8-.2 4.24l-1.17-1.25c.02-.6.04-1.7-.02-3h-.6c-.01.72-.04 1.47-.1 2.22l-1.19-1.26.06-.95h-.92l-.01.01-.01-.01h-3.54c.52.62.98 1.07.98 1.07a5.97 5.97 0 0 0-1.78-.28c-1.2 0-2 .36-2 .36a4.64 4.64 0 0 1 1.3-.02c.5 1.2.47 2.25.41 2.74l-2.2-2.22c.57.87 1.21 1.76 1.9 2.67l.68.9 1.08 1.34.47.56c-.11.02-.23.03-.36.03-.95 0-2.14-.54-2.75-.86-.1-.18-.2-.37-.28-.57a8.08 8.08 0 0 1-.85-3.15s-.62 1.7 1.12 5.18c-1.82-.81-2.91-.94-3.84-1.07a4.2 4.2 0 0 0-.57-.04c-1.75 0-2.98 1.17-1.8 3.12l.06.1-.02-.07c-.2-.69-.2-1.19-.03-1.57.55.66 2.34 2.53 2.52 2.72l.02.02.73.7 1.17 1.12c-.16.05-.34.07-.53.07a5.8 5.8 0 0 1-2.25-.65 23.3 23.3 0 0 1-1.41-1.84c.21.64.47 1.2.74 1.7l.08.13c.27.47.55.88.83 1.23-.76-.35-1.4-.6-1.87-.72l-.66-.15c.17.17.43.46.72.82l.41.57.02.02.05.1a9.58 9.58 0 0 1 1.58 4.88l-1.43-1c-.18-2-1.13-3.6-1.73-4.43l-.01-.01-.04-.05-.47-.57c-.2-.23-.38-.4-.5-.5l-.38-.01c-2.23 0-3.58 1.08-2.13 3.54l-.06-.42a2.7 2.7 0 0 1 .06-1.31 27.8 27.8 0 0 0 3.66 3.37l1.04.83.57.45c-.13.02-.28.03-.43.03-1.14 0-2.54-.48-3.24-.75-.6-.55-.93-.9-.93-.9.15.25.31.48.5.72h-.02l.02.01.45.59a22.03 22.03 0 0 0 2.58 2.65c.68.6 1.29 1.08 1.77 1.44l-.28-.07a19.2 19.2 0 0 0-5.16-.78c-.74 0-1.48.06-2.22.19.15.11.55.41.84.65l.12.1.05.04c.84.7 2.46 2.23 3.42 4.14l-1.5-.6a8.96 8.96 0 0 0-3.09-3.35v-.01c-.53-.36-.9-.56-1.06-.63-1.8.77-1.03 2.25-.31 2.96 0 0-.11-.26-.14-.6.52.4 1.45.91 2.61 1.49l1.11.53 1.55.71c-.26.07-.54.1-.83.1-.8 0-1.67-.2-2.12-.33a10.6 10.6 0 0 1-.92-.63l-.34-.28.22.25c.23.24.68.67 1.4 1.22l.67.5c.44.3.95.64 1.56 1-.39-.04-.8-.06-1.23-.08a7.14 7.14 0 0 1 1.9 3.2l-.38-.02c-1.53-2.54-3.27-3.27-3.27-3.27a34.42 34.42 0 0 0-2.62 0c1.18 1.99 1.3 2.64 1.07 2.65-.31 0-1.21-1.8-2.88-2.42-5.56.6-2.16 2.32-2.16 2.32h-.37c-1.01 0-3.7.13-3.93 1.52-.24 1.43 1.7 2.59 1.7 2.59-1.03-1.15-2.03-2.68-.07-3.04.38-.08.79-.12 1.22-.16 1.41.81 2.38 1.79 2.9 2.4-2.34-.64-4.33-1.2-4.96-1.35 0 0 1.07.54 3.47 1.37l.83.3a75.46 75.46 0 0 0 2.57.81 24.52 24.52 0 0 1-4.3.15l.87.28 2.13.71c-.87.07-1.53.15-1.98.21-1.47.1-3.18.3-4.95.63l-.13.03v.63l.18-.06a9.25 9.25 0 0 1 2.62 2.52l-1.6-.27c-.1 0-.19-.02-.29-.03a21.5 21.5 0 0 0-.91-.78v2.88l.67-.01a8.95 8.95 0 0 1 3 3.48l-1.61-.25c-.32-.5-1.01-1.49-2.06-2.4v.57c.38.45.77 1 1.1 1.67l-1.1-.18v1.64l.04.03c.42.29 1.04.83 1.35 1.75l-.7-.07a3.6 3.6 0 0 0-.7-1.07v1.64l2.01.22c.95.87 3.03 2.97 4.35 5.73-.61-.07-1.25-.16-1.93-.26-.56-1-2.13-3.47-4.42-5.28v.82a16.57 16.57 0 0 1 3 4.22 93.4 93.4 0 0 1-2.05-.37 20.8 20.8 0 0 0-.95-1.5v1.9h.06a131.87 131.87 0 0 0 8.95 1.42c-.77.05-1.56.07-2.35.07-2.14 0-4.25-.15-5.84-.3l-.82-.07v.24l1.64.22c1.95 1.17 2.9 4.54 2.94 4.68l.04.14-1.57-.18-.03-.1c-.93-2.82-2.75-4.36-2.77-4.38l-.25-.21v1.09c1.17 1.55 1.48 3.16 1.5 3.25l.03.13-1.53-.24v.75c.7.17 1.4.33 2.1.46-.66.37-1.4.68-2.1.93v.8c2.17-.37 3.48-.99 4.15-1.4.77.1 1.53.19 2.3.25-1.68.97-3.8 1.28-5.85 1.28l-.6-.01v1.41c.78.74 1.8 1.94 2.57 3.65l-.89-.2a9.52 9.52 0 0 0-1.68-2.6v4.79a19.26 19.26 0 0 1 6.9 5.2l.05.07.12.17-2.6-.21-.03-.05a26.3 26.3 0 0 0-4.44-4.17v.93a15.04 15.04 0 0 1 3.26 3.06l.12.17.04.06-.84-.1-1.82-.21c-.25-.3-.5-.6-.76-.88v3.47l.7-.15c1.53.44 4.33 1.84 5.55 3.32-.67.1-1.32.19-1.92.26a16.64 16.64 0 0 0-4.33-2.5v1.03a8.92 8.92 0 0 1 2.48 1.67c-1.1.1-1.96.17-2.48.2v2.6h2.37a12 12 0 0 0-2.24-.65l2.8-.6c.73.3 1.61.73 2.45 1.25h1.47a14.47 14.47 0 0 0-3.13-1.4c.75-.16 1.52-.3 2.32-.46l.27-.06c.97.46 2.12 1.1 3.07 1.92h1.5c-.74-.59-2-1.46-3.7-2.1.73-.15 1.45-.3 2.14-.47 1.29.5 3.07 1.34 4.28 2.57h5.22c.09-.14.14-.25.18-.33.57-.21 1.14-.44 1.71-.68-.13.41-.32.74-.52 1h1.1c.49-.56.76-1.26.87-1.64.44-.2.88-.4 1.3-.63a6.67 6.67 0 0 1-1.04 2.28h5.63a27.94 27.94 0 0 0 3.46-2.73l.12.15c.2.5.46 1.55-.41 2.58h4.13c-3.78-3.63-3.17-7-3.17-7-4.46-.98-3.7-4.51-3.7-4.51-6.2-7.09-3-8.72-3-8.72-3.92-4.36-3.7-8.18-2.44-11.39 2.08-5.36 6.75-6.15 6.75-6.15-2.07 1.69-3.32 4.41-3.71 7.4a8.06 8.06 0 0 0 1.96 6.6c2.02 2.5 4.42 3 5.18 3.64.76.66.98 1.3.38 2.24-.2.3-.45.4-.7.4-.5 0-.99-.4-.99-.4a4.3 4.3 0 0 0 1.58 1.36c2-3.54 4.43-4.2 5.95-4.2.88 0 1.46.23 1.46.23-1.2.82-2.01 2.01-2.01 2.01 1.03-.7 2.28-.7 2.28-.7-2.18 1.03-3.76 4.56-3.76 4.56-.43-1.2 1.14-3.53 1.14-3.53-1.73 1.03-2.45 3.16-2.45 3.16-.43-1.2.77-2.72.77-2.72-3.6 2.72-.66 4.84.49 5.6 1.14.77 1.69 2.02 1.69 2.02-.27-2.02.21-3.87 3.59-6.64a8.63 8.63 0 0 1 5.6-2c2.57 0 4.53 1.02 4.53 1.02-1.2-.27-2.24-.38-3.12-.38-5.29 0-5.21 4.08-5.21 4.08.43-.88 1.85-1.52 1.85-1.52-1.64 1.9-.82 5.22-.82 5.22-1.25-.7-1.3-2.67-1.3-2.67s-1.37 2.07 1.8 4.74a12.34 12.34 0 0 1 3.86 6.48c0-3.92-2.84-6.8-2.84-6.8 1.75.65 3 2.99 3 2.99-.8-3.54-3.43-3.38-3.8-5.4-.72-2.66 1.03-4.62 1.03-4.62-.39 1.52.38 3.97.38 3.97-.06-1.47.87-2.34.87-2.34-.71 1.75.1 3.27 1.9 4.8 1.4 1.18 2.73 6.72 3.25 9.17h.16c-.45-4.9-2.04-8.54-2.7-9.45-.7-.97-.7-2.07-.7-2.07 2.82.6 3.32 5.83 3.32 5.83a4.54 4.54 0 0 1 4.67-3.56c1.14 0 2.03.3 2.03.3-2.18.43-3.49 2.72-3.49 2.72a6.39 6.39 0 0 1 4.26-1.74c1.68 0 2.83.76 2.83.76-2.24.43-4.52 2.72-4.52 2.72-1.37-.6-.28-1.96-.28-1.96-2.87 1.23-3.7 4.57-3.93 6.45h.44c1.43-2.46 4.63-2.7 5.85-2.7h.47c.27-2.67 2.67-3.97 4.47-4.13l.4-.02c1.54 0 2.44.84 3.9.94l.27.01c.68 0 1.24-.2 1.84-.41a6.46 6.46 0 0 1 2.3-.41c1.96.05 1.96.92-.1 1.53a6.64 6.64 0 0 0-3.18 2.07c.64-.76 3.6-1.84 5.3-2.02a7.78 7.78 0 0 1 7.69 3.58l.12.2v-2.33c-1.6-2.06-4.33-3.92-8.9-4.02 0 0-5.6-2.86-11.3-3.28-1.39.05-2.43.48-3.9.48h-.25c-1.63-.05-2.7-.75-4.6-.96l-.28-.01c-1.67 0-2.82 1.49-2.82 1.49-.23-1.58 2.11-2.41 2.11-2.41l-.2-.01a5.65 5.65 0 0 0-2.84 1.06c.6-1.8 3.16-2.24 3.16-2.24a5.63 5.63 0 0 0-.63-.04c-2.37 0-3.34 1.62-3.34 1.62.2-1.56 1.74-2.68 3.46-2.68 1.09 0 2.25.46 3.18 1.54.8.93 2.67 1.61 4.37 1.66a8 8 0 0 1-4.95-4.88c-.72-1.96-2.08-3.51-4.48-4.99l-.56-.33c-.63-.36-1.33-.72-2.1-1.08.71-.1 1.49-.24 2.32-.42 0 0-1.52-.12-3.54-.35.02-.22.04-.62-.15-.99l2.78-.37s-1.58-.15-3.7-.4c-.44-.22-.98-.44-1.42-.68l3.98-.54s-2.11-.11-4.8-.36c0-.09.01-.18.05-.27.15-.35.22-.55.22-.74.97-.14 2.1-.3 3.48-.48 0 0-1.52-.06-3.64-.22-.08-.21-.17-.5-.28-.9l-.04-.18c.93-.14 2.1-.32 3.62-.57l-3.82-.17c-.08-.3-.18-.59-.31-.87.98-.15 2.15-.4 3.6-.65l-4.15-.18c-.2-.24-.44-.5-.72-.79.82-.17 1.81-.4 3.11-.63l-3.64-.35c-.07-.19-.13-.4-.18-.64.85-.2 1.82-.52 3.02-.77 0 0-1.15-.14-3.1-.23 0-.2.01-.41.05-.63.8-.24 1.77-.56 3.05-.89l-2.78-.1a5 5 0 0 1 .4-.79c.79-.22 1.74-.51 3-.8l-2.38-.08c.25-.3.5-.58.76-.85.64-.18 1.38-.36 2.27-.56 0 0-.7-.01-1.73-.05.9-1.05 1.5-2.21.7-4.23 0 0 .3 2.39-2.13 4.39-2.45 2-1.98 5.45-1.98 5.45a5.45 5.45 0 0 1-.92-4.58s-1.03 2.07-.7 3.76c.1.52.05.72-.07.72-.26 0-.88-.99-1.03-1.6-.2-.84-.1-2.34.55-3.75 0 0-.7.51-1.32.51-.68 0-1.27-.63-.7-3.29 0 0-1.69 2.06-2.78 2.18 0 0 .88-2.56.93-3.65.05-1.1.32-2.5.71-3.1 0 0-1.3 1.24-1.96 3.37 0 0 .08-1.22-1.12-2.16-.69-.55-1.46-2.24-1.46-2.24s0 1.72 1.11 3.1c1.07 1.3.66 3.13.61 3.32.03-.12.15-.93-1.03-2.04-1.29-1.2-2.5-4.12-2.5-4.12.1 1.98 1.38 3.69 2.07 5.5.7 1.8.41 4.03.41 4.03s-.37-.05-.98-.05c-.48 0-1.1.03-1.79.14.7-.6 1.97-2.08.73-4.3a25.65 25.65 0 0 1-2.32-6.32c-.06-.3-.11-.65-.08-.92l.01-.05.02-.08c.17-.46.63-.65 1.17-.65.76 0 1.68.37 2.15.9.88.98 2.84 1.64 2.84 1.64-4.82-3.86-2.5-8.13.17-8.13h.15c2.73.17 2.4 3.27 2.4 3.27 1.74-1.84-.33-4.24-.33-4.24 3.57 2.1.54 6.7.54 6.7s1.47-.41 2.27-2.84c.22 2.89-2.48 5.68-2.48 5.68.9-.61 2.83-.92 3.7-.92.44 0 .6.07.26.23-1.9.88-2.85 4.73-2.85 4.73a8.47 8.47 0 0 1 4.61-4.15c-.44-7.63.82-19.29.82-19.29s-.34 1.66-3.22 2.34c-2.93.7-1.96 2.48-1.96 2.48-.11 0-.94-.05-1.22-1.55-.2-1.42.94-1.87 3.48-2.58 2.58-.7 3.48-3.4 3.48-3.4s-1.03 2.12-4.13 2.63c-2 .33-2.69 1.22-2.88 2 .15-2.2 1.85-2.96 3.56-3.28a6.4 6.4 0 0 0 3.99-3.82c.78-2.67 1.4-5.5 1.4-5.5.38-1.77.94-6.92.94-6.92v-.08m-10.08 8.13l-.95-.98c.04-.93.1-3.98-.41-6.58l1.22 1.16c.14.95.49 3.85.14 6.4m-10.87-2.82l-.85-.86a5.73 5.73 0 0 0-.58-3.27c.4.07.82.17 1.23.28.46 1.58.33 3.06.2 3.85m1.62 1.62l-.98-.98c.35-1.7-.2-3.57-.5-4.38.39.13.76.26 1.12.4.58 1.89.48 3.9.36 4.96m10.97 2.98l-.89-.9c.04-1.28.04-4.4-.55-6.88l1.31 1.24c.13.92.51 3.93.13 6.54m-9.54-1.55l-.82-.83a11.2 11.2 0 0 0-.56-5.38l1.24.58a13.51 13.51 0 0 1 .14 5.63m1.6 1.58l-.98-.98a14.28 14.28 0 0 0-.08-4.56l-.07-.43-.02-.08-.21-.97.14.08.17.13.81.54c.68 2.36.44 4.97.25 6.27m9.55 1.64l-.77-.78c.04-1.21.05-4.47-.56-7.03l1.07 1.01s1 3.1.26 6.8m-8.02-.13l-.97-.95c.7-3.25-.4-6.53-.4-6.53l-.14-.12 1.34.89c.67 2.6.37 5.4.17 6.71m1.4 1.37l-.8-.77c.71-3.04-.07-6.14-.32-7l1.23 1.08c.65 3.17.21 5.53-.12 6.7m-9.9-6.1l-.06-.02-.03-.04.08.07m11.6 7.7l-1-.96c.7-2.93.3-5.63.1-6.62l1 1.07c.52 2.85.22 5.14-.1 6.5m-7.99-5.4c-.92 0-2.04-.51-2.66-.83l-.16-.22c-.18-.23-.35-.49-.53-.76a5.14 5.14 0 0 0 3.5 1.03l.56.65h-.02c-.2.09-.44.12-.69.12m-7.59 1.29c-.98-.85-1.83-1.6-2.49-2.15.3-.59.98-.83 1.82-.85.67 1.05.71 2.37.67 3m1.6 1.4l-1.06-.94a5.35 5.35 0 0 0-.9-3.45c.38.01.79.06 1.18.14.81 1.53.84 3.35.79 4.25m1.76 1.53l-1.22-1.07c.1-2.66-.6-4.06-1.02-4.65.49.12.96.26 1.38.41.9 1.93.91 4.24.86 5.31m1.85 1.62l-1.26-1.1c.11-2.9-.65-4.88-1.02-5.65l1.04.48c.58 1.2.9 2.61 1.06 3.86.12.95.17 1.8.18 2.41m1.89 1.65l-1.28-1.11a15.6 15.6 0 0 0-1.46-6.6c.39.18.78.39 1.2.61 1.27 2.27 1.5 5.5 1.54 7.1m1.94 1.7l-1.31-1.15a15.25 15.25 0 0 0-1.76-7.42l1.5.87c1.3 2.54 1.54 6.02 1.57 7.7m9.19-2.35a17.9 17.9 0 0 0-.12-5.4l1.58 1.5c.14 1.06-.02 2.63-.1 3.24-.44.24-.92.45-1.36.66m-7.39 3.93l-1.12-.97c.02-4.01-1.27-6.97-1.8-8.03l1.35.84c1.45 2.8 1.58 6.74 1.57 8.16m1.45 1.26l-.77-.67a16.57 16.57 0 0 0-1.74-8.42l1.51 1.01c1.45 3.2 1.12 7.06 1 8.08m-14.77-3.6l-1.22-.87a5.99 5.99 0 0 0-1.75-3.38h.18c.36 0 .78.04 1.26.14a10.3 10.3 0 0 1 1.53 4.12m5.73-2.72c-.73 0-1.59-.3-2.25-.6l-.72-.69-.25-.25a5.57 5.57 0 0 0 2.95.6l.07.07.81.78c-.18.06-.39.09-.6.09m-7.6 1.38c-.9-.64-1.81-1.31-2.71-1.98.2-.5.62-.81 1.28-.91a6.65 6.65 0 0 1 1.43 2.9m5.97 4.22c-.45-.31-.92-.63-1.38-.97a9.68 9.68 0 0 0-1.8-5.26c.45.17.9.37 1.4.58a11.75 11.75 0 0 1 1.78 5.65m2.28 1.59l-1.5-1.05a11.9 11.9 0 0 0-1.88-5.86c.4.19.81.4 1.25.6 1.8 2.58 2.1 5.18 2.13 6.3m11.53.18c.16-3.29-.55-5.45-1.04-6.5.55.58 1.06 1.1 1.5 1.58l.12.53c.14 2.63-.15 3.83-.58 4.39m-9.5 1.21c-.4-.27-.82-.54-1.26-.86a11.75 11.75 0 0 0-2.22-6.46c.6.3 1.18.63 1.75.95a12.43 12.43 0 0 1 1.72 6.37m1.98 1.35l-1.26-.86c-.04-3.2-1.21-5.5-1.85-6.52l1.48.89c1.5 2.35 1.65 5.25 1.63 6.49m1.05.7l-.25-.16c.06-3.22-1.15-5.6-1.8-6.64.65.4 1.27.81 1.88 1.22.76 2 .89 4.01.87 5.24-.25.1-.49.21-.7.34m-8.67-4.32c-1.02 0-2.24-.33-3.05-.6-.5-.4-.95-.78-1.36-1.13l-.02-.02a7.57 7.57 0 0 0 4 .8l.04.03 1.13.85c-.23.05-.48.07-.74.07m10.25 3.74a12.51 12.51 0 0 0-.97-4.46l1.7 1.21a11 11 0 0 1 .46 3.13c-.44 0-.83.06-1.19.12m-8.01-1.88a8.5 8.5 0 0 1-2.5-.38c-.31-.21-.61-.42-.9-.64l-.36-.26a8.37 8.37 0 0 0 3.88.53l.95.68a8.7 8.7 0 0 1-1.07.07m11 1.89c-.3-.05-.61-.09-.93-.12a10.2 10.2 0 0 0-.56-2.55c.48.37.95.73 1.38 1.08a5.44 5.44 0 0 0 .1 1.6m-15.34 3.08l-1.8-.71c-.32-.8-1.35-2.92-3.71-4.51a13.98 13.98 0 0 1 1.44-.04c.93.81 2.96 2.78 4.07 5.26m2.5 1l-1.73-.69a14.62 14.62 0 0 0-4.4-5.55c.64.04 1.29.1 1.9.2.88.82 3.1 3.12 4.24 6.05m2.42.97l-1.72-.7a15.15 15.15 0 0 0-4.52-6.26c.68.12 1.3.26 1.86.42l.1.04c.6.6 3.06 3.15 4.28 6.5m-9.87-3.95l-3.68-1.47c.01-.46.21-1 .92-1.31.08-.04.2-.07.29-.1.7.58 1.76 1.6 2.47 2.88m12.3 4.92l-1.64-.66c-.32-.9-1.67-4.25-4.5-6.63l2.23.82c.88.98 2.87 3.44 3.9 6.47m.68-6.17c-.16 0-.46 0-.86-.04a10.43 10.43 0 0 1-2.54-.5l-.44-.18c-.22-.09-.43-.2-.64-.32a15.47 15.47 0 0 0 2.26.25c.36 0 .68-.03.9-.12l.1.05.27.18 1.07.68h-.12m-.07 6.29a14.85 14.85 0 0 0-3.8-6.32c.62.22 1.25.48 1.87.7.48.6 1.28 1.74 2.12 3.51-.18.76-.2 1.52-.19 2.1m.44-2.86c-.38-.78-.9-1.65-1.65-2.46 1.05.4 2 .78 2.6 1.02l-.56.72c-.15.23-.28.46-.39.72m1.48 6.12h-.01c-.27-.45-3.58-6.38 3.06-7.32 0 0-1.47 1.03-1.14 2.66 0 0 .58-1.3 2.52-1.3.2 0 .4.02.64.05 0 0-3.37 1.42-1.66 5.67 0 0-1.9-1.42-1.56-3.76 0 0-2.1.87-1.85 4m-10.3-1.46l-1.43-.28c-.47-1.68-1.46-2.85-1.6-3.02l-.04-.03.2.03.54.1.17.04.16.03.23.03.08.1.1.08c.2.2.38.4.53.62a7.5 7.5 0 0 1 1.06 2.3m2.25.46l-1.28-.26a8.12 8.12 0 0 0-.96-2.34l-.25-.4-.05-.07v-.01l-.04-.05-.07-.1-.05-.06.07.02.57.1.24.04.27.05.1.1.16.19.07.09.03.02.1.15.07.1.02.03.02.03a6.86 6.86 0 0 1 .98 2.37m2.45-2.42c.13-.02.23-.06.33-.1l.02.01a2 2 0 0 1-.35.1m.07 3.03v-.01l-1.6-.42c-.06-.42-.19-.8-.34-1.14-.14-.33-.3-.62-.43-.83l-.07-.1v-.01l-.02-.03-.08-.1-.04-.06v-.02l-.1-.1c.22.05.4.13.58.2l.09.05.23.11.14.07.3.2.06.04.16.1.06.07.25.22.1.11.04.04.16.21.12.17.13.25c.24.48.26.87.26.96v.02m-12.88 2l-1.95-.54c-1.42-1.65-3.88-2.7-3.88-2.7l-.3-.08c.48-.04 1-.06 1.53-.06.6 0 1.2.03 1.82.06l-.29.01a11.7 11.7 0 0 1 3.07 3.3m2.69.75l-1.47-.4c-1.32-2.07-3.94-3.64-3.98-3.66.83.05 1.67.12 2.48.21a15.15 15.15 0 0 1 2.97 3.85m2.8.63l-.73-.04-.79-.23c-1-1.9-2.77-3.43-3.7-4.15.75.08 1.48.17 2.16.26a13.72 13.72 0 0 1 3.06 4.16m2.62.22c-.52-.06-1.02-.1-1.5-.14a14.12 14.12 0 0 0-3.7-4.17l1.58.2.66.08a13.63 13.63 0 0 1 2.96 4.03m2.5.29l-1.37-.17a14.14 14.14 0 0 0-3.61-4.1l2.44.38a14.38 14.38 0 0 1 2.54 3.89m.9-.08a13.4 13.4 0 0 0-2.9-3.71c.78.12 1.55.28 2.3.43a14.3 14.3 0 0 1 1.85 3.02c-.38.02-.8.1-1.25.26m6.84.63a2.82 2.82 0 0 0-1.68-1.08c-.33-.09-.57-.1-.57-.1a6.26 6.26 0 0 0-1.03-2.1c-.3-.41-.55-.68-.55-.68l.49.06.28.03 1 .1c1.2.68 1.74 2.3 1.95 3.18.08.36.11.6.11.6m-8.72 7.37s-1.26-2.8.67-6.06c1.16-1.97 3.8-2.07 3.8-2.07s-.16-.06-.44-.1a12.4 12.4 0 0 0-2.26-2.96c.65.14 1.28.3 1.84.45a5.56 5.56 0 0 1 1.27 2.65l-.03.01.03.01.01.05h.15c.9.32 4.53 1.99 1.5 7.4 0 0 .47-.35 1.12-.52.49-.86 1.42-3 .34-5.13a5.34 5.34 0 0 0-.93-1.3s.23.07.57.26c.26.15.58.38.89.73.44.48.84 1.2 1 2.2.16.95.11 2.14-.33 3.7l1.04 1.56a9.28 9.28 0 0 0-5.34 3.16c.03-.84.18-2.45.94-3.7 0 0-1.3 2.05-2.96 2.05-.47 0-.97-.17-1.47-.59-1.4-1.15-.2-5.74.02-6.22 0 0-1.8 2.03-1.43 4.42m-4.94-2.68l-1.55-.24c-1.86-2.98-5.39-4.97-5.89-5.24l.65-.06c.58 0 1.16.02 1.73.03a15.4 15.4 0 0 1 5.06 5.51m2.91.46l-1.73-.27c-1.56-3-4.89-5.16-5.72-5.68.83.04 1.64.08 2.42.15a15.74 15.74 0 0 1 5.03 5.8m-5.73-.9l-1.91-.3c-1.76-2.45-4.72-4.08-5.34-4.4.8-.12 1.58-.22 2.28-.3a16.36 16.36 0 0 1 4.97 5m6.63.65c-1.56-2.88-4.4-4.88-5.36-5.5.9.07 1.74.16 2.52.26a7.92 7.92 0 0 1 3.05 3.46c-.13.57-.2 1.18-.21 1.78m-9.75-1.14l-.14-.02-.03-.01-1.48-.23a15.14 15.14 0 0 0-4.42-3.63c.53-.1 1.06-.2 1.6-.27 2.43 1.6 3.79 3.17 4.47 4.16m10.26-1.66a8.54 8.54 0 0 0-2.69-2.35c1.74.23 3.05.46 3.75.6-.15.16-.3.33-.44.53-.25.37-.46.78-.62 1.22m-13.04 1.22l-1.89-.3a13.08 13.08 0 0 0-3.3-2.76 49 49 0 0 1 1.53-.33 12.91 12.91 0 0 1 3.66 3.39m.48 5.2l-1.63-.25a10.59 10.59 0 0 0-3.52-3.61h.25l2.12.14c.67.57 1.96 1.84 2.78 3.72m2.53.37l-1.58-.23c-.37-.63-1.69-2.73-3.35-3.84l2.07.13c.79.72 2.03 2.05 2.86 3.94m2.6.37l-1.64-.24a12.03 12.03 0 0 0-3.46-4.04l1.98.14c.83.69 2.25 2.1 3.12 4.14m2.63.36l-1.6-.22a14.18 14.18 0 0 0-3.69-4.26l1.87.13c.7.56 2.4 2.04 3.44 4.35h-.02m2.75.27l-1.2-.1-.47-.06c-.4-.65-1.98-3.04-4.07-4.43l2.32.15c.57.44 2.31 1.94 3.42 4.44m2.67.24l-1.64-.15a13.3 13.3 0 0 0-3.92-4.5l2.13.15c.7.57 2.38 2.14 3.43 4.5m-.82-2.6a14.1 14.1 0 0 0-2.03-1.87l1.74.12c.03.61.13 1.2.3 1.75m12.47 10.5s-3.6-4.85 1.41-9.1c0 0-2.6 3.7-1.41 9.1m-27.75-6.86l-.85-.07c-.01-.02-.43-1.25-1.82-2.1l.86.08a3.4 3.4 0 0 1 1.81 2.1m1.81.15l-.82-.09c-.09-.18-.37-1.27-1.82-2.14l.92.12c.57.31 1.3.97 1.72 2.11m1.77.15l-.8-.07c0-.01-.38-1.3-1.7-2.18l.67.08c.56.3 1.5.94 1.83 2.17m1.6.1l-.64-.07a4.22 4.22 0 0 0-1.63-2.12c.1 0 .64.12.64.12.02 0 1.15.47 1.63 2.08m1.42.09l-.62-.06a3.4 3.4 0 0 0-1.35-2l.61.13c.02 0 1.13.6 1.36 1.93m1.31.1l-.6-.08c-.04-.35-.59-1.55-1.34-1.88.12.02.78.22.78.22.01 0 .86.52 1.16 1.74m9.5-1.53h.03-.02m11.45 6.27s-1.85-3.7 1.03-6.16c0 0-1.03 2.02-1.03 6.16m-2.83.75s-2.67-2.67.66-6.6c0 0-1.48 3.17-.66 6.6m-1.32-.11s-2.45-2.4.27-5.45c0 0-.87 2.95-.27 5.45m-18.09.58c-.62-.03-1.32-.09-2.1-.16a21.4 21.4 0 0 0-5.17-5.83l2.3.19c.8.56 3.03 2.31 4.97 5.8m2.19.07l-.75-.01c-.56-.88-2.73-4.02-5.74-5.8 1.01.05 1.92.12 2.66.15 1.12.77 3.35 2.58 4.83 5.58l-.25.07h-.75m2.16-.5c-.61-.95-2.46-3.6-5.27-5.11l1.13.06c2.77.45 4.97 3.35 5.36 4.25-.33.3-.74.58-1.22.8m4.06-.68l-1.57-.48c-2.05-2.93-4.51-3.7-4.51-3.7l.55.06c3.08.72 5.53 4.12 5.53 4.12m2.6.83l-1.38-.68c-1.9-2.92-4.72-4.14-4.72-4.14l1.22.32c3.13 1.25 4.88 4.5 4.88 4.5m23.79 1.67l-.04-.1c-.07-.15-.22-.52-.45-.96a8.8 8.8 0 0 0-1.15-1.8l-.15-.2a7.85 7.85 0 0 1-1.48-2.93c.23.47.72.96 1.25 1.44.39.35.78.7 1.1 1.04.2.22.37.42.49.62l.03.08c.13.26.22.58.28.9.06.3.1.61.11.9.03.4.02.75.02.91l-.01.1m-8.39-3.54c.25-1.05.94-1.6 1.8-1.6.98 0 2.18.72 3.2 2.22.21.33.42.67.62 1.07l.12.27c.07.11.12.23.17.35.25.5.46.92.7 1.3l.3.43c.42.54.94.95 1.75 1.29.22.1.48.19.76.28l.17.05a3.7 3.7 0 0 1 1.91 1.11c.22.28.32.56.34.78.04.26 0 .46-.01.57a8.78 8.78 0 0 1-3.51-1.27 7.92 7.92 0 0 1-1.4-1.19c-.38-.41-.83-1.18-1.33-2.03l-.84-1.45c-.8-1.33-1.68-2.56-2.57-2.83-.22-.07-.43-.1-.62-.1-1 0-1.56.75-1.56.75m9.97 8.98s-.32 0-.79-.06a4.9 4.9 0 0 1-2.58-1.13c-1.91-1.75-2.51-5.94-6.54-6.16 0 0 .48-.21 1.19-.21.63 0 1.44.17 2.27.8a5.46 5.46 0 0 1 1.55 1.87c1.44 2.55 2.5 3.96 4 4.6.3.12.58.23.9.3m-9.58-1.1c-.77-1.25-2.46-.26-2.9-2.23-.46-2.1.8-3.1 2.38-3.1.83 0 1.74.28 2.53.82 2.5 1.69 2.72 5.28 4.95 5.94l-.5.02c-1.66 0-2.16-.76-3.25-2.1a4.81 4.81 0 0 0-2.83-1.68c1.03.54 1.14 2.39 1.14 2.39a3.45 3.45 0 0 0-2.56-1.68c1.15.48 1.04 1.63 1.04 1.63m-16.7-.41c-1.64-3.1-5.04-4.5-5.07-4.52l.8-.09c3.05.63 5.7 4.09 5.81 4.24l.08.1c-.41.08-.96.18-1.63.27m-2.81.33c-1.6-3.47-4.7-4.64-4.72-4.66l1.53-.1c2.38.69 4.88 4.35 4.99 4.5l.04.07-1.84.2m-9.54.17l-1.66-.1c-.8-2.78-2.64-4.44-2.65-4.46l-.4-.36 1.27.1c1.89.85 3.2 4.17 3.44 4.82m6.5.03a7.72 7.72 0 0 0-3.39-4.42l-.6-.3 1.36-.1c3.01 1.08 4.08 4 4.3 4.73-.52.04-1.08.06-1.67.09m-3.7.06c-.54 0-1.08-.01-1.65-.04-.91-2.94-2.74-4.4-2.76-4.42l-.49-.38 1.31.12c2.33 1.33 3.32 3.83 3.6 4.72m1.03 0a7.55 7.55 0 0 0-3.13-4.4l-.57-.33 1.34-.06c2.8 1.14 3.78 3.87 4.03 4.77l-1.67.02m22.96 4.12s.58-1.62-2.84-2.93c-3.42-1.32-4.4-4.94-4.4-4.94s1.96 3.28 5.33 4.45c2.86 1 2.93 2.54 1.9 3.42m-19.9-1.8s.19-.13.43-.35c.32-.27.7-.69.88-1.18l1.07-.1a3 3 0 0 1-.97 1.08l-.09.06c-.12.08-.27.15-.42.22-.27.12-.56.22-.9.27m-3.26.64s.25-.1.6-.27l.2-.1c.65-.36 1.5-.93 1.64-1.64l1.19-.08a3.55 3.55 0 0 1-1.51 1.5 4.56 4.56 0 0 1-2.12.6m-6.37-.26c-.73 0-1.55-.06-2.5-.19 0 0 4.26-.02 5.78-1.56h.15l1.52.05c-.02.04-.98 1.7-4.95 1.7m2.97.41l-.67-.01-.93-.07s.38 0 .92-.05h.07c1.21-.14 3.2-.58 3.89-1.93l.73-.05c.27 0 .54-.02.8-.03-.1.22-.69 1.4-2.8 1.9-.12.03-.24.07-.36.08a8.57 8.57 0 0 1-1.65.16m10.54 2.03a12.76 12.76 0 0 0-2.06-2.32c.2-.08.4-.15.57-.23.54.45 1.49 1.34 2.3 2.46l-.81.1m-2.41.54c-.32-.52-.88-1.28-1.88-2.19.23-.06.45-.11.66-.18.57.5 1.3 1.23 1.91 2.17l-.7.2m-10.4 2.05c-.35-.05-.72-.12-1.1-.2l-.04-.13c-.03-.1-.58-1.8-2.74-3.85l.8.13c.72.6 2.08 1.92 3.08 4.05m8.5-1.38c-.36-.67-.99-1.54-2.03-2.46l.72-.12c.84.71 1.5 1.6 1.91 2.34l-.6.24m-5.77 1.7c-.24 0-.5-.02-.78-.04h-.08c-.17-.51-.86-2.16-2.97-4.04.34.05.68.07 1.01.1.82.75 1.98 2.05 2.82 3.99m3.83-.84c-.4-.78-1.12-1.9-2.43-3.09.24 0 .46-.02.7-.04.65.56 1.55 1.48 2.34 2.84l-.61.29m-2.16.8c-.14-.42-.75-2-2.75-3.85h.78c.76.66 1.9 1.87 2.76 3.73-.16.05-.4.1-.8.13m37.06-1.14s1.87-1.1 4.1-1.1c1.41 0 2.97.43 4.3 1.87 0 0-1.93-1.25-5.03-1.25-1.01 0-2.14.13-3.37.48m-23.3 1.85c-.67-.9-2.07-1.61-3.1-2.04a11.2 11.2 0 0 0-1.2-.46l.5-.06.33-.03c.43 0 .84.06 1.23.16a8.66 8.66 0 0 1 4.04 2.63l.19.29s-.18-.17-.83-.35c-.43-.12-.8-.14-1-.14h-.16m-2.4.45l-.03-.04a13.29 13.29 0 0 0-4.03-2.45l-.04-.02 1.12-.25c.14.03.27.09.41.12 2.19.68 4.05 2.29 4.47 3.04l.26.46-.44-.28a3.52 3.52 0 0 0-1.65-.58h-.07m-2.3.5l-.05-.04a9.33 9.33 0 0 0-3.63-2.3l-.43-.13 1.03-.3c2.53.5 5 2.9 5.4 3.27 0 0-.73-.4-1.34-.49-.22-.03-.4-.04-.56-.04-.27 0-.43.03-.43.03m-1.84.87l-.05-.05c-1.7-1.67-3.64-2.22-3.65-2.23l-.36-.1.73-.3.16-.07.23.08c1.83.52 4.09 1.93 4.88 2.83 0 0-.14-.1-.96-.17a6.82 6.82 0 0 0-.59-.03c-.31 0-.39.04-.39.04m-6.58 4.12l-1.36-.12-1.24-.1-.03-.04-.03-.02a24.69 24.69 0 0 0-7.63-6.15l.94.08c6.12 2.03 9.16 6.07 9.18 6.12l.17.23m4.81-3.1l-.06-.04a10.15 10.15 0 0 0-3.77-2.56l-.37-.14.96-.28.48.16c1.96.77 4.44 2.62 4.95 3.07 0 0-.33-.13-1.09-.2a6.24 6.24 0 0 0-1.1 0m-1.53 2.93l-1.08-.07-1.17-.08-.03-.05-.13-.14c-3.46-3.95-7.24-5.51-7.27-5.53l.86.05a19.23 19.23 0 0 1 8.42 5.3l.24.3.16.22m-.7-2.2l-.08-.07c-1.86-2-4.37-3.02-4.4-3.03l1.18-.2c2.65.83 5.3 3.4 5.41 3.5 0 0-.36-.18-1.15-.25a3.9 3.9 0 0 0-.35-.02c-.4 0-.61.06-.61.06m12.46 1.06c-.18-.17-.42-.36-.72-.6a9.84 9.84 0 0 0-3.68-1.75c.36-.07.73-.15 1.1-.2 1.23.38 3.09 1.09 4.1 2.13l-.8.42m-1.52.75c-.2-.17-.5-.4-.87-.68-.9-.66-2.26-1.49-3.68-1.85.18-.09.38-.18.58-.25.83.22 2.58.82 4.17 2.3l.26.26-.46.22m-1.5.72a11.8 11.8 0 0 0-4.28-2.42c.16-.14.34-.28.54-.42.92.31 2.46 1 4.1 2.47l.14.13-.5.24m-1.63.73a14.04 14.04 0 0 0-3.62-2.2l.44-.46c.91.36 2.22 1.01 3.58 2.2l.21.2-.6.26m-1.86.78l-.4-.35c-.03-.02-.22-.2-.56-.45-.41-.32-1.04-.75-1.8-1.14.17-.15.32-.3.47-.47.83.4 1.82 1 2.86 1.87l.24.21-.81.33m-1.95.77l-.4-.4a11.4 11.4 0 0 0-2.03-1.42c.34-.1.62-.23.88-.38.6.35 1.23.79 1.85 1.35l.26.24.32.29-.88.32m-6.3 1.9a12.7 12.7 0 0 0-4.66-3.34l1.77-.15c1.79.67 3.23 2.25 4.03 3.24l-1.15.25m4.23-1.16c-.5-.55-1.88-1.95-2.59-2.25h.07l.3-.01c.23-.01.43-.04.63-.06a10.53 10.53 0 0 1 2.28 1.68l.29.31-.98.33m-1.97.64c-.82-.95-2.46-2.58-3.49-2.96l.2.01 1.14.05c1.03.43 2.46 1.83 3.06 2.62l-.9.28m-5.29 1.07c-1.02-1.33-4.04-3-5.45-3.39l2.08-.3c1.78.5 3.9 2.11 4.9 3.43l-1.53.26m13.06-2.75c.49-.2.95-.4 1.39-.6a11.1 11.1 0 0 1 3.92-.13c.42.07.9.26 1.38.53-.25.21-.6.5-1.11.87a14.29 14.29 0 0 0-5.58-.67m3.13 2.22a14.73 14.73 0 0 0-5.78-1.2c.63-.23 1.24-.45 1.8-.68 1.35.02 3.7.2 5.37 1.05-.4.26-.88.53-1.39.83m2.46 2.48a9.35 9.35 0 0 0 1.1-3.2c.41-.27.82-.57 1.21-.88.5.45-.23 2.76-1.84 3.85l-.47.23m-5.31-1.03a11.98 11.98 0 0 0-5.25-1.84l1.59-.54c1.35.15 3.72.55 5.4 1.53-.54.28-1.11.56-1.74.85m-2.95 1.23a13.35 13.35 0 0 0-5.33-2.14l2.18-.66c1.34.29 3.46.89 4.94 2.08-.56.24-1.16.48-1.8.72m5.5 1.03a7.3 7.3 0 0 0 1.13-2.71l1.28-.76c-.2 1.5-.81 2.5-1.15 2.94l-1.26.53m-8.75.1a13.1 13.1 0 0 0-4.84-2.55l1.97-.5c1.36.36 3.49 1.1 4.88 2.38-.63.22-1.3.44-2.01.66m62.54-83.5c-1.88 0-3.39.06-4.46.14-1.3-.03-2.63-.05-3.98-.05-3.1 0-6.27.1-9.24.34-1.73.15-3.39.12-4.94.38-1.37.24-4.5 1.14-4.5 1.14s1.94-.07 4.51-.33c1.32-.13 2.99-.5 5.02-.62a200.23 200.23 0 0 1 14.16-.35c3.3.25 7.63.3 10.92.3v-.6a82.34 82.34 0 0 0-7.49-.36m.31 1.52c-1.72 0-3.15.05-4.23.12a189.4 189.4 0 0 0-4.44-.05c-2.82 0-5.7.07-8.45.25-2.02.13-3.96.12-5.76.4-1.54.23-5.11 1.2-5.11 1.2s2.25-.14 5.15-.42c1.53-.16 3.49-.52 5.89-.65 3.06-.16 6.85-.28 11.41-.28h.95c3.32.3 8.05.39 11.77.4v-.68c-2.75-.22-5.17-.3-7.18-.3m-1.76 1.4c-1.46 0-2.68.06-3.62.13a121.44 121.44 0 0 0-9.99.08c-2.63.12-5.18.21-7.51.58-1.8.28-5.67 1.32-5.67 1.32s2.36-.18 5.8-.53c1.93-.19 4.41-.6 7.52-.73a204.18 204.18 0 0 1 10.13-.18c3.6.35 8.81.48 12.28.53v-.56c-3.51-.49-6.55-.63-8.94-.63m-.8 1.42c-2.3 0-4.23.08-5.63.16a179.06 179.06 0 0 0-4.86.06c-3.38.1-6.73.13-9.74.6-2.03.31-6.08 1.34-6.08 1.34s2.32-.08 6.12-.5c2.45-.28 5.74-.78 9.92-.92a174.51 174.51 0 0 1 9.02-.1l10.99.5v-.64c-3.55-.38-6.91-.5-9.74-.5m-4.95 1.32c-3.91 0-8.3.15-12.98.57-3.31.3-8.88 1.96-8.88 1.96s6.07-.9 12.96-1.32c4.62-.28 2.87-.12 8.8-.72h1.41c2.57 0 5.3.07 8.3.2l-.03.02c1.34.27 3.2.46 5.1.6v-.87a32.81 32.81 0 0 0-3.13.01c-3.01-.24-6.95-.45-11.55-.45m-9.16 1.82c-2.05 0-3.81.25-5.78.49-2.84.33-5.45 1.15-7.39 1.73 0 0 2.2-.18 8.51-.78 2.34-.21 3.61-.24 4.6-.67.52-.23 1.17-.3 1.84-.3.44 0 .9.03 1.33.06.42.03.82.06 1.17.06h.24c2.94-.12 6.06-.19 9.67-.19 2.25 0 4.7.03 7.42.09.67.1 1.43.2 2.24.3v-.72a16.1 16.1 0 0 0-2.51.22 246.45 246.45 0 0 0-15.15-.26c-.67 0-2.13.15-3.36.15-.63 0-1.2-.04-1.58-.15l-1.25-.03m19.37 1.51c-2.63 0-5.64.08-9.02.3 0 0 7 .26 13.5.41v-.63c-1.35-.04-2.84-.08-4.48-.08m-15.05.2c-1.38 0-2.67.03-3.87.07-.71.03-1.47.27-2.18.27a14.84 14.84 0 0 0-1.53-.09c-1.84 0-3.55.31-4.87.53-2.82.45-5.69 1.62-5.69 1.62 1.06-.09 3.7-.37 6.41-.76 2.04-.29 3.24-.5 4.26-.83.55-.2 1.21-.23 1.83-.23h.6l.54.02.32-.01c5.41-.4 9.26-.49 9.26-.49-1.82-.07-3.51-.1-5.08-.1m19.53 1.3c-2.58 0-5.51.05-8.82.22 0 0 3.17.3 8.82.46V111m-22.02.27c-1.27 0-2.43.06-3.71.18-.74.07-1.86.42-2.76.42-.12 0-.24 0-.36-.02-.2-.02-.4-.03-.63-.03-1.23 0-2.85.3-3.91.55-3 .74-5 1.79-5 1.79 1.02-.17 2.91-.27 5.06-.69 1.45-.28 2.35-.48 3.5-.98a6.2 6.2 0 0 1 2.72-.43h.48a17.3 17.3 0 0 0 .82-.01c4.8-.56 7.2-.66 7.2-.66a53.82 53.82 0 0 0-3.41-.12m21.15 1.04c-1.44 0-3.08.08-4.91.26 0 0 2.32.47 5.78.67v-.92h-.87m-22.21.73c-2.02 0-3.66.14-5.52.41-.6.1-1.94.48-2.75.48-.12 0-.22 0-.31-.03l-.34-.02c-.85 0-2.23.32-3.04.55a23.26 23.26 0 0 0-4.08 1.6c1.14-.13 2.39-.34 4.17-.74 1.27-.3 2.03-.48 2.63-.77.84-.5 2.69-.36 3.5-.46 5.17-.66 9.37-.9 9.37-.9a56.7 56.7 0 0 0-3.63-.12m22.82.84c-1.08 0-2.36.11-3.84.41 0 0 1.62.36 4.1.46v-.86h-.26m-22.8.84c-3.17 0-5.68.32-8 .75-.7.13-1.9.52-2.6.52-.1 0-.19-.01-.26-.03a9.38 9.38 0 0 0-2.47.36c-1.57.5-3 1.34-3 1.34.98-.01 2.3-.26 3.05-.44a6.74 6.74 0 0 0 2.05-.78c.74-.41 2.56-.38 3.4-.5 5.68-.81 11.31-1.1 11.31-1.1-1.25-.08-2.4-.12-3.47-.12m22.8.65c-1.09 0-2.37.1-3.85.41 0 0 1.73.35 4.1.46v-.87h-.26m-23.29.92c-3.79 0-6.55.41-9.05.98-.81.18-2.25.7-3.07.7h-.14c-.51 0-1.27.11-1.73.28a32.63 32.63 0 0 0-2.45 1.04l.31.01c.69 0 1.73-.12 2.32-.28.42-.1.93-.38 1.31-.64.54-.36 2.35-.45 3.19-.6 6.11-1 13.28-1.36 13.28-1.36-1.44-.1-2.76-.13-3.97-.13m23.55.41c-1.69.1-3.82.34-6.44.53l-2.6.05s-3.1.13-5.6.86c0 0 1.3-.1 2.68-.1 1.23 0 2.53.08 3.03.37 0 0-4.02 1.12-5.01 1.71 0 0 2.33-.4 3.4-.54a58 58 0 0 1 4.03-.4h.1c1.37 0 2.57.17 3.32.36.73.17 1.01.34.57.34l-.27-.01c-.29-.02-.7-.04-1.21-.04-1.92 0-5.1.21-7.19 1.08 0 0 3.28-.61 6.53-.61 1.08 0 2.15.07 3.1.24.33.06 1 .7.38.7-.57-.05-1.11-.07-1.6-.07-2.23 0-3.6.38-3.6.38h.93c1.54 0 3.12.07 4.51.28.32.08.67.67.22.83a30.42 30.42 0 0 0-2.82-.14c-.58 0-.9.02-.9.02 1.32.2 1.97.3 3.34.65.38.03.3.25.2.32h.05a6.34 6.34 0 0 1-1.65.4c-.5 0-1.07-.16-1.68-.31a8.2 8.2 0 0 0-2.18-.31c-1.53.08-1.8 1.07-4.29 1.07-1.72 0-2.22-.6-4.24-.6-.9 0-2.1.12-3.84.47l1.38 1.3a7.48 7.48 0 0 1 1.78-.25c.64 0 1.22.11 1.82.32 1.1.38 2.08 1.55 4.05 1.55h.13c1.99-.06 2.4-1.22 3.8-1.22.31 0 .66.05 1.09.19.38.24 1.04.81 1.55.86l-.4.4a4.7 4.7 0 0 0-1.66-.36c-.72 0-1.46.27-1.75 1.23 0 0 .56-.56 1.6-.56.38 0 .8.07 1.29.26l-.24.27c-.52.6-1.6-.04-2.24 1-.42.7-.73 1.41-1.7 1.88-.33.15-.6.2-.86.2s-.51-.05-.78-.1c-.3-.05-.61-.1-.98-.1h-.1c-1.16.05-2.1 1.12-2.1 1.12s.87-.24 1.54-.24c.3 0 .57.05.69.2l.08.23-.23-.01a3.5 3.5 0 0 0-2.38.9s.93-.32 1.91-.32h.12c-.1.1-.12.22-.01.35.16.22.52.32.98.32a7.3 7.3 0 0 0 2.32-.49c1.46-.52 1.97-1.47 4.22-1.47l.42.01c1.01.05 1.53.32 1.86.63-1.32.11-2.6.36-2.6.36 1.15 0 2.84.4 3.34.54.19.18.42.3.79.36v-2.76l-.2-.16.2-.01v-.55a6 6 0 0 1-.69.05 6.8 6.8 0 0 1-.54-.7 7.6 7.6 0 0 0 1.23-.13v-.69c-.62.18-1.17.25-1.54.27a3.53 3.53 0 0 1-.32-.99c.67 0 1.26-.07 1.86-.28v-.81a6.1 6.1 0 0 1-1.84.47c.1-.34.34-.63.77-.8.4-.14.74-.34 1.07-.54v-9.26m-6.35 15.07c.75-.89 1.5-1.17 2.15-1.17 1.12 0 1.95.83 1.95.83a5.78 5.78 0 0 0-1.67-.25c-1.48 0-2.43.59-2.43.59m-15.16-13.96c-5.66 0-9.75.73-12.8 1.52-.84.22-2.09.71-2.79.71-.5.04-1.05.08-1.42.23-.85.32-1.9.87-1.9.87h.05c.48 0 1.42-.11 1.88-.24.38-.11.85-.27 1.26-.58.5-.3 2.4-.5 3.2-.64 7.14-1.28 16.84-1.74 16.84-1.74-1.54-.09-2.98-.13-4.33-.13m-.6 1.69c-8.13 0-13.53 1.57-16.28 2.6-.38.01-.84.15-1.1.26-.7.28-1.43.67-1.43.67h.03c.33 0 1.18-.12 1.54-.22.29-.08.68-.3.96-.51 6.74-1.77 20.52-2.66 20.52-2.66-1.49-.1-2.9-.14-4.25-.14m.3 1.92c-8.52 0-14.26 1.71-16.89 2.72-.4.06-.74.13-.97.23-.54.23-1.28.64-1.28.64h.08c.34 0 1.03-.14 1.32-.24.26-.08.44-.26.88-.45 6.62-1.84 21.1-2.76 21.1-2.76-1.48-.1-2.9-.14-4.24-.14m.56 1.81c-12.5 0-19.12 3.45-19.12 3.45 8.96-2.99 23.5-3.31 23.5-3.31-1.53-.1-2.99-.14-4.38-.14m-2.37 1.8c-10.58 0-16.54 3.12-16.54 3.12 6.16-2.58 21.66-2.88 21.66-2.88a56.38 56.38 0 0 0-5.12-.24m.58 1.48c-10.14 0-17.12 2.98-17.12 2.98 8.77-2.47 17.93-2.71 21.2-2.71l1.26.01c-1.86-.2-3.64-.28-5.34-.28m-.18 1.5c-10.13 0-16.96 3.03-16.96 3.03 9-2.54 17.07-2.83 20.29-2.83.95 0 1.48.03 1.48.03a50.45 50.45 0 0 0-4.81-.23m2.62 1.08c-2.96 0-5.93.44-7.45.71-8.68 1.04-12.43 2.95-12.43 2.95 5.74-1.63 10.3-2.49 13.45-2.95a118.71 118.71 0 0 1 10.43-.36 19.9 19.9 0 0 0-4-.35m-29.8.92c-.52 0-1.06.29-1.24.81-.38 1.1.82 2.07.82 2.07-.38-.75.33-.92.33-.92s.1.02.23.02c.36 0 1-.11.97-.94-.04-.7-.56-1.04-1.11-1.04m30.82.36c-1.87 0-3.6.2-4.62.36-11.71 1.05-16.24 3.57-16.24 3.57a93.9 93.9 0 0 1 15.27-3.39 72.41 72.41 0 0 1 10.12 0c-1.43-.4-3.03-.54-4.53-.54m3.5 1.26c-2.8 0-6.44.42-6.44.42 2.37-.06 4.2-.08 5.61-.08 2.81 0 3.88.08 3.88.08-.44-.32-1.64-.42-3.04-.42m-7.1.5c-10.26.64-16.8 3.91-16.8 3.91 8.68-3.14 16.8-3.9 16.8-3.9m7.65.73c-1.91 0-4.49.17-4.49.17 2.43.18 3.96.23 4.9.23 1.68 0 1.61-.17 1.61-.17-.04-.17-.92-.23-2.02-.23m15.54 1.02c-1.12.28-1.87.37-1.87.37a14.16 14.16 0 0 0 1.87.07v-.44m-24.31.08a35.12 35.12 0 0 0-13.02 3.03c6.73-2.43 13.02-3.03 13.02-3.03m9.32.08c-1.29 0-3 .17-3 .17 1.57.16 2.58.21 3.22.21 1.13 0 1.15-.15 1.15-.15-.06-.17-.65-.23-1.37-.23m.54 1.08c-.94 0-2.2.2-2.2.2 1.06.13 1.78.17 2.26.17.84 0 .96-.13.96-.13-.07-.18-.5-.24-1.02-.24m14.45.18c-1.14.3-1.92.42-1.92.42a13.38 13.38 0 0 0 1.92.05v-.47m-24.96.35c-4.49.25-7.13 1.67-7.13 1.67 3.77-1.07 7.13-1.67 7.13-1.67m11.59.53c-.57 0-1.34.16-1.34.16.64.1 1.08.14 1.37.14.51 0 .59-.1.59-.1-.05-.15-.3-.2-.62-.2m13.37.47c-1.37.4-2.32.53-2.32.53a13.34 13.34 0 0 0 2.32.05v-.58m-40.03.26a5.83 5.83 0 0 0-4.39 2.24c1.05-.76 2.62-.98 2.62-.98 0 .22-.53 1.43-1.57 2.34-1.15.98-1.48 3.1-1.48 3.1.49-.97 1.4-2.09 2.07-2.5 1.21-.76 1.53-2.26 1.84-2.26.02 0 .05 0 .07.03.47.4.7.81-.6 2.12-1.9 1.9-2.18 3.37-2.18 3.37s.87-1.52 2.73-3.04c2.4-1.99 1.08-4.42 1.08-4.42h-.19m40.03 1.18a17.7 17.7 0 0 1-2.43.56 12.44 12.44 0 0 0 2.43.05v-.6M124 139.17c-2.75 0-4.36 5.56-2.79 6.26.27.12.51.17.73.17 2.11 0 2.1-5.07 2.1-5.07s-.43 2.3-1.16 2.3a.41.41 0 0 1-.2-.06c-1.58-.88 1.36-3.6 1.36-3.6H124m60.25.37c-1.48.45-2.54.6-2.54.6a12.84 12.84 0 0 0 2.54.03v-.63m0 1.43c-1.53.48-2.65.63-2.65.63.56.06 1.07.1 1.53.1.4 0 .78-.03 1.12-.08v-.65m0 1.44c-1.59.5-2.75.65-2.75.65.54.07 1.03.1 1.48.1.47 0 .89-.03 1.27-.09v-.66m0 1.46c-1.59.5-2.75.66-2.75.66.58.08 1.1.12 1.58.12.43 0 .81-.03 1.17-.08v-.7m0 1.43c-1.64.54-2.85.7-2.85.7a11.07 11.07 0 0 0 2.85.02v-.72m-17.65 1.39c-3.12 0-5.6 1.29-5.6 1.29a20.4 20.4 0 0 1 5.71-.77c2.34 0 4 .34 4 .34a9.8 9.8 0 0 0-4.11-.86m17.65.08c-1.64.53-2.85.7-2.85.7a11.57 11.57 0 0 0 2.85.03v-.73m-16.36 1.32c-.72 0-1.22.06-1.22.06 2.42.06 3.88 1.46 4.92 1.74-.11.31-.45.43-.93.43-1.03 0-2.67-.54-3.97-.86a4.96 4.96 0 0 0-1.15-.12c-1.85 0-4 .79-4.62 1.32-.58.5-1.68.56-2.19.56l-.27-.01s3.6 2.4 6.92 2.78c.35.04.68.06 1 .06 2.83 0 4.89-1.32 4.89-1.32s-1.29 2.84-5.7 2.84h-.13c-4.52-.06-8.34-4.3-8.34-4.3-.1-.02-.19-.02-.29-.02a6.63 6.63 0 0 0-3.15 1.08s.14-.02.4-.02c.55 0 1.63.1 2.94.7l-4.02.52c.7.16 1.56.22 2.38.22 1.25 0 2.4-.12 2.69-.16l.34.23.69.48-5.04.45c1.7.24 3.08.3 4.12.3.9 0 1.56-.05 1.95-.09.51.28 1.12.55 1.83.78l-5.96.14c2.14.37 4.4.49 6.42.49a55.74 55.74 0 0 0 6-.32c.15-.02.28-.04.39-.04h.1c.5 0 .32.4.04.8-1.23.23-4.84.27-7.34.27l-2.54-.01c3.4.6 4.8.57 6.56.6 1.04 0 2.47.28 3.19.28 3.6 0 6.15-2.12 7.62-2.58a1.95 1.95 0 0 0-.76-.16c-.52-.04-1.16-.23-.4-.58.54-.24 1.35-.52 1.97-.76l-2.27.1h-.04c-.76 0-.7-.85-.37-.87a29.4 29.4 0 0 0 3.86-.6s-2.43-.11-4.05-.14c-.4 0 .07-.73.64-.76 1.54-.18 2.26-.56 2.26-.56-.52-.04-2.07-.07-3.01-.07-.62-.05-1.2-.8-.71-.8h.03a7.6 7.6 0 0 0 2.4-.33c-.51-.04-2.5-.22-3.36-.31v-.01c-.32-.03-1.1-.52-.68-.53a22.16 22.16 0 0 0 2.46-.27c-.58 0-3.2-.28-4.26-.41-.8-.18-1.61-.22-2.24-.22m-4.23 3.74c-.15 0-.35-.02-.57-.1-.9-.26-1.4-.66-1.4-.66a5.65 5.65 0 0 1 3.32-1.06c1.16 0 1.97.34 1.97.34s-.47-.06-1.1-.06c-.93 0-2.18.14-2.82.84h.13c.89 0 .85.65.85.65s-.14.05-.38.05m3.96-.23c-.3 0-.24-.22-.24-.5 0-.26-.05-.49.25-.49s.91.23.91.5-.6.49-.91.49m16.62-3.33c-1.59.5-2.75.66-2.75.66a12 12 0 0 0 1.56.1c.43 0 .83-.02 1.19-.07v-.69m-58.79.92c-5.17 5.83-.77 10.51-.77 10.51-2.17-6.48.77-10.5.77-10.5m58.79.6c-1.47.45-2.53.6-2.53.6a12.17 12.17 0 0 0 2.53.07v-.67m0 1.6a24.5 24.5 0 0 1-3.04.47 18.08 18.08 0 0 0 3.04.17v-.63m0 1.76c-2.07.32-3.48.42-3.48.42a37.95 37.95 0 0 0 3.48.1v-.52m0 1.57c-2.64.36-4.48.45-4.48.45a38.58 38.58 0 0 0 4.48.16v-.61m0 1.53c-2.02.28-3.4.35-3.4.35 1.3.14 2.4.2 3.4.2v-.55m-7.1.25c-.56 0-1.05.15-1.4.33a9 9 0 0 1-1.47.62 2.66 2.66 0 0 0 1.7-.22 8.8 8.8 0 0 1 1.72-.69 3.17 3.17 0 0 0-.54-.04m7.09 1.4c-1.02.1-1.64.14-1.64.14.59.04 1.13.07 1.64.08v-.23m-59.07 5s2.02 1.92 2.78 4.04c.77 2.12 1.1 2.66 1.64 3.27 0 0-.07.03-.2.03-.24 0-.72-.12-1.34-.82.2.34.66 1.28.01 2.59 0 0 1.01-1.06 2.47-1.06.89 0 1.94.4 3.03 1.65 0 0-1.8-2.56-1.14-4.14 0 0-.81 1.04-.76 1.96 0 0-1.42-.32-2.07-1.46-.66-1.15-1.14-4.14-4.42-6.05m59.07 1.11c-2.37.44-4 .6-4 .6h.29c1.4 0 2.63-.05 3.7-.16v-.44m0 1.95c-3.89.56-6.96.64-6.96.64 1.37.11 2.58.16 3.66.16 1.3 0 2.39-.07 3.3-.18v-.62m0 1.95c-4.45.58-7.93.65-7.93.65 1.54.11 2.9.16 4.11.16 1.5 0 2.76-.07 3.83-.19v-.62m0 2.07c-3.55.43-6.2.5-6.2.5 1.42.11 2.68.16 3.8.16.88 0 1.68-.03 2.4-.08V170m-41.74 1.2c-1.36.98-.98 2.5-.98 2.5-.99-.49-.82-1.95-.82-1.95-1.36 2.39 1.58 3.91 3.37 5.33 1.8 1.42 3.28 5.99 3.28 5.99-.23-4.08-2.95-6.8-4.03-8.11-1.1-1.31-.82-3.76-.82-3.76m41.74.86c-2.8.3-4.77.35-4.77.35a42.8 42.8 0 0 0 4.77.16v-.5m0 2c-2.4.24-4.04.28-4.04.28 1.39.12 2.61.16 3.7.16h.34v-.44m-53.18.36c-1.23 0-2.07.96-2.07.96a2.73 2.73 0 0 1 1.58-.56c1.7 0 3.11 1.91 4.08 3.88a4.02 4.02 0 0 0 3.73 2.2c.25 0 .4-.02.4-.02-2.39-2.66-1.62-6.16-1.62-6.16-1.3 3.06.05 5.18.05 5.18-1.63-.32-1.03-.92-3.54-3.97-.95-1.16-1.85-1.51-2.6-1.51m7.72.96c.12.82.93 2.34 2.5 3.05a4.87 4.87 0 0 1 2.24 2.56s-1.04-.76-2.01-.92c-1.58-.28-2.57-1.96-2.57-1.96s.39 2.23 2.73 2.77a5.1 5.1 0 0 1 2.94 2.12c-.16-2.44-1.3-4.57-3.1-5.33-1.8-.76-2.73-2.29-2.73-2.29m45.45.69c-2 .18-3.31.2-3.31.2a42 42 0 0 0 3.3.16v-.36m-51.81 2.52s.28 3.38 2.89 4.47c1.65.7 3.73.52 6.24 1.17h2.67c-.58-.4-1.26-.81-2.1-1.17-1.94-.81-2.73-1.52-2.73-1.52s.49 1.03.82 1.25c0 0-.78.07-1.71.07-1.02 0-2.22-.08-2.82-.45-1.14-.71-2.17-1.03-3.26-3.82m36.16.77c-6.53 0-7.13 4.57-7.13 4.57 1.53-3.8 7.25-4.57 7.25-4.57h-.12m8.6 1.1c-.28 0-.57.02-.86.04-2.86.25-4.72 2.28-5.7 3.73h.43a9.3 9.3 0 0 1 3.96-2.53 8.82 8.82 0 0 0-2.34 2.53h.5c2.17-1.92 4.13-1.98 4.37-1.98h.03a7.38 7.38 0 0 0-3 1.98h.6a6.8 6.8 0 0 1 3.82-1.28c1.52 0 2.79.62 3.7 1.28h1.23c-1-2.12-3.46-3.76-6.74-3.76m-6.05.64l-.03.04.03-.04m-.03.04h-.01m-1.91.27c-1.45 0-3.94.42-6.3 2.8h.57c1.3-.83 3.21-1.85 4.87-1.92 0 0-.91.46-1.58 1.93h.63a9.47 9.47 0 0 1 3.07-2.7s-.48-.11-1.26-.11" fill="url(#d)"/></g><g clip-path="url(#e)" transform="matrix(1.33333 0 0 -1.33333 -112.28 265.67)"><path d="M184.25 99.21h85.04v85.04h-85.04z" fill="url(#f)"/></g><path d="M171.51 76.7v16.45h8.8v2.5h-12.95V76.7h4.15M183.5 95.65h4.16V76.7h-4.16zM196.57 85.94c0 4.48 2.9 7.74 6.85 7.74 1.43 0 2.84-.5 3.94-1.4 1.56-1.31 2.34-3.2 2.34-5.68 0-4.67-2.84-7.9-6.9-7.9-3.69 0-6.23 2.96-6.23 7.24zm17.5.12c0 5.95-4.58 9.99-11.34 9.99-2.96 0-5.47-.84-7.3-2.4a9.58 9.58 0 0 1-3.23-7.32 9.04 9.04 0 0 1 3.65-7.48 11.95 11.95 0 0 1 7.71-2.51c6.32 0 10.5 3.89 10.5 9.72M222.7 85.51c1.59.07 1.95.07 2.18.07 3.15 0 4.58-1.1 4.58-3.53 0-1.46-.63-2.45-1.83-2.9-.59-.24-1.28-.33-2.77-.33-.8 0-.97 0-2.15.03zm-4.15-8.82c4.75-.08 7.11-.14 7.11-.14 3.14 0 4.55.24 5.8 1.02a4.69 4.69 0 0 1 2.36 4.24c0 2.48-1.88 4.38-4.8 5.24 2.63 5.45 4.8 7.2 7.17 7.02l.09.15-.3 1.2c-.1.39-.9.6-2.33.6-2.28 0-3.95-.93-5.51-3.08a37.3 37.3 0 0 1-2.93-5.3c-.54.03-.92.06-1.52.06-.33 0-.58 0-.98-.03v7.98h-4.16V76.7" fill="#fff"/><path d="M153.37 120.54c2.24 0 3.67-.35 4.62-1.13a3.64 3.64 0 0 0 1.34-2.87c0-1.5-.74-2.68-2-3.28-.86-.41-2.17-.6-4.08-.6h-2.48v7.85zm-.09-9.36c1.88 0 2.62-.19 3.34-.8a3.22 3.22 0 0 0 1.08-2.57c0-1.23-.46-2.15-1.3-2.72-.61-.38-1.42-.56-2.85-.56-.81 0-1.16 0-2.78.12v6.53zm-4.83-8.03l2.92-.05c1.08-.03 1.94-.03 2.39-.03 2.7 0 4.02.29 5.07 1.19.89.8 1.4 1.93 1.4 3.19 0 1.97-.92 3.19-3.01 3.99a6 6 0 0 1 2.65.92c1.25.85 2 2.34 2 3.94a5.43 5.43 0 0 1-3.19 4.95c-1.4.64-2.78.8-6.2.8h-4.03v-18.9M173 105.6l-3.71 8.89h7.03zm1.36-2.45l7.3 18.9h-2.54l-2.23-6.1h-8.23l-2.54 6.1h-2.39l8.78-18.9h1.85M186.5 103.15l12.89 15.03-.42-15.03h2.09l-.03 18.83-1.02.35-13.63-15.75.44 15.48h-2.08v-18.9h1.76M222.35 103.15l-9.7 8.4 10.16 10.5h-3.3l-9.6-10.1 9.43-8.8zm-14.91 0h2.33v18.9h-2.33z" fill="#ebb71d"/><path d="M150.34 88.84l3.3-8.24 3.05 8.24zm5.38-12.94h-6.4l-.22.19s-.49 1.6-.53 1.98c.06.76 3.66.07 3.66.07l-8.32 17.51h3.65l1.9-4.67h8.1l1.7 4.67h4.57l-8.11-19.75" fill="#fff"/></svg>
