<svg xmlns="http://www.w3.org/2000/svg" height="484.0773" width="352.3893"><path d="M269.596 35.064h27.656v368.7518H55.1047v-74.9797L269.596 35.064" fill="#fff200"/><path d="M54.9781 34.9773l.1266 293.2453L269.5827 35.064z" fill="#ed1c24"/><path d="M292.4333 39.956v358.8172H59.9557V39.956zM50 30v378.7278h252.3893V30H50" fill="#231f20"/><path d="M265.9787 40.004L50.49 334.3173l25.0416 1.1386L264.0853 79.7506l1.8934-39.7466" fill="#0994dc"/><path d="M239.3067 213.876l-99.0207-65.4134 106.8327-53.5013zm-6.108 108.8278l-73.1736.0204 36.7602-63.8429z" fill="#231f20"/><path d="M179.087 358.6466c.1646-15.06 33.3517-13.8292 47.037 0h-47.037" fill="#ed1c24"/><path d="M71.9235 435.9243h-.1271l-5.2724 8.7556h11.3708zm-8.0683 12.5915l-3.938 5.0813h-9.8458l18.676-24.736h7.2406l18.1683 24.736h-9.9735l-3.6844-5.0813H63.8552m62.1729.9907h13.2131v4.0906h-22.551v-24.0974h9.338v20.0068m51.4415 4.0906h-9.3374v-20.0053h-9.6558v-4.0921h28.6488v4.0921h-9.6556v20.0053m42.109-20.0053v5.3043h14.864v4.0916h-14.864v6.5188h15.436v4.0906h-24.7734v-24.0974h24.7734v4.0921h-15.436m41.3386-4.7306h6.732l25.2187 16.8427h.1267v-16.2042h9.3386v24.5776H295.6l-25.2187-16.8427h-.128v16.3625h-9.336v-24.736" fill="#231f20"/></svg>
