<svg xmlns="http://www.w3.org/2000/svg" viewBox="0 0 269.23 42.8">
    <g data-name="Layer 2">
        <path d="M.08 41.39l12-26.3a.92.92 0 0 1 .67-.42h.39a.89.89 0 0 1 .66.42l11.92 26.3a.69.69 0 0 1-.67 1h-2.47a.9.9 0 0 1-.9-.58l-2.42-5.35H6.49c-.78 1.8-1.61 3.55-2.39 5.35a1 1 0 0 1-.89.58H.74a.68.68 0 0 1-.66-1m17.7-8.28L13 22.4h-.19L8 33.11zM36.21 15.8a.75.75 0 0 1 .75-.74h8.9a8.72 8.72 0 1 1 0 17.43h-5.62v9.17a.77.77 0 0 1-.75.74H37a.75.75 0 0 1-.75-.74zm9.42 12.86a5 5 0 0 0 5-5 4.8 4.8 0 0 0-5-4.68h-5.39v9.69zM67.25 15.8a.74.74 0 0 1 .75-.74h8.9a8.72 8.72 0 1 1 0 17.43h-5.62v9.17a.77.77 0 0 1-.74.74H68a.74.74 0 0 1-.75-.74zm9.42 12.86a5 5 0 0 0 5-5 4.81 4.81 0 0 0-5-4.68h-5.39v9.69zM98.3 15.8a.74.74 0 0 1 .74-.74h2.58a.77.77 0 0 1 .74.74v23H113a.75.75 0 0 1 .74.75v2.14a.74.74 0 0 1-.74.74H99a.74.74 0 0 1-.74-.74zM122.45 41.39l12-26.3a.89.89 0 0 1 .66-.42h.39a.89.89 0 0 1 .66.42l11.92 26.3a.69.69 0 0 1-.66 1H145a.89.89 0 0 1-.9-.58l-2.43-5.35h-12.81c-.78 1.8-1.6 3.55-2.38 5.35a1 1 0 0 1-.9.58h-2.47a.68.68 0 0 1-.66-1m17.7-8.28l-4.8-10.71h-.2l-4.77 10.71zM157.4 15.8a.76.76 0 0 1 .73-.74h2.62a.75.75 0 0 1 .75.74v16.14c0 3.9 2.5 7 6.48 7s6.57-3 6.57-6.87V15.8a.74.74 0 0 1 .74-.74h2.62a.77.77 0 0 1 .74.74v16.41a10.63 10.63 0 0 1-21.25 0zM192 38.46c.35-.51.66-1.09 1-1.6a.88.88 0 0 1 1.33-.31c.24.19 3.24 2.69 6.25 2.69 2.7 0 4.42-1.64 4.42-3.63 0-2.34-2-3.83-5.9-5.43s-7.1-3.76-7.1-8.24c0-3 2.34-7.22 8.55-7.22a13.16 13.16 0 0 1 7.19 2.22.91.91 0 0 1 .24 1.32c-.32.47-.67 1-1 1.48a.92.92 0 0 1-1.37.39c-.27-.15-3-1.95-5.27-1.95-3.29 0-4.42 2.07-4.42 3.52 0 2.22 1.72 3.6 5 4.92 4.53 1.84 8.4 4 8.4 8.76 0 4.06-3.63 7.38-8.71 7.38a12.66 12.66 0 0 1-8.4-3.09c-.35-.31-.63-.58-.23-1.25M222.53 15.8a.74.74 0 0 1 .74-.74h15.63a.74.74 0 0 1 .74.74v2.19a.74.74 0 0 1-.74.74h-12.35v8H237a.77.77 0 0 1 .73.74v2.19a.74.74 0 0 1-.73.75h-10.45v8.39h12.35a.75.75 0 0 1 .74.75v2.14a.74.74 0 0 1-.74.74h-15.63a.74.74 0 0 1-.74-.74z" fill="#414142"/>
        <path d="M259.91 3.53a5.8 5.8 0 1 1-5.8 5.8 5.8 5.8 0 0 1 5.8-5.8m0-3.53a9.33 9.33 0 1 0 9.32 9.33A9.33 9.33 0 0 0 259.91 0z" fill="#127dc2"/>
    </g>
</svg>
