<svg xmlns="http://www.w3.org/2000/svg" height="78.24" width="113.76"><defs><clipPath id="a"><path d="M0 58.68h85.32V0H0z"/></clipPath></defs><path d="M97.887 46.489v-4.156H27.968l.001 19.653h69.915v-4.158H31.748v-11.34z" fill="#f68512"/><g clip-path="url(#a)" transform="matrix(1.33333 0 0 -1.33333 0 78.24)"><path d="M59.525 37.985a3.969 3.969 0 0 1-3.968 3.97H48.47V29.765h2.836v9.92H55.272c.785 0 1.42-.634 1.42-1.417v-8.503h2.833zM23.81 38.269a3.686 3.686 0 0 1-3.685 3.686h-7.652v-2.268h7.085c.784 0 1.418-.635 1.418-1.417v-1.135H15.59a3.683 3.683 0 1 1 0-7.368h8.22zm-7.652-6.235a1.416 1.416 0 1 0 0 2.834h4.818v-2.834zM32.03 32.032c-.783 0-1.418.635-1.418 1.42l.001 6.234h3.402v2.268h-3.402v4.536h-2.835v-4.536h-1.984v-2.268h1.984v-6.235a3.683 3.683 0 0 1 3.684-3.685h2.553v2.266zM41.46 39.687h4.176v2.268h-5.244c-2.739 0-4.959-2.728-4.959-6.095 0-3.364 2.22-6.093 4.959-6.093h5.244v2.267H41.46a3.04 3.04 0 0 0-3.033 2.836h7.209v2.266h-7.177a3.04 3.04 0 0 0 3.001 2.55M73.415 38.269a3.686 3.686 0 0 1-3.686 3.686h-7.652v-2.268h7.085c.784 0 1.418-.635 1.418-1.417v-1.135h-5.386a3.684 3.684 0 1 1 0-7.368h8.221zm-7.653-6.235c-.785 0-1.417.634-1.417 1.418 0 .78.632 1.416 1.417 1.416h4.818v-2.834z" fill="#110b09"/></g></svg>
