<svg xmlns="http://www.w3.org/2000/svg" height="128.8933" width="619.7733">
    <path d="M156.2947 50.4105c0-11.024-8.4174-19.7677-19.5547-19.7677-11.6536 0-19.563 9.05-19.563 19.7677 0 10.814 7.6975 19.9828 19.2363 19.9828 12.9187 0 19.7747-10.1084 19.8814-19.8729zM106.766 1.834h10.8276v29.4427c5.2052-7.3918 13.5235-10.6031 20.7956-10.7219 14.6854 0 28.716 10.9183 28.716 29.753 0 18.2058-12.8866 30.162-29.132 30.162-9.6504 0-17.152-4.6738-20.7962-11.4453v9.7767h-10.411V1.834M196.6533 22.1183h10.1894v8.311c3.2133-6.6557 9.1453-9.8672 16.8586-9.986v10.824h-.744c-10.1893 0-15.4933 5.6135-15.4933 16.85v30.573h-10.8107v-56.572" fill="#181210"/>
    <path d="M251.6573 7.1772c0 3.9677 3.204 7.1787 7.1747 7.1787 3.956 0 7.1587-3.211 7.1587-7.1787 0-3.9552-3.2027-7.1787-7.1587-7.1787-3.9707 0-7.1747 3.2235-7.1747 7.1787zm2.288 14.941h10.812v56.572h-10.812v-56.572M295.3507 30.5313h-10.1974v-8.413h10.1974V1.7225h10.8106v20.3958h10.9267v8.413h-10.9267v48.159h-10.8106v-48.159" fill="#00adef"/>
    <path d="M384.7333 45.4199c-.5226-7.5058-8.0093-15.9302-18.7133-15.7255-11.048 0-18.2053 8.0239-18.7293 15.7255zm-37.6546 8.4256c.5066 11.4312 10.508 17.2572 19.04 17.2572 7.5826 0 13.2053-3.6474 16.3253-9.5682h11.228c-2.696 6.2552-6.652 10.9291-11.44 14.0542-4.788 3.1962-10.4093 4.7692-16.1133 4.7692-18.5334 0-29.9414-14.8682-29.9414-29.8676 0-16.2038 12.6667-30.047 29.8427-30.047 8.0907 0 15.4933 3.0156 20.904 8.3312 6.6507 6.7584 9.4453 15.6038 8.5293 25.071h-48.3746M426.4413 22.1183h10.1974v8.724c2.712-5.8183 9.0373-10.5011 19.1386-10.399 18.092.2131 22.8947 13.3203 22.8947 25.0792v33.1678H467.74V48.0152c0-10.2025-3.9707-17.4839-14.9867-17.3615-10.6066.0866-15.4773 6.75-15.4773 16.5235v31.513h-10.8347v-56.572M557.5947 45.4199c-.4907-7.5058-8.008-15.9302-18.7134-15.7255-11.032 0-18.2066 8.0239-18.728 15.7255zm-37.6387 8.4256c.5227 11.4312 10.508 17.2572 19.0227 17.2572 7.6 0 13.2226-3.6474 16.344-9.5682h11.228c-2.6974 6.2552-6.668 10.9291-11.424 14.0542-4.7894 3.1962-10.4107 4.7692-16.148 4.7692-18.5 0-29.94-14.8682-29.94-29.8676 0-16.2038 12.6986-30.047 29.8426-30.047 8.1214 0 15.5094 3.0156 20.9187 8.3312 6.652 6.7584 9.4787 15.6038 8.532 25.071h-48.376M598.0373 30.5313H587.84v-8.413h10.1973V1.7225h10.836v20.3958h10.9014v8.413h-10.9014v48.159h-10.836v-48.159" fill="#181210"/>
    <path d="M0 40.3021c0 21.0652 17.0604 38.1443 38.1172 38.1443 21.0724 0 38.1177-17.079 38.1177-38.1443 0-21.0525-17.0453-38.1328-38.1177-38.1328C17.0604 2.1693 0 19.2496 0 40.3021" fill="#00adef"/>
    <path d="M142.1627 117.361c.024 2.4021 1.7053 4.5886 4.588 4.5886 1.2746 0 2.4506-.5292 3.268-1.3703.8413-.8396 1.3213-1.9933 1.2733-3.2917 0-1.2969-.504-2.4255-1.3213-3.2188-.816-.8172-1.9454-1.2979-3.22-1.2979-2.7627 0-4.588 2.1146-4.588 4.5651zm11.484 6.535h-2.4027v-2.2829c-.72 1.3453-2.1867 2.6667-4.8773 2.6667-4.1094 0-6.7027-3.1719-6.7027-6.9438 0-4.0599 2.9307-6.8957 6.6547-6.8957 2.6666 0 4.3013 1.4894 4.8293 2.5233v-6.8473h2.4987v17.7796M165.7973 117.3845c0 2.5948 1.9694 4.5411 4.468 4.5411 2.5 0 4.4694-1.9463 4.4694-4.5646 0-2.6203-1.9694-4.565-4.4694-4.565-2.4986 0-4.468 1.9447-4.468 4.565zm-2.4986-.0485c0-3.4833 2.5706-6.8957 6.9666-6.8957 4.3974 0 6.968 3.4124 6.968 6.9207 0 3.5073-2.5706 6.8959-6.968 6.8959-4.396 0-6.9666-3.3886-6.9666-6.8959v-.025M198.2987 117.336c0-2.5468-1.9467-4.565-4.5174-4.565-2.692 0-4.5173 2.0911-4.5173 4.565 0 2.499 1.7773 4.6136 4.4453 4.6136 2.9787 0 4.5654-2.3313 4.5894-4.5886zm-11.4374-11.2197h2.4987v6.7989c1.2013-1.7057 3.124-2.4505 4.8053-2.475 3.388 0 6.632 2.5234 6.632 6.8724 0 4.2047-2.98 6.9672-6.728 6.9672-2.2346 0-3.964-1.0802-4.8053-2.6432v2.2593h-2.4027v-17.7796M210.376 110.824h2.3547v1.9235c.7453-1.538 2.1146-2.2828 3.892-2.3072v2.4989h-.168c-2.3547 0-3.58 1.2979-3.58 3.8927v7.064h-2.4987V110.824M229.016 123.512l-4.9973-12.688h2.6906l3.604 9.5641 3.6534-9.5641h2.6906l-7.136 17.8297h-2.668l2.1627-5.1416M259.64 106.1163h2.524v9.8744l5.1173-5.1667h3.0267l-5.8147 5.7438 5.9827 7.3281h-2.9067l-5.4053-6.7276v6.7276h-2.524v-17.7796M279.504 106.1163h2.4987v17.7796h-2.4987v-17.7796M292.3547 110.824h2.4986v13.072h-2.4986zm0-4.7077h2.4986v2.6426h-2.4986v-2.6426M305.2053 110.824h2.3534v1.8505c.5533-1.1041 2.0666-2.2342 3.9653-2.2342 1.2013 0 2.4507.3609 3.364 1.3946.336.3355.696 1.0324.8413 1.273.216-.3848.48-.8406.9374-1.2979.84-.8412 2.0413-1.3697 3.4586-1.3697 1.2027 0 2.5467.3374 3.508 1.3218 1.1534 1.1771 1.4427 2.4271 1.4427 4.9255v7.2083h-2.5v-7.112c0-1.0822-.1427-2.163-.72-2.9078-.4573-.6729-1.1533-1.0801-2.3307-1.0801-1.1053 0-2.0426.4556-2.5226 1.2484-.5294.8177-.6014 1.5375-.6014 2.6432v7.2083h-2.5226v-7.2083c.024-1.0807-.096-1.874-.528-2.5953-.4814-.7683-1.2494-1.2735-2.4747-1.2963-1.1787-.025-2.0427.5515-2.476 1.2728-.48.697-.696 1.61-.696 2.6667v7.1604h-2.4987V110.824M337.104 117.409c.0227 1.9453 1.3933 4.5406 4.564 4.5406 1.996 0 3.412-1.1057 4.0613-2.5953.288-.6006.4334-1.2735.456-1.9453.0254-.6735-.096-1.3464-.384-1.9463-.6253-1.5147-2.0893-2.6918-4.1813-2.6918-2.7387 0-4.516 2.1631-4.516 4.6136zm11.5573 6.487h-2.4986v-2.2829c-.9147 1.7542-2.788 2.6667-4.8547 2.6667-4.204 0-6.7027-3.2667-6.7027-6.9188 0-3.9885 2.9067-6.9207 6.7027-6.9207 2.5947 0 4.252 1.441 4.8547 2.691v-2.3073h2.4986v13.072M359.9693 112.771h-2.3546v-1.947h2.3546v-4.7077h2.5v4.7077h2.5227v1.947h-2.5227v11.125h-2.5v-11.125M389.8747 117.361c.0226 2.4021 1.7053 4.5886 4.588 4.5886 1.2733 0 2.452-.5292 3.268-1.3703.8413-.8396 1.3226-1.9933 1.2733-3.2917 0-1.2969-.504-2.4255-1.3213-3.2188-.816-.8172-1.9467-1.2979-3.22-1.2979-2.7627 0-4.588 2.1146-4.588 4.5651zm11.484 6.535h-2.4027v-2.2829c-.72 1.3453-2.1853 2.6667-4.8773 2.6667-4.108 0-6.7027-3.1719-6.7027-6.9438 0-4.0599 2.9307-6.8957 6.6547-6.8957 2.668 0 4.3013 1.4894 4.8293 2.5233v-6.8473h2.4987v17.7796M413.5093 117.3845c0 2.5948 1.9707 4.5411 4.4694 4.5411 2.4986 0 4.468-1.9463 4.468-4.5646 0-2.6203-1.9694-4.565-4.468-4.565-2.4987 0-4.4694 1.9447-4.4694 4.565zm-2.4986-.0485c0-3.4833 2.5706-6.8957 6.968-6.8957 4.3973 0 6.968 3.4124 6.968 6.9207 0 3.5073-2.5707 6.8959-6.968 6.8959-4.3974 0-6.968-3.3886-6.968-6.8959v-.025M448.7467 110.824h2.3546v1.9235c.744-1.538 2.1147-2.2828 3.8934-2.3072v2.4989h-.1694c-2.3546 0-3.58 1.2979-3.58 3.8927v7.064h-2.4986V110.824M465.6573 117.3845c0 2.5948 1.9694 4.5411 4.468 4.5411 2.4987 0 4.4694-1.9463 4.4694-4.5646 0-2.6203-1.9707-4.565-4.4694-4.565-2.4986 0-4.468 1.9447-4.468 4.565zm-2.4986-.0485c0-3.4833 2.5693-6.8957 6.9666-6.8957 4.3974 0 6.9694 3.4124 6.9694 6.9207 0 3.5073-2.572 6.8959-6.9694 6.8959-4.3973 0-6.9666-3.3886-6.9666-6.8959v-.025M485.424 122.1173l6.632-9.3464h-6.44v-1.9469h9.204v1.972l-6.416 9.1536h6.6067v1.9463h-9.5867v-1.7786M502.6227 110.824h2.6186l3.076 9.8766 2.788-9.1067h2.0894l2.8346 9.1067 3.028-9.8766h2.5947l-4.3493 13.072h-2.3774l-2.812-9.1553-2.7386 9.1552h-2.3787l-4.3733-13.0719M532.3347 117.3845c0 2.5948 1.9706 4.5411 4.4693 4.5411 2.4987 0 4.4693-1.9463 4.4693-4.5646 0-2.6203-1.9706-4.565-4.4693-4.565-2.4987 0-4.4693 1.9447-4.4693 4.565zm-2.4987-.0485c0-3.4833 2.5707-6.8957 6.968-6.8957 4.3973 0 6.9693 3.4124 6.9693 6.9207 0 3.5073-2.572 6.8959-6.9693 6.8959-4.3973 0-6.968-3.3886-6.968-6.8959v-.025M553.952 106.1163h2.4987v2.6666h-2.4987zm2.4987 17.5635c0 2.5703-.336 4.9495-4.06 5.19-.216.0235-.456.0235-.696.0235v-1.9932c.1426 0 .288 0 .408-.025 1.7306-.1911 1.8493-1.513 1.8493-3.1234V110.824h2.4987v12.8558M579.1293 123.896h-2.3546v-2.0183c-.624 1.3453-2.0907 2.427-4.4214 2.402-4.204-.0228-5.2866-3.0754-5.2866-5.79v-7.6657h2.4986v7.0886c0 2.3557.9147 4.037 3.4854 4.037 2.4493-.024 3.58-1.5865 3.58-3.8203v-7.3053h2.4986v13.072" fill="#181210"/>
</svg>
