<svg xmlns="http://www.w3.org/2000/svg" height="186.6667" width="401.2533"><g fill="#e11937"><path d="M99.7317 36.0027c-36.5328 0-58.9322 28.5317-58.9322 57.3312 0 34.6666 28.2661 57.3328 59.1989 57.3328 20.5328 0 40.0003-9.0651 56.5323-23.7323v42.9323c-17.3334 10.4-41.0662 16.8-59.4656 16.8C44.266 186.6667 0 143.7333 0 93.3339 0 40.0027 44.5323.0027 97.3317.0027c20.2667 0 44.0003 6.1333 59.4656 13.8666v42.1323c-19.4653-12.799-39.1989-19.999-57.0656-19.999M268.7733 186.6667c-53.0653 0-97.864-41.3334-97.864-93.3328 0-52.5312 44.5334-93.3312 100.264-93.3312 20.2667 0 45.3334 5.3333 60.8 12.5333v41.8656c-17.5986-10.1336-40.2653-18.399-60-18.399-36.5306 0-60.2653 28.5318-60.2653 57.3313 0 33.8661 28 58.3994 60.7987 58.3994 6.9333 0 13.6-.5333 22.1333-3.7333v-33.5995h-29.864v-35.466h68.2653v94.3988c-19.4693 8.8-41.3333 13.3334-64.268 13.3334M362.8587 182.9333V3.736h38.3986v179.1973h-38.3986"/></g></svg>
