<svg xmlns="http://www.w3.org/2000/svg" height="821.5333" width="1435.5468"><path d="M1230.164 616.1507H205.3827V205.3853H1230.164v410.7654" fill="#fff"/><path d="M211.1987 211.2053v332.6014H1224.348V211.2053H211.1987" fill="#ee2423"/><path d="M211.1987 610.3307H1224.348v-49.8934H211.1987v49.8934" fill="#f78f1c"/><path d="M636.752 355.16c-19.8747 0-33.6107 15.8-33.6107 34.8027 0 19.0693 13.736 34.808 33.6107 34.808 13.5293 0 23.7293-7.2667 30.1333-17.2694l24.6067 16.0707c-11.3414 18.5333-31.212 30.532-55.4093 30.532-37.4734 0-65.0787-27.9987-65.0787-64.1413 0-36.072 27.6053-64.0787 65.0787-64.0787 24.1973 0 44.404 11.408 55.736 30.3427l-25.2014 16.536c-6.736-10.6694-16.336-17.6027-29.8653-17.6027zm-276.6453 0c-19.8667 0-33.6067 15.8-33.6067 34.8027 0 19.0693 13.74 34.808 33.6067 34.808 13.5306 0 23.7333-7.2667 30.1373-17.2694l24.6013 16.0707c-11.336 18.5333-31.2026 30.532-55.4093 30.532-37.464 0-65.0693-27.9987-65.0693-64.1413 0-36.072 27.6053-64.0787 65.0693-64.0787 24.2067 0 44.408 11.408 55.744 30.3427l-25.208 16.536c-6.7267-10.6694-16.3347-17.6027-29.8653-17.6027zm204.5613 13.8667c0 18.1333-10.3307 30.4093-22.936 35.6733l31.5413 47.2067h-37.6106l-33.136-51.876v51.876h-31.8694v-123.82h39.8054c34.804 0 54.2053 13.7373 54.2053 40.94zm496.4733 18.6l43.9427-59.54h-45.1374l-40.6773 57.0066v-57.0066H979.796v123.82h39.4733v-57.008l70.2133 90.5466c-17.2693 10.7334-38.0093 16.8054-60.5426 16.8054-63.7467 0-112.2867-48.4774-112.2867-112.288 0-63.7387 48.54-112.216 112.2867-112.216 63.744 0 112.28 48.4773 112.28 112.216 0 26.8066-8.6654 50.7413-23.0667 69.5466zm-275.7707-59.54h81.408v28.14h-49.5373V376.76h47.3413v26.0053h-47.3413v20.932h49.6733v28.2094h-81.544zM732.16 423.6973h42.8733v28.2094h-75.208v-123.82H732.16zm-220.7-32c12.6013 0 21.5987-6.2013 21.5987-19.0666 0-12.6-8.4627-18.2694-21.4014-18.2694h-9.1306v37.336zm-87.4093-63.6106H455.92v123.82h-31.8693v-123.82" fill="#fff"/><path d="M1266.4826 583.5893h-6.3533v7.8854h6.3533c2.796 0 4.4574-1.78 4.4574-3.9427 0-2.1667-1.6614-3.9427-4.4574-3.9427zm-6.3533 11.188v9.9267h-3.4373v-24.42h9.4093c4.956 0 8.2693 2.668 8.2693 7.248 0 3.9427-2.544 6.488-6.232 7.1133l7.12 10.0587h-4.064l-6.8733-9.9267zm4.7013-21.876c-10.8106 0-19.716 8.3934-19.716 19.9774 0 11.5773 8.9054 19.9706 19.716 19.9706 10.804 0 19.7134-8.3933 19.7134-19.9706 0-11.584-8.9094-19.9774-19.7134-19.9774zm0 43.2494c-12.5946 0-23.0266-9.7974-23.0266-23.272 0-13.4907 10.432-23.288 23.0266-23.288 12.5894 0 23.028 9.7973 23.028 23.288 0 13.4746-10.4386 23.272-23.028 23.272" fill="#ee2423"/></svg>
