<svg xmlns="http://www.w3.org/2000/svg" viewBox="0 0 1142.4732 595.8333" height="595.8333" width="1142.4733"><path d="M30 30h1024.7813v410.7653H30z" fill="#fff"/><path d="M35.812 35.8227h1013.1506v332.5986H35.812z" fill="#d92819"/><path d="M35.812 385.052h1013.1506v49.896H35.812z" fill="#eb8a00"/><path d="M461.3693 179.776c-19.8746 0-33.6146 15.8027-33.6146 34.8027 0 19.0733 13.74 34.8066 33.6146 34.8066 13.5254 0 23.7294-7.2653 30.1307-17.2653l24.6093 16.068c-11.344 18.536-31.2146 30.5307-55.412 30.5307-37.4733 0-65.0786-27.9947-65.0786-64.14 0-36.0734 27.6053-64.0787 65.0786-64.0787 24.1974 0 44.4067 11.4067 55.7347 30.344l-25.1987 16.536c-6.7386-10.6707-16.3386-17.604-29.864-17.604m-276.6453 0c-19.8707 0-33.6107 15.8027-33.6107 34.8027 0 19.0733 13.74 34.8066 33.6107 34.8066 13.5307 0 23.7333-7.2653 30.1347-17.2653l24.604 16.068c-11.3387 18.536-31.2027 30.5307-55.4107 30.5307-37.464 0-65.068-27.9947-65.068-64.14 0-36.0734 27.604-64.0787 65.068-64.0787 24.208 0 44.4053 11.4067 55.744 30.344l-25.208 16.536c-6.7293-10.6707-16.3333-17.604-29.864-17.604m204.5573 13.8653c0 18.1347-10.3293 30.4107-22.9333 35.6774l31.5427 47.2026H360.276l-33.136-51.8746v51.8746h-31.8693V152.704h39.8066c34.8027 0 54.204 13.7387 54.204 40.9373m496.4733 18.604l43.948-59.5413h-45.1413l-40.676 57.0053V152.704h-39.4747v123.8173h39.4747V219.516l70.2133 90.5467c-17.2706 10.7346-38.0106 16.8026-60.5413 16.8026-63.7507 0-112.2867-48.4746-112.2867-112.2866 0-63.74 48.536-112.2187 112.2867-112.2187 63.744 0 112.276 48.4787 112.276 112.2187 0 26.8066-8.6627 50.744-23.0627 69.5466zM609.984 152.704h81.4106v28.14h-49.536v20.532h47.3387v26.004h-47.3387v20.9333h49.672v28.208H609.984zm-53.208 95.6093h42.8746v28.208h-75.208V152.704h32.3334zm-220.6987-32c12.5987 0 21.5934-6.1986 21.5934-19.068 0-12.5986-8.4574-18.2653-21.4-18.2653H327.14v37.3333zm-87.4106-63.6093h31.8693v123.8173h-31.8693z" fill="#fff"/><path d="M1091.0986 408.208h-6.3546v7.8813h6.3546c2.796 0 4.4587-1.776 4.4587-3.9373 0-2.1667-1.6627-3.944-4.4587-3.944m-6.3546 11.188v9.9267h-3.4374v-24.4214h9.412c4.952 0 8.2707 2.6667 8.2707 7.2507 0 3.9373-2.5467 6.484-6.2347 7.1093l7.12 10.0614h-4.0626l-6.8747-9.9267zm4.7026-21.88c-10.812 0-19.7186 8.396-19.7186 19.9787 0 11.5786 8.9066 19.9693 19.7186 19.9693 10.8027 0 19.7147-8.3907 19.7147-19.9693 0-11.5827-8.912-19.9787-19.7147-19.9787m0 43.2493c-12.5986 0-23.0306-9.796-23.0306-23.2706 0-13.4894 10.432-23.2867 23.0306-23.2867 12.5894 0 23.0267 9.7973 23.0267 23.2867 0 13.4746-10.4373 23.2706-23.0267 23.2706" fill="#d92819"/><path d="M168.968 551.5627c2.5107 0 4.4427-.4587 5.792-1.3747 1.344-.9267 2.02-2.26 2.02-4v-.1667c0-1.6253-.6453-2.9066-1.9373-3.8546-1.2907-.9587-3.3067-1.4374-6.0414-1.4374H156.364v10.8334zm-2.3533-22.2494c2.5093 0 4.4266-.4173 5.7493-1.2506 1.3173-.844 1.9787-2.1347 1.9787-3.8747v-.1667c0-1.6253-.6187-2.8653-1.8534-3.7293-1.24-.8747-3.084-1.312-5.5413-1.312h-10.584v10.3333zm-26.1254-23.4386h30.1454c3.708 0 6.8746.4533 9.5 1.3546 2.636.8907 4.8226 2.2027 6.5626 3.9374 1.1667 1.1666 2.0827 2.5373 2.7494 4.104.6773 1.5733 1.0213 3.3653 1.0213 5.376v.1666c0 3.416-.8533 6.1814-2.5627 8.2907-1.708 2.1-3.8746 3.704-6.5 4.8133 3.584 1.1814 6.4227 2.8747 8.5214 5.0827 2.0933 2.208 3.1453 5.308 3.1453 9.292v.1667c0 5.0986-1.948 9.0786-5.8333 11.9373-3.8907 2.8493-9.364 4.2707-16.416 4.2707h-30.3334zM227.004 565.7507c-4.1973 0-7.9733-.532-11.3333-1.584-3.364-1.068-6.224-2.708-8.5827-4.916-2.3493-2.208-4.156-5.0054-5.4173-8.396-1.2494-3.3854-1.8747-7.38-1.8747-11.98v-33h16.5413v32.6666c0 4.2507.98 7.4067 2.9387 9.4587 1.9573 2.0427 4.588 3.0627 7.8947 3.0627 3.3026 0 5.9386-.9787 7.896-2.9374 1.9586-1.9586 2.9373-5.0106 2.9373-9.1666v-33.084h16.5627v32.584c0 4.7653-.6614 8.8693-1.9787 12.312-1.3227 3.448-3.1773 6.272-5.5627 8.48-2.3746 2.208-5.26 3.848-8.6453 4.916-3.3907 1.052-7.1827 1.584-11.376 1.584zM287.3227 565.6667c-5.2654 0-10.2654-.8067-15-2.416-4.74-1.6254-8.928-4.0627-12.5627-7.3134l9.0827-10.8333c5.876 4.6987 12.2293 7.0427 19.0626 7.0427 2.1774 0 3.844-.344 5-1.0427 1.152-.708 1.7294-1.6973 1.7294-2.9787v-.1666c0-.6254-.1454-1.172-.4374-1.6454-.2813-.4693-.8026-.928-1.5626-1.376-.7494-.4573-1.76-.8946-3.02-1.312-1.2507-.4173-2.8867-.8546-4.896-1.312-3.1414-.7186-6.0574-1.5106-8.7507-2.376-2.6827-.8746-5.016-1.9893-7-3.3533-1.9893-1.376-3.5573-3.084-4.708-5.1253-1.156-2.052-1.7293-4.5934-1.7293-7.6254v-.1666c0-2.7347.5213-5.2494 1.5626-7.5414 1.0414-2.3026 2.552-4.2973 4.5414-5.9786 1.984-1.6774 4.3746-2.98 7.1666-3.896 2.8027-.928 5.9694-1.396 9.5-1.396 5.0414 0 9.532.6613 13.4787 1.9786 3.944 1.3227 7.5107 3.2654 10.7093 5.8334l-8.1466 11.5213c-2.6814-1.9173-5.4374-3.36-8.2707-4.3333-2.8333-.984-5.5627-1.4787-8.1867-1.4787-1.9586 0-3.4333.3693-4.4173 1.104-.9733.724-1.4587 1.6187-1.4587 2.6867v.1666c0 .6667.152 1.2614.4587 1.7707.3027.5.8333.9587 1.584 1.376.76.416 1.796.8427 3.104 1.2707 1.3173.416 2.984.848 5 1.292 3.3587.7226 6.4013 1.5773 9.1253 2.5613 2.7187.9907 5.0307 2.1827 6.9374 3.584 1.9 1.3907 3.3533 3.0773 4.3533 5.0627 1.0107 1.9893 1.5213 4.3533 1.5213 7.104v.1666c0 3.0307-.5786 5.724-1.7293 8.0827-1.14 2.3493-2.7493 4.3493-4.8333 6-2.0734 1.6413-4.5627 2.896-7.4787 3.772-2.9067.8587-6.1467 1.2907-9.7293 1.2907zM319.3227 505.8747h16.3746v58.792h-16.3746zM346.4573 505.8747h15.2094l24.1866 31.0626v-31.0626h16.1254v58.792H387.708l-25.1253-32.2494v32.2494h-16.1254zM412.3947 505.8747h47.292v13.8546H428.52v8.896h28.2293V541.48H428.52v9.3333h31.584v13.8534h-47.7093zM491.5253 565.6667c-5.2653 0-10.2653-.8067-15-2.416-4.74-1.6254-8.9266-4.0627-12.5626-7.3134l9.084-10.8333c5.8746 4.6987 12.2293 7.0427 19.0626 7.0427 2.176 0 3.8427-.344 5-1.0427 1.1507-.708 1.728-1.6973 1.728-2.9787v-.1666c0-.6254-.1453-1.172-.4373-1.6454-.2813-.4693-.8013-.928-1.5627-1.376-.7493-.4573-1.76-.8946-3.02-1.312-1.2506-.4173-2.8853-.8546-4.896-1.312-3.1413-.7186-6.0573-1.5106-8.7506-2.376-2.6814-.8746-5.0147-1.9893-7-3.3533-1.9894-1.376-3.556-3.084-4.708-5.1253-1.156-2.052-1.7294-4.5934-1.7294-7.6254v-.1666c0-2.7347.5214-5.2494 1.5627-7.5414 1.0413-2.3026 2.552-4.2973 4.5413-5.9786 1.9854-1.6774 4.376-2.98 7.1667-3.896 2.8027-.928 5.9693-1.396 9.5-1.396 5.0427 0 9.532.6613 13.48 1.9786 3.9427 1.3227 7.5107 3.2654 10.708 5.8334l-8.1453 11.5213c-2.6827-1.9173-5.4374-3.36-8.2707-4.3333-2.8333-.984-5.5627-1.4787-8.188-1.4787-1.9587 0-3.432.3693-4.4173 1.104-.9734.724-1.4574 1.6187-1.4574 2.6867v.1666c0 .6667.1507 1.2614.4574 1.7707.3026.5.8333.9587 1.584 1.376.76.416 1.7973.8427 3.104 1.2707 1.3173.416 2.984.848 5 1.292 3.36.7226 6.4013 1.5773 9.1253 2.5613 2.7187.9907 5.0307 2.1827 6.9373 3.584 1.9014 1.3907 3.3547 3.0773 4.3547 5.0627 1.0093 1.9893 1.52 4.3533 1.52 7.104v.1666c0 3.0307-.5773 5.724-1.7293 8.0827-1.14 2.3493-2.7494 4.3493-4.8334 6-2.072 1.6413-4.5626 2.896-7.4786 3.772-2.9067.8587-6.1454 1.2907-9.7294 1.2907zM546.296 565.6667c-5.2653 0-10.2653-.8067-15-2.416-4.7387-1.6254-8.9267-4.0627-12.5627-7.3134l9.084-10.8333c5.8747 4.6987 12.2294 7.0427 19.0627 7.0427 2.1773 0 3.844-.344 5-1.0427 1.1506-.708 1.7293-1.6973 1.7293-2.9787v-.1666c0-.6254-.1467-1.172-.4387-1.6454-.28-.4693-.8013-.928-1.5613-1.376-.7507-.4573-1.7613-.8946-3.0213-1.312-1.2507-.4173-2.8853-.8546-4.896-1.312-3.14-.7186-6.0573-1.5106-8.7493-2.376-2.6827-.8746-5.016-1.9893-7-3.3533-1.9907-1.376-3.5574-3.084-4.7094-5.1253-1.156-2.052-1.7293-4.5934-1.7293-7.6254v-.1666c0-2.7347.5213-5.2494 1.5627-7.5414 1.0426-2.3026 2.552-4.2973 4.5426-5.9786 1.984-1.6774 4.3747-2.98 7.1667-3.896 2.8013-.928 5.968-1.396 9.5-1.396 5.0413 0 9.5306.6613 13.4786 1.9786 3.9427 1.3227 7.5107 3.2654 10.708 5.8334l-8.1453 11.5213c-2.6827-1.9173-5.4373-3.36-8.2707-4.3333-2.8333-.984-5.5626-1.4787-8.188-1.4787-1.9586 0-3.432.3693-4.416 1.104-.9746.724-1.4586 1.6187-1.4586 2.6867v.1666c0 .6667.1507 1.2614.4587 1.7707.3013.5.8333.9587 1.5826 1.376.76.416 1.7974.8427 3.104 1.2707 1.3174.416 2.984.848 5 1.292 3.36.7226 6.4013 1.5773 9.1253 2.5613 2.7187.9907 5.0307 2.1827 6.9374 3.584 1.9013 1.3907 3.3546 3.0773 4.3546 5.0627 1.0107 1.9893 1.52 4.3533 1.52 7.104v.1666c0 3.0307-.5773 5.724-1.7293 8.0827-1.14 2.3493-2.7493 4.3493-4.8333 6-2.072 1.6413-4.5614 2.896-7.4787 3.772-2.9067.8587-6.1453 1.2907-9.7293 1.2907zM629.5413 565.8333c-4.208 0-8.1613-.7493-11.8547-2.2493-3.6973-1.5107-6.9066-3.6253-9.6253-6.3333-2.708-2.7187-4.864-5.9427-6.4573-9.6667-1.6-3.7347-2.396-7.7813-2.396-12.1467v-.1666c0-4.26.7813-8.2547 2.3533-11.9787 1.568-3.7187 3.72-6.964 6.4587-9.7293 2.7506-2.776 6.0106-4.948 9.792-6.52 3.776-1.568 7.9066-2.3547 12.396-2.3547 3.0253 0 5.7706.3013 8.2293.896 2.468.5827 4.7293 1.4267 6.7707 2.52 2.0413 1.084 3.8853 2.3853 5.5413 3.896 1.6507 1.516 3.1253 3.1667 4.4173 4.9587l-12.272 9.4786c-1.6813-2.124-3.5306-3.796-5.5413-5.02-2.016-1.2346-4.4533-1.8546-7.312-1.8546-2.0733 0-3.9587.412-5.6667 1.2293-1.708.8067-3.1826 1.912-4.4173 3.312-1.2387 1.3907-2.2027 3.0427-2.896 4.9587-.6973 1.9066-1.0413 3.9173-1.0413 6.0413v.1667c0 2.1826.344 4.24 1.0413 6.1666.6933 1.9334 1.6573 3.6 2.896 5 1.2347 1.4067 2.7093 2.516 4.4173 3.3334 1.708.808 3.5934 1.2093 5.6667 1.2093 1.5107 0 2.896-.1667 4.1453-.5 1.26-.344 2.4067-.8387 3.4374-1.48 1.0426-.6347 2.0266-1.3853 2.9586-2.2493.9267-.876 1.8387-1.844 2.7294-2.9174l12.2706 8.7294c-1.4066 1.9066-2.932 3.6666-4.5826 5.292-1.6574 1.6253-3.532 3.0306-5.6254 4.208-2.0986 1.1826-4.4533 2.104-7.0626 2.7706-2.5987.6667-5.5214 1-8.7707 1zM662.5466 505.8747h47.2907v13.8546h-31.1667v8.896H706.9V541.48h-28.2294v9.3333h31.584v13.8534h-47.708zM718.5773 505.8747h15.208l24.188 31.0626v-31.0626h16.1253v58.792H759.828l-25.1254-32.2494v32.2494h-16.1253zM798.8693 520.1467H781.244v-14.272h51.5626v14.272h-17.6253v44.52h-16.312zM867 534.084c2.8013 0 4.9626-.6253 6.4786-1.876 1.5107-1.26 2.2707-2.9573 2.2707-5.0827v-.1666c0-2.36-.7867-4.1094-2.3547-5.2494-1.572-1.152-3.728-1.7293-6.4786-1.7293h-10.6667v14.104zm-27.0427-28.2093h27.8133c4.5254 0 8.3587.5626 11.5 1.688 3.1347 1.1146 5.6867 2.6773 7.6454 4.688 3.4693 3.364 5.208 7.9266 5.208 13.6866v.1667c0 4.5427-1.0987 8.3027-3.2907 11.272-2.1827 2.9573-5.12 5.2227-8.8133 6.7907l14.0413 20.5H875.228l-11.8334-17.812h-7.1453v17.812h-16.292zM900.3533 505.8747h47.292v13.8546h-31.1667v8.896h28.2294V541.48h-28.2294v9.3333h31.5827v13.8534h-47.708z"/></svg>
