<svg id="Warstwa_1" xmlns="http://www.w3.org/2000/svg" xmlns:xlink="http://www.w3.org/1999/xlink" viewBox="0 0 910.7 328"><style>.st0{fill:#0e1022}.st1{fill:#a71916}</style><g><path class="st0" d="M486,186.5c-14.9-1.5-19.8-8.1-19.8-13.3c0-5.1,6-11,17.2-11c11.3,0,20.8,6.1,28.1,12c1.3,1.1,2.5,1,3.4-0.2 l8.2-10.1c0.8-1.1,0.7-2.1-0.5-2.9c-10.5-8.7-23.9-13.6-38.2-13.6c-17.2,0-30.6,6.7-35.2,17.7c-5.9-9.9-17.2-16.4-30.6-16.4h-30.3 c-3.6,0-6.8,1.5-9,4v-4h-75.9c-1.1,0-2.3,1-2.3,2.3v20.8c-7.6-14.2-22.9-23.1-40.5-23.1h-16.7c-11.3,0-20.4,9.1-20.4,20.4v1.4 c-8-14.1-23.3-23.2-40.8-23.2c-16.4,0-30.9,8-39.3,20.5c-8-13-23.4-20.5-38.5-20.5c-26.1,0-46.1,19.3-46.1,45.6S78.7,239,104.9,239 c16.1,0,30.1-7,38.5-20.3c8.4,12.5,22.9,20.3,39.3,20.3c17.4,0,32.7-9,40.8-23v1.2c0,11.3,9.1,20.4,20.4,20.4h16.7 c17.6,0,32.9-8.8,40.5-23.1v5.8c0,9.5,7.7,17.3,17.3,17.3h52.5c1.3,0,2.3-1,2.3-2.3v-13.2c0-1.3-1-2.3-2.3-2.3h-45.5 c-3,0-5.4-2.4-5.4-5.4V206c0-3,2.4-5.4,5.4-5.4h38.1c1.3,0,2.3-1,2.3-2.3V183h-40.1c-3.1,0-5.7-2.5-5.7-5.7v-5.4 c0-3.1,2.5-5.7,5.7-5.7h50.4v71.4h19v-20.5c0-1.8,1.4-3.2,3.2-3.2h19.7c0,0,0,0,0,0c1.6,0,3.1,0.9,3.9,2.4l9.7,19.7 c0.7,1.1,1.6,1.6,2.9,1.6h16c1.3,0,2.1-1.1,1.5-2.3l-4.5-8.6c11.2,8.7,23.5,12.2,38.9,12.2c22.4,0,39.1-10.3,39.1-28.1 C525.4,192.3,508.9,188.6,486,186.5z M133.2,207.3c-1-0.8-1.8-0.8-2.6,0c-10,14.7-22.7,16.2-45,11c-16.7-28.2-4.7-53,19.3-53 c11.1,0,18.5,4.1,25.2,13.2c0.7,0.8,2,1.5,3.1,0.3l7-5.3c-2.8,5.9-4.4,12.6-4.4,19.7c0,7.1,1.5,13.7,4.3,19.5L133.2,207.3z M204.4,215c-27,15-49.5,0.9-49.5-21.7c0-16.5,11.4-28.1,27.8-28.1C205.3,165.1,218.7,187.9,204.4,215z M260.6,219.6L260.6,219.6 c-10,0-18.1-8.1-18.1-18.1v-34.8h18.1c16.2,0,26.6,10.1,26.6,26.5S276.7,219.6,260.6,219.6z M418.6,196H395v-17.6 c0-6.5,5.3-11.8,11.8-11.8h11.7c10.3,0,16,6.2,16,14.5C434.6,189.5,428.9,196,418.6,196z M486.7,225c-12.9,0-21.4-6.7-30.4-13.7 c-1.1-1-2.3-0.8-3.3,0.5l-7.7,10.3c-0.1,0.1-0.2,0.2-0.2,0.3l-7.3-13.9c7.4-4.3,12.9-11.5,14.9-20.1c6.2,6.1,17.3,7.8,31.5,9 c16.5,1.5,22.4,7.6,22.4,13.9C506.6,217.3,500.4,225,486.7,225z"/><path class="st0" d="M644.4,148.6h-13.7H630h-15.8c-1.5,0-2.6,0.7-3.1,2.1L599,180.5l-13.9,36.9h-1l-14.1-36.8l-12.7-29.7 c-0.7-1.5-2-2.3-3.9-2.3h-15.2c-1.8,0-2.5,1.1-1.8,2.6l37.3,84.8c0.5,1.1,1.5,1.6,2.6,1.6h15.5c1.1,0,2-0.5,2.5-1.6l33.5-75.2v74.5 c0,1.5,0.8,2.3,2.3,2.3h14.4c1.5,0,2.3-0.8,2.3-2.3v-84.5C646.7,149.5,645.9,148.6,644.4,148.6z"/><path class="st0" d="M853.7,148.6h-16.3c-1,0-1.6,0.5-2,1.6L818.3,214h-1.1L800,150.1c-0.3-1-1-1.5-2.1-1.5h-14.7 c-1,0-1.6,0.5-2,1.5l-16.3,64.4h-1.1l-17.8-64.4c-0.2-1-1-1.5-2.1-1.5h-12.2h-5h-70.9c-1.1,0-2.3,1-2.3,2.3v69.5 c0,9.5,7.7,17.3,17.3,17.3h52.5c1.3,0,2.3-1,2.3-2.3v-13.2c0-1.3-1-2.3-2.3-2.3h-45.5c-3,0-5.4-2.4-5.4-5.4V206 c0-3,2.4-5.4,5.4-5.4h38.1c1.3,0,2.3-1,2.3-2.3V183H678c-3.1,0-5.7-2.5-5.7-5.7v-5.4c0-3.1,2.5-5.7,5.7-5.7h51.3 c0.4,0,0.8-0.1,1.1-0.3l23,69.9c0.3,1.1,1.1,1.8,2.5,1.8H773c1.1,0,2-0.5,2.1-1.5l14.7-57.2h1.1l14.7,57c0.3,1.1,1.1,1.6,2.3,1.6 h16.8c1.5,0,2.3-0.7,2.6-1.8l27.8-85.2C855.7,149.3,855.2,148.6,853.7,148.6z"/><path class="st1" d="M194.7,205.3c-15,8.3-27.6,0.5-27.6-12.1c0-9.2,6.4-15.7,15.5-15.7C195.3,177.6,202.7,190.2,194.7,205.3z"/></g><g><g><g><path class="st1" d="M466.4,69.6c-9.3,5.2-17.1,0.3-17.1-7.5c0-5.7,4-9.7,9.6-9.7C466.7,52.3,471.3,60.2,466.4,69.6z"/><path class="st0" d="M459.1,33.9c16,0,28.1,12.2,28,28.3c-0.1,16-12.2,28-28.4,28c-15.9,0-28.2-12.4-28.1-28.3 C430.6,46.1,443.1,33.8,459.1,33.9z M437.9,62.1c0,11.7,9.3,21.2,21,21.2c11.5,0,21.2-9.6,21.2-21.1c0.1-11.8-9.7-21.5-21.4-21.4 C447.1,40.9,437.9,50.3,437.9,62.1z"/></g><path class="st0" d="M567.4,147.4h-42.1c0,0-0.1,0,0-0.1c1.2-2.9,1-6.5-1.2-9.4l-18.7-24.2c-0.9-1.2-2-2.1-3.3-2.7c0,0,0,0,0,0 l0.5-7.5c0.3-4.1-3-7.6-7.1-7.6H421c-4.2,0-7.5,3.6-7.1,7.8l0.8,7.8c0,0,0,0,0,0c-0.9,0.6-1.6,1.3-2.3,2.1l-18.7,24.2 c-2.3,2.9-2.5,6.5-1.2,9.4c0,0-42.1,0.1-42.1,0.1c-1.5,0-2.9,1.1-3,2.6c-0.1,1.7,1.2,3.1,2.8,3.1H401h17.7h38.7h2.8h38.9h17.6 h50.9c1.7,0,3-1.4,2.8-3.1C570.3,148.4,568.9,147.4,567.4,147.4z M396.5,147c0-5.3,4.3-9.7,9.7-9.7s9.7,4.3,9.7,9.7H396.5z M492.7,133.6c-2.1,11.9-2.2,11.9-13.9,11.9c-15.6,0-31.1-0.1-46.7,0.1c-4.3,0.1-6.5-0.6-7.1-5.7c-1.8-13.1-4.3-26-6.6-39.8 c0,0,0-0.1,0-0.1h79.9c0,0,0.1,0,0,0.1C496.4,111.6,494.7,122.6,492.7,133.6z"/></g><g><path class="st0" d="M742.4,147.4h-27.1c0,0-0.1,0,0-0.1c1.2-2.9,1-6.5-1.2-9.4l-18.7-24.2c-0.9-1.2-2-2.1-3.3-2.7c0,0,0,0,0,0 l0.5-7.5c0.3-4.1-3-7.6-7.1-7.6H611c-4.2,0-7.5,3.6-7.1,7.8l0.8,7.8c0,0,0,0,0,0c-0.9,0.6-1.6,1.3-2.3,2.1l-18.7,24.2 c-2.3,2.9-2.5,6.5-1.2,9.4c0,0-42.1,0.1-42.1,0.1c-1.5,0-2.9,1.1-3,2.6c-0.1,1.7,1.2,3.1,2.8,3.1H591h17.7h38.7h2.8h38.9h17.6 h35.9c1.7,0,3.5-1.3,3.1-3C745.3,148.6,743.9,147.4,742.4,147.4z M586.5,147c0-5.3,4.3-9.7,9.7-9.7s9.7,4.3,9.7,9.7H586.5z M682.7,133.6c-2.1,11.9-2.2,11.9-13.9,11.9c-15.6,0-31.1-0.1-46.7,0.1c-4.3,0.1-6.5-0.6-7.1-5.7c-1.8-13.1-4.3-26-6.6-39.8 c0,0,0-0.1,0-0.1h79.9c0,0,0.1,0,0,0.1C686.4,111.6,684.7,122.6,682.7,133.6z"/><path class="st1" d="M657.6,95.9c-1.4-3.4-4.6-5.6-8.7-5.6c-4.1,0-7.4,2.2-8.8,5.6H657.6z"/><path class="st0" d="M628.3,95.9c1.9-9.8,10.2-17.1,20.5-17.1c10.2-0.1,19,7.4,21,17.1h7.1c-1.9-13.9-13.2-24-27.7-24.1 c-14.6,0-26.3,10.2-28.2,24.1H628.3z"/></g><g><path class="st0" d="M373.9,147.4h-42.1c0,0-0.1,0,0-0.1c1.2-2.9,1-6.5-1.2-9.4l-18.7-24.2c-0.9-1.2-2-2.1-3.3-2.7c0,0,0,0,0,0 l0.5-7.5c0.3-4.1-3-7.6-7.1-7.6h-74.4c-4.2,0-7.5,3.6-7.1,7.8l0.8,7.8c0,0,0,0,0,0c-0.9,0.6-1.6,1.3-2.3,2.1l-18.7,24.2 c-2.3,2.9-2.5,6.5-1.2,9.4c0,0-18.1,0.1-18.1,0.1c-1.5,0-2.9,1.1-3,2.6c-0.1,1.7,1.2,3.1,2.8,3.1h26.9h17.7H264h2.8h38.9h17.6 h50.9c1.7,0,3-1.4,2.8-3.1C376.8,148.4,375.4,147.4,373.9,147.4z M203,147c0-5.3,4.3-9.7,9.7-9.7s9.7,4.3,9.7,9.7H203z M299.2,133.6c-2.1,11.9-2.2,11.9-13.9,11.9c-15.6,0-31.1-0.1-46.7,0.1c-4.3,0.1-6.5-0.6-7.1-5.7c-1.8-13.1-4.3-26-6.6-39.8 c0,0,0-0.1,0-0.1h79.9c0,0,0.1,0,0,0.1C302.9,111.6,301.2,122.6,299.2,133.6z"/><path class="st0" d="M284.3,95.9c-4.9-4.3-11.4-6.9-18.7-6.9c-7.3,0-13.9,2.6-18.9,6.9H284.3z"/></g></g><g><path class="st0" d="M81.3,260.4c0.2,0.2,0.2,0.6-0.1,0.8l-1.3,1.1c-0.2,0.2-0.6,0.1-0.8-0.1c-1.9-2.4-4.7-3.8-7.7-3.8 c-5.5,0-9.6,4.3-9.6,9.8c0,5.6,4,9.8,9.6,9.8c3.1,0,5.9-1.3,7.8-3.7c0.2-0.2,0.6-0.3,0.8-0.1l1.3,1.1c0.3,0.2,0.4,0.5,0.1,0.8 c-2.5,3.1-5.9,4.6-10,4.6c-7.2,0-12.5-5.2-12.5-12.5c0-7.2,5.6-12.4,12.5-12.4C75.4,255.8,78.8,257.4,81.3,260.4z"/><path class="st0" d="M282.6,256.1c0.4,0,0.6,0.2,0.6,0.6v23c0,0.4-0.2,0.6-0.6,0.6h-1.7c-0.4,0-0.6-0.2-0.6-0.6v-11.5l0.2-8.9 l-0.2,0l-3.7,8.8l-5.4,11.7c-0.1,0.3-0.4,0.6-0.8,0.6h-1.2c-0.4,0-0.7-0.3-0.8-0.6l-5.5-12l-3.7-8.5l-0.2,0l0.2,8.4v12 c0,0.4-0.2,0.6-0.6,0.6h-1.8c-0.4,0-0.6-0.2-0.6-0.6v-23c0-0.4,0.2-0.6,0.6-0.6h3.3c0.4,0,0.7,0.2,0.8,0.6l5.2,11.1l3.6,8.6h0.3 l4.2-9.8l4.4-9.9c0.2-0.4,0.4-0.6,0.8-0.6H282.6z"/><path class="st0" d="M386.2,256.1c0.4,0,0.6,0.2,0.6,0.6v23c0,0.4-0.2,0.6-0.6,0.6h-1.7c-0.4,0-0.6-0.2-0.6-0.6v-11.5l0.2-8.9 l-0.2,0l-3.7,8.8l-5.4,11.7c-0.1,0.3-0.4,0.6-0.8,0.6h-1.2c-0.4,0-0.7-0.3-0.8-0.6l-5.5-12l-3.7-8.5l-0.2,0l0.2,8.4v12 c0,0.4-0.2,0.6-0.6,0.6h-1.8c-0.4,0-0.6-0.2-0.6-0.6v-23c0-0.4,0.2-0.6,0.6-0.6h3.3c0.4,0,0.7,0.2,0.8,0.6l5.2,11.1l3.6,8.6h0.3 l4.2-9.8l4.4-9.9c0.2-0.4,0.4-0.6,0.8-0.6H386.2z"/><path class="st0" d="M463.2,256.7c0-0.4,0.2-0.6,0.6-0.6h1.8c0.4,0,0.6,0.2,0.6,0.6v13.1c0,4.8,2.8,8.3,7.7,8.3 c5,0,7.8-3.5,7.8-8.3v-13.1c0-0.4,0.2-0.6,0.6-0.6h1.7c0.4,0,0.6,0.2,0.6,0.6v13.2c0,6.2-4.1,10.8-10.7,10.8 c-6.6,0-10.7-4.6-10.7-10.8V256.7z"/><path class="st0" d="M580.4,280.4c-0.4,0-0.6-0.1-0.8-0.4l-8.2-10.4l-7.2-9.6l-0.3,0.1l0.2,9v10.7c0,0.4-0.2,0.6-0.6,0.6h-1.7 c-0.4,0-0.6-0.2-0.6-0.6v-23c0-0.4,0.2-0.6,0.6-0.6h2c0.4,0,0.8,0.2,1,0.5l8.8,11l6.6,8.8l0.3,0l-0.2-9v-10.7 c0-0.4,0.2-0.6,0.6-0.6h1.8c0.4,0,0.6,0.2,0.6,0.6v23.1c0,0.4-0.2,0.6-0.6,0.6H580.4z"/><path class="st0" d="M661.8,256.1c0.4,0,0.6,0.2,0.6,0.6v23.1c0,0.4-0.2,0.6-0.6,0.6h-1.8c-0.4,0-0.6-0.2-0.6-0.6v-23.1 c0-0.4,0.2-0.6,0.6-0.6H661.8z"/><path class="st0" d="M758.1,256.1c0.4,0,0.6,0.2,0.6,0.6v1.4c0,0.4-0.2,0.6-0.6,0.6h-8.7v20.9c0,0.4-0.2,0.6-0.6,0.6h-1.7 c-0.4,0-0.6-0.2-0.6-0.6v-20.9h-8.7c-0.4,0-0.6-0.2-0.6-0.6v-1.4c0-0.4,0.2-0.6,0.6-0.6H758.1z"/><path class="st0" d="M845.1,279.7c0,0.4-0.2,0.6-0.6,0.6h-1.8c-0.4,0-0.6-0.2-0.6-0.6v-5.3L832,256.7c-0.1-0.3,0-0.6,0.3-0.6h2.3 c0.3,0,0.5,0.1,0.7,0.4l8.3,14.9h0.4l8.1-14.9c0.1-0.2,0.3-0.4,0.6-0.4h2.4c0.3,0,0.4,0.3,0.3,0.6l-10.2,17.7V279.7z"/></g><g><path class="st0" d="M365.6,140.9c-0.7-0.5-1.2-0.9-1.7-1.4c-0.2-0.2-0.5-0.3-0.8-0.4c-0.3-0.1-0.6,0.1-0.9,0.3 c-0.3,0.3-0.5,0.6-0.6,1c-0.2,0.5-0.3,1-0.4,1.5c-0.2,1,0,2.1,0.2,2.6c0.2,0.5,0.5,1,0.8,1.4c0.7,0.9,1.8,1.6,2.9,1.9 c1.1,0.3,2.2,0.6,3.3,0.7c1.9,0.1,3.9,0.2,5.6-0.4c0.8-0.3,1.8-0.8,2.3-1.5c0.4-0.6,0.5-1.2,0.6-1.9c0-0.4-0.2-1.2-0.4-1.6 c-0.1-0.3-0.3-0.5-0.5-0.7c-0.5-0.6-1.1-1.4-1.7-1.8c-0.4-0.3-0.8-0.4-1.1-0.8c-0.4-0.4-0.3-1.1,0.1-1.4c-0.5-0.1-1.2-0.1-1.6-0.5 c-0.7-0.5-0.8-1.2,0.2-2.1c0.2-0.2,0.4-0.4,0.7-0.6c0.1-0.1,0.3,0,0.3-0.2c0-0.2-0.1-0.4-0.4-0.7c-0.2-0.4-0.4-0.7-0.7-1 c-0.3-0.2-0.6-0.6-0.9-0.8c-0.6-0.4-1-0.6-2.5,0.1c-0.7,0.3-1.3,0.6-1.9,1.1c-0.2,0.2-0.6,0.8-0.8,1.1c-0.3,0.4-0.3,0.9-0.4,1.5 c-0.1,0.5,0,1.1,0.1,1.6c0.1,0.3,0.3,1,0.6,1.2c0.2,0.3,0.4,0.5,0.7,0.7c0.2,0.2,0.3,0.4,0.2,0.6c-0.1,0.2-0.3,0.2-0.5,0.3 C366.3,140.9,365.7,141.1,365.6,140.9z"/><path class="st0" d="M371.6,136.4c-0.2,0.2-0.4,0.6-0.4,0.9c0,0.3,0.2,0.5,0.4,0.6c0.6,0.5,1.5,0.7,2.2,0.4 c0.4-0.2,0.8-0.4,1.2-0.5c0.1,0,0.2-0.1,0.3-0.2c0.1-0.1,0.1-0.3,0.1-0.4c0-0.1-0.3-0.2-0.3-0.3c0,0-0.1,0-0.1-0.1 c0-0.1,0.1-0.1,0.2-0.2c0.3-0.4,0.4-0.7,0.5-1.2c0-0.1,0-0.3-0.1-0.4c-0.1-0.3-0.3-0.5-0.5-0.5c-0.3,0-0.6,0.2-0.9,0.3 c-0.3,0.1-0.5,0.2-0.8,0.2c-0.3,0.1-0.5,0.1-0.7,0.2C372.3,135.6,371.9,136,371.6,136.4z"/></g><path class="st0" d="M168.1,252.8c-9.1,0-15.5,6.5-15.5,15.7c0,12.6,12.5,20.4,27.6,12.1C188.1,265.5,180.7,252.8,168.1,252.8z M177.7,278.1c-12,6.7-22,0.4-22-9.7c0-7.3,5.1-12.5,12.4-12.5C178.1,256,184.1,266.1,177.7,278.1z"/></svg>
