<svg xmlns="http://www.w3.org/2000/svg" height="85" width="265">
    <defs>
        <clipPath id="a">
            <path d="M146.788 378.599h86.062V296.03h-86.062z"/>
        </clipPath>
        <clipPath id="b">
            <path d="M146.788 378.599h86.062V296.03h-86.062z"/>
        </clipPath>
        <clipPath id="c">
            <path d="M169.088 296.03l-22.3 58.094 63.762 24.475 22.3-58.092z"/>
        </clipPath>
        <linearGradient id="d" gradientTransform="scale(-43.69135) rotate(-69 -7.34 -.046)" gradientUnits="userSpaceOnUse" x2="1">
            <stop offset="0" stop-color="#fff"/>
            <stop offset="1" stop-color="#231f20"/>
        </linearGradient>
        <clipPath id="q">
            <path d="M171.78 545.765h57.345v-46.727H171.78z"/>
        </clipPath>
        <clipPath id="r">
            <path d="M171.78 499.038h57.346v46.727H171.78z"/>
        </clipPath>
        <clipPath id="e">
            <path d="M156.147 564.95h88.611v-85.097h-88.611z"/>
        </clipPath>
        <clipPath id="f">
            <path d="M156.147 564.95h88.611v-85.097h-88.611z"/>
        </clipPath>
        <clipPath id="g">
            <path d="M179.145 479.853l-22.998 59.912 65.614 25.185 22.997-59.91z"/>
        </clipPath>
        <linearGradient id="h" gradientTransform="rotate(111 -58.919 316.057) scale(45.48736)" gradientUnits="userSpaceOnUse" x2="1">
            <stop offset="0" stop-color="#fff"/>
            <stop offset="1" stop-color="#231f20"/>
        </linearGradient>
        <mask id="s" height="1" width="1" y="0" x="0" maskUnits="userSpaceOnUse">
            <g clip-path="url(#e)">
                <g clip-path="url(#f)">
                    <g clip-path="url(#g)">
                        <path d="M179.145 479.853l-22.998 59.912 65.614 25.185 22.997-59.91z" fill="url(#h)"/>
                    </g>
                </g>
            </g>
        </mask>
        <clipPath id="t">
            <path d="M171.78 545.765h57.345v-46.727H171.78z"/>
        </clipPath>
        <clipPath id="u">
            <path d="M171.78 499.038h57.346v46.727H171.78z"/>
        </clipPath>
        <clipPath id="i">
            <path d="M116.181 403.976h105.595V298.458H116.181z"/>
        </clipPath>
        <clipPath id="j">
            <path d="M116.181 403.976h105.595V298.458H116.181z"/>
        </clipPath>
        <clipPath id="k">
            <path d="M173.728 298.458l-57.547 48.459 48.048 57.059 57.547-48.459z"/>
        </clipPath>
        <linearGradient id="l" gradientTransform="rotate(139.9 77.132 185.708) scale(111.81736)" gradientUnits="userSpaceOnUse" x2="1">
            <stop offset="0" stop-color="#fff"/>
            <stop offset="1" stop-color="#231f20"/>
        </linearGradient>
        <clipPath id="v">
            <path d="M150.078 562.993h57.355v-52.238h-57.355z"/>
        </clipPath>
        <clipPath id="w">
            <path d="M150.078 510.755h57.355v52.238h-57.355z"/>
        </clipPath>
        <clipPath id="m">
            <path d="M124.34 591.253h108.831V482.497H124.34z"/>
        </clipPath>
        <clipPath id="n">
            <path d="M124.34 591.253h108.831V482.497H124.34z"/>
        </clipPath>
        <clipPath id="o">
            <path d="M183.637 482.497l-59.297 49.932 49.535 58.824 59.296-49.932z"/>
        </clipPath>
        <linearGradient id="p" gradientTransform="scale(-116.32889) rotate(-40.1 -6.583 1.187)" gradientUnits="userSpaceOnUse" x2="1">
            <stop offset="0" stop-color="#fff"/>
            <stop offset="1" stop-color="#231f20"/>
        </linearGradient>
        <mask id="x" height="1" width="1" y="0" x="0" maskUnits="userSpaceOnUse">
            <g clip-path="url(#m)">
                <g clip-path="url(#n)">
                    <g clip-path="url(#o)">
                        <path d="M183.637 482.497l-59.297 49.932 49.535 58.824 59.296-49.932z" fill="url(#p)"/>
                    </g>
                </g>
            </g>
        </mask>
        <clipPath id="y">
            <path d="M150.078 562.993h57.355v-52.238h-57.355z"/>
        </clipPath>
        <clipPath id="z">
            <path d="M150.078 510.755h57.355v52.238h-57.355z"/>
        </clipPath>
    </defs>
    <path d="M111.348 29.177c7.462 0 7.522 4.216 7.522 9.745 0 5.528-.06 9.757-7.522 9.757-1.045 0-1.957-.096-2.686-.205V29.37c.729-.096 1.64-.194 2.686-.194m-8.433 23.414c2.43.452 5.821.779 9.223.779 10.608 0 12.492-4.824 12.492-14.448 0-9.623-1.884-14.448-12.492-14.448-3.367 0-6.816.341-9.223.804zm43.257-27.69c-1.956-.1-5.637-.208-7.69-.208-5.116 0-9.83.268-9.83 6.902v14.642c0 6.634 4.714 6.913 9.83 6.913 1.896 0 5.698-.119 7.69-.216v-4.45h-7.812c-3.39 0-3.974-.717-3.974-3.851v-3.67h11.253v-4.568h-11.253v-3.208c0-3.122.584-3.828 3.974-3.828h7.812zm21.85 23.172a35.895 35.895 0 0 1-5.82.486c-6.83 0-6.926-4.046-6.926-9.637 0-5.565.12-9.636 6.926-9.636 2.017 0 3.973.183 5.833.487l.51-4.435c-1.847-.497-4.435-.864-7.4-.864-9.393 0-11.726 4.388-11.726 14.448 0 10.05 2.321 14.448 11.725 14.448 2.954 0 5.554-.352 7.4-.85zM189.178 24.9c-1.96-.1-5.64-.208-7.692-.208-5.116 0-9.832.268-9.832 6.902v14.642c0 6.634 4.716 6.913 9.832 6.913 1.894 0 5.698-.119 7.692-.216v-4.45h-7.814c-3.39 0-3.973-.717-3.973-3.851v-3.67h11.252v-4.568H177.39v-3.208c0-3.122.583-3.828 3.973-3.828h7.814zm10.194 17.374c.996.063 2.31.123 3.462.123l5.81 10.68h6.61l-6.464-11.336c3.328-1.008 5.432-3.365 5.432-8.372 0-7.655-5.118-8.896-11.375-8.896-3.39 0-6.756.328-9.21.779v27.825h5.735zm0-13.074a28.429 28.429 0 0 1 3.62-.243c4.132 0 5.543 1.252 5.543 4.388 0 3.596-2.103 4.508-5.663 4.508-1.178 0-2.333-.013-3.5-.147zm36.902-4.434h-19.66v4.642h6.926v23.669h5.772v-23.67h6.962zm13.122 28.603c8.799 0 11.315-4.19 11.315-14.448 0-10.256-2.516-14.448-11.315-14.448-8.808 0-11.322 4.192-11.322 14.448 0 10.257 2.514 14.448 11.322 14.448m0-4.74c-5.37 0-5.49-3.935-5.49-9.708 0-5.772.12-9.721 5.49-9.721 5.36 0 5.482 3.949 5.482 9.72 0 5.774-.122 9.709-5.482 9.709"
          fill="#231f20"/>
    <path d="M105.692 67.462c-.69 0-1.517-.13-2.13-.378l.15-.753a6.778 6.778 0 0 0 2.001.312c1.152 0 1.39-.301 1.39-1.119 0-.969-.012-1.054-1.487-1.388-1.732-.388-1.936-.72-1.936-2.206 0-1.25.516-1.852 2.292-1.852.624 0 1.367.086 1.937.237l-.076.785a8.742 8.742 0 0 0-1.84-.204c-1.173 0-1.388.236-1.388 1.066 0 .99 0 1.032 1.42 1.388 1.906.473 2.002.753 2.002 2.152 0 1.25-.366 1.96-2.335 1.96M110.891 67.354h-.377l-1.7-5.242h.893l1.432 4.52 1.452-4.52h.894l-1.732 5.242-.743 2.12h-.85zM115.864 67.462c-.537 0-1.248-.119-1.668-.28l.119-.71c.452.128 1.044.215 1.496.215.828 0 .968-.15.968-.71 0-.56-.043-.625-1.098-.883-1.302-.324-1.421-.592-1.421-1.679 0-.97.43-1.41 1.808-1.41.507 0 1.055.065 1.487.182l-.066.744a8.38 8.38 0 0 0-1.453-.152c-.775 0-.883.184-.883.656 0 .583.012.69.894.905 1.508.376 1.625.56 1.625 1.603 0 1.023-.312 1.519-1.808 1.519M121.87 67.268c-.323.118-.71.194-1.098.194-.882 0-1.302-.324-1.302-1.196v-3.4h-.926v-.753h.926v-1.292l.904-.13v1.422h1.485l-.075.752h-1.41v3.25c0 .389.053.582.538.582.247 0 .506-.043.84-.128zM123.743 64.329h2.25v-.43c0-.731-.249-1.14-1.098-1.14-.85 0-1.152.409-1.152 1.14zm1.248 2.359c.517 0 1.086-.1 1.657-.25l.119.722c-.495.184-1.195.302-1.85.302-1.552 0-2.078-.744-2.078-1.928v-1.57c0-1.087.494-1.96 2.056-1.96 1.55 0 1.97.894 1.97 1.98v1.098h-3.122v.442c0 .829.225 1.164 1.248 1.164M134.614 67.354V63.35c0-.344-.172-.484-.505-.484-.431 0-1.195.237-1.755.526v3.962h-.904V63.35c0-.344-.172-.484-.505-.484-.388 0-1.195.237-1.755.526v3.962h-.904v-5.242h.732l.085.452c.582-.28 1.486-.56 2.11-.56.538 0 .85.206 1 .56.625-.301 1.508-.56 2.164-.56.84 0 1.14.528 1.14 1.335v4.015zM138.49 67.354h-.378l-1.7-5.242h.894l1.432 4.52 1.452-4.52h.893l-1.732 5.242-.743 2.12h-.85zM144.324 62.113h.904v5.241h-.904zm0-2.142h.904v1.303h-.904zM150.114 67.354V63.35c0-.344-.172-.484-.505-.484-.388 0-1.195.237-1.755.526v3.962h-.904v-5.242h.732l.085.452c.582-.28 1.486-.56 2.11-.56.84 0 1.14.528 1.14 1.335v4.015zM155.55 60.605a5.433 5.433 0 0 0-.873-.096c-.56 0-.7.193-.7.721v.883h1.496l-.074.752h-1.422v4.49h-.902v-4.49h-.927v-.752h.927v-.97c0-.925.516-1.389 1.484-1.389.345 0 .71.046 1.066.152zM158.348 62.79c-.818 0-1.227.388-1.227 1.152v1.583c0 .764.41 1.15 1.227 1.15.818 0 1.226-.386 1.226-1.15v-1.583c0-.764-.408-1.152-1.226-1.152m0 4.672c-1.528 0-2.131-.872-2.131-1.97v-1.517c0-1.098.603-1.97 2.13-1.97 1.529 0 2.133.872 2.133 1.97v1.516c0 1.099-.604 1.97-2.132 1.97M164.333 62.833c-.495.237-1.066.602-1.496.905v3.616h-.904v-5.241h.785l.055.732a6.593 6.593 0 0 1 1.441-.84zM171.576 67.354V63.35c0-.344-.172-.484-.505-.484-.43 0-1.195.237-1.755.526v3.962h-.904V63.35c0-.344-.172-.484-.505-.484-.388 0-1.195.237-1.755.526v3.962h-.904v-5.242h.732l.085.452c.582-.28 1.486-.56 2.11-.56.538 0 .85.206 1.001.56.624-.301 1.507-.56 2.163-.56.84 0 1.141.528 1.141 1.335v4.015zM176.958 65.234h-1.334c-.56 0-.764.172-.764.699 0 .538.097.754.742.754.452 0 .959-.173 1.356-.43zm.904 2.12h-.764l-.054-.388c-.462.323-1.064.496-1.7.496-.98 0-1.388-.583-1.388-1.508 0-1.085.549-1.473 1.604-1.473h1.398v-.82c0-.655-.29-.882-1.14-.882-.506 0-1.164.087-1.572.172l-.097-.72a7.32 7.32 0 0 1 1.723-.226c1.496 0 1.99.58 1.99 1.7zM182.19 67.268c-.323.118-.711.194-1.098.194-.883 0-1.303-.324-1.303-1.196v-3.4h-.925v-.753h.925v-1.292l.904-.13v1.422h1.486l-.075.752h-1.41v3.25c0 .389.053.582.538.582.247 0 .505-.043.84-.128zM184.73 67.354h-.377l-1.7-5.242h.893l1.432 4.52 1.452-4.52h.894l-1.732 5.242-.743 2.12H184zM187.927 65.557V63.91c0-1.207.452-1.905 2.088-1.905.463 0 .979.076 1.248.161l-.075.753a5.476 5.476 0 0 0-1.152-.117c-.904 0-1.205.257-1.205 1.075v1.71c0 .82.301 1.078 1.205 1.078a5.48 5.48 0 0 0 1.152-.119l.086.755c-.27.085-.796.161-1.259.161-1.679 0-2.088-.701-2.088-1.905M192.49 62.113h3.617l-.012.732-2.668 3.777h2.711v.732h-3.701v-.732l2.67-3.777h-2.617zM200.757 67.354V63.35c0-.344-.173-.484-.507-.484-.386 0-1.193.237-1.753.526v3.962h-.904v-5.242h.732l.085.452c.583-.28 1.486-.56 2.11-.56.84 0 1.141.528 1.141 1.335v4.015zM203.964 64.329h2.25v-.43c0-.731-.247-1.14-1.098-1.14-.85 0-1.152.409-1.152 1.14zm1.25 2.359c.515 0 1.086-.1 1.657-.25l.118.722c-.496.184-1.194.302-1.85.302-1.55 0-2.079-.744-2.079-1.928v-1.57c0-1.087.495-1.96 2.056-1.96 1.55 0 1.97.894 1.97 1.98v1.098h-3.122v.442c0 .829.227 1.164 1.25 1.164M213.823 62.963a8.373 8.373 0 0 0-1.44-.161c-.604 0-.852.28-.852.913v2.143c0 .537.172.806.808.806.515 0 1.098-.28 1.484-.622zm-3.194.752c0-1.044.472-1.71 1.7-1.71.462 0 1.076.075 1.494.16v-2.194l.904-.13v7.513h-.764l-.074-.474c-.43.344-1.044.582-1.734.582-1.032 0-1.526-.55-1.526-1.604zM216.451 67.354V59.97l.904-.13v7.513zM221.886 65.234h-1.335c-.558 0-.764.172-.764.699 0 .538.096.754.742.754.453 0 .958-.173 1.357-.43zm.904 2.12h-.764l-.055-.388c-.461.323-1.064.496-1.7.496-.978 0-1.388-.583-1.388-1.508 0-1.085.55-1.473 1.604-1.473h1.399v-.82c0-.655-.29-.882-1.14-.882a8.74 8.74 0 0 0-1.572.172l-.096-.72a7.31 7.31 0 0 1 1.721-.226c1.496 0 1.991.58 1.991 1.7zM227.602 66.59c.355.053.71.075 1.032.075 1.067 0 1.26-.432 1.26-1.13v-1.926c0-.54-.237-.808-.85-.808-.463 0-1.087.226-1.442.398zm3.195-1.087c0 1.194-.43 1.958-2.226 1.958a9.468 9.468 0 0 1-1.874-.204v-7.286l.905-.13v2.53c.364-.195.99-.366 1.656-.366 1.09 0 1.539.635 1.539 1.635zM232.284 62.113h.904v5.241h-.904zm0-2.142h.904v1.303h-.904zM234.75 62.113h3.615l-.01.732-2.67 3.777h2.712v.732h-3.701v-.732l2.67-3.777h-2.617zM243.016 67.354V63.35c0-.344-.173-.484-.506-.484-.387 0-1.194.237-1.754.526v3.962h-.905v-5.242h.733l.086.452c.58-.28 1.485-.56 2.109-.56.839 0 1.141.528 1.141 1.335v4.015zM246.223 64.329h2.25v-.43c0-.731-.248-1.14-1.098-1.14-.85 0-1.152.409-1.152 1.14zm1.25 2.359c.514 0 1.085-.1 1.656-.25l.12.722c-.496.184-1.196.302-1.852.302-1.55 0-2.079-.744-2.079-1.928v-1.57c0-1.087.496-1.96 2.057-1.96 1.55 0 1.97.894 1.97 1.98v1.098h-3.122v.442c0 .829.226 1.164 1.25 1.164M252.218 67.462c-.537 0-1.25-.119-1.668-.28l.119-.71c.452.128 1.042.215 1.496.215.828 0 .969-.15.969-.71 0-.56-.045-.625-1.1-.883-1.301-.324-1.419-.592-1.419-1.679 0-.97.43-1.41 1.807-1.41.505 0 1.055.065 1.487.182l-.066.744a8.379 8.379 0 0 0-1.452-.152c-.776 0-.882.184-.882.656 0 .583.01.69.893.905 1.507.376 1.624.56 1.624 1.603 0 1.023-.312 1.519-1.808 1.519M256.34 62.113v4.002c0 .346.174.484.507.484.388 0 1.193-.236 1.753-.526v-3.96h.906v5.241h-.732l-.087-.452c-.581.28-1.485.56-2.11.56-.84 0-1.14-.528-1.14-1.335v-4.014z"
          fill="#7b7979"/>
    <path d="M3.514 60.057s42.409-24.962 22.75-56.104c48.595 24.297 22.972 57.65 22.972 57.65-9.718-9.94-45.722-2.21-45.722-1.546"
          fill="#8dd25a"/>
    <path d="M67.4 26.924c7.144 21.745-6.946 40.14-6.946 40.14-2.586-2.643-6.579-4.337-11.295-5.37-7.13 7.993-15.225 13.085-16.515 13.869 2.71-1.15 36.204-7.874 45.528 1.664 0 0 20.836-27.15-10.773-50.303M32.45 75.679l.195-.116c-.114.049-.194.088-.194.116"
          fill="#029cdb"/>
    <g clip-path="url(#q)" transform="matrix(1.33333 0 0 -1.33333 -208.59 743.943)">
        <g clip-path="url(#r)">
            <g mask="url(#s)">
                <g clip-path="url(#t)">
                    <g clip-path="url(#u)">
                        <path d="M206.992 537.765c5.36-16.31-5.209-30.105-5.209-30.105-1.939 1.982-4.934 3.253-8.47 4.027-5.348-5.994-11.42-9.813-12.387-10.401 2.032.862 27.153 5.905 34.146-1.248 0 0 15.627 20.362-8.08 37.727m-26.212-36.566l.146.087c-.086-.037-.146-.066-.146-.087"
                              fill="#231f20"/>
                    </g>
                </g>
            </g>
        </g>
    </g>
    <g>
        <g clip-path="url(#v)" transform="matrix(1.33333 0 0 -1.33333 -208.59 743.943)">
            <g clip-path="url(#w)">
                <g mask="url(#x)">
                    <g clip-path="url(#y)">
                        <g clip-path="url(#z)">
                            <path d="M159.078 512.915s31.807 18.721 17.063 42.078c36.446-18.223 17.23-43.238 17.23-43.238-7.29 7.455-34.293 1.658-34.293 1.16"
                                  fill="#231f20"/>
                        </g>
                    </g>
                </g>
            </g>
        </g>
    </g>
</svg>
