<svg xmlns="http://www.w3.org/2000/svg" height="283.464" width="1228.3492"><defs><clipPath id="a"><path d="M0 212.598h921.262V0H0z"/></clipPath></defs><g clip-path="url(#a)" transform="matrix(1.33333 0 0 -1.33333 0 283.464)"><path d="M50.6133 142.0684c.434 8.615 4.572 15.1 11.522 19.958l23.828 13.759 33.697-19.46-35.397-20.436-.002-22.029-33.646-19.429zm0-65.436l103.545 59.779 16.849-9.723v-19.458l-103.545-59.781c-13.612 7.86-16.849 12.82-16.849 29.183zm96.562-61.905c-7.977-3.649-15.675-3.662-23.037.001l-41.259 23.82 33.65 19.424 19.076-11.009 35.397 20.435.004-38.912zm39.849 121.205l-85.045 49.097 22.099 12.759c7.671 3.935 15.35 3.59 23.019 0l62.057-35.821c7.724-4.149 11.768-10.652 11.473-19.871l.002-71.67c.564-8.786-3.64-15.303-11.509-19.934l-22.099-12.76.003 98.201z" fill="#c80202"/><path d="M689.9141 151.1802c-3.869 0-5.045-1.315-5.045-4.605v-6.853l-1.365 1.374c-3.885 3.913-8.329 7.181-13.411 9.36-4.93 2.111-10.132 3.13-15.489 3.13-12.159 0-22.281-4.674-30.524-13.585-9.009-9.738-12.569-21.796-12.569-34.931 0-13.125 3.954-24.782 13.006-34.372 8.36-8.856 18.482-13.792 30.761-13.792 5.071 0 10.014.858 14.704 2.812 5.064 2.104 9.59 5.482 13.537 9.251l1.35 1.289v-7.1c0-2.764 3.023-3.85 5.042-3.85h13.188c1.336 0 3.539.928 3.539 2.983v85.3c0 2.34-1.205 3.589-3.53 3.589zm-30.503-17.664c7.41 0 13.858-2.447 19.048-7.807 5.388-5.567 7.523-12.628 7.523-20.287 0-7.776-2.094-14.987-7.52-20.693-5.137-5.401-11.525-7.961-18.963-7.961-7.373 0-13.626 2.705-18.671 8.08-5.35 5.703-7.549 12.73-7.549 20.486 0 7.643 2.156 14.622 7.43 20.249 5.042 5.382 11.342 7.932 18.702 7.932zm-76.429 54.052c-3.886 0-7.22-1.362-9.957-4.13-2.752-2.778-4.111-6.114-4.111-10.024 0-4.045 1.384-7.533 4.202-10.436 2.775-2.853 6.15-4.303 10.128-4.303 3.91 0 7.193 1.428 9.93 4.218 2.777 2.837 4.138 6.231 4.138 10.2 0 4.001-1.371 7.417-4.195 10.257-2.806 2.818-6.155 4.218-10.135 4.218m-77.021-33.982c-12.22 0-22.788-4.322-31.831-12.518-10.606-9.612-15.805-21.612-15.805-35.91 0-13.317 4.595-24.728 13.987-34.18 9.307-9.363 20.533-14.072 33.737-14.072 8.757 0 17.01 2.025 24.615 6.375 7.495 4.284 13.336 10.201 17.613 17.702 4.303 7.539 6.464 15.669 6.464 24.351 0 8.605-2.13 16.626-6.429 24.08-4.322 7.493-10.323 13.38-17.849 17.649-7.596 4.305-15.768 6.523-24.502 6.523m.352-20.479c7.388 0 13.805-2.419 18.935-7.781 5.29-5.536 7.372-12.509 7.372-20.08 0-7.672-2.18-14.626-7.52-20.225-5.118-5.365-11.477-7.9-18.875-7.9-7.341 0-13.657 2.478-18.727 7.812-5.338 5.615-7.404 12.657-7.404 20.313 0 7.586 2.186 14.455 7.464 19.988 5.08 5.328 11.408 7.873 18.755 7.873m-146.247 11.914l34.997-82.098c.727-1.843 2.071-3.615 5.392-3.615h6.555c3.321 0 4.664 1.772 5.39 3.615l34.998 82.098c1.664 2.885 1.869 6.159-3.44 6.159h-13.604c-1.711 0-3.013-1.167-3.416-2.24l-23.206-54.143-23.206 54.143c-.402 1.073-1.705 2.24-3.416 2.24h-13.603c-5.309 0-5.105-3.274-3.441-6.159m-15.025-45.779c2.142 0 4.236 1.115 4.236 3.701.275 13.944-3.783 26.704-13.612 36.75-9.6 9.817-21.725 13.893-35.344 13.893-13.251 0-24.716-4.372-33.994-13.889-9.433-9.676-13.554-21.53-13.554-34.98 0-13.209 4.215-24.76 13.607-34.18 9.622-9.649 21.719-13.631 35.234-13.631 8.263 0 16.648 1.279 24.13 4.932 6.165 3.009 11.248 7.369 15.46 12.656 1.044 1.123.428 2.281-.327 2.63l-14.368 6.763c-1.054.509-3.082.396-4.287-.659-5.942-4.853-12.877-7.308-20.785-7.308-6.809 0-13.272 1.663-18.572 6.076-5.083 4.233-7.948 9.81-9.014 16.318l-.152.928zm-17.523 16.874h-53.095l.515 1.132c2.004 4.385 4.901 9.49 8.839 12.418 5.212 3.872 11.179 5.668 17.66 5.668 5.939 0 11.484-1.564 16.328-5.049 4.627-3.327 7.819-7.677 9.445-13.144zm266.451 32.003c0 1.721-1.418 3.061-3.06 3.061h-16.104c-1.183 0-2.693-1.378-2.693-2.692v-94.787c0-3.139-.307-7.779-2.415-10.305-1.849-2.216-4.523-2.953-7.329-2.953-1.736 0-3.491.319-5.196.819-3.422 1.123-3.714-.727-3.708-1.84v-11.707c.003-.69.381-1.992 2.259-2.42 4.654-1.418 9.765-2.575 14.474-2.575 4.652 0 9.25.92 13.241 3.397 3.741 2.32 6.326 5.62 7.949 9.703 2.243 5.639 2.582 13.606 2.582 19.61v92.69zm135.255-2.956V63.7602c.037-3.178 1.235-4.452 5.044-4.452h13.195c2.324 0 3.529 1.249 3.529 3.589v37.187c0 6.076.271 14.302 2.425 20.042 1.513 4.032 3.906 7.539 7.403 10.099 3.291 2.41 7.005 3.642 11.085 3.642 3.428 0 6.624-.855 9.392-2.912 2.912-2.167 4.708-5.35 5.822-8.75 1.733-5.278 1.887-12.902 1.887-18.426v-40.019c.038-3.178 1.236-4.452 5.045-4.452h13.459c2.324 0 3.529 1.248 3.529 3.589v37.775c0 5.907.232 14.192 2.371 19.753 1.529 3.979 3.898 7.363 7.373 9.86 3.35 2.409 7.13 3.582 11.257 3.582 5.104 0 9.515-1.726 12.499-5.969 3.722-5.294 4.102-15.749 4.102-21.979v-42.159c.038-3.178 1.236-4.452 5.044-4.452h13.431c2.324 0 3.529 1.248 3.529 3.589V113.3072c0 7.055-.342 17.447-3.243 23.983-2.233 5.032-5.849 8.879-10.537 11.751-14.323 8.791-41.168 5.045-50.393-9.848-2.492 4.136-5.731 7.636-9.917 10.2-4.697 2.881-9.879 4.192-15.384 4.192-11.474 0-21.102-4.428-28.789-12.905l-1.39-1.531v8.435c0 2.341-1.205 3.589-3.529 3.589h-13.195c-3.808 0-5.007-1.274-5.044-4.451V145.1622z" fill="#4d4d4d"/></g></svg>
