<svg xmlns="http://www.w3.org/2000/svg" height="137.813" width="573.453">
    <g fill="#faa61a">
        <path d="M127.074 32.187c-17.8-28-54.612-39.87-83.807-27.022-17.803 7.836-27.471 22.014-24.63 36.123 2.794 13.87 16.856 23.06 35.825 23.411 15.908.295 27.175-4.381 31.283-9.145 1.569-1.827 1.5-3.47 1.49-4.094-.02-1.325-.819-3.247-3.432-5.005-4.244-2.852-11.564-3.685-18.647-2.123-7.098 1.565-12.727 5.99-16.069 11.945-.267.475-.782.772-1.326.722-6.32-.57-11.87-2.952-16.12-6.917a1.283 1.283 0 0 1-.27-1.49c.423-.87.851-1.666 1.357-2.522 5.547-9.4 14.258-16.582 24.732-19.656 13.461-3.95 27.625-2.336 37.129 4.052 6.4 4.303 10.441 10.447 11.686 17.77 1.196 7.034-.897 14.1-5.894 19.893-8.406 9.751-24.374 15.58-43.122 15.85a93.555 93.555 0 0 1-3.153-.006 78.524 78.524 0 0 1-3.996-.174 25.33 25.33 0 0 0 6.418 6.15c6.065 4.058 13.364 5.42 20.552 3.833 6.422-1.417 10.45-3.523 13.846-6.356a4.835 4.835 0 0 1 6.445.23l9.836 9.433c.428.41.447 1.09.03 1.51-5.3 5.357-12.622 11.06-25.99 14.008a46.468 46.468 0 0 1-9.34 1.094 45.699 45.699 0 0 1-9.578-.878 45.604 45.604 0 0 1-16.55-6.859c-9.812-6.564-16.574-16.657-18.597-27.73-3.483-1.584-6.73-3.482-9.701-5.686-7.042-5.226-12.373-12.1-15.488-19.836H1.99c-4.472 18.334-1.34 37.264 8.757 53.15 9.86 15.51 25.176 26.26 43.134 30.269 20.772 4.64 42.199-.387 59.02-14.158a67.589 67.589 0 0 0 20.8-29.523c7.297-20.471 4.783-42.311-6.626-60.263M170.117 83.165V54.79c0-1.724 1.33-3.053 3.055-3.053h20.048c1.477 0 2.708 1.231 2.708 2.709a2.7 2.7 0 0 1-2.708 2.709h-17.044v8.966h14.827c1.478 0 2.709 1.23 2.709 2.757 0 1.48-1.23 2.66-2.71 2.66h-14.826V80.8h17.29c1.478 0 2.71 1.233 2.71 2.71a2.702 2.702 0 0 1-2.71 2.709h-20.294c-1.725 0-3.055-1.33-3.055-3.053M203.821 55.627a3.161 3.161 0 0 1-.245-1.181c0-1.676 1.428-2.957 3.103-2.957 1.477 0 2.61.937 3.005 2.217l7.93 23.694 7.783-23.595c.494-1.428 1.528-2.413 3.055-2.413h.443c1.528 0 2.612.985 3.054 2.413l7.783 23.595 7.93-23.742c.445-1.232 1.48-2.169 2.957-2.169 1.625 0 3.004 1.281 3.004 2.907 0 .394-.147.887-.295 1.231L243.131 84.2c-.542 1.527-1.675 2.513-3.152 2.513h-.591c-1.479 0-2.563-.937-3.104-2.513l-7.685-22.512-7.684 22.512c-.543 1.576-1.675 2.513-3.152 2.513h-.591c-1.479 0-2.563-.937-3.153-2.513L203.82 55.627M287.676 69.076v-.099c0-6.7-4.876-12.266-11.724-12.266-6.847 0-11.625 5.468-11.625 12.167v.1c0 6.699 4.877 12.216 11.724 12.216 6.846 0 11.625-5.42 11.625-12.118zm-29.704 0v-.099c0-9.704 7.488-17.832 18.079-17.832 10.59 0 17.98 8.03 17.98 17.733v.1c0 9.704-7.488 17.831-18.079 17.831-10.59 0-17.98-8.028-17.98-17.733M317.405 68.828c4.335 0 7.092-2.264 7.092-5.762v-.099c0-3.694-2.658-5.714-7.141-5.714h-8.817v11.575zM302.48 54.79c0-1.724 1.33-3.053 3.053-3.053h12.315c4.335 0 7.735 1.28 9.952 3.448 1.821 1.872 2.856 4.434 2.856 7.438v.098c0 5.517-3.201 8.867-7.833 10.295l6.601 8.326c.592.738.985 1.379.985 2.315 0 1.675-1.428 2.807-2.905 2.807-1.38 0-2.267-.64-2.957-1.577L316.173 74.2h-7.634v9.261a2.986 2.986 0 0 1-3.006 3.004c-1.724 0-3.053-1.33-3.053-3.004V54.79M340.217 54.643c0-1.675 1.33-3.005 3.054-3.005a2.985 2.985 0 0 1 3.005 3.005v14.581l16.355-16.452c.689-.74 1.428-1.134 2.513-1.134 1.673 0 2.807 1.33 2.807 2.808 0 .937-.395 1.626-1.084 2.265l-10.739 10.345 11.627 14.434c.492.641.837 1.232.837 2.168 0 1.675-1.332 2.954-3.053 2.954-1.184 0-1.923-.59-2.563-1.428l-11.084-14.137-5.616 5.419v7.143a2.984 2.984 0 0 1-3.005 3.003c-1.724 0-3.054-1.329-3.054-3.003V54.643M388.508 69.076v-.099c0-9.654 7.388-17.832 17.783-17.832 5.172 0 8.621 1.232 11.773 3.497a3.076 3.076 0 0 1 1.232 2.464c0 1.625-1.33 3.005-3.005 3.005-.79 0-1.379-.346-1.871-.69-2.217-1.626-4.632-2.71-8.376-2.71-6.355 0-11.18 5.567-11.18 12.167v.1c0 7.092 4.677 12.315 11.723 12.315 3.25 0 6.206-1.035 8.325-2.611v-6.453h-6.799c-1.477 0-2.709-1.134-2.709-2.612 0-1.477 1.232-2.66 2.71-2.66h9.605c1.724 0 3.053 1.33 3.053 3.055v9.21c0 1.725-.688 2.957-2.117 3.844-2.955 1.97-7.094 3.743-12.266 3.743-10.789 0-17.881-7.684-17.881-17.733M444.272 68.828c4.335 0 7.093-2.264 7.093-5.762v-.099c0-3.694-2.66-5.714-7.142-5.714h-8.818v11.575zM429.347 54.79c0-1.724 1.329-3.053 3.053-3.053h12.315c4.334 0 7.734 1.28 9.95 3.448 1.823 1.872 2.859 4.434 2.859 7.438v.098c0 5.517-3.204 8.867-7.833 10.295l6.6 8.326c.592.738.985 1.379.985 2.315 0 1.675-1.428 2.807-2.905 2.807-1.38 0-2.267-.64-2.956-1.577L443.04 74.2h-7.635v9.261a2.986 2.986 0 0 1-3.005 3.004c-1.724 0-3.053-1.33-3.053-3.004V54.79M494.732 69.076v-.099c0-6.7-4.877-12.266-11.724-12.266-6.85 0-11.625 5.468-11.625 12.167v.1c0 6.699 4.876 12.216 11.722 12.216 6.848 0 11.627-5.42 11.627-12.118zm-29.704 0v-.099c0-9.704 7.487-17.832 18.077-17.832 10.592 0 17.98 8.03 17.98 17.733v.1c0 9.704-7.488 17.831-18.077 17.831-10.592 0-17.98-8.028-17.98-17.733M508.015 71.588V54.495c0-1.675 1.329-3.006 3.053-3.006a2.986 2.986 0 0 1 3.005 3.006v16.846c0 6.404 3.3 9.803 8.72 9.803 5.368 0 8.668-3.202 8.668-9.556V54.495c0-1.675 1.331-3.006 3.056-3.006a2.986 2.986 0 0 1 3.004 3.006v16.798c0 10.295-5.813 15.468-14.826 15.468-8.966 0-14.68-5.173-14.68-15.173M559.853 69.667c4.582 0 7.439-2.562 7.439-6.158v-.098c0-4.04-2.907-6.158-7.439-6.158h-7.042v12.414zM546.751 54.79c0-1.724 1.33-3.053 3.054-3.053h10.542c8.078 0 13.102 4.58 13.102 11.526v.099c0 7.733-6.206 11.772-13.793 11.772h-6.845v8.326a2.986 2.986 0 0 1-3.006 3.004c-1.724 0-3.054-1.33-3.054-3.004V54.79"/>
    </g>
</svg>
