<svg id="Layer_1" xmlns="http://www.w3.org/2000/svg" viewBox="0 0 1609.7 821"><style>.st1{fill:#2e2e38}</style><path fill="#ffe600" d="M560.4.5L0 205l560.4-99z"/><path class="st1" d="M58.1 689.5a16 16 0 0 0-10.2-15.3c4.7-2.5 7.9-7.9 7.9-13.6 0-11.4-7.8-18-21.4-18H4.9v69H34c15.1 0 24.1-8.3 24.1-22.1zm-24 10.4H17.8v-19.6h16.3c6.9 0 10.5 3.3 10.5 9.8 0 6.2-3.9 9.8-10.5 9.8zM34 669H17.8v-14.7h15.6c6.1 0 9.1 2.4 9.1 7.4-.1 3.3-1.6 7.3-8.5 7.3zm32.9 20.7v-28.5h12.5V689c0 8.4 2.9 12.3 9.3 12.3 6.2 0 9.4-4.1 9.4-12.2v-27.8h12.5v50.4H98v-4a15.5 15.5 0 0 1-12 5.1c-16.6-.1-19.1-14.6-19.1-23.1zm189.9 21.9h-12.5v-50.4h12.5v4.3c3.1-3.5 7.5-5.3 12.6-5.3 12.1 0 18.5 8 18.5 23v28.5h-12.4v-27.8c0-8.4-2.9-12.3-9.1-12.3-6.3 0-9.6 4.2-9.6 12.2v27.8zm-122.7-25.2v25.2h-12.4v-50.4h12.4v25.2zm11.1-40l12.5-6.2v71.3h-12.5v-65.1zm52 18.3c-3-3.2-6.9-4.6-11.2-4.6-12.2 0-19.8 9.9-19.8 25.8 0 16.8 7.3 26.8 19.5 26.8 4.2 0 8.1-1.6 11.4-4.9v3.9h12.4v-71.4l-12.4 6.2v18.2zm-8.7 36.5c-4.3 0-9.5-2.7-9.5-15.6 0-11.6 5.1-14.1 9.3-14.1 4.7 0 7.5 2.8 8.9 4.9v19.8c-1.8 2.4-4.1 5-8.7 5zm280.2-41.1c-3.9 0-8 1.7-11.2 4.7v-23.3l-12.4 6.2v63.9h12.4v-3.8c3.1 3.2 7 4.8 11.4 4.8 12.4 0 19.5-9.8 19.5-26.8.1-15.8-7.5-25.7-19.7-25.7zm-2.3 11.4c4.5 0 9.4 3.7 9.4 14.1 0 10.5-3 15.6-9.1 15.6a12 12 0 0 1-9.1-4.7v-19.8c2-3.3 5.2-5.2 8.8-5.2zm-139.2-6.8c-3-3-6.9-4.6-11.2-4.6-12.2 0-19.8 9.9-19.8 25.8 0 16.8 7.3 26.8 19.5 26.8 4.4 0 8.2-1.6 11.4-4.9v1.2c0 5.5 0 13.1-16.1 13.4h-.6l4.4 9.8h.2c16.5-.3 24.5-8.5 24.5-25.2v-45.7h-12.4v3.4zm0 11.7v19.8c-2 2.6-4.4 5-8.8 5-4.3 0-9.4-2.7-9.4-15.6 0-11.6 5.1-14.1 9.3-14.1 4.7 0 7.5 2.8 8.9 4.9zm51.1-2.9c4-2.2 7.7-3.5 12.9-3.5 5.9 0 9 2.5 9 7.2v3.4c-2.9-1.5-7-2.4-10.7-2.4-9.3 0-20.1 4.3-20.1 16.5 0 13.1 10.1 17.8 18.7 17.8a17 17 0 0 0 12.1-5.2v4.1h12.4v-34c0-11-7.6-17.5-20.3-17.5a36 36 0 0 0-18.8 4.9l4.8 8.7zm3.6 21.4c0-4.5 3.2-7.2 8.6-7.2 3.7 0 6.9.7 9.8 2.5v6.9a11.7 11.7 0 0 1-9.8 5.3c-5.3 0-8.6-2.9-8.6-7.5zm146.6 2c-2.3 2-5.4 4.2-9.9 4.2-2.5 0-10.6-.8-11.2-11h30.9l.1-3.8c0-16-8.3-26.3-21.1-26.3-13.1 0-22.6 11.1-22.6 26.3 0 15.9 9.3 26.2 23.8 26.2 6.6 0 13.1-2.6 17.8-7.9l-7.8-7.7zm-21-15.8c.3-6.2 4.1-10.4 9.4-10.4 6.6 0 9.2 5.3 9.5 10.4h-18.9zm141.1 15.8c-2.3 2-5.4 4.2-9.9 4.2-2.5 0-10.6-.8-11.2-11h30.9l.1-3.8c0-16-8.3-26.3-21.1-26.3-13.1 0-22.6 11.1-22.6 26.3 0 15.9 9.4 26.2 23.9 26.2 6.6 0 13-2.6 17.8-7.9l-7.9-7.7zm-20.9-15.8c.3-6.2 4.1-10.4 9.4-10.4 6.6 0 9.2 5.3 9.5 10.4h-18.9zm-30.1 13c0 4.5 1.7 6.8 5.4 6.8 2.6 0 5.2-1.1 7.5-2.3l-1.5 11.8a22.9 22.9 0 0 1-10.5 2.3c-9.9 0-13.4-8.3-13.4-15.5v-24.4h-7.7v-11.7h7.7v-12.9l12.5-6.2v19.2H609v11.7h-11.3v21.2zm-24.1 16.2a22.9 22.9 0 0 1-10.5 2.3c-9.9 0-13.4-8.3-13.4-15.5v-24.4h-7.8V661h7.8v-12.9L562 642v19.2h10.6v11.7H562v21.2c0 4.5 1.7 6.8 5.4 6.8 2.6 0 5.2-1.1 7.5-2.3l-1.4 11.7zm122.7-35a14.6 14.6 0 0 0-8.2-2.7c-6.1 0-9 3.7-9 11.7v27.3h-12.5v-50.4H679v4.4c3-3.8 6.7-5.4 11.1-5.4 3.3 0 7 1.2 9.4 3l-3.3 12.1zm-562.1-26.1v4.8h-12.4v-12.4h12.4v7.6zm86.7 12h12.5v50.4h-12.5v-50.4zm12.4-13.5v6.2h-12.4v-12.4h12.4v6.2zm341.9 105.1c-3-3.1-6.9-4.6-11.2-4.6-12.2 0-19.8 9.9-19.8 25.8 0 16.8 7.3 26.8 19.5 26.8 4.2 0 8.1-1.6 11.4-4.9v3.8h12.4v-71.4l-12.4 6.2v18.3zm-8.7 36.4c-4.3 0-9.5-2.7-9.5-15.6 0-11.6 5.1-14.1 9.3-14.1 4.7 0 7.5 2.8 8.9 4.9v19.8c-1.8 2.5-4.1 5-8.7 5zm-414.2-25.9a14.6 14.6 0 0 0-8.2-2.7c-6.1 0-9 3.7-9 11.7v27.3h-12.4v-50.4H135v4.4c3-3.8 6.7-5.4 11.1-5.4 3.3 0 7 1.2 9.4 3l-3.3 12.1zm-97.9-14.1h12.3l-14.2 50.4H41.7l-5.6-20.9c-.9-3.7-2.1-8.1-2.7-11-.5 2-1.9 8.3-2.8 11.4L25 799.6H14.2l-.1-.3L0 749.2h12.8l4.6 18.8c.7 2.9 1.9 8.6 2.5 12.4.7-3.7 2.1-9.2 3-12.6l5.3-18.6h10.6l5.3 18.6a241 241 0 0 1 3 12.7l2.7-12.7 4.5-18.6zm37.7-1.1c-13.3 0-22.9 11.1-22.9 26.3 0 15.3 9.6 26.3 22.9 26.3 13.3 0 22.9-11.1 22.9-26.3 0-15.3-9.6-26.3-22.9-26.3zm0 40.9c-6.2 0-10.2-5.7-10.2-14.6 0-8.9 4-14.6 10.2-14.6 6.2 0 10.2 5.7 10.2 14.6 0 8.8-4 14.6-10.2 14.6zm421.8-25.7a14.6 14.6 0 0 0-8.2-2.7c-6.1 0-9 3.7-9 11.7v27.3h-12.5v-50.4h12.5v4.4c3-3.8 6.7-5.4 11.1-5.4 3.3 0 7 1.2 9.4 3l-3.3 12.1zm-97.9-14.1h12.3L414 799.6h-10.7l-5.6-20.9-2.8-11c-.5 2-1.9 8.3-2.8 11.4l-5.5 20.5h-10.8l-.1-.3-14.2-50.1h12.8l4.6 18.8c.7 2.9 1.9 8.6 2.5 12.4.7-3.7 2.1-9.2 3-12.6l5.3-18.6h10.6l5.3 18.6a241 241 0 0 1 3 12.7l2.7-12.7 4.6-18.6zm37.6-1.1c-13.3 0-22.9 11.1-22.9 26.3 0 15.3 9.6 26.3 22.9 26.3 13.3 0 22.9-11.1 22.9-26.3 0-15.2-9.6-26.3-22.9-26.3zm0 40.9c-6.2 0-10.2-5.7-10.2-14.6 0-8.9 4-14.6 10.2-14.6 6.2 0 10.2 5.7 10.2 14.6 0 8.9-4 14.6-10.2 14.6zm-264.2-23.2l15.3 33.8h-13.8l-10.6-23.4-6.6 8.3v15.1h-12.4v-65.1l12.4-6.2v40.1c1.5-2.2 3.4-4.6 4.7-6.3l9.9-12.9h14.4l-13.3 16.6zm59.1 33.8H236v-50.4h12.5v4.3c3.1-3.4 7.5-5.3 12.6-5.3 12.1 0 18.5 8 18.5 23v28.5h-12.4v-27.8c0-8.4-2.9-12.3-9.1-12.3-6.3 0-9.6 4.2-9.6 12.2v27.8zm70.4-46.9c-3-3-6.9-4.6-11.2-4.6-12.2 0-19.8 9.9-19.8 25.8 0 16.8 7.3 26.8 19.5 26.8 4.4 0 8.2-1.6 11.4-4.9v1.2c0 5.5 0 13.1-16.1 13.4h-.6l4.4 9.8h.2c16.5-.3 24.5-8.5 24.5-25.2v-45.7h-12.4v3.4zm0 11.7v19.8c-2 2.6-4.4 5-8.8 5-4.3 0-9.4-2.7-9.4-15.6 0-11.6 5-14.1 9.3-14.1 4.7 0 7.5 2.8 8.9 4.9zm-106.4-15.2h12.4V799.6h-12.4v-50.4zm12.4-13.4v6.2h-12.4v-12.4h12.4v6.2zm298.2-1.2l12.5-6.2v71.2H523v-65zm-433-273h102.5V402H90v-46.8h113.4L165.8 290H4.9v283.5h226.8v-65.2H90v-46.7zm292.6-171.5l-48.2 92.5-48-92.5h-94l99 171.5v112h84.8v-112l99.2-171.5h-92.8zM1053.1 289.3c0 6-.9 11.4-2.8 16.1a33 33 0 0 1-19.8 19.2 43 43 0 0 1-15 2.5 37.2 37.2 0 0 1-29.7-13.1 43.7 43.7 0 0 1-8.3-15.2c-2-6-2.9-12.7-2.9-20.1 0-7.1 1-13.6 3.1-19.6 2-5.9 4.9-11 8.6-15.3 3.7-4.3 8-7.6 13.2-9.9s10.7-3.5 16.8-3.5c9.4 0 16.9 2.1 22.6 6.3 5.7 4.2 10 9.9 12.9 17.1l-17.8 7.4c-.9-1.7-1.8-3.4-2.8-4.8a16.7 16.7 0 0 0-8.5-6.5 22 22 0 0 0-6.6-.9 19.2 19.2 0 0 0-16.3 8.3 28 28 0 0 0-4.3 9.4 45.9 45.9 0 0 0 0 24c1 3.7 2.5 6.8 4.4 9.5a19.5 19.5 0 0 0 16.4 8.6c5.3 0 9.5-1 12.5-3.1s4.9-5.5 5.7-10.1l.1-.9h-14.9V277h33.6v12.3zM1070.5 325.7v-88.5l18.5-9.2v97.7h-18.5zM1167.7 290.5c0 5.4-.8 10.4-2.4 14.9a34 34 0 0 1-6.7 11.6 29.8 29.8 0 0 1-22.8 10.2 29.8 29.8 0 0 1-22.7-10.2c-2.8-3.2-5-7.1-6.6-11.6a44 44 0 0 1-2.4-14.9c0-5.4.8-10.3 2.4-14.8a32.4 32.4 0 0 1 16.6-19.2c3.9-1.8 8.1-2.7 12.7-2.7a29.8 29.8 0 0 1 22.8 10.3 34 34 0 0 1 6.7 11.6c1.6 4.5 2.4 9.5 2.4 14.8zm-18.7 0c0-2.7-.3-5.1-.8-7.4a18 18 0 0 0-2.5-6 10.9 10.9 0 0 0-9.9-5.4c-2.2 0-4.1.5-5.8 1.4-1.6 1-3 2.3-4 4-1.1 1.7-1.9 3.7-2.4 6a35.2 35.2 0 0 0 0 15 18 18 0 0 0 2.4 6c1.1 1.7 2.4 3 4 3.9 1.6.9 3.5 1.4 5.8 1.4s4.2-.5 5.8-1.5c1.6-1 3-2.4 4.1-4.2 1.1-1.7 1.9-3.8 2.5-6 .5-2.4.8-4.7.8-7.2zM1242.8 291.4c0 5.2-.6 10-1.8 14.4-1.2 4.4-3 8.2-5.3 11.3a24.5 24.5 0 0 1-28.7 8.4 21.2 21.2 0 0 1-6.3-3.9v4h-18.5v-88.5l18.5-9.2v31.7a30.1 30.1 0 0 1 6.2-4.1 22.4 22.4 0 0 1 8.6-1.8c3.8 0 7.3.7 10.6 2.2 3.3 1.4 6.2 3.7 8.7 6.7 2.5 3.1 4.4 6.9 5.9 11.7a61.5 61.5 0 0 1 2.1 17.1zm-18.8.4c0-6.8-1-11.9-3.1-15.3a9.9 9.9 0 0 0-9-5.1 13.4 13.4 0 0 0-6.8 1.6 11 11 0 0 0-2.5 1.9l-2.1 2.4v26.5c.7 1 1.4 1.8 2.1 2.5a14.8 14.8 0 0 0 10.3 3.6c3.6 0 6.3-1.5 8.2-4.5 2-3.2 2.9-7.7 2.9-13.6zM1295.1 325.7V321a19.1 19.1 0 0 1-6.6 4.4 24.2 24.2 0 0 1-9.2 1.8c-3.3 0-6.5-.5-9.6-1.5s-5.9-2.6-8.4-4.6c-2.5-2-4.4-4.6-6-7.8a25.3 25.3 0 0 1-2.3-11.1 20.6 20.6 0 0 1 8.3-17.5c2.6-1.9 5.6-3.4 9.1-4.4a40.4 40.4 0 0 1 19.3-.6c2.1.6 3.9 1.2 5.4 2v-3.5c0-2.6-.9-4.8-2.6-6.4-1.7-1.7-4.2-2.5-7.5-2.5-4.1 0-7.4.3-10 .9a36 36 0 0 0-9.2 3.8l-7.1-12.8a48.9 48.9 0 0 1 38.1-5.5c3.5 1.1 6.5 2.7 9 4.8a22 22 0 0 1 5.8 7.7c1.4 3.1 2.1 6.6 2.1 10.5v47.2h-18.6zm0-29.6l-2.4-1.3c-.8-.4-1.7-.7-2.7-.9a52.4 52.4 0 0 0-7.8-.8 12 12 0 0 0-7.9 2.3c-1.8 1.5-2.7 3.7-2.7 6.6 0 1.2.2 2.4.6 3.5.4 1.1 1 2.1 1.8 3 .9.9 2 1.5 3.3 2.1 1.4.5 3 .8 5 .8 1.5 0 3-.2 4.3-.5a15 15 0 0 0 6.6-3.5c.8-.8 1.5-1.6 2-2.4v-8.9zM1331.5 325.7v-88.5l18.5-9.2v97.7h-18.5zM1055.4 440.7a52.8 52.8 0 0 1-7.1 26.8 42.3 42.3 0 0 1-17.8 15.2 59.3 59.3 0 0 1-23.2 4.9h-28v-93.8h29.4c6.7 0 12.9.8 18.6 2.5a38.8 38.8 0 0 1 14.8 8.1 37 37 0 0 1 9.7 14.5c2.4 6 3.6 13.3 3.6 21.8zm-19.3 0c0-4.8-.5-9-1.6-12.6a20.2 20.2 0 0 0-13.7-14.4 40.3 40.3 0 0 0-12.8-1.8h-9.9v57.3h9.2c4.9 0 9.2-.7 12.8-2.1a23.3 23.3 0 0 0 14.2-14.9c1.2-3.3 1.8-7.2 1.8-11.5zM1128.4 452.5l-.1 3.5-.2 2.5H1086a13.5 13.5 0 0 0 4.9 10.2c1.3 1 2.8 1.8 4.5 2.3a17.3 17.3 0 0 0 8.5.4 15.7 15.7 0 0 0 6.2-2.6c.9-.6 1.6-1.3 2.3-2l13.2 10.9a25.8 25.8 0 0 1-5 4.9 34.6 34.6 0 0 1-38.7 1.4 32.6 32.6 0 0 1-10.7-12.4 41.3 41.3 0 0 1-3.9-19.1c0-5.4.8-10.3 2.4-14.8a32 32 0 0 1 16.5-19.2 28.8 28.8 0 0 1 25 .2c3.7 1.9 6.8 4.6 9.3 7.9a44.4 44.4 0 0 1 7.9 25.9zm-18-8a18 18 0 0 0-1-4.6c-.5-1.5-1.3-2.9-2.4-4.1-1-1.2-2.3-2.1-3.8-2.8-1.5-.7-3.3-1.1-5.4-1.1-1.7 0-3.2.3-4.5 1-1.3.7-2.5 1.5-3.5 2.7a15.9 15.9 0 0 0-3.5 9h24.1zM1143.8 487.7v-88.5l18.5-9.2v97.7h-18.5zM1201.5 401a11.3 11.3 0 0 1-3.2 7.5 11.3 11.3 0 0 1-7.5 3.2 11.3 11.3 0 0 1-7.5-3.2 11.3 11.3 0 0 1-3.2-7.5 11.3 11.3 0 0 1 3.2-7.5 11.3 11.3 0 0 1 7.5-3.2 11.3 11.3 0 0 1 7.5 3.2 11.3 11.3 0 0 1 3.2 7.5zm-19.9 86.7v-70.3h18.5v70.3h-18.5zM1257.5 487.7h-19l-25.3-70.3h20.3l14.8 46.4 14.7-46.4h19.8l-25.3 70.3zM1350.2 452.5l-.1 3.5-.2 2.5h-42.1a13.5 13.5 0 0 0 4.9 10.2c1.3 1 2.8 1.8 4.5 2.3a17.3 17.3 0 0 0 8.5.4 15.7 15.7 0 0 0 6.2-2.6c.9-.6 1.6-1.3 2.3-2l13.2 10.9a25.8 25.8 0 0 1-5 4.9 34.6 34.6 0 0 1-38.7 1.4 32.6 32.6 0 0 1-10.7-12.4 41.3 41.3 0 0 1-3.9-19.1c0-5.4.8-10.3 2.4-14.8a32 32 0 0 1 16.5-19.2 28.8 28.8 0 0 1 25 .2c3.7 1.9 6.8 4.6 9.3 7.9a44.4 44.4 0 0 1 7.9 25.9zm-18-8a18 18 0 0 0-1-4.6c-.5-1.5-1.3-2.9-2.4-4.1-1-1.2-2.3-2.1-3.8-2.8-1.5-.7-3.3-1.1-5.4-1.1-1.7 0-3.2.3-4.5 1-1.3.7-2.5 1.5-3.5 2.7a15.9 15.9 0 0 0-3.5 9h24.1zM1406.1 438.9a17.6 17.6 0 0 0-4.9-3.3c-1.8-.9-3.7-1.3-5.8-1.3-4.4 0-7.4 1.3-9.2 3.8-1.8 2.5-2.7 6.3-2.7 11.5v38.1H1365v-70.3h18.5v4.6c.7-.8 1.6-1.5 2.7-2.3l3.4-2.1a17.2 17.2 0 0 1 8.4-1.8c3 0 5.6.5 7.9 1.5 2.2 1 3.9 2.2 5.2 3.4l-5 18.2zM1454.2 512.4H1436l9.4-24.8-27.3-70.3h20.3l16.1 47.4 16.1-47.4h19.8l-36.2 95.1zM1048.1 621.3c0 4.4-.7 8.5-2.2 12.2s-3.7 6.8-6.7 9.5c-3 2.6-6.8 4.7-11.5 6.1a57 57 0 0 1-38-2.4 37.2 37.2 0 0 1-14.9-12.5l13.5-12c3.3 3.8 7 6.6 11.1 8.2 4.1 1.7 8.4 2.5 12.9 2.5a32 32 0 0 0 7.7-.7c2-.5 3.6-1.1 4.9-1.9a7.5 7.5 0 0 0 2.8-2.8c.6-1.1.9-2.7.9-4.8 0-1.5-.3-2.8-.8-4a7.5 7.5 0 0 0-3-3.2c-1.5-1-3.6-1.9-6.3-2.7-2.7-.9-6.3-1.8-10.8-2.8-4.3-1-8.3-2.2-11.9-3.5-3.6-1.3-6.7-3-9.3-5.1a21 21 0 0 1-6-7.8c-1.4-3.1-2.2-7-2.2-11.6a25 25 0 0 1 9.8-20.2c3-2.4 6.6-4.2 10.7-5.5 4.1-1.3 8.4-1.9 13.1-1.9a41.4 41.4 0 0 1 27.4 8.6c2.1 1.6 4.4 3.6 6.7 6.1l-13.5 13.2a74.9 74.9 0 0 0-4.7-4.3 25.8 25.8 0 0 0-22.8-4.7c-1.7.5-3.1 1.1-4.1 1.9s-1.8 1.7-2.3 2.7c-.5 1-.7 2-.7 3.1 0 1.5.3 2.7.9 3.8.6 1 1.6 2 3 2.8 1.4.8 3.4 1.6 5.8 2.3l9.3 2.4c5.3 1.3 9.7 2.6 13.3 4 3.5 1.4 6.7 3.1 9.4 5.3 2.7 2.1 4.8 4.8 6.4 8.1a29 29 0 0 1 2.1 11.6zM1121 614.5l-.1 3.5-.2 2.5h-42.1a13.5 13.5 0 0 0 4.9 10.2c1.3 1 2.8 1.8 4.5 2.3a17.3 17.3 0 0 0 8.5.4 15.7 15.7 0 0 0 6.2-2.6c.9-.6 1.6-1.3 2.3-2l13.2 10.9a25.8 25.8 0 0 1-5 4.9 34.6 34.6 0 0 1-38.7 1.4 32.6 32.6 0 0 1-10.7-12.4 41.3 41.3 0 0 1-3.9-19.1c0-5.4.8-10.3 2.4-14.8a32 32 0 0 1 16.5-19.2 28.8 28.8 0 0 1 25 .2c3.7 1.9 6.8 4.6 9.3 7.9 2.5 3.3 4.5 7.2 5.8 11.7 1.4 4.5 2.1 9.2 2.1 14.2zm-18-8a18 18 0 0 0-1-4.6c-.5-1.5-1.3-2.9-2.4-4.1-1-1.2-2.3-2.1-3.8-2.8-1.5-.7-3.3-1.1-5.4-1.1-1.7 0-3.2.3-4.5 1-1.3.7-2.5 1.5-3.5 2.7a15.9 15.9 0 0 0-3.5 9h24.1zM1176.8 600.9a17.6 17.6 0 0 0-4.9-3.3c-1.8-.9-3.7-1.3-5.8-1.3-4.4 0-7.4 1.3-9.2 3.8-1.8 2.5-2.7 6.3-2.7 11.5v38.1h-18.5v-70.3h18.5v4.6c.7-.8 1.6-1.5 2.7-2.3l3.4-2.1a17.2 17.2 0 0 1 8.4-1.8c3 0 5.6.5 7.9 1.5 2.2 1 3.9 2.2 5.2 3.4l-5 18.2zM1233.1 649.7h-19l-25.3-70.3h20.3l14.8 46.4 14.7-46.4h19.8l-25.3 70.3zM1291.3 563a11.3 11.3 0 0 1-3.2 7.5 11.3 11.3 0 0 1-7.5 3.2 11.3 11.3 0 0 1-7.5-3.2 11.3 11.3 0 0 1-3.2-7.5 11.3 11.3 0 0 1 3.2-7.5 11.3 11.3 0 0 1 7.5-3.2 11.3 11.3 0 0 1 7.5 3.2 11.3 11.3 0 0 1 3.2 7.5zm-19.9 86.7v-70.3h18.5v70.3h-18.5zM1366.7 635.5a55.7 55.7 0 0 1-5.4 6.3 31.4 31.4 0 0 1-23.4 9.5 31 31 0 0 1-23.4-10.2c-3-3.2-5.3-7.1-7-11.6a41.6 41.6 0 0 1-2.6-14.9c0-5.4.8-10.3 2.5-14.8s4-8.4 7-11.6a33.2 33.2 0 0 1 24.2-10.3 31.6 31.6 0 0 1 27.8 15.6l-12.2 12.3c-1-1.5-2.1-2.8-3.2-4.1a17.4 17.4 0 0 0-3.6-3.1 16.5 16.5 0 0 0-9.3-2.9c-2.2 0-4.2.4-6 1.3a14 14 0 0 0-4.6 3.8 17.1 17.1 0 0 0-2.9 5.9c-.7 2.3-1 4.9-1 7.8 0 2.8.3 5.4 1 7.7s1.7 4.3 2.9 5.9a12.9 12.9 0 0 0 10.6 5.1 18.8 18.8 0 0 0 13-5.1c1.2-1.1 2.4-2.4 3.6-3.8l12 11.2zM1436.3 614.5l-.1 3.5-.2 2.5h-42.1a13.5 13.5 0 0 0 4.9 10.2c1.3 1 2.8 1.8 4.5 2.3a17.3 17.3 0 0 0 8.5.4 15.7 15.7 0 0 0 6.2-2.6c.9-.6 1.6-1.3 2.3-2l13.2 10.9a25.8 25.8 0 0 1-5 4.9 34.6 34.6 0 0 1-38.7 1.4 32.6 32.6 0 0 1-10.7-12.4 41.3 41.3 0 0 1-3.9-19.1c0-5.4.8-10.3 2.4-14.8a32 32 0 0 1 16.5-19.2 28.8 28.8 0 0 1 25 .2c3.7 1.9 6.8 4.6 9.3 7.9 2.5 3.3 4.5 7.2 5.8 11.7 1.4 4.5 2.1 9.2 2.1 14.2zm-18-8a18 18 0 0 0-1-4.6c-.5-1.5-1.3-2.9-2.4-4.1-1-1.2-2.3-2.1-3.8-2.8-1.5-.7-3.3-1.1-5.4-1.1-1.7 0-3.2.3-4.5 1-1.3.7-2.5 1.5-3.5 2.7a15.9 15.9 0 0 0-3.5 9h24.1zM1503.1 584.7l-5.9 14.6a45 45 0 0 0-20.4-5.6 21 21 0 0 0-7.2.9c-1.5.6-2.3 1.8-2.3 3.6 0 .7.2 1.4.5 2 .3.6 1 1.1 2.1 1.7 1 .6 2.5 1.2 4.4 1.9l7.6 2.6c3.1 1 6.1 2.2 9 3.4 2.8 1.2 5.3 2.7 7.5 4.4 2.1 1.7 3.8 3.8 5.1 6.2 1.3 2.4 1.9 5.4 1.9 8.9 0 4.1-.8 7.5-2.3 10.3-1.5 2.8-3.6 5-6.2 6.8-2.6 1.7-5.6 3-9.1 3.8a56.3 56.3 0 0 1-40.7-7l6.2-14.1a47.5 47.5 0 0 0 24.3 6.4c3.5 0 5.9-.4 7.3-1.3 1.4-.8 2.1-2.2 2.1-4.1 0-.8-.2-1.5-.5-2.1-.3-.6-.9-1.2-1.7-1.8a40.4 40.4 0 0 0-8.1-3.2c-4.2-1.3-8-2.5-11.5-3.8a39.3 39.3 0 0 1-8.7-4.5 19 19 0 0 1-5.6-6.4 20 20 0 0 1-2-9.3 18 18 0 0 1 7.9-16c2.5-1.7 5.5-3 8.9-3.8a49.9 49.9 0 0 1 24.9.7c4.6 1 8.8 2.7 12.5 4.8zM1052.7 747.6c0 5.5-.9 10.1-2.6 14a25.6 25.6 0 0 1-17.9 15.1 48 48 0 0 1-13.5 1.8h-20.6v33.2h-18.8v-93.8h41c4.4 0 8.6.6 12.5 1.8a27.2 27.2 0 0 1 17.3 14.9c1.8 3.7 2.6 8 2.6 13zm-19.3.4c0-1.9-.3-3.6-.9-5.1a9.4 9.4 0 0 0-2.7-3.8c-1.2-1-2.7-1.8-4.4-2.3-1.7-.5-3.6-.8-5.7-.8h-21.6v24.1h21.9c4.4 0 7.7-1 10-3 2.3-1.9 3.4-5 3.4-9.1zM1124.7 776.5c0 5.4-.8 10.4-2.4 14.9a34 34 0 0 1-6.7 11.6 29.8 29.8 0 0 1-22.8 10.2 29.8 29.8 0 0 1-22.7-10.2c-2.8-3.2-5-7.1-6.6-11.6a44 44 0 0 1-2.4-14.9c0-5.4.8-10.3 2.4-14.8a32.4 32.4 0 0 1 16.6-19.2c3.9-1.8 8.1-2.7 12.7-2.7a29.8 29.8 0 0 1 22.8 10.3 34 34 0 0 1 6.7 11.6c1.6 4.5 2.4 9.4 2.4 14.8zm-18.8 0c0-2.7-.3-5.1-.8-7.4a18 18 0 0 0-2.5-6 10.9 10.9 0 0 0-9.9-5.4c-2.2 0-4.1.5-5.8 1.4-1.6 1-3 2.3-4 4a18 18 0 0 0-2.4 6 35.2 35.2 0 0 0 0 15 18 18 0 0 0 2.4 6c1.1 1.7 2.4 3 4 3.9 1.6.9 3.5 1.4 5.8 1.4s4.2-.5 5.8-1.5c1.6-1 3-2.4 4.1-4.2 1.1-1.7 1.9-3.8 2.5-6 .5-2.4.8-4.7.8-7.2zM1139.7 811.7v-88.5l18.5-9.2v97.7h-18.5zM1215.6 811.7V807a19.1 19.1 0 0 1-6.6 4.4 24.2 24.2 0 0 1-9.2 1.8 31 31 0 0 1-9.6-1.5c-3.1-1-5.9-2.6-8.4-4.6-2.5-2-4.4-4.6-6-7.8a25.3 25.3 0 0 1-2.3-11.1 20.6 20.6 0 0 1 8.3-17.5c2.6-1.9 5.6-3.4 9.1-4.4a40.4 40.4 0 0 1 19.3-.6c2.1.6 3.9 1.2 5.4 2v-3.5c0-2.6-.9-4.8-2.6-6.4-1.7-1.7-4.2-2.5-7.5-2.5-4.1 0-7.4.3-10 .9a36 36 0 0 0-9.2 3.8l-7.1-12.8a48.9 48.9 0 0 1 38.1-5.5c3.5 1.1 6.5 2.7 9 4.8a22 22 0 0 1 5.8 7.7c1.4 3.1 2.1 6.6 2.1 10.5v47.2h-18.6zm0-29.6l-2.4-1.3c-.8-.4-1.7-.7-2.7-.9a52.4 52.4 0 0 0-7.8-.8 12 12 0 0 0-7.9 2.3c-1.8 1.5-2.7 3.7-2.7 6.6 0 1.2.2 2.4.6 3.5.4 1.1 1 2.1 1.8 3 .9.9 2 1.5 3.3 2.1 1.4.5 3 .8 5 .8 1.5 0 3-.2 4.3-.5a15 15 0 0 0 6.6-3.5c.8-.8 1.5-1.6 2-2.4v-8.9zM1293.8 811.7v-38.1c0-5.5-.9-9.6-2.7-12.3-1.8-2.7-4.9-4-9.3-4a16 16 0 0 0-5.1.8 9 9 0 0 0-3.8 2.6c-1 1.2-1.8 2.8-2.4 4.9-.5 2-.8 4.6-.8 7.6v38.5h-18.5v-70.3h18.5v4.6a23 23 0 0 1 6.7-4.4 23.3 23.3 0 0 1 9.8-1.8c4.5 0 8.4.8 11.6 2.3a22 22 0 0 1 8.1 6.4c2.1 2.8 3.7 6.1 4.7 10.1s1.5 8.4 1.5 13.4v39.7h-18.3zM1368.2 811.7v-4.4l-2.8 2.2-3.3 1.9c-1.2.6-2.6 1.1-4 1.4a25.2 25.2 0 0 1-15.4-1.7 23.5 23.5 0 0 1-8.7-6.8 34.7 34.7 0 0 1-5.9-11.7 59.7 59.7 0 0 1-.4-31.3c1.2-4.4 3-8.2 5.3-11.3a24.5 24.5 0 0 1 32.3-6.6c1 .6 1.9 1.3 2.7 2v-22.1l18.5-9.2v97.7h-18.3zm0-48.4a13.6 13.6 0 0 0-8.4-5.6c-1.3-.3-2.6-.4-4-.4a9.1 9.1 0 0 0-8.2 4.5c-1.9 3-2.8 7.5-2.8 13.4 0 3.6.3 6.7.9 9.3.6 2.6 1.4 4.7 2.4 6.3 1 1.7 2.3 2.9 3.8 3.7 1.5.8 3.1 1.2 5 1.2a13.4 13.4 0 0 0 6.8-1.6 11 11 0 0 0 2.5-1.9l2.1-2.4v-26.5z"/></svg>
