<svg xmlns="http://www.w3.org/2000/svg" height="120.84" width="753.44"><path d="M140.9733 37.7593h16.8627v4.689h-11.844v6.8261h11.0213v4.6905H145.992v7.8964h11.844v4.6891h-16.8627v-28.791M164.2067 45.9843h4.1973l.5747 2.8806c1.0693-1.89 3.456-3.3728 6.088-3.3728 3.2493 0 5.0586 1.1506 6.004 3.3728 1.0693-1.89 3.4973-3.3728 6.128-3.3728 5.3053 0 7.8973 3.1255 7.8973 8.8839v12.1744h-4.812v-12.051c0-3.25-1.2747-4.6469-3.372-4.6469-2.756 0-4.8533 2.6739-4.8533 8.3083v8.3896h-4.8134v-12.051c0-3.25-1.276-4.6469-3.372-4.6469-2.7546 0-4.8533 2.6739-4.8533 8.3083v8.3896h-4.8133V45.9843M218.04 56.2676c0-3.6599-2.6333-6.415-6.0053-6.415-3.496 0-6.1267 2.7551-6.1267 6.415s2.5493 6.4177 6.044 6.4177c3.5387 0 6.088-2.7578 6.088-6.4177zm-16.4107-10.2833h4.1947l.5347 2.1802c1.3986-1.5218 3.9893-2.6724 6.6626-2.6724 5.9227 0 9.9134 4.7714 9.9134 10.7755 0 6.0041-4.2374 10.7765-10.324 10.7765-2.6734 0-5.0587-1.2738-6.1707-2.6749V74.776h-4.8107V45.9843M243.6573 56.2676c0-3.6599-2.4266-6.415-5.9213-6.415-3.5373 0-5.9227 2.7551-5.9227 6.415s2.3854 6.4177 5.9227 6.4177c3.4947 0 5.9213-2.7578 5.9213-6.4177zm-16.7813 0c0-6.0041 4.608-10.7755 10.86-10.7755 6.2507 0 10.8587 4.7714 10.8587 10.7755 0 6.0041-4.608 10.7765-10.8587 10.7765-6.252 0-10.86-4.7724-10.86-10.7765M250.728 45.9843h4.936l4.4413 15.5073 3.948-10.6532-1.644-4.8541h4.6467l4.8533 15.465 4.4-15.465h4.9374l-6.7054 20.5661h-5.0573l-3.496-10.2828-3.5387 10.2828h-4.9773l-6.744-20.5661M299.0093 54.0873c-.1666-2.5093-2.388-4.2348-5.2266-4.2348-2.9174 0-5.2627 1.8088-5.468 4.2348zm-15.4653 2.1803c0-6.0041 4.1533-10.7755 10.1987-10.7755 6.2946 0 10.1186 4.3604 10.1186 10.3646 0 .5349-.0413 1.3562-.1226 1.8526h-15.424c.164 3.0422 2.5093 4.976 5.7986 4.976 2.3854 0 3.8254-1.0297 5.0587-3.1276l4.0307 1.7692c-1.5214 3.4136-4.976 5.7172-9.5014 5.7172-6.292 0-10.1573-4.6072-10.1573-10.7765M309.1627 45.9843h4.196l.5333 2.6333c1.1933-2.0172 3.1253-3.1255 5.2227-3.1255 1.0706 0 1.9746.1646 2.7573.411l-.9893 4.9353c-.6974-.163-1.7254-.3697-2.5494-.3697-2.756 0-4.3586 1.9338-4.3586 5.3068v10.7749h-4.812V45.9843M325.7347 45.9843h4.812v20.5661h-4.812zm-.2467-8.225h5.3053v5.0182h-5.3053v-5.0182M337.208 45.9843h4.1947l.576 2.8806c1.028-1.9322 3.456-3.3728 6.0866-3.3728 5.3054 0 7.9387 3.1255 7.9387 8.8839v12.1744h-4.8133V55.5291c0-3.6626-1.2734-5.6766-4.112-5.6766-2.8374 0-5.06 2.6739-5.06 8.3083v8.3896h-4.8107V45.9843M374.2187 53.5124c0-2.0579-1.5214-3.8245-3.824-3.8245-2.2214 0-4.0307 1.7666-4.0307 3.8245 0 2.0984 1.728 3.7833 4.0307 3.7833 2.3853 0 3.824-1.6849 3.824-3.7833zm1.316 12.7093c0-2.7557-2.3014-4.8948-5.14-4.8948-2.8387 0-5.3467 2.1391-5.3467 4.8948 0 2.7147 2.344 4.8538 5.3467 4.8538 3.0026 0 5.14-2.1391 5.14-4.8538zm-14.9707.3287c0-3.4135 2.1813-6.3755 4.524-7.5276-1.48-.9859-3.084-3.2896-3.084-5.675 0-4.525 3.908-7.8557 8.3907-7.8557h9.3773v2.9198l-3.208.6994c.9453.8647 2.0147 2.3855 2.0147 4.647 0 2.3869-1.564 4.4432-3.084 5.2645 2.344 1.1521 4.524 4.1141 4.524 7.5276 0 5.0593-4.2787 8.7183-9.624 8.7183-5.3467 0-9.8307-3.659-9.8307-8.7183M2.6724 102.2853H0V97.925h2.6724v-5.512l4.813-.9453v6.4573h4.6474v4.3604H7.4854v16.2042h-4.813v-16.2042M16.0781 89.0821h4.812v11.7204c1.0292-1.8906 3.5792-3.3713 6.1698-3.3713 5.3057 0 8.1021 3.1255 8.1021 8.8823v12.176H30.35v-11.023c0-3.6609-1.4797-5.6749-4.3177-5.6749-2.7963 0-5.1422 2.7552-5.1422 8.3078v8.39h-4.812V89.0822M55.7636 106.0264c-.1652-2.5093-2.3855-4.2348-5.224-4.2348-2.9188 0-5.2645 1.8072-5.4688 4.2348zm-15.4652 2.1787c0-6.0031 4.1537-10.7739 10.2-10.7739 6.2943 0 10.1188 4.3604 10.1188 10.3645 0 .5344-.0412 1.3563-.1224 1.851h-15.424c.163 3.0438 2.5095 4.9761 5.798 4.9761 2.387 0 3.8255-1.0292 5.0593-3.1265l4.0307 1.7692c-1.5219 3.4125-4.9776 5.7162-9.501 5.7162-6.2927 0-10.1594-4.6063-10.1594-10.7766M75.376 89.6983h16.8641v4.6901H80.3948v6.825h11.023v4.6906h-11.023v12.5855H75.376V89.6983M97.335 97.925h4.812v20.5645h-4.812zm-.248-8.2267h5.3073v5.0182h-5.3074v-5.0182M108.8079 97.925h4.1942l.5766 2.8775c1.0281-1.9322 3.4562-3.3713 6.0874-3.3713 5.3058 0 7.937 3.1255 7.937 8.8823v12.176h-4.8114v-11.023c0-3.6609-1.2756-5.6749-4.113-5.6749-2.838 0-5.059 2.6733-5.059 8.3078v8.39h-4.8118V97.925M149.768 108.2051c0-3.6583-2.5507-6.4135-6.0453-6.4135-3.5374 0-6.088 2.7552-6.088 6.4135 0 3.6615 2.5506 6.4177 6.088 6.4177 3.4946 0 6.0453-2.7562 6.0453-6.4177zm-17.069 0c0-6.0031 4.277-10.7739 10.1997-10.7739 2.6746 0 5.1413 1.1504 6.376 2.6733l.576-2.1796h4.196v20.5646h-4.196l-.576-2.1813c-1.152 1.523-3.7014 2.6735-6.376 2.6735-5.9227 0-10.1998-4.7709-10.1998-10.7766M160.7867 97.925h4.1933l.576 2.8775c1.0293-1.9322 3.456-3.3713 6.088-3.3713 5.3053 0 7.9373 3.1255 7.9373 8.8823v12.176h-4.812v-11.023c0-3.6609-1.2746-5.6749-4.1133-5.6749-2.8373 0-5.0587 2.6733-5.0587 8.3078v8.39h-4.8106V97.925M184.6773 108.2051c0-5.9624 4.2774-10.7739 10.4054-10.7739 4.8946 0 8.1026 2.3432 9.4186 5.84l-4.3586 1.81c-.9054-1.975-2.304-3.2896-5.06-3.2896-3.4134 0-5.4707 2.7552-5.4707 6.4135 0 3.6615 2.016 6.4177 5.4707 6.4177 2.7133 0 4.1946-1.2755 5.1-3.249l4.2773 1.8495c-1.316 3.0453-4.1947 5.7584-9.3773 5.7584-6.128 0-10.4054-4.8115-10.4054-10.7766M209.4733 97.925h4.812v20.5645h-4.812zm-.248-8.2267h5.3054v5.0182h-5.3054v-5.0182M236.576 108.2051c0-3.6583-2.5507-6.4135-6.0453-6.4135-3.5374 0-6.088 2.7552-6.088 6.4135 0 3.6615 2.5506 6.4177 6.088 6.4177 3.4946 0 6.0453-2.7562 6.0453-6.4177zm-17.0693 0c0-6.0031 4.2786-10.7739 10.2013-10.7739 2.672 0 5.1413 1.1504 6.3747 2.6733l.5746-2.1796h4.1974v20.5646h-4.1974l-.5746-2.1813c-1.152 1.523-3.7027 2.6735-6.3747 2.6735-5.9227 0-10.2013-4.7709-10.2013-10.7766M247.5947 89.0821h4.812v29.4074h-4.812V89.082M265.316 89.6983h5.388l7.6907 22.3745 2.88-8.1448-5.1014-14.2297h4.6494l2.7546 7.8568 2.756-7.8568h4.648l-5.1 14.2297 2.8787 8.1448 7.692-22.3745h5.388l-10.448 28.7912h-5.0587l-2.756-8.1016-2.7546 8.1016h-5.1L265.316 89.6983M319.724 108.2051c0-3.6583-2.4267-6.4135-5.9227-6.4135-3.5373 0-5.9226 2.7552-5.9226 6.4135 0 3.6615 2.3853 6.4177 5.9226 6.4177 3.496 0 5.9227-2.7562 5.9227-6.4177zm-16.7813 0c0-6.0031 4.608-10.7739 10.8586-10.7739 6.2507 0 10.8587 4.7708 10.8587 10.774 0 6.0056-4.608 10.7765-10.8587 10.7765-6.2506 0-10.8586-4.7709-10.8586-10.7766M330.0013 97.925h4.196l.5347 2.6317c1.1933-2.0156 3.1253-3.1255 5.224-3.1255 1.0693 0 1.9747.163 2.7547.4093l-.9867 4.937c-.6987-.1646-1.728-.3698-2.5507-.3698-2.7546 0-4.36 1.9339-4.36 5.3052v10.7766h-4.812V97.9249M346.6147 89.0821h4.812v29.4074h-4.812V89.082M373.8813 108.2051c0-3.6583-2.5493-6.4135-6.0466-6.4135-3.536 0-6.0854 2.7552-6.0854 6.4135 0 3.6615 2.5494 6.4177 6.0854 6.4177 3.4973 0 6.0466-2.7562 6.0466-6.4177zm-17.0266 0c0-6.0031 4.236-10.7739 10.3213-10.7739 2.676 0 5.06 1.2744 6.1707 2.6733V89.0821h4.812v29.4074h-4.196l-.532-2.1813c-1.1134 1.3995-3.5787 2.6735-6.2547 2.6735-6.0853 0-10.3213-4.7709-10.3213-10.7766M749.9546 44.151c0-3.5365-2.8626-6.398-6.3906-6.398h-73.7814c-13.456 0-24.4 10.3693-24.4 23.825 0 13.4584 10.944 23.8219 24.4 23.8219h59.26c5.7654 0 10.452 5.2718 10.452 11.0354 0 5.7651-4.6866 11.0391-10.452 11.0391h-73.784c-3.528 0-6.392 2.863-6.392 6.3864 0 3.5355 2.864 6.3943 6.392 6.3943h73.784c13.4574 0 24.3974-10.364 24.3974-23.8198 0-13.4573-10.94-23.8156-24.3974-23.8156h-59.26c-5.7653 0-10.4546-5.2813-10.4546-11.0417 0-5.7667 4.6893-11.0339 10.4546-11.0339h73.7814c3.528 0 6.3906-2.864 6.3906-6.3932M619.82 9.289c0-5.134-4.1613-9.2954-9.2987-9.2954-5.1333 0-9.2933 4.1615-9.2933 9.2953 0 5.1371 4.16 9.2959 9.2933 9.2959 5.1374 0 9.2987-4.1588 9.2987-9.2959" fill="#80cc28"/><path d="M580.8947 18.5848c-5.136 0-9.2947-4.1588-9.2947-9.2959 0-5.1338 4.1587-9.2953 9.2947-9.2953 5.136 0 9.2973 4.1615 9.2973 9.2953 0 5.1371-4.1613 9.2959-9.2973 9.2959" fill="#99d64b"/><path d="M551.2667 18.5848c-5.1387 0-9.3-4.1588-9.3-9.2959 0-5.1338 4.1613-9.2953 9.3-9.2953 5.1333 0 9.2933 4.1615 9.2933 9.2953 0 5.1371-4.16 9.2959-9.2933 9.2959" fill="#b2e073"/><path d="M521.6373 18.5848c-5.136 0-9.296-4.1588-9.296-9.2959 0-5.1338 4.16-9.2953 9.296-9.2953 5.136 0 9.296 4.1615 9.296 9.2953 0 5.1371-4.16 9.2959-9.296 9.2959" fill="#ccea9e"/><path d="M492.0067 18.5848c-5.136 0-9.2974-4.1588-9.2974-9.2959 0-5.1338 4.1614-9.2953 9.2974-9.2953 5.136 0 9.296 4.1615 9.296 9.2953 0 5.1371-4.16 9.2959-9.296 9.2959" fill="#e5f4cc"/><path d="M569.2747 37.7593c-.2014 0-.3867.039-.5827.0572v-.0572h-62.744c-24.9347 0-41.8267 16.3176-41.8267 41.2474v34.8604c0 3.8437 3.12 6.9661 6.968 6.9661 3.8574 0 6.976-3.1224 6.976-6.9661V79.0067c0-17.2839 10.4507-28.4688 27.8827-28.4688h62.744v-.0583c.196.0177.3813.0583.5827.0583 3.5333 0 6.3946-2.863 6.3946-6.387 0-3.5297-2.8613-6.3916-6.3946-6.3916" fill="#80cc28"/><path d="M485.0333 79.0067c0 3.5286 2.8654 6.3932 6.3947 6.3932h63.9067c3.5306 0 6.3933-2.8646 6.3933-6.3932 0-3.5303-2.8627-6.3932-6.3933-6.3932H491.428c-3.5293 0-6.3947 2.8629-6.3947 6.3932M603.5547 44.151v69.7098c0 3.85 3.1186 6.9792 6.9666 6.9792 3.8547 0 6.9734-3.1292 6.9734-6.9792V44.151c0-3.85-3.1187-6.974-6.9734-6.974-3.848 0-6.9666 3.124-6.9666 6.974" fill="#80cc28"/></svg>
