<svg xmlns="http://www.w3.org/2000/svg" height="160.333" width="1007.573"><path d="M155.341 82.128c0 17.049-4.261 31.536-12.997 44.324-14.494 21.1-38.784 33.881-64.569 33.881-22.374 0-41.338-8.305-56.256-24.08C7.242 121.126 0 102.372 0 79.998c0-20.884 8.096-40.064 23.01-54.766C37.927 10.529 56.68 2.857 78.2 2.857c32.392 0 60.732 19.819 72.88 52.206h-42.194c-9.376-9.803-19.178-14.698-31.11-14.698-22.16 0-39.634 18.108-39.634 39.843 0 24.08 18.75 42.618 39.633 42.618 14.063 0 26.635-7.241 34.097-20.454H68.614V72.11h86.302c.21 3.41.425 6.821.425 10.017M209.041 75.732c18.33 0 27.276-4.686 27.276-18.324 0-12.573-7.881-17.689-24.289-17.689H201.8v36.013zm-44.317 81.621V5.837h50.29c15.978 0 28.125 1.071 38.351 8.318 13.428 9.372 20.46 23.65 20.46 42.403 0 24.505-12.788 42.828-34.306 48.795l37.077 52h-45.815L201.8 108.548v48.805h-37.076M357.572 122.61c21.733 0 39.423-17.473 39.423-42.187 0-22.165-17.69-39.848-38.998-39.848-22.584 0-40.273 17.683-40.273 39.848 0 23.864 18.964 42.188 39.848 42.188zm-54.976-97.378c14.917-14.703 33.667-22.16 55.19-22.16 20.245 0 39.418 7.888 54.122 22.375 15.343 15.128 23.445 34.522 23.445 55.191 0 21.734-7.672 41.123-21.95 55.831-14.703 15.343-34.738 23.65-55.831 23.65-22.375 0-41.553-8.09-56.467-23.866-14.277-15.127-21.524-33.881-21.524-56.255 0-20.884 8.096-40.064 23.015-54.766M482.232 5.837v93.34c0 17.043 5.325 25.78 17.899 25.78 13.002 0 19.178-8.522 19.178-25.78V5.837h37.078v94.83c0 37.082-22.584 59.021-56.466 59.021-34.308 0-54.976-21.088-54.976-59.02V5.837h37.287M611.4 75.732c18.33 0 27.276-4.686 27.276-18.324 0-12.573-7.881-17.689-24.29-17.689h-9.802v36.013zm-44.319 81.621V5.837h50.291c15.977 0 28.125 1.071 38.352 8.318 13.428 9.372 20.46 23.65 20.46 42.618 0 19.604-8.952 35.797-24.08 44.959-9.593 5.751-21.525 6.816-37.293 6.816h-10.652v48.805H567.08M759.075 122.61c21.734 0 39.422-17.473 39.422-42.187 0-22.165-17.688-39.848-38.997-39.848-22.584 0-40.273 17.683-40.273 39.848 0 23.864 18.964 42.188 39.848 42.188zm-54.976-97.378c14.918-14.703 33.666-22.16 55.192-22.16 20.244 0 39.417 7.888 54.12 22.375 15.342 15.128 23.445 34.522 23.445 55.191 0 21.734-7.672 41.123-21.95 55.831-14.703 15.343-34.737 23.65-55.831 23.65-22.375 0-41.554-8.09-56.467-23.866-14.277-15.127-21.524-33.881-21.524-56.255 0-20.884 8.096-40.064 23.015-54.766M844.119 157.353V5.837h33.45l55.616 84.172V5.837h37.078v151.516H937.66l-56.465-84.387v84.387h-37.077" fill="#4dae38"/><path d="M988.913 4.521c1.951-1.958 4.295-2.94 7.04-2.94 2.775 0 5.128.982 7.084 2.94 1.935 1.954 2.899 4.306 2.899 7.071 0 2.779-.964 5.152-2.899 7.108-1.956 1.961-4.288 2.945-7.084 2.945-2.768 0-5.116-.984-7.05-2.945-1.935-1.956-2.894-4.33-2.894-7.108 0-2.765.959-5.117 2.904-7.07zm7.04 18.702c3.222 0 5.967-1.139 8.23-3.411 2.261-2.277 3.394-5.027 3.394-8.24 0-3.2-1.133-5.933-3.394-8.192-2.263-2.25-5.008-3.376-8.23-3.376-3.188 0-5.912 1.125-8.173 3.376-2.261 2.27-3.395 5-3.395 8.192 0 3.224 1.123 5.973 3.379 8.24 2.245 2.272 4.98 3.41 8.19 3.41" fill="#57b235"/><path d="M993.523 6.701h1.929c1.248 0 2.141.16 2.72.476.567.32.833.94.833 1.864 0 .982-.436 1.643-1.308 1.995-.474.185-1.188.283-2.136.283h-2.038zm0 6.202h1.772c1.193 0 2.038.133 2.496.408.812.469 1.209 1.444 1.209 2.913v1.013l.05.406c0 .057.02.101.02.138.017.05.017.086.045.134h2.086l-.076-.158c-.044-.109-.081-.326-.104-.666a15.16 15.16 0 0 1-.032-.952v-.923c0-.644-.229-1.3-.698-1.976-.463-.673-1.192-1.088-2.174-1.253.779-.123 1.395-.33 1.836-.614.834-.538 1.238-1.378 1.238-2.514 0-1.602-.666-2.678-1.974-3.231-.741-.305-1.884-.459-3.476-.459h-4.457v12.746h2.239v-5.012" fill="#57b235"/><path d="M997.697 11.036c-.474.185-1.188.283-2.136.283h-2.038V6.7h1.929c1.248 0 2.141.16 2.72.476.567.32.833.94.833 1.864 0 .982-.436 1.643-1.308 1.995zm3.428 6.721c-.044-.109-.081-.326-.104-.666a15.16 15.16 0 0 1-.032-.952v-.923c0-.644-.229-1.3-.698-1.976-.463-.673-1.192-1.088-2.174-1.253.779-.123 1.395-.33 1.836-.614.834-.538 1.238-1.378 1.238-2.514 0-1.602-.666-2.678-1.974-3.231-.741-.305-1.884-.459-3.476-.459h-4.457v12.746h2.239v-5.012h1.772c1.193 0 2.038.133 2.496.408.812.469 1.209 1.444 1.209 2.913v1.013l.05.406c0 .057.02.101.02.138.017.05.017.086.045.134h2.086l-.076-.158" fill="#57b235"/></svg>
