<svg xmlns="http://www.w3.org/2000/svg" height="109.34013" width="242.61064"><g fill="#7898c9"><path d="M216.75864 51.5776h-8.84V17.68747h8.20266v3.81666c1.04534-2.19213 3.62934-4.16346 7.10933-4.40826 5.644-.38747 9.38 2.96146 9.38 10.10573v24.376h-8.83733V25.96253c0-2.84586-.08667-5.35306-2.11333-5.8688-.868-.22293-2.13867-.0744-3.01733.68494-1.49334 1.30306-1.884 2.84013-1.884 5.20213v25.5968M64.9489 34.66507c0 6.19013.01147 11.17346-1.2396 13.77666-.6172 1.28174-1.54106 2.0396-3.2036 2.0396-1.6588 0-2.58066-.75786-3.19786-2.0396-1.25053-2.6032-1.24587-7.58653-1.24587-13.77666 0-6.19054-.00466-11.22854 1.24587-13.828.6172-1.28547 1.53907-2.0412 3.19787-2.0412 1.66253 0 2.5864.75573 3.2036 2.0412 1.25106 2.59946 1.2396 7.63746 1.2396 13.828zm3.30414-14.578c-2.2208-1.8204-4.6224-2.9912-7.74733-2.9912-3.12507 0-5.52347 1.1708-7.74374 2.9912-3.6808 3.01186-5.85626 8.40773-5.85626 14.578 0 6.16826 2.17546 11.55946 5.85626 14.5772 2.22027 1.8228 4.61867 2.988 7.74374 2.988 3.12493 0 5.52653-1.1652 7.74733-2.988 3.6808-3.01774 5.85573-8.40894 5.85573-14.5772 0-6.17027-2.17493-11.56614-5.85573-14.578M157.7973 64.24947v9.1808h-1.74933c-.92533-3.8844-2.59867-7.08227-6.73467-7.40214-2.51466-.20053-4.78 1.2052-5.008 3.43134-.248 2.25146.492 4.49733 5.17467 7.0036 5.776 3.09533 10.356 4.67866 10.356 11.41873 0 7.25-6.204 10.83594-11.84 10.83594h-10.2324V86.11357h1.75253c1.39587 6.62812 3.34267 10.64844 8.34254 10.78333 3.192.08854 5.47733-1.74062 5.47333-5.0354-.012-3.16929-2.18-5.29949-7.032-8.08964-5.31253-3.06293-8.7604-5.04053-8.776-9.7172-.04173-5.94626 4.41667-9.81346 11.38267-9.81346 2.19333 0 8.89066.00827 8.89066.00827M169.0773 51.5776v-24.376c0-7.14427-3.61733-10.4932-9.28133-10.10573-3.89333.27133-6.31867 2.70733-7.23067 4.62813-1.39466-3.36307-4.25733-4.9068-8.288-4.62813-3.47733.2448-5.85853 2.21613-6.9096 4.40826v-3.81666h-8.0032V51.5776h8.63854V26.0208c0-2.36093.40106-3.95933 1.8844-5.2004.98026-.8136 1.9256-.9048 2.8136-.68387 2.0256.50774 2.1096 3.0208 2.1096 5.8724V51.5776h8.736l-.01067-25.63067c0-2.36253.356-3.85106 1.88133-5.12653.98267-.8136 1.932-.9048 2.80934-.68387 2.02933.50774 2.11733 3.0208 2.11733 5.8724V51.5776h8.73333M88.95264 10.698v40.8796h-8.9324V10.698h8.9324M110.2213 20.55893c1.8224 2.61294 1.97347 8.49267 1.97347 13.364 0 4.89214.2708 11.58027-1.86413 14.24534-.84947 1.06453-1.51134 1.62493-2.73747 1.59373-1.78173-.04693-2.9844-1.96973-3.3792-5.43493-.33893-2.98427-.43533-6.69107-.43533-10.63854 0-6.7708.69586-14.31666 3.9552-14.43746 1.264-.04267 1.91146.488 2.48746 1.30786zm10.598 31.01867V10.698h-8.83026v9.62333c-.8948-1.7984-2.62454-3.0624-5.27974-3.0624-6.52493 0-11.62026 6.63534-11.8692 16.58854-.1688 6.69053 2.17814 18.09106 11.08694 18.09106 3.636 0 5.6136-1.97026 6.47026-3.76813v3.4072h8.422M190.8333 31.33333l-2.83333 1.7776c-2.944 1.72187-3.468 3.93334-3.7 6.49747-.17733 1.95053-.21867 3.8588 0 6.7604.21733 2.8916 1.98933 3.44213 3.56267 2.82347 1.90933-.76 2.97066-4.01574 2.97066-7.59947V31.33333zm5.02934-12.65773c2.448 1.41813 3.81466 3.36187 3.81466 7.78693V51.5776h-8.46933l.01067-3.76147c-.992 2.52707-3.74667 4.33907-7.516 4.33907-3.33734 0-8.58667-1.4104-8.58667-9.23747 0-7.19946 4.96133-8.74373 10.15067-10.95466 5.03866-2.1516 5.56666-2.4656 5.56666-4.3084V22.0568c0-2.28333-1.364-3.3104-3.91333-3.1516-.98933.062-2.74533.57347-2.844 1.79373-.14267 1.67187 1.55333 1.60947 1.78133 3.95574.32267 3.31826-2.516 4.64373-5.07733 4.5068-1.72667-.09214-3.94667-1.08227-4.15733-3.96147-.32134-4.35773 4.848-8.0968 12.18133-8.0968 3.236 0 5.36133.58173 7.05867 1.5724M63.55624 78.46413l-2.83853 1.78173c-2.93654 1.72187-3.46774 3.9312-3.70414 6.49375-.17146 1.95677-.21626 3.85781 0 6.76667.22027 2.88801 1.99107 3.4375 3.564 2.81822 1.9188-.75989 2.97867-4.01145 2.97867-7.59374V78.46413zm5.02187-12.65626c2.44733 1.41773 3.8136 3.36506 3.8136 7.79053v25.11256h-8.45627l.00667-3.7578c-.99 2.5276-3.752 4.33176-7.52494 4.33176-3.33693 0-8.58226-1.40208-8.58226-9.23072 0-7.20314 4.95413-8.74634 10.14573-10.95727 5.04333-2.15107 5.5756-2.46613 5.5756-4.3084v-5.6c0-2.2776-1.37133-3.30573-3.9136-3.14946-.99107.06146-2.74893.574-2.85147 1.79426-.14386 1.66667 1.5452 1.60574 1.78227 3.95787.32493 3.31613-2.50893 4.63746-5.07507 4.5068-1.72653-.08907-3.94733-1.08494-4.16293-3.96053-.312-4.36134 4.85467-8.09627 12.188-8.09627 3.23387 0 5.35573.576 7.05467 1.56667M130.8073 74.32973c0-7.13546-3.7136-10.4844-9.36826-10.0964-2.912.2032-5.20107 1.62614-6.47974 3.3656v-9.764h-8.83906v23.06253c0 8.48382-6.0896 16.49683-12.12027 16.42444-4.58547-.05833-5.57867-3.40365-6.10267-6.88437-.76133-5.0974-.82226-10.73593-.15093-17.19273.42493-3.99533 1.5968-7.13067 4.54053-7.21667 2.4292-.07493 2.54907 1.61307 1.71307 2.49427-1.26827 1.3208-2.66973 2.4672-2.01507 5.22653.7468 3.16773 5.85307 3.56987 8.01507 1.22613 1.826-1.99533 1.6584-5.24333.312-7.1792-1.68227-2.40413-4.13547-3.58693-7.92973-3.5464-4.86507.04067-14.0792 4.286-14.0792 17.9032 0 14.65102 9.35053 17.18747 14.83293 17.18747 6.1812 0 11.60307-5.36041 12.99733-9.78855v9.16616h8.826V73.24746c0-2.35786.398-3.89693 1.89907-5.19906.88067-.75773 2.14107-.90413 3.0192-.6828 2.0208.51147 2.09587 3.02187 2.09587 5.86933v25.4828h8.83386v-24.388M40.81717 10.00373V24.2276h-1.71666c-1.4188-6.8396-4.7568-12.31507-9.42347-12.52187-3.1692-.13693-5.06147 1.5224-6.5203 4.17454-1.57655 2.85626-2.3677 9.2344-2.3677 16.79053 0 6.9704.30156 12.2204 1.19479 15.95107.44584 1.8532 1.60788 4.6032 4.99321 4.68493 1.9396.04533 3.02507-.65213 3.93693-1.5812 1.3704-1.39067 1.59334-4.4552 1.59334-6.61147v-6.59746c0-2.51347-.94227-4.10054-2.14854-4.84107-1.01346-.6172-2.53533-.6724-3.43373-.72973v-1.75934h14.40253v35.9176h-1.72706c-.64787-2.8364-1.27814-4.80146-2.5084-7.0864-1.2676-2.34373-3.53587-4.67453-7.35614-4.8864-4.12346-.23493-7.34016 2.40414-7.34016 6.1796 0 5.00947 2.9875 6.17507 8.7651 9.324 5.31093 2.8984 12.36613 5.41453 12.36613 14.34787 0 8.41982-7.54213 13.74848-15.93013 13.74848H14.01768V81.3656h1.80625c2.27812 13.13756 7.99684 15.43808 11.79684 15.43808 4.84587 0 7.21307-3.08959 7.06614-7.49063-.17854-5.41252-4.00627-7.37919-9.4676-10.28799-7.69903-4.09586-11.35527-6.2656-11.19122-13.26466.13699-5.86867 4.94792-9.71293 10.55002-11.1916C13.17185 53.21093 9.9057 43.138 10.00206 32.35107 10.10154 21.6484 16.52915 10 29.00517 10c5.70214 0 11.812.00373 11.812.00373"/></g></svg>
