<svg xmlns="http://www.w3.org/2000/svg" height="246.6387" width="205.1259"><path d="M143.977 90.9093c0 1.4707-1.2297 2.6787-2.728 2.6787h-18.696v39.652c0 4.6813 2.185 5.48 8.0517 5.48h10.2344c1.773 0 2.8672.796 2.8672 2.2653v10.2867c0 1.468-.959 2.4-2.7314 2.664-3.9552.696-10.5057 1.232-16.3724 1.232-15.2864 0-24.2905-4.6973-24.2905-22.0627v-67.028c0-1.4746 1.2276-2.4066 2.726-2.6746l16.6479-2.8h.4114c1.2314 0 2.4558 1.3346 2.4558 2.6666V77.428h18.6958c1.4984 0 2.7282 1.1987 2.7282 2.6707zm-59.6306-24.832c0 1.4694-1.2333 2.6694-2.7328 2.6694H63.875c-1.5036 0-2.7285-1.2-2.7285-2.6694V53.66c0-1.4733 1.225-2.6747 2.7285-2.6747h17.7387c1.4995 0 2.7328 1.2014 2.7328 2.6747zm-.547 85.1947c0 1.468-1.2302 2.664-2.7302 2.664H64.4197c-1.4978 0-2.7312-1.196-2.7312-2.664V80.0987c0-1.472 1.2334-2.6707 2.7312-2.6707h16.6495c1.5 0 2.7303 1.1987 2.7303 2.6707zM168.6126 20H20v149.5373c0 9.136 7.4281 16.6134 16.5125 16.6134h132.1c9.0854 0 16.5134-7.4774 16.5134-16.6134V36.616c0-9.1387-7.428-16.616-16.5134-16.616" fill="#36aee8"/><path d="M166.5419 202.788c0-.196-.156-.36-.5054-.36h-4.8373c-.3453 0-.536.132-.692.3893l-6.952 10.4627v-10.2333c0-.3534-.2867-.6187-.6333-.6187h-4.1402c-.3453 0-.6312.2653-.6312.6187v22.652c0 .3533.286.6426.6312.6426h4.1402c.3466 0 .6333-.2893.6333-.6426v-10.428l6.4133 10.62c.1574.2586.3174.4506.6947.4506h5.44c.2827 0 .4387-.132.4387-.3186 0-.1-.0307-.2267-.1214-.3587l-7.5573-11.5493 7.5227-10.876c.092-.1587.156-.3227.156-.4507M138.4177 213.344h-6.8598v-4.0547c0-1.7733.538-2.3186 2.279-2.3186h2.3063c1.7693 0 2.2745.5453 2.2745 2.3186zm-2.2745-11.136h-2.3063c-4.2348 0-7.6806 1.2867-7.6806 7.0813v16.4094c0 .3533.2833.6426.6296.6426h4.174c.3458 0 .598-.2893.598-.6426v-7.8227h6.8598v7.8227c0 .3533.2187.6426.5714.6426h4.1672c.35 0 .6317-.2893.6317-.6426v-16.4094c0-5.7946-3.4135-7.0813-7.6448-7.0813M184.4632 202.428h-15.6747c-.3506 0-.6333.2653-.6333.6187v3.3106c0 .356.2827.6134.6333.6134h5.148v18.728c0 .3533.2867.6426.6347.6426h4.14c.3467 0 .632-.2893.632-.6426v-18.728h5.12c.3453 0 .6627-.2574.6627-.6134v-3.3106c0-.3534-.3174-.6187-.6627-.6187M116.7079 210.0933c0 2.1814-1.0428 3.0494-4.3636 3.0494-.347 0-1.8984-.028-2.2448-.06v-6.176c.3797-.032 2.0265-.0987 2.4661-.0987 2.6584 0 4.1423.9027 4.1423 2.8667zm1.2926 6.4347c2.3094-.936 4.0782-3.0253 4.0782-6.4347v-.4186c0-5.696-4.138-7.5334-9.513-7.5334-2.276 0-4.9616.192-6.4136.4187-.9829.1613-1.425.448-1.425 1.5453v21.5934c0 .3533.2844.6426.6333.6426h4.1093c.3464 0 .6298-.2893.6298-.6426v-8.176c.6016 0 1.5808.064 2.2448.064l.349-.0334 4.2327 8.1454c.1584.324.2833.6426.6323.6426h4.8381c.3457 0 .4719-.1586.4719-.3866 0-.0947-.0308-.2267-.099-.3507l-4.7688-9.076M54.1636 216.3013c0 3.8614-1.2641 5.4987-3.9188 5.4987-2.6536 0-3.8855-1.6373-3.8855-5.4987v-3.8293c0-3.8613 1.232-5.5013 3.8855-5.5013 2.6547 0 3.9188 1.64 3.9188 5.5013zm-3.9188-14.16c-5.2156 0-9.3541 2.8654-9.3541 10.3307v3.8293c0 7.4667 4.1385 10.3374 9.3541 10.3374 5.2135 0 9.3547-2.8707 9.3547-10.3374v-3.8293c0-7.4653-4.1412-10.3307-9.3547-10.3307M81.1213 202.428h-4.141c-.3475 0-.6308.2933-.6308.652v13.2027l-7.4579-13.3907c-.1859-.36-.2848-.464-.6328-.464h-4.139c-.349 0-.634.2653-.634.6187v22.652c0 .3533.285.6426.634.6426h4.139c.348 0 .6328-.2893.6328-.6426v-13.2094l7.4579 13.3894c.1864.3573.2833.4626.6308.4626h4.141c.346 0 .6312-.2586.6312-.6133V203.08c0-.3587-.2853-.652-.6312-.652M38.3932 202.788c0-.196-.1573-.36-.5047-.36h-4.8333c-.3516 0-.5396.132-.699.3893L25.4012 213.28v-10.2333c0-.3534-.2823-.6187-.6292-.6187h-4.1396c-.3474 0-.6323.2653-.6323.6187v22.652c0 .3533.285.6426.6323.6426h4.1396c.3469 0 .6292-.2893.6292-.6426v-10.428l6.4172 10.62c.1593.2586.3166.4506.6973.4506h5.437c.2833 0 .4406-.132.4406-.3186 0-.1-.0328-.2267-.127-.3587l-7.5547-11.5493 7.5244-10.876c.0944-.1587.1573-.3227.1573-.4507M101.062 202.428H85.3885c-.3516 0-.6333.2653-.6333.6187v3.3106c0 .356.2817.6134.6333.6134h5.149v18.728c0 .3533.2854.6426.6297.6426H95.31c.3458 0 .6333-.2893.6333-.6426v-18.728h5.1188c.349 0 .6625-.2574.6625-.6134v-3.3106c0-.3534-.3136-.6187-.6625-.6187" fill="#181210"/><path d="M81.0692 77.428H64.4197c-1.4978 0-2.7312 1.1987-2.7312 2.6707v71.1733c0 1.468 1.2334 2.664 2.7312 2.664h16.6495c1.5 0 2.7303-1.196 2.7303-2.664V80.0987c0-1.472-1.2303-2.6707-2.7303-2.6707M141.249 77.428h-18.696V63.2693c0-1.332-1.2243-2.6666-2.4557-2.6666h-.4114l-16.6479 2.8c-1.4984.268-2.726 1.2-2.726 2.6746v67.028c0 17.3654 9.0041 22.0627 24.2905 22.0627 5.8667 0 12.4172-.536 16.3724-1.232 1.7724-.264 2.7314-1.196 2.7314-2.664v-10.2867c0-1.4693-1.0943-2.2653-2.8672-2.2653h-10.2344c-5.8667 0-8.0516-.7987-8.0516-5.48V93.588h18.6958c1.4984 0 2.7282-1.208 2.7282-2.6787V80.0987c0-1.472-1.2298-2.6707-2.7282-2.6707M81.6136 50.9853H63.875c-1.5036 0-2.7285 1.2014-2.7285 2.6747v12.4173c0 1.4694 1.225 2.6694 2.7285 2.6694h17.7387c1.4995 0 2.7328-1.2 2.7328-2.6694V53.66c0-1.4733-1.2333-2.6747-2.7328-2.6747" fill="#fff"/></svg>
