<svg xmlns="http://www.w3.org/2000/svg" height="266.66534" width="1200">
    <defs>
        <clipPath id="a">
            <path d="M0 199.999h900V0H0z"/>
        </clipPath>
    </defs>
    <g clip-path="url(#a)" transform="matrix(1.33333 0 0 -1.33333 0 266.66533)">
        <path d="M381.1377 99.9819c-.705.861-.68 2.949.034 3.795l65.168 85.268c2.827 3.379 1.961 6.264 1.463 7.35-.504 1.081-2.147 3.604-6.544 3.604h-48.942c-4.304 0-9.526-2.597-12.137-6.044 0 0-38.913-50.733-50.508-66.03l.029 62.426c0 5.315-4.308 9.648-9.6 9.648h-38.496c-5.292 0-9.605-4.333-9.605-9.648V9.6529c0-5.316 4.313-9.654 9.605-9.654h38.496c5.292 0 9.6 4.338 9.6 9.654v66.386c12.099-15.718 53.383-70.22 53.383-70.22 2.631-3.423 8.377-5.82 12.681-5.82h48.165c4.382 0 6.039 2.519 6.548 3.605.509 1.08 1.384 3.965-1.408 7.359zM790.0088 199.999h-61.604c-5.3 0-9.609-4.333-9.609-9.648v-31.069c0-5.325 4.309-9.654 9.609-9.654h52.488c31.068 0 50.371-19.013 50.371-49.627 0-31.078-19.019-49.631-50.879-49.631l-74.744-.005c-1.052 0-2.245 1.027-2.402 2.073l-23.126 138.578c-.757 5.041-5.331 8.983-10.386 8.983l-37.696-.093c-4.723 0-9.672-3.164-11.443-7.565 0-.005-28.226-69.956-35.553-88.28-6.934 18.358-35.513 88.089-35.513 88.089-1.692 4.474-6.509 7.849-11.322 7.756l-34.921-.078c-5.121.171-10.01-3.736-11.13-8.969l-30.54-180.849c-.166-2.377.513-4.998 2.146-6.945 1.634-1.946 4.099-3.066 6.749-3.066h38.242c5.076 0 9.737 4.896 10.476 9.947 0 0 9.526 65.853 12.998 89.885 9.341-23.562 37.117-92.076 37.117-92.076 1.766-4.425 6.651-7.756 11.375-7.756h8.627c4.694 0 9.609 3.292 11.424 7.658 0 0 27.846 68.582 37.636 92.154 3.037-24.114 11.423-90.711 11.423-90.711.646-5.101 5.155-9.101 10.275-9.101h129.912c55.681 0 100.98 44.864 100.98 100.002 0 55.134-45.299 99.998-100.98 99.998" fill="#0a0f14"/>
        <path d="M200-.001H0v200h200z" fill="#43b02a"/>
    </g>
</svg>
