<svg xmlns="http://www.w3.org/2000/svg" height="188.976" width="377.9533"><defs><clipPath id="a"><path d="M0 141.732h283.465V0H0z"/></clipPath></defs><g clip-path="url(#a)" transform="matrix(1.33333 0 0 -1.33333 0 188.976)"><path d="M89.645 64.1234c-8.087-9.271-23.714-4.287-23.714 8.174v27.961H55.314v-27.961c0-13.657 9.823-22.329 22.374-22.329 3.325 0 9.328 1.246 12.453 6.23l1.339-5.483h8.782v49.543H89.645zM178.6133 59.2128c-7.31 0-15.216 5.291-15.216 16.222 0 10.982 7.906 16.073 15.216 16.073 7.508 0 15.065-5.091 15.065-16.073 0-10.931-7.557-16.222-15.065-16.222m0 41.979c-14.817 0-25.856-11.281-25.856-25.757 0-14.375 11.039-25.806 25.856-25.806 14.867 0 25.707 11.431 25.707 25.806 0 14.476-10.84 25.757-25.707 25.757M250.2656 66.3573v24.924h9.234v8.972h-9.234v13.758l-10.229-1.146v-12.612h-17.328v3.689c0 3.54 2.086 6.381 6.554 6.58 1.143.1 2.334-.1 3.774-.399v8.973c-1.638.299-3.227.399-4.667.399-10.03.099-16.236-5.683-16.236-15.553v-3.689h-7.051v-8.972h7.051v-40.576h10.575v40.576h17.328v-25.223c0-11.913 8.193-16.599 19.663-15.452v9.321c-7.001-1.296-9.434 2.442-9.434 6.43M117.6548 100.2587h-12.335l16.498-24.747-16.807-24.865h11.349l16.807 24.865zM153.0967 100.2587h-11.512l-6.467-9.805 5.539-8.768zM140.6274 69.4735l-5.765-8.434 6.844-10.393h11.559zM38.3232 60.4237c-2.481 0-4.516 2.045-4.516 4.589v47.837l-10.72 1.148v-50.182c0-7.283 5.856-13.169 13.102-13.169h15.733v9.777zM30.4463 31.806l-1.144 3.789-.31 1.336h-.092l-.279-1.336-1.113-3.789zm-2.536 7.392h2.196l4.515-13.23h-2.134l-1.392 4.037h-4.174l-1.33-4.037h-2.165zM49.3384 32.5824c0 2.344-1.194 4.636-4.029 4.636h-2.288v-9.323h2.238c2.935-.053 4.079 2.343 4.079 4.687m1.99.156c0-3.333-1.741-6.771-6.019-6.771h-4.328v13.178h4.278c4.179.052 6.069-3.177 6.069-6.407M59.1167 32.5516l4.169-6.584h-2.44l-3.057 5.062-3.088-5.062h-2.44l4.169 6.584-4.107 6.646h2.378l3.088-5.093 3.057 5.093h2.378zM73.8975 35.9276c-.941 1.042-2.181 1.563-3.419 1.511-2.826-.052-4.312-2.553-4.312-4.95 0-2.398 1.486-4.847 4.312-4.847 1.288 0 2.725.625 3.716 1.876l1.389-1.199c-1.339-1.72-3.074-2.605-5.105-2.605-4.164 0-6.345 3.387-6.345 6.775 0 3.387 2.181 6.878 6.345 6.878 1.833 0 3.469-.625 4.708-2.188zM88.9824 39.1976v-1.957h-2.936v-11.273h-2.039v11.273h-2.997v1.957zM95.647 31.475c-.05 1.657-1.336 2.434-2.573 2.434-1.385 0-2.572-.881-2.622-2.434zm0-2.537l1.385-.932c-1.089-1.45-2.424-2.123-3.908-2.123-3.117 0-4.65 2.485-4.601 4.919 0 2.433 1.583 4.867 4.551 4.919 3.018 0 4.898-2.796 4.354-5.799h-6.976c.198-1.191 1.138-2.227 2.672-2.227.791 0 1.781.155 2.523 1.243M106.2666 32.8397c-.703.725-1.555.932-2.308.932-1.404 0-2.758-1.036-2.758-3.107 0-1.605.953-3.003 2.758-3.003.903 0 1.556.207 2.358.984l1.154-1.243c-1.004-.983-2.207-1.605-3.512-1.605-3.109 0-4.714 2.33-4.714 4.919 0 2.589 1.705 4.867 4.714 4.919 1.305 0 2.408-.518 3.412-1.553zM111.272 39.1976v-4.393c.695.628 1.589.837 2.185.837 2.283 0 4.021-1.464 4.021-4.131v-5.543h-1.936v5.543c0 1.517-1.143 2.301-2.383 2.353-.646 0-1.341-.261-1.887-.68v-7.216h-1.936v13.23zM121.6924 35.4789l.248-1.15c.594.941 1.685 1.307 2.279 1.307 2.528 0 4.114-1.516 4.114-4.129v-5.539h-1.933v5.539c0 2.404-2.924 3.136-4.361 1.307v-6.846h-1.933v9.511zM134.9478 27.62c1.4 0 2.799 1.041 2.799 3.123 0 2.082-1.399 3.071-2.799 3.071-1.35 0-2.799-.989-2.799-3.071 0-2.082 1.449-3.123 2.799-3.123m0-1.822c-2.75 0-4.749 2.186-4.749 4.945 0 2.758 1.999 4.893 4.749 4.893 2.75 0 4.749-2.135 4.749-4.893 0-2.759-1.999-4.945-4.749-4.945M144.9551 25.9745c-2.155-.261-3.308.732-3.308 2.927v10.296h1.954v-10.296c0-.784.251-1.202 1.354-1.098zM150.7646 27.62c1.387 0 2.774 1.041 2.774 3.123 0 2.082-1.387 3.071-2.774 3.071-1.338 0-2.775-.989-2.775-3.071 0-2.082 1.437-3.123 2.775-3.123m0-1.822c-2.726 0-4.707 2.186-4.707 4.945 0 2.758 1.981 4.893 4.707 4.893 2.725 0 4.706-2.135 4.706-4.893 0-2.759-1.981-4.945-4.706-4.945M163.3262 28.5047v4.404c-.5.621-1.1.881-1.698.881-1.399-.052-2.648-1.036-2.648-3.057 0-1.658.849-3.108 2.398-3.108.799 0 1.299.103 1.948.88m-2.148 7.046c.699 0 1.598-.207 2.198-.984l.349.88h1.498v-9.377c0-2.539-1.998-3.834-4.095-3.834-1.349 0-2.797.57-3.746 1.658l.999 1.296c.749-.83 1.698-1.192 2.697-1.244 1.199 0 2.248.518 2.248 2.176v.57c-.649-.674-1.349-.777-2.099-.829-2.447-.052-4.145 2.28-4.145 4.818 0 2.902 1.898 4.818 4.096 4.87M167.8076 24.0589c1.146-.156 1.545.365 1.694.833l.549 1.407-3.639 9.167h2.093l2.593-6.823 2.294 6.823h2.094l-4.189-11.303c-.647-1.666-2.044-1.927-3.489-1.771zM190.7686 35.9276c-.986 1.042-2.221 1.563-3.404 1.511-2.863-.052-4.294-2.553-4.294-4.95 0-2.398 1.48-4.847 4.294-4.847 1.283 0 2.714.625 3.651 1.876l1.432-1.199c-1.382-1.72-3.06-2.605-5.083-2.605-4.146 0-6.367 3.387-6.367 6.775 0 3.387 2.221 6.878 6.367 6.878 1.825 0 3.404-.625 4.638-2.188zM198.5605 27.62c1.337 0 2.725 1.041 2.725 3.123 0 2.082-1.388 3.071-2.725 3.071-1.338 0-2.824-.989-2.824-3.071 0-2.082 1.486-3.123 2.824-3.123m0-1.822c-2.726 0-4.757 2.186-4.757 4.945 0 2.758 2.031 4.893 4.757 4.893 2.675 0 4.657-2.135 4.657-4.893 0-2.759-1.982-4.945-4.657-4.945M212.1895 34.0155c.646 1.202 1.791 1.62 2.886 1.62 2.09 0 3.831-1.098 3.831-4.128v-5.54h-1.941v5.592c0 1.672-.895 2.299-1.89 2.299-1.045 0-1.941-.679-1.99-2.247v-5.644h-1.841v5.644c.149 2.613-2.538 3.031-3.881 1.464v-7.108h-1.941v9.511h1.592l.249-.993c.597.941 1.692 1.098 2.289 1.098 1.044 0 2.139-.47 2.637-1.568M227.8672 30.7186c0 2.286-1.396 3.014-2.742 3.065-.598 0-1.246-.207-1.695-.831v-4.312c.449-.831 1.197-.987 1.895-.987 1.595 0 2.542 1.402 2.542 3.065m-2.393-4.884c-.698.052-1.496.156-2.093.935v-4.364h-1.845v13.041h1.595l.299-.883c.548.676 1.296.987 2.244.987 2.044 0 4.088-1.663 4.088-4.884 0-2.546-1.795-4.884-4.288-4.832M237.4248 28.5316v1.558c-.446.416-1.19.624-1.835.675-1.24 0-2.381-.467-2.381-1.609 0-1.091.645-1.559 2.133-1.559.694 0 1.587.364 2.083.935m.348-2.545l-.348 1.143c-.645-1.039-1.537-1.247-2.529-1.247-2.431 0-3.523 1.662-3.523 3.273 0 1.765 1.34 3.272 4.167 3.168.546 0 1.489-.156 1.885-.572v.416c0 1.506-1.141 1.922-2.232 1.87-.943 0-1.736-.312-2.48-.779l-.794 1.298c2.481 2.182 7.342 1.662 7.342-2.389v-6.181zM243.4756 35.4789l.247-1.15c.595.941 1.686 1.307 2.28 1.307 2.528 0 4.113-1.516 4.113-4.129v-5.539h-1.933v5.539c0 2.404-2.874 3.136-4.36 1.307v-6.846h-1.933v9.511zM252.8203 24.0589c1.087-.156 1.481.365 1.63.833l.543 1.407-3.606 9.167h2.075l2.568-6.823 2.272 6.823h2.075l-4.149-11.303c-.642-1.666-2.025-1.927-3.458-1.771z" fill="#00397a" fill-rule="evenodd"/></g></svg>
