<svg xmlns="http://www.w3.org/2000/svg" height="297.311" width="229.771"><defs><clipPath id="a"><path d="M0 595.276h595.28V0H0z"/></clipPath><clipPath id="b"><path d="M338.955 403.074v-2.636h3.373v.992c0 .453-.17.85-.482 1.162-.311.341-.708.482-1.162.482zm-64.432 0v-14.173c0-1.502.624-2.296 1.872-2.382 1.218-.084 2.38-.113 3.457-.056v2.523h-1.02c-.652 0-.963.255-.963.822v7.143h.34c.453 0 .822.142 1.133.454.34.311.51.708.51 1.191v.68h-1.983v2.154c0 .453-.17.85-.483 1.162-.34.341-.708.482-1.105.482zm-42.548 0c-.482 0-.906-.17-1.246-.51a1.647 1.647 0 0 1-.511-1.219v-1.219h4.932v-13.663h3.43v13.663h4.875v2.948zm-3.741 0c-.482 0-.879-.17-1.219-.51a1.65 1.65 0 0 1-.51-1.219v-14.882h3.43v16.611zm129.345-5.329c-.907-1.247-1.39-2.863-1.39-4.847 0-1.701.369-3.09 1.05-4.139.679-1.049 1.502-1.757 2.466-2.154.964-.369 1.955-.454 2.919-.227.992.227 1.786.794 2.353 1.672v-.821c-.057-1.021-.311-1.786-.737-2.296-.454-.511-.907-.851-1.446-.964-.539-.114-1.077-.029-1.587.198-.538.255-.935.596-1.191 1.049h-3.543c.737-2.778 2.551-4.167 5.528-4.167 1.531 0 2.976.425 4.28 1.248 1.332.821 1.985 2.352 1.985 4.591v6.831c0 2.241-.653 3.799-1.985 4.621a7.725 7.725 0 0 1-4.28 1.276c-2.041 0-3.516-.652-4.422-1.871m3.826-8.645c-1.275.254-1.927 1.473-1.927 3.684 0 1.049.198 1.956.567 2.75.397.822 1.134 1.219 2.239 1.219.794 0 1.418-.283 1.815-.879a3.998 3.998 0 0 0 .793-1.956 7.63 7.63 0 0 0 0-2.268c-.142-.765-.34-1.304-.623-1.644-.483-.657-1.152-.993-2.034-.993-.258 0-.535.029-.83.087m-15.846 9.297c-1.133-.737-1.701-2.211-1.701-4.394v-7.54h3.374v8.22c0 .766.226 1.333.68 1.673.454.368.964.539 1.531.539.596 0 1.105-.171 1.588-.539.453-.34.68-.907.68-1.673v-6.576c0-.482.17-.878.482-1.191.283-.283.709-.453 1.19-.453h1.672v7.54c0 2.24-.595 3.742-1.785 4.479-1.191.765-2.495 1.134-3.912 1.134a7.82 7.82 0 0 1-3.799-1.219m-17.716-.595c-1.021-1.134-1.502-2.75-1.502-4.819 0-2.154.51-3.827 1.531-4.961 1.048-1.19 2.466-1.786 4.308-1.786 1.502 0 2.778.369 3.77 1.106.992.708 1.672 1.729 2.013 3.09h-2.41c-.368 0-.68-.086-.878-.227-.17-.17-.312-.312-.369-.397a1.13 1.13 0 0 0-.284-.255.877.877 0 0 0-.254-.199c-.397-.226-.851-.311-1.389-.311-.85 0-1.474.227-1.9.765-.567.595-.85 1.644-.85 3.118 0 1.503.283 2.551.85 3.204.454.453 1.05.68 1.73.68.793 0 1.389-.227 1.813-.68.143-.17.313-.397.483-.738h3.373a6.207 6.207 0 0 1-1.276 2.466c-1.049 1.162-2.551 1.758-4.479 1.758-1.814 0-3.259-.624-4.28-1.814m-45.666.68c-.935-.794-1.389-1.814-1.389-3.033 0-.964.312-1.73.935-2.325.595-.567 1.729-1.077 3.43-1.502.313-.085.737-.17 1.304-.283 1.361-.284 2.042-.709 2.042-1.304 0-.368-.199-.681-.567-.907-.426-.227-.936-.341-1.503-.341-.822 0-1.446.17-1.927.483-.454.311-.71.821-.737 1.445h-3.289v-.142c0-1.417.482-2.494 1.417-3.231.879-.737 2.268-1.106 4.111-1.106 1.928 0 3.373.34 4.337 1.049 1.02.765 1.531 1.871 1.531 3.288 0 .964-.284 1.73-.907 2.325-.653.538-1.786 1.02-3.43 1.445-.143 0-.256 0-.426.057-.141.029-.311.056-.481.142-1.673.34-2.523.765-2.523 1.275 0 .397.141.681.425.88.34.198.822.311 1.474.311.651 0 1.19-.17 1.587-.454a4.94 4.94 0 0 0 .369-.396c.34-.539.793-.794 1.417-.794h2.069c-.057 1.276-.567 2.324-1.502 3.118-.992.765-2.325 1.134-3.997 1.134-1.559 0-2.806-.369-3.77-1.134m15.562 1.049c-1.303-.17-2.381-.765-3.231-1.729-.51-.567-.879-1.304-1.134-2.155a9.163 9.163 0 0 1-.369-2.607c0-1.077.142-2.07.453-3.062.284-.992.766-1.785 1.447-2.353.624-.566 1.502-.992 2.579-1.219 1.077-.255 2.126-.227 3.203.057 1.191.283 2.155.936 2.949 1.984.368.51.651 1.134.878 1.871.227.765.34 1.645.34 2.665 0 1.417-.283 2.664-.822 3.714-.595 1.189-1.502 2.04-2.721 2.522-.711.269-1.487.395-2.328.395-.4 0-.815-.029-1.244-.083m.397-10.431c-.482.17-.822.397-1.021.651-.481.567-.765 1.616-.822 3.062-.056 1.473.256 2.579.936 3.317.226.226.567.396 1.049.567.481.113.964.113 1.445-.029.482-.17.908-.538 1.276-1.134.369-.567.567-1.446.567-2.608-.028-1.276-.255-2.211-.624-2.778-.397-.595-.85-.935-1.332-1.105a2.417 2.417 0 0 0-.648-.091c-.278 0-.552.051-.826.148m-43.909 10.431c-1.332-.17-2.409-.765-3.231-1.729-.511-.567-.908-1.304-1.134-2.155-.226-.878-.369-1.729-.369-2.607 0-1.077.143-2.07.454-3.062.255-.992.765-1.785 1.446-2.353.623-.566 1.502-.992 2.579-1.219a6.448 6.448 0 0 1 3.203.057c1.191.283 2.183.936 2.948 1.984.341.51.652 1.134.851 1.871.227.765.34 1.645.34 2.665 0 1.417-.255 2.664-.794 3.714-.595 1.189-1.502 2.04-2.721 2.522-.711.269-1.487.395-2.328.395-.4 0-.814-.029-1.244-.083m.397-10.431c-.482.17-.822.397-1.02.651-.482.567-.765 1.616-.822 3.062-.057 1.473.227 2.579.906 3.317.227.226.596.396 1.078.567.482.113.964.113 1.446-.029.481-.17.906-.538 1.275-1.134.368-.567.567-1.446.567-2.608-.056-1.276-.255-2.211-.623-2.778-.397-.595-.851-.935-1.332-1.105a2.423 2.423 0 0 0-.648-.091 2.46 2.46 0 0 0-.827.148m84.331 10.204v-12.841h3.373v11.197c0 .453-.17.85-.482 1.162-.311.341-.708.482-1.162.482zm-13.068 0h-.227c-.878 0-1.7-.114-2.551-.34-.822-.227-1.53-.567-2.154-1.049-.623-.51-1.134-1.218-1.503-2.069-.368-.85-.567-1.9-.567-3.146v-6.237h3.373v6.634c0 .963.227 1.643.681 2.097.453.453 1.163.68 2.098.68h1.105v3.43zm-10.119 0c-.483 0-.88-.141-1.163-.482-.312-.312-.453-.709-.453-1.162v-6.548c0-.794-.255-1.333-.709-1.701a2.653 2.653 0 0 0-1.588-.51c-.567 0-1.076.17-1.53.51-.453.368-.68.907-.68 1.701v8.192h-3.373v-7.512c0-2.239.567-3.685 1.7-4.393a7.657 7.657 0 0 1 3.799-1.163c1.417 0 2.721.34 3.911 1.049 1.191.709 1.787 2.212 1.787 4.507v7.512zm-44.25 0c-.481 0-.878-.141-1.19-.482a1.705 1.705 0 0 1-.453-1.162v-6.548c0-.794-.227-1.333-.709-1.701a2.512 2.512 0 0 0-1.559-.51 2.57 2.57 0 0 0-1.559.51c-.426.368-.652.907-.652 1.701v8.192h-3.374v-7.512c0-2.239.567-3.685 1.701-4.393a7.657 7.657 0 0 1 3.799-1.163c1.417 0 2.721.34 3.912 1.049 1.19.709 1.785 2.212 1.785 4.507v7.512zm-45.042-19.049V210.091l142.072 34.129.256 136.035zm59.953-92.919c-4.025 2.466-6.038 7.2-6.038 14.201v33.874h5.018c1.389 0 2.579-.481 3.543-1.474.992-.992 1.502-2.183 1.502-3.543v-11.849c1.078 1.871 2.664 3.401 4.734 4.592 1.757.964 3.912 1.474 6.491 1.474 4.649 0 8.42-1.928 11.396-5.782 2.947-3.827 4.422-8.816 4.422-14.911 0-6.122-1.475-11.112-4.422-14.967-1.474-1.842-3.487-3.203-6.009-4.053-2.495-.822-4.99-1.248-7.456-1.248-4.734 0-9.128 1.22-13.181 3.686m36.709 1.785c-3.175 3.544-4.734 8.618-4.734 15.222 0 6.322 1.531 11.254 4.564 14.797 3.174 3.657 7.568 5.471 13.18 5.471 5.925 0 10.489-1.758 13.749-5.329 1.757-2.154 3.061-4.677 3.826-7.54h-10.346c-.481.992-.964 1.729-1.474 2.211-1.275 1.389-3.09 2.069-5.471 2.069-2.154 0-3.94-.68-5.3-2.069-1.787-1.956-2.665-5.216-2.665-9.751 0-4.535.878-7.739 2.665-9.61 1.275-1.587 3.174-2.381 5.753-2.381 1.673 0 3.119.34 4.281 1.049.312.085.567.283.822.51.227.255.511.51.794.822.227.284.595.681 1.19 1.162.596.511 1.474.765 2.665.765h7.399c-1.078-4.138-3.148-7.313-6.209-9.467-3.061-2.268-6.916-3.402-11.537-3.402-5.612 0-10.006 1.815-13.152 5.471m-78.69 18.341c0 6.689 1.757 11.196 5.244 13.464 3.487 2.24 7.37 3.487 11.593 3.685 4.366 0 8.334-1.134 11.991-3.401 3.657-2.268 5.471-6.861 5.471-13.748v-23.075h-5.159c-1.503 0-2.693.454-3.656 1.389-.936.964-1.39 2.155-1.39 3.629v20.126c0 2.352-.708 4.082-2.154 5.158a7.604 7.604 0 0 1-4.79 1.645c-1.786 0-3.346-.538-4.734-1.645-1.389-1.076-2.07-2.806-2.07-5.158v-25.144h-10.346zm48.218 5.328c-1.503-2.069-2.212-4.904-2.212-8.447 0-4.138.681-7.143 2.069-9.013 1.475-2.07 3.544-3.119 6.209-3.119 2.749 0 4.875 1.049 6.349 3.119 1.474 2.069 2.211 5.073 2.211 9.013 0 3.543-.737 6.322-2.211 8.277-1.474 2.069-3.487 3.119-6.066 3.119-2.749 0-4.876-.993-6.349-2.949"/></clipPath></defs><g clip-path="url(#a)" transform="matrix(1.33333 0 0 -1.33333 -281.968 557.432)"><path d="M346.637 296.52h7.398c-1.077-4.14-3.146-7.313-6.207-9.468-3.062-2.267-6.917-3.401-11.537-3.401-5.613 0-10.007 1.814-13.153 5.47-3.175 3.544-4.734 8.618-4.734 15.223 0 6.32 1.53 11.253 4.564 14.796 3.175 3.657 7.568 5.47 13.18 5.47 5.925 0 10.489-1.756 13.749-5.328 1.757-2.154 3.06-4.677 3.827-7.54h-10.347c-.482.992-.964 1.729-1.474 2.21-1.275 1.39-3.09 2.07-5.471 2.07-2.154 0-3.94-.68-5.3-2.07-1.786-1.955-2.665-5.215-2.665-9.75 0-4.536.879-7.74 2.665-9.61 1.275-1.587 3.174-2.381 5.754-2.381 1.672 0 3.118.34 4.28 1.049.312.085.567.284.822.51.227.256.51.51.794.822.227.284.595.68 1.19 1.163.596.51 1.474.765 2.665.765m-39.345 7.824c0 3.543-.737 6.32-2.211 8.277-1.474 2.069-3.487 3.118-6.066 3.118-2.75 0-4.876-.992-6.35-2.948-1.502-2.07-2.211-4.904-2.211-8.447 0-4.14.68-7.144 2.07-9.015 1.474-2.07 3.543-3.118 6.207-3.118 2.75 0 4.876 1.049 6.35 3.118 1.474 2.07 2.21 5.074 2.21 9.015m-16.837 26.05v-11.85c1.078 1.872 2.665 3.403 4.734 4.593 1.758.964 3.912 1.474 6.492 1.474 4.648 0 8.418-1.927 11.395-5.782 2.948-3.827 4.422-8.816 4.422-14.911 0-6.122-1.474-11.111-4.422-14.967-1.474-1.842-3.487-3.203-6.01-4.053-2.494-.822-4.99-1.247-7.455-1.247-4.734 0-9.127 1.219-13.181 3.685-4.025 2.466-6.038 7.2-6.038 14.2v33.875h5.018c1.389 0 2.579-.482 3.543-1.474.992-.992 1.502-2.182 1.502-3.543m-11.707-46.006h-5.16c-1.501 0-2.692.453-3.656 1.389-.935.963-1.388 2.154-1.388 3.628v20.126c0 2.353-.71 4.082-2.155 5.159a7.609 7.609 0 0 1-4.79 1.644c-1.786 0-3.345-.538-4.734-1.644-1.39-1.077-2.07-2.806-2.07-5.16v-25.142h-10.346v23.074c0 6.69 1.758 11.197 5.244 13.464 3.487 2.24 7.37 3.487 11.594 3.685 4.365 0 8.334-1.134 11.99-3.401 3.657-2.268 5.47-6.86 5.47-13.748zm-52.271 95.867h142.328l-.255-136.034-142.073-34.13zm133.002 12.53c0-2.211.652-3.43 1.927-3.685 1.304-.256 2.24.056 2.864.907.283.34.48.878.623 1.644a7.622 7.622 0 0 1 0 2.267 3.98 3.98 0 0 1-.794 1.956c-.396.596-1.02.879-1.814.879-1.105 0-1.842-.397-2.24-1.22-.368-.793-.566-1.7-.566-2.748m5.499-5.556v.822c-.567-.88-1.36-1.446-2.353-1.673-.963-.226-1.956-.141-2.92.227-.963.397-1.785 1.106-2.465 2.154-.681 1.049-1.05 2.438-1.05 4.139 0 1.984.483 3.6 1.39 4.847.907 1.219 2.38 1.87 4.422 1.87a7.717 7.717 0 0 0 4.28-1.275c1.332-.822 1.984-2.381 1.984-4.62v-6.832c0-2.24-.652-3.77-1.984-4.592a7.929 7.929 0 0 0-4.28-1.247c-2.977 0-4.791 1.389-5.528 4.167h3.544c.255-.453.65-.794 1.19-1.05.51-.226 1.049-.311 1.587-.197.539.113.993.453 1.446.964.425.51.68 1.275.737 2.296m-9.921-.766h-1.673c-.481 0-.907.17-1.19.454a1.622 1.622 0 0 0-.482 1.19v6.577c0 .765-.227 1.332-.68 1.672a2.5 2.5 0 0 1-1.588.539c-.567 0-1.077-.17-1.53-.54-.454-.34-.681-.906-.681-1.671v-8.221h-3.373v7.54c0 2.183.567 3.657 1.7 4.394a7.814 7.814 0 0 0 3.799 1.219c1.418 0 2.722-.368 3.912-1.134 1.19-.737 1.786-2.24 1.786-4.48zm-16.101 16.61h1.729c.454 0 .85-.14 1.162-.481.312-.311.482-.708.482-1.162v-.992h-3.373zm0-3.77h1.729c.454 0 .85-.14 1.162-.481.312-.311.482-.708.482-1.162v-11.197h-3.373zm-3.401-8.871h2.409c-.34-1.361-1.02-2.381-2.013-3.09-.992-.737-2.267-1.105-3.77-1.105-1.842 0-3.26.595-4.308 1.785-1.021 1.134-1.531 2.807-1.531 4.96 0 2.07.482 3.686 1.502 4.82 1.02 1.19 2.466 1.814 4.28 1.814 1.928 0 3.43-.595 4.479-1.757a6.199 6.199 0 0 0 1.276-2.467h-3.373a3.63 3.63 0 0 1-.482.737c-.425.454-1.021.68-1.814.68-.681 0-1.276-.226-1.73-.68-.566-.652-.85-1.7-.85-3.203 0-1.474.284-2.523.85-3.118.426-.538 1.049-.765 1.9-.765.538 0 .992.085 1.389.312.113.056.17.113.255.198.085.057.198.142.283.255.057.085.199.227.369.397.198.142.51.227.879.227m-16.668-3.97v6.238c0 1.247.198 2.296.567 3.146.368.85.878 1.559 1.502 2.069.624.482 1.332.822 2.154 1.049.85.227 1.673.34 2.552.34h.482v-3.43h-1.106c-.935 0-1.644-.226-2.098-.68-.453-.454-.68-1.134-.68-2.098v-6.633zm-1.417 12.842v-7.512c0-2.296-.596-3.798-1.786-4.507-1.191-.708-2.495-1.048-3.912-1.048a7.656 7.656 0 0 0-3.8 1.162c-1.132.708-1.7 2.154-1.7 4.393v7.512h3.374v-8.192c0-.794.227-1.332.68-1.701a2.49 2.49 0 0 1 1.53-.51c.596 0 1.106.17 1.588.51.454.369.709.907.709 1.7v6.549c0 .454.142.85.454 1.162.283.34.68.482 1.162.482zm-20.24-3.175c-.68-.737-.992-1.842-.935-3.316.056-1.446.34-2.495.822-3.061.198-.256.538-.482 1.02-.652a2.37 2.37 0 0 1 1.474-.057c.482.17.936.51 1.333 1.105.368.567.595 1.503.623 2.778 0 1.163-.198 2.04-.567 2.608-.368.595-.793.964-1.275 1.134a2.772 2.772 0 0 1-1.446.028c-.482-.17-.822-.34-1.05-.567m-2.323-8.504c-.681.567-1.162 1.36-1.446 2.353a10.007 10.007 0 0 0-.454 3.062c0 .878.114 1.729.369 2.608.255.85.624 1.587 1.134 2.154.85.964 1.927 1.559 3.23 1.729 1.334.17 2.524.085 3.573-.312 1.219-.482 2.126-1.332 2.72-2.523.54-1.048.823-2.296.823-3.713 0-1.02-.113-1.9-.34-2.665-.227-.737-.51-1.36-.88-1.87-.792-1.05-1.756-1.701-2.947-1.985-1.077-.283-2.126-.311-3.203-.056-1.077.226-1.956.652-2.58 1.218m-14.428 3.09h3.289c.028-.623.283-1.134.737-1.445.48-.312 1.105-.482 1.927-.482.567 0 1.077.113 1.502.34.369.227.567.538.567.907 0 .595-.68 1.02-2.041 1.304-.566.113-.992.198-1.303.283-1.701.426-2.835.936-3.43 1.503-.624.595-.936 1.36-.936 2.324 0 1.219.454 2.239 1.389 3.033.964.766 2.21 1.134 3.77 1.134 1.673 0 3.005-.368 3.997-1.134.936-.794 1.446-1.842 1.502-3.118h-2.07c-.622 0-1.076.255-1.416.794a5.136 5.136 0 0 1-.37.397c-.396.283-.934.453-1.586.453s-1.134-.113-1.474-.312c-.284-.198-.425-.482-.425-.878 0-.511.85-.936 2.523-1.276.17-.085.34-.113.48-.142.172-.056.285-.056.427-.056 1.644-.426 2.778-.907 3.43-1.446.623-.595.907-1.361.907-2.324 0-1.418-.511-2.523-1.531-3.29-.964-.707-2.41-1.047-4.337-1.047-1.843 0-3.232.368-4.11 1.105-.936.737-1.418 1.814-1.418 3.232zm-.623-4.252a28.753 28.753 0 0 0-3.458.057c-1.248.085-1.871.879-1.871 2.38v14.174h1.757c.397 0 .765-.141 1.106-.482.31-.311.482-.708.482-1.162v-2.154h1.984v-.68c0-.482-.17-.88-.51-1.191-.312-.312-.681-.454-1.134-.454h-.34v-7.143c0-.567.31-.822.963-.822h1.02zm-6.633 12.84v-7.511c0-2.296-.596-3.798-1.786-4.507-1.191-.708-2.495-1.048-3.912-1.048a7.65 7.65 0 0 0-3.798 1.162c-1.134.708-1.701 2.154-1.701 4.393v7.512h3.373v-8.192c0-.794.227-1.332.652-1.701a2.57 2.57 0 0 1 1.559-.51c.595 0 1.106.17 1.559.51.482.369.709.907.709 1.7v6.549c0 .454.17.85.453 1.162.312.34.709.482 1.19.482zm-19.531-3.174c-.68-.737-.964-1.842-.907-3.316.057-1.446.34-2.495.822-3.061.198-.256.539-.482 1.02-.652a2.37 2.37 0 0 1 1.474-.057c.482.17.936.51 1.333 1.105.368.567.567 1.503.623 2.778 0 1.163-.198 2.04-.567 2.608-.368.595-.793.964-1.275 1.134a2.772 2.772 0 0 1-1.446.028c-.482-.17-.85-.34-1.077-.567m-2.296-8.504c-.68.567-1.191 1.36-1.446 2.353a10.006 10.006 0 0 0-.453 3.062c0 .878.14 1.729.368 2.608.227.85.624 1.587 1.134 2.154.822.964 1.899 1.559 3.232 1.729 1.332.17 2.522.085 3.57-.312 1.22-.482 2.127-1.332 2.722-2.523.539-1.048.794-2.296.794-3.713 0-1.02-.113-1.9-.34-2.665a6.325 6.325 0 0 0-.85-1.87c-.766-1.05-1.758-1.701-2.948-1.985-1.078-.283-2.126-.311-3.204-.056-1.077.226-1.955.652-2.58 1.218m-16.242-1.162v13.663h-4.932v1.219c0 .482.17.879.51 1.219.34.34.766.51 1.248.51h11.48v-2.948h-4.876v-13.663zm-8.645 0v14.882c0 .482.17.879.51 1.219.34.34.737.51 1.219.51h1.7v-16.611z" fill="#3e5983" fill-rule="evenodd"/></g><g clip-path="url(#b)" transform="matrix(1.33333 0 0 -1.33333 -281.968 557.432)"><path d="M368.804 403.074v-14.967H226.476v14.967" fill="#3e5983" fill-rule="evenodd"/><path d="M368.804 388.476v-1.077H226.476v1.077" fill="#3e5983" fill-rule="evenodd"/><path d="M368.804 387.767v-1.049H226.476v1.05" fill="#3e5983" fill-rule="evenodd"/><path d="M368.804 387.058v-1.049H226.476v1.05" fill="#3e5983" fill-rule="evenodd"/><path d="M368.804 386.35v-1.05H226.476v1.05" fill="#3e5983" fill-rule="evenodd"/><path d="M368.804 385.67v-1.078H226.476v1.077" fill="#3e5983" fill-rule="evenodd"/><path d="M368.804 384.96v-1.048H226.476v1.049" fill="#3e5983" fill-rule="evenodd"/><path d="M368.804 384.252v-1.049H226.476v1.05" fill="#3e5983" fill-rule="evenodd"/><path d="M368.804 383.543v-1.049H226.476v1.05" fill="#3e5983" fill-rule="evenodd"/><path d="M368.804 382.863v-1.049H226.476v1.05" fill="#3e5983" fill-rule="evenodd"/><path d="M368.804 382.154v-1.049H226.476v1.05" fill="#3e5983" fill-rule="evenodd"/><path d="M368.804 381.446v-1.05H226.476v1.05" fill="#3e5983" fill-rule="evenodd"/><path d="M368.804 380.737v-1.049H226.476v1.05" fill="#3e5983" fill-rule="evenodd"/><path d="M368.804 380.057v-1.05H226.476v1.05" fill="#3e5983" fill-rule="evenodd"/><path d="M368.804 379.348V378.3H226.476v1.05" fill="#3e5983" fill-rule="evenodd"/><path d="M368.804 378.64v-1.05H226.476v1.05" fill="#3e5983" fill-rule="evenodd"/><path d="M368.804 377.93v-1.048H226.476v1.049" fill="#3e5983" fill-rule="evenodd"/><path d="M368.804 377.25v-1.049H226.476v1.05" fill="#3e5983" fill-rule="evenodd"/><path d="M368.804 376.542v-1.05H226.476v1.05" fill="#3e5983" fill-rule="evenodd"/><path d="M368.804 375.833v-1.049H226.476v1.05" fill="#3e5983" fill-rule="evenodd"/><path d="M368.804 375.153v-1.077H226.476v1.077" fill="#3e5983" fill-rule="evenodd"/><path d="M368.804 374.444v-1.049H226.476v1.05" fill="#3e5983" fill-rule="evenodd"/><path d="M368.804 373.736v-1.05H226.476v1.05" fill="#3e5983" fill-rule="evenodd"/><path d="M368.804 373.027v-1.05H226.476v1.05" fill="#3e5983" fill-rule="evenodd"/><path d="M368.804 372.347v-1.05H226.476v1.05" fill="#3e5983" fill-rule="evenodd"/><path d="M368.804 371.638v-1.05H226.476v1.05" fill="#3e5983" fill-rule="evenodd"/><path d="M368.804 370.93v-1.05H226.476v1.05" fill="#3e5983" fill-rule="evenodd"/><path d="M368.804 370.22v-1.048H226.476v1.049" fill="#3e5983" fill-rule="evenodd"/><path d="M368.804 369.54v-1.049H226.476v1.05" fill="#3e5983" fill-rule="evenodd"/><path d="M368.804 368.832v-1.05H226.476v1.05" fill="#3e5983" fill-rule="evenodd"/><path d="M368.804 368.123v-1.049H226.476v1.049" fill="#3e5983" fill-rule="evenodd"/><path d="M368.804 367.414v-1.049H226.476v1.05" fill="#3e5983" fill-rule="evenodd"/><path d="M368.804 366.734v-1.049H226.476v1.049" fill="#3e5983" fill-rule="evenodd"/><path d="M368.804 366.025v-1.049H226.476v1.05" fill="#3e5983" fill-rule="evenodd"/><path d="M368.804 365.317v-1.05H226.476v1.05" fill="#3e5983" fill-rule="evenodd"/><path d="M368.804 364.636v-1.077H226.476v1.077" fill="#3e5983" fill-rule="evenodd"/><path d="M368.804 363.928v-1.05H226.476v1.05" fill="#3e5983" fill-rule="evenodd"/><path d="M368.804 363.219v-1.049H226.476v1.049" fill="#3e5983" fill-rule="evenodd"/><path d="M368.804 362.51v-1.049H226.476v1.05" fill="#3e5983" fill-rule="evenodd"/><path d="M368.804 361.83v-1.049H226.476v1.049" fill="#3e5983" fill-rule="evenodd"/><path d="M368.804 361.121v-1.049H226.476v1.05" fill="#3e5983" fill-rule="evenodd"/><path d="M368.804 360.413v-1.05H226.476v1.05" fill="#3e5983" fill-rule="evenodd"/><path d="M368.804 359.704v-1.049H226.476v1.049" fill="#3e5983" fill-rule="evenodd"/><path d="M368.804 359.024v-1.05H226.476v1.05" fill="#3e5983" fill-rule="evenodd"/><path d="M368.804 358.315v-1.049H226.476v1.05" fill="#3e5983" fill-rule="evenodd"/><path d="M368.804 357.606v-1.049H226.476v1.05" fill="#3e5983" fill-rule="evenodd"/><path d="M368.804 356.898v-1.05H226.476v1.05" fill="#3e5983" fill-rule="evenodd"/><path d="M368.804 356.217v-1.049H226.476v1.05" fill="#3e5983" fill-rule="evenodd"/><path d="M368.804 355.509v-1.05H226.476v1.05" fill="#3e5983" fill-rule="evenodd"/><path d="M368.804 354.8v-1.049H226.476v1.05" fill="#3e5983" fill-rule="evenodd"/><path d="M368.804 354.12v-1.077H226.476v1.077" fill="#3e5983" fill-rule="evenodd"/><path d="M368.804 353.411v-1.049H226.476v1.05" fill="#3e5983" fill-rule="evenodd"/><path d="M368.804 352.702v-1.049H226.476v1.05" fill="#3e5983" fill-rule="evenodd"/><path d="M368.804 351.994v-1.05H226.476v1.05" fill="#3e5983" fill-rule="evenodd"/><path d="M368.804 351.313v-1.049H226.476v1.05" fill="#3e5983" fill-rule="evenodd"/><path d="M368.804 350.605v-1.05H226.476v1.05" fill="#3e5983" fill-rule="evenodd"/><path d="M368.804 349.896v-1.049H226.476v1.05" fill="#3e5983" fill-rule="evenodd"/><path d="M368.804 349.188v-1.05H226.476v1.05" fill="#3e5983" fill-rule="evenodd"/><path d="M368.804 348.507v-1.049H226.476v1.05" fill="#3e5983" fill-rule="evenodd"/><path d="M368.804 347.799v-1.05H226.476v1.05" fill="#3e5983" fill-rule="evenodd"/><path d="M368.804 347.09v-1.05H226.476v1.05" fill="#3e5983" fill-rule="evenodd"/><path d="M368.804 346.381v-1.049H226.476v1.05" fill="#3e5983" fill-rule="evenodd"/><path d="M368.804 345.7v-1.048H226.476v1.049" fill="#3e5983" fill-rule="evenodd"/><path d="M368.804 344.992v-1.049H226.476v1.05" fill="#3e5983" fill-rule="evenodd"/><path d="M368.804 344.284v-1.05H226.476v1.05" fill="#3e5983" fill-rule="evenodd"/><path d="M368.804 343.603v-1.077H226.476v1.077" fill="#3e5983" fill-rule="evenodd"/><path d="M368.804 342.895v-1.05H226.476v1.05" fill="#3e5983" fill-rule="evenodd"/><path d="M368.804 342.186v-1.05H226.476v1.05" fill="#3e5983" fill-rule="evenodd"/><path d="M368.804 341.477v-1.049H226.476v1.05" fill="#3e5983" fill-rule="evenodd"/><path d="M368.804 340.797v-1.077H226.476v1.077" fill="#3e5983" fill-rule="evenodd"/><path d="M368.804 340.088v-1.049H226.476v1.05" fill="#3e5983" fill-rule="evenodd"/><path d="M368.804 339.38v-1.05H226.476v1.05" fill="#3e5983" fill-rule="evenodd"/><path d="M368.804 338.671v-1.049H226.476v1.049" fill="#3e5983" fill-rule="evenodd"/><path d="M368.804 337.99v-1.048H226.476v1.049" fill="#3e5983" fill-rule="evenodd"/><path d="M368.804 337.282v-1.049H226.476v1.049" fill="#3e5983" fill-rule="evenodd"/><path d="M368.804 336.573v-1.049H226.476v1.05" fill="#3e5983" fill-rule="evenodd"/><path d="M368.804 335.865v-1.05H226.476v1.05" fill="#3e5983" fill-rule="evenodd"/><path d="M368.804 335.184v-1.049H226.476v1.05" fill="#3e5983" fill-rule="evenodd"/><path d="M368.804 334.476v-1.05H226.476v1.05" fill="#3e5983" fill-rule="evenodd"/><path d="M368.804 333.767v-1.049H226.476v1.05" fill="#3e5983" fill-rule="evenodd"/><path d="M368.804 333.087v-1.077H226.476v1.077" fill="#3e5983" fill-rule="evenodd"/><path d="M368.804 332.378v-1.049H226.476v1.05" fill="#3e5983" fill-rule="evenodd"/><path d="M368.804 331.67v-1.05H226.476v1.05" fill="#3e5983" fill-rule="evenodd"/><path d="M368.804 330.96v-1.048H226.476v1.049" fill="#3e5983" fill-rule="evenodd"/><path d="M368.804 330.28v-1.077H226.476v1.077" fill="#3e5983" fill-rule="evenodd"/><path d="M368.804 329.572v-1.05H226.476v1.05" fill="#3e5983" fill-rule="evenodd"/><path d="M368.804 328.863v-1.049H226.476v1.05" fill="#3e5983" fill-rule="evenodd"/><path d="M368.804 328.154v-1.049H226.476v1.05" fill="#3e5983" fill-rule="evenodd"/><path d="M368.804 327.474v-1.049H226.476v1.05" fill="#3e5983" fill-rule="evenodd"/><path d="M368.804 326.765v-1.049H226.476v1.05" fill="#3e5983" fill-rule="evenodd"/><path d="M368.804 326.057v-1.05H226.476v1.05" fill="#3e5983" fill-rule="evenodd"/><path d="M368.804 325.348V324.3H226.476v1.05" fill="#3e5983" fill-rule="evenodd"/><path d="M368.804 324.668v-1.05H226.476v1.05" fill="#3e5983" fill-rule="evenodd"/><path d="M368.804 323.96v-1.05H226.476v1.05" fill="#3e5983" fill-rule="evenodd"/><path d="M368.804 323.25v-1.049H226.476v1.05" fill="#3e5983" fill-rule="evenodd"/><path d="M368.804 322.57v-1.077H226.476v1.077" fill="#3e5983" fill-rule="evenodd"/><path d="M368.804 321.861v-1.049H226.476v1.05" fill="#3e5983" fill-rule="evenodd"/><path d="M368.804 321.153v-1.05H226.476v1.05" fill="#3e5983" fill-rule="evenodd"/><path d="M368.804 320.444v-1.049H226.476v1.05" fill="#3e5983" fill-rule="evenodd"/><path d="M368.804 319.764v-1.077H226.476v1.077" fill="#3e5983" fill-rule="evenodd"/><path d="M368.804 319.055v-1.049H226.476v1.05" fill="#3e5983" fill-rule="evenodd"/><path d="M368.804 318.347v-1.05H226.476v1.05" fill="#3e5983" fill-rule="evenodd"/><path d="M368.804 317.638v-1.05H226.476v1.05" fill="#3e5983" fill-rule="evenodd"/><path d="M368.804 316.958v-1.05H226.476v1.05" fill="#3e5983" fill-rule="evenodd"/><path d="M368.804 316.249v-1.05H226.476v1.05" fill="#3e5983" fill-rule="evenodd"/><path d="M368.804 315.54v-1.049H226.476v1.05" fill="#3e5983" fill-rule="evenodd"/><path d="M368.804 314.832v-1.05H226.476v1.05" fill="#3e5983" fill-rule="evenodd"/><path d="M368.804 314.151v-1.049H226.476v1.05" fill="#3e5983" fill-rule="evenodd"/><path d="M368.804 313.443v-1.05H226.476v1.05" fill="#3e5983" fill-rule="evenodd"/><path d="M368.804 312.734v-1.049H226.476v1.049" fill="#3e5983" fill-rule="evenodd"/><path d="M368.804 312.025v-1.049H226.476v1.05" fill="#3e5983" fill-rule="evenodd"/><path d="M368.804 311.345v-1.049H226.476v1.049" fill="#3e5983" fill-rule="evenodd"/><path d="M368.804 310.636v-1.049H226.476v1.05" fill="#3e5983" fill-rule="evenodd"/><path d="M368.804 309.928v-1.05H226.476v1.05" fill="#3e5983" fill-rule="evenodd"/><path d="M368.804 309.247v-1.077H226.476v1.077" fill="#3e5983" fill-rule="evenodd"/><path d="M368.804 308.539v-1.05H226.476v1.05" fill="#3e5983" fill-rule="evenodd"/><path d="M368.804 307.83v-1.049H226.476v1.049" fill="#3e5983" fill-rule="evenodd"/><path d="M368.804 307.121v-1.049H226.476v1.05" fill="#3e5983" fill-rule="evenodd"/><path d="M368.804 306.441v-1.049H226.476v1.05" fill="#3e5983" fill-rule="evenodd"/><path d="M368.804 305.732v-1.049H226.476v1.05" fill="#3e5983" fill-rule="evenodd"/><path d="M368.804 305.024v-1.05H226.476v1.05" fill="#3e5983" fill-rule="evenodd"/><path d="M368.804 304.315v-1.049H226.476v1.05" fill="#3e5983" fill-rule="evenodd"/><path d="M368.804 303.635v-1.05H226.476v1.05" fill="#3e5983" fill-rule="evenodd"/><path d="M368.804 302.926v-1.049H226.476v1.05" fill="#3e5983" fill-rule="evenodd"/><path d="M368.804 302.217v-1.049H226.476v1.05" fill="#3e5983" fill-rule="evenodd"/><path d="M368.804 301.509v-1.05H226.476v1.05" fill="#3e5983" fill-rule="evenodd"/><path d="M368.804 300.829v-1.05H226.476v1.05" fill="#3e5983" fill-rule="evenodd"/><path d="M368.804 300.12v-1.05H226.476v1.05" fill="#3e5983" fill-rule="evenodd"/><path d="M368.804 299.411v-1.049H226.476v1.05" fill="#3e5983" fill-rule="evenodd"/><path d="M368.804 298.73v-1.076H226.476v1.077" fill="#3e5983" fill-rule="evenodd"/><path d="M368.804 298.022v-1.049H226.476v1.05" fill="#3e5983" fill-rule="evenodd"/><path d="M368.804 297.313v-1.049H226.476v1.05" fill="#3e5983" fill-rule="evenodd"/><path d="M368.804 296.605v-1.05H226.476v1.05" fill="#3e5983" fill-rule="evenodd"/><path d="M368.804 295.925v-1.05H226.476v1.05" fill="#3e5983" fill-rule="evenodd"/><path d="M368.804 295.216v-1.05H226.476v1.05" fill="#3e5983" fill-rule="evenodd"/><path d="M368.804 294.507v-1.049H226.476v1.05" fill="#3e5983" fill-rule="evenodd"/><path d="M368.804 293.799v-1.05H226.476v1.05" fill="#3e5983" fill-rule="evenodd"/><path d="M368.804 293.118v-1.049H226.476v1.05" fill="#3e5983" fill-rule="evenodd"/><path d="M368.804 292.41v-1.05H226.476v1.05" fill="#3e5983" fill-rule="evenodd"/><path d="M368.804 291.7v-1.048H226.476v1.049" fill="#3e5983" fill-rule="evenodd"/><path d="M368.804 290.992v-1.049H226.476v1.05" fill="#3e5983" fill-rule="evenodd"/><path d="M368.804 290.312v-1.05H226.476v1.05" fill="#3e5983" fill-rule="evenodd"/><path d="M368.804 289.603v-1.049H226.476v1.05" fill="#3e5983" fill-rule="evenodd"/><path d="M368.804 288.895v-1.05H226.476v1.05" fill="#3e5983" fill-rule="evenodd"/><path d="M368.804 288.214v-1.077H226.476v1.077" fill="#3e5983" fill-rule="evenodd"/><path d="M368.804 287.506v-1.05H226.476v1.05" fill="#3e5983" fill-rule="evenodd"/><path d="M368.804 286.797v-1.049H226.476v1.049" fill="#3e5983" fill-rule="evenodd"/><path d="M368.804 286.088v-1.049H226.476v1.05" fill="#3e5983" fill-rule="evenodd"/><path d="M368.804 285.408v-1.049H226.476v1.049" fill="#3e5983" fill-rule="evenodd"/><path d="M368.804 284.7v-1.05H226.476v1.05" fill="#3e5983" fill-rule="evenodd"/><path d="M368.804 283.99v-1.048H226.476v1.049" fill="#3e5983" fill-rule="evenodd"/><path d="M368.804 283.282v-1.049H226.476v1.049" fill="#3e5983" fill-rule="evenodd"/><path d="M368.804 282.602v-1.05H226.476v1.05" fill="#3e5983" fill-rule="evenodd"/><path d="M368.804 281.893v-1.049H226.476v1.049" fill="#3e5983" fill-rule="evenodd"/><path d="M368.804 281.184v-1.049H226.476v1.05" fill="#3e5983" fill-rule="evenodd"/><path d="M368.804 280.476v-1.05H226.476v1.05" fill="#3e5983" fill-rule="evenodd"/><path d="M368.804 279.795v-1.049H226.476v1.05" fill="#3e5983" fill-rule="evenodd"/><path d="M368.804 279.087v-1.05H226.476v1.05" fill="#3e5983" fill-rule="evenodd"/><path d="M368.804 278.378v-1.049H226.476v1.05" fill="#3e5983" fill-rule="evenodd"/><path d="M368.804 277.698v-1.077H226.476v1.077" fill="#3e5983" fill-rule="evenodd"/><path d="M368.804 276.99v-1.05H226.476v1.05" fill="#3e5983" fill-rule="evenodd"/><path d="M368.804 276.28v-1.049H226.476v1.05" fill="#3e5983" fill-rule="evenodd"/><path d="M368.804 275.572v-1.05H226.476v1.05" fill="#3e5983" fill-rule="evenodd"/><path d="M368.804 274.891v-1.077H226.476v1.077" fill="#3e5983" fill-rule="evenodd"/><path d="M368.804 274.183v-1.05H226.476v1.05" fill="#3e5983" fill-rule="evenodd"/><path d="M368.804 273.474v-1.049H226.476v1.05" fill="#3e5983" fill-rule="evenodd"/><path d="M368.804 272.765v-1.049H226.476v1.05" fill="#3e5983" fill-rule="evenodd"/><path d="M368.804 272.085v-1.049H226.476v1.05" fill="#3e5983" fill-rule="evenodd"/><path d="M368.804 271.377v-1.05H226.476v1.05" fill="#3e5983" fill-rule="evenodd"/><path d="M368.804 270.668v-1.05H226.476v1.05" fill="#3e5983" fill-rule="evenodd"/><path d="M368.804 269.96v-1.05H226.476v1.05" fill="#3e5983" fill-rule="evenodd"/><path d="M368.804 269.279v-1.05H226.476v1.05" fill="#3e5983" fill-rule="evenodd"/><path d="M368.804 268.57v-1.049H226.476v1.05" fill="#3e5983" fill-rule="evenodd"/><path d="M368.804 267.861v-1.049H226.476v1.05" fill="#3e5983" fill-rule="evenodd"/><path d="M368.804 267.181v-1.077H226.476v1.077" fill="#3e5983" fill-rule="evenodd"/><path d="M368.804 266.473v-1.05H226.476v1.05" fill="#3e5983" fill-rule="evenodd"/><path d="M368.804 265.764v-1.05H226.476v1.05" fill="#3e5983" fill-rule="evenodd"/><path d="M368.804 265.055v-1.049H226.476v1.05" fill="#3e5983" fill-rule="evenodd"/><path d="M368.804 264.375v-1.077H226.476v1.077" fill="#3e5983" fill-rule="evenodd"/><path d="M368.804 263.666v-1.049H226.476v1.05" fill="#3e5983" fill-rule="evenodd"/><path d="M368.804 262.958v-1.05H226.476v1.05" fill="#3e5983" fill-rule="evenodd"/><path d="M368.804 262.249v-1.05H226.476v1.05" fill="#3e5983" fill-rule="evenodd"/><path d="M368.804 261.569v-1.05H226.476v1.05" fill="#3e5983" fill-rule="evenodd"/><path d="M368.804 260.86v-1.049H226.476v1.049" fill="#3e5983" fill-rule="evenodd"/><path d="M368.804 260.151v-1.049H226.476v1.05" fill="#3e5983" fill-rule="evenodd"/><path d="M368.804 259.443v-1.05H226.476v1.05" fill="#3e5983" fill-rule="evenodd"/><path d="M368.804 258.762v-1.049H226.476v1.05" fill="#3e5983" fill-rule="evenodd"/><path d="M368.804 258.054v-1.05H226.476v1.05" fill="#3e5983" fill-rule="evenodd"/><path d="M368.804 257.345v-1.049H226.476v1.049" fill="#3e5983" fill-rule="evenodd"/><path d="M368.804 256.665v-1.077H226.476v1.077" fill="#3e5983" fill-rule="evenodd"/><path d="M368.804 255.956v-1.049H226.476v1.049" fill="#3e5983" fill-rule="evenodd"/><path d="M368.804 255.247v-1.049H226.476v1.05" fill="#3e5983" fill-rule="evenodd"/><path d="M368.804 254.539v-1.05H226.476v1.05" fill="#3e5983" fill-rule="evenodd"/><path d="M368.804 253.858v-1.077H226.476v1.077" fill="#3e5983" fill-rule="evenodd"/><path d="M368.804 253.15v-1.05H226.476v1.05" fill="#3e5983" fill-rule="evenodd"/><path d="M368.804 252.441v-1.049H226.476v1.05" fill="#3e5983" fill-rule="evenodd"/><path d="M368.804 251.732v-1.049H226.476v1.05" fill="#3e5983" fill-rule="evenodd"/><path d="M368.804 251.052v-1.049H226.476v1.05" fill="#3e5983" fill-rule="evenodd"/><path d="M368.804 250.343v-1.049H226.476v1.05" fill="#3e5983" fill-rule="evenodd"/><path d="M368.804 249.635v-1.05H226.476v1.05" fill="#3e5983" fill-rule="evenodd"/><path d="M368.804 248.926v-1.049H226.476v1.05" fill="#3e5983" fill-rule="evenodd"/><path d="M368.804 248.246v-1.05H226.476v1.05" fill="#3e5983" fill-rule="evenodd"/><path d="M368.804 247.537v-1.049H226.476v1.05" fill="#3e5983" fill-rule="evenodd"/><path d="M368.804 246.828v-1.049H226.476v1.05" fill="#3e5983" fill-rule="evenodd"/><path d="M368.804 246.12v-1.05H226.476v1.05" fill="#3e5983" fill-rule="evenodd"/><path d="M368.804 245.44v-1.05H226.476v1.05" fill="#3e5983" fill-rule="evenodd"/><path d="M368.804 244.73v-1.048H226.476v1.049" fill="#3e5983" fill-rule="evenodd"/><path d="M368.804 244.022v-1.049H226.476v1.05" fill="#3e5983" fill-rule="evenodd"/><path d="M368.804 243.342v-1.077H226.476v1.077" fill="#3e5983" fill-rule="evenodd"/><path d="M368.804 242.633v-1.049H226.476v1.05" fill="#3e5983" fill-rule="evenodd"/><path d="M368.804 241.924v-1.049H226.476v1.05" fill="#3e5983" fill-rule="evenodd"/><path d="M368.804 241.216v-1.05H226.476v1.05" fill="#3e5983" fill-rule="evenodd"/><path d="M368.804 240.536v-1.05H226.476v1.05" fill="#3e5983" fill-rule="evenodd"/><path d="M368.804 239.827v-1.05H226.476v1.05" fill="#3e5983" fill-rule="evenodd"/><path d="M368.804 239.118v-1.049H226.476v1.05" fill="#3e5983" fill-rule="evenodd"/><path d="M368.804 238.41v-1.05H226.476v1.05" fill="#3e5983" fill-rule="evenodd"/><path d="M368.804 237.73v-1.05H226.476v1.05" fill="#3e5983" fill-rule="evenodd"/><path d="M368.804 237.02v-1.048H226.476v1.049" fill="#3e5983" fill-rule="evenodd"/><path d="M368.804 236.312v-1.05H226.476v1.05" fill="#3e5983" fill-rule="evenodd"/><path d="M368.804 235.603v-1.049H226.476v1.05" fill="#3e5983" fill-rule="evenodd"/><path d="M368.804 234.923v-1.049H226.476v1.049" fill="#3e5983" fill-rule="evenodd"/><path d="M368.804 234.214v-1.049H226.476v1.05" fill="#3e5983" fill-rule="evenodd"/><path d="M368.804 233.506v-1.05H226.476v1.05" fill="#3e5983" fill-rule="evenodd"/><path d="M368.804 232.825v-1.077H226.476v1.077" fill="#3e5983" fill-rule="evenodd"/><path d="M368.804 232.117v-1.05H226.476v1.05" fill="#3e5983" fill-rule="evenodd"/><path d="M368.804 231.408v-1.049H226.476v1.049" fill="#3e5983" fill-rule="evenodd"/><path d="M368.804 230.7v-1.05H226.476v1.05" fill="#3e5983" fill-rule="evenodd"/><path d="M368.804 230.019v-1.049H226.476v1.049" fill="#3e5983" fill-rule="evenodd"/><path d="M368.804 229.31v-1.049H226.476v1.05" fill="#3e5983" fill-rule="evenodd"/><path d="M368.804 228.602v-1.05H226.476v1.05" fill="#3e5983" fill-rule="evenodd"/><path d="M368.804 227.893v-1.049H226.476v1.049" fill="#3e5983" fill-rule="evenodd"/><path d="M368.804 227.213v-1.05H226.476v1.05" fill="#3e5983" fill-rule="evenodd"/><path d="M368.804 226.504v-1.049H226.476v1.05" fill="#3e5983" fill-rule="evenodd"/><path d="M368.804 225.795v-1.049H226.476v1.05" fill="#3e5983" fill-rule="evenodd"/><path d="M368.804 225.087v-1.05H226.476v1.05" fill="#3e5983" fill-rule="evenodd"/><path d="M368.804 224.406v-1.049H226.476v1.05" fill="#3e5983" fill-rule="evenodd"/><path d="M368.804 223.698v-1.05H226.476v1.05" fill="#3e5983" fill-rule="evenodd"/><path d="M368.804 222.99v-1.05H226.476v1.05" fill="#3e5983" fill-rule="evenodd"/><path d="M368.804 222.309v-1.077H226.476v1.077" fill="#3e5983" fill-rule="evenodd"/><path d="M368.804 221.6v-1.049H226.476v1.05" fill="#3e5983" fill-rule="evenodd"/><path d="M368.804 220.892v-1.05H226.476v1.05" fill="#3e5983" fill-rule="evenodd"/><path d="M368.804 220.183v-1.05H226.476v1.05" fill="#3e5983" fill-rule="evenodd"/><path d="M368.804 219.502v-1.049H226.476v1.05" fill="#3e5983" fill-rule="evenodd"/><path d="M368.804 218.794v-1.05H226.476v1.05" fill="#3e5983" fill-rule="evenodd"/><path d="M368.804 218.085v-1.049H226.476v1.05" fill="#3e5983" fill-rule="evenodd"/><path d="M368.804 217.376v-1.049H226.476v1.05" fill="#3e5983" fill-rule="evenodd"/><path d="M368.804 216.696v-1.049H226.476v1.05" fill="#3e5983" fill-rule="evenodd"/><path d="M368.804 215.988v-1.05H226.476v1.05" fill="#3e5983" fill-rule="evenodd"/><path d="M368.804 215.279v-1.05H226.476v1.05" fill="#3e5983" fill-rule="evenodd"/><path d="M368.804 214.57v-1.049H226.476v1.05" fill="#3e5983" fill-rule="evenodd"/><path d="M368.804 213.89v-1.05H226.476v1.05" fill="#3e5983" fill-rule="evenodd"/><path d="M368.804 213.181v-1.049H226.476v1.05" fill="#3e5983" fill-rule="evenodd"/><path d="M368.804 212.473v-1.05H226.476v1.05" fill="#3e5983" fill-rule="evenodd"/><path d="M368.804 211.792v-1.077H226.476v1.077" fill="#3e5983" fill-rule="evenodd"/><path d="M368.804 211.084v-1.05H226.476v1.05" fill="#3e5983" fill-rule="evenodd"/><path d="M368.804 210.375v-.283H226.476v.283" fill="#3e5983" fill-rule="evenodd"/></g></svg>
