<svg xmlns="http://www.w3.org/2000/svg" height="1066.6667" width="1066.6667"><defs><clipPath id="a"><path d="M0 800h800V0H0z"/></clipPath></defs><path d="M1040.8813 26.6667H26.3093v1014.572h1014.572z" fill="#191919"/><path d="M870.3854 357.4305h4.1987v11.0613h3.996v-11.0613h4.1773v-3.4827h-12.372zM894.8633 353.948l-3.1533 6.8413-3.1347-6.8414h-4.3613v14.544h3.9933v-7.66l2.4373 5.3867h2.1307l2.4373-5.3867v7.66h3.9947v-14.544z" fill="#fff"/><g clip-path="url(#a)" transform="matrix(1.33333 0 0 -1.33333 0 1066.6667)"><path d="M285.5474 493.6343c0-10.503-8.515-19.018-19.018-19.018s-19.018 8.515-19.018 19.018c0 10.138 7.939 18.399 17.936 18.963h2.164c9.998-.564 17.936-8.825 17.936-18.963m21.887 18.963v21.942H197.8734v-41.595l-32.839 41.595h-17.514v-81.809h22.469v40.214l32.494-40.214h17.859v59.867h9.962c-2.975-5.671-4.679-12.114-4.679-18.963 0-22.591 18.314-40.904 40.904-40.904 22.591 0 40.905 18.313 40.905 40.904 0 6.849-1.704 13.292-4.68 18.963zM324.4258 452.7187h22.47v30.419h27.424v18.206h-27.424v13.597h33.645v19.587h-56.115zM409.9756 534.5273h-22.47v-81.809h59.573v19.59h-37.103zM499.1914 492.8242c0-2.667-.269-5.219-.8-7.657-.534-2.436-1.371-4.588-2.513-6.453-1.142-1.868-2.627-3.371-4.458-4.514-1.828-1.142-4.039-1.713-6.625-1.713-2.591 0-4.783.55-6.571 1.655-1.791 1.102-3.257 2.59-4.399 4.458-1.143 1.865-1.983 4.036-2.514 6.512-.534 2.473-.8 5.045-.8 7.712v41.703h-22.281v-41.703c0-5.411.686-10.531 2.059-15.369 1.371-4.838 3.542-9.084 6.511-12.739 2.971-3.656 6.759-6.57 11.369-8.741 4.609-2.17 10.151-3.256 16.626-3.256 6.245 0 11.672 1.027 16.282 3.084 4.607 2.059 8.435 4.875 11.482 8.456 3.045 3.579 5.292 7.827 6.74 12.739 1.448 4.915 2.173 10.187 2.173 15.826v41.703h-22.281zM528.3066 452.73h22.47v30.419h27.424v18.206h-27.424v13.597h40.445V452.73h22.47v30.419h27.424v18.206h-27.424v13.597h33.644v19.587h-119.029zM671.0205 334.7187c-2.257 5.264-5.494 9.739-9.708 13.429-4.214 3.683-9.288 6.882-15.233 9.59-5.946 2.71-12.599 5.191-19.972 7.448-4.665 1.504-8.842 2.781-12.525 3.836-3.69 1.051-6.812 2.143-9.368 3.271-2.56 1.131-4.512 2.372-5.866 3.726-1.353 1.354-2.031 3.08-2.031 5.19 0 2.857 1.165 4.888 3.501 6.095 2.329 1.201 5.451 1.805 9.361 1.805 4.817 0 9.739-.79 14.781-2.369 5.043-1.583 9.593-3.275 13.655-5.08 4.817-2.109 9.482-4.512 13.995-7.22l18.959 36.333c-3.616 1.805-7.678 3.723-12.191 5.756-4.512 2.031-9.366 3.91-14.555 5.641-5.191 1.729-10.574 3.159-16.137 4.287-5.567 1.129-11.281 1.693-17.153 1.693-7.977 0-15.533-1.165-22.68-3.498-7.146-2.335-13.507-5.753-19.069-10.269-5.568-4.513-9.97-10.154-13.202-16.926-3.238-6.768-4.854-14.595-4.854-23.468 0-5.87.792-11.06 2.371-15.573 1.58-4.514 4.025-8.543 7.336-12.074 3.307-3.536 7.52-6.698 12.636-9.479 5.116-2.787 11.209-5.378 18.282-7.788 4.813-1.652 9.367-3.085 13.654-4.287 4.287-1.207 8.086-2.408 11.398-3.61 3.305-1.207 5.903-2.592 7.781-4.172 1.884-1.584 2.823-3.5 2.823-5.756 0-2.109-.939-3.804-2.823-5.08-1.878-1.28-5.226-1.915-10.038-1.915-6.323 0-12.525.902-18.623 2.708-6.092 1.805-11.544 3.836-16.361 6.092-5.72 2.556-11.209 5.489-16.472 8.8l-18.959-38.589c4.811-2.86 10.044-5.416 15.684-7.672 5.641-2.262 11.513-4.214 17.606-5.872 6.092-1.653 12.221-2.934 18.392-3.836 6.166-.902 12.184-1.354 18.056-1.354 7.367 0 14.703.866 22.003 2.597 7.294 1.727 13.837 4.55 19.636 8.465 5.787 3.909 10.453 9.136 13.989 15.685 3.531 6.543 5.306 14.629 5.306 24.258 0 7.52-1.129 13.916-3.385 19.182M495.6172 305.8086c-2.535-2.304-5.648-3.456-9.334-3.456h-35.488v27.424h37.1c3.381 0 6.146-1.351 8.3-4.035 2.15-2.69 3.226-6.034 3.226-10.026 0-4.303-1.27-7.603-3.804-9.907m-44.822 84.111h32.032c2.914 0 5.454-.962 7.603-2.88 2.154-1.923 3.231-5.112 3.231-9.565 0-5.071-1.271-8.452-3.805-10.14-2.534-1.693-5.342-2.535-8.412-2.535h-30.649zm-96.52-43.556c0-21.006-17.03-38.035-38.036-38.035s-38.036 17.029-38.036 38.035c0 20.278 15.881 36.801 35.877 37.926h4.318c19.996-1.125 35.877-17.648 35.877-37.926m-171.78 81.786v-81.921c0-7.717-.227-14.263-.68-19.629-.454-5.371-1.441-9.756-2.95-13.165-1.515-3.403-3.709-5.862-6.58-7.371-2.876-1.515-6.659-2.269-11.35-2.269-3.176 0-6.236.301-9.192.908-2.949.601-5.556 1.282-7.825 2.042-2.268.754-4.163 1.508-5.677 2.269-1.515.754-2.496 1.282-2.95 1.588l-9.302-36.081c9.682-6.664 21.333-9.988 34.946-9.988 14.674 0 26.362 1.967 35.063 5.899 8.696 3.936 15.318 9.455 19.855 16.567 4.538 7.108 7.488 15.694 8.849 25.755 1.367 10.063 2.048 21.22 2.048 33.475v38.061h17.007c-5.946-11.338-9.327-24.234-9.327-37.926 0-45.182 36.627-81.809 81.809-81.809 45.182 0 81.809 36.627 81.809 81.809 0 13.692-3.381 26.588-9.327 37.926h17.133v-119.735h80.429c7.988 0 15.555.81 22.702 2.422 7.143 1.613 13.402 4.11 18.781 7.491 5.374 3.376 9.597 7.716 12.672 13.021 3.071 5.299 4.609 11.633 4.609 19.011 0 11.52-2.728 20.699-8.177 27.537-5.46 6.834-12.87 11.637-22.242 14.402 7.839 3.531 13.712 8.793 17.629 15.786 3.922 6.989 5.878 14.322 5.878 22.006 0 5.222-.884 10.331-2.653 15.328-1.762 4.988-4.26 9.446-7.485 13.363-3.226 3.92-7.149 7.105-11.756 9.565-4.608 2.456-9.758 3.686-15.437 3.686z" fill="#fff"/></g></svg>
