<svg xmlns="http://www.w3.org/2000/svg" height="95.628" width="340.16">
    <defs>
        <clipPath id="a">
            <path d="M0 71.721h255.12V0H0z"/>
        </clipPath>
    </defs>
    <g clip-path="url(#a)" transform="matrix(1.33333 0 0 -1.33333 0 95.628)">
        <path d="M26.107 23.435h-2.814v16.556h2.648v-.795c.684.53 1.567.795 2.65.795h1.522c1.788 0 3.118-.42 3.99-1.259.871-.839 1.308-2.185 1.308-4.039V23.435h-2.815v11.921c0 .662-.194 1.185-.579 1.571-.387.386-.91.58-1.573.58H28.26c-.728 0-1.269-.194-1.623-.58-.353-.386-.529-.8-.529-1.24zM51.487 28.733c0-1.854-.458-3.201-1.373-4.04-.917-.838-2.335-1.258-4.255-1.258h-1.093c-1.92 0-3.339.42-4.254 1.259-.917.838-1.374 2.185-1.374 4.039v5.96c0 1.855.457 3.2 1.374 4.039.915.839 2.333 1.258 4.254 1.258h1.093c1.92 0 3.338-.42 4.255-1.258.915-.84 1.373-2.184 1.373-4.04zm-2.814-.662v7.284c0 1.435-.828 2.152-2.483 2.152h-1.755c-1.655 0-2.482-.717-2.482-2.152V28.07c0-1.435.827-2.152 2.482-2.152h1.755c1.655 0 2.483.717 2.483 2.152M75.941 44.13h-4.503c-.353 0-.635-.095-.845-.283a.915.915 0 0 1-.313-.71v-3.148h5.33v-2.482h-5.33V25.918h4.006v-2.483h-9.634v2.483h2.813v11.59h-2.813v2.481h2.813v2.981c0 1.126.32 2.015.961 2.665.64.65 1.467.976 2.483.976h5.032zM93.047 23.435h-5.562c-.75 0-1.408.265-1.97.795-.564.53-.845 1.37-.845 2.516V44.13h-4.866v2.483h7.68v-19.7c0-.353.088-.608.265-.76.177-.156.475-.234.895-.234h4.403zM108.897 23.435h-2.649v.763c-.728-.509-1.611-.763-2.65-.763h-1.124c-1.789 0-3.12.42-3.99 1.26-.872.837-1.308 2.184-1.308 4.038v11.258h2.813V28.072c0-.663.193-1.187.58-1.574.386-.386.91-.58 1.573-.58h1.788c.706 0 1.23.177 1.572.531.342.352.535.75.581 1.191v12.351h2.813zM124.008 44.13h-4.501c-.354 0-.636-.095-.846-.283a.913.913 0 0 1-.314-.71v-3.148h5.33v-2.482h-5.33V25.918h4.006v-2.483h-9.634v2.483h2.813v11.59h-2.813v2.481h2.813v2.981c0 1.126.32 2.015.96 2.665.64.65 1.468.976 2.484.976h5.032zM138.718 44.13h-4.502c-.354 0-.635-.095-.846-.283a.916.916 0 0 1-.314-.71v-3.148h5.332v-2.482h-5.332V25.918h4.008v-2.483h-9.636v2.483h2.815v11.59h-2.815v2.481h2.815v2.981c0 1.126.32 2.015.959 2.665.64.65 1.469.976 2.485.976h5.03z" fill="#575757"/>
        <path d="M151.466 33.203v3.643c.883 0 1.496.137 1.838.413.342.276.514.844.514 1.705v7.583c0 1.477.275 2.52.828 3.128.55.608 1.478.91 2.78.91h2.153v-2.318h-1.69c-.528 0-.91-.082-1.142-.247-.23-.166-.347-.492-.347-.977v-8.08c0-1.103-.27-2.007-.811-2.713-.541-.707-1.21-1.126-2.002-1.26.793-.087 1.46-.484 2.002-1.19.54-.707.81-1.613.81-2.716v-8.08c0-.483.118-.81.348-.975.233-.165.614-.248 1.143-.248h1.689v-2.318h-2.152c-1.303 0-2.231.304-2.781.91-.553.608-.828 1.65-.828 3.13v7.58c0 .863-.172 1.43-.514 1.707-.342.275-.955.413-1.838.413M163.31 21.8h4.67c.353 0 .633.093.844.28a.917.917 0 0 1 .314.711v14.716h-4.865v2.483h7.68V23.104c0-1.125-.321-2.013-.961-2.665-.641-.65-1.467-.977-2.483-.977h-5.2zm8.775 21.832h-3.147v2.98h3.147zM188.583 28.733c0-1.854-.459-3.201-1.375-4.04-.916-.838-2.334-1.258-4.254-1.258h-1.094c-1.92 0-3.338.42-4.254 1.259-.916.838-1.373 2.185-1.373 4.039v5.96c0 1.855.457 3.2 1.373 4.039.916.839 2.334 1.258 4.254 1.258h1.094c1.92 0 3.338-.42 4.254-1.258.916-.84 1.375-2.184 1.375-4.04zm-2.814-.662v7.284c0 1.435-.829 2.152-2.483 2.152h-1.756c-1.656 0-2.482-.717-2.482-2.152V28.07c0-1.435.826-2.152 2.482-2.152h1.756c1.654 0 2.483.717 2.483 2.152M205.095 28.733c0-1.854-.46-3.201-1.375-4.04-.916-.838-2.334-1.258-4.254-1.258h-6.49v23.177h2.814v-7.284c.662.44 1.49.662 2.485.662h1.19c1.942 0 3.366-.413 4.273-1.241.904-.828 1.357-2.18 1.357-4.056zm-7.152 8.774c-.73 0-1.27-.193-1.623-.58-.352-.385-.53-.8-.53-1.24v-9.768h4.008c1.654 0 2.483.717 2.483 2.152v7.284c0 1.435-.83 2.152-2.483 2.152zM219.411 27.575c0-2.76-1.654-4.14-4.967-4.14h-4.933v2.486h5.265c1.213 0 1.821.495 1.821 1.488v1.755c0 .993-.475 1.49-1.422 1.49h-1.227c-1.545 0-2.699.336-3.459 1.009-.762.674-1.144 1.738-1.144 3.196v.96c0 1.479.42 2.544 1.26 3.194.837.652 2.074.977 3.708.977h4.436v-2.483h-4.768c-.55 0-.994-.127-1.324-.38-.332-.254-.496-.624-.496-1.11v-1.191c0-.51.15-.884.447-1.126.297-.243.678-.364 1.141-.364h1.127c3.023 0 4.535-1.424 4.535-4.271zM231.227 36.845v-3.642c-.883 0-1.496-.138-1.838-.414-.342-.276-.513-.843-.513-1.706v-7.58c0-1.48-.276-2.522-.829-3.13-.55-.606-1.478-.91-2.78-.91h-2.15v2.318h1.686c.53 0 .91.083 1.143.248.232.165.347.492.347.975v8.08c0 1.103.272 2.008.811 2.715.541.706 1.21 1.104 2.004 1.192-.795.132-1.463.551-2.004 1.258-.539.706-.81 1.611-.81 2.714v8.08c0 .485-.116.811-.348.976-.233.166-.614.248-1.143.248h-1.687v2.318h2.15c1.303 0 2.231-.303 2.781-.91.553-.607.83-1.65.83-3.129v-7.583c0-.86.17-1.429.512-1.705.342-.275.955-.413 1.838-.413" fill="#00bfe5"/>
    </g>
</svg>
