<svg xmlns="http://www.w3.org/2000/svg" height="134.66" width="293.494"><defs><clipPath id="a"><path d="M0 595.28h841.89V0H0z"/></clipPath></defs><path d="M210.94 10L176.67 21.335l.114 36.177 34.447 11.063 21.136-29.394zM135.5 34.968l.028 9.124.925.3-.032-9.736zM142.407 46.329l1.716.552-.047-14.75-1.707.558zM149.287 48.563l2.502.818-.058-19.785-2.503.824zM169.91 55.264l4.878 1.594-.113-34.867-4.866 1.613zM162.946 25.872l.085 27.154 4.087 1.33-.09-29.84-2.046.68zM156.153 50.795l3.3 1.075-.076-24.814-3.303 1.09zM129.084 37.082l.012 4.91.45.15-.017-5.199z" fill="#00264f"/><g clip-path="url(#a)" transform="matrix(1.33333 0 0 -1.33333 -37.906 589.264)"><path d="M119.036 387.122l-1.397-.006.628 3.639-6.16-.021-.212-1.241c-.229-1.308-1.456-2.377-2.777-2.402l-1.585-.006-.292-1.734 1.167.01-3.429-19.877c-.23-1.313.655-2.383 1.975-2.377l6.538.02 3.842 22.258 1.401.007zM182.754 387.316l-15.356-.044c-1.316-.007-2.57-1.077-2.801-2.395l-3.337-19.208c-.216-1.322.684-2.39 2.004-2.383l15.349.048c1.319.005 2.56 1.075 2.796 2.394l3.324 19.212c.225 1.316-.663 2.386-1.98 2.376m-10.09-20.82l-2.363-.004 3.045 17.612 2.365.002zM160.254 387.247L144.9 387.2c-1.314-.006-2.57-1.07-2.796-2.39l-3.327-19.207c-.224-1.316.667-2.396 1.98-2.39l15.368.052c1.309.004 2.563 1.083 2.79 2.403l1.46 8.445-8.885-.025-1.318-7.666h-2.374l3.056 17.61 2.365.01-1.328-7.642 8.884.02 1.459 8.453c.244 1.323-.66 2.38-1.98 2.373M83.384 384.62c.231 1.322-.67 2.386-1.987 2.384l-15.355-.046c-1.31-.01-2.573-1.08-2.803-2.401l-3.32-19.21c-.233-1.321.662-2.39 1.978-2.381l15.36.05c1.323.005 2.577 1.077 2.807 2.398l.991 5.724-8.893-.032-.853-4.924-2.372-.006 1.245 7.179 8.878.024c1.31.004 2.568 1.083 2.795 2.394zm-10.273-8.067l-2.367-.007 1.243 7.246 2.37.004zM58.856 386.93l-17.736-.05-5.19-29.99 8.894.025 1.036 5.995 8.854.033c1.326.004 2.565 1.08 2.795 2.395l3.331 19.214c.23 1.318-.66 2.383-1.984 2.378M48.77 366.111l-2.357-.008 3.053 17.614 2.354.003zM239.033 387.499l-17.745-.06-5.189-29.987 8.9.027 1.035 6.003 8.862.028c1.313.006 2.567 1.077 2.795 2.395l3.323 19.205c.23 1.325-.665 2.393-1.98 2.389m-10.09-20.827l-2.35-.008 3.047 17.617 2.354.004zM120.592 376.768c-1.323-.009-2.57-1.084-2.794-2.4l-1.534-8.84c-.222-1.324.668-2.388 1.993-2.385l10.259.03 7.483.023 3.73 21.597c.23 1.327-.673 2.392-1.99 2.385l-15.346-.05c-1.316-.003-2.574-1.075-2.805-2.395l-.992-5.722 8.89.025.854 4.927 2.358.012-1.234-7.182zm7.065-10.41l-2.371-.012 1.26 7.253 2.366.01zM103.95 387.072l-17.745-.055-4.157-23.987 8.897.03 3.598 20.802 2.369.005-3.603-20.804 8.88.029 3.743 21.599c.23 1.322-.664 2.385-1.982 2.38M187.531 387.334l29.002.088c1.324.01 2.195-1.063 1.978-2.38l-3.743-21.598-8.877-.024 3.582 20.795-2.357-.003-3.604-20.802-8.883-.025 3.603 20.798-2.363-.005-3.608-20.798-8.882-.034z" fill="#00264f"/><path d="M57.627 352.568a4.264 4.264 0 0 1 1.679-.341c.328 0 1.16.042 1.155.534 0 .854-2.472.405-2.478 2.387-.007 1.404 1.626 1.973 3.01 1.979.524 0 1.248-.113 2.001-.352l-.436-1.355a4.202 4.202 0 0 1-1.659.33c-.456-.004-.961-.113-.963-.527.004-.665 2.592-.615 2.598-2.118.002-1.483-1.252-2.224-2.804-2.25-.906-.013-1.868.12-2.513.298zM67.136 350.221c-.61-1.06-1.28-1.758-2.601-1.768a5.46 5.46 0 0 0-1.626.248l.438 1.508c.26-.075.549-.169.94-.169.584.004.966.383 1.209.993l-1.342 5.962 2.1.005.555-3.785.018.004 2.026 3.793h2.19zM71.203 352.607a4.224 4.224 0 0 1 1.674-.331c.33-.002 1.16.037 1.159.53-.002.855-2.47.403-2.473 2.39-.01 1.395 1.625 1.971 3.016 1.971.519.001 1.238-.109 1.992-.35l-.433-1.355a4.11 4.11 0 0 1-1.661.326c-.458-.001-.967-.104-.965-.525.004-.659 2.59-.615 2.589-2.117.013-1.478-1.243-2.22-2.795-2.245-.908-.016-1.872.113-2.511.298zM77.81 357.04l1.18.005.283 1.29 2.181.592-.412-1.88 1.434.009-.252-1.453-1.505-.003-.352-1.665c-.086-.448-.164-.745-.165-1.041 0-.406.268-.666.68-.664.217.002.45.092.662.177l-.227-1.37a8.885 8.885 0 0 0-1.28-.121c-1.06 0-1.9.513-1.905 1.763-.006.3.044.599.178 1.24l.351 1.674h-1.099zM88.038 351.28c-.726-.22-1.5-.34-2.098-.346-1.997-.007-3.08 1.225-3.087 2.728-.001 1.392.912 3.536 3.57 3.549 1.582 0 2.764-.791 2.769-2.601 0-.25-.068-.776-.137-1.135l-4.246-.011c.024-.64.344-1.151 1.619-1.147.549 0 1.286.145 1.862.42zm-.568 3.367c-.004.635-.258 1.182-1.015 1.182-.897-.005-1.38-.618-1.52-1.195zM90.92 355.516c.101.517.193 1.024.243 1.565l1.838.006-.23-1.093.026.011c.505.761 1.276 1.226 2.116 1.23.702 0 1.414-.403 1.583-1.216.498.76 1.263 1.223 2.131 1.225.912.004 1.866-.44 1.868-1.779a7.78 7.78 0 0 0-.13-1.346l-.62-3.004-2.068-.004.59 2.906c.064.316.113.64.115.881-.003.391-.196.618-.67.612-.863.001-1.09-.996-1.218-1.638l-.594-2.77-2.06-.005.582 2.91c.072.317.112.637.12.88 0 .388-.193.617-.675.613-.86 0-1.086-1.003-1.223-1.639l-.584-2.769-2.06-.002zM104.898 350.334c-.608-1.055-1.276-1.753-2.603-1.755a4.839 4.839 0 0 0-1.62.243l.428 1.502c.267-.077.558-.167.945-.17.59.006.962.385 1.197.998l-1.34 5.967 2.112.006.554-3.785.02-.002 2.023 3.791 2.202.01zM114.04 357.154l2.096.01-1.228-6-2.091-.012zm.52 2.496l2.093.007-.32-1.525-2.091-.001zM117.746 355.596c.103.522.2 1.03.25 1.57l1.912.007-.152-.979.025.004c.592.665 1.217 1.112 2.306 1.123 1.204 0 1.862-.898 1.866-2.063.007-.408-.037-.64-.156-1.27l-.539-2.797-2.142-.009.568 2.814c.055.301.127.59.13.902-.002.36-.23.715-.797.684-.873.002-1.394-.757-1.54-1.64l-.582-2.765-2.07-.005zM126.603 355.746l-1.293-.006.322 1.449 1.248.005.16.758c.256 1.237 1.106 2.013 2.441 2.022.513-.001 1.106-.06 1.536-.183l-.38-1.412c-.219.079-.429.145-.658.143-.495 0-.806-.303-.952-.965l-.075-.355h1.537l-.318-1.445-1.516-.004-.93-4.548-2.068-.007zM133.81 351.086c-2.227-.005-3.123 1.226-3.126 2.726-.006 2.105 1.499 3.536 3.85 3.544 2.039.005 3.116-1.162 3.126-2.665.006-2.503-1.612-3.596-3.85-3.605m.627 4.817c-1 0-1.615-1.084-1.615-2.038.002-.804.429-1.345 1.13-1.326.96.003 1.573.81 1.57 2.165-.005.616-.28 1.208-1.085 1.2M141.565 357.235l-.233-1.225.02-.003c.333.702 1.002 1.375 1.844 1.379.281-.002.603-.036.883-.147l-.469-1.828c-.265.202-.565.245-.953.239-.874.004-1.395-.756-1.53-1.647l-.59-2.764-2.07-.005.923 4.437c.105.518.188 1.02.247 1.56zM144.902 355.688c.1.511.191 1.024.24 1.564l1.844.006-.23-1.095.028.012c.5.761 1.268 1.223 2.11 1.227.702.008 1.415-.402 1.583-1.217.494.765 1.271 1.225 2.13 1.23.915.002 1.863-.449 1.868-1.775 0-.392-.046-.92-.139-1.353l-.612-2.997-2.063-.012.584 2.912c.073.313.112.632.11.877.002.39-.183.619-.665.619-.862-.005-1.092-1.005-1.22-1.645l-.588-2.77-2.069-.002.59 2.912c.065.311.116.632.118.875.001.389-.192.616-.674.62-.86-.006-1.08-1.006-1.222-1.646l-.578-2.777h-2.067zM159.375 352.145l-.036.023.004-.024c-.431-.688-1.201-.982-2.008-.983-1.287-.009-1.992.567-2.002 1.733-.004 1.464 1.461 2.201 3.284 2.204.422 0 .836-.033 1.121-.058.022.083.018.166.018.248.004.421-.429.763-1.096.757-.758.001-1.261-.114-1.948-.469l.204 1.505c.611.209 1.265.35 2.198.35 1.417.002 2.604-.553 2.606-2.027-.002-.943-.527-2.289-.752-4.103l-1.69-.002zm-1.39.393c.892.003 1.412.615 1.567 1.417-.171.038-.425.037-.556.038-.99.028-1.712-.327-1.712-.851.005-.273.267-.606.701-.604M163.398 357.308h1.185l.28 1.292 2.188.59-.407-1.877 1.424.005-.251-1.439-1.51-.008-.344-1.669c-.09-.45-.17-.744-.176-1.029 0-.408.268-.675.69-.676.216.001.442.098.664.18l-.225-1.374a8.881 8.881 0 0 0-1.294-.115c-1.05 0-1.898.513-1.898 1.765 0 .301.053.591.179 1.228l.352 1.687-1.1-.007zM171.82 350.545c-.62-1.055-1.293-1.756-2.61-1.757a4.758 4.758 0 0 0-1.624.244l.434 1.503c.26-.076.55-.174.938-.168.591.003.967.382 1.206.996l-1.343 5.963 2.105.004.555-3.78h.023l2.024 3.79 2.186.003zM180.476 351.465c-.415-.14-.96-.233-1.767-.235-1.75-.005-2.835 1.217-2.836 2.726-.01 1.966 1.549 3.533 3.852 3.541.503.002 1.277-.147 1.886-.402l-.448-1.435c-.424.198-.873.323-1.327.317-1.072-.002-1.825-.698-1.83-1.935.01-.709.564-1.298 1.43-1.298.519.004.884.09 1.333.273zM181.685 352.938l3.248 2.922-2.567-.006.31 1.51 5.086.015-.325-1.552-3.273-2.926 2.734.01-.307-1.525-5.203-.013zM188.814 355.824c.099.52.189 1.027.248 1.558l1.908.01-.155-.968.031-.002c.6.664 1.21 1.116 2.302 1.114 1.205.005 1.867-.884 1.871-2.061.004-.4-.033-.63-.16-1.261l-.543-2.804-2.136-.003.56 2.806c.058.299.14.597.14.906 0 .365-.233.72-.806.69-.872-.003-1.386-.76-1.537-1.644l-.575-2.765-2.068-.007zM201.42 351.634c-.727-.219-1.492-.338-2.092-.344-2.004 0-3.084 1.225-3.091 2.73 0 1.387.91 3.534 3.574 3.538 1.58.008 2.764-.787 2.776-2.598a6.707 6.707 0 0 0-.154-1.125l-4.241-.015c.027-.646.35-1.157 1.615-1.149.555 0 1.302.15 1.872.421zm-.561 3.362c-.004.643-.254 1.191-1.015 1.19-.902-.003-1.383-.619-1.53-1.193z" fill="#ff9500"/></g></svg>
