<svg xmlns="http://www.w3.org/2000/svg" width="954.024" height="286.028"><defs><clipPath id="a"><path d="M-9-9h714v213H-9z" clip-rule="evenodd"/></clipPath></defs><g clip-path="url(#a)" fill="#004681" transform="matrix(1.33333 0 0 -1.33333 13.333 272.695)"><path d="M129.42 115.197c-.355-.106-.576-.36-.57-.85-2.127-11.612-4.113-23.385-6.256-34.983h27.873c.57 2.658 1.124 5.327 1.425 8.244h-16.216a783.663 783.663 0 0 1 4.835 27.59zm-21.313 58.6h-8.48c-3.686-.115-4.743-2.527-6.046-5.683-4.904-11.877-.152-31.413 10.52-34.989 4.815-1.616 7.759-.22 13.652-1.14.67 3.891.104 9.005.293 13.364 3.726-.203 5.22-3.604 6.824-5.96 1.719-2.55 3.639-5.142 4.834-7.973 4.597-.304 10.623-.527 15.93-.857 5.347-.314 11.368.465 13.083-3.971H128.85c-10.163 0-20.382-.715-30.151 0-20.13 1.441-30.407 18.067-34.416 35.548-5.03-2.373-9.263-6.201-13.367-10.237-12.08-11.876-21.88-28.806-23.328-50.352V93.59c1.661-21.878 10.529-38.404 22.473-50.347 11.985-11.985 28.651-20.828 50.632-22.474h7.393c.254-.03.499-.043.736-.043 3.56-.004 5.36 3.112 6.376 5.448 4.913 11.314-.04 30.942-9.95 34.995-4.463 1.809-9.327.633-14.516 1.423-.18-4.373.374-9.477-.284-13.375-6.698 1.92-7.815 9.442-11.942 13.938-4.541.382-10.474.505-15.93.85-5.27.341-11.446-.305-12.515 3.986h48.638c5.34 0 10.86.385 15.647-.57 17.526-3.508 25.91-18.184 29.865-34.982 13.337 7.553 22.83 18.688 29.584 32.99 6.858 14.527 9.358 34.078 4.264 52.617-8.36 30.43-34.604 52.717-69.95 55.75zm9.646-80.775c4.824 3.003 9.167 12.372 4.84 18.205-4.634 6.235-18.121 3.215-28.728 3.97-2.713-11.403-4.51-23.73-6.544-35.833h11.377c1.914 8.99 3.234 18.576 5.125 27.593 4.555.05 8.694.397 9.098-3.133.418-3.65-3.141-5.63-8.25-5.123-.53-2.576-.976-5.27-1.417-7.957 5.807-.11 10.87 0 14.499 2.278zM88.74 107.528c-1.655 10.533-18.25 7.055-30.43 7.67-2.501-11.628-4.286-23.966-6.542-35.834h11.658c1.733 9.181 3.055 18.762 5.128 27.593 4.11-.048 7.828.425 8.81-2.275 1.376-3.798-2.658-6.806-8.25-5.98-.058-2.977-1.084-4.985-1.131-7.958 13.01-2.009 22.377 6.5 20.757 16.784" fill-rule="evenodd"/><path d="M250.824 115.36a14.843 14.843 0 0 1-4.712 5.233c-1.709 1.175-3.694 2.043-5.94 2.566-2.247.536-4.968.804-8.156.804h-13.557V69.997h7.182v20.112h6.082c3.844 0 7.023.477 9.532 1.408 2.514.95 4.698 2.326 6.563 4.177 1.473 1.47 2.629 3.246 3.466 5.345.83 2.089 1.242 4.306 1.242 6.646 0 2.99-.562 5.553-1.702 7.675zM667.93 89.524v4.23c-.04 3.01-.424 5.56-1.157 7.68-.773 2.234-1.886 4.13-3.332 5.667-1.456 1.552-3.146 2.686-5.078 3.416-1.928.728-4.154 1.093-6.665 1.093-5.579 0-10.102-1.961-13.558-5.857-3.453-3.905-5.185-9.153-5.185-15.755 0-6.688 1.782-11.857 5.348-15.484 3.559-3.64 8.576-5.46 15.022-5.46 1.648 0 3.005.098 4.082.291 1.076.191 2.276.466 3.609.833.939.27 1.998.633 3.185 1.108 1.189.467 2.176.863 2.972 1.181v7.421h-.4a19.59 19.59 0 0 0-2.099-1.466c-.848-.516-1.887-1.052-3.115-1.618a20.897 20.897 0 0 0-3.9-1.297 19.132 19.132 0 0 0-4.406-.511c-4.18 0-7.459 1.248-9.823 3.74-2.365 2.483-3.552 6.088-3.552 10.788zm-423.59 13.5c-.483-1.288-1.26-2.474-2.317-3.562-1.188-1.203-2.676-2.046-4.463-2.521-1.79-.473-4.137-.71-7.034-.71h-4.886v21.564h5.94c2.246 0 4.12-.143 5.633-.475 1.516-.298 2.83-.84 3.969-1.582a8.1 8.1 0 0 0 2.92-3.373c.64-1.374.957-3.002.957-4.849 0-1.73-.237-3.232-.72-4.492zm41.177 2.986c-3.29 3.717-7.665 5.6-13.122 5.6-5.444 0-9.817-1.883-13.148-5.634-3.322-3.734-4.982-8.985-4.982-15.755 0-6.574 1.612-11.781 4.84-15.606 3.228-3.828 7.651-5.744 13.29-5.744 5.457 0 9.831 1.855 13.122 5.569 3.281 3.7 4.927 8.96 4.927 15.78 0 6.787-1.646 12.057-4.927 15.79zm-4.99-27.408c-1.922-2.571-4.636-3.857-8.132-3.857-3.551 0-6.297 1.307-8.212 3.935-1.918 2.616-2.885 6.471-2.885 11.54 0 5.237.967 9.146 2.885 11.688 1.915 2.55 4.66 3.813 8.212 3.813 3.518 0 6.241-1.263 8.145-3.813 1.915-2.542 2.873-6.451 2.873-11.687 0-5.17-.965-9.041-2.885-11.62zm38.366 31.662c-.433.064-.825.125-1.176.159-.351.028-.876.06-1.58.06-1.742 0-3.526-.456-5.379-1.358-1.854-.916-4.018-2.47-6.501-4.667v6.025h-6.818V69.997h6.818v28.736c1.612 1.58 3.33 2.751 5.137 3.56 1.814.79 3.643 1.187 5.475 1.187.802 0 1.482-.017 2.05-.05a8.733 8.733 0 0 0 1.617-.269h.357zm21.186-40.758c1.316.206 2.612.49 3.893.852v6.131h-.398c-.46-.224-1.212-.502-2.244-.823a10.744 10.744 0 0 0-3.23-.48c-1.563 0-2.815.202-3.732.62-.917.428-1.58 1.066-1.993 1.907a8.04 8.04 0 0 0-.828 3.118c-.074 1.117-.116 2.7-.116 4.754v19.235h12.54v5.663h-12.54v11.629h-6.81v-11.629h-4.61v-5.663h4.61V82.39c0-4.562 1.041-7.901 3.12-10.02 2.072-2.11 4.974-3.174 8.696-3.174 1.11 0 2.322.105 3.641.31zm32.928 40.977l-11.016-29.975-11.06 29.975h-7.357l14.712-38.528-7.24-16.891h7.281l21.781 55.42zm67.277-34.113h-24.114v47.593h-7.173V69.997h31.287zm33.487 29.64c-3.294 3.717-7.663 5.6-13.121 5.6-5.44 0-9.819-1.883-13.142-5.635-3.32-3.733-4.981-8.984-4.981-15.754 0-6.574 1.612-11.781 4.834-15.606 3.224-3.829 7.655-5.744 13.289-5.744 5.458 0 9.827 1.855 13.121 5.568 3.285 3.702 4.93 8.96 4.93 15.782 0 6.786-1.645 12.056-4.93 15.789zm-4.984-27.408c-1.92-2.571-4.633-3.857-8.137-3.857-3.55 0-6.292 1.307-8.21 3.935-1.923 2.616-2.889 6.471-2.889 11.54 0 5.237.966 9.146 2.888 11.688 1.92 2.55 4.66 3.813 8.21 3.813 3.531 0 6.25-1.263 8.157-3.813 1.905-2.542 2.86-6.451 2.86-11.687 0-5.17-.964-9.041-2.879-11.62zm32.792-9.096c1.325.206 2.619.49 3.903.853v6.13h-.396c-.457-.224-1.209-.502-2.246-.823a10.773 10.773 0 0 0-3.228-.48c-1.577 0-2.812.202-3.733.62-.927.428-1.582 1.066-1.99 1.907a8.215 8.215 0 0 0-.842 3.118c-.07 1.118-.1 2.7-.1 4.754v19.235h12.535v5.663h-12.535v11.629h-6.817v-11.629h-4.606v-5.663h4.606V82.39c0-4.562 1.04-7.901 3.109-10.02 2.084-2.11 4.986-3.174 8.703-3.174 1.108 0 2.328.105 3.637.31zm40.761 26.757c0 4.982-1.124 8.78-3.366 11.408-2.252 2.608-5.367 3.939-9.354 3.939a14.13 14.13 0 0 1-6.27-1.458c-1.975-.96-3.99-2.355-6.02-4.176v4.507h-6.813V69.997h6.812v30.22c1.72 1.453 3.474 2.628 5.278 3.547 1.803.9 3.545 1.344 5.24 1.344 1.712 0 3.068-.237 4.063-.745.985-.491 1.762-1.25 2.318-2.262.503-.965.852-2.246 1.02-3.858.187-1.6.284-3.339.284-5.205V69.998h6.808zm16.535 14.22h-6.822V69.997h6.822zm.466 13.848h-7.753v-7.072h7.753zm29.181-54.968c.913.184 1.954.44 3.115.78.82.215 1.738.548 2.75.999 1.023.442 1.864.82 2.541 1.132v7.656h-.396a19.975 19.975 0 0 0-5.333-3.56 15.11 15.11 0 0 0-6.347-1.374c-3.664 0-6.534 1.342-8.6 4.01-2.068 2.671-3.1 6.398-3.1 11.168 0 4.888 1.065 8.665 3.208 11.342 2.138 2.66 4.967 4.002 8.492 4.002 1.189 0 2.428-.19 3.7-.554 1.288-.362 2.4-.772 3.342-1.264a26.681 26.681 0 0 0 2.771-1.626 31.31 31.31 0 0 0 1.867-1.412h.396v7.642c-1.625.821-3.456 1.551-5.527 2.18-2.067.62-4.212.932-6.432.932-2.73 0-5.285-.473-7.669-1.44-2.38-.948-4.373-2.305-5.961-4.062-1.598-1.77-2.87-3.94-3.82-6.534-.956-2.577-1.434-5.646-1.434-9.206 0-3.565.462-6.675 1.377-9.326.919-2.646 2.215-4.832 3.877-6.582 1.667-1.734 3.663-3.03 5.978-3.893 2.315-.852 4.873-1.278 7.652-1.278 1.449 0 2.636.084 3.553.268zm41.209 6.332h-21.674l21.28 29.918v4.87h-28.493v-5.629h20.296l-21.169-29.82v-5.037h29.76zm10.147 19.05c.15 1.723.485 3.227 1.013 4.525.53 1.28 1.315 2.466 2.326 3.527 1.035 1.027 2.19 1.836 3.457 2.372 1.272.535 2.814.807 4.623.807 1.838 0 3.372-.255 4.624-.79a7.448 7.448 0 0 0 3.058-2.33c.73-.897 1.282-2.034 1.67-3.366.385-1.33.603-2.91.654-4.745z"/></g></svg>
