<svg width="63" height="32" xmlns="http://www.w3.org/2000/svg" xmlns:xlink="http://www.w3.org/1999/xlink"><defs><path id="a" d="M63 0H0v32h63z"/></defs><g fill="none" fill-rule="evenodd"><mask id="b" fill="#fff"><use xlink:href="#a"/></mask><path d="M17.952 11.945c0-1.218-.55-1.827-1.648-1.827h-.975v3.736h1.076c1.031 0 1.546-.637 1.547-1.91zm8.051 4.853c0-.471-.017-1.085-.05-1.842-.045-.966-.46-1.448-1.244-1.448-.762 0-1.171.488-1.227 1.464-.034.593-.05 1.201-.05 1.826 0 .253.016.834.05 1.744.034.999.442 1.497 1.227 1.497.728 0 1.142-.487 1.244-1.464.033-.362.05-.954.05-1.777zm23.734-1.184a4.388 4.388 0 0 0-.066-.954c-.147-.768-.55-1.152-1.21-1.152-.763.011-1.177.493-1.245 1.448l-.017.658h2.538zM20.271 21.52h-2.017c-.022-.12-.056-.389-.1-.806l-.202-3.06c-.1-1.415-.6-2.123-1.496-2.123h-1.127v5.989h-2.017V8.44h3.127c2.353 0 3.535 1.158 3.547 3.472 0 1.382-.42 2.32-1.26 2.813.75.428 1.164 1.345 1.243 2.748.056.867.123 1.941.202 3.225.022.307.056.581.1.822zm7.766-4.722c0 .505-.017 1.026-.05 1.564-.067 1.041-.392 1.864-.975 2.467-.583.604-1.35.905-2.303.905-.953 0-1.72-.301-2.303-.905-.583-.603-.902-1.426-.958-2.467a22.321 22.321 0 0 1-.067-1.564c.01-.712.033-1.228.067-1.546.213-2.282 1.3-3.422 3.26-3.423 1.94 0 3.026 1.141 3.262 3.423.045.384.067.9.067 1.546zm7.934-1.267h-2.017c-.011-.219-.023-.41-.033-.575-.012-.966-.42-1.448-1.228-1.448-.74.011-1.154.499-1.244 1.464-.033.46-.05 1.07-.05 1.826 0 .472.011 1.065.034 1.777.1.977.52 1.464 1.26 1.464s1.149-.498 1.228-1.497c.01-.11.016-.235.016-.378h2.034c-.18 2.38-1.277 3.57-3.294 3.57-.953 0-1.72-.301-2.303-.905-.572-.603-.891-1.426-.958-2.467a16.268 16.268 0 0 1-.051-1.564c0-.712.017-1.228.05-1.546.213-2.282 1.3-3.422 3.262-3.423 2.118 0 3.216 1.234 3.294 3.702zm7.816-.131v6.12h-2.05v-6.038c0-.702-.08-1.168-.236-1.399-.224-.34-.571-.498-1.042-.476-.785.033-1.177.378-1.177 1.036v6.877H37.25V8.341h2.033v4.031c.46-.361 1.031-.543 1.715-.543.65-.01 1.193.138 1.63.445.516.373.852.834 1.009 1.382.1.35.151.932.151 1.744zm7.951 1.876h-4.556c0 .373.017.795.051 1.266.068.999.475 1.497 1.227 1.497.706 0 1.12-.482 1.244-1.448.01-.12.016-.23.016-.329h1.967c-.066 1.086-.392 1.937-.974 2.55-.573.615-1.323.922-2.253.922-.93 0-1.687-.301-2.269-.905-.571-.614-.89-1.436-.958-2.467a28.058 28.058 0 0 1-.05-1.564c0-.669.021-1.184.066-1.546.224-2.282 1.294-3.422 3.211-3.423.975 0 1.754.352 2.336 1.053.516.626.808 1.415.875 2.37.033.34.056 1.015.067 2.024zm9.093-1.136L48.124 1.612H14.926L2.185 16.091l12.741 14.397h33.198L60.831 16.14zM63 16.107L48.931 32H14.12L0 16.041 14.12 0H48.93L63 16.107z" fill="#1279BF" mask="url(#b)"/></g></svg>
