<svg xmlns="http://www.w3.org/2000/svg" height="148" width="340"><defs><clipPath id="a"><path d="M0 111h255V0H0z"/></clipPath></defs><path d="M331.9733 114.6667h-40.748v-5.5814h40.748zM331.9733 92.8813h-40.748v-5.58h40.748z" fill="#ef4136"/><g clip-path="url(#a)" transform="matrix(1.33333 0 0 -1.33333 0 148)"><path d="M33.562 88.7651c0 3.618-2.715 5.936-6.445 5.936h-9.104v-11.986h9.104c3.73 0 6.445 2.374 6.445 6.05m-.622-25.951l-8.312 14.077h-6.615v-14.077h-6.615v37.71h16.567c7.461 0 12.381-4.806 12.381-11.816 0-6.672-4.41-10.346-8.989-11.082l9.273-14.812zM54.2554 62.814v31.887h-11.42v5.823h29.457v-5.823h-11.424V62.814zM99.9956 73.895c0 2.828-1.979 5.259-5.709 5.259h-10.912V68.637h10.912c3.561 0 5.709 1.979 5.709 5.258m-.734 15.945c0 2.77-1.922 4.861-5.258 4.861h-10.629v-9.724h10.629c3.336 0 5.258 1.979 5.258 4.863m-22.502-27.026v37.71h18.545c6.953 0 10.742-4.296 10.742-9.611 0-4.691-3.053-7.914-6.559-8.65 4.071-.623 7.294-4.637 7.294-9.216 0-5.881-3.845-10.233-10.97-10.233z" fill="#ef4136"/><path d="M38.1401 7.814v17.301h-22.05V7.814h-4.692v37.71h4.692V29.298h22.05v16.226h4.693V7.814zM81.6187 26.6401c0 8.82-5.482 15.322-13.906 15.322-8.483 0-13.854-6.502-13.854-15.322 0-8.763 5.371-15.321 13.854-15.321 8.424 0 13.906 6.558 13.906 15.321m-32.621 0c0 11.139 7.575 19.506 18.715 19.506 11.136 0 18.769-8.367 18.769-19.506 0-11.137-7.633-19.506-18.769-19.506-11.14 0-18.715 8.369-18.715 19.506M92.6479 22.4565v23.067h4.748v-22.952c0-6.899 3.676-11.252 10.631-11.252 6.954 0 10.683 4.353 10.683 11.252v22.952h4.751v-23.009c0-9.386-5.201-15.38-15.434-15.38-10.178 0-15.379 6.05-15.379 15.322M128.8882 13.1284l2.828 3.619c2.432-2.827 6.502-5.428 11.817-5.428 6.728 0 8.876 3.618 8.876 6.558 0 9.726-22.334 4.298-22.334 17.754 0 6.22 5.542 10.515 13.006 10.515 5.709 0 10.176-1.978 13.342-5.313l-2.827-3.45c-2.827 3.166-6.784 4.522-10.91 4.522-4.468 0-7.747-2.431-7.747-5.993 0-8.481 22.333-3.618 22.333-17.696 0-5.428-3.732-11.082-13.909-11.082-6.501 0-11.364 2.489-14.475 5.994M163.1528 7.814v37.71h24.706V41.34h-20.014V29.186h20.014V25h-20.014V11.997h20.014V7.814z" fill="#432945"/></g></svg>
