<svg xmlns="http://www.w3.org/2000/svg" height="47.79" width="133.04"><path d="M106.4 30.6l1.6-4.27c2.52 1.65 4.55 2.48 6.1 2.48 2.78 0 4.18-1.18 4.18-3.53 0-1.68-1.35-3.13-4.05-4.33a32.4 32.4 0 0 1-4.2-2.17 9.16 9.16 0 0 1-1.88-1.67 6.73 6.73 0 0 1-1.19-2c-.26-.7-.39-1.46-.39-2.28 0-2.1.76-3.73 2.28-4.9 1.53-1.18 3.52-1.76 5.98-1.76 1.86 0 4.2.58 7.02 1.75l-1.28 4.2c-1.8-1.43-3.6-2.15-5.4-2.15-1.08 0-2 .26-2.73.77-.74.5-1.1 1.15-1.1 1.93 0 1.63.92 2.87 2.78 3.71l3.23 1.47c1.98.91 3.43 1.94 4.33 3.1a6.84 6.84 0 0 1 1.36 4.35 6.5 6.5 0 0 1-2.4 5.37c-1.6 1.3-3.82 1.95-6.67 1.95-2.68 0-5.2-.67-7.57-2.01M102.96 19.83H84.58c0 2.99.82 5.28 2.45 6.88a7.68 7.68 0 0 0 5.57 2.1c2.59 0 4.75-.76 6.48-2.26l1.9 3.25c-.7.7-1.77 1.3-3.22 1.82-1.8.66-3.81 1-6.04 1-3.2 0-5.92-1.1-8.17-3.27-2.48-2.4-3.73-5.61-3.73-9.66 0-4.21 1.28-7.58 3.83-10.12a11.1 11.1 0 0 1 8.12-3.4c3.63 0 6.48 1.02 8.54 3.07 2 1.97 3 4.57 3 7.83 0 1-.12 1.92-.35 2.76zM91.99 9.97c-2.03 0-3.72.66-5.08 1.96a7.07 7.07 0 0 0-2.21 4.62h14.11a6.4 6.4 0 0 0-1.71-4.57c-1.25-1.34-2.96-2-5.11-2M45.8 29.21c-1.8 2.27-4.58 3.4-8.3 3.4-2 0-3.74-.72-5.2-2.17a7.34 7.34 0 0 1-2.2-5.42c0-2.58 1.13-4.77 3.39-6.56 2.26-1.78 5.14-2.68 8.65-2.68.95 0 2.03.21 3.23.62 0-4.12-1.83-6.18-5.51-6.18-2.83 0-5 .75-6.53 2.28l-1.9-3.79c.86-.7 2.04-1.29 3.55-1.8 1.52-.5 2.97-.74 4.35-.74 3.7 0 6.39.84 8.06 2.52 1.67 1.68 2.51 4.35 2.51 8.03v9.14c0 2.23.67 3.73 2 4.47v2.26c-1.85 0-3.22-.27-4.13-.79a4.4 4.4 0 0 1-1.96-2.59zm-.43-9.6a16.43 16.43 0 0 0-3-.47c-2.28 0-4.14.6-5.58 1.76a5.24 5.24 0 0 0-2.17 4.17c0 2.65 1.56 3.97 4.69 3.97 2.28 0 4.3-1.09 6.06-3.26v-6.16M10 30.6l1.6-4.27c2.52 1.65 4.55 2.48 6.1 2.48 2.78 0 4.18-1.18 4.18-3.53 0-1.68-1.35-3.13-4.05-4.33a32.35 32.35 0 0 1-4.2-2.17 9.1 9.1 0 0 1-1.88-1.67 6.73 6.73 0 0 1-1.19-2 6.53 6.53 0 0 1-.39-2.28c0-2.1.76-3.73 2.28-4.9 1.53-1.18 3.52-1.76 5.98-1.76 1.86 0 4.2.58 7.02 1.75l-1.28 4.2c-1.8-1.43-3.6-2.15-5.4-2.15-1.08 0-2 .26-2.73.77-.74.5-1.1 1.15-1.1 1.93 0 1.63.92 2.87 2.78 3.71l3.23 1.47c1.98.91 3.43 1.94 4.33 3.1a6.83 6.83 0 0 1 1.36 4.35 6.5 6.5 0 0 1-2.4 5.37c-1.6 1.3-3.82 1.95-6.67 1.95-2.68 0-5.2-.67-7.57-2.01" fill="#918f90"/><path d="M72.42 34.02c-.2-1.78-1.69-2.67-4.46-2.67-.5 0-1.43.13-2.76.38a18.2 18.2 0 0 1-3.11.38c-3.63 0-5.43-1.36-5.43-4.1 0-.83.42-1.6 1.27-2.28a7.98 7.98 0 0 1 3.15-1.48c-3.58-1.68-5.38-4.6-5.38-8.75 0-2.67.94-4.89 2.79-6.67a9.57 9.57 0 0 1 6.88-2.66c2.5 0 4.47.51 5.87 1.54L73.51 5l2.95 2.79-2.71 2.04c1.16 1.5 1.74 3.48 1.74 5.9 0 2.58-.8 4.73-2.4 6.48a9.46 9.46 0 0 1-6.32 3l-3.73.38c-.45.05-1.04.22-1.79.51-.75.3-1.12.68-1.12 1.15 0 .65.78.99 2.33.99.68 0 1.75-.13 3.2-.38a21.6 21.6 0 0 1 3.21-.36c2.5 0 4.46.6 5.87 1.8a6.1 6.1 0 0 1 2.1 4.72zM65.68 9.8c-1.57 0-2.85.55-3.84 1.66a5.87 5.87 0 0 0-1.5 4.05c0 1.78.49 3.25 1.45 4.42a4.79 4.79 0 0 0 3.89 1.75c1.6 0 2.85-.57 3.76-1.7a6.93 6.93 0 0 0 1.36-4.47c0-1.58-.49-2.93-1.47-4.05a4.66 4.66 0 0 0-3.65-1.66" fill="#5aa1c4"/><path d="M72.42 38.41h4.37v4.38h-4.37v-4.38" fill="#5aa1c4" fill-rule="evenodd"/></svg>
