<svg xmlns="http://www.w3.org/2000/svg" height="94.49" width="377.95"><defs><clipPath id="a"><path d="M0 70.87h283.46V0H0z"/></clipPath></defs><path d="M0 94.5h377.95V0H0z" fill="#fff"/><path d="M51.37 58.7H42.2V29.36h9.17z" fill="#2d7dbf"/><path d="M115.58 58.7h-9.17V29.36h9.17z" fill="#5eb130"/><path d="M77.06 58.7h-9.18V29.36h9.18z" fill="#9e579e"/><path d="M89.9 64.21h-9.17V34.86h9.17z" fill="#ec66a2"/><path d="M102.74 58.7h-9.17V29.36h9.17z" fill="#bb6fab"/><g clip-path="url(#a)" transform="matrix(1.33333 0 0 -1.33333 0 94.5)"><path d="M48.16 45.41a3.44 3.44 0 1 0-6.88 0 3.44 3.44 0 0 0 6.88 0" fill="#76c5e0"/><path d="M28.9 30.28a3.44 3.44 0 1 0-6.88 0 3.44 3.44 0 0 0 6.88 0" fill="#394992"/><path d="M96.32 30.28a3.44 3.44 0 1 0-6.88 0 3.44 3.44 0 0 0 6.88 0" fill="#bccf00"/><path d="M104.12 33.64l.83.99a5.65 5.65 0 0 1 4.07-1.68c1.59 0 2.64.85 2.64 2.02V35c0 1.1-.6 1.73-3.08 2.25-2.73.6-3.98 1.48-3.98 3.42v.04c0 1.86 1.64 3.23 3.9 3.23a6.2 6.2 0 0 0 4.16-1.45l-.78-1.04c-1.1.9-2.2 1.29-3.42 1.29-1.54 0-2.52-.85-2.52-1.91v-.04c0-1.12.6-1.74 3.21-2.3 2.64-.58 3.86-1.54 3.86-3.35v-.04c0-2.03-1.69-3.35-4.04-3.35-1.88 0-3.42.62-4.85 1.9M127.32 37.81v.04c0 2.69-1.96 4.89-4.67 4.89S118 40.57 118 37.88v-.03c0-2.7 1.96-4.9 4.67-4.9s4.64 2.17 4.64 4.86m-10.7 0v.04a6 6 0 0 0 6.06 6.13c3.61 0 6.03-2.83 6.03-6.1v-.03a6 6 0 0 0-6.06-6.14 5.95 5.95 0 0 0-6.03 6.1M132.94 43.77h8.52v-1.23h-7.18V38.3h6.42v-1.22h-6.42v-5.16h-1.34zM149.09 42.54h-3.98v1.23h9.31v-1.23h-3.98V31.92h-1.35zM157.41 43.77h1.46l3.39-9.87 3.25 9.9h1.1l3.25-9.9 3.4 9.87h1.4l-4.24-11.94h-1.13l-3.25 9.62-3.27-9.62h-1.12zM184.65 36.25l-2.7 6.05-2.7-6.05zm-3.3 7.6h1.25l5.4-11.93h-1.44l-1.39 3.13h-6.45l-1.4-3.13h-1.38zM196.22 37.73c1.78 0 3.05.91 3.05 2.44v.03c0 1.46-1.12 2.34-3.03 2.34h-3.66v-4.81zm-4.98 6.04h5.1c1.46 0 2.63-.44 3.37-1.18.58-.58.92-1.4.92-2.34v-.03c0-1.97-1.36-3.12-3.22-3.46l3.64-4.84h-1.64l-3.44 4.6h-3.39v-4.6h-1.34zM205.88 43.77h8.57v-1.22h-7.23v-4.04h6.47v-1.22h-6.47v-4.15h7.32v-1.22h-8.66zM219.56 43.77h2.81l3.12-5.01 3.12 5.01h2.8V31.92h-2.58v7.74l-3.34-5.07h-.07l-3.3 5.02v-7.7h-2.56zM235.78 43.77h2.61V31.92h-2.6zM254.15 43.77h2.6V34.3h4.32v-2.37h-6.92zM243.25 43.77h2.61V34.3h4.32v-2.37h-6.93z" fill="#1d1d1b"/></g></svg>
