<svg width="323" height="119" viewBox="0 0 323 119" fill="none" xmlns="http://www.w3.org/2000/svg">
<path d="M0 114.88V109.383C0.743212 109.977 1.56075 110.497 2.37828 110.869C3.34445 111.314 4.31063 111.686 5.27681 111.983C6.3173 112.28 7.3578 112.577 8.3983 112.726C9.36447 112.874 10.3306 112.949 11.2968 112.949C14.344 112.949 16.5736 112.429 18.0601 111.389C19.5465 110.349 20.364 108.566 20.2897 106.783C20.2897 105.817 20.0667 104.851 19.5465 103.96C19.0262 103.143 18.283 102.4 17.4655 101.806C16.4993 101.063 15.4588 100.469 14.344 99.9486L10.4793 98.0171C9.06719 97.3486 7.72941 96.68 6.39162 95.8629C5.20249 95.1943 4.08767 94.3771 3.04717 93.4857C2.15532 92.6686 1.33778 91.6286 0.817533 90.5143C-0.371606 87.6914 -0.222964 84.5714 1.26346 81.8971C2.15532 80.56 3.27013 79.4457 4.60791 78.5543C6.02002 77.6629 7.65509 76.9943 9.29015 76.6229C11.0739 76.1771 12.8576 75.9543 14.6413 75.9543C18.8033 75.9543 21.7761 76.4 23.7085 77.3657V82.5657C21.2559 80.9314 18.0601 80.1143 14.121 80.1143C13.0805 80.1143 11.9657 80.1886 10.9252 80.4114C9.88472 80.6343 8.91855 80.9314 8.02669 81.4514C7.20916 81.8971 6.54027 82.5657 5.9457 83.3086C5.42545 84.1257 5.12816 85.0914 5.12816 86.0571C5.12816 86.9486 5.27681 87.9143 5.72273 88.7314C6.16866 89.5486 6.76323 90.2171 7.50644 90.7371C8.3983 91.4057 9.36447 92 10.3306 92.52C11.4455 93.1143 12.7832 93.7086 14.1954 94.3771C15.6075 95.0457 17.0939 95.7886 18.506 96.6057C19.7694 97.3486 20.9586 98.24 22.0734 99.2057C23.0396 100.097 23.8571 101.137 24.526 102.326C25.1206 103.589 25.4179 104.926 25.4179 106.263C25.4922 107.971 25.0462 109.754 24.2287 111.24C23.4112 112.577 22.2964 113.766 20.9586 114.583C19.4722 115.474 17.9114 116.069 16.202 116.44C14.344 116.811 12.486 117.034 10.5536 117.034C9.88472 117.034 9.06719 116.96 8.10101 116.886C7.13484 116.811 6.09434 116.663 5.12816 116.44C4.16199 116.217 0.966176 115.177 0 114.88Z" fill="#222222"/>
<path d="M42.5117 117.183C38.0525 117.183 34.485 115.846 31.8838 113.171C29.2825 110.497 27.9448 107.006 27.9448 102.623C27.9448 97.8686 29.3569 94.1543 32.1068 91.4057C34.8566 88.6571 38.5727 87.3943 43.2549 87.3943C47.7142 87.3943 51.2073 88.7314 53.7342 91.3314C56.2612 93.9314 57.5246 97.5714 57.5246 102.177C57.5246 106.783 56.1868 110.349 53.4369 113.097C50.6871 115.846 47.0453 117.183 42.5117 117.183ZM42.8833 91.2571C40.1334 91.1086 37.4579 92.2229 35.5255 94.2286C33.7418 96.2343 32.85 98.9829 32.85 102.474C32.85 105.817 33.7418 108.491 35.5999 110.423C37.4579 112.429 40.1334 113.469 42.8833 113.32C46.0048 113.32 48.3831 112.354 50.0182 110.423C51.6532 108.491 52.5451 105.817 52.5451 102.326C52.5451 98.8343 51.7276 96.0114 50.0182 94.08C48.3088 92.1486 45.9305 91.2571 42.8833 91.2571Z" fill="#222222"/>
<path d="M76.7738 78.4057C75.8076 77.8857 74.6928 77.6629 73.578 77.6629C70.2335 77.6629 68.5242 79.6686 68.5242 83.68V88.0629H75.5847V91.9257H68.5242V116.44H63.7676V91.9257H58.6394V88.0629H63.7676V83.3829C63.7676 80.4114 64.6595 78.0343 66.5175 76.3257C68.3755 74.6171 70.8281 73.6514 73.355 73.7257C74.5442 73.6514 75.7333 73.8743 76.8481 74.2457L76.7738 78.4057C76.7738 78.4057 76.8481 78.4057 76.7738 78.4057Z" fill="#222222"/>
<path d="M91.4151 116.143C90.003 116.811 88.5166 117.109 86.9558 117.034C81.679 117.034 79.0778 114.286 79.0778 108.714V91.9258H73.8753V88.063H79.0034V81.1544L83.8343 79.6687V88.063H94.9825L92.0096 91.9258H83.8343V107.897C83.8343 109.829 84.2059 111.166 84.8748 111.983C85.5437 112.8 86.6585 113.171 88.2936 113.171C89.4084 113.171 90.5232 112.874 91.4151 112.206V116.143Z" fill="#222222"/>
<path d="M132.515 88.063L123.522 116.514H118.542L112.374 96.1601C112.151 95.2687 112.002 94.3773 111.928 93.4858H111.853C111.779 94.3773 111.556 95.2687 111.259 96.0858L104.57 116.514H99.7391L90.6719 88.063H95.7257L101.894 109.457C102.117 110.274 102.266 111.166 102.34 111.983H102.563C102.638 111.091 102.786 110.2 103.084 109.383L109.995 88.063H114.38L120.623 109.457C120.846 110.274 120.995 111.166 121.069 111.983H121.292C121.367 111.091 121.515 110.274 121.812 109.457L127.907 88.063H132.515Z" fill="#222222"/>
<path d="M156.372 116.514H151.541V112.057H151.392C149.534 115.326 145.967 117.331 142.176 117.183C139.204 117.183 136.9 116.44 135.19 114.954C133.481 113.469 132.589 111.24 132.663 109.011C132.663 103.737 135.934 100.617 142.548 99.7258L151.541 98.5373C151.541 93.7087 149.46 91.2573 145.372 91.2573C141.805 91.2573 138.312 92.4458 135.562 94.7487V90.0687C138.683 88.2858 142.177 87.3201 145.744 87.3944C152.804 87.3944 156.298 90.9601 156.298 98.0173L156.372 116.514ZM151.541 102.103L144.332 103.069C142.548 103.217 140.839 103.737 139.278 104.629C138.163 105.371 137.569 106.709 137.569 108.64C137.569 109.977 138.089 111.24 139.129 112.057C140.318 112.949 141.805 113.469 143.291 113.394C145.521 113.469 147.602 112.577 149.163 111.017C150.723 109.383 151.541 107.229 151.467 105L151.541 102.103Z" fill="#222222"/>
<path d="M177.925 92.6686C176.81 92 175.547 91.7029 174.283 91.7771C172.202 91.7771 170.27 92.8171 169.155 94.5257C167.743 96.3829 167.074 98.8343 167.074 102.029V116.514H162.243V88.0629H167.074V93.9314H167.223C167.817 92.0743 168.858 90.5143 170.344 89.2514C171.682 88.1371 173.391 87.5429 175.101 87.5429C176.067 87.4686 177.033 87.6171 177.999 87.9143L177.925 92.6686Z" fill="#222222"/>
<path d="M204.086 103.44H182.83C182.905 106.634 183.796 109.011 185.506 110.794C187.215 112.577 189.593 113.394 192.566 113.394C195.911 113.394 199.181 112.28 201.856 110.274V114.583C199.255 116.366 195.762 117.331 191.377 117.331C187.141 117.331 183.796 116.069 181.418 113.469C179.04 110.869 177.776 107.229 177.776 102.549C177.776 98.0913 179.114 94.5256 181.715 91.7027C184.242 88.9541 187.884 87.4684 191.6 87.5427C195.539 87.5427 198.586 88.7313 200.742 91.1827C202.897 93.6341 203.937 96.9027 203.937 101.211V103.44H204.086ZM199.107 99.577C199.107 96.977 198.438 94.897 197.1 93.4113C195.688 91.9256 193.681 91.1084 191.6 91.1827C189.445 91.1084 187.364 91.9999 185.803 93.4856C184.168 95.1199 183.127 97.1999 182.905 99.5027L199.107 99.577Z" fill="#222222"/>
<path d="M214.863 102.326V117.406H209.883V77.5886H221.403C225.862 77.5886 229.355 78.6286 231.882 80.7086C234.335 82.7886 235.598 85.6857 235.598 89.4743C235.673 93.04 234.186 96.4571 231.511 98.76C228.761 101.137 225.045 102.4 220.362 102.4H214.863V102.326ZM214.863 81.7486V98.0914H219.991C223.41 98.0914 226.011 97.3486 227.795 95.8628C229.653 94.3028 230.619 92 230.47 89.6229C230.47 84.3486 227.2 81.7486 220.585 81.7486H214.863Z" fill="#54AF32"/>
<path d="M244.442 117.331H239.612V75.2856H244.442V117.331Z" fill="#54AF32"/>
<path d="M272.387 117.331H267.556V112.874H267.408C265.55 116.143 261.982 118.149 258.192 118C255.219 118 252.915 117.257 251.206 115.771C249.496 114.286 248.604 112.057 248.679 109.829C248.679 104.554 251.949 101.434 258.563 100.543L267.556 99.3544C267.556 94.5258 265.475 92.0744 261.388 92.0744C257.82 92.0744 254.327 93.263 251.577 95.5658V90.8858C254.699 89.103 258.192 88.1373 261.759 88.2115C268.82 88.2115 272.313 91.7773 272.313 98.8344L272.387 117.331ZM267.631 102.994L260.422 103.96C258.638 104.109 256.928 104.629 255.368 105.52C254.253 106.263 253.658 107.6 253.658 109.531C253.658 110.869 254.179 112.131 255.219 112.949C256.408 113.84 257.895 114.36 259.381 114.286C261.611 114.36 263.766 113.469 265.327 111.909C266.887 110.274 267.705 108.12 267.631 105.891V102.994Z" fill="#54AF32"/>
<path d="M303.231 117.331H298.4V101.137C298.4 95.1201 296.096 92.0744 291.413 92.0744C289.11 92.0001 286.954 92.9658 285.468 94.6744C283.907 96.4572 283.015 98.7601 283.089 101.137V117.331H278.259V88.9544H283.089V93.7087H283.238C285.245 90.2172 289.11 88.1372 293.123 88.2858C296.393 88.2858 298.92 89.2515 300.629 91.3315C302.339 93.4115 303.231 96.2344 303.231 100.023V117.331Z" fill="#54AF32"/>
<path d="M323 117.034C321.588 117.703 320.101 118 318.541 117.926C313.264 117.926 310.663 115.177 310.663 109.606V92.8172H305.46V88.9544H310.588V82.0458L315.419 80.5601V88.9544H323V92.8172H315.419V108.863C315.419 110.794 315.791 112.131 316.46 112.949C317.129 113.766 318.243 114.137 319.879 114.137C320.993 114.137 322.108 113.84 323 113.171V117.034Z" fill="#54AF32"/>
<path d="M192.023 67.7943H127.544C115.599 67.7943 105.88 58.0768 105.88 46.1291C105.88 34.3496 115.33 24.7329 127.047 24.4672C131.22 9.9934 144.403 0 159.567 0C172.137 0 183.457 6.81475 189.393 17.8643C190.335 17.7601 191.189 17.7096 192.019 17.7096C205.828 17.7096 217.06 28.9408 217.06 42.7452C217.067 56.5597 205.831 67.7943 192.023 67.7943ZM127.544 27.8275C117.452 27.8275 109.243 36.0381 109.243 46.1291C109.243 56.22 117.452 64.4273 127.544 64.4273H192.023C203.978 64.4273 213.701 54.6996 213.701 42.7452C213.701 30.7942 203.975 21.0733 192.023 21.0733C191.021 21.0733 189.961 21.1607 188.69 21.3524C187.97 21.4601 187.257 21.0867 186.935 20.4342C181.742 9.9093 171.253 3.36701 159.567 3.36701C145.496 3.36701 133.322 12.9164 129.959 26.5896C129.771 27.3565 129.034 27.8577 128.284 27.8678L127.544 27.8275Z" fill="#222222"/>
<path fill-rule="evenodd" clip-rule="evenodd" d="M145.891 15.6268C146.953 14.2427 148.227 13.0725 149.643 12.1417L148.97 9.56317C148.907 9.33073 148.926 9.08376 149.023 8.86331C149.072 8.75345 149.142 8.65452 149.23 8.57237C149.318 8.49022 149.422 8.4265 149.534 8.38497L149.535 8.3836L153.693 6.82677C153.806 6.78392 153.926 6.76408 154.047 6.7684C154.167 6.77273 154.285 6.80113 154.395 6.85194C154.613 6.95455 154.789 7.12862 154.894 7.34521L156.08 9.7316C157.759 9.50339 159.488 9.54948 161.199 9.89534L162.539 7.60882C162.659 7.40026 162.847 7.23909 163.071 7.15205V7.15102C163.184 7.10785 163.304 7.08765 163.424 7.09163C163.545 7.0956 163.663 7.12365 163.773 7.17414L167.814 9.01358C167.924 9.06316 168.022 9.1342 168.104 9.22252C168.186 9.31084 168.25 9.41466 168.291 9.52787L168.292 9.52748C168.374 9.75415 168.375 10.0019 168.296 10.2296L167.462 12.7118C168.871 13.773 170.063 15.0508 171.011 16.4752L173.516 15.8214C173.748 15.7585 173.995 15.7771 174.216 15.874L174.215 15.8753C174.325 15.9242 174.424 15.9945 174.507 16.0823C174.589 16.1701 174.653 16.2735 174.695 16.3864L176.252 20.5446L176.251 20.546C176.294 20.6584 176.314 20.7782 176.309 20.8984C176.305 21.0185 176.276 21.1365 176.225 21.2455L176.227 21.2461C176.124 21.464 175.95 21.6402 175.734 21.7454L173.455 22.8776C173.701 24.5959 173.66 26.3679 173.304 28.1204L175.47 29.39C175.679 29.51 175.84 29.6979 175.928 29.9224L175.927 29.9228C175.97 30.0352 175.99 30.1552 175.987 30.2756C175.983 30.396 175.955 30.5145 175.905 30.624L174.065 34.6651C174.016 34.7749 173.945 34.8737 173.856 34.9556C173.768 35.0376 173.664 35.101 173.551 35.1423V35.1433C173.325 35.2249 173.077 35.2264 172.849 35.1477L170.499 34.3577C169.413 35.8021 168.1 37.0186 166.634 37.9789L167.257 40.367C167.32 40.5995 167.302 40.8464 167.205 41.0669C167.156 41.177 167.085 41.2762 166.997 41.3586C166.909 41.4409 166.805 41.5049 166.692 41.5466L162.534 43.1034C162.422 43.146 162.301 43.1656 162.181 43.161C162.061 43.1565 161.942 43.1279 161.833 43.0769V43.0783C161.615 42.9757 161.439 42.8016 161.333 42.585L160.235 40.3746C158.499 40.6128 156.71 40.5579 154.943 40.1817L153.689 42.3213C153.569 42.5296 153.381 42.6906 153.157 42.7778L153.156 42.7781L153.155 42.7785C153.043 42.8216 152.923 42.8418 152.803 42.8379C152.682 42.834 152.564 42.8062 152.455 42.756L148.414 40.9166C148.304 40.8672 148.205 40.7963 148.123 40.708C148.041 40.6197 147.977 40.5159 147.936 40.4027C147.854 40.176 147.852 39.9282 147.931 39.7006L148.731 37.3199C147.312 36.2323 146.117 34.9233 145.174 33.4661L142.712 34.1088C142.479 34.1716 142.232 34.1531 142.012 34.0562C141.902 34.0071 141.803 33.9366 141.721 33.8487C141.639 33.7607 141.575 33.6573 141.534 33.5443L141.532 33.5437L139.975 29.3855L139.976 29.3842C139.933 29.2717 139.914 29.1519 139.918 29.0318C139.923 28.9116 139.951 28.7936 140.002 28.6846L140.001 28.684C140.103 28.4662 140.277 28.29 140.494 28.1848L142.813 27.0325C142.592 25.3358 142.652 23.5898 143.017 21.8644L140.757 20.5402C140.549 20.4202 140.387 20.2323 140.3 20.0078C140.256 19.8952 140.236 19.7751 140.24 19.6546C140.244 19.5341 140.272 19.4157 140.323 19.3062L142.162 15.2651C142.212 15.1554 142.283 15.0568 142.371 14.9749C142.459 14.893 142.563 14.8296 142.676 14.7883L142.677 14.7879L142.678 14.7875C142.904 14.7061 143.151 14.7044 143.378 14.7825L145.891 15.6268ZM154.267 33.5798C158.976 35.7232 164.53 33.6435 166.674 28.9347C168.817 24.2259 166.737 18.6711 162.029 16.5278C157.32 14.3844 151.765 16.4641 149.622 21.1729C147.478 25.8817 149.558 31.4365 154.267 33.5798Z" fill="#54AF32"/>
<path fill-rule="evenodd" clip-rule="evenodd" d="M117.794 39.07C118.586 37.8439 119.569 36.782 120.686 35.9099L119.95 33.8059C119.882 33.6164 119.88 33.4093 119.946 33.2189C119.98 33.124 120.032 33.0368 120.099 32.9623C120.167 32.8878 120.249 32.8277 120.34 32.7854L120.341 32.7842L123.702 31.2041C123.793 31.1607 123.891 31.136 123.992 31.1314C124.093 31.1269 124.194 31.1425 124.288 31.1774C124.477 31.2482 124.635 31.3813 124.738 31.5548L125.889 33.4638C127.273 33.1595 128.717 33.0806 130.167 33.2528L131.129 31.2555C131.215 31.0735 131.361 30.9264 131.542 30.8386L131.541 30.8378C131.632 30.7941 131.731 30.7691 131.832 30.7643C131.933 30.7594 132.033 30.7747 132.128 30.8094L135.622 32.0685C135.717 32.1024 135.804 32.1549 135.878 32.223C135.952 32.291 136.012 32.3733 136.054 32.4649L136.055 32.4645C136.139 32.6479 136.157 32.8543 136.107 33.0495L135.58 35.1755C136.826 35.9645 137.906 36.9488 138.793 38.0719L140.837 37.3568C141.027 37.2886 141.234 37.2873 141.424 37.3531V37.3543C141.519 37.3875 141.607 37.4394 141.681 37.507C141.756 37.5746 141.816 37.6564 141.859 37.7478L143.439 41.1085V41.1097C143.482 41.2005 143.506 41.2991 143.511 41.3996C143.515 41.5 143.5 41.6004 143.465 41.6947L143.466 41.6951C143.395 41.8837 143.262 42.0424 143.088 42.1448L141.266 43.2434C141.588 44.6592 141.673 46.1392 141.495 47.6243L143.388 48.5357C143.57 48.6215 143.717 48.7671 143.805 48.9484V48.9488C143.848 49.0396 143.873 49.1382 143.878 49.2389C143.883 49.3395 143.868 49.4401 143.834 49.5348L142.575 53.0286C142.541 53.1235 142.488 53.2107 142.42 53.285C142.352 53.3593 142.27 53.4193 142.178 53.4613L142.179 53.4622C141.995 53.5456 141.789 53.5637 141.594 53.5135L139.581 53.0145C138.773 54.2924 137.761 55.3956 136.605 56.2957L137.286 58.2442C137.355 58.4337 137.356 58.6409 137.29 58.8313C137.257 58.9264 137.205 59.0139 137.137 59.0885C137.069 59.1632 136.987 59.2235 136.895 59.2659L133.535 60.8461C133.444 60.8893 133.345 60.9137 133.244 60.9181C133.144 60.9225 133.043 60.9067 132.949 60.8716L132.948 60.8728C132.76 60.802 132.601 60.6688 132.498 60.4954L131.433 58.7273C130.002 59.0438 128.507 59.1195 127.008 58.9259L126.108 60.7946C126.022 60.9764 125.876 61.1233 125.695 61.2112L125.694 61.2116V61.212C125.603 61.2555 125.504 61.2805 125.404 61.2854C125.303 61.2903 125.203 61.2752 125.108 61.2408L121.615 59.9817C121.52 59.9479 121.432 59.8955 121.358 59.8275C121.283 59.7595 121.223 59.6773 121.181 59.5857C121.098 59.4023 121.08 59.1958 121.13 59.0007L121.635 56.9618C120.378 56.1515 119.293 55.1413 118.408 53.9904L116.399 54.6934C116.209 54.7616 116.002 54.7629 115.812 54.6971C115.717 54.6636 115.63 54.6115 115.555 54.5438C115.481 54.4761 115.421 54.3941 115.378 54.3028L115.377 54.3024L113.797 50.9416L113.798 50.9404C113.754 50.8496 113.73 50.751 113.725 50.6505C113.721 50.5501 113.737 50.4498 113.772 50.3555L113.771 50.355C113.841 50.1665 113.974 50.0078 114.148 49.9054L116.003 48.7873C115.704 47.3879 115.635 45.9283 115.822 44.465L113.849 43.5145C113.666 43.4287 113.519 43.283 113.431 43.1018C113.387 43.0109 113.362 42.9121 113.357 42.8114C113.352 42.7107 113.368 42.61 113.402 42.5153L114.662 39.0215C114.695 38.9268 114.748 38.8397 114.816 38.7655C114.884 38.6912 114.966 38.6313 115.057 38.5892L115.058 38.5888L115.059 38.5884C115.242 38.5052 115.448 38.487 115.643 38.5367L117.794 39.07ZM125.996 53.4685C130.067 54.9356 134.557 52.8248 136.024 48.7538C137.491 44.6827 135.38 40.1932 131.309 38.726C127.238 37.2589 122.748 39.3697 121.281 43.4407C119.814 47.5118 121.925 52.0013 125.996 53.4685Z" fill="#54AF32"/>
<path fill-rule="evenodd" clip-rule="evenodd" d="M179.14 48.6285C178.469 47.1542 178.064 45.6003 177.918 44.0338L175.512 43.462C175.294 43.4123 175.099 43.2895 174.961 43.114C174.892 43.0259 174.842 42.9249 174.813 42.8169C174.784 42.7092 174.777 42.5966 174.792 42.4859L174.791 42.4848L175.327 38.3978C175.341 38.2868 175.377 38.1796 175.433 38.0828C175.489 37.9859 175.564 37.9012 175.653 37.8337C175.832 37.6999 176.051 37.6313 176.275 37.6394L178.747 37.7071C179.292 36.2311 180.083 34.8338 181.112 33.5823L179.822 31.4876C179.703 31.2982 179.653 31.0739 179.68 30.8519L179.679 30.8518C179.692 30.7407 179.728 30.6335 179.784 30.5364C179.839 30.4394 179.914 30.3545 180.003 30.2867L183.272 27.7756C183.36 27.7072 183.462 27.6571 183.57 27.6284C183.678 27.5998 183.791 27.593 183.901 27.6085L183.902 27.6075C184.123 27.6394 184.327 27.7461 184.479 27.9098L186.15 29.6752C187.634 28.9826 189.201 28.5626 190.782 28.4061L191.337 26.0678C191.387 25.8499 191.51 25.6555 191.685 25.517L191.686 25.5182C191.774 25.4492 191.875 25.3985 191.983 25.3691C192.091 25.3397 192.203 25.3322 192.314 25.3471L196.401 25.8828L196.402 25.8839C196.513 25.898 196.62 25.9341 196.716 25.9901C196.813 26.0461 196.897 26.1208 196.964 26.2099L196.965 26.2091C197.099 26.3881 197.168 26.6076 197.16 26.831L197.095 29.1923C198.611 29.7393 200.045 30.5453 201.327 31.6009L203.311 30.3781C203.501 30.2591 203.725 30.2086 203.947 30.2348V30.2358C204.058 30.2494 204.165 30.285 204.262 30.3405C204.359 30.3961 204.444 30.4706 204.512 30.5595L207.023 33.8281C207.092 33.9166 207.142 34.0179 207.171 34.126C207.199 34.2341 207.206 34.3469 207.191 34.4577L207.192 34.4578C207.16 34.6792 207.053 34.8828 206.889 35.0352L205.217 36.618C205.928 38.1374 206.353 39.7439 206.502 41.3636L208.731 41.8934C208.949 41.9431 209.144 42.0659 209.282 42.2413C209.351 42.3296 209.401 42.4307 209.431 42.5387C209.46 42.6468 209.467 42.7596 209.452 42.8705L208.916 46.9575C208.902 47.0684 208.866 47.1754 208.81 47.2721C208.753 47.3688 208.678 47.4532 208.589 47.5205L208.59 47.5216C208.411 47.6555 208.191 47.724 207.968 47.7159L205.677 47.6532C205.116 49.1798 204.292 50.6225 203.213 51.9073L204.421 53.8676C204.539 54.0568 204.59 54.2808 204.563 54.5024V54.5034V54.5044C204.549 54.6152 204.514 54.7222 204.458 54.8191C204.403 54.916 204.328 55.0008 204.24 55.0686L200.971 57.5797C200.882 57.6484 200.781 57.6986 200.673 57.7274C200.565 57.7563 200.452 57.7632 200.341 57.7478C200.12 57.7159 199.916 57.6092 199.764 57.4454L198.161 55.7522C196.651 56.4418 195.057 56.8509 193.452 56.9889L192.906 59.2874C192.856 59.5054 192.733 59.6997 192.558 59.8383C192.47 59.9069 192.369 59.9573 192.261 59.9863C192.153 60.0154 192.04 60.0225 191.93 60.0073L191.929 60.0082L187.842 59.4725L187.841 59.4714C187.73 59.4573 187.623 59.4212 187.527 59.3652C187.43 59.3092 187.346 59.2344 187.279 59.1453L187.277 59.1462C187.144 58.9671 187.075 58.7477 187.083 58.5243L187.149 56.1214C185.662 55.5629 184.257 54.7534 183.001 53.702L180.931 54.9772C180.742 55.0962 180.518 55.1467 180.296 55.1205C180.184 55.1068 180.077 55.0711 179.98 55.0153C179.883 54.9596 179.798 54.8849 179.73 54.7958L177.219 51.5271C177.151 51.4388 177.101 51.3377 177.072 51.2297C177.044 51.1217 177.037 51.0091 177.052 50.8986V50.8976V50.8966C177.084 50.6757 177.19 50.4723 177.354 50.32L179.14 48.6285ZM197.507 49.5853C201.316 46.6593 202.032 41.1996 199.105 37.3908C196.179 33.5821 190.72 32.8665 186.911 35.7926C183.102 38.7186 182.387 44.1783 185.313 47.9871C188.239 51.7958 193.698 52.5114 197.507 49.5853Z" fill="#54AF32"/>
</svg>
