<svg xmlns="http://www.w3.org/2000/svg" height="537.9257" width="1489.6494"><defs><clipPath id="a"><path d="M0 595.276h1388.957V0H0z"/></clipPath></defs><g clip-path="url(#a)" transform="matrix(1.33333 0 0 -1.33333 -181.1465 665.8137)"><path d="M903.1899 223.9766c-41.9 0-75.989 34.088-75.989 75.989 0 41.897 34.089 75.983 75.989 75.983 41.896 0 75.981-34.086 75.981-75.983v-16.161h-111.458l15.758 32.323h60.278c-6.439 16.097-22.192 27.497-40.559 27.497-24.078 0-43.666-19.585-43.666-43.659 0-24.077 19.588-43.667 43.666-43.667 8.141 0 16.076 2.252 22.95 6.512l17.025-27.479c-11.992-7.429-25.814-11.355-39.975-11.355M809.1304 461.8452v-236.031h-32.318v236.046zM751.9751 461.8452v-236.031h-32.326v236.046zM494.8989 316.1235h-51.8c-7.075 0-12.832 5.754-12.832 12.831 0 7.075 5.757 12.834 12.832 12.834h67.877l15.676 32.322h-83.553c-24.901 0-45.158-20.255-45.158-45.156 0-24.897 20.257-45.154 45.158-45.154h51.8c7.072 0 12.832-5.758 12.832-12.832 0-7.076-5.76-12.83-12.832-12.83h-90.028v-32.324h90.028c24.898 0 45.155 20.256 45.155 45.154 0 24.901-20.257 45.155-45.155 45.155M1170.439 316.1235h-51.8c-7.072 0-12.829 5.754-12.829 12.831 0 7.075 5.757 12.834 12.829 12.834h67.881l15.672 32.322h-83.553c-24.898 0-45.154-20.255-45.154-45.156 0-24.897 20.256-45.154 45.154-45.154h51.8c7.076 0 12.833-5.758 12.833-12.832 0-7.076-5.757-12.83-12.833-12.83h-90.025v-32.324h90.025c24.902 0 45.158 20.256 45.158 45.154 0 24.901-20.256 45.155-45.158 45.155M1069.8813 372.7266h-28.009c-24.895 0-45.155-20.256-45.155-45.159v-101.753h32.326v101.753c0 7.076 5.756 12.836 12.829 12.836h12.336zM667.2856 281.2266c-10.418-21.758-36.6-30.986-58.361-20.568-21.762 10.42-30.991 36.599-20.573 58.362 10.421 21.763 36.601 30.986 58.362 20.566 21.76-10.418 30.99-36.595 20.572-58.36m-6.584 87.581c-37.87 18.131-83.432 2.069-101.564-35.801-18.133-37.872-2.076-83.434 35.797-101.565 37.872-18.133 83.434-2.072 101.566 35.801 18.132 37.867 2.074 83.431-35.799 101.565" fill="#1c4189"/><path d="M479.4282 133.416c-14.95 0-27.114 12.164-27.114 27.115 0 14.949 12.164 27.115 27.114 27.115 14.95 0 27.114-12.166 27.114-27.115 0-14.951-12.164-27.115-27.114-27.115m0 42.695c-8.591 0-15.58-6.988-15.58-15.58 0-8.592 6.989-15.582 15.58-15.582 8.591 0 15.581 6.99 15.581 15.582s-6.99 15.58-15.581 15.58M874.7622 187.3418c-14.784 0-26.813-12.027-26.813-26.813 0-14.781 12.029-26.81 26.813-26.81 14.782 0 26.81 12.029 26.81 26.81v5.702h-27.184l-.076-11.405h14.76c-2.272-5.677-7.83-9.701-14.31-9.701-8.495 0-15.408 6.91-15.408 15.404 0 8.497 6.913 15.409 15.408 15.409 2.872 0 5.673-.795 8.097-2.297l6.008 9.695c-4.231 2.621-9.109 4.006-14.105 4.006M781.3677 186.4473v-51.834h-11.405v51.836zM553.5806 186.4492v-39.928l-26.842 39.926-11.403.002h-.205v-51.836h11.403v35.18l23.652-35.18H564.9856v51.834zM828.7329 186.4492v-39.924l-26.84 39.922-11.405.002h-.205v-51.836h11.404v35.178l23.651-35.178H840.1389v51.834zM608.1499 166.2324h-18.277c-2.496 0-4.529 2.031-4.529 4.527s2.033 4.53 4.529 4.53h23.95l5.53 11.404h-29.48c-8.786 0-15.934-7.147-15.934-15.934 0-8.785 7.148-15.931 15.934-15.931h18.277c2.496 0 4.527-2.032 4.527-4.528 0-2.498-2.031-4.527-4.527-4.527h-31.766v-11.404h31.766c8.785 0 15.933 7.146 15.933 15.931 0 8.787-7.148 15.932-15.933 15.932M722.0796 134.6133h-19.239c-8.783 0-15.933 7.146-15.933 15.934v35.902h11.406v-35.902c0-2.498 2.032-4.53 4.527-4.53h19.344zM764.313 186.4492h-46.365v-11.402h17.245v-40.434h11.404v40.434h12.187zM666.1851 186.4492v-35.902c0-2.498-2.031-4.53-4.526-4.53H647.4071c-2.497 0-4.528 2.032-4.528 4.53v35.902h-11.405v-35.902c0-8.787 7.148-15.934 15.933-15.934H661.6591c8.784 0 15.931 7.147 15.931 15.934v35.902zM426.5728 147.6426c-.245.16-.491.32-.724.492-.18.133-.352.279-.528.42-.222.182-.444.361-.654.551-.174.158-.34.326-.506.492-.194.193-.389.385-.57.586-.164.182-.32.375-.476.566-.168.206-.337.407-.493.62-.146.197-.28.406-.418.613-.15.226-.305.451-.443.683-.102.174-.189.352-.285.528-.154.285-.311.568-.446.861-.034.076-.061.152-.095.229-.77 1.746-1.222 3.621-1.314 5.529-.011.24-.001.48 0 .719-.001.24-.011.48 0 .72.092 1.912.545 3.791 1.319 5.541.031.071.057.143.089.213.137.297.296.586.452.873.094.172.179.348.279.516.14.238.296.465.449.693.135.205.268.41.412.606.157.215.327.418.496.623.156.191.31.383.474.564.181.201.376.393.568.584.168.166.334.336.508.494.209.19.428.368.649.545.178.145.353.291.536.428.228.168.467.322.706.481 4.832 3.168 11.251 3.505 16.507.306l5.946 9.764c-8.86 5.392-19.63 5.029-27.941-.012l-.006.012c-.157-.096-.306-.199-.461-.297-.12-.076-.239-.152-.357-.23-.237-.157-.472-.317-.702-.479-.142-.1-.283-.201-.423-.305a27.719 27.719 0 0 1-1.068-.826c-.196-.16-.389-.322-.581-.486-.145-.125-.289-.254-.431-.383-.188-.168-.372-.338-.553-.512-.139-.131-.276-.265-.412-.4-.179-.18-.355-.358-.528-.541-.132-.139-.262-.281-.392-.424-.169-.186-.335-.373-.499-.564-.127-.147-.251-.297-.375-.448a23.513 23.513 0 0 1-.463-.58c-.125-.16-.247-.324-.369-.488-.139-.188-.275-.377-.408-.568-.13-.184-.257-.371-.382-.559-.111-.168-.221-.34-.328-.51-.08-.127-.166-.25-.244-.379-.062-.101-.116-.205-.176-.306-.069-.117-.137-.237-.204-.354-.169-.297-.333-.596-.49-.894a2.862 2.862 0 0 1-.048-.096c-2.027-3.918-3-8.143-2.993-12.322-.007-4.18.966-8.405 2.994-12.325.015-.029.03-.06.047-.089.157-.303.322-.602.492-.901.066-.115.132-.232.201-.347.06-.104.115-.207.177-.309.079-.131.166-.256.247-.383.105-.168.213-.336.322-.502.128-.191.257-.381.389-.57.131-.186.263-.371.399-.555.125-.168.251-.336.379-.5.147-.191.299-.381.452-.568.128-.154.256-.309.386-.461.16-.186.322-.369.486-.551.135-.146.27-.293.406-.437a28.2967 28.2967 0 0 1 .94-.942c.177-.168.355-.334.537-.496.148-.135.298-.269.45-.398.185-.16.373-.319.564-.473.152-.123.304-.246.458-.367.2-.154.402-.307.607-.459.148-.108.296-.215.445-.32.224-.157.45-.311.679-.463.127-.082.254-.164.382-.244.15-.096.296-.198.448-.29l.006.01c8.31-5.041 19.081-5.404 27.941-.01l-5.946 9.764c-5.25-3.197-11.662-2.863-16.492.297M216.6899 258.2949c-5.981 0-10.848 4.867-10.848 10.848v149.388c0 5.981 4.867 10.848 10.848 10.848h26.59v32.481h-26.59c-23.931 0-43.33-19.399-43.33-43.329v-149.388c0-23.93 19.399-43.328 43.33-43.328h26.59v32.48z" fill="#6aaa30"/><path d="M256.2798 365.0576v-.004l.004.002zM300.1851 343.7588l-43.905-21.239 43.988-21.34v42.538zM355.9185 274.1836v42.538l-23.169 11.24v-42.54z" fill="#82b0e2"/><path d="M332.7495 418.5303c0 23.93-19.396 43.33-43.327 43.33h-26.589v-32.482h26.589c5.981 0 10.846-4.867 10.846-10.848v-32.195l32.481 15.715zM300.2681 343.7988v-74.656c0-5.981-4.864-10.848-10.846-10.848h-26.589v-32.48h26.589c23.931 0 43.327 19.398 43.327 43.328v90.368z" fill="#176fc1"/><path d="M332.7495 402.0503l-32.481-15.715-43.985-21.28-.004-.002v-42.534l43.906 21.239.083.041 32.481 15.712 39.877 19.29v42.541z" fill="#1c4189"/></g></svg>
