<svg xmlns="http://www.w3.org/2000/svg" height="214.6667" width="997.3333"><defs><clipPath id="a"><path d="M0 161h748V0H0z"/></clipPath></defs><g clip-path="url(#a)" transform="matrix(1.33333 0 0 -1.33333 0 214.6667)"><path d="M93.2402 160.5h13.45c24.13-1.65 47.85-12.11 64.09-30.24-.05-1.03-.1-2.05-.14-3.08-13.49-1.63-26.44-7.68-36.02-17.36-11.72 5.36-24.88 8.26-37.75 6.28-15.97-2.19-30.79-11.19-40.37-24.12-1.16-1.56-2.071-3.28-2.85-5.06 1.49.76 2.89 1.7 4.1 2.86 11.25 10.8 26.69 17.05 42.26 17.4 9.44.14 19.16-2.16 26.86-7.8 6.66-4.77 11.28-12.01 13.57-19.81 4.739-15.65 9.56-31.27 14.27-46.921-2.41.441-4.83.901-7.24 1.351-2.69 8.03-5.2 16.12-7.99 24.12-.21 1.569-1.86 2.4-3.321 2.029-3.539-2.319-6.529-5.369-10.139-7.599-3.83-2.619-8.35-3.88-12.43-6.02 7.58-4.57 16.72-4.65 25.3-5.06 4.62-13.49 9.289-26.97 13.81-40.491-13.22-.088-26.95 1.221-38.87 7.38-7.45 3.822-13.36 9.971-18.18 16.702-.62.029-1.86.088-2.48.12-11.71-7.961-26.06-11.931-40.19-11.141 2.3 2.91 6.9 3.25 8.34 6.92 1.19 2.83-.45 5.7-1.35 8.34-2 4.7-3.18 9.82-6.19 14.03-7.8 9.84-9.19 23.91-5.09 35.59-8.5 1.07-17.73-.101-24.64-5.53-8.75-6.77-12.21-18.22-12.54-28.88-.29-14.92 4.58-29.691 12.7-42.119-.93-.981-1.87-1.96-2.85-2.891h-.33c-12.02 15.63-19.61 34.67-21.03 54.38v13.23c1.87 24.69 12.63 48.71 30.35 66.07 16.89 16.15 39.66 25.65 62.89 27.32M397.6807 128.77c1.109-1.61 1.589-3.53 2.18-5.37 10.889-33.3 21.759-66.61 32.67-99.9h-11.67c-6.701 22.25-13.481 44.47-20.41 66.64-.801 2.55-1.46 5.16-2.67 7.55-7.821-24.66-15.17-49.46-22.731-74.19h-11.579c11.329 35.11 22.869 70.16 34.21 105.27M231.5298 121.8101c12.29 2.46 24.6-3.41 33.2-11.93-2.35-2.36-3.99-5.59-6.75-7.43-4.62 3.76-9.17 7.97-15 9.76-5.53 2.01-12.16.93-16.53-3.09-5.63-5.2-5.89-15.2-.09-20.38 10.58-9.7 25.01-14.389 34.88-25.01 5.56-5.93 5.69-14.799 4.03-22.299-1.66-7.521-6.91-14.171-14.04-17.201-10.42-4.5-23.18-3.53-32.64 2.85-4.26 2.771-7.77 6.521-10.9 10.48 2.76 2.25 5.57 4.44 8.34 6.67 3.55-5.36 8.28-10.291 14.5-12.39 6.5-2.33 14.37-1.2 19.41 3.71 5.27 4.74 6.81 12.78 4.5 19.349-2.54 4.961-7.63 7.821-12.1 10.831-8.81 5.839-19.07 9.99-26.03 18.22-5.31 6.19-6.03 15.2-3.62 22.74 2.72 8.15 10.5 13.83 18.84 15.12M305.8198 111.27c-.14-13.59-.04-27.18-.06-40.77 6.97.37 14.56-1.28 20.94 2.351 6.26 3.379 9.08 10.819 8.84 17.639.15 6.68-1.47 14.49-7.6 18.23-6.7 3.98-14.76 2.08-22.12 2.55m-10.82 9.23c8.37-.04 16.74.09 25.11-.06 7.66-.2 15.66-3.1 20.38-9.39 5.29-6.87 6.25-16.01 5.65-24.4-.54-8.11-4.59-16.251-11.74-20.45-8.5-5.301-18.91-5.131-28.56-4.91-.18-12.59-.06-25.17-.06-37.76-3.6-.04-7.19-.04-10.78-.03zM465.8496 111.29c-.22-12.93-.039-25.86-.09-38.79 7.59.09 15.91-.89 22.64 3.42 5.87 3.72 8.14 11.02 7.89 17.66.141 5.46-1.259 11.91-6.39 14.81-7.339 4.12-16.029 2.52-24.05 2.9m-10.85 9.21c8.681-.02 17.361.03 26.05-.01 6.55-.11 13.481-1.98 18.16-6.81 7.241-7.37 9.14-18.74 7.021-28.56-1.92-8.62-8.841-14.82-16.061-19.26 8.79-14.049 17.3-28.259 26.011-42.36h-13.141c-7.72 13.34-15.559 26.62-23.27 39.97-4.649.15-9.289-.11-13.93-.24-.17-13.22-.08-26.461-.05-39.69-3.6-.05-7.2-.05-10.79-.04zM526 120.5h65v-9.25c-9.189-.08-18.38.16-27.569-.12.119-29.22.109-58.441.008-87.66-3.569.04-7.128.04-10.689.03 0 29.25-.01 58.49.01 87.74-8.92.02-17.84 0-26.76.01zM616.75 120.5c16.931-.05 33.87.1 50.8-.08-.06-3.06-.05-6.13-.111-9.19-13.29.07-26.579-.04-39.87.06-.199-11.14.061-22.28-.138-33.42 9.598-.28 19.209-.04 28.819-.13-.01-3.08 0-6.16 0-9.24H627.5c0-12-.02-24 .01-36h40.99c0-3 0-6-.01-9-17.24.01-34.49 0-51.74 0zM693.75 120.5c17.01-.02 34.02.05 51.029-.04-.199-3.15.62-6.59-1.019-9.48-12.829-26.15-25.65-52.32-38.46-78.48H747c-.01-3-.01-6 0-9-18.26.02-36.52-.05-54.78.03.16 2.75-.42 5.651.469 8.3 12.96 26.55 26.441 52.86 39.372 79.44-12.771-.04-25.541-.02-38.311-.01-.01 3.08-.01 6.16 0 9.24" fill="#2e2d2d"/></g></svg>
