<svg xmlns="http://www.w3.org/2000/svg" width="796.43079" height="534.63892" viewBox="0 0 796.43076 534.63892"><defs><clipPath id="a"><path d="M0 500h800V0H0z"/></clipPath></defs><g clip-path="url(#a)" transform="matrix(1.33333 0 0 -1.33333 -135.11813 600.65239)"><path d="M584.5779 351.358c0-.004.001-.007.001-.011z" fill="#6ca24d"/><path d="M492.574 108.6311c3.008 2.218 15.477 19.742 25.115 34.924-2.379-.419-4.774-.805-7.179-1.168-8.833-14.41-18.485-30.175-17.936-33.756M543.8328 217.8813c.921 3.366 2.111 8.191 3.525 13.988.735 2.891 1.442 6.045 2.201 9.376.727 3.337 1.494 6.857 2.288 10.498 1.566 7.286 3.062 15.093 4.417 22.924.678 3.915 1.412 7.822 2.009 11.688.646 3.859 1.193 7.67 1.731 11.358.516 3.691 1.014 7.259 1.486 10.643.441 3.388.878 6.591 1.199 9.557.691 5.926 1.282 10.87 1.61 14.339.366 3.468.575 5.449.575 5.449s-.038-1.992-.106-5.48c-.036-1.745-.136-3.86-.244-6.288-.089-2.429-.238-5.168-.481-8.149-.449-5.965-1.026-12.927-1.962-20.35-.94-7.422-2.122-15.316-3.441-23.188-1.469-7.846-3.078-15.665-4.751-22.958-1.696-7.288-3.555-14.023-5.222-19.769-.807-2.88-1.633-5.497-2.403-7.805-.749-2.314-1.399-4.329-1.984-5.971-1.169-3.286-1.837-5.164-1.837-5.164s.505 1.928 1.39 5.302m-10.672 8.043c7.821-14.702 12.607-28.066 14.272-39.757 8.116 2.866 16.126 6.075 23.987 9.659 2.319 5.094 4.568 10.89 6.684 17.578 2.479 7.758 4.461 16.46 6.016 25.723l1.105 7.112c4.207 29.962 4.192 64.906.744 94.637l-11.476-10.359 10.085 20.841c-3.967 26.364-10.826 47.149-19.942 54.131-8.493-12.111-17.236-59.334-27.618-107.195l8.753-21.434s-5.362 6.292-10.983 11.247c-3.557-16.031-7.324-31.818-11.33-46.152.51-.763 1.021-1.534 1.537-2.324 3.252-4.978 5.924-9.465 8.166-13.707" fill="#64a70b"/><path d="M530.0696 146.0201c-.591-.13-1.158-.251-1.734-.375 9.22-15.223 31.405-48.936 36.395-51.135.798 5.428-18.359 32.439-28.848 49.312zM511.2792 200.6585c-1.906 2.924-4.724 7.016-8.12 11.923-1.674 2.469-3.563 5.091-5.55 7.87-2.013 2.76-4.136 5.671-6.332 8.681-4.409 6.008-9.254 12.31-14.211 18.523-2.477 3.106-4.911 6.249-7.406 9.262-2.457 3.045-4.944 5.984-7.344 8.835-2.418 2.836-4.756 5.578-6.973 8.178-2.241 2.579-4.346 5.032-6.351 7.241-3.973 4.451-7.277 8.175-9.654 10.723-2.35 2.577-3.693 4.049-3.693 4.049s1.465-1.352 4.028-3.718c1.281-1.185 2.796-2.664 4.54-4.357 1.757-1.68 3.707-3.609 5.775-5.77 4.162-4.296 8.986-9.349 13.915-14.978 4.926-5.63 10.044-11.755 15.056-17.968 4.893-6.307 9.67-12.702 14.014-18.794 4.324-6.108 8.126-11.969 11.316-17.031 1.618-2.515 3.027-4.87 4.242-6.979 1.233-2.096 2.308-3.92 3.148-5.447 1.681-3.056 2.641-4.802 2.641-4.802s-1.105 1.658-3.041 4.559m-.216 53.048c-19.251 25.021-45.3 50.535-69.97 69.682l-.665-16.118-8.161 22.738c-20.893 15.108-40.028 24.865-52.161 24.865-.958 0-1.872-.06-2.74-.184 2.417-13 23.902-44.964 47.664-80.702l22.192-9.064-16.195.031c2.009-3.034 4.025-6.083 6.037-9.143l5.962-9.103c4.155-6.385 8.243-12.765 12.189-19.069 2.218-3.542 23.948-12.44 30.888-14.804 3.239-1.104 5.39-4.179 5.39-7.601v-32.746c8.126 1.135 16.205 2.629 24.141 4.435.619.14 1.243.269 1.86.413 9.059 2.125 18.023 4.729 26.867 7.741-.509 3.821-1.395 8.026-2.76 12.646-.455 1.54-.963 3.126-1.528 4.759-.969 2.801-2.117 5.75-3.439 8.834-.43 1.004-.88 2.023-1.351 3.057-.822 1.809-1.708 3.667-2.658 5.572-.731 1.465-1.488 2.949-2.298 4.471-1.16 2.195-2.419 4.42-3.762 6.665-1.342 2.246-2.767 4.514-4.257 6.795-2.121 3.247-4.355 6.518-6.752 9.812z" fill="#7a4183"/><path d="M532.6248 219.9454c.951-1.905 1.836-3.763 2.659-5.572-.823 1.809-1.708 3.667-2.659 5.572M536.6344 211.3165c1.322-3.084 2.47-6.033 3.439-8.834-.969 2.801-2.117 5.75-3.439 8.834" fill="#804673"/><path d="M321.7983 131.1098c-.707-.049-1.402-.069-2.08-.069-12.164 0-20.337 7.536-20.337 18.754 0 11.512 9.001 21.64 21.888 24.629 1.966.455 3.875.686 5.673.686 10.445 0 17.194-7.522 17.194-19.164 0-13.749-9.185-23.962-22.338-24.836m13.736 57.92c-4.138 0-8.626-.713-13.339-2.119-27.033-8.068-41.178-26.433-41.178-40.403 0-16.349 16.72-27.767 40.661-27.767 24.038 0 40.827 16.652 40.827 40.493 0 18.1-10.587 29.796-26.971 29.796" fill="#2d2926"/><path d="M246.7506 210.3889c-22.318-5.234-45.327-7.887-68.387-7.887-10.267 0-20.668.53-30.914 1.578l-1.111.113.01-11.053.859-.126c31.32-4.567 63.416-4.232 94.624 1.092l1.175.201v-74.37h21.802v79.053l.757.194c38.154 9.783 75.124 27.446 106.916 51.079l.405.301v23.47l-1.652-1.372c-36.27-30.148-79.317-51.681-124.484-62.273M409.8919 133.9416c-11.036 0-16.63 5.596-16.63 16.631v35.719c-5.927 3.018-11.818 6.267-17.535 9.671v-53.717c0-15.376 8.359-23.505 24.173-23.505 15.033 0 23.864 8.08 26.964 11.554l3.158 3.54v-13.094h17.532v44.179c-5.895 1.696-11.784 3.581-17.532 5.609v-26.243l-.383-.49c-4.853-6.171-12.234-9.854-19.747-9.854M554.7477 161.9736l3.073 1.013c32.473 13.062 61.312 31.576 87.902 51.342l-.022 17.832-1.652-1.372c-23.551-19.576-49.875-35.484-78.237-47.279-6.97-2.899-13.903-5.499-20.606-7.726-8.398-2.793-16.96-5.223-25.45-7.219l-.201-.05c-7.989-1.874-16.396-3.461-24.983-4.714-4.199-.613-7.701-1.066-11.024-1.425l-1.115-.121v42.261c-6.003 2.062-12.143 4.399-18.266 6.95l-.873.361v-91.889h19.139v28.568l.938.065c9.656.624 19.408 1.737 29.119 3.316l1.062.17c.771.124 1.544.247 2.31.382l.903.147c2.147.382 4.286.8 6.42 1.236 2.424.497 4.84 1.018 7.253 1.567l.297.067 101.869-38.528 21.058 16.057z" fill="#2d2926"/></g></svg>
