<svg xmlns="http://www.w3.org/2000/svg" height="430.667" width="4132">
    <defs>
        <clipPath id="a">
            <path d="M0 323h3099V0H0z"/>
        </clipPath>
    </defs>
    <g clip-path="url(#a)" transform="matrix(1.33333 0 0 -1.33333 0 430.667)">
        <path d="M94.61 292.78c17.46.05 34.93.02 52.39.02 7.77.03 15.94-.87 22.6-5.2 5.47-3.47 8.8-9.35 11.14-15.22 20.87-54.84 41.94-109.6 62.9-164.41.96-2.06 1.22-4.68 3.18-6.1 22.42 56.69 44.95 113.34 67.42 170.01 2.33 6.06 5.84 11.94 11.31 15.65 6.24 4.29 14.05 5.32 21.46 5.27 15.3-.02 30.6.07 45.89-.05-37.23-87.43-74.32-174.92-111.55-262.36-26.22.01-52.45.01-78.67 0-36.06 87.45-72 174.95-108.07 262.39M425.47 292.8c23.609.01 47.229.01 70.84-.01.01-87.45 0-174.91.01-262.37-13.1-.02-26.201-.08-39.29.03-9.67.21-19.991 3.53-25.9 11.62-5.16 6.82-5.971 15.72-5.67 23.99.01 75.58.01 151.16.01 226.74M959.91 289.72c14.83 3.03 30.02 3.24 45.1 3.08 30.69-.01 61.38.03 92.07-.02-.01-9.59.55-19.24-.53-28.8-.96-8.85-6.34-17.19-14.45-21.06-12.07-6.09-26.01-5-39.11-5.09-18.02-.27-36.43 1.32-54.01-3.64-13.73-3.59-26.74-11.33-34.86-23.18-10.11-14.49-13.01-32.69-12.83-50.03-.05-17.61 3.25-36.17 14.11-50.52 8.93-12.09 23.1-19.27 37.56-22.36 16.09-3.68 32.67-2.41 49.02-2.64 12.74-.24 26.16 1.33 38.14-4.06 8.26-3.48 14.5-11.16 16.1-20 1.73-10.2.6-20.59.99-30.88-33.4-.29-66.79-.04-100.19-.13-17.61-.17-35.37 1.77-52.18 7.18-16.2 5.17-31.52 13.72-43.52 25.88-12.44 12.25-21.13 27.96-26.33 44.54-6.09 19.33-7.87 39.77-7.37 59.95.53 19.23 3.52 38.59 10.66 56.53 6.51 16.41 16.86 31.5 30.71 42.56 14.6 11.89 32.54 19.14 50.92 22.69M1462.16 292.81c27.93-.01 55.87.01 83.8-.01 10.5.02 21.44-1.7 30.36-7.57 6.05-3.91 10.64-9.75 13.78-16.19 3.56-7.24 5.77-15.03 8.49-22.6 15.63-45.04 31.38-90.04 47.11-135.049.9-2.54 1.49-5.29 3.25-7.44 19.08 53.22 37.38 106.73 56.11 160.09 3.19 7.99 8.21 15.55 15.52 20.32 14.19 9.52 32.06 8.43 48.37 8.44 22.07-.03 44.14.07 66.21-.05-.08-87.46.17-174.92-.12-262.37-12.34.07-24.69-.05-37.02.05-8.64.21-17.78 2.19-24.32 8.17-6.15 5.65-8.67 14.23-8.55 22.38 0 60.34-.03 120.68.02 181.02.09 1.4-.22 2.71-.93 3.91-27.22-71.75-54.1-143.642-81.14-215.472-25.29-.099-50.57-.029-75.86-.029-26.62 70.9-53.33 141.78-79.94 212.69a8.185 8.185 0 0 1-1.84 2.78c-.42-57.28-.07-114.58-.18-171.86-.15-10.07 1.16-20.99-4.31-30.02-5.28-9.21-16.32-12.99-26.4-13.48-10.8-.29-21.6-.04-32.4-.12-.02 87.47 0 174.94-.01 262.41" fill="#24b5e9"/>
        <path d="M1922.7 292.82c88.7.04 177.41.02 266.12.01-.06-8.63.14-17.26-.11-25.89-.34-8.33-3.99-16.82-10.93-21.73-8.32-5.91-18.86-7.13-28.79-7.41-19.23 0-38.46 0-57.69.01-.02-69.13-.03-138.26 0-207.39-12.46-.13-24.91-.04-37.37-.05-8.94.03-18.53 2.08-25.09 8.55-6.01 5.609-8.43 14.05-8.43 22.06-.06 58.95.06 117.89-.06 176.84-16.78-.03-33.56-.01-50.34-.01-9.96-.1-20.27.01-29.63 3.82-6 2.37-11.28 6.76-14.2 12.55-2.79 5.5-3.54 11.76-3.51 17.85.01 6.93-.01 13.86.03 20.79M2223.129 292.83c76.2.01 152.4.02 228.61 0-.05-8.31.11-16.63-.07-24.94-.23-8.58-3.74-17.54-10.93-22.6-8.28-5.96-18.82-7.19-28.72-7.48-39.38-.05-78.76.07-118.14-.06.1-15.98-.33-31.98.22-47.96 29.08.02 58.16.03 87.24 0-.08-7.61.18-15.22-.15-22.82-.47-8.19-3.87-16.56-10.65-21.499-8.15-6.08-18.68-7.32-28.54-7.692-16.05-.058-32.09.061-48.14-.058.08-17.43-.19-34.862.14-52.29 35.35.008 70.7.008 106.05 0 8.97-.06 18.06.48 26.9-1.47 7.94-1.62 15.89-5.56 20.36-12.59 4.31-6.57 4.9-14.71 4.89-22.36-.1-6.2.13-12.42-.16-18.62-64.69.06-129.38.03-194.07-.032-9.08-.138-18.79 1.651-25.77 7.862-6.45 5.63-9.21 14.42-9.07 22.79 0 77.268-.01 154.55 0 231.82M2534.98 275.1c21.58 12.93 47.13 17.61 72.02 17.72 34.879.03 69.76.03 104.64 0-.06-8.24.11-16.48-.08-24.72-.29-8.16-3.26-16.67-9.8-21.9-8.04-6.53-18.79-7.97-28.81-8.37-15.321-.14-30.64.16-45.95-.17-16.26-.8-33.1-4.41-46.36-14.33-10.89-8.09-18.16-20.33-21.47-33.37-3.88-14.97-4.2-30.72-2.18-46 2.04-14.36 7.389-28.83 17.95-39.11 9.62-9.74 22.84-15.06 36.14-17.41 15.47-2.94 31.27-1.65 46.92-1.94 13.36-.15 27.77 1.33 39.83-5.68 8.52-4.67 13.32-14.29 13.69-23.79.27-8.55.05-17.1.12-25.66-27.53-.02-55.07 0-82.6-.01-15.35.08-30.79-.55-46.02 1.781-27.4 3.76-54.69 15.61-72.68 37.19-19.23 22.54-26.81 52.65-28.04 81.688-1.171 29.161 2.12 59.491 16.12 85.561 8.43 15.81 21.14 29.34 36.56 38.52M2762.52 292.84c21.07-.02 42.13.02 63.2-.01.01-34.34-.05-68.68.03-103.01 36.15-.02 72.3-.01 108.45 0 .08 34.34.02 68.67.03 103.01 23.36.02 46.72 0 70.09.01.07-87.47-.02-174.93.04-262.4-11.81-.17-23.63-.04-35.44-.07-9.02.03-18.69 1.71-25.65 7.87-6.47 5.6-9.062 14.44-9.02 22.76-.05 26.16.03 52.31-.042 78.47-36.159.03-72.319.05-108.479-.01-.04-26.17 0-52.33-.02-78.5.03-8.07-2.37-16.61-8.43-22.24-6.74-6.31-16.31-8.23-25.25-8.34-9.85-.03-19.69-.04-29.53.01.02 87.48-.03 174.97.02 262.45" fill="#939395"/>
        <path d="M1331 130.99c-4.811-15.55-14.851-29.76-29.011-38.08-17.63-10.46-39.399-12.27-59.179-8.04-16.851 3.62-32.22 14-41.3 28.72-12.08 19.28-14.551 43.22-11.311 65.36 2.67 18.02 10.981 35.88 25.67 47.16 8.83 6.94 19.54 11.24 30.57 13.14 20.02 3.29 41.89.78 58.96-10.84 14.68-9.9 24.06-26.2 27.64-43.32 3.69-17.81 3.341-36.66-2.039-54.1m77.329 52.08c-2.579 21.02-9.769 41.68-22.199 58.93-16.71 23.52-42.54 39.4-70.101 47.01-24.149 6.82-49.57 8.17-74.49 6.07-22.51-2.12-44.939-7.94-64.729-19.09-18.701-10.43-34.651-25.89-45.101-44.63-14.149-25.13-18.5-54.82-16.279-83.3 1.679-23.24 8.66-46.41 22.07-65.62 10.869-15.71 25.829-28.43 42.779-37.19 16.7-8.75 35.13-13.83 53.781-16.28 22.399-2.73 45.269-2.38 67.479 1.77 29.381 5.44 58.021 19.06 77.78 41.92 13.701 15.67 22.71 35.12 26.941 55.43 3.76 18.04 4.26 36.71 2.069 54.98M738.75 101.32c-4.961-8.82-13.971-14.79-23.681-17.21-7.16-2.07-14.66-1.9-22.04-2.14-13.359.08-26.729 0-40.09.34-9.139.61-19.07 2.22-26.07 8.62-6.659 5.95-8.08 15.64-6.989 24.09.739 6.26 3.939 12.27 9.149 15.92 6.981 4.94 15.76 6.36 24.12 6.85 9.26.72 18.561.27 27.851.4 21.109-.05 42.229.08 63.34-.06.189-.21.59-.62.779-.82.37-12.19-.05-25.17-6.369-35.99m76.63 109.73c-1.481 17.79-5.731 36.13-16.82 50.52-10.281 13.72-26.22 22.04-42.55 26.24-18.87 5.06-38.561 5.16-57.95 4.99-44.111-.01-88.21.03-132.321-.02-.01-6.93-.029-13.86 0-20.8.21-9.24 2.95-18.93 9.731-25.53 6.139-6.15 15.019-8.74 23.54-8.85 29.679-.02 59.349.04 89.029-.06 10.58.12 21.341-.14 31.58-3.1 7.641-2.21 15.091-6.48 19.33-13.42 5.88-9.27 6.28-20.67 6.231-31.32-33.071-.05-66.141.01-99.21-.02-13.071-.03-26.2-1.18-38.92-4.28-15.511-3.77-30.71-10.92-41.54-22.94-11.271-12.31-16.62-29-17.51-45.45-1.091-18.46 1.85-38.05 12.659-53.49 9.061-13.11 23.28-21.84 38.301-26.57 19.04-6.17 39.26-6.84 59.109-6.55 18-.01 35.991 0 53.991-.01 13.219 0 26.5.92 39.429 3.79 14.351 3.16 28.441 9.04 39.391 19.05 12.5 11.33 19.519 27.52 22.46 43.9 3.519 17.73 2.319 35.86 2.779 53.81-.269 20.04.551 40.1-.739 60.11" fill="#24b5e9"/>
        <path d="M1906.99 70.05c4.47 3.57 10.55 3.47 16 3.55 7.56.06 15.29-.56 22.46-3.13 4.32-1.58 5.8-6.46 6.98-10.47 2.13-9.91 2.51-20.27.63-30.26-9.69-.01-19.37.06-29.04.15-5.91.3-12.67.51-17.06 5.03-4.55 4.81-4.83 11.85-5.21 18.09-.2 5.95.24 12.97 5.24 17.04" fill="#939395"/>
    </g>
</svg>
