<svg xmlns="http://www.w3.org/2000/svg" height="188.97" width="188.97">
    <path d="M188.98 188.97H0V0h188.98v188.97" fill="#213a89"/>
    <path d="M121.59 74.56h-4.11L123.2 85l5.65-10.45h-3.38v-2.61h11.71v2.6h-3.89l-7.75 14.35h-9.18l-7.9-14.34h-3.88v-2.61h17v2.6M46.22 74.56h-4.1L47.83 85l5.65-10.45h-3.38v-2.61h11.7v2.6h-3.88L50.17 88.9H41l-7.9-14.34h-3.87v-2.61h16.99v2.6M89.33 74.56h-3.95v-2.61h15.67v2.6h-3.9v11.72h3.62c1.38 0 1.97-.17 2.61-.48a5.38 5.38 0 0 0 2.94-4.74h2.58v7.85H85.38v-2.63h3.96V74.56M60.27 80.38c0-4.93 4.18-8.85 12.04-8.85 7.87 0 12.1 3.92 12.1 8.85 0 5-3.99 8.97-12.05 8.97-8.07 0-12.1-3.98-12.1-8.97zm12.06 6.27c2.96 0 4.18-3.22 4.18-6.3 0-3.27-1.47-6.15-4.16-6.15-2.7 0-4.2 2.88-4.2 6.14 0 3.16 1.3 6.31 4.2 6.31h-.02M135.6 80.38c0-4.93 4.19-8.85 12.06-8.85 7.86 0 12.1 3.92 12.1 8.85 0 5-3.99 8.97-12.06 8.97s-12.1-3.98-12.1-8.97zm12.07 6.27c2.96 0 4.18-3.22 4.18-6.3 0-3.27-1.47-6.15-4.16-6.15-2.69 0-4.2 2.88-4.2 6.14 0 3.16 1.32 6.31 4.2 6.31h-.02M40.61 117.25L37.2 107h2.88l1.5 4.96c.41 1.4.56 2.06.68 2.77h.06c.12-.63.3-1.44.68-2.8l1.37-4.93h2.87l-3.44 10.25H40.6M53.45 109.08c-1.65 0-2.64 1.21-2.64 3.05 0 1.83.99 3.05 2.64 3.05 1.66 0 2.65-1.22 2.65-3.05 0-1.84-1-3.05-2.65-3.05zm-.03 8.45c-3.2 0-5.38-2.08-5.38-5.37 0-3.27 2.26-5.43 5.44-5.43 3.2 0 5.39 2.07 5.39 5.37 0 3.26-2.26 5.43-5.45 5.43M60.98 107h2.61v8h4.59v2.25h-7.2V107M71.79 117.25L68.38 107h2.88l1.5 4.96c.41 1.4.56 2.06.68 2.77h.06c.12-.63.3-1.44.68-2.8l1.37-4.93h2.87l-3.44 10.25h-3.19M84.51 109.08c-1.65 0-2.64 1.21-2.64 3.05 0 1.83.99 3.05 2.64 3.05 1.66 0 2.65-1.22 2.65-3.05 0-1.84-1-3.05-2.65-3.05zm-.03 8.45c-3.2 0-5.38-2.08-5.38-5.37 0-3.27 2.26-5.43 5.44-5.43 3.2 0 5.39 2.07 5.39 5.37 0 3.26-2.26 5.43-5.45 5.43M102.79 117.25v-.87h-.02c-.6.68-1.43 1.15-2.94 1.15-2.86 0-5.04-2.02-5.04-5.37 0-3.27 2.25-5.43 5.44-5.43 2.08 0 3.64.7 4.59 1.85l-2 1.76a2.98 2.98 0 0 0-2.62-1.3c-1.65 0-2.64 1.22-2.64 3.06 0 1.9.99 3.1 2.64 3.1 1.52 0 2.18-.82 2.18-1.69v-.07h-1.98v-1.97h4.55v5.78h-2.16M110.16 111.68l1.8.01c1.39 0 1.76-.66 1.76-1.35 0-.68-.37-1.22-1.82-1.22l-1.74.02zm3.64 5.57l-2.06-3.44h-1.58v3.44h-2.62V107l4.5-.03c2.04 0 4.45.6 4.45 3.3 0 1.54-.75 2.55-2.01 3.09l2.52 3.9h-3.2M123.56 109.08c-1.65 0-2.64 1.21-2.64 3.05 0 1.83.99 3.05 2.64 3.05 1.66 0 2.65-1.22 2.65-3.05 0-1.84-1-3.05-2.65-3.05zm-.03 8.45c-3.2 0-5.38-2.08-5.38-5.37 0-3.27 2.25-5.43 5.44-5.43 3.2 0 5.38 2.07 5.38 5.37 0 3.26-2.25 5.43-5.44 5.43M133.55 112.94c0 1.34.72 2.24 2.1 2.24 1.36 0 2.08-.77 2.08-2.24V107h2.47v6.09c0 2.46-1.48 4.44-4.59 4.44-3.16 0-4.68-1.87-4.68-4.38V107h2.62v5.94M147 109.12c-.59 0-1.12 0-1.63.02v2.8c.53.02 1.07.02 1.67.02 1.54 0 1.97-.57 1.97-1.41 0-.87-.43-1.43-2.01-1.43zm-4.24-2.12c1.5 0 2.84-.03 4.31-.03 2.4 0 4.7.63 4.7 3.55 0 2.58-2 3.58-4.8 3.58-.74 0-1.16 0-1.6-.02v3.17h-2.61V107"
          fill="#fff"/>
</svg>
